<?xml version="1.0" encoding="UTF-8"?><svg id="Layer_2" xmlns="http://www.w3.org/2000/svg" viewBox="0 0 161.86 93.83"><defs><style>.cls-1{stroke:#000;stroke-width:.28px;}.cls-1,.cls-2{fill:none;stroke-miterlimit:11.34;}.cls-2{isolation:isolate;opacity:.8;stroke:#6c9;stroke-linecap:round;stroke-width:1.13px;}</style></defs><g id="Layer_1-2"><polyline class="cls-2" points="3.07 48.77 3.55 49.25 3.57 49.27 3.65 49.34 3.7 49.37 3.78 49.44 3.83 49.47 3.92 49.52 3.97 49.55 4.06 49.59 4.12 49.62 4.21 49.65 4.27 49.67 4.37 49.69 4.43 49.7 4.53 49.72 4.59 49.72 4.69 49.73 4.72 49.73 6.37 49.73"/><polyline class="cls-2" points="12.18 51.36 12.18 62.52 11.04 63.66 11.02 63.68 10.95 63.76 10.91 63.8 10.85 63.89 10.82 63.93 10.76 64.02 10.74 64.07 10.69 64.17 10.67 64.22 10.63 64.32 10.62 64.37 10.59 64.48 10.58 64.53 10.57 64.63 10.56 64.69 10.56 64.8 10.56 64.82 10.56 68.76 10.47 68.77 10.42 68.79 10.37 68.8 10.32 68.83 10.27 68.86 10.04 69.01 9.99 69.04 9.99 69.04 6.37 69.04"/><polyline class="cls-2" points="6.37 69.04 5.88 69.04 5.88 69.04 5.83 69.01 5.6 68.86 5.55 68.83 5.5 68.8 5.45 68.79 5.4 68.77 5.13 68.72 5.07 68.71 5.02 68.71 3.07 68.71"/><polyline class="cls-2" points="3.07 68.71 2.32 68.71 2.27 68.71 2.21 68.72 1.94 68.77 1.89 68.79 1.84 68.8 1.78 68.83 1.74 68.86 1.51 69.01 1.46 69.04 1.42 69.08 1.38 69.12 1.35 69.17 1.2 69.4 1.17 69.44 1.14 69.49 1.13 69.55 1.11 69.6 1.06 69.87 1.05 69.93 1.05 69.98 1.05 71.4 1.05 71.46 1.06 71.51 1.11 71.78 1.13 71.84 1.14 71.89 1.17 71.94 1.2 71.99 1.35 72.22 1.38 72.26 1.42 72.3 1.46 72.34 1.51 72.37 1.74 72.53 1.78 72.56 1.84 72.58 1.89 72.6 1.94 72.61 2.21 72.67 2.27 72.67 2.32 72.68 3.07 72.68"/><polyline class="cls-2" points="3.07 72.68 5.02 72.68 5.07 72.67 5.13 72.67 5.4 72.61 5.45 72.6 5.5 72.58 5.55 72.56 5.6 72.53 5.83 72.37 5.88 72.34 5.88 72.34 6.37 72.34"/><polyline class="cls-2" points="6.37 72.34 9.99 72.34 9.99 72.34 10.04 72.37 10.27 72.53 10.32 72.56 10.37 72.58 10.42 72.6 10.47 72.61 10.74 72.67 10.8 72.67 10.86 72.68 13.55 72.68 13.6 72.67 13.66 72.67 13.93 72.61 13.98 72.6 14.04 72.58 14.09 72.56 14.13 72.53 14.36 72.37 14.41 72.34 14.41 72.34 18.53 72.34 18.53 72.34 18.57 72.37 18.8 72.53 18.85 72.56 18.9 72.58 18.95 72.6 19.01 72.61 19.28 72.67 19.33 72.67 19.39 72.68 22.08 72.68 22.14 72.67 22.19 72.67 22.39 72.62 23.44 73.67 23.44 76.27"/><polyline class="cls-2" points="23.44 76.27 23.44 81.55 23.44 81.58 23.45 81.68 23.45 81.74 23.47 81.84 23.48 81.9 23.5 81.96"/><polyline class="cls-2" points="23.5 81.96 23.5 82 23.52 82.05 23.56 82.15 23.58 82.2 23.62 82.3 23.65 82.35 23.7 82.44 23.73 82.49 23.8 82.57 23.83 82.61 23.9 82.69 23.92 82.71 29.7 88.49 29.72 88.51 29.8 88.58 29.84 88.61 29.93 88.68 29.97 88.71 30.06 88.76 30.11 88.79 30.21 88.83 30.26 88.86 30.36 88.89 30.41 88.91 30.52 88.93 30.57 88.94 30.67 88.96 30.73 88.96 30.84 88.97 30.86 88.97 32.5 88.97"/><line class="cls-2" x1="32.5" y1="88.97" x2="36.1" y2="88.97"/><line class="cls-2" x1="36.1" y1="88.97" x2="62.98" y2="88.97"/><line class="cls-2" x1="62.98" y1="88.97" x2="72.75" y2="88.97"/><line class="cls-2" x1="72.75" y1="88.97" x2="73.01" y2="88.97"/><polyline class="cls-2" points="73.01 88.97 74.59 88.97 74.62 88.97 74.72 88.96 74.78 88.96 74.88 88.94 74.94 88.93 75.04 88.91 75.09 88.89 75.19 88.86 75.25 88.83 75.34 88.79 75.39 88.76 75.48 88.71 75.53 88.68 75.61 88.61 75.66 88.58 75.73 88.51 75.75 88.49 77.77 86.47 77.79 86.45 77.86 86.37 77.9 86.33 77.95 86.25"/><polyline class="cls-2" points="77.95 86.25 77.96 86.25 77.99 86.2 78.04 86.12"/><polyline class="cls-2" points="78.04 86.12 78.05 86.11 78.07 86.06 78.12 85.96 78.14 85.91 78.17 85.81 78.19 85.76 78.22 85.66 78.23 85.6 78.24 85.5 78.25 85.44 78.25 85.34 78.25 85.31 78.25 81.68 78.25 81.61"/><line class="cls-2" x1="78.25" y1="81.61" x2="78.25" y2="77.11"/><line class="cls-2" x1="78.25" y1="77.11" x2="78.25" y2="73.5"/><polyline class="cls-2" points="78.25 73.5 78.25 66.37 78.25 64.11 86.2 56.16"/><line class="cls-2" x1="86.2" y1="56.16" x2="88" y2="54.36"/><line class="cls-2" x1="88" y1="54.36" x2="94.22" y2="48.14"/><line class="cls-2" x1="94.22" y1="48.14" x2="97.89" y2="44.47"/><line class="cls-2" x1="97.89" y1="44.47" x2="99.03" y2="43.34"/><line class="cls-2" x1="99.03" y1="43.34" x2="101.05" y2="41.31"/><polyline class="cls-2" points="101.05 41.31 101.6 40.76 101.6 43.04"/><polyline class="cls-2" points="101.6 43.04 101.6 46.72 101.6 46.74 101.61 46.85 101.61 46.9 101.63 47.01 101.64 47.06 101.66 47.17 101.68 47.22 101.71 47.32 101.74 47.37 101.78 47.47 101.8 47.5"/><polyline class="cls-2" points="101.8 47.5 101.81 47.52 101.86 47.61 101.89 47.65 101.96 47.74 101.99 47.78 102.06 47.86 102.08 47.88 106.01 51.81 106.03 51.83 106.11 51.9 106.16 51.94 106.24 52 106.29 52.03 106.38 52.09 106.43 52.11 106.52 52.16 106.58 52.18 106.67 52.22 106.73 52.23 106.83 52.26 106.89 52.27 106.99 52.28 107.05 52.29 107.15 52.29 107.18 52.3 110.23 52.3"/><polyline class="cls-2" points="126.52 67.22 121.66 67.22 121.6 67.22 121.55 67.23 121.49 67.24 121.44 67.26 121.39 67.29 121.34 67.31 121.3 67.35 121.26 67.38 121.22 67.43 121.19 67.47 121.16 67.52 121.14 67.57 121.12 67.62 121.1 67.67 121.09 67.73 121.09 67.79 121.09 73.45 121.09 73.51 121.1 73.56 121.12 73.62 121.14 73.67 121.16 73.72 121.19 73.77 121.22 73.81 121.26 73.86 121.3 73.89 121.34 73.93 121.39 73.95 121.44 73.98 121.49 74 121.55 74.01 121.6 74.02 121.66 74.02 126.52 74.02"/><line class="cls-2" x1="126.52" y1="74.02" x2="129.81" y2="74.02"/><polyline class="cls-2" points="129.81 74.02 133 74.02 133.05 74.02 133.11 74.01 133.16 74 133.21 73.98 133.26 73.95 133.31 73.93 133.36 73.89 133.4 73.86 133.44 73.81 133.47 73.77 133.5 73.72 133.52 73.67 133.54 73.62 133.55 73.56 133.56 73.51 133.56 73.45 133.56 67.79 133.56 67.73 133.55 67.67 133.54 67.62 133.52 67.57 133.5 67.52 133.47 67.47 133.44 67.43 133.4 67.38 133.36 67.35 133.31 67.31 133.26 67.29 133.21 67.26 133.16 67.24 133.11 67.23 133.05 67.22 133 67.22 129.81 67.22"/><polyline class="cls-2" points="110.91 49 107.86 49 104.89 46.03 104.89 36.78 104.89 35.34 104.89 21.48 108.79 17.58"/><line class="cls-2" x1="139.22" y1="11.54" x2="139.17" y2="11.59"/><polyline class="cls-2" points="101.6 20.77 101.6 20.8 101.6 35.34 101.6 36.1 99.77 37.93"/><line class="cls-2" x1="99.77" y1="37.93" x2="95.94" y2="41.76"/><line class="cls-2" x1="95.94" y1="41.76" x2="92.88" y2="44.83"/><line class="cls-2" x1="92.88" y1="44.83" x2="89.23" y2="48.48"/><line class="cls-2" x1="89.23" y1="48.48" x2="87.75" y2="49.96"/><line class="cls-2" x1="87.75" y1="49.96" x2="85.19" y2="52.51"/><polyline class="cls-2" points="85.19 52.51 75.44 62.26 75.42 62.28 75.35 62.36 75.32 62.4 75.25 62.49 75.22 62.53 75.17 62.62 75.14 62.67 75.1 62.77 75.07 62.82 75.04 62.92 75.02 62.97 75 63.08 74.99 63.13 74.97 63.24 74.97 63.29 74.96 63.4 74.96 63.42 74.96 64.72 74.42 64.72 74.42 64.1 74.42 64.05 74.41 63.99 74.4 63.94 74.38 63.89 74.36 63.84 74.33 63.79 74.29 63.74 74.26 63.7 74.22 63.67 74.17 63.63 74.12 63.6 74.07 63.58 74.02 63.56 73.97 63.55 73.91 63.54 73.86 63.54 72.16 63.54 72.1 63.54 72.05 63.55 71.99 63.56 71.94 63.58 71.89 63.6 71.84 63.63 71.8 63.67 71.76 63.7 71.72 63.74 71.68 63.79 71.66 63.84 71.63 63.89 71.61 63.94 71.6 63.99 71.6 64.02"/><polyline class="cls-2" points="71.6 64.02 71.59 64.05 71.59 64.1 71.59 64.72 70.82 64.72 70.82 64.1 70.82 64.05 70.82 64.02"/><polyline class="cls-2" points="70.82 64.02 70.81 63.99 70.8 63.94 70.78 63.89 70.76 63.84 70.73 63.79 70.69 63.74 70.66 63.7 70.62 63.67 70.57 63.63 70.52 63.6 70.47 63.58 70.42 63.56 70.37 63.55 70.31 63.54 70.26 63.54 68.56 63.54 68.5 63.54 68.45 63.55 68.39 63.56 68.34 63.58 68.29 63.6 68.24 63.63 68.2 63.67 68.16 63.7 68.12 63.74 68.08 63.79 68.06 63.84 68.03 63.89 68.01 63.94 68 63.99 68 64.02"/><polyline class="cls-2" points="68 64.02 67.99 64.05 67.99 64.1 67.99 65.54 67.97 65.57 67.94 65.62 67.9 65.72 67.87 65.77 67.84 65.87 67.82 65.92 67.8 66.02 67.79 66.08 67.77 66.18 67.77 66.24 67.76 66.34 67.76 66.4 67.77 66.51 67.77 66.56 67.79 66.67 67.8 66.72 67.82 66.82 67.84 66.88 67.87 66.98 67.9 67.03 67.94 67.12 67.97 67.17 67.99 67.21 67.99 68.64 67.99 68.69 68 68.75 68.01 68.8 68.03 68.86 68.06 68.91 68.08 68.95 68.12 69 68.16 69.04 68.2 69.08 68.24 69.11 68.29 69.14 68.34 69.16 68.39 69.18 68.45 69.2 68.5 69.2 68.56 69.21 70.26 69.21 70.31 69.2 70.37 69.2 70.42 69.18 70.47 69.16 70.52 69.14 70.57 69.11 70.62 69.08 70.66 69.04 70.69 69 70.73 68.95 70.76 68.91 70.78 68.86 70.8 68.8 70.81 68.75 70.82 68.69 70.82 68.64 70.82 68.02 71.59 68.02 71.59 68.64 71.59 68.69 71.6 68.75 71.61 68.8 71.63 68.86 71.66 68.91 71.68 68.95 71.72 69 71.76 69.04 71.8 69.08 71.84 69.11 71.89 69.14 71.94 69.16 71.99 69.18 72.05 69.2 72.1 69.2 72.16 69.21 72.82 69.21"/><polyline class="cls-2" points="72.82 69.21 73.86 69.21 73.91 69.2 73.97 69.2 74.02 69.18 74.07 69.16 74.12 69.14 74.17 69.11 74.22 69.08 74.26 69.04 74.29 69 74.33 68.95 74.36 68.91 74.38 68.86 74.4 68.8 74.41 68.75 74.42 68.69 74.42 68.64 74.42 68.02 74.96 68.02 74.96 80.03 74.42 80.03 74.42 79.41 74.42 79.36 74.41 79.3 74.4 79.25 74.38 79.19 74.36 79.14 74.33 79.1 74.29 79.05 74.26 79.01 74.22 78.97 74.17 78.94 74.12 78.91 74.07 78.89 74.02 78.87 73.97 78.86 73.91 78.85 73.86 78.84 72.16 78.84 72.1 78.85 72.05 78.86 71.99 78.87 71.94 78.89 71.89 78.91 71.84 78.94 71.8 78.97 71.76 79.01 71.72 79.05 71.68 79.1 71.66 79.14 71.63 79.19 71.61 79.25 71.6 79.3 71.59 79.36 71.59 79.41 71.59 80.84 71.57 80.88 71.54 80.93 71.5 81.02 71.47 81.07 71.44 81.17 71.42 81.23 71.4 81.33 71.39 81.38 71.37 81.49 71.37 81.55 71.36 81.65 71.36 81.71 71.37 81.81 71.37 81.87 71.39 81.97 71.4 82.03 71.42 82.13 71.44 82.18 71.47 82.28 71.5 82.33 71.54 82.43 71.57 82.48 71.59 82.52 71.59 83.3"/><polyline class="cls-2" points="71.59 83.3 71.59 83.95 71.59 84 71.6 84.06 71.61 84.11 71.63 84.16 71.66 84.21 71.68 84.26 71.72 84.31 71.76 84.35 71.8 84.38 71.84 84.42 71.89 84.45 71.94 84.47 71.99 84.49 72.05 84.5 72.1 84.51 72.16 84.51 72.82 84.51"/><polyline class="cls-2" points="72.82 84.51 73.86 84.51 73.91 84.51 73.97 84.5 74.02 84.49 74.07 84.47 74.12 84.45 74.17 84.42 74.22 84.38 74.26 84.35 74.29 84.31 74.33 84.26 74.36 84.21 74.38 84.16 74.4 84.11 74.41 84.06 74.42 84 74.42 83.95 74.42 83.33 74.96 83.33 74.96 84.63 73.91 85.68 72.82 85.68"/><line class="cls-2" x1="72.82" y1="85.68" x2="62.91" y2="85.68"/><line class="cls-2" x1="62.91" y1="85.68" x2="32.81" y2="85.68"/><polyline class="cls-2" points="32.81 85.68 31.55 85.68 26.74 80.87 26.74 76.27"/><polyline class="cls-2" points="26.74 76.27 26.74 72.99 26.73 72.96 26.73 72.86 26.72 72.8 26.71 72.7 26.7 72.64 26.67 72.54 26.66 72.49 26.62 72.39 26.6 72.33 26.55 72.24 26.53 72.19 26.47 72.1 26.44 72.05 26.38 71.97 26.34 71.92 26.27 71.85 26.25 71.83 24.72 70.29"/><polyline class="cls-2" points="24.72 70.29 23.95 69.53 23.93 69.51 23.86 69.44 23.81 69.4 23.73 69.34 23.68 69.31 23.59 69.25 23.54 69.23 23.45 69.18 23.39 69.16 23.29 69.12 23.24 69.11 23.14 69.08 23.08 69.07 22.98 69.06 22.95 69.05 22.94 69.04 22.9 69.01 22.67 68.86 22.62 68.83 22.57 68.8 22.52 68.79 22.46 68.77 22.19 68.72 22.14 68.71 22.08 68.71 19.39 68.71 19.33 68.71 19.28 68.72 19.01 68.77 18.95 68.79 18.9 68.8 18.85 68.83 18.8 68.86 18.57 69.01 18.53 69.04 18.53 69.04 16.05 69.04"/><polyline class="cls-2" points="16.05 69.04 14.41 69.04 14.41 69.04 14.36 69.01 14.13 68.86 14.09 68.83 14.04 68.8 13.98 68.79 13.93 68.77 13.85 68.76 13.85 65.51 14.41 64.95"/><polyline class="cls-2" points="14.41 64.95 14.99 64.37 15.01 64.35 15.08 64.27 15.11 64.23 15.18 64.14 15.21 64.1 15.26 64 15.29 63.96 15.33 63.86 15.35 63.81 15.39 63.71 15.41 63.65 15.43 63.55 15.44 63.5 15.46 63.39 15.46 63.34 15.47 63.23 15.47 63.2 15.47 50.68 15.47 50.65 15.46 50.54 15.46 50.49 15.44 50.38 15.43 50.33 15.41 50.22 15.39 50.17 15.35 50.07 15.33 50.02 15.29 49.92 15.26 49.88 15.21 49.78 15.18 49.74 15.11 49.65 15.08 49.61 15.01 49.53 14.99 49.51"/><polyline class="cls-2" points="13.56 48.08 13.54 48.07 13.56 48.05 13.59 48 13.64 47.91 13.67 47.86 13.71 47.77 13.73 47.72 13.77 47.62 13.79 47.56 13.81 47.46 13.82 47.4 13.84 47.3 13.84 47.24 13.85 47.14 13.85 47.11 13.85 43.15 14.87 42.13 15.1 42.18 15.16 42.19 15.21 42.19 17.76 42.19 17.82 42.19 17.87 42.18 18.14 42.12 18.2 42.11 18.25 42.09 18.3 42.07 18.35 42.04 18.58 41.89 18.62 41.85 18.66 41.82 18.7 41.77 18.73 41.73 18.89 41.5 18.92 41.45 18.94 41.4 18.96 41.35 18.97 41.29 19.03 41.02 19.03 40.97 19.04 40.91 19.04 39.42 19.03 39.37 19.03 39.31 18.97 39.04 18.96 38.99 18.94 38.94 18.92 38.89 18.89 38.84 18.73 38.61 18.7 38.56 18.66 38.52 18.62 38.49 18.58 38.45 18.35 38.3 18.3 38.27 18.25 38.25 18.2 38.23 18.14 38.21 18.13 38.21 18.13 35.78 18.14 35.78 18.2 35.76 18.25 35.74 18.3 35.72 18.35 35.69 18.58 35.54 18.62 35.51 18.66 35.47 18.7 35.43 18.73 35.38 18.89 35.15 18.92 35.1 18.94 35.05 18.96 35 18.97 34.95 19.03 34.68 19.03 34.62 19.04 34.57 19.04 33.08 19.03 33.02 19.03 32.97 18.97 32.7 18.96 32.64 18.94 32.6"/><polyline class="cls-2" points="18.94 32.6 18.94 32.59 18.92 32.54 18.89 32.49 18.73 32.26 18.7 32.22 18.66 32.18 18.62 32.14 18.58 32.11 18.35 31.95 18.3 31.92 18.25 31.9 18.2 31.88 18.14 31.87 17.87 31.81 17.82 31.81 17.76 31.8 15.21 31.8 15.16 31.81 15.1 31.81 14.83 31.87 14.77 31.88 14.72 31.9 14.67 31.92 14.62 31.95 14.39 32.11 14.35 32.14 14.31 32.18 14.27 32.22 14.24 32.26 14.08 32.49 14.06 32.54 14.03 32.59 14.01 32.64 14 32.7 13.95 32.97 13.94 33.02 13.94 33.08 13.94 34.57 13.94 34.62 13.95 34.68 14 34.95 14.01 35 14.03 35.05 14.06 35.1 14.08 35.15 14.24 35.38 14.27 35.43 14.31 35.47 14.35 35.51 14.39 35.54 14.62 35.69 14.67 35.72 14.72 35.74 14.77 35.76 14.83 35.78 14.84 35.78 14.84 38.21 14.83 38.21 14.77 38.23 14.72 38.25 14.67 38.27 14.62 38.3 14.39 38.45 14.35 38.49 14.31 38.52 14.3 38.54 14.21 38.55 14.15 38.56 14.05 38.59 14 38.6 13.9 38.64 13.85 38.66 13.75 38.7 13.7 38.73 13.61 38.78 13.56 38.82 13.48 38.88 13.44 38.91 13.36 38.99 13.34 39 11.04 41.3 11.02 41.32 10.95 41.4 10.91 41.45 10.85 41.53 10.82 41.58 10.76 41.67 10.74 41.72 10.69 41.81 10.67 41.86 10.64 41.96 10.62 42.02 10.59 42.12 10.58 42.17 10.57 42.28 10.56 42.33 10.56 42.44 10.56 42.47 10.56 46.43"/><line class="cls-2" x1="92.94" y1="19.33" x2="92.94" y2="21.25"/><polyline class="cls-2" points="92.94 21.25 92.94 23.22 91.46 23.22 91.4 23.22 91.35 23.23 91.08 23.28 91.02 23.3 90.97 23.31 90.92 23.34 90.87 23.37 90.8 23.42"/><polyline class="cls-2" points="90.8 23.42 90.64 23.52 90.6 23.55 90.56 23.59 90.52 23.63 90.49 23.68 90.33 23.91 90.31 23.95 90.28 24.01 90.26 24.06 90.25 24.11 90.24 24.15"/><polyline class="cls-2" points="90.24 24.15 90.2 24.38 90.19 24.44 90.18 24.49 90.18 25.91 90.19 25.97 90.2 26.02 90.25 26.29 90.26 26.35 90.28 26.4 90.31 26.45 90.33 26.5 90.49 26.73 90.52 26.77 90.56 26.81 90.6 26.85 90.64 26.88 90.87 27.04 90.92 27.07 90.97 27.09 91.02 27.11 91.08 27.12 91.35 27.18 91.4 27.18 91.46 27.19 93.66 27.19"/><polyline class="cls-2" points="93.66 27.19 94.15 27.19 94.21 27.18 94.26 27.18 94.53 27.12 94.59 27.11 94.64 27.09 94.69 27.07 94.74 27.04 94.97 26.88 95.01 26.85 95.05 26.81 95.09 26.77 95.13 26.73 95.28 26.5 95.31 26.45 95.33 26.4 95.35 26.35 95.36 26.29 95.42 26.02 95.43 25.97 95.43 25.91 95.43 24.49 95.43 24.44 95.42 24.38 95.4 24.27 95.4 24.26 95.42 24.19 95.44 24.14 95.46 24.07 95.47 24.02 95.48 23.95 95.48 23.89 95.49 23.82 95.49 23.8"/><polyline class="cls-2" points="95.49 23.8 95.49 23.8 95.49 21.25"/><line class="cls-2" x1="95.49" y1="21.25" x2="95.49" y2="19.33"/><polyline class="cls-2" points="27.94 17.03 27.88 17.04 27.82 17.04 27.75 17.05 27.7 17.06 27.63 17.08 27.58 17.1 27.51 17.12 27.46 17.14 27.4 17.17 27.35 17.2 27.29 17.23 27.24 17.27 27.18 17.31 27.14 17.34 27.09 17.39 27.07 17.41 24.96 19.52"/><line class="cls-2" x1="24.96" y1="19.52" x2="22.41" y2="22.07"/><polyline class="cls-2" points="22.41 22.07 19.9 24.57 19.89 24.59 19.84 24.65 19.8 24.69 19.76 24.74 19.73 24.79 19.7 24.85 19.67 24.9 19.64 24.96 19.62 25.01 19.59 25.08 19.58 25.13 19.56 25.2 19.55 25.25 19.54 25.32 19.53 25.38 19.53 25.45 19.53 25.48 19.53 27.59"/><line class="cls-2" x1="19.53" y1="27.59" x2="19.53" y2="31.29"/><line class="cls-2" x1="19.53" y1="31.29" x2="19.53" y2="32.76"/><line class="cls-2" x1="19.53" y1="32.76" x2="19.53" y2="36.46"/><polyline class="cls-2" points="19.53 36.46 19.53 43.92 19.38 44.07 18.92 44.07 18.92 44.06 18.89 44.01 18.73 43.78 18.7 43.74 18.66 43.7 18.62 43.66 18.58 43.63 18.35 43.47 18.3 43.44 18.25 43.42 18.23 43.41"/><polyline class="cls-2" points="18.23 43.41 18.2 43.4 18.14 43.39 17.87 43.33 17.82 43.33 17.76 43.32 15.21 43.32 15.16 43.33 15.1 43.33 14.83 43.39 14.77 43.4 14.72 43.42 14.67 43.44 14.62 43.47 14.39 43.63 14.35 43.66 14.31 43.7 14.27 43.74 14.24 43.78 14.08 44.01 14.06 44.06 14.03 44.11 14.01 44.16 14 44.22 13.95 44.49 13.94 44.54 13.94 44.6 13.94 46.09 13.94 46.14 13.95 46.2 14 46.47 14.01 46.52 14.03 46.57 14.06 46.62 14.08 46.67 14.24 46.9 14.27 46.95 14.31 46.99 14.35 47.03 14.39 47.06 14.51 47.13"/><polyline class="cls-2" points="14.51 47.13 14.62 47.21 14.67 47.24 14.72 47.26 14.77 47.28 14.83 47.3 15.1 47.35 15.16 47.36 15.21 47.36 17.76 47.36 17.82 47.36 17.87 47.35 18.14 47.3 18.2 47.28 18.25 47.26 18.3 47.24 18.35 47.21 18.58 47.06 18.62 47.03 18.66 46.99 18.7 46.95 18.73 46.9 18.89 46.67 18.92 46.62 18.92 46.62 19.91 46.62 19.94 46.62 20.01 46.61 20.06 46.61 20.13 46.6 20.19 46.59 20.25 46.57 20.31 46.55 20.37 46.53 20.42 46.51 20.49 46.48 20.54 46.45 20.6 46.42 20.64 46.39 20.7 46.35 20.74 46.31 20.79 46.26 20.81 46.24 21.71 45.35 21.73 45.33 21.77 45.28 21.81 45.23 21.85 45.18 21.88 45.13 21.92 45.07 21.94 45.02 21.97 44.96 21.99 44.91 22.02 44.84 22.03 44.79 22.05 44.72 22.06 44.67 22.07 44.6 22.08 44.54 22.08 44.47 22.08 44.45 22.08 29.39"/><polyline class="cls-2" points="22.08 29.39 22.08 26 24.96 23.12"/><polyline class="cls-2" points="24.96 23.12 28.5 19.59 32.89 19.59"/><polyline class="cls-2" points="32.89 17.03 27.97 17.03 27.94 17.03"/><polyline class="cls-2" points="91.35 28.61 91.08 28.67 91.02 28.68 90.97 28.7 90.92 28.72 90.87 28.75 90.76 28.83"/><polyline class="cls-2" points="90.76 28.83 90.64 28.91 90.6 28.94 90.56 28.98 90.52 29.02 90.49 29.06 90.33 29.29 90.31 29.34 90.28 29.39 90.26 29.44 90.25 29.5 90.2 29.77 90.19 29.82 90.18 29.88 90.18 31.3 90.19 31.35 90.2 31.41 90.25 31.68 90.26 31.73 90.28 31.78 90.31 31.83 90.33 31.88 90.47 32.09"/><polyline class="cls-2" points="90.47 32.09 90.49 32.11 90.52 32.16 90.56 32.2 90.6 32.24 90.64 32.27 90.87 32.42 90.92 32.45 90.97 32.47 91.02 32.49 91.08 32.51 91.35 32.56 91.4 32.57 91.46 32.57 91.6 32.57 91.6 42.37 90.64 43.34"/><line class="cls-2" x1="90.64" y1="43.34" x2="89.5" y2="44.47"/><line class="cls-2" x1="89.5" y1="44.47" x2="88.17" y2="45.81"/><line class="cls-2" x1="88.17" y1="45.81" x2="87.75" y2="46.23"/><line class="cls-2" x1="87.75" y1="46.23" x2="85.19" y2="48.78"/><polyline class="cls-2" points="85.19 48.78 75.79 58.18 38.93 58.18"/><polyline class="cls-2" points="38.93 58.18 38.01 58.18 37.99 58.18 37.92 58.19 37.86 58.19 37.79 58.2 37.74 58.21 37.67 58.23 37.62 58.25 37.55 58.27 37.5 58.29 37.44 58.32 37.39 58.35 37.33 58.38 37.28 58.42 37.23 58.46 37.18 58.49 37.13 58.54 37.11 58.56 36.38 59.29"/><line class="cls-2" x1="36.38" y1="59.29" x2="35.33" y2="60.34"/><polyline class="cls-2" points="35.33 60.34 33.6 62.07 33.58 62.09 33.53 62.14 33.5 62.19 33.45 62.24 33.42 62.29 33.39 62.35 33.36 62.4 33.33 62.46 33.31 62.51 33.29 62.58 33.27 62.63 33.25 62.7 33.24 62.75 33.23 62.82 33.23 62.88 33.23 62.91 33.19 62.93 33.15 62.96 33.11 63 33.07 63.04 33.04 63.09 33.01 63.13 32.98 63.18 32.96 63.24 32.95 63.29 32.94 63.34 32.94 63.4 32.94 66.74"/><line class="cls-2" x1="32.94" y1="66.74" x2="32.94" y2="66.87"/><polyline class="cls-2" points="32.94 66.87 32.94 69.92 32.94 69.98 32.95 70.03 32.96 70.08 32.98 70.14 33.01 70.19 33.04 70.23 33.07 70.28 33.08 70.29"/><polyline class="cls-2" points="33.08 70.29 33.11 70.32 33.15 70.36 33.19 70.39 33.24 70.42 33.29 70.44 33.34 70.46 33.4 70.48 33.45 70.48 33.51 70.49 35.49 70.49 35.55 70.48 35.6 70.48 35.66 70.46 35.71 70.44 35.76 70.42 35.81 70.39 35.85 70.36 35.89 70.32 35.92 70.29"/><polyline class="cls-2" points="35.92 70.29 35.93 70.28 35.96 70.23 35.99 70.19 36.01 70.14 36.03 70.08 36.05 70.03 36.06 69.98 36.06 69.92 36.06 67"/><polyline class="cls-2" points="36.06 67 36.06 63.4 36.06 63.34 36.05 63.29 36.04 63.24 36.25 63.03"/><polyline class="cls-2" points="36.25 63.03 38.54 60.74 38.93 60.74"/><polyline class="cls-2" points="38.93 60.74 76.32 60.74 76.35 60.73 76.42 60.73 76.47 60.73 76.54 60.72 76.59 60.7 76.66 60.69 76.72 60.67 76.78 60.65 76.83 60.63 76.89 60.6 76.94 60.57 77 60.54 77.05 60.5 77.11 60.46 77.15 60.43 77.2 60.38 77.22 60.36 85.19 52.39"/><line class="cls-2" x1="85.19" y1="52.39" x2="87.75" y2="49.84"/><line class="cls-2" x1="87.75" y1="49.84" x2="89.13" y2="48.46"/><line class="cls-2" x1="89.13" y1="48.46" x2="92.81" y2="44.77"/><polyline class="cls-2" points="92.81 44.77 93.78 43.8 93.8 43.78 93.85 43.73 93.88 43.69 93.92 43.63 93.95 43.58 93.99 43.53 94.02 43.48 94.05 43.41 94.07 43.36 94.09 43.3 94.11 43.24 94.12 43.18 94.13 43.12 94.14 43.05 94.15 43 94.15 42.93 94.15 42.9 94.15 32.57 94.21 32.57 94.26 32.56 94.53 32.51 94.59 32.49 94.64 32.47 94.69 32.45 94.74 32.42 94.97 32.27 95.01 32.24 95.05 32.2 95.09 32.16 95.13 32.11 95.28 31.88 95.31 31.83 95.33 31.78 95.35 31.73 95.36 31.68 95.42 31.41 95.43 31.35 95.43 31.3 95.43 29.88 95.43 29.82 95.42 29.77 95.36 29.5 95.35 29.44 95.33 29.39 95.31 29.34 95.28 29.29 95.13 29.06 95.09 29.02 95.05 28.98 95.01 28.94 94.97 28.91 94.74 28.75 94.69 28.72 94.64 28.7 94.59 28.68 94.53 28.67 94.26 28.61 94.21 28.61 94.15 28.6 93.08 28.6"/><polyline class="cls-2" points="93.08 28.6 91.46 28.6 91.4 28.61 91.35 28.61"/><polyline class="cls-2" points="15.52 25.24 15.48 25.28 15.44 25.34 15.41 25.38 15.38 25.44 15.35 25.49 15.32 25.55 15.3 25.61 15.27 25.67 15.26 25.72 15.24 25.79 15.23 25.85 15.22 25.91 15.21 25.97 15.21 26.04 15.21 26.07 15.21 26.56 15.21 26.63 15.16 26.63 15.1 26.64 14.83 26.69 14.77 26.71 14.72 26.73 14.67 26.75 14.62 26.78 14.39 26.93 14.35 26.97 14.31 27 14.27 27.04 14.24 27.09 14.08 27.32 14.06 27.37 14.03 27.42 14.01 27.47 14 27.52 13.95 27.79 13.94 27.85 13.94 27.88 13.65 28.17"/><polyline class="cls-2" points="13.65 28.17 6.22 35.59 6.21 35.61 6.16 35.66 6.12 35.7 6.08 35.76 6.05 35.81 6.02 35.87 5.99 35.91 5.96 35.98 5.94 36.03 5.91 36.09 5.9 36.15 5.88 36.22 5.87 36.27 5.86 36.34 5.85 36.39 5.85 36.46 5.85 36.49"/><line class="cls-2" x1="8.4" y1="37.02" x2="14.7" y2="30.72"/><polyline class="cls-2" points="14.7 30.72 14.82 30.6 14.83 30.6 15.1 30.66 15.16 30.67 15.21 30.67 17.76 30.67 17.82 30.67 17.87 30.66 18.14 30.6 18.2 30.59 18.25 30.57 18.3 30.55 18.35 30.52 18.58 30.37 18.62 30.33 18.66 30.3 18.7 30.25 18.73 30.21 18.89 29.98 18.92 29.93 18.94 29.88 18.96 29.83 18.97 29.77 19.03 29.5 19.03 29.45 19.04 29.39 19.04 27.9 19.03 27.85 19.03 27.79 18.97 27.52 18.96 27.47 18.94 27.42"/><polyline class="cls-2" points="18.94 27.42 18.94 27.42 18.92 27.37 18.89 27.32 18.73 27.09 18.7 27.04 18.66 27 18.62 26.97 18.58 26.93 18.35 26.78 18.3 26.75 18.25 26.73 18.2 26.71 18.14 26.69 17.87 26.64 17.82 26.63 17.76 26.63 17.76 26.6 22.41 21.95"/><polyline class="cls-2" points="22.41 21.95 24.59 19.77 24.61 19.75 24.65 19.7 24.69 19.65 24.73 19.6 24.76 19.55 24.8 19.49 24.82 19.44 24.85 19.38 24.87 19.33 24.9 19.26 24.91 19.21 24.93 19.14 24.94 19.09 24.95 19.02 24.96 18.96 24.96 18.9 24.96 18.87"/><polyline class="cls-2" points="22.41 18.34 15.58 25.17 15.57 25.19 15.52 25.24"/><polyline class="cls-2" points="56.27 65.1 56.21 65.1 56.15 65.11 56.08 65.12 56.03 65.13 55.96 65.14 55.91 65.16 55.84 65.18 55.79 65.2 55.73 65.23 55.68 65.26 55.62 65.3 55.57 65.33 55.52 65.37 55.47 65.4 55.42 65.45 55.4 65.47 54.03 66.84 54.01 66.86 53.97 66.91 53.93 66.95 53.89 67.01 53.86 67.05 53.82 67.11 53.8 67.16 53.77 67.23 53.75 67.28 53.72 67.34 53.71 67.4 53.69 67.46 53.68 67.52 53.67 67.59 53.66 67.64 53.66 67.71 53.66 67.74 53.66 69.07 53.59 69.07 53.53 69.07 53.48 69.08 53.21 69.13 53.15 69.15 53.1 69.16 53.05 69.19 53 69.22 52.77 69.37 52.73 69.4 52.69 69.44 52.65 69.48 52.62 69.53 52.46 69.76 52.43 69.8 52.41 69.85 52.39 69.91 52.38 69.96 52.32 70.23 52.31 70.29 52.31 70.34 52.31 71.76 52.31 71.82 52.32 71.87 52.38 72.14 52.39 72.2 52.41 72.25 52.43 72.3 52.46 72.35 52.58 72.53"/><polyline class="cls-2" points="52.58 72.53 52.62 72.58 52.65 72.62 52.69 72.66 52.73 72.7 52.77 72.73 53 72.89 53.05 72.92 53.1 72.94 53.15 72.96 53.21 72.97 53.48 73.03 53.53 73.03 53.59 73.04 56.28 73.04 56.34 73.03 56.39 73.03 56.66 72.97 56.72 72.96 56.77 72.94 56.82 72.92 56.87 72.89 57.1 72.73 57.14 72.7 57.18 72.66 57.22 72.62 57.25 72.58 57.41 72.35 57.44 72.3 57.46 72.25 57.48 72.2 57.49 72.14 57.55 71.87 57.55 71.84"/><polyline class="cls-2" points="57.55 71.84 57.55 71.82 57.56 71.76 57.56 70.34 57.55 70.29 57.55 70.23 57.49 69.96 57.48 69.91 57.46 69.85 57.44 69.8 57.41 69.76 57.25 69.53 57.22 69.48 57.18 69.44 57.14 69.4 57.1 69.37 56.87 69.22 56.82 69.19 56.77 69.16 56.72 69.15 56.66 69.13 56.39 69.08 56.34 69.07 56.28 69.07 56.21 69.07 56.21 68.27 56.83 67.65 60.79 67.65 60.79 68.64 60.79 68.69 60.8 68.75 60.81 68.8 60.83 68.86 60.86 68.91 60.88 68.95 60.92 69 60.96 69.04 61 69.08 61.04 69.11 61.09 69.14 61.14 69.16 61.19 69.18 61.25 69.2 61.3 69.2 61.36 69.21 62.91 69.21"/><polyline class="cls-2" points="62.91 69.21 63.06 69.21 63.11 69.2 63.17 69.2 63.22 69.18 63.27 69.16 63.32 69.14 63.37 69.11 63.42 69.08 63.46 69.04 63.49 69 63.53 68.95 63.56 68.91 63.58 68.86 63.6 68.8 63.61 68.75 63.62 68.69 63.62 68.64 63.62 64.1 63.62 64.05 63.62 64.02"/><polyline class="cls-2" points="63.62 64.02 63.61 63.99 63.6 63.94 63.58 63.89 63.56 63.84 63.53 63.79 63.49 63.74 63.46 63.7 63.42 63.67 63.37 63.63 63.32 63.6 63.27 63.58 63.22 63.56 63.17 63.55 63.11 63.54 63.06 63.54 61.36 63.54 61.3 63.54 61.25 63.55 61.19 63.56 61.14 63.58 61.09 63.6 61.04 63.63 61 63.67 60.96 63.7 60.92 63.74 60.88 63.79 60.86 63.84 60.83 63.89 60.81 63.94 60.8 63.99 60.79 64.05 60.79 64.1 60.79 65.1 56.3 65.1 56.27 65.1"/><polyline class="cls-2" points="101.05 57.35 101 57.31 100.95 57.28 100.89 57.24 100.84 57.21 100.78 57.18 100.73 57.16 100.66 57.14 100.61 57.12 100.54 57.11 100.49 57.1 100.42 57.09 100.36 57.08 100.29 57.08 100.27 57.08 90.71 57.08"/><polyline class="cls-2" points="90.71 57.08 90.43 57.08 90.4 57.08 90.33 57.08 90.28 57.09 90.21 57.1 90.15 57.11 90.09 57.12 90.03 57.14 89.97 57.16 89.92 57.18 89.85 57.21 89.8 57.24 89.75 57.28 89.7 57.31 89.64 57.35 89.6 57.38 89.55 57.43 89.53 57.45 88.5 58.47"/><polyline class="cls-2" points="88.5 58.47 86.5 60.47 86.49 60.49 86.44 60.55 86.4 60.59 86.36 60.64 86.33 60.69 86.3 60.75 86.27 60.8 86.24 60.86 86.22 60.91 86.19 60.98 86.18 61.03 86.16 61.1 86.15 61.15 86.14 61.22 86.13 61.28 86.13 61.35 86.13 61.38 86.13 63.73 86.12 63.74 86.08 63.79 86.06 63.84 86.03 63.89 86.01 63.94 86 63.99 85.99 64.05 85.99 64.1 85.99 68.64 85.99 68.69 86 68.75 86.01 68.8 86.03 68.86 86.06 68.91 86.08 68.95 86.12 69 86.16 69.04 86.2 69.08 86.24 69.11 86.29 69.14 86.34 69.16 86.39 69.18 86.45 69.2 86.5 69.2 86.56 69.21 88.26 69.21 88.31 69.2 88.37 69.2 88.42 69.18 88.47 69.16 88.52 69.14 88.57 69.11 88.62 69.08 88.66 69.04 88.69 69 88.73 68.95 88.76 68.91 88.78 68.86 88.8 68.8 88.81 68.75 88.82 68.69 88.82 68.64 88.82 64.1 88.82 64.05 88.81 63.99 88.8 63.94 88.78 63.89 88.76 63.84 88.73 63.79 88.69 63.74 88.68 63.73 88.68 61.9 90.64 59.94"/><polyline class="cls-2" points="90.64 59.94 90.96 59.63 99.74 59.63 100.05 59.94"/><polyline class="cls-2" points="100.05 59.94 101.07 60.96 101.07 64.18"/><polyline class="cls-2" points="101.07 64.18 101.07 66.82 100.94 66.82 100.89 66.82 100.83 66.83 100.78 66.84 100.72 66.86 100.67 66.89 100.63 66.91 100.58 66.95 100.54 66.98 100.5 67.03 100.47 67.07 100.44 67.12 100.42 67.17 100.4 67.22 100.39 67.28 100.38 67.33 100.37 67.39 100.37 70.14"/><polyline class="cls-2" points="100.37 70.14 100.37 83.01 100.38 83.07 100.39 83.12 100.4 83.17 100.42 83.23 100.44 83.28 100.47 83.32 100.5 83.37 100.54 83.41 100.58 83.45 100.6 83.46"/><polyline class="cls-2" points="100.6 83.46 100.63 83.48 100.67 83.51 100.72 83.53 100.78 83.55 100.83 83.57 100.89 83.57 100.94 83.58 101.43 83.58"/><polyline class="cls-2" points="101.43 83.58 103.75 83.58 103.81 83.57 103.86 83.57 103.91 83.55 103.97 83.53 104.02 83.51 104.06 83.48 104.11 83.45 104.15 83.41 104.19 83.37 104.22 83.32 104.25 83.28 104.27 83.23 104.29 83.17 104.31 83.12 104.31 83.07 104.32 83.01 104.32 67.39 104.31 67.33 104.31 67.28 104.29 67.22 104.27 67.17 104.25 67.12 104.22 67.07 104.19 67.03 104.15 66.98 104.11 66.95 104.06 66.91 104.02 66.89 103.97 66.86 103.91 66.84 103.86 66.83 103.81 66.82 103.75 66.82 103.62 66.82 103.62 60.43 103.62 60.4 103.62 60.33 103.61 60.28 103.6 60.21 103.59 60.15 103.57 60.09 103.56 60.03 103.53 59.97 103.52 59.94"/><polyline class="cls-2" points="103.52 59.94 103.51 59.92 103.48 59.85 103.46 59.81 103.42 59.75 103.39 59.7 103.35 59.64 103.31 59.6 103.27 59.55 103.25 59.53 101.17 57.45 101.15 57.43 101.11 57.39"/><polyline class="cls-2" points="101.11 57.39 101.1 57.38 101.05 57.35"/><polyline class="cls-2" points="102.15 54.71 102.09 54.67 102.04 54.64 101.98 54.6 101.93 54.58 101.87 54.55 101.82 54.53 101.76 54.5 101.7 54.49 101.63 54.47 101.58 54.46 101.51 54.45 101.46 54.44 101.39 54.44 101.36 54.44 88.57 54.44 88.54 54.44 88.47 54.44 88.42 54.45 88.35 54.46 88.29 54.47 88.23 54.49 88.17 54.5 88.15 54.51"/><polyline class="cls-2" points="88.15 54.51 88.11 54.53 88.06 54.55 87.99 54.58 87.94 54.6 87.88 54.64 87.84 54.67 87.78 54.71 87.74 54.75 87.69 54.79 87.67 54.81 86.26 56.23"/><polyline class="cls-2" points="86.26 56.23 79.3 63.18 79.29 63.2 79.24 63.25 79.2 63.29 79.16 63.35 79.13 63.39 79.1 63.45 79.07 63.5 79.04 63.56 79.02 63.62 79 63.66 79 63.67 78.96 63.7 78.92 63.74 78.88 63.79 78.86 63.84 78.83 63.89 78.81 63.94 78.8 63.99 78.79 64.05 78.79 64.1 78.79 68.64 78.79 68.69 78.8 68.75 78.81 68.8 78.83 68.86 78.86 68.91 78.88 68.95 78.92 69 78.96 69.04 79 69.08 79.04 69.11 79.09 69.14 79.14 69.16 79.19 69.18 79.25 69.2 79.3 69.2 79.36 69.21 81.06 69.21 81.11 69.2 81.17 69.2 81.22 69.18 81.27 69.16 81.32 69.14 81.37 69.11 81.42 69.08 81.46 69.04 81.49 69 81.53 68.95 81.56 68.91 81.58 68.86 81.6 68.8 81.61 68.75 81.62 68.69 81.62 68.64 81.62 64.46 88.06 58.03"/><polyline class="cls-2" points="88.06 58.03 89.1 56.99 90.63 56.99"/><polyline class="cls-2" points="90.63 56.99 100.83 56.99 101.23 57.39"/><line class="cls-2" x1="101.23" y1="57.39" x2="103.78" y2="59.94"/><polyline class="cls-2" points="103.78 59.94 106.74 62.9 106.74 66.82 106.61 66.82 106.56 66.82 106.5 66.83 106.45 66.84 106.39 66.86 106.34 66.89 106.3 66.91 106.25 66.95 106.21 66.98 106.17 67.03 106.14 67.07 106.11 67.12 106.09 67.17 106.07 67.22 106.05 67.28 106.05 67.33 106.04 67.39 106.04 83.01 106.05 83.07 106.05 83.12 106.07 83.17 106.09 83.23 106.11 83.28 106.14 83.32 106.17 83.37 106.21 83.41 106.25 83.45 106.3 83.48 106.34 83.51 106.39 83.53 106.45 83.55 106.5 83.57 106.56 83.57 106.61 83.58 109.42 83.58 109.47 83.57 109.53 83.57 109.58 83.55 109.64 83.53 109.69 83.51 109.73 83.48 109.78 83.45 109.82 83.41 109.86 83.37 109.89 83.32 109.92 83.28 109.94 83.23 109.96 83.17 109.97 83.12 109.98 83.07 109.99 83.01 109.99 67.39 109.98 67.33 109.97 67.28 109.96 67.22 109.94 67.17 109.92 67.12 109.89 67.07 109.86 67.03 109.82 66.98 109.78 66.95 109.73 66.91 109.69 66.89 109.64 66.86 109.58 66.84 109.53 66.83 109.47 66.82 109.42 66.82 109.29 66.82 109.29 62.37 109.29 62.34 109.29 62.27 109.28 62.22 109.27 62.15 109.26 62.1 109.24 62.03 109.23 61.98 109.2 61.91 109.18 61.86 109.15 61.8 109.13 61.75 109.09 61.69 109.06 61.64 109.02 61.58 108.98 61.54 108.94 61.49 108.92 61.47 107.39 59.94"/><line class="cls-2" x1="107.39" y1="59.94" x2="104.84" y2="57.39"/><polyline class="cls-2" points="104.84 57.39 102.26 54.81 102.24 54.79 102.19 54.75 102.15 54.71"/><polyline class="cls-2" points="66.06 61.09 66.01 61.05 65.96 61.02 65.9 60.98 65.85 60.96 65.79 60.93 65.74 60.91 65.67 60.88 65.62 60.87 65.55 60.85 65.5 60.84 65.43 60.83 65.37 60.82 65.3 60.82 65.27 60.82 50.9 60.82 50.87 60.82 50.81 60.82 50.75 60.83 50.68 60.84 50.63 60.85 50.56 60.87 50.51 60.88 50.44 60.91 50.39 60.93 50.33 60.96 50.28 60.98 50.22 61.02 50.17 61.05 50.12 61.09 50.07 61.13 50.02 61.17 50 61.19 45.8 65.4 44.56 65.4 44.56 63.41 44.56 63.36 44.55 63.3 44.53 63.25 44.51 63.2 44.49 63.15 44.46 63.1 44.43 63.05 44.39 63.01 44.35 62.98 44.31 62.94 44.26 62.91 44.21 62.89 44.16 62.87 44.1 62.86 44.05 62.85 43.99 62.85 42.66 62.85"/><polyline class="cls-2" points="42.66 62.85 42.01 62.85 41.95 62.85 41.9 62.86 41.84 62.87 41.79 62.89 41.74 62.91 41.69 62.94 41.65 62.98 41.61 63.01 41.57 63.05 41.54 63.1 41.51 63.15 41.48 63.2 41.46 63.25 41.45 63.3 41.44 63.36 41.44 63.41 41.44 68.86"/><polyline class="cls-2" points="41.44 68.86 41.44 69.93 41.44 69.99 41.45 70.04 41.46 70.1 41.48 70.15 41.51 70.2 41.54 70.25 41.57 70.29 41.61 70.34 41.65 70.37 41.69 70.41 41.74 70.43 41.79 70.46 41.84 70.48 41.9 70.49 41.95 70.5 42.01 70.5 43.99 70.5 44.05 70.5 44.1 70.49 44.16 70.48 44.21 70.46 44.26 70.43 44.31 70.41 44.35 70.37 44.39 70.34 44.43 70.29 44.46 70.25 44.49 70.2 44.51 70.15 44.53 70.1 44.55 70.04 44.56 69.99 44.56 69.93 44.56 67.95 46.32 67.95 46.35 67.95 46.42 67.95 46.48 67.94 46.55 67.93 46.6 67.92 46.67 67.9 46.72 67.89 46.79 67.86 46.84 67.84 46.9 67.81 46.95 67.79 47.01 67.75 47.06 67.72 47.11 67.68 47.15 67.64 47.21 67.6 47.23 67.58 51.43 63.37 64.53 63.37 64.53 63.73 64.52 63.74 64.48 63.79 64.46 63.84 64.43 63.89 64.41 63.94 64.4 63.99 64.4 64.02"/><polyline class="cls-2" points="64.4 64.02 64.39 64.05 64.39 64.1 64.39 68.64 64.39 68.69 64.4 68.75 64.41 68.8 64.43 68.86 64.46 68.91 64.48 68.95 64.52 69 64.56 69.04 64.6 69.08 64.64 69.11 64.69 69.14 64.74 69.16 64.79 69.18 64.85 69.2 64.9 69.2 64.96 69.21 66.66 69.21 66.71 69.2 66.77 69.2 66.82 69.18 66.87 69.16 66.92 69.14 66.97 69.11 67.02 69.08 67.06 69.04 67.09 69 67.13 68.95 67.16 68.91 67.18 68.86 67.2 68.8 67.21 68.75 67.22 68.69 67.22 68.64 67.22 64.1 67.22 64.05 67.22 64.02"/><polyline class="cls-2" points="67.22 64.02 67.21 63.99 67.2 63.94 67.18 63.89 67.16 63.84 67.13 63.79 67.09 63.74 67.08 63.73 67.08 62.63 67.08 62.6 67.08 62.53 67.07 62.48 67.06 62.41 67.05 62.35 67.03 62.28 67.02 62.23 66.99 62.17 66.97 62.11 66.94 62.05 66.92 62 66.88 61.94 66.85 61.9 66.81 61.84 66.77 61.8 66.73 61.75 66.71 61.73 66.18 61.19 66.16 61.17 66.1 61.13 66.06 61.09"/><polyline class="cls-2" points="32.88 40.59 32.87 40.64 32.85 40.71 32.84 40.77 32.83 40.83 32.82 40.89 32.82 40.96 32.82 41.01 32.82 41.08 32.83 41.14 32.84 41.21 32.85 41.26 32.87 41.33 32.88 41.38 32.89 41.4 32.89 42.69 32.89 42.74 32.9 42.8 32.91 42.85 32.93 42.9 32.95 42.95 32.98 43 33.02 43.05 33.05 43.09 33.09 43.13 33.14 43.16 33.18 43.18"/><polyline class="cls-2" points="32.89 39.91 32.89 40.58 32.88 40.59"/><line class="cls-2" x1="85.05" y1="25.25" x2="85.05" y2="22.7"/><polyline class="cls-2" points="32.01 34.04 31.94 34.05 31.88 34.05 31.82 34.06 31.76 34.07 31.69 34.09 31.64 34.11 31.57 34.13 31.52 34.15 31.46 34.18 31.41 34.21 31.35 34.24 31.31 34.27 31.25 34.31 31.21 34.35 31.16 34.4 31.14 34.42 28.26 37.29 28.24 37.31 28.19 37.37 28.16 37.41 28.11 37.46 28.08 37.51 28.05 37.57 28.02 37.62 27.99 37.68 27.97 37.73 27.95 37.8 27.93 37.85 27.91 37.92 27.9 37.97 27.89 38.04 27.89 38.1 27.88 38.17 27.88 38.2 27.88 39"/><line class="cls-2" x1="27.88" y1="39" x2="27.88" y2="51.32"/><polyline class="cls-2" points="27.88 51.32 27.88 53.46 26.03 53.46 25.97 53.46 25.92 53.47 25.86 53.48 25.81 53.5 25.76 53.52 25.71 53.55 25.67 53.59 25.63 53.62 25.59 53.66 25.55 53.71 25.53 53.76 25.5 53.81 25.48 53.86 25.47 53.91 25.46 53.97 25.46 54.02 25.46 58.42 25.46 58.47 25.47 58.53 25.48 58.58 25.5 58.63 25.53 58.68 25.55 58.73 25.59 58.78 25.63 58.82 25.67 58.85 25.71 58.89 25.76 58.92 25.81 58.94 25.86 58.96 25.92 58.97 25.97 58.98 26.03 58.98 32.29 58.98 32.35 58.98 32.4 58.97 32.45 58.96 32.51 58.94 32.56 58.92 32.61 58.89 32.65 58.85 32.69 58.82 32.73 58.78 32.76 58.73 32.78 58.7"/><polyline class="cls-2" points="32.78 58.7 32.79 58.68 32.81 58.63 32.83 58.58 32.85 58.53 32.85 58.47 32.86 58.42 32.86 54.02 32.85 53.97 32.85 53.91 32.83 53.86 32.81 53.81 32.79 53.76 32.76 53.71 32.73 53.66 32.69 53.62 32.65 53.59 32.61 53.55 32.56 53.52 32.51 53.5 32.45 53.48 32.4 53.47 32.35 53.46 32.29 53.46 30.43 53.46 30.43 50.28"/><line class="cls-2" x1="30.43" y1="50.28" x2="30.43" y2="50.1"/><line class="cls-2" x1="30.43" y1="50.1" x2="30.43" y2="42.37"/><line class="cls-2" x1="30.43" y1="42.37" x2="30.43" y2="40.04"/><polyline class="cls-2" points="30.43 40.04 30.43 38.72 32.57 36.59 32.89 36.59 32.89 37.02 32.89 37.07 32.9 37.13 32.91 37.18 32.93 37.24 32.95 37.29 32.98 37.33 33.02 37.38 33.05 37.42 33.06 37.42"/><polyline class="cls-2" points="32.89 34.04 32.04 34.04 32.01 34.04"/><polyline class="cls-2" points="40.31 69.93 40.31 63.41 40.3 63.36 40.29 63.3 40.28 63.25 40.26 63.2 40.24 63.15 40.21 63.1 40.18 63.05 40.14 63.01 40.1 62.98 40.05 62.94 40.01 62.91 39.96 62.89 39.9 62.87 39.85 62.86"/><polyline class="cls-2" points="39.85 62.86 39.85 62.86 39.79 62.85 39.74 62.85 39.06 62.85"/><polyline class="cls-2" points="39.06 62.85 37.75 62.85 37.7 62.85 37.64 62.86 37.59 62.87 37.54 62.89 37.49 62.91 37.44 62.94 37.39 62.98 37.35 63.01 37.32 63.05 37.28 63.1 37.25 63.15 37.23 63.2 37.21 63.25 37.2 63.3 37.19 63.36 37.19 63.41 37.19 66.91"/><line class="cls-2" x1="37.19" y1="66.91" x2="37.19" y2="67"/><polyline class="cls-2" points="37.19 67 37.19 69.93 37.19 69.99 37.2 70.04 37.21 70.1 37.23 70.15 37.25 70.2 37.28 70.25 37.31 70.29"/><polyline class="cls-2" points="37.31 70.29 37.32 70.29 37.35 70.34 37.39 70.37 37.44 70.41 37.49 70.43 37.54 70.46 37.59 70.48 37.64 70.49 37.7 70.5 37.75 70.5 39.74 70.5 39.79 70.5 39.85 70.49 39.9 70.48 39.96 70.46 40.01 70.43 40.05 70.41 40.1 70.37 40.14 70.34 40.18 70.29 40.21 70.25 40.24 70.2 40.26 70.15 40.28 70.1 40.29 70.04 40.3 69.99 40.3 69.97"/><line class="cls-2" x1="40.3" y1="69.97" x2="40.31" y2="69.93"/><polyline class="cls-2" points="98.06 73.77 98.12 73.75 98.17 73.74 98.22 73.71 98.27 73.68 98.31 73.65 98.36 73.61 98.39 73.57 98.43 73.53 98.45 73.48 98.48 73.43 98.5 73.38 98.51 73.32 98.52 73.27 98.52 73.21 98.52 72.15"/><line class="cls-2" x1="98.52" y1="72.15" x2="98.52" y2="70.14"/><polyline class="cls-2" points="98.52 70.14 98.52 64.43 98.52 64.37 98.51 64.32 98.5 64.26 98.48 64.21 98.47 64.18"/><polyline class="cls-2" points="98.47 64.18 98.45 64.16 98.43 64.11 98.39 64.07 98.36 64.03 98.31 63.99 98.27 63.96 98.22 63.93 98.17 63.9 98.12 63.89 98.06 63.87 98.01 63.86 97.95 63.86 93.13 63.86 93.07 63.86 93.02 63.87 92.97 63.89 92.91 63.9 92.86 63.93 92.82 63.96 92.77 63.99 92.73 64.03 92.69 64.07 92.66 64.11 92.63 64.16 92.62 64.18"/><polyline class="cls-2" points="92.62 64.18 92.61 64.21 92.59 64.26 92.57 64.32 92.57 64.37 92.56 64.43 92.56 70.14"/><line class="cls-2" x1="92.56" y1="70.14" x2="92.56" y2="72"/><polyline class="cls-2" points="92.56 72 92.56 73.21 92.57 73.27 92.57 73.32 92.59 73.38 92.61 73.43 92.63 73.48 92.66 73.53 92.69 73.57 92.73 73.61 92.77 73.65 92.82 73.68 92.86 73.71 92.91 73.74 92.97 73.75 93.02 73.77 93.07 73.78 93.13 73.78 97.95 73.78 98.01 73.78 98.06 73.77"/><polyline class="cls-2" points="117.34 73.77 117.39 73.75 117.45 73.74 117.5 73.71 117.54 73.68 117.59 73.65 117.63 73.61 117.67 73.57 117.7 73.53 117.73 73.48 117.75 73.43 117.77 73.38 117.79 73.32 117.79 73.27 117.8 73.21 117.8 64.43 117.79 64.37 117.79 64.32 117.77 64.26 117.75 64.21 117.73 64.16 117.7 64.11 117.67 64.07 117.63 64.03 117.59 63.99 117.54 63.96 117.5 63.93 117.45 63.9 117.39 63.89 117.34 63.87 117.29 63.86 117.23 63.86 117.19 63.86"/><line class="cls-2" x1="117.19" y1="63.86" x2="113.76" y2="63.86"/><polyline class="cls-2" points="113.76 63.86 112.41 63.86 112.35 63.86 112.3 63.87 112.24 63.89 112.19 63.9 112.14 63.93 112.09 63.96 112.05 63.99 112.01 64.03 111.97 64.07 111.93 64.11 111.91 64.16 111.88 64.21 111.86 64.26 111.85 64.32 111.84 64.37 111.84 64.43 111.84 73.21 111.84 73.27 111.85 73.32 111.86 73.38 111.88 73.43 111.91 73.48 111.93 73.53 111.97 73.57 112.01 73.61 112.05 73.65 112.09 73.68 112.14 73.71 112.19 73.74 112.24 73.75 112.3 73.77 112.35 73.78 112.41 73.78 114.71 73.78"/><polyline class="cls-2" points="114.71 73.78 117.23 73.78 117.27 73.78"/><polyline class="cls-2" points="117.27 73.78 117.29 73.78 117.34 73.77"/><polyline class="cls-2" points="31.09 73.78 31.07 73.72 31.05 73.67 31.03 73.62 31 73.57 30.97 73.53 30.93 73.49 30.89 73.45 30.85 73.42 30.8 73.39 30.75 73.36 30.69 73.35 30.64 73.33 30.59 73.32 30.53 73.32 27.41 73.32 27.36 73.32 27.3 73.33 27.25 73.35 27.2 73.36 27.14 73.39 27.1 73.42 27.05 73.45 27.01 73.49 26.97 73.53 26.94 73.57 26.91 73.62 26.89 73.67 26.87 73.72 26.86 73.78 26.85 73.83 26.85 73.89 26.85 76.27"/><polyline class="cls-2" points="26.85 76.27 26.85 79.27 26.85 79.33 26.86 79.38 26.87 79.44 26.89 79.49 26.91 79.54 26.94 79.59 26.97 79.63 27.01 79.68 27.05 79.71 27.1 79.75 27.14 79.77 27.2 79.8 27.25 79.82 27.3 79.83 27.36 79.84 27.41 79.84 28.26 79.84"/><line class="cls-2" x1="28.26" y1="79.84" x2="29.05" y2="79.84"/><polyline class="cls-2" points="29.05 79.84 30.53 79.84 30.59 79.84 30.64 79.83 30.69 79.82 30.75 79.8 30.8 79.77 30.85 79.75 30.89 79.71 30.93 79.68 30.97 79.63 31 79.59 31.03 79.54 31.05 79.49 31.07 79.44 31.09 79.38 31.09 79.33 31.1 79.27 31.1 76.27"/><polyline class="cls-2" points="31.1 76.27 31.1 73.89 31.09 73.83 31.09 73.78"/><polyline class="cls-2" points="50.64 73.79 50.63 73.74 50.61 73.69 50.59 73.64 50.56 73.59 50.52 73.54 50.49 73.5 50.45 73.46 50.4 73.43 50.35 73.4 50.3 73.38 50.25 73.36 50.2 73.35 50.14 73.34 50.09 73.34 46.97 73.34 46.91 73.34 46.86 73.35 46.8 73.36 46.75 73.38 46.7 73.4 46.65 73.43 46.61 73.46 46.57 73.5 46.53 73.54 46.5 73.59 46.47 73.64 46.44 73.69 46.42 73.74 46.41 73.79 46.4 73.85 46.4 73.9 46.4 75.08"/><polyline class="cls-2" points="46.4 75.08 46.4 79.29 46.4 79.34 46.41 79.4 46.42 79.45 46.44 79.51 46.47 79.56 46.5 79.6 46.53 79.65 46.57 79.69 46.61 79.73 46.65 79.76 46.7 79.79 46.75 79.81 46.8 79.83 46.86 79.84 46.91 79.85 46.97 79.86 50.09 79.86 50.14 79.85 50.2 79.84 50.25 79.83 50.3 79.81 50.35 79.79 50.4 79.76 50.45 79.73 50.49 79.69 50.52 79.65 50.56 79.6 50.59 79.56 50.61 79.51 50.63 79.45 50.64 79.4 50.65 79.34 50.65 79.29 50.65 75.08"/><polyline class="cls-2" points="50.65 75.08 50.65 73.9 50.65 73.85 50.64 73.79"/><polyline class="cls-2" points="61.25 78.86 61.19 78.87 61.14 78.89 61.09 78.91 61.04 78.94 61 78.97 60.96 79.01 60.92 79.05 60.88 79.1 60.86 79.14 60.83 79.19 60.81 79.25 60.8 79.3 60.79 79.36 60.79 79.41 60.79 81.98"/><polyline class="cls-2" points="60.79 81.98 60.79 83.95 60.79 84 60.8 84.06 60.81 84.11 60.83 84.16 60.86 84.21 60.88 84.26 60.92 84.31 60.96 84.35 61 84.38 61.04 84.42 61.09 84.45 61.14 84.47 61.19 84.49 61.25 84.5 61.3 84.51 61.36 84.51 62.91 84.51"/><polyline class="cls-2" points="62.91 84.51 63.06 84.51 63.11 84.51 63.17 84.5 63.22 84.49 63.27 84.47 63.32 84.45 63.37 84.42 63.42 84.38 63.46 84.35 63.49 84.31 63.53 84.26 63.56 84.21 63.58 84.16 63.6 84.11 63.61 84.06 63.62 84 63.62 83.95 63.62 83.3"/><line class="cls-2" x1="63.62" y1="83.3" x2="63.62" y2="81.45"/><polyline class="cls-2" points="63.62 81.45 63.62 79.41 63.62 79.36 63.61 79.3 63.6 79.25 63.58 79.19 63.56 79.14 63.53 79.1 63.49 79.05 63.46 79.01 63.42 78.97 63.37 78.94 63.32 78.91 63.27 78.89 63.22 78.87 63.17 78.86 63.11 78.85 63.06 78.84 61.36 78.84 61.3 78.85 61.25 78.86"/><line class="cls-2" x1="32.89" y1="22.7" x2="32.89" y2="25.25"/><line class="cls-2" x1="32.89" y1="28.37" x2="32.89" y2="30.92"/><polyline class="cls-2" points="84.75 37.52 84.79 37.49 84.84 37.46 84.88 37.42 84.92 37.38 84.95 37.33 84.98 37.29 85 37.24 85.02 37.18 85.03 37.13 85.04 37.07 85.05 37.02 85.05 34.24"/><line class="cls-2" x1="85.05" y1="19.59" x2="85.05" y2="17.03"/><polyline class="cls-2" points="66.66 78.84 64.96 78.84 64.9 78.85 64.85 78.86 64.79 78.87 64.74 78.89 64.69 78.91 64.64 78.94 64.6 78.97 64.56 79.01 64.52 79.05 64.48 79.1 64.46 79.14 64.43 79.19 64.41 79.25 64.4 79.3 64.39 79.36 64.39 79.41 64.39 81.45"/><line class="cls-2" x1="64.39" y1="81.45" x2="64.39" y2="83.3"/><polyline class="cls-2" points="64.39 83.3 64.39 83.95 64.39 84 64.4 84.06 64.41 84.11 64.43 84.16 64.46 84.21 64.48 84.26 64.52 84.31 64.56 84.35 64.6 84.38 64.64 84.42 64.69 84.45 64.74 84.47 64.79 84.49 64.85 84.5 64.9 84.51 64.96 84.51 66.66 84.51 66.71 84.51 66.77 84.5 66.82 84.49 66.87 84.47 66.92 84.45 66.97 84.42 67.02 84.38 67.06 84.35 67.09 84.31 67.13 84.26 67.16 84.21 67.18 84.16 67.2 84.11 67.21 84.06 67.22 84 67.22 83.95 67.22 83.3"/><line class="cls-2" x1="67.22" y1="83.3" x2="67.22" y2="81.45"/><polyline class="cls-2" points="67.22 81.45 67.22 79.41 67.22 79.36 67.21 79.3 67.2 79.25 67.18 79.19 67.16 79.14 67.13 79.1 67.09 79.05 67.06 79.01 67.02 78.97 66.97 78.94 66.92 78.91 66.87 78.89 66.82 78.87 66.77 78.86 66.71 78.85 66.66 78.84"/><line class="cls-2" x1="81.06" y1="78.84" x2="80.98" y2="78.84"/><polyline class="cls-2" points="80.98 78.84 79.36 78.84 79.3 78.85 79.25 78.86 79.19 78.87 79.14 78.89 79.09 78.91 79.04 78.94 79 78.97 78.96 79.01 78.92 79.05 78.88 79.1 78.86 79.14 78.83 79.19 78.81 79.25 78.8 79.3 78.79 79.36 78.79 79.41 78.79 81.03"/><polyline class="cls-2" points="78.79 81.03 78.79 83.95 78.79 84 78.8 84.06 78.81 84.11 78.83 84.16 78.86 84.21 78.88 84.26 78.92 84.31 78.96 84.35 79 84.38 79.04 84.42 79.09 84.45 79.14 84.47 79.19 84.49 79.25 84.5 79.3 84.51 79.36 84.51 80.59 84.51"/><polyline class="cls-2" points="80.59 84.51 81.06 84.51 81.11 84.51 81.17 84.5 81.22 84.49 81.27 84.47 81.32 84.45 81.37 84.42 81.42 84.38 81.46 84.35 81.49 84.31 81.53 84.26 81.56 84.21 81.58 84.16 81.6 84.11 81.61 84.06 81.62 84 81.62 83.95 81.62 81.81"/><polyline class="cls-2" points="81.62 81.81 81.62 79.41 81.62 79.36 81.61 79.3 81.6 79.25 81.58 79.19 81.56 79.14 81.53 79.1 81.49 79.05 81.46 79.01 81.42 78.97 81.37 78.94 81.32 78.91 81.27 78.89 81.22 78.87 81.17 78.86 81.11 78.85 81.06 78.84"/><polyline class="cls-2" points="88.26 78.84 86.56 78.84 86.5 78.85 86.45 78.86 86.39 78.87 86.34 78.89 86.29 78.91 86.24 78.94 86.2 78.97 86.16 79.01 86.12 79.05 86.08 79.1 86.06 79.14 86.03 79.19 86.01 79.25 86 79.3 85.99 79.36 85.99 79.41 85.99 81.61"/><polyline class="cls-2" points="85.99 81.61 85.99 83.95 85.99 84 86 84.06 86.01 84.11 86.03 84.16 86.06 84.21 86.08 84.26 86.12 84.31 86.16 84.35 86.2 84.38 86.24 84.42 86.29 84.45 86.34 84.47 86.39 84.49 86.45 84.5 86.5 84.51 86.56 84.51 88.26 84.51 88.31 84.51 88.37 84.5 88.42 84.49 88.47 84.47 88.52 84.45 88.57 84.42 88.62 84.38 88.66 84.35 88.69 84.31 88.73 84.26 88.76 84.21 88.78 84.16 88.8 84.11 88.81 84.06 88.82 84 88.82 83.95 88.82 81.61"/><polyline class="cls-2" points="88.82 81.61 88.82 79.41 88.82 79.36 88.81 79.3 88.8 79.25 88.78 79.19 88.76 79.14 88.73 79.1 88.69 79.05 88.66 79.01 88.62 78.97 88.57 78.94 88.52 78.91 88.47 78.89 88.42 78.87 88.37 78.86 88.31 78.85 88.26 78.84"/><polyline class="cls-2" points="10.86 78.06 13.55 78.06 13.6 78.06 13.66 78.05 13.93 78 13.98 77.98 14.04 77.96 14.09 77.94 14.13 77.91 14.36 77.76 14.41 77.73 14.45 77.69 14.49 77.65 14.52 77.6 14.65 77.41"/><polyline class="cls-2" points="14.65 77.41 14.67 77.37 14.7 77.32 14.73 77.27 14.75 77.22 14.76 77.17 14.81 76.9 14.82 76.84 14.82 76.79 14.82 76.56"/><polyline class="cls-2" points="14.82 76.56 14.82 75.37 14.82 75.31 14.81 75.26 14.76 74.99 14.75 74.93 14.73 74.88 14.7 74.83 14.67 74.78 14.52 74.55 14.49 74.51 14.45 74.47 14.41 74.43 14.36 74.4 14.13 74.24 14.09 74.21 14.04 74.19 13.98 74.17 13.93 74.16 13.66 74.1 13.6 74.1 13.55 74.09 10.86 74.09 10.8 74.1 10.74 74.1 10.47 74.16 10.42 74.17 10.37 74.19 10.32 74.21 10.27 74.24 10.04 74.4 9.99 74.43 9.95 74.47 9.92 74.51 9.88 74.55 9.73 74.78 9.7 74.83 9.68 74.88 9.66 74.93 9.64 74.99 9.59 75.26 9.58 75.31 9.58 75.37 9.58 76.79 9.58 76.84 9.59 76.9 9.64 77.17 9.66 77.22 9.68 77.27 9.7 77.32 9.73 77.37 9.88 77.6 9.92 77.65 9.95 77.69 9.99 77.73 10.04 77.76 10.27 77.91 10.32 77.94 10.37 77.96 10.42 77.98 10.47 78 10.74 78.05 10.8 78.06 10.86 78.06"/><polyline class="cls-2" points="153.69 73.45 153.69 67.79 153.69 67.73 153.68 67.67 153.67 67.62 153.65 67.57 153.62 67.52 153.59 67.47 153.56 67.43 153.52 67.38 153.48 67.35 153.44 67.31 153.39 67.29 153.34 67.26 153.29 67.24 153.23 67.23 153.18 67.22 153.12 67.22 141.79 67.22 141.73 67.22 141.67 67.23 141.62 67.24 141.57 67.26 141.52 67.29 141.47 67.31 141.43 67.35 141.38 67.38 141.35 67.43 141.31 67.47 141.29 67.52 141.26 67.57 141.24 67.62 141.23 67.67 141.22 67.73 141.22 67.79 141.22 73.45 141.22 73.51 141.23 73.56 141.24 73.62 141.26 73.67 141.29 73.72 141.31 73.77 141.35 73.81 141.38 73.86 141.43 73.89 141.47 73.93 141.52 73.95 141.57 73.98 141.62 74 141.67 74.01 141.73 74.02 141.79 74.02 153.12 74.02 153.18 74.02 153.23 74.01 153.29 74 153.34 73.98 153.39 73.95 153.44 73.93 153.48 73.89 153.52 73.86 153.56 73.81 153.59 73.77 153.62 73.72 153.65 73.67 153.67 73.62 153.68 73.56 153.69 73.51 153.69 73.45"/><polyline class="cls-2" points="84.66 63.54 82.96 63.54 82.9 63.54 82.85 63.55 82.79 63.56 82.74 63.58 82.69 63.6 82.64 63.63 82.6 63.67 82.56 63.7 82.52 63.74 82.48 63.79 82.46 63.84 82.43 63.89 82.41 63.94 82.4 63.99 82.39 64.05 82.39 64.1 82.39 68.64 82.39 68.69 82.4 68.75 82.41 68.8 82.43 68.86 82.46 68.91 82.48 68.95 82.52 69 82.56 69.04 82.6 69.08 82.64 69.11 82.69 69.14 82.74 69.16 82.79 69.18 82.85 69.2 82.9 69.2 82.96 69.21 84.66 69.21 84.71 69.2 84.77 69.2 84.82 69.18 84.87 69.16 84.92 69.14 84.97 69.11 85.02 69.08 85.06 69.04 85.09 69 85.13 68.95 85.16 68.91 85.18 68.86 85.2 68.8 85.21 68.75 85.22 68.69 85.22 68.64 85.22 64.1 85.22 64.05 85.21 63.99 85.2 63.94 85.18 63.89 85.16 63.84 85.13 63.79 85.09 63.74 85.06 63.7 85.02 63.67 84.97 63.63 84.92 63.6 84.87 63.58 84.82 63.56 84.77 63.55 84.71 63.54 84.66 63.54"/><line class="cls-2" x1="70.26" y1="78.84" x2="69.87" y2="78.84"/><polyline class="cls-2" points="69.87 78.84 68.56 78.84 68.5 78.85 68.45 78.86 68.39 78.87 68.34 78.89 68.29 78.91 68.24 78.94 68.2 78.97 68.16 79.01 68.12 79.05 68.08 79.1 68.06 79.14 68.03 79.19 68.01 79.25 68 79.3 67.99 79.36 67.99 79.41 67.99 81.45"/><line class="cls-2" x1="67.99" y1="81.45" x2="67.99" y2="83.3"/><polyline class="cls-2" points="67.99 83.3 67.99 83.95 67.99 84 68 84.06 68.01 84.11 68.03 84.16 68.06 84.21 68.08 84.26 68.12 84.31 68.16 84.35 68.2 84.38 68.24 84.42 68.29 84.45 68.34 84.47 68.39 84.49 68.45 84.5 68.5 84.51 68.56 84.51 70.26 84.51 70.31 84.51 70.37 84.5 70.42 84.49 70.47 84.47 70.52 84.45 70.57 84.42 70.62 84.38 70.66 84.35 70.69 84.31 70.73 84.26 70.76 84.21 70.78 84.16 70.8 84.11 70.81 84.06 70.82 84 70.82 83.95 70.82 83.3"/><polyline class="cls-2" points="70.82 83.3 70.82 79.41 70.82 79.36 70.81 79.3 70.8 79.25 70.78 79.19 70.76 79.14 70.73 79.1 70.69 79.05 70.66 79.01 70.62 78.97 70.57 78.94 70.52 78.91 70.47 78.89 70.42 78.87 70.37 78.86 70.31 78.85 70.26 78.84"/><polyline class="cls-2" points="84.66 78.84 82.96 78.84 82.9 78.85 82.85 78.86 82.79 78.87 82.74 78.89 82.69 78.91 82.64 78.94 82.6 78.97 82.56 79.01 82.52 79.05 82.48 79.1 82.46 79.14 82.43 79.19 82.41 79.25 82.4 79.3 82.39 79.36 82.39 79.41 82.39 81.59"/><polyline class="cls-2" points="82.39 81.59 82.39 83.95 82.39 84 82.4 84.06 82.41 84.11 82.43 84.16 82.46 84.21 82.48 84.26 82.52 84.31 82.56 84.35 82.6 84.38 82.64 84.42 82.69 84.45 82.74 84.47 82.79 84.49 82.85 84.5 82.9 84.51 82.96 84.51 84.66 84.51 84.71 84.51 84.77 84.5 84.82 84.49 84.87 84.47 84.92 84.45 84.97 84.42 85.02 84.38 85.06 84.35 85.09 84.31 85.13 84.26 85.16 84.21 85.18 84.16 85.2 84.11 85.21 84.06 85.22 84 85.22 83.95 85.22 81.61"/><polyline class="cls-2" points="85.22 81.61 85.22 79.41 85.22 79.36 85.21 79.3 85.2 79.25 85.18 79.19 85.16 79.14 85.13 79.1 85.09 79.05 85.06 79.01 85.02 78.97 84.97 78.94 84.92 78.91 84.87 78.89 84.82 78.87 84.77 78.86 84.71 78.85 84.66 78.84"/><line class="cls-2" x1="5.02" y1="74.09" x2="3.07" y2="74.09"/><polyline class="cls-2" points="3.07 74.09 2.32 74.09 2.27 74.1 2.21 74.1 1.94 74.16 1.89 74.17 1.84 74.19 1.78 74.21 1.74 74.24 1.51 74.4 1.46 74.43 1.42 74.47 1.38 74.51 1.35 74.55 1.2 74.78 1.17 74.83 1.14 74.88 1.13 74.93 1.11 74.99 1.06 75.26 1.05 75.31 1.05 75.37 1.05 76.79 1.05 76.84 1.06 76.9 1.11 77.17 1.13 77.22 1.14 77.27 1.17 77.32 1.2 77.37 1.35 77.6 1.38 77.65 1.42 77.69 1.46 77.73 1.51 77.76 1.74 77.91 1.78 77.94 1.84 77.96 1.89 77.98 1.94 78 2.21 78.05 2.27 78.06 2.32 78.06 3.07 78.06"/><polyline class="cls-2" points="3.07 78.06 5.02 78.06 5.07 78.06 5.13 78.05 5.4 78 5.45 77.98 5.5 77.96 5.55 77.94 5.6 77.91 5.83 77.76 5.88 77.73 5.92 77.69 5.96 77.65 5.99 77.6 6.14 77.37 6.17 77.32 6.19 77.27 6.21 77.22 6.23 77.17 6.28 76.9 6.29 76.84 6.29 76.79 6.29 75.37 6.29 75.31 6.28 75.26 6.23 74.99 6.21 74.93 6.19 74.88 6.17 74.83 6.14 74.78 5.99 74.55 5.96 74.51 5.92 74.47 5.88 74.43 5.83 74.4 5.6 74.24 5.55 74.21 5.5 74.19 5.45 74.17 5.4 74.16 5.13 74.1 5.07 74.1 5.02 74.09"/><polyline class="cls-2" points="3.35 54.02 3.35 58.42 3.35 58.47 3.36 58.53 3.37 58.58 3.39 58.63 3.41 58.68 3.44 58.73 3.47 58.78 3.51 58.82 3.55 58.85 3.6 58.89 3.64 58.92 3.7 58.94 3.75 58.96 3.8 58.97 3.86 58.98 3.91 58.98 6.37 58.98"/><polyline class="cls-2" points="6.37 58.98 10.18 58.98 10.23 58.98 10.29 58.97 10.34 58.96 10.39 58.94 10.44 58.92 10.49 58.89 10.54 58.85 10.58 58.82 10.61 58.78 10.65 58.73 10.68 58.68 10.7 58.63 10.72 58.58 10.73 58.53 10.74 58.47 10.74 58.42 10.74 54.02 10.74 53.97 10.73 53.91 10.72 53.86 10.7 53.81 10.68 53.76 10.65 53.71 10.61 53.66 10.58 53.62 10.54 53.59 10.49 53.55 10.44 53.52 10.39 53.5 10.34 53.48 10.29 53.47 10.23 53.46 10.18 53.46 6.37 53.46"/><polyline class="cls-2" points="6.37 53.46 3.91 53.46 3.86 53.46 3.8 53.47 3.75 53.48 3.7 53.5 3.64 53.52 3.6 53.55 3.55 53.59 3.51 53.62 3.47 53.66 3.44 53.71 3.41 53.76 3.39 53.81 3.37 53.86 3.36 53.91 3.35 53.97 3.35 54.02"/><polyline class="cls-2" points="56.28 74.45 53.59 74.45 53.53 74.46 53.48 74.46 53.21 74.52 53.15 74.53 53.1 74.55 53.05 74.57 53 74.6 52.77 74.76 52.73 74.79 52.69 74.83 52.65 74.87 52.62 74.91 52.5 75.08"/><polyline class="cls-2" points="52.5 75.08 52.46 75.14 52.43 75.19 52.41 75.24 52.39 75.29 52.38 75.35 52.32 75.62 52.31 75.67 52.31 75.73 52.31 77.15 52.31 77.2 52.32 77.26 52.38 77.53 52.39 77.58 52.41 77.63 52.43 77.68 52.46 77.73 52.62 77.96 52.65 78.01 52.69 78.05 52.73 78.09 52.77 78.12 53 78.27 53.05 78.3 53.1 78.32 53.11 78.33"/><polyline class="cls-2" points="53.11 78.33 53.15 78.34 53.21 78.36 53.48 78.41 53.53 78.42 53.59 78.42 56.28 78.42 56.34 78.42 56.39 78.41 56.66 78.36 56.72 78.34 56.77 78.32 56.82 78.3 56.87 78.27 57.1 78.12 57.14 78.09 57.18 78.05 57.22 78.01 57.25 77.96 57.41 77.73 57.44 77.68 57.46 77.63 57.48 77.58 57.49 77.53 57.5 77.5"/><polyline class="cls-2" points="57.5 77.5 57.55 77.26 57.55 77.2 57.56 77.15 57.56 75.78"/><polyline class="cls-2" points="57.56 75.78 57.56 75.73 57.55 75.67 57.55 75.62 57.49 75.35 57.48 75.29 57.46 75.24 57.44 75.19 57.41 75.14 57.25 74.91 57.22 74.87 57.18 74.83 57.14 74.79 57.1 74.76 56.87 74.6 56.82 74.57 56.77 74.55 56.72 74.53 56.66 74.52 56.39 74.46 56.34 74.46 56.28 74.45"/><line class="cls-2" x1="19.39" y1="78.06" x2="21.06" y2="78.06"/><line class="cls-2" x1="21.06" y1="78.06" x2="21.85" y2="78.06"/><polyline class="cls-2" points="21.85 78.06 22.08 78.06 22.14 78.06 22.19 78.05 22.46 78 22.52 77.98 22.57 77.96 22.62 77.94 22.67 77.91 22.9 77.76 22.94 77.73 22.98 77.69 23.02 77.65 23.05 77.6 23.21 77.37 23.24 77.32 23.26 77.27 23.28 77.22 23.29 77.17 23.35 76.9 23.35 76.84 23.36 76.79 23.36 76.27"/><polyline class="cls-2" points="23.36 76.27 23.36 75.37 23.35 75.31 23.35 75.26 23.29 74.99 23.28 74.93 23.26 74.88 23.24 74.83 23.21 74.78 23.05 74.55 23.02 74.51 22.98 74.47 22.94 74.43 22.9 74.4 22.67 74.24 22.62 74.21 22.57 74.19 22.52 74.17 22.46 74.16 22.19 74.1 22.14 74.1 22.08 74.09 19.39 74.09 19.33 74.1 19.28 74.1 19.01 74.16 18.95 74.17 18.9 74.19 18.85 74.21 18.8 74.24 18.57 74.4 18.53 74.43 18.49 74.47 18.45 74.51 18.42 74.55 18.26 74.78 18.23 74.83 18.21 74.88 18.19 74.93 18.18 74.99 18.12 75.26 18.11 75.31 18.11 75.37 18.11 76.79 18.11 76.84 18.12 76.9 18.18 77.17 18.19 77.22 18.21 77.27 18.23 77.32 18.25 77.35"/><polyline class="cls-2" points="18.25 77.35 18.26 77.37 18.42 77.6 18.45 77.65 18.49 77.69 18.53 77.73 18.57 77.76 18.8 77.91 18.85 77.94 18.9 77.96 18.95 77.98 19.01 78 19.28 78.05 19.33 78.06 19.39 78.06"/><circle class="cls-1" cx="8.65" cy="8.65" r="2.83"/><circle class="cls-1" cx="153.21" cy="85.18" r="2.83"/><circle class="cls-1" cx="153.21" cy="8.65" r="2.83"/><circle class="cls-1" cx="8.65" cy="85.18" r="2.83"/><rect class="cls-1" x=".14" y=".14" width="161.57" height="93.54"/><line class="cls-2" x1="32.89" y1="40.21" x2="32.89" y2="42.76"/><line class="cls-2" x1="32.89" y1="45.88" x2="32.89" y2="48.43"/></g></svg>