<svg xmlns="http://www.w3.org/2000/svg" viewBox="0 0 106.934 101.56625" width="106.934mm" height="101.56625mm">
                    <g stroke-linecap="round" fill-rule="evenodd">
                        <g><path fill-rule="evenodd" fill="#66cc99" stroke="#555555" stroke-width="0.0" opacity="1" d="M 75.9205786438,16.879670563999998 L 75.903420564,16.896828643800003 L 75.8902398296,16.9113713432 L 75.8785479978,16.9271359534 L 75.86845766740001,16.9439706526 L 75.8600660138,16.9617133135 L 75.8534538531,16.9801930645 L 75.8486848642,16.9992319356 L 75.8458049749,17.0186465719 L 75.84484192030001,17.03825 L 75.8458049749,17.0578534281 L 75.8486848642,17.0772680644 L 75.8534538531,17.0963069355 L 75.8600660138,17.1147866865 L 75.86845766740001,17.1325293474 L 75.8785479978,17.1493640466 L 75.8902398296,17.1651286568 L 75.903420564,17.1796713562 L 75.9179632634,17.1928520907 L 75.9337278737,17.2045439225 L 75.9505625729,17.2146342529 L 75.9683052338,17.223025906500002 L 75.9867849848,17.229638067099998 L 76.0058238559,17.2344070561 L 76.0252384922,17.237286945300003 L 76.0448419203,17.23825 L 76.0644453483,17.237286945300003 L 76.0838599847,17.2344070561 L 76.1028988557,17.229638067099998 L 76.1213786067,17.223025906500002 L 76.1391212676,17.2146342529 L 76.15595596690001,17.2045439225 L 76.17172057709999,17.1928520907 L 76.1862632765,17.1796713562 L 76.2034213562,17.1625132765 L 76.21660209070001,17.1479705771 L 76.2282939225,17.1322059669 L 76.2383842529,17.1153712676 L 76.24677590649999,17.0976286067 L 76.2533880671,17.0791488557 L 76.25815705609999,17.060109984700002 L 76.26103694529999,17.040695348299998 L 76.262,17.021091920299998 L 76.26103694529999,17.0014884922 L 76.25815705609999,16.9820738559 L 76.2533880671,16.9630349848 L 76.24677590649999,16.944555233800003 L 76.2383842529,16.9268125729 L 76.2282939225,16.9099778737 L 76.21660209070001,16.8942132634 L 76.2034213562,16.879670563999998 L 76.1888786568,16.8664898296 L 76.1731140466,16.8547979978 L 76.1562793474,16.844707667399998 L 76.1385366865,16.836316013799998 L 76.1200569355,16.829703853100003 L 76.10101806440001,16.8249348642 L 76.08160342810001,16.8220549749 L 76.062,16.8210919203 L 76.0423965719,16.8220549749 L 76.0229819356,16.8249348642 L 76.0039430645,16.829703853100003 L 75.9854633135,16.836316013799998 L 75.96772065260001,16.844707667399998 L 75.9508859534,16.8547979978 L 75.9351213432,16.8664898296 L 75.9205786438,16.879670563999998 z" /><path fill-rule="evenodd" fill="#66cc99" stroke="#555555" stroke-width="0.0" opacity="1" d="M 38.352,19.85925 L 38.352963054700005,19.8788534281 L 38.355842943899994,19.8982680644 L 38.3606119329,19.9173069355 L 38.367224093500006,19.935786686500002 L 38.37561574710001,19.9535293474 L 38.385706077500004,19.9703640466 L 38.3973979093,19.986128656800002 L 38.4105786438,20.000671356199998 L 38.4251213432,20.013852090700002 L 38.4408859534,20.0255439225 L 38.457720652599996,20.0356342529 L 38.4754633135,20.0440259065 L 38.493943064499994,20.0506380671 L 38.512981935599996,20.055407056099998 L 38.5323965719,20.0582869453 L 38.552,20.05925 L 38.5716034281,20.0582869453 L 38.591018064400004,20.055407056099998 L 38.610056935500005,20.0506380671 L 38.6285366865,20.0440259065 L 38.646279347400004,20.0356342529 L 38.6631140466,20.0255439225 L 38.6788786568,20.013852090700002 L 38.693421356200005,20.000671356199998 L 38.7066020907,19.986128656800002 L 38.7182939225,19.9703640466 L 38.7283842529,19.9535293474 L 38.7367759065,19.935786686500002 L 38.74338806710001,19.9173069355 L 38.748157056100005,19.8982680644 L 38.7510369453,19.8788534281 L 38.752,19.85925 L 38.752,18.95925 L 38.7510369453,18.9396465719 L 38.748157056100005,18.9202319356 L 38.74338806710001,18.9011930645 L 38.7367759065,18.8827133135 L 38.7283842529,18.8649706526 L 38.7182939225,18.8481359534 L 38.7066020907,18.8323713432 L 38.693421356200005,18.817828643800002 L 38.6788786568,18.804647909299998 L 38.6631140466,18.7929560775 L 38.646279347400004,18.7828657471 L 38.6285366865,18.7744740935 L 38.610056935500005,18.7678619329 L 38.591018064400004,18.763092943900002 L 38.5716034281,18.7602130547 L 38.552,18.75925 L 38.5323965719,18.7602130547 L 38.512981935599996,18.763092943900002 L 38.493943064499994,18.7678619329 L 38.4754633135,18.7744740935 L 38.457720652599996,18.7828657471 L 38.4408859534,18.7929560775 L 38.4251213432,18.804647909299998 L 38.4105786438,18.817828643800002 L 38.3973979093,18.8323713432 L 38.385706077500004,18.8481359534 L 38.37561574710001,18.8649706526 L 38.367224093500006,18.8827133135 L 38.3606119329,18.9011930645 L 38.355842943899994,18.9202319356 L 38.352963054700005,18.9396465719 L 38.352,18.95925 L 38.352,19.85925 z" /><path fill-rule="evenodd" fill="#66cc99" stroke="#555555" stroke-width="0.0" opacity="1" d="M 30.114,25.3052888155 L 31.433138815499998,23.98615 L 32.1374961031,23.98615 L 32.2053477396,23.98615 L 32.2130345932,23.997654252300002 L 32.2186870644,24.005680182499997 L 32.2303790167,24.021445017700003 L 32.242830439,24.036617158699997 L 32.256011333800004,24.051160053499995 L 32.2698899465,24.065038666199996 L 32.2844328413,24.078219560999997 L 32.299604982299996,24.0906709833 L 32.315369817500006,24.1023629356 L 32.3233957477,24.108015406800003 L 32.404501747699996,24.1622084068 L 32.4127952358,24.1674601716 L 32.4296299134,24.177550434199997 L 32.4469394173,24.1868025066 L 32.4646820478,24.195194099600002 L 32.4828150615,24.2027049974 L 32.501294774499996,24.209317105700002 L 32.52007666790001,24.2150144954 L 32.5391154948,24.219783441 L 32.5486934436,24.221934226000002 L 32.6443644436,24.240964226000003 L 32.6540363434,24.2426424471 L 32.6734508387,24.245522293700002 L 32.692983255099996,24.2474460545 L 32.712586538000004,24.248409094800003 L 32.7224,24.24865 L 32.712586538000004,24.248890905199996 L 32.692983255099996,24.2498539455 L 32.6734508387,24.251777706299997 L 32.6540363434,24.254657552900003 L 32.6443644436,24.256335773999997 L 32.5486934436,24.275365773999997 L 32.5391154948,24.277516559 L 32.52007666790001,24.282285504600004 L 32.501294774499996,24.287982894299997 L 32.4828150615,24.294595002599998 L 32.4646820478,24.302105900399997 L 32.4469394173,24.3104974934 L 32.4296299134,24.319749565800002 L 32.4127952358,24.3298398284 L 32.404501747699996,24.335091593199998 L 32.3233957477,24.3892845932 L 32.315369817500006,24.394937064400004 L 32.299604982299996,24.4066290167 L 32.2844328413,24.419080439000002 L 32.2698899465,24.432261333800003 L 32.256011333800004,24.446139946500004 L 32.242830439,24.460682841300002 L 32.2303790167,24.4758549823 L 32.2186870644,24.491619817500002 L 32.2130345932,24.499645747699997 L 32.158841593199995,24.5807517477 L 32.1535898284,24.589045235799997 L 32.143499565800006,24.605879913400003 L 32.1342474934,24.6231894173 L 32.1258559004,24.640932047799996 L 32.1183450026,24.659065061499998 L 32.1117328943,24.677544774499996 L 32.1060355046,24.696326667900003 L 32.101266559,24.7153654948 L 32.099115774,24.724943443599997 L 32.080085774,24.8206144436 L 32.0784075529,24.8302863434 L 32.0755277063,24.849700838699995 L 32.073603945500004,24.869233255099996 L 32.0726409052,24.888836538000003 L 32.0724,24.89865 L 32.0724,25.42365 L 32.0726409052,25.433463462 L 32.073603945500004,25.453066744900003 L 32.0755277063,25.472599161300003 L 32.0784075529,25.492013656599998 L 32.080085774,25.501685556400002 L 32.099115774,25.5973565564 L 32.101266559,25.606934505199998 L 32.1060355046,25.625973332099996 L 32.1117328943,25.644755225500003 L 32.1183450026,25.6632349385 L 32.1258559004,25.681367952200002 L 32.1342474934,25.699110582699998 L 32.143499565800006,25.7164200866 L 32.1535898284,25.7332547642 L 32.158841593199995,25.741548252300003 L 32.2130345932,25.8226542523 L 32.2186870644,25.830680182499997 L 32.2303790167,25.846445017700002 L 32.242830439,25.861617158699996 L 32.256011333800004,25.876160053499998 L 32.2698899465,25.8900386662 L 32.2844328413,25.903219560999997 L 32.299604982299996,25.9156709833 L 32.315369817500006,25.927362935599998 L 32.3233957477,25.933015406800003 L 32.3914,25.978454146799997 L 32.3914,27.3287492078 L 30.532578643799997,29.187570564 L 30.5193979093,29.202113263400005 L 30.5077060775,29.2178778737 L 30.497615747100003,29.234712572899998 L 30.489224093500003,29.252455233800003 L 30.482611932899996,29.270934984800004 L 30.477842943899997,29.289973855899998 L 30.4749630547,29.309388492200004 L 30.474,29.3289919203 L 30.4749630547,29.3485953483 L 30.477842943899997,29.368009984700002 L 30.482611932899996,29.3870488557 L 30.489224093500003,29.405528606700003 L 30.497615747100003,29.4232712676 L 30.5077060775,29.4401059669 L 30.5193979093,29.4558705771 L 30.532578643799997,29.4704132765 L 30.547121343199997,29.4835940109 L 30.562885953400002,29.495285842699996 L 30.5797206526,29.505376173100004 L 30.5974633135,29.513767826800002 L 30.615943064499998,29.520379987400002 L 30.6349819356,29.525148976300002 L 30.6543965719,29.528028865599996 L 30.674,29.5289919203 L 30.693603428099998,29.528028865599996 L 30.713018064400003,29.525148976300002 L 30.732056935500005,29.520379987400002 L 30.7505366865,29.513767826800002 L 30.768279347400004,29.505376173100004 L 30.7851140466,29.495285842699996 L 30.800878656800002,29.4835940109 L 30.8154213562,29.4704132765 L 32.7328213562,27.553013276500003 L 32.7460020907,27.5384705771 L 32.757693922499996,27.5227059669 L 32.7677842529,27.5058712676 L 32.776175906499994,27.488128606700002 L 32.7827880671,27.4696488557 L 32.787557056100006,27.4506099847 L 32.790436945299994,27.4311953483 L 32.7914,27.4115919203 L 32.7914,25.851510851000004 L 32.7904369433,25.8319074022 L 32.7875570479,25.812492745700002 L 32.782788049000004,25.7934538557 L 32.7761758746,25.7749740875 L 32.767784203699996,25.757231411799996 L 32.757693853,25.7403967004 L 32.7460019981,25.7246320814 L 32.732821238300005,25.7100893769 L 32.7182785118,25.6969086414 L 32.7025138733,25.685216812799997 L 32.6856791452,25.675126490099995 L 32.667936455399996,25.666734848800004 L 32.6494566762,25.660122705200003 L 32.6362932537,25.656825459200004 L 32.6363069488,25.656770784999996 L 32.6268221997,25.654394994999997 L 32.622646717600006,25.651892321000002 L 32.549705346100005,25.603154721600003 L 32.5457952166,25.6002547834 L 32.542895278399996,25.596344653899997 L 32.494157679,25.523403282399997 L 32.491655005000005,25.5192278003 L 32.4904721699,25.5145056263 L 32.4733578256,25.428465351000003 L 32.4726400343,25.4236263589 L 32.4724,25.418740312100002 L 32.4724,24.9035596879 L 32.4726400343,24.898673641099997 L 32.4733578256,24.893834648999995 L 32.4904721699,24.807794373700002 L 32.491655005000005,24.803072199699997 L 32.494157679,24.7988967176 L 32.542895278399996,24.7259553461 L 32.5457952166,24.7220452166 L 32.549705346100005,24.719145278399996 L 32.622646717600006,24.670407678999997 L 32.6268221997,24.667905005 L 32.6315443737,24.6667221699 L 32.717584648999996,24.649607825599997 L 32.722423641099994,24.6488900343 L 32.7273096879,24.64865 L 33.6174903121,24.64865 L 33.622376358800004,24.6488900343 L 33.627215351000004,24.649607825599997 L 33.7132556263,24.6667221699 L 33.717977800300005,24.667905005 L 33.722153282399994,24.670407678999997 L 33.7288863738,24.674906562200004 L 33.795094653899994,24.719145278399996 L 33.7990047834,24.7220452166 L 33.8019047216,24.7259553461 L 33.850642321,24.7988967176 L 33.853144994999994,24.803072199699997 L 33.8543278301,24.807794373700002 L 33.8714421744,24.893834648999995 L 33.8721599657,24.898673641099997 L 33.8724,24.9035596879 L 33.8724,25.418740312100002 L 33.8721599657,25.4236263589 L 33.8714421744,25.428465351000003 L 33.8543278301,25.5145056263 L 33.853144994999994,25.5192278003 L 33.850642321,25.523403282399997 L 33.8019047216,25.596344653899997 L 33.7990047834,25.6002547834 L 33.795094653899994,25.603154721600003 L 33.7288863738,25.647393437799998 L 33.722153282399994,25.651892321000002 L 33.717977800300005,25.654394994999997 L 33.7084930512,25.656770784999996 L 33.708506746299996,25.656825459200004 L 33.695343323799996,25.660122705200003 L 33.6768635446,25.666734848800004 L 33.6591208548,25.675126490099995 L 33.6422861267,25.685216812799997 L 33.6265214882,25.6969086414 L 33.611978761699994,25.7100893769 L 33.5987980019,25.7246320814 L 33.587106147,25.7403967004 L 33.5770157963,25.757231411799996 L 33.5686241254,25.7749740875 L 33.562011950999995,25.7934538557 L 33.557242952100005,25.812492745700002 L 33.5543630567,25.8319074022 L 33.5534,25.851510851000004 L 33.5534,27.6497955075 L 33.5532795638,27.654701535899996 L 33.5518062896,27.68469072 L 33.5508449747,27.6944511145 L 33.546799598,27.721722828599997 L 33.5448862261,27.7313419988 L 33.5381872336,27.7580858759 L 33.5353402316,27.7674711839 L 33.5260521382,27.793429665799998 L 33.5222989242,27.802490726000002 L 33.5105111794,27.827413818400004 L 33.5058878989,27.836063367799998 L 33.4917140251,27.859711047700003 L 33.4862652029,27.8678657864 L 33.4698417022,27.890010313600005 L 33.4636198133,27.897591707099995 L 33.443456020000006,27.9198390247 L 33.4400720954,27.923393271899997 L 33.2398606752,28.123604692 L 31.926778237899995,29.436687129299997 L 31.592036723499998,29.771428643799997 L 31.578855989100003,29.785971343199996 L 31.567164157300002,29.8017359534 L 31.557073826899998,29.8185706526 L 31.548682173199996,29.836313313500003 L 31.542070012599996,29.854793064499997 L 31.5373010237,29.8738319356 L 31.534421134400002,29.893246571900004 L 31.5334580797,29.91285 L 31.534421134400002,29.932453428099997 L 31.5373010237,29.951868064400003 L 31.542070012599996,29.970906935500004 L 31.548682173199996,29.989386686499998 L 31.557073826899998,30.007129347400003 L 31.567164157300002,30.0239640466 L 31.578855989100003,30.0397286568 L 31.592036723499998,30.0542713562 L 31.606579422899998,30.0674520907 L 31.622344033100003,30.0791439225 L 31.6391787324,30.089234252899995 L 31.656921393299996,30.097625906499996 L 31.6754011443,30.104238067100002 L 31.6944400153,30.109007056100005 L 31.713854651699997,30.111886945299997 L 31.7334580797,30.11285 L 31.7530615078,30.111886945299997 L 31.772476144100004,30.109007056100005 L 31.791515015199998,30.104238067100002 L 31.8099947662,30.097625906499996 L 31.827737427100004,30.089234252899995 L 31.8445721263,30.0791439225 L 31.860336736599997,30.0674520907 L 31.874879435999997,30.0542713562 L 32.2096209504,29.719529841799996 L 33.5227033877,28.4064474045 L 33.7246503961,28.2045003961 L 33.7280784565,28.2009871488 L 33.7348473253,28.193877583499997 L 33.7381881338,28.190281265600003 L 33.763297432899996,28.162577423199995 L 33.769709298500004,28.155144289099997 L 33.7821605797,28.139972358999998 L 33.788199995300005,28.1322335631 L 33.8104729349,28.1022019806 L 33.816125351000004,28.0941761663 L 33.8270295667,28.077856854199997 L 33.8322813663,28.069563356499998 L 33.8515034457,28.0374932544 L 33.8563419766,28.028952052900003 L 33.865594113200004,28.0116425228 L 33.870007719,28.0028741941 L 33.8859938191,27.969074425099997 L 33.889971867,27.9601000929 L 33.897482821400004,27.9419670449 L 33.901015728,27.9328083291 L 33.913611894,27.897604403399995 L 33.91669114810001,27.888283368199996 L 33.9223885857,27.869501433499998 L 33.925006769199996,27.860040534000003 L 33.9340916931,27.8237714846 L 33.9362424986,27.814193513099998 L 33.940071549900004,27.794943571999998 L 33.9417497958,27.7852716025 L 33.9472359848,27.748286720200003 L 33.948437628200004,27.738544053400002 L 33.9503614174,27.7190114934 L 33.951083563299996,27.709221600199996 L 33.9529181825,27.671877069700002 L 33.95309885499999,27.666971780599997 L 33.9533397637,27.657158245700003 L 33.9534,27.65225 L 33.9534,25.978454146799997 L 34.0214042523,25.933015406800003 L 34.0294301825,25.927362935599998 L 34.0451950177,25.9156709833 L 34.0603671587,25.903219560999997 L 34.0749100535,25.8900386662 L 34.088788666199996,25.876160053499998 L 34.101969561,25.861617158699996 L 34.1144209833,25.846445017700002 L 34.1261129356,25.830680182499997 L 34.1317654068,25.8226542523 L 34.185958406800005,25.741548252300003 L 34.1912101716,25.7332547642 L 34.20130043419999,25.7164200866 L 34.2105525066,25.699110582699998 L 34.2189440996,25.681367952200002 L 34.2264549974,25.6632349385 L 34.2330671057,25.644755225500003 L 34.2387644954,25.625973332099996 L 34.243533441,25.606934505199998 L 34.245684226,25.5973565564 L 34.264714226,25.501685556400002 L 34.266392447099996,25.492013656599998 L 34.269272293700006,25.472599161300003 L 34.271196054499995,25.453066744900003 L 34.2721590948,25.433463462 L 34.2724,25.42365 L 34.2724,24.89865 L 34.2721590948,24.888836538000003 L 34.271196054499995,24.869233255099996 L 34.269272293700006,24.849700838699995 L 34.266392447099996,24.8302863434 L 34.264714226,24.8206144436 L 34.245684226,24.724943443599997 L 34.243533441,24.7153654948 L 34.2387644954,24.696326667900003 L 34.2330671057,24.677544774499996 L 34.2264549974,24.659065061499998 L 34.2189440996,24.640932047799996 L 34.2105525066,24.6231894173 L 34.20130043419999,24.605879913400003 L 34.1912101716,24.589045235799997 L 34.185958406800005,24.5807517477 L 34.1317654068,24.499645747699997 L 34.1261129356,24.491619817500002 L 34.1144209833,24.4758549823 L 34.101969561,24.460682841300002 L 34.088788666199996,24.446139946500004 L 34.0749100535,24.432261333800003 L 34.0603671587,24.419080439000002 L 34.0451950177,24.4066290167 L 34.0294301825,24.394937064400004 L 34.0214042523,24.3892845932 L 33.9511136262,24.3423181554 L 33.9402982523,24.335091593199998 L 33.9320047642,24.3298398284 L 33.9151700866,24.319749565800002 L 33.8978605827,24.3104974934 L 33.8801179522,24.302105900399997 L 33.8619849385,24.294595002599998 L 33.8435052255,24.287982894299997 L 33.8247233321,24.282285504600004 L 33.8056845052,24.277516559 L 33.7961065564,24.275365773999997 L 33.7004355564,24.256335773999997 L 33.6907636566,24.254657552900003 L 33.6713491613,24.251777706299997 L 33.6518167449,24.2498539455 L 33.6423121361,24.2493870175 L 33.632213461999996,24.248890905199996 L 33.6224,24.24865 L 33.632213461999996,24.248409094800003 L 33.6518167449,24.2474460545 L 33.6713491613,24.245522293700002 L 33.6907636566,24.2426424471 L 33.7004355564,24.240964226000003 L 33.7961065564,24.221934226000002 L 33.8056845052,24.219783441 L 33.8247233321,24.2150144954 L 33.8435052255,24.209317105700002 L 33.8619849385,24.2027049974 L 33.8801179522,24.195194099600002 L 33.8978605827,24.1868025066 L 33.9151700866,24.177550434199997 L 33.9320047642,24.1674601716 L 33.9402982523,24.1622084068 L 33.9511136262,24.154981844599998 L 34.0214042523,24.108015406800003 L 34.0294301825,24.1023629356 L 34.0451950177,24.0906709833 L 34.0603671587,24.078219560999997 L 34.0749100535,24.065038666199996 L 34.088788666199996,24.051160053499995 L 34.101969561,24.036617158699997 L 34.1144209833,24.021445017700003 L 34.1261129356,24.005680182499997 L 34.1317654068,23.997654252300002 L 34.1412188659,23.9835060735 L 34.158353808,23.981818428999997 L 34.1680964749,23.9806167857 L 34.1923647703,23.977016924099996 L 34.2020367398,23.9753386782 L 34.2212866809,23.9715096268 L 34.2308646525,23.9693588214 L 34.2546632413,23.963397585199996 L 34.2641241407,23.960779401699998 L 34.2829060754,23.955081964100003 L 34.2922271107,23.952002710000002 L 34.315326799400005,23.943737509199998 L 34.324485515199996,23.940204602700003 L 34.3426185633,23.9326936483 L 34.3515928955,23.9287156004 L 34.3737712216,23.918226033299998 L 34.3825395503,23.913812427599996 L 34.399849080399996,23.904560291000003 L 34.408390281900004,23.8997217601 L 34.4294336559,23.8871088471 L 34.4377271537,23.8818570475 L 34.454046465800005,23.8709528318 L 34.4620722801,23.865300415700002 L 34.4817780428,23.8506856259 L 34.4895168388,23.8446462103 L 34.5046887688,23.832194929099998 L 34.512121903,23.8257830635 L 34.5303002772,23.809307145400002 L 34.533896595200005,23.805966336999997 L 34.5410061605,23.799197468099997 L 34.544519407799996,23.795769407799998 L 34.8814213562,23.458867459299995 L 35.765619407799996,22.574669407799995 L 35.7690474681,22.571156160499996 L 35.775816336999995,22.5640465952 L 35.7791571454,22.560450277199998 L 35.7956330635,22.542271902999996 L 35.8020449291,22.534838768799997 L 35.8144962103,22.5196668388 L 35.8205356259,22.5119280428 L 35.83515041570001,22.492222280100002 L 35.8408028318,22.484196465800004 L 35.8517070475,22.4678771537 L 35.856958847099996,22.4595836559 L 35.8695717601,22.438540281900003 L 35.874410291000004,22.4299990804 L 35.883662427599994,22.4126895503 L 35.888076033299996,22.403921221600005 L 35.8985656004,22.381742895499997 L 35.9025436483,22.3727685633 L 35.9100546027,22.3546355152 L 35.9135875092,22.3454767994 L 35.92185271,22.322377110699996 L 35.924931964100004,22.313056075400002 L 35.930629401699996,22.294274140699997 L 35.9332475852,22.2848132413 L 35.9392088214,22.261014652500002 L 35.9413596268,22.2514366809 L 35.9451886782,22.2321867398 L 35.9468669241,22.222514770300002 L 35.9504667857,22.1982464749 L 35.951668428999994,22.188503808 L 35.9535922182,22.168971248000002 L 35.9543143642,22.1591813548 L 35.9555181825,22.134677069700004 L 35.955698854999994,22.129771780599995 L 35.9559397637,22.1199582457 L 35.956,22.11505 L 35.956,21.107646103100002 L 35.956,19.834853896899997 L 35.956,19.606031 L 35.955036945299994,19.5864275719 L 35.952157056100006,19.5670129356 L 35.9473880671,19.5479740645 L 35.940775906499994,19.5294943135 L 35.9323842529,19.5117516526 L 35.922293922499996,19.4949169534 L 35.9106020907,19.4791523432 L 35.8974213562,19.464609643800003 L 35.8828786568,19.4514289093 L 35.8671140466,19.439737077500002 L 35.850279347400004,19.429646747099998 L 35.8325366865,19.4212550935 L 35.814056935500005,19.4146429329 L 35.795018064400004,19.4098739439 L 35.7756034281,19.406994054699997 L 35.756,19.406031 L 35.7363965719,19.406994054699997 L 35.716981935599996,19.4098739439 L 35.697943064499995,19.4146429329 L 35.6794633135,19.4212550935 L 35.661720652599996,19.429646747099998 L 35.6448859534,19.439737077500002 L 35.6291213432,19.4514289093 L 35.614578643799994,19.464609643800003 L 35.6013979093,19.4791523432 L 35.5897060775,19.4949169534 L 35.5796157471,19.5117516526 L 35.5712240935,19.5294943135 L 35.5646119329,19.5479740645 L 35.559842943899994,19.5670129356 L 35.5569630547,19.5864275719 L 35.556,19.606031 L 35.556,19.834853896899997 L 35.556,21.107646103100002 L 35.556,22.1125955075 L 35.5558795638,22.117501535899997 L 35.555037090400006,22.1346504746 L 35.5540757755,22.144410869199998 L 35.5519167263,22.1589659964 L 35.550003354400005,22.168585166599996 L 35.5464280497,22.1828585832 L 35.5435810476,22.192243891199997 L 35.5386239195,22.206098136200005 L 35.534870705399996,22.215159196400002 L 35.5285794938,22.2284608459 L 35.523956213299996,22.2371103953 L 35.5163915059,22.249731347199997 L 35.5109426837,22.2578860859 L 35.5021773328,22.269704793399995 L 35.495955443899994,22.277286186899996 L 35.4844250317,22.290008036300005 L 35.481041107,22.293562283600004 L 34.598578643799996,23.1760247468 L 34.263412283600005,23.511191107000002 L 34.2598580363,23.5145750317 L 34.2471361869,23.526105443899997 L 34.239554793399996,23.5323273328 L 34.2277360859,23.541092683700004 L 34.2195813472,23.546541505900002 L 34.2069603953,23.554106213299995 L 34.1983108459,23.558729493799998 L 34.1850091964,23.5650207054 L 34.175948136200006,23.5687739195 L 34.1620938912,23.573731047600003 L 34.1527085832,23.5765780497 L 34.1384351666,23.5801533544 L 34.1288159964,23.582066726300003 L 34.114260869199995,23.5842257755 L 34.1045004746,23.5851870904 L 34.0873515359,23.5860295638 L 34.0824455075,23.58615 L 34.030913199000004,23.58615 L 34.012124081,23.5870345334 L 33.993501159000004,23.589680309600002 L 33.975209159,23.594063925700002 L 33.9574098798,23.6001466074 L 33.940260762,23.6078745511 L 33.9239134953,23.617179400799998 L 33.908512676700006,23.6279788517 L 33.8941945316,23.6401773794 L 33.8810857088,23.653667083499997 L 33.8693021601,23.668328643299997 L 33.858948115000004,23.6840323724 L 33.85652282940001,23.688592193599998 L 33.850642321,23.698403282399997 L 33.8019047216,23.771344653899998 L 33.7990047834,23.775254783399998 L 33.795094653899994,23.778154721600004 L 33.7288863738,23.8223934378 L 33.722153282399994,23.826892321000003 L 33.717977800300005,23.829394994999998 L 33.7132556263,23.8305778301 L 33.627215351000004,23.847692174400002 L 33.622376358900006,23.8484099657 L 33.6174903121,23.84865 L 32.7273096879,23.84865 L 32.722423641099994,23.8484099657 L 32.717584648999996,23.847692174400002 L 32.6315443737,23.8305778301 L 32.6268221997,23.829394994999998 L 32.622646717600006,23.826892321000003 L 32.549705346100005,23.778154721600004 L 32.5457952166,23.775254783399998 L 32.542895278399996,23.771344653899998 L 32.494157679,23.698403282399997 L 32.4882771706,23.688592193599998 L 32.485851884999995,23.6840323724 L 32.4754978399,23.668328643299997 L 32.4637142912,23.653667083499997 L 32.4506054684,23.6401773794 L 32.43628732329999,23.6279788517 L 32.4208865047,23.617179400799998 L 32.404539238,23.6078745511 L 32.3873901202,23.6001466074 L 32.369590841,23.594063925700002 L 32.351298840999995,23.589680309600002 L 32.332675919,23.5870345334 L 32.313886801,23.58615 L 32.1374961031,23.58615 L 31.350296103100003,23.58615 L 31.330692674999998,23.5871130547 L 31.3112780387,23.589992943899997 L 31.2922391676,23.594761932899996 L 31.273759416599997,23.601374093500002 L 31.2560167557,23.609765747100003 L 31.239182056500002,23.6198560775 L 31.2234174462,23.6315479093 L 31.2088747468,23.644728643799997 L 29.7725786438,25.081024746799997 L 29.7593979093,25.095567446199997 L 29.747706077500002,25.111332056500004 L 29.7376157471,25.1281667557 L 29.729224093500004,25.145909416599995 L 29.722611932899998,25.1643891676 L 29.717842943899996,25.1834280387 L 29.714963054700004,25.202842674999996 L 29.714,25.2224461031 L 29.714,26.009646103100003 L 29.714963054700004,26.029249531099996 L 29.717842943899996,26.048664167499997 L 29.722611932899998,26.067703038500003 L 29.729224093500004,26.086182789499997 L 29.7376157471,26.103925450400002 L 29.747706077500002,26.1207601497 L 29.7593979093,26.136524759900002 L 29.7725786438,26.151067459299995 L 29.7871213432,26.1642481937 L 29.8028859534,26.1759400255 L 29.819720652599997,26.186030355899998 L 29.837463313500002,26.1944220096 L 29.855943064499996,26.201034170199996 L 29.874981935599997,26.205803159100004 L 29.894396571900003,26.2086830484 L 29.914,26.209646103100003 L 29.933603428099996,26.2086830484 L 29.953018064400002,26.205803159100004 L 29.972056935500003,26.201034170199996 L 29.990536686499997,26.1944220096 L 30.008279347400002,26.186030355899998 L 30.0251140466,26.1759400255 L 30.0408786568,26.1642481937 L 30.055421356200004,26.151067459299995 L 30.0686020907,26.136524759900002 L 30.0802939225,26.1207601497 L 30.090384252899998,26.103925450400002 L 30.0987759065,26.086182789499997 L 30.1053880671,26.067703038500003 L 30.110157056100004,26.048664167499997 L 30.1130369453,26.029249531099996 L 30.114,26.009646103100003 L 30.114,25.3052888155 z" /><path fill-rule="evenodd" fill="#66cc99" stroke="#555555" stroke-width="0.0" opacity="1" d="M 31.090446192,22.690481571000003 L 31.0807035251,22.6916832143 L 31.0564352297,22.695283075900004 L 31.046763260200002,22.6969613218 L 31.0275133191,22.7007903732 L 31.017935347499996,22.7029411786 L 30.994136758699998,22.708902414800004 L 30.9846758593,22.7115205983 L 30.965893924599996,22.717218035899997 L 30.956572889300002,22.720297289999998 L 30.933473200599998,22.7285624908 L 30.924314484800004,22.732095397299997 L 30.906181436700003,22.7396063517 L 30.8972071045,22.7435843996 L 30.875028778399997,22.754073966700002 L 30.866260449699997,22.758487572400004 L 30.848950919600004,22.767739708999997 L 30.840409718099995,22.7725782399 L 30.819366344099997,22.7851911529 L 30.8110728463,22.7904429525 L 30.794753534199998,22.8013471682 L 30.786727719899996,22.806999584299998 L 30.767021957199997,22.8216143741 L 30.759283161200003,22.8276537897 L 30.7441112312,22.8401050709 L 30.736678097000002,22.8465169365 L 30.7184997228,22.862992854599998 L 30.714903404799998,22.866333663000002 L 30.707793839500003,22.873102531900003 L 30.704280592200003,22.876530592200005 L 29.004380592200004,24.576430592200005 L 29.000952531900005,24.579943839500004 L 28.994183663,24.5870534048 L 28.990842854599997,24.590649722800002 L 28.974366936499997,24.608828097000004 L 28.9679550709,24.616261231200003 L 28.9555037897,24.6314331612 L 28.9494643741,24.6391719572 L 28.934849584299997,24.658877719899998 L 28.9291971682,24.6669035342 L 28.9182929525,24.683222846299998 L 28.913041152900004,24.6915163441 L 28.900428239900002,24.712559718099996 L 28.895589709,24.7211009196 L 28.886337572400002,24.738410449699998 L 28.881923966700004,24.747178778399995 L 28.8714343996,24.769357104500003 L 28.8674563517,24.7783314367 L 28.8599453973,24.796464484800005 L 28.8564124908,24.8056232006 L 28.84814729,24.828722889300003 L 28.845068035899995,24.838043924599997 L 28.839370598300004,24.856825859300002 L 28.836752414800003,24.8662867587 L 28.8307911786,24.890085347499998 L 28.8286403732,24.8996633191 L 28.824811321800002,24.9189132602 L 28.823133075900003,24.928585229699998 L 28.819533214299998,24.9528535251 L 28.818331571,24.962596192000003 L 28.816407781800002,24.982128751999998 L 28.815685635799998,24.9919186452 L 28.814481817500003,25.016422930299996 L 28.814301145,25.021328219400004 L 28.814060236299998,25.0311417543 L 28.814,25.03605 L 28.814,25.82325 L 28.8149630547,25.842853428099996 L 28.817842943899997,25.862268064400002 L 28.822611932899996,25.881306935500003 L 28.829224093500002,25.899786686499997 L 28.837615747100003,25.917529347400002 L 28.8477060775,25.9343640466 L 28.8593979093,25.9501286568 L 28.872578643799997,25.964671356200004 L 28.887121343199997,25.9778520907 L 28.902885953400002,25.9895439225 L 28.9197206526,25.999634252899998 L 28.9374633135,26.008025906499995 L 28.955943064499998,26.0146380671 L 28.9749819356,26.019407056100004 L 28.9943965719,26.0222869453 L 29.014,26.02325 L 29.033603428099998,26.0222869453 L 29.053018064400003,26.019407056100004 L 29.072056935500004,26.0146380671 L 29.0905366865,26.008025906499995 L 29.108279347400003,25.999634252899998 L 29.1251140466,25.9895439225 L 29.140878656800002,25.9778520907 L 29.1554213562,25.964671356200004 L 29.168602090700002,25.9501286568 L 29.1802939225,25.9343640466 L 29.190384252899996,25.917529347400002 L 29.198775906499996,25.899786686499997 L 29.205388067100003,25.881306935500003 L 29.2101570561,25.862268064400002 L 29.213036945299997,25.842853428099996 L 29.214,25.82325 L 29.214,25.0385044925 L 29.2141204362,25.033598464100002 L 29.214962909599997,25.0164495254 L 29.2159242245,25.0066891308 L 29.2180832737,24.9921340036 L 29.2199966456,24.982514833400003 L 29.223571950300002,24.9682414168 L 29.2264189524,24.958856108800003 L 29.2313760805,24.945001863799998 L 29.235129294600004,24.935940803599998 L 29.2414205062,24.9226391541 L 29.246043786700003,24.9139896047 L 29.253608494099996,24.901368652800002 L 29.259057316299998,24.8932139141 L 29.2678226672,24.881395206600004 L 29.274044556100005,24.873813813100004 L 29.2855749683,24.861091963699998 L 29.288958893,24.857537716399996 L 30.9853877164,23.161108892999998 L 30.988941963699997,23.1577249683 L 31.001663813100002,23.146194556100003 L 31.009245206600003,23.1399726672 L 31.021063914099997,23.131207316299996 L 31.0292186528,23.125758494099998 L 31.041839604699998,23.118193786700004 L 31.0504891541,23.113570506200002 L 31.0637908036,23.1072792946 L 31.072851863799997,23.1035260805 L 31.0867061088,23.098568952399997 L 31.0960914168,23.0957219503 L 31.110364833400002,23.0921466456 L 31.119984003600003,23.090233273699997 L 31.1345391308,23.0880742245 L 31.1442995255,23.087112909500004 L 31.161448464100005,23.0862704362 L 31.1663544925,23.08615 L 31.7647038969,23.08615 L 32.313886801,23.08615 L 32.332675919,23.0852654666 L 32.351298840999995,23.082619690399998 L 32.369590841,23.078236074299998 L 32.3873901202,23.0721533926 L 32.404539238,23.0644254489 L 32.4208865047,23.055120599200002 L 32.43628732329999,23.0443211483 L 32.4506054684,23.0321226206 L 32.4637142912,23.018632916500003 L 32.4754978399,23.003971356700003 L 32.485851884999995,22.9882676276 L 32.4882771706,22.9837078064 L 32.494157679,22.973896717600002 L 32.542895278399996,22.9009553461 L 32.5457952166,22.897045216600002 L 32.549705346100005,22.894145278399996 L 32.622646717600006,22.845407678999997 L 32.6268221997,22.842905005000002 L 32.6315443737,22.8417221699 L 32.717584648999996,22.824607825599998 L 32.722423641099994,22.8238900343 L 32.7273096879,22.82365 L 33.6174903121,22.82365 L 33.622376358800004,22.8238900343 L 33.627215351000004,22.824607825599998 L 33.7132556263,22.8417221699 L 33.717977800300005,22.842905005000002 L 33.722153282399994,22.845407678999997 L 33.7288863738,22.8499065622 L 33.795094653899994,22.894145278399996 L 33.7990047834,22.897045216600002 L 33.8019047216,22.9009553461 L 33.8125644601,22.9169088596 L 33.824256269900005,22.9326735211 L 33.8374369894,22.947216271899997 L 33.8519796809,22.9603970568 L 33.867744289899996,22.9720889374 L 33.884578994099996,22.9821793142 L 33.9023216656,22.9905710109 L 33.9208014323,22.9971832109 L 33.9398403236,23.001952234700003 L 33.9592549838,23.004832154 L 33.978858438799996,23.0057952334 L 33.9984618959,23.004832198 L 34.0178765626,23.001952322400005 L 34.036915464500005,22.997183341399996 L 34.0553952462,22.9905711829 L 34.0731379365,22.982179526 L 34.089972663400005,22.9720891871 L 34.105737298600005,22.9603973419 L 34.1202800197,22.9472165897 L 34.9974213562,22.070075253200002 L 35.0106020907,22.055532553800003 L 35.0222939225,22.039767943499996 L 35.032384252899995,22.0229332443 L 35.040775906499995,22.005190583400005 L 35.0473880671,21.9867108324 L 35.0521570561,21.9676719613 L 35.055036945299996,21.948257325000004 L 35.056,21.9286538969 L 35.056,20.7348538969 L 35.056,20.6924271031 L 35.056,19.4196348969 L 35.055036945299996,19.4000314689 L 35.0521570561,19.3806168325 L 35.0473880671,19.3615779615 L 35.040775906499995,19.3430982105 L 35.032384252899995,19.3253555496 L 35.0222939225,19.3085208503 L 35.0106020907,19.2927562401 L 34.9974213562,19.2782135407 L 34.982878656800004,19.2650328063 L 34.9671140466,19.253340974500002 L 34.9502793474,19.243250644099998 L 34.9325366865,19.234858990400003 L 34.91405693550001,19.2282468298 L 34.895018064400006,19.2234778409 L 34.8756034281,19.2205979516 L 34.856,19.219634896899997 L 34.8363965719,19.2205979516 L 34.8169819356,19.2234778409 L 34.7979430645,19.2282468298 L 34.7794633135,19.234858990400003 L 34.7617206526,19.243250644099998 L 34.7448859534,19.253340974500002 L 34.7291213432,19.2650328063 L 34.714578643799996,19.2782135407 L 34.7013979093,19.2927562401 L 34.6897060775,19.3085208503 L 34.6796157471,19.3253555496 L 34.6712240935,19.3430982105 L 34.664611932899994,19.3615779615 L 34.659842943899996,19.3806168325 L 34.6569630547,19.4000314689 L 34.656,19.4196348969 L 34.656,20.6924271031 L 34.656,20.7348538969 L 34.656,21.8458111845 L 33.9711231595,22.530688025 L 33.9511136262,22.5173181554 L 33.9402982523,22.5100915932 L 33.9320047642,22.5048398284 L 33.9151700866,22.494749565800003 L 33.8978605827,22.4854974934 L 33.8801179522,22.477105900399998 L 33.8619849385,22.4695950026 L 33.8435052255,22.462982894299998 L 33.8247233321,22.457285504600005 L 33.8056845052,22.452516559 L 33.7961065564,22.450365773999998 L 33.7004355564,22.431335773999997 L 33.6907636566,22.4296575529 L 33.6713491613,22.426777706299998 L 33.6518167449,22.4248539455 L 33.6423121361,22.4243870175 L 33.632213461999996,22.423890905199997 L 33.6224,22.42365 L 32.7224,22.42365 L 32.712586538000004,22.423890905199997 L 32.692983255099996,22.4248539455 L 32.6734508387,22.426777706299998 L 32.6540363434,22.4296575529 L 32.6443644436,22.431335773999997 L 32.5486934436,22.450365773999998 L 32.5391154948,22.452516559 L 32.52007666790001,22.457285504600005 L 32.501294774499996,22.462982894299998 L 32.4828150615,22.4695950026 L 32.4646820478,22.477105900399998 L 32.4469394173,22.4854974934 L 32.4296299134,22.494749565800003 L 32.4127952358,22.5048398284 L 32.404501747699996,22.5100915932 L 32.3233957477,22.564284593199996 L 32.315369817500006,22.5699370644 L 32.299604982299996,22.5816290167 L 32.2844328413,22.594080439000003 L 32.2698899465,22.607261333800004 L 32.256011333800004,22.621139946500005 L 32.242830439,22.635682841300003 L 32.2303790167,22.650854982299997 L 32.2186870644,22.666619817500003 L 32.2130345932,22.674645747699998 L 32.2053477396,22.68615 L 31.7647038969,22.68615 L 31.1639,22.68615 L 31.158991754299997,22.6862102363 L 31.149178219400003,22.686451145000003 L 31.144272930299998,22.686631817500004 L 31.1197686452,22.687835635799996 L 31.114882560999998,22.688316873099996 L 31.109978751999996,22.6885577818 L 31.090446192,22.690481571000003 z" /></g>
                        <circle r="1.0" cx="30" cy="16" stroke-width="0.1" fill="none" stroke="black"/><circle r="1.0" cx="81" cy="47" stroke-width="0.1" fill="none" stroke="black"/><circle r="1.0" cx="81" cy="16" stroke-width="0.1" fill="none" stroke="black"/><circle r="1.0" cx="30" cy="47" stroke-width="0.1" fill="none" stroke="black"/><rect width="57.0" height="37.0" x="27" y="13" stroke-width="0.1" fill="none" stroke="black"/>
                    </g>
                    </svg>