<svg xmlns="http://www.w3.org/2000/svg" viewBox="0 0 106.934 101.56625" width="106.934mm" height="101.56625mm">
                    <g stroke-linecap="round">
                        <g><path fill-rule="evenodd" fill="#66cc99" stroke="#555555" stroke-width="0.0" opacity="0.6" d="M 32.0163007922,29.91285 L 31.975026024599998,29.8715752324 L 31.972571867013745,29.87750009289018 L 31.96859381913618,29.886474425103195 L 31.952607718966103,29.920274194102802 L 31.948194113211088,29.929042522781945 L 31.938941976586452,29.946352052934536 L 31.934103445716836,29.95489325440798 L 31.92509092053625,29.969929744259574 L 31.92484614688521,29.970906935450888 L 31.91823398624102,29.98938668647302 L 31.909842332608438,30.0071293473652 L 31.89975200219928,30.02396404660392 L 31.88806017041131,30.039728656832732 L 31.874879435999997,30.0542713562 L 32.0163007922,29.91285 z" /><path fill-rule="evenodd" fill="#66cc99" stroke="#555555" stroke-width="0.0" opacity="0.6" d="M 35.8671140466,19.439737077500002 L 35.86079944823985,19.435952252892193 L 35.86769339066845,19.44031779378904 L 35.8677801161273,19.44023106833019 L 35.8671140466,19.439737077500002 z" /><path fill-rule="evenodd" fill="#66cc99" stroke="#555555" stroke-width="0.0" opacity="0.6" d="M 35.850279347400004,19.429646747099998 L 35.843624178061916,19.426499086439108 L 35.852385905211015,19.430909369263148 L 35.850279347400004,19.429646747099998 z" /><path fill-rule="evenodd" fill="#66cc99" stroke="#555555" stroke-width="0.0" opacity="0.6" d="M 35.8325366865,19.4212550935 L 35.82560504029175,19.41877491084216 L 35.834756858912556,19.422305156843002 L 35.8325366865,19.4212550935 z" /><path fill-rule="evenodd" fill="#66cc99" stroke="#555555" stroke-width="0.0" opacity="0.6" d="M 35.814056935500005,19.4146429329 L 35.80691556694739,19.41285411317989 L 35.81636934088125,19.415470324770872 L 35.814056935500005,19.4146429329 z" /><path fill-rule="evenodd" fill="#66cc99" stroke="#555555" stroke-width="0.0" opacity="0.6" d="M 35.795018064400004,19.4098739439 L 35.787735747961364,19.408793714317607 L 35.79740043402121,19.410470696431062 L 35.795018064400004,19.4098739439 z" /><path fill-rule="evenodd" fill="#66cc99" stroke="#555555" stroke-width="0.0" opacity="0.6" d="M 35.7756034281,19.406994054699997 L 35.76825029781386,19.406632818560805 L 35.77803281742745,19.407354420558963 L 35.7756034281,19.406994054699997 z" /><path fill-rule="evenodd" fill="#66cc99" stroke="#555555" stroke-width="0.0" opacity="0.6" d="M 35.756,19.406031 L 35.74864686941695,19.406392236153778 L 35.75845301348025,19.406151508828827 L 35.756,19.406031 z" /><path fill-rule="evenodd" fill="#66cc99" stroke="#555555" stroke-width="0.0" opacity="0.6" d="M 35.7363965719,19.406994054699997 L 35.72911425597428,19.408074284206304 L 35.73884958508371,19.406873545885738 L 35.7363965719,19.406994054699997 z" /><path fill-rule="evenodd" fill="#66cc99" stroke="#555555" stroke-width="0.0" opacity="0.6" d="M 35.716981935599996,19.4098739439 L 35.70984056659249,19.411662763734057 L 35.71941132543976,19.409513577965043 L 35.716981935599996,19.4098739439 z" /><path fill-rule="evenodd" fill="#66cc99" stroke="#555555" stroke-width="0.0" opacity="0.6" d="M 35.697943064499995,19.4146429329 L 35.69101141870183,19.417123115411105 L 35.70032543366686,19.414046180482746 L 35.697943064499995,19.4146429329 z" /><path fill-rule="evenodd" fill="#66cc99" stroke="#555555" stroke-width="0.0" opacity="0.6" d="M 35.6794633135,19.4212550935 L 35.6728081445033,19.42440275399943 L 35.681775719290926,19.42042770148254 L 35.6794633135,19.4212550935 z" /><path fill-rule="evenodd" fill="#66cc99" stroke="#555555" stroke-width="0.0" opacity="0.6" d="M 35.661720652599996,19.429646747099998 L 35.655406054126594,19.433431571775692 L 35.66394082535359,19.4285966835957 L 35.661720652599996,19.429646747099998 z" /><path fill-rule="evenodd" fill="#66cc99" stroke="#555555" stroke-width="0.0" opacity="0.6" d="M 35.6448859534,19.439737077500002 L 35.63897273976247,19.444122615637028 L 35.64699251109789,19.43847445540466 L 35.6448859534,19.439737077500002 z" /><path fill-rule="evenodd" fill="#66cc99" stroke="#555555" stroke-width="0.0" opacity="0.6" d="M 35.6291213432,19.4514289093 L 35.6236664624143,19.4563729250833 L 35.63109399832446,19.449965888545155 L 35.6291213432,19.4514289093 z" /><path fill-rule="evenodd" fill="#66cc99" stroke="#555555" stroke-width="0.0" opacity="0.6" d="M 35.614578643799994,19.464609643800003 L 35.609634628396094,19.4700645241671 L 35.61639839844326,19.462960314322146 L 35.614578643799994,19.464609643800003 z" /><path fill-rule="evenodd" fill="#66cc99" stroke="#555555" stroke-width="0.0" opacity="0.6" d="M 35.6013979093,19.4791523432 L 35.59701237136699,19.485065556562443 L 35.603047239156794,19.477332588138633 L 35.6013979093,19.4791523432 z" /><path fill-rule="evenodd" fill="#66cc99" stroke="#555555" stroke-width="0.0" opacity="0.6" d="M 35.5897060775,19.4949169534 L 35.58592125289227,19.50123155176002 L 35.59116909845852,19.492944298000914 L 35.5897060775,19.4949169534 z" /><path fill-rule="evenodd" fill="#66cc99" stroke="#555555" stroke-width="0.0" opacity="0.6" d="M 35.5796157471,19.5117516526 L 35.57646808643915,19.518406821937997 L 35.58087836926311,19.50964509478905 L 35.5796157471,19.5117516526 z" /><path fill-rule="evenodd" fill="#66cc99" stroke="#555555" stroke-width="0.0" opacity="0.6" d="M 35.5712240935,19.5294943135 L 35.568743910842166,19.53642595970825 L 35.57227415684301,19.52727414108744 L 35.5712240935,19.5294943135 z" /><path fill-rule="evenodd" fill="#66cc99" stroke="#555555" stroke-width="0.0" opacity="0.6" d="M 35.5646119329,19.5479740645 L 35.56282311317988,19.555115433052613 L 35.56543932477087,19.545661659118743 L 35.5646119329,19.5479740645 z" /><path fill-rule="evenodd" fill="#66cc99" stroke="#555555" stroke-width="0.0" opacity="0.6" d="M 35.559842943899994,19.5670129356 L 35.558762714317595,19.574295252038716 L 35.56043969643106,19.564630565978785 L 35.559842943899994,19.5670129356 z" /><path fill-rule="evenodd" fill="#66cc99" stroke="#555555" stroke-width="0.0" opacity="0.6" d="M 35.5569630547,19.5864275719 L 35.556601818560814,19.593780702186027 L 35.557323420558966,19.583998182572543 L 35.5569630547,19.5864275719 z" /><path fill-rule="evenodd" fill="#66cc99" stroke="#555555" stroke-width="0.0" opacity="0.6" d="M 31.0807035251,22.6916832143 L 31.0564352297,22.695283075900004 L 31.046763260200002,22.6969613218 L 31.0275133191,22.7007903732 L 31.017935347499996,22.7029411786 L 30.994136758699998,22.708902414800004 L 30.9846758593,22.7115205983 L 30.965893924599996,22.717218035899997 L 30.956572889300002,22.720297289999998 L 30.933473200599998,22.7285624908 L 30.924314484800004,22.732095397299997 L 30.906181436700003,22.7396063517 L 30.8972071045,22.7435843996 L 30.875028778399997,22.754073966700002 L 30.866260449699997,22.758487572400004 L 30.848950919600004,22.767739708999997 L 30.840409718099995,22.7725782399 L 30.819366344099997,22.7851911529 L 30.8110728463,22.7904429525 L 30.794753534199998,22.8013471682 L 30.786727719899996,22.806999584299998 L 30.767021957199997,22.8216143741 L 30.759283161200003,22.8276537897 L 30.7441112312,22.8401050709 L 30.736678097000002,22.8465169365 L 30.7184997228,22.862992854599998 L 30.714903404799998,22.866333663000002 L 30.707793839500003,22.873102531900003 L 30.704280592200003,22.876530592200005 L 29.004380592200004,24.576430592200005 L 29.000952531900005,24.579943839500004 L 28.994183663,24.5870534048 L 28.990842854599997,24.590649722800002 L 28.974366936499997,24.608828097000004 L 28.9679550709,24.616261231200003 L 28.9555037897,24.6314331612 L 28.9494643741,24.6391719572 L 28.934849584299997,24.658877719899998 L 28.9291971682,24.6669035342 L 28.9182929525,24.683222846299998 L 28.913041152900004,24.6915163441 L 28.900428239900002,24.712559718099996 L 28.895589709,24.7211009196 L 28.886337572400002,24.738410449699998 L 28.881923966700004,24.747178778399995 L 28.8714343996,24.769357104500003 L 28.8674563517,24.7783314367 L 28.8599453973,24.796464484800005 L 28.8564124908,24.8056232006 L 28.84814729,24.828722889300003 L 28.845068035899995,24.838043924599997 L 28.839370598300004,24.856825859300002 L 28.836752414800003,24.8662867587 L 28.8307911786,24.890085347499998 L 28.8286403732,24.8996633191 L 28.824811321800002,24.9189132602 L 28.823133075900003,24.928585229699998 L 28.819533214299998,24.9528535251 L 28.81905992307669,24.95669086912331 L 31.08454086912331,22.691209923076688 L 31.0807035251,22.6916832143 z" /><path fill-rule="evenodd" fill="#66cc99" stroke="#555555" stroke-width="0.0" opacity="0.6" d="M 28.814361236153783,25.830603130583054 L 28.81406023628696,25.818341755362457 L 28.814,25.82325 L 28.814361236153783,25.830603130583054 z" /><path fill-rule="evenodd" fill="#66cc99" stroke="#555555" stroke-width="0.0" opacity="0.6" d="M 28.8149630547,25.842853428099996 L 28.816043284206316,25.850135744025796 L 28.814842545885742,25.840400414916314 L 28.8149630547,25.842853428099996 z" /><path fill-rule="evenodd" fill="#66cc99" stroke="#555555" stroke-width="0.0" opacity="0.6" d="M 28.817842943899997,25.862268064400002 L 28.819631763734094,25.86940943340768 L 28.817482577965027,25.859838674560145 L 28.817842943899997,25.862268064400002 z" /><path fill-rule="evenodd" fill="#66cc99" stroke="#555555" stroke-width="0.0" opacity="0.6" d="M 28.822611932899996,25.881306935500003 L 28.82509211541111,25.888238581298186 L 28.82201518048273,25.8789245663331 L 28.822611932899996,25.881306935500003 z" /><path fill-rule="evenodd" fill="#66cc99" stroke="#555555" stroke-width="0.0" opacity="0.6" d="M 28.829224093500002,25.899786686499997 L 28.832371753999336,25.90644185549649 L 28.828396701482557,25.897474280709112 L 28.829224093500002,25.899786686499997 z" /><path fill-rule="evenodd" fill="#66cc99" stroke="#555555" stroke-width="0.0" opacity="0.6" d="M 28.837615747100003,25.917529347400002 L 28.841400571775676,25.923843945873372 L 28.836565683595733,25.91530917464648 L 28.837615747100003,25.917529347400002 z" /><path fill-rule="evenodd" fill="#66cc99" stroke="#555555" stroke-width="0.0" opacity="0.6" d="M 28.8477060775,25.9343640466 L 28.85209161563701,25.940277260237508 L 28.846443455404646,25.932257488902085 L 28.8477060775,25.9343640466 z" /><path fill-rule="evenodd" fill="#66cc99" stroke="#555555" stroke-width="0.0" opacity="0.6" d="M 28.8593979093,25.9501286568 L 28.864341925083384,25.955583537585795 L 28.85793488854517,25.94815600167556 L 28.8593979093,25.9501286568 z" /><path fill-rule="evenodd" fill="#66cc99" stroke="#555555" stroke-width="0.0" opacity="0.6" d="M 28.872578643799997,25.964671356200004 L 28.878033524167254,25.969615371604046 L 28.870929314322076,25.962851601556665 L 28.872578643799997,25.964671356200004 z" /><path fill-rule="evenodd" fill="#66cc99" stroke="#555555" stroke-width="0.0" opacity="0.6" d="M 28.887121343199997,25.9778520907 L 28.893034556562586,25.98223762863312 L 28.885301588138603,25.976202760843172 L 28.887121343199997,25.9778520907 z" /><path fill-rule="evenodd" fill="#66cc99" stroke="#555555" stroke-width="0.0" opacity="0.6" d="M 28.902885953400002,25.9895439225 L 28.909200551760083,25.993328747107768 L 28.90091329800086,25.98808090154144 L 28.902885953400002,25.9895439225 z" /><path fill-rule="evenodd" fill="#66cc99" stroke="#555555" stroke-width="0.0" opacity="0.6" d="M 28.9197206526,25.999634252899998 L 28.926375821937985,26.002781913560845 L 28.91761409478905,25.998371630736887 L 28.9197206526,25.999634252899998 z" /><path fill-rule="evenodd" fill="#66cc99" stroke="#555555" stroke-width="0.0" opacity="0.6" d="M 28.9374633135,26.008025906499995 L 28.944394959708205,26.01050608915782 L 28.935243141087458,26.006975843156994 L 28.9374633135,26.008025906499995 z" /><path fill-rule="evenodd" fill="#66cc99" stroke="#555555" stroke-width="0.0" opacity="0.6" d="M 28.955943064499998,26.0146380671 L 28.963084433052636,26.016426886820124 L 28.95363065911874,26.01381067522913 L 28.955943064499998,26.0146380671 z" /><path fill-rule="evenodd" fill="#66cc99" stroke="#555555" stroke-width="0.0" opacity="0.6" d="M 28.9749819356,26.019407056100004 L 28.98226425203871,26.020487285682403 L 28.972599565978772,26.018810303568937 L 28.9749819356,26.019407056100004 z" /><path fill-rule="evenodd" fill="#66cc99" stroke="#555555" stroke-width="0.0" opacity="0.6" d="M 28.9943965719,26.0222869453 L 29.001749702186196,26.02264818143919 L 28.991967182572537,26.021926579441033 L 28.9943965719,26.0222869453 z" /><path fill-rule="evenodd" fill="#66cc99" stroke="#555555" stroke-width="0.0" opacity="0.6" d="M 29.014,26.02325 L 29.021353130583048,26.02288876384622 L 29.01154698651972,26.023129491171172 L 29.014,26.02325 z" /><path fill-rule="evenodd" fill="#66cc99" stroke="#555555" stroke-width="0.0" opacity="0.6" d="M 29.033603428099998,26.0222869453 L 29.040885744025797,26.021206715793685 L 29.031150414916315,26.02240745411426 L 29.033603428099998,26.0222869453 z" /><path fill-rule="evenodd" fill="#66cc99" stroke="#555555" stroke-width="0.0" opacity="0.6" d="M 29.053018064400003,26.019407056100004 L 29.06015943340768,26.017618236265907 L 29.050588674560146,26.01976742203497 L 29.053018064400003,26.019407056100004 z" /><path fill-rule="evenodd" fill="#66cc99" stroke="#555555" stroke-width="0.0" opacity="0.6" d="M 29.072056935500004,26.0146380671 L 29.078988581298187,26.01215788458889 L 29.0696745663331,26.01523481951727 L 29.072056935500004,26.0146380671 z" /><path fill-rule="evenodd" fill="#66cc99" stroke="#555555" stroke-width="0.0" opacity="0.6" d="M 29.0905366865,26.008025906499995 L 29.09719185549649,26.00487824600066 L 29.08822428070911,26.008853298517444 L 29.0905366865,26.008025906499995 z" /><path fill-rule="evenodd" fill="#66cc99" stroke="#555555" stroke-width="0.0" opacity="0.6" d="M 29.108279347400003,25.999634252899998 L 29.114593945873374,25.995849428224325 L 29.106059174646482,26.000684316404268 L 29.108279347400003,25.999634252899998 z" /><path fill-rule="evenodd" fill="#66cc99" stroke="#555555" stroke-width="0.0" opacity="0.6" d="M 29.1251140466,25.9895439225 L 29.131027260237506,25.98515838436299 L 29.123007488902086,25.990806544595355 L 29.1251140466,25.9895439225 z" /><path fill-rule="evenodd" fill="#66cc99" stroke="#555555" stroke-width="0.0" opacity="0.6" d="M 29.140878656800002,25.9778520907 L 29.146333537585797,25.972908074916617 L 29.13890600167556,25.97931511145483 L 29.140878656800002,25.9778520907 z" /><path fill-rule="evenodd" fill="#66cc99" stroke="#555555" stroke-width="0.0" opacity="0.6" d="M 29.1554213562,25.964671356200004 L 29.160365371604048,25.959216475832747 L 29.153601601556666,25.966320685677925 L 29.1554213562,25.964671356200004 z" /><path fill-rule="evenodd" fill="#66cc99" stroke="#555555" stroke-width="0.0" opacity="0.6" d="M 29.168602090700002,25.9501286568 L 29.17298762863312,25.94421544343741 L 29.166952760843174,25.951948411861398 L 29.168602090700002,25.9501286568 z" /><path fill-rule="evenodd" fill="#66cc99" stroke="#555555" stroke-width="0.0" opacity="0.6" d="M 29.1802939225,25.9343640466 L 29.184078747107765,25.928049448239914 L 29.178830901541442,25.936336701999142 L 29.1802939225,25.9343640466 z" /><path fill-rule="evenodd" fill="#66cc99" stroke="#555555" stroke-width="0.0" opacity="0.6" d="M 29.190384252899996,25.917529347400002 L 29.193531913560847,25.910874178062013 L 29.18912163073689,25.91963590521095 L 29.190384252899996,25.917529347400002 z" /><path fill-rule="evenodd" fill="#66cc99" stroke="#555555" stroke-width="0.0" opacity="0.6" d="M 29.198775906499996,25.899786686499997 L 29.20125608915782,25.892855040291792 L 29.197725843156995,25.902006858912543 L 29.198775906499996,25.899786686499997 z" /><path fill-rule="evenodd" fill="#66cc99" stroke="#555555" stroke-width="0.0" opacity="0.6" d="M 29.205388067100003,25.881306935500003 L 29.207176886820122,25.87416556694736 L 29.204560675229132,25.883619340881257 L 29.205388067100003,25.881306935500003 z" /><path fill-rule="evenodd" fill="#66cc99" stroke="#555555" stroke-width="0.0" opacity="0.6" d="M 29.2101570561,25.862268064400002 L 29.2112372856824,25.85498574796129 L 29.20956030356894,25.864650434021225 L 29.2101570561,25.862268064400002 z" /><path fill-rule="evenodd" fill="#66cc99" stroke="#555555" stroke-width="0.0" opacity="0.6" d="M 29.213036945299997,25.842853428099996 L 29.213398181439192,25.8355002978138 L 29.212676579441034,25.845282817427464 L 29.213036945299997,25.842853428099996 z" /><polyline fill="none" stroke="#66cc99" stroke-width="0.0" points="75.9205786438,16.879670563999998 75.903420564,16.896828643800003" opacity="0.8" /><polyline fill="none" stroke="#66cc99" stroke-width="0.0" points="75.903420564,16.896828643800003 75.8902398296,16.9113713432" opacity="0.8" /><polyline fill="none" stroke="#66cc99" stroke-width="0.0" points="75.8902398296,16.9113713432 75.8785479978,16.9271359534" opacity="0.8" /><polyline fill="none" stroke="#66cc99" stroke-width="0.0" points="75.8785479978,16.9271359534 75.86845766740001,16.9439706526" opacity="0.8" /><polyline fill="none" stroke="#66cc99" stroke-width="0.0" points="75.86845766740001,16.9439706526 75.8600660138,16.9617133135" opacity="0.8" /><polyline fill="none" stroke="#66cc99" stroke-width="0.0" points="75.8600660138,16.9617133135 75.8534538531,16.9801930645" opacity="0.8" /><polyline fill="none" stroke="#66cc99" stroke-width="0.0" points="75.8534538531,16.9801930645 75.8486848642,16.9992319356" opacity="0.8" /><polyline fill="none" stroke="#66cc99" stroke-width="0.0" points="75.8486848642,16.9992319356 75.8458049749,17.0186465719" opacity="0.8" /><polyline fill="none" stroke="#66cc99" stroke-width="0.0" points="75.8458049749,17.0186465719 75.84484192030001,17.03825" opacity="0.8" /><polyline fill="none" stroke="#66cc99" stroke-width="0.0" points="75.84484192030001,17.03825 75.8458049749,17.0578534281" opacity="0.8" /><polyline fill="none" stroke="#66cc99" stroke-width="0.0" points="75.8458049749,17.0578534281 75.8486848642,17.0772680644" opacity="0.8" /><polyline fill="none" stroke="#66cc99" stroke-width="0.0" points="75.8486848642,17.0772680644 75.8534538531,17.0963069355" opacity="0.8" /><polyline fill="none" stroke="#66cc99" stroke-width="0.0" points="75.8534538531,17.0963069355 75.8600660138,17.1147866865" opacity="0.8" /><polyline fill="none" stroke="#66cc99" stroke-width="0.0" points="75.8600660138,17.1147866865 75.86845766740001,17.1325293474" opacity="0.8" /><polyline fill="none" stroke="#66cc99" stroke-width="0.0" points="75.86845766740001,17.1325293474 75.8785479978,17.1493640466" opacity="0.8" /><polyline fill="none" stroke="#66cc99" stroke-width="0.0" points="75.8785479978,17.1493640466 75.8902398296,17.1651286568" opacity="0.8" /><polyline fill="none" stroke="#66cc99" stroke-width="0.0" points="75.8902398296,17.1651286568 75.903420564,17.1796713562" opacity="0.8" /><polyline fill="none" stroke="#66cc99" stroke-width="0.0" points="75.903420564,17.1796713562 75.9179632634,17.1928520907" opacity="0.8" /><polyline fill="none" stroke="#66cc99" stroke-width="0.0" points="75.9179632634,17.1928520907 75.9337278737,17.2045439225" opacity="0.8" /><polyline fill="none" stroke="#66cc99" stroke-width="0.0" points="75.9337278737,17.2045439225 75.9505625729,17.2146342529" opacity="0.8" /><polyline fill="none" stroke="#66cc99" stroke-width="0.0" points="75.9505625729,17.2146342529 75.9683052338,17.223025906500002" opacity="0.8" /><polyline fill="none" stroke="#66cc99" stroke-width="0.0" points="75.9683052338,17.223025906500002 75.9867849848,17.229638067099998" opacity="0.8" /><polyline fill="none" stroke="#66cc99" stroke-width="0.0" points="75.9867849848,17.229638067099998 76.0058238559,17.2344070561" opacity="0.8" /><polyline fill="none" stroke="#66cc99" stroke-width="0.0" points="76.0058238559,17.2344070561 76.02523849219534,17.237286945334443" opacity="0.8" /><polyline fill="none" stroke="#66cc99" stroke-width="0.0" points="76.02523849219534,17.237286945334443 76.0448419203,17.23825" opacity="0.8" /><polyline fill="none" stroke="#66cc99" stroke-width="0.0" points="76.0448419203,17.23825 76.04583263327001,17.238201329390854" opacity="0.8" /><polyline fill="none" stroke="#66cc99" stroke-width="0.0" points="76.07628274951378,17.235531032739534 76.0838599847,17.2344070561" opacity="0.8" /><polyline fill="none" stroke="#66cc99" stroke-width="0.0" points="76.0838599847,17.2344070561 76.09077982124359,17.232673727250923" opacity="0.8" /><polyline fill="none" stroke="#66cc99" stroke-width="0.0" points="76.13040414198312,17.21875714624598 76.1391212676,17.2146342529" opacity="0.8" /><polyline fill="none" stroke="#66cc99" stroke-width="0.0" points="76.1391212676,17.2146342529 76.15595596690001,17.2045439225" opacity="0.8" /><polyline fill="none" stroke="#66cc99" stroke-width="0.0" points="76.15595596690001,17.2045439225 76.17172057709999,17.1928520907" opacity="0.8" /><polyline fill="none" stroke="#66cc99" stroke-width="0.0" points="76.17172057709999,17.1928520907 76.17866891627024,17.18655448313074" opacity="0.8" /><polyline fill="none" stroke="#66cc99" stroke-width="0.0" points="76.21030505492637,17.154918285390995 76.21660209070001,17.1479705771" opacity="0.8" /><polyline fill="none" stroke="#66cc99" stroke-width="0.0" points="76.21660209070001,17.1479705771 76.2282939225,17.1322059669" opacity="0.8" /><polyline fill="none" stroke="#66cc99" stroke-width="0.0" points="76.2282939225,17.1322059669 76.2383842529,17.1153712676" opacity="0.8" /><polyline fill="none" stroke="#66cc99" stroke-width="0.0" points="76.2383842529,17.1153712676 76.24250817528512,17.106651966262614" opacity="0.8" /><polyline fill="none" stroke="#66cc99" stroke-width="0.0" points="76.2564237620672,17.067029682249192 76.25815705609999,17.060109984700002" opacity="0.8" /><polyline fill="none" stroke="#66cc99" stroke-width="0.0" points="76.25815705609999,17.060109984700002 76.25928099637196,17.052532994684036" opacity="0.8" /><polyline fill="none" stroke="#66cc99" stroke-width="0.0" points="76.26195128586511,17.022083519256828 76.262,17.021091920299998" opacity="0.8" /><polyline fill="none" stroke="#66cc99" stroke-width="0.0" points="76.262,17.021091920299998 76.26103694529999,17.0014884922" opacity="0.8" /><polyline fill="none" stroke="#66cc99" stroke-width="0.0" points="76.26103694529999,17.0014884922 76.25815705609999,16.9820738559" opacity="0.8" /><polyline fill="none" stroke="#66cc99" stroke-width="0.0" points="76.25815705609999,16.9820738559 76.2533880671,16.9630349848" opacity="0.8" /><polyline fill="none" stroke="#66cc99" stroke-width="0.0" points="76.2533880671,16.9630349848 76.24677590649999,16.944555233800003" opacity="0.8" /><polyline fill="none" stroke="#66cc99" stroke-width="0.0" points="76.24677590649999,16.944555233800003 76.2383842529,16.9268125729" opacity="0.8" /><polyline fill="none" stroke="#66cc99" stroke-width="0.0" points="76.2383842529,16.9268125729 76.2282939225,16.9099778737" opacity="0.8" /><polyline fill="none" stroke="#66cc99" stroke-width="0.0" points="76.2282939225,16.9099778737 76.21660209070001,16.8942132634" opacity="0.8" /><polyline fill="none" stroke="#66cc99" stroke-width="0.0" points="76.21660209070001,16.8942132634 76.2034213562,16.879670563999998" opacity="0.8" /><polyline fill="none" stroke="#66cc99" stroke-width="0.0" points="76.2034213562,16.879670563999998 76.1888786568,16.8664898296" opacity="0.8" /><polyline fill="none" stroke="#66cc99" stroke-width="0.0" points="76.1888786568,16.8664898296 76.1731140466,16.8547979978" opacity="0.8" /><polyline fill="none" stroke="#66cc99" stroke-width="0.0" points="76.1731140466,16.8547979978 76.1562793474,16.844707667399998" opacity="0.8" /><polyline fill="none" stroke="#66cc99" stroke-width="0.0" points="76.1562793474,16.844707667399998 76.1385366865,16.836316013799998" opacity="0.8" /><polyline fill="none" stroke="#66cc99" stroke-width="0.0" points="76.1385366865,16.836316013799998 76.1200569355,16.829703853100003" opacity="0.8" /><polyline fill="none" stroke="#66cc99" stroke-width="0.0" points="76.1200569355,16.829703853100003 76.10101806440001,16.8249348642" opacity="0.8" /><polyline fill="none" stroke="#66cc99" stroke-width="0.0" points="76.10101806440001,16.8249348642 76.08160342810001,16.8220549749" opacity="0.8" /><polyline fill="none" stroke="#66cc99" stroke-width="0.0" points="76.08160342810001,16.8220549749 76.062,16.8210919203" opacity="0.8" /><polyline fill="none" stroke="#66cc99" stroke-width="0.0" points="76.062,16.8210919203 76.0423965719,16.8220549749" opacity="0.8" /><polyline fill="none" stroke="#66cc99" stroke-width="0.0" points="76.0423965719,16.8220549749 76.0229819356,16.8249348642" opacity="0.8" /><polyline fill="none" stroke="#66cc99" stroke-width="0.0" points="76.0229819356,16.8249348642 76.0039430645,16.829703853100003" opacity="0.8" /><polyline fill="none" stroke="#66cc99" stroke-width="0.0" points="76.0039430645,16.829703853100003 75.9854633135,16.836316013799998" opacity="0.8" /><polyline fill="none" stroke="#66cc99" stroke-width="0.0" points="75.9854633135,16.836316013799998 75.96772065260001,16.844707667399998" opacity="0.8" /><polyline fill="none" stroke="#66cc99" stroke-width="0.0" points="75.96772065260001,16.844707667399998 75.9508859534,16.8547979978" opacity="0.8" /><polyline fill="none" stroke="#66cc99" stroke-width="0.0" points="75.9508859534,16.8547979978 75.9351213432,16.8664898296" opacity="0.8" /><polyline fill="none" stroke="#66cc99" stroke-width="0.0" points="75.9351213432,16.8664898296 75.9205786438,16.879670563999998" opacity="0.8" /><polyline fill="none" stroke="#66cc99" stroke-width="0.0" points="38.552,20.05925 38.5716034281,20.0582869453" opacity="0.8" /><polyline fill="none" stroke="#66cc99" stroke-width="0.0" points="38.5716034281,20.0582869453 38.591018064400004,20.055407056099998" opacity="0.8" /><polyline fill="none" stroke="#66cc99" stroke-width="0.0" points="38.591018064400004,20.055407056099998 38.610056935500005,20.0506380671" opacity="0.8" /><polyline fill="none" stroke="#66cc99" stroke-width="0.0" points="38.610056935500005,20.0506380671 38.6285366865,20.0440259065" opacity="0.8" /><polyline fill="none" stroke="#66cc99" stroke-width="0.0" points="38.6285366865,20.0440259065 38.646279347400004,20.0356342529" opacity="0.8" /><polyline fill="none" stroke="#66cc99" stroke-width="0.0" points="38.646279347400004,20.0356342529 38.6631140466,20.0255439225" opacity="0.8" /><polyline fill="none" stroke="#66cc99" stroke-width="0.0" points="38.6631140466,20.0255439225 38.6788786568,20.013852090700002" opacity="0.8" /><polyline fill="none" stroke="#66cc99" stroke-width="0.0" points="38.6788786568,20.013852090700002 38.693421356200005,20.000671356199998" opacity="0.8" /><polyline fill="none" stroke="#66cc99" stroke-width="0.0" points="38.693421356200005,20.000671356199998 38.7066020907,19.986128656800002" opacity="0.8" /><polyline fill="none" stroke="#66cc99" stroke-width="0.0" points="38.7066020907,19.986128656800002 38.7182939225,19.9703640466" opacity="0.8" /><polyline fill="none" stroke="#66cc99" stroke-width="0.0" points="38.7182939225,19.9703640466 38.7283842529,19.9535293474" opacity="0.8" /><polyline fill="none" stroke="#66cc99" stroke-width="0.0" points="38.7283842529,19.9535293474 38.7367759065,19.935786686500002" opacity="0.8" /><polyline fill="none" stroke="#66cc99" stroke-width="0.0" points="38.7367759065,19.935786686500002 38.74338806710001,19.9173069355" opacity="0.8" /><polyline fill="none" stroke="#66cc99" stroke-width="0.0" points="38.74338806710001,19.9173069355 38.748157056100005,19.8982680644" opacity="0.8" /><polyline fill="none" stroke="#66cc99" stroke-width="0.0" points="38.748157056100005,19.8982680644 38.7510369453,19.8788534281" opacity="0.8" /><polyline fill="none" stroke="#66cc99" stroke-width="0.0" points="38.7510369453,19.8788534281 38.752,19.85925" opacity="0.8" /><polyline fill="none" stroke="#66cc99" stroke-width="0.0" points="38.752,18.95925 38.7510369453,18.9396465719" opacity="0.8" /><polyline fill="none" stroke="#66cc99" stroke-width="0.0" points="38.7510369453,18.9396465719 38.748157056100005,18.9202319356" opacity="0.8" /><polyline fill="none" stroke="#66cc99" stroke-width="0.0" points="38.748157056100005,18.9202319356 38.74338806710001,18.9011930645" opacity="0.8" /><polyline fill="none" stroke="#66cc99" stroke-width="0.0" points="38.74338806710001,18.9011930645 38.7367759065,18.8827133135" opacity="0.8" /><polyline fill="none" stroke="#66cc99" stroke-width="0.0" points="38.7367759065,18.8827133135 38.7283842529,18.8649706526" opacity="0.8" /><polyline fill="none" stroke="#66cc99" stroke-width="0.0" points="38.7283842529,18.8649706526 38.7182939225,18.8481359534" opacity="0.8" /><polyline fill="none" stroke="#66cc99" stroke-width="0.0" points="38.7182939225,18.8481359534 38.7066020907,18.8323713432" opacity="0.8" /><polyline fill="none" stroke="#66cc99" stroke-width="0.0" points="38.7066020907,18.8323713432 38.693421356200005,18.817828643800002" opacity="0.8" /><polyline fill="none" stroke="#66cc99" stroke-width="0.0" points="38.693421356200005,18.817828643800002 38.6788786568,18.804647909299998" opacity="0.8" /><polyline fill="none" stroke="#66cc99" stroke-width="0.0" points="38.6788786568,18.804647909299998 38.6631140466,18.7929560775" opacity="0.8" /><polyline fill="none" stroke="#66cc99" stroke-width="0.0" points="38.6631140466,18.7929560775 38.646279347400004,18.7828657471" opacity="0.8" /><polyline fill="none" stroke="#66cc99" stroke-width="0.0" points="38.646279347400004,18.7828657471 38.6285366865,18.7744740935" opacity="0.8" /><polyline fill="none" stroke="#66cc99" stroke-width="0.0" points="38.6285366865,18.7744740935 38.610056935500005,18.7678619329" opacity="0.8" /><polyline fill="none" stroke="#66cc99" stroke-width="0.0" points="38.610056935500005,18.7678619329 38.591018064400004,18.763092943900002" opacity="0.8" /><polyline fill="none" stroke="#66cc99" stroke-width="0.0" points="38.591018064400004,18.763092943900002 38.5716034281,18.7602130547" opacity="0.8" /><polyline fill="none" stroke="#66cc99" stroke-width="0.0" points="38.5716034281,18.7602130547 38.552,18.75925" opacity="0.8" /><polyline fill="none" stroke="#66cc99" stroke-width="0.0" points="30.474,29.3289919203 30.4749630547,29.3485953483" opacity="0.8" /><polyline fill="none" stroke="#66cc99" stroke-width="0.0" points="30.4749630547,29.3485953483 30.477842943899997,29.368009984700002" opacity="0.8" /><polyline fill="none" stroke="#66cc99" stroke-width="0.0" points="30.477842943899997,29.368009984700002 30.482611932899996,29.3870488557" opacity="0.8" /><polyline fill="none" stroke="#66cc99" stroke-width="0.0" points="30.482611932899996,29.3870488557 30.489224093500003,29.405528606700003" opacity="0.8" /><polyline fill="none" stroke="#66cc99" stroke-width="0.0" points="30.489224093500003,29.405528606700003 30.497615747100003,29.4232712676" opacity="0.8" /><polyline fill="none" stroke="#66cc99" stroke-width="0.0" points="30.497615747100003,29.4232712676 30.5077060775,29.4401059669" opacity="0.8" /><polyline fill="none" stroke="#66cc99" stroke-width="0.0" points="30.5077060775,29.4401059669 30.5193979093,29.4558705771" opacity="0.8" /><polyline fill="none" stroke="#66cc99" stroke-width="0.0" points="30.5193979093,29.4558705771 30.532578643799997,29.4704132765" opacity="0.8" /><polyline fill="none" stroke="#66cc99" stroke-width="0.0" points="30.532578643799997,29.4704132765 30.547121343199997,29.4835940109" opacity="0.8" /><polyline fill="none" stroke="#66cc99" stroke-width="0.0" points="30.547121343199997,29.4835940109 30.562885953400002,29.495285842699996" opacity="0.8" /><polyline fill="none" stroke="#66cc99" stroke-width="0.0" points="30.562885953400002,29.495285842699996 30.5797206526,29.505376173100004" opacity="0.8" /><polyline fill="none" stroke="#66cc99" stroke-width="0.0" points="30.5797206526,29.505376173100004 30.5974633135,29.513767826800002" opacity="0.8" /><polyline fill="none" stroke="#66cc99" stroke-width="0.0" points="30.5974633135,29.513767826800002 30.615943064499998,29.520379987400002" opacity="0.8" /><polyline fill="none" stroke="#66cc99" stroke-width="0.0" points="30.615943064499998,29.520379987400002 30.6349819356,29.525148976300002" opacity="0.8" /><polyline fill="none" stroke="#66cc99" stroke-width="0.0" points="30.6349819356,29.525148976300002 30.6543965719,29.528028865599996" opacity="0.8" /><polyline fill="none" stroke="#66cc99" stroke-width="0.0" points="30.6543965719,29.528028865599996 30.674,29.5289919203" opacity="0.8" /><polyline fill="none" stroke="#66cc99" stroke-width="0.0" points="30.674,29.5289919203 30.693603428099998,29.528028865599996" opacity="0.8" /><polyline fill="none" stroke="#66cc99" stroke-width="0.0" points="30.693603428099998,29.528028865599996 30.713018064400003,29.525148976300002" opacity="0.8" /><polyline fill="none" stroke="#66cc99" stroke-width="0.0" points="30.713018064400003,29.525148976300002 30.732056935500005,29.520379987400002" opacity="0.8" /><polyline fill="none" stroke="#66cc99" stroke-width="0.0" points="30.732056935500005,29.520379987400002 30.7505366865,29.513767826800002" opacity="0.8" /><polyline fill="none" stroke="#66cc99" stroke-width="0.0" points="30.7505366865,29.513767826800002 30.768279347400004,29.505376173100004" opacity="0.8" /><polyline fill="none" stroke="#66cc99" stroke-width="0.0" points="30.768279347400004,29.505376173100004 30.7851140466,29.495285842699996" opacity="0.8" /><polyline fill="none" stroke="#66cc99" stroke-width="0.0" points="30.7851140466,29.495285842699996 30.800878656800002,29.4835940109" opacity="0.8" /><polyline fill="none" stroke="#66cc99" stroke-width="0.0" points="30.800878656800002,29.4835940109 30.815421355854564,29.47041327684544" opacity="0.8" /><polyline fill="none" stroke="#66cc99" stroke-width="0.0" points="31.592036723499998,30.0542713562 31.606579422899998,30.0674520907" opacity="0.8" /><polyline fill="none" stroke="#66cc99" stroke-width="0.0" points="31.606579422899998,30.0674520907 31.622344033100003,30.0791439225" opacity="0.8" /><polyline fill="none" stroke="#66cc99" stroke-width="0.0" points="31.622344033100003,30.0791439225 31.6391787324,30.089234252899995" opacity="0.8" /><polyline fill="none" stroke="#66cc99" stroke-width="0.0" points="31.6391787324,30.089234252899995 31.656921393299996,30.097625906499996" opacity="0.8" /><polyline fill="none" stroke="#66cc99" stroke-width="0.0" points="31.656921393299996,30.097625906499996 31.6754011443,30.104238067100002" opacity="0.8" /><polyline fill="none" stroke="#66cc99" stroke-width="0.0" points="31.6754011443,30.104238067100002 31.6944400153,30.109007056100005" opacity="0.8" /><polyline fill="none" stroke="#66cc99" stroke-width="0.0" points="31.6944400153,30.109007056100005 31.713854651699997,30.111886945299997" opacity="0.8" /><polyline fill="none" stroke="#66cc99" stroke-width="0.0" points="31.713854651699997,30.111886945299997 31.7334580797,30.11285" opacity="0.8" /><polyline fill="none" stroke="#66cc99" stroke-width="0.0" points="31.7334580797,30.11285 31.7530615078,30.111886945299997" opacity="0.8" /><polyline fill="none" stroke="#66cc99" stroke-width="0.0" points="31.7530615078,30.111886945299997 31.772476144100004,30.109007056100005" opacity="0.8" /><polyline fill="none" stroke="#66cc99" stroke-width="0.0" points="31.772476144100004,30.109007056100005 31.791515015199998,30.104238067100002" opacity="0.8" /><polyline fill="none" stroke="#66cc99" stroke-width="0.0" points="31.791515015199998,30.104238067100002 31.8099947662,30.097625906499996" opacity="0.8" /><polyline fill="none" stroke="#66cc99" stroke-width="0.0" points="31.8099947662,30.097625906499996 31.827737427100004,30.089234252899995" opacity="0.8" /><polyline fill="none" stroke="#66cc99" stroke-width="0.0" points="31.827737427100004,30.089234252899995 31.8445721263,30.0791439225" opacity="0.8" /><polyline fill="none" stroke="#66cc99" stroke-width="0.0" points="31.8445721263,30.0791439225 31.860336736599997,30.0674520907" opacity="0.8" /><polyline fill="none" stroke="#66cc99" stroke-width="0.0" points="31.860336736599997,30.0674520907 31.874879435999997,30.0542713562" opacity="0.8" /><polyline fill="none" stroke="#66cc99" stroke-width="0.0" points="29.714,26.009646103100003 29.714963054700004,26.029249531099996" opacity="0.8" /><polyline fill="none" stroke="#66cc99" stroke-width="0.0" points="29.714963054700004,26.029249531099996 29.717842943899996,26.048664167499997" opacity="0.8" /><polyline fill="none" stroke="#66cc99" stroke-width="0.0" points="29.717842943899996,26.048664167499997 29.722611932899998,26.067703038500003" opacity="0.8" /><polyline fill="none" stroke="#66cc99" stroke-width="0.0" points="29.722611932899998,26.067703038500003 29.729224093500004,26.086182789499997" opacity="0.8" /><polyline fill="none" stroke="#66cc99" stroke-width="0.0" points="29.729224093500004,26.086182789499997 29.7376157471,26.103925450400002" opacity="0.8" /><polyline fill="none" stroke="#66cc99" stroke-width="0.0" points="29.7376157471,26.103925450400002 29.747706077500002,26.1207601497" opacity="0.8" /><polyline fill="none" stroke="#66cc99" stroke-width="0.0" points="29.747706077500002,26.1207601497 29.7593979093,26.136524759900002" opacity="0.8" /><polyline fill="none" stroke="#66cc99" stroke-width="0.0" points="29.7593979093,26.136524759900002 29.7725786438,26.151067459299995" opacity="0.8" /><polyline fill="none" stroke="#66cc99" stroke-width="0.0" points="29.7725786438,26.151067459299995 29.7871213432,26.1642481937" opacity="0.8" /><polyline fill="none" stroke="#66cc99" stroke-width="0.0" points="29.7871213432,26.1642481937 29.8028859534,26.1759400255" opacity="0.8" /><polyline fill="none" stroke="#66cc99" stroke-width="0.0" points="29.8028859534,26.1759400255 29.819720652599997,26.186030355899998" opacity="0.8" /><polyline fill="none" stroke="#66cc99" stroke-width="0.0" points="29.819720652599997,26.186030355899998 29.837463313500002,26.1944220096" opacity="0.8" /><polyline fill="none" stroke="#66cc99" stroke-width="0.0" points="29.837463313500002,26.1944220096 29.855943064499996,26.201034170199996" opacity="0.8" /><polyline fill="none" stroke="#66cc99" stroke-width="0.0" points="29.855943064499996,26.201034170199996 29.874981935599997,26.205803159100004" opacity="0.8" /><polyline fill="none" stroke="#66cc99" stroke-width="0.0" points="29.874981935599997,26.205803159100004 29.894396571900003,26.2086830484" opacity="0.8" /><polyline fill="none" stroke="#66cc99" stroke-width="0.0" points="29.894396571900003,26.2086830484 29.914,26.209646103100003" opacity="0.8" /><polyline fill="none" stroke="#66cc99" stroke-width="0.0" points="29.914,26.209646103100003 29.933603428099996,26.2086830484" opacity="0.8" /><polyline fill="none" stroke="#66cc99" stroke-width="0.0" points="29.933603428099996,26.2086830484 29.953018064400002,26.205803159100004" opacity="0.8" /><polyline fill="none" stroke="#66cc99" stroke-width="0.0" points="29.953018064400002,26.205803159100004 29.972056935500003,26.201034170199996" opacity="0.8" /><polyline fill="none" stroke="#66cc99" stroke-width="0.0" points="29.972056935500003,26.201034170199996 29.990536686499997,26.1944220096" opacity="0.8" /><polyline fill="none" stroke="#66cc99" stroke-width="0.0" points="29.990536686499997,26.1944220096 30.008279347400002,26.186030355899998" opacity="0.8" /><polyline fill="none" stroke="#66cc99" stroke-width="0.0" points="30.008279347400002,26.186030355899998 30.0251140466,26.1759400255" opacity="0.8" /><polyline fill="none" stroke="#66cc99" stroke-width="0.0" points="30.0251140466,26.1759400255 30.0408786568,26.1642481937" opacity="0.8" /><polyline fill="none" stroke="#66cc99" stroke-width="0.0" points="30.0408786568,26.1642481937 30.055421356200004,26.151067459299995" opacity="0.8" /><polyline fill="none" stroke="#66cc99" stroke-width="0.0" points="35.056,19.4196348969 35.055036945299996,19.4000314689" opacity="0.8" /><polyline fill="none" stroke="#66cc99" stroke-width="0.0" points="35.055036945299996,19.4000314689 35.0521570561,19.3806168325" opacity="0.8" /><polyline fill="none" stroke="#66cc99" stroke-width="0.0" points="35.0521570561,19.3806168325 35.0473880671,19.3615779615" opacity="0.8" /><polyline fill="none" stroke="#66cc99" stroke-width="0.0" points="35.0473880671,19.3615779615 35.040775906499995,19.3430982105" opacity="0.8" /><polyline fill="none" stroke="#66cc99" stroke-width="0.0" points="35.040775906499995,19.3430982105 35.032384252899995,19.3253555496" opacity="0.8" /><polyline fill="none" stroke="#66cc99" stroke-width="0.0" points="35.032384252899995,19.3253555496 35.0222939225,19.3085208503" opacity="0.8" /><polyline fill="none" stroke="#66cc99" stroke-width="0.0" points="35.0222939225,19.3085208503 35.0106020907,19.2927562401" opacity="0.8" /><polyline fill="none" stroke="#66cc99" stroke-width="0.0" points="35.0106020907,19.2927562401 34.9974213562,19.2782135407" opacity="0.8" /><polyline fill="none" stroke="#66cc99" stroke-width="0.0" points="34.9974213562,19.2782135407 34.982878656800004,19.2650328063" opacity="0.8" /><polyline fill="none" stroke="#66cc99" stroke-width="0.0" points="34.982878656800004,19.2650328063 34.9671140466,19.253340974500002" opacity="0.8" /><polyline fill="none" stroke="#66cc99" stroke-width="0.0" points="34.9671140466,19.253340974500002 34.9502793474,19.243250644099998" opacity="0.8" /><polyline fill="none" stroke="#66cc99" stroke-width="0.0" points="34.9502793474,19.243250644099998 34.9325366865,19.234858990400003" opacity="0.8" /><polyline fill="none" stroke="#66cc99" stroke-width="0.0" points="34.9325366865,19.234858990400003 34.91405693550001,19.2282468298" opacity="0.8" /><polyline fill="none" stroke="#66cc99" stroke-width="0.0" points="34.91405693550001,19.2282468298 34.895018064400006,19.2234778409" opacity="0.8" /><polyline fill="none" stroke="#66cc99" stroke-width="0.0" points="34.895018064400006,19.2234778409 34.8756034281,19.2205979516" opacity="0.8" /><polyline fill="none" stroke="#66cc99" stroke-width="0.0" points="34.8756034281,19.2205979516 34.856,19.219634896899997" opacity="0.8" /><polyline fill="none" stroke="#66cc99" stroke-width="0.0" points="34.856,19.219634896899997 34.8363965719,19.2205979516" opacity="0.8" /><polyline fill="none" stroke="#66cc99" stroke-width="0.0" points="34.8363965719,19.2205979516 34.8169819356,19.2234778409" opacity="0.8" /><polyline fill="none" stroke="#66cc99" stroke-width="0.0" points="34.8169819356,19.2234778409 34.7979430645,19.2282468298" opacity="0.8" /><polyline fill="none" stroke="#66cc99" stroke-width="0.0" points="34.7979430645,19.2282468298 34.7794633135,19.234858990400003" opacity="0.8" /><polyline fill="none" stroke="#66cc99" stroke-width="0.0" points="34.7794633135,19.234858990400003 34.7617206526,19.243250644099998" opacity="0.8" /><polyline fill="none" stroke="#66cc99" stroke-width="0.0" points="34.7617206526,19.243250644099998 34.7448859534,19.253340974500002" opacity="0.8" /><polyline fill="none" stroke="#66cc99" stroke-width="0.0" points="34.7448859534,19.253340974500002 34.7291213432,19.2650328063" opacity="0.8" /><polyline fill="none" stroke="#66cc99" stroke-width="0.0" points="34.7291213432,19.2650328063 34.714578643799996,19.2782135407" opacity="0.8" /><polyline fill="none" stroke="#66cc99" stroke-width="0.0" points="31.975026024599998,29.8715752324 31.97737939507299,29.865893693448058" opacity="0.8" /><polyline fill="none" stroke="#66cc99" stroke-width="0.0" points="29.004380592200004,25.363630592200003 29.001283053801433,25.366805104158104" opacity="0.8" /><polyline fill="none" stroke="#66cc99" stroke-width="0.0" points="29.004380592200004,25.363630592200003 29.214,25.154011184404514" opacity="0.8" /><polyline fill="none" stroke="#66cc99" stroke-width="0.0" points="31.281861184448957,23.08615 31.623282540694802,22.74472864376269" opacity="0.8" /><polyline fill="none" stroke="#66cc99" stroke-width="0.0" points="31.623282540694802,22.74472864376269 31.679120832243353,22.68889035221414" opacity="0.8" /><polyline fill="none" stroke="#66cc99" stroke-width="0.0" points="28.994183663,25.374253404799997 28.993206721217135,25.375305064427852" opacity="0.8" /><polyline fill="none" stroke="#66cc99" stroke-width="0.0" points="28.994183663,25.374253404799997 28.999722311223717,25.368435980677603" opacity="0.8" /><polyline fill="none" stroke="#66cc99" stroke-width="0.0" points="28.974366936499997,25.396028097000002 28.970393158249735,25.400634810374545" opacity="0.8" /><polyline fill="none" stroke="#66cc99" stroke-width="0.0" points="28.974366936499997,25.396028097000002 28.97989260237965,25.389931464238487" opacity="0.8" /><polyline fill="none" stroke="#66cc99" stroke-width="0.0" points="28.9555037897,25.418633161200002 28.954504836059616,25.419913202009976" opacity="0.8" /><polyline fill="none" stroke="#66cc99" stroke-width="0.0" points="28.9555037897,25.418633161200002 28.96059110166218,25.412434253654776" opacity="0.8" /><polyline fill="none" stroke="#66cc99" stroke-width="0.0" points="28.934849584299997,25.446077719899996 28.92937994695395,25.453844008306778" opacity="0.8" /><polyline fill="none" stroke="#66cc99" stroke-width="0.0" points="28.934849584299997,25.446077719899996 28.942541364571362,25.435706554878653" opacity="0.8" /><polyline fill="none" stroke="#66cc99" stroke-width="0.0" points="28.913041152900004,25.478716344099997 28.900428239900002,25.499759718099998" opacity="0.8" /><polyline fill="none" stroke="#66cc99" stroke-width="0.0" points="28.900428239900002,25.499759718099998 28.895589709,25.508300919600003" opacity="0.8" /><polyline fill="none" stroke="#66cc99" stroke-width="0.0" points="28.895589709,25.508300919600003 28.886337572400002,25.525610449699997" opacity="0.8" /><polyline fill="none" stroke="#66cc99" stroke-width="0.0" points="28.886337572400002,25.525610449699997 28.883655432457036,25.530938946679086" opacity="0.8" /><polyline fill="none" stroke="#66cc99" stroke-width="0.0" points="28.913041152900004,25.478716344099997 28.913569698455223,25.477881679464392" opacity="0.8" /><polyline fill="none" stroke="#66cc99" stroke-width="0.0" points="28.8714343996,25.556557104500005 28.8674563517,25.565531436700002" opacity="0.8" /><polyline fill="none" stroke="#66cc99" stroke-width="0.0" points="28.8674563517,25.565531436700002 28.8599453973,25.583664484800003" opacity="0.8" /><polyline fill="none" stroke="#66cc99" stroke-width="0.0" points="28.8599453973,25.583664484800003 28.85831337588335,25.587895341273168" opacity="0.8" /><polyline fill="none" stroke="#66cc99" stroke-width="0.0" points="28.8714343996,25.556557104500005 28.877765046448932,25.543172076414383" opacity="0.8" /><polyline fill="none" stroke="#66cc99" stroke-width="0.0" points="28.84814729,25.615922889300002 28.847829661499098,25.616884364505694" opacity="0.8" /><polyline fill="none" stroke="#66cc99" stroke-width="0.0" points="28.84814729,25.615922889300002 28.849720359154826,25.611526455546066" opacity="0.8" /><polyline fill="none" stroke="#66cc99" stroke-width="0.0" points="28.8307911786,25.677285347499996 28.829451213499112,25.683252483197762" opacity="0.8" /><polyline fill="none" stroke="#66cc99" stroke-width="0.0" points="28.8307911786,25.677285347499996 28.83596280973393,25.65663903880625" opacity="0.8" /><polyline fill="none" stroke="#66cc99" stroke-width="0.0" points="28.824811321800002,25.706113260200002 28.823133075900003,25.7157852297" opacity="0.8" /><polyline fill="none" stroke="#66cc99" stroke-width="0.0" points="28.823133075900003,25.7157852297 28.819533214299998,25.7400535251" opacity="0.8" /><polyline fill="none" stroke="#66cc99" stroke-width="0.0" points="28.819533214299998,25.7400535251 28.818338759116635,25.74973791228757" opacity="0.8" /><polyline fill="none" stroke="#66cc99" stroke-width="0.0" points="28.824811321800002,25.706113260200002 28.827073175937244,25.694742151700734" opacity="0.8" /><polyline fill="none" stroke="#66cc99" stroke-width="0.0" points="28.818331571,25.749796192 28.818303073303277,25.750085533977366" opacity="0.8" /><polyline fill="none" stroke="#66cc99" stroke-width="0.0" points="28.815685635799998,25.7791186452 28.814481817500003,25.803622930299998" opacity="0.8" /><polyline fill="none" stroke="#66cc99" stroke-width="0.0" points="28.814481817500003,25.803622930299998 28.814301145,25.808528219400003" opacity="0.8" /><polyline fill="none" stroke="#66cc99" stroke-width="0.0" points="28.814301145,25.808528219400003 28.81421872507996,25.811885635557196" opacity="0.8" /><polyline fill="none" stroke="#66cc99" stroke-width="0.0" points="28.815685635799998,25.7791186452 28.816063579538824,25.77399498760353" opacity="0.8" /><polyline fill="none" stroke="#66cc99" stroke-width="0.0" points="31.983615728,29.8502083291 31.996211894,29.815004403399996" opacity="0.8" /><polyline fill="none" stroke="#66cc99" stroke-width="0.0" points="31.996211894,29.815004403399996 31.999291148100003,29.805683368199997" opacity="0.8" /><polyline fill="none" stroke="#66cc99" stroke-width="0.0" points="31.999291148100003,29.805683368199997 32.0049885857,29.7869014335" opacity="0.8" /><polyline fill="none" stroke="#66cc99" stroke-width="0.0" points="32.0049885857,29.7869014335 32.005905749926285,29.78358722780578" opacity="0.8" /><polyline fill="none" stroke="#66cc99" stroke-width="0.0" points="31.983615728,29.8502083291 31.98113530793201,29.856638576213612" opacity="0.8" /><polyline fill="none" stroke="#66cc99" stroke-width="0.0" points="32.01245407269775,29.780691678974197 32.00752468842181,29.77773713578637" opacity="0.8" /><polyline fill="none" stroke="#66cc99" stroke-width="0.0" points="32.0405394173,29.7964025066 32.05654757857441,29.803973761273504" opacity="0.8" /><polyline fill="none" stroke="#66cc99" stroke-width="0.0" points="32.0405394173,29.7964025066 32.03110070483465,29.791357437047644" opacity="0.8" /><polyline fill="none" stroke="#66cc99" stroke-width="0.0" points="33.418323332099995,27.999614495399996 33.42336364635032,27.998085542281" opacity="0.8" /><polyline fill="none" stroke="#66cc99" stroke-width="0.0" points="33.418323332099995,27.999614495399996 33.41580716988705,28.000244756958516" opacity="0.8" /><polyline fill="none" stroke="#66cc99" stroke-width="0.0" points="33.4914605827,27.9714025066 33.500899295165354,27.966357437047645" opacity="0.8" /><polyline fill="none" stroke="#66cc99" stroke-width="0.0" points="33.4914605827,27.9714025066 33.47545242142559,27.978973761273505" opacity="0.8" /><polyline fill="none" stroke="#66cc99" stroke-width="0.0" points="33.5338982523,27.946808406800002 33.615004252300004,27.8926154068" opacity="0.8" /><polyline fill="none" stroke="#66cc99" stroke-width="0.0" points="33.615004252300004,27.8926154068 33.623030182499996,27.886962935599996" opacity="0.8" /><polyline fill="none" stroke="#66cc99" stroke-width="0.0" points="33.623030182499996,27.886962935599996 33.638795017700005,27.875270983300002" opacity="0.8" /><polyline fill="none" stroke="#66cc99" stroke-width="0.0" points="33.638795017700005,27.875270983300002 33.64,27.8742820824" opacity="0.8" /><polyline fill="none" stroke="#66cc99" stroke-width="0.0" points="33.5338982523,27.946808406800002 33.53167767236859,27.94821456587068" opacity="0.8" /><polyline fill="none" stroke="#66cc99" stroke-width="0.0" points="33.638795017700005,28.1912290167 33.623030182499996,28.1795370644" opacity="0.8" /><polyline fill="none" stroke="#66cc99" stroke-width="0.0" points="33.623030182499996,28.1795370644 33.615004252300004,28.173884593199997" opacity="0.8" /><polyline fill="none" stroke="#66cc99" stroke-width="0.0" points="33.615004252300004,28.173884593199997 33.5338982523,28.1196915932" opacity="0.8" /><polyline fill="none" stroke="#66cc99" stroke-width="0.0" points="33.5338982523,28.1196915932 33.53167767236859,28.11828543412932" opacity="0.8" /><polyline fill="none" stroke="#66cc99" stroke-width="0.0" points="33.638795017700005,28.1912290167 33.64,28.19221791760735" opacity="0.8" /><polyline fill="none" stroke="#66cc99" stroke-width="0.0" points="33.4914605827,28.0950974934 33.47545242142559,28.087526238726497" opacity="0.8" /><polyline fill="none" stroke="#66cc99" stroke-width="0.0" points="33.4914605827,28.0950974934 33.500899295165354,28.100142562952353" opacity="0.8" /><polyline fill="none" stroke="#66cc99" stroke-width="0.0" points="33.418323332099995,28.066885504600002 33.41580716988705,28.066255243041486" opacity="0.8" /><polyline fill="none" stroke="#66cc99" stroke-width="0.0" points="33.418323332099995,28.066885504600002 33.4233641202808,28.068414601483344" opacity="0.8" /><polyline fill="none" stroke="#66cc99" stroke-width="0.0" points="33.638795017700005,26.3662290167 33.623030182499996,26.354537064400002" opacity="0.8" /><polyline fill="none" stroke="#66cc99" stroke-width="0.0" points="33.623030182499996,26.354537064400002 33.615004252300004,26.348884593199998" opacity="0.8" /><polyline fill="none" stroke="#66cc99" stroke-width="0.0" points="33.615004252300004,26.348884593199998 33.5534,26.30772217307949" opacity="0.8" /><polyline fill="none" stroke="#66cc99" stroke-width="0.0" points="33.638795017700005,26.3662290167 33.64,26.367217917607352" opacity="0.8" /><polyline fill="none" stroke="#66cc99" stroke-width="0.0" points="33.638795017700005,24.1272290167 33.623030182499996,24.1155370644" opacity="0.8" /><polyline fill="none" stroke="#66cc99" stroke-width="0.0" points="33.623030182499996,24.1155370644 33.615004252300004,24.109884593199997" opacity="0.8" /><polyline fill="none" stroke="#66cc99" stroke-width="0.0" points="33.615004252300004,24.109884593199997 33.5338982523,24.0556915932" opacity="0.8" /><polyline fill="none" stroke="#66cc99" stroke-width="0.0" points="33.5338982523,24.0556915932 33.53167767236859,24.05428543412932" opacity="0.8" /><polyline fill="none" stroke="#66cc99" stroke-width="0.0" points="33.638795017700005,24.1272290167 33.64,24.12821791760735" opacity="0.8" /><polyline fill="none" stroke="#66cc99" stroke-width="0.0" points="33.4914605827,24.0310974934 33.47545242142559,24.023526238726497" opacity="0.8" /><polyline fill="none" stroke="#66cc99" stroke-width="0.0" points="33.4914605827,24.0310974934 33.500899295165354,24.036142562952353" opacity="0.8" /><polyline fill="none" stroke="#66cc99" stroke-width="0.0" points="33.418323332099995,24.002885504600002 33.41580716988705,24.002255243041485" opacity="0.8" /><polyline fill="none" stroke="#66cc99" stroke-width="0.0" points="33.418323332099995,24.002885504600002 33.42336364635032,24.004414457718998" opacity="0.8" /><polyline fill="none" stroke="#66cc99" stroke-width="0.0" points="33.245416744900005,23.9704539455 33.2318774327968,23.969788806744607" opacity="0.8" /><polyline fill="none" stroke="#66cc99" stroke-width="0.0" points="33.245416744900005,23.9704539455 33.25631914593206,23.971527730294564" opacity="0.8" /><polyline fill="none" stroke="#66cc99" stroke-width="0.0" points="33.245416744900005,23.9680460545 33.25631914593206,23.966972269705437" opacity="0.8" /><polyline fill="none" stroke="#66cc99" stroke-width="0.0" points="33.245416744900005,23.9680460545 33.2318774327968,23.968711193255395" opacity="0.8" /><polyline fill="none" stroke="#66cc99" stroke-width="0.0" points="33.418323332099995,23.935614495399996 33.42336364635032,23.934085542281" opacity="0.8" /><polyline fill="none" stroke="#66cc99" stroke-width="0.0" points="33.418323332099995,23.935614495399996 33.41580716988705,23.936244756958516" opacity="0.8" /><polyline fill="none" stroke="#66cc99" stroke-width="0.0" points="33.4914605827,23.9074025066 33.500899295165354,23.902357437047645" opacity="0.8" /><polyline fill="none" stroke="#66cc99" stroke-width="0.0" points="33.4914605827,23.9074025066 33.47545242142559,23.914973761273504" opacity="0.8" /><polyline fill="none" stroke="#66cc99" stroke-width="0.0" points="33.5338982523,23.882808406800002 33.585020200557544,23.84865" opacity="0.8" /><polyline fill="none" stroke="#66cc99" stroke-width="0.0" points="33.5338982523,23.882808406800002 33.53167767236859,23.88421456587068" opacity="0.8" /><polyline fill="none" stroke="#66cc99" stroke-width="0.0" points="32.2865832551,23.9704539455 32.275680854067936,23.971527730294564" opacity="0.8" /><polyline fill="none" stroke="#66cc99" stroke-width="0.0" points="32.2865832551,23.9704539455 32.3001225672032,23.969788806744607" opacity="0.8" /><polyline fill="none" stroke="#66cc99" stroke-width="0.0" points="32.243895467166645,23.96259334843335 32.22746448607897,23.979024329463535" opacity="0.8" /><polyline fill="none" stroke="#66cc99" stroke-width="0.0" points="32.2865832551,23.9680460545 32.3001225672032,23.968711193255395" opacity="0.8" /><polyline fill="none" stroke="#66cc99" stroke-width="0.0" points="32.2865832551,23.9680460545 32.275680854067936,23.966972269705437" opacity="0.8" /><polyline fill="none" stroke="#66cc99" stroke-width="0.0" points="33.220815351000006,24.370207825599998 33.27540770399309,24.381066836941063" opacity="0.8" /><polyline fill="none" stroke="#66cc99" stroke-width="0.0" points="33.220815351000006,24.370207825599998 33.216689339600016,24.36959579420474" opacity="0.8" /><polyline fill="none" stroke="#66cc99" stroke-width="0.0" points="33.3115778003,24.388505005000003 33.31157780041565,24.388505004969314" opacity="0.8" /><polyline fill="none" stroke="#66cc99" stroke-width="0.0" points="33.31157780041565,24.388505004969314 33.315753282399996,24.391007678999998" opacity="0.8" /><polyline fill="none" stroke="#66cc99" stroke-width="0.0" points="33.315753282399996,24.391007678999998 33.33964700027357,24.40697286344815" opacity="0.8" /><polyline fill="none" stroke="#66cc99" stroke-width="0.0" points="33.3115778003,24.388505005000003 33.308126370843134,24.38764047270899" opacity="0.8" /><polyline fill="none" stroke="#66cc99" stroke-width="0.0" points="33.444242321000004,24.519496717600003 33.44674499503068,24.523672199584343" opacity="0.8" /><polyline fill="none" stroke="#66cc99" stroke-width="0.0" points="33.44674499503068,24.523672199584343 33.446744994999996,24.5236721997" opacity="0.8" /><polyline fill="none" stroke="#66cc99" stroke-width="0.0" points="33.446744994999996,24.5236721997 33.44760950551189,24.527123542209193" opacity="0.8" /><polyline fill="none" stroke="#66cc99" stroke-width="0.0" points="33.444242321000004,24.519496717600003 33.42827713655185,24.49560299972643" opacity="0.8" /><polyline fill="none" stroke="#66cc99" stroke-width="0.0" points="33.465042174400004,24.614434648999996 33.46565420579526,24.618560660399982" opacity="0.8" /><polyline fill="none" stroke="#66cc99" stroke-width="0.0" points="33.465042174400004,24.614434648999996 33.454183163058936,24.55984229600691" opacity="0.8" /><polyline fill="none" stroke="#66cc99" stroke-width="0.0" points="32.311184649,27.632292174400003 32.234274778300005,27.616993966600003" opacity="0.8" /><polyline fill="none" stroke="#66cc99" stroke-width="0.0" points="32.234274778300005,27.616993966600003 32.226674614680356,27.615866599616563" opacity="0.8" /><polyline fill="none" stroke="#66cc99" stroke-width="0.0" points="32.311184649,27.632292174400003 32.315310635268965,27.63290420206745" opacity="0.8" /><polyline fill="none" stroke="#66cc99" stroke-width="0.0" points="32.1952567667,27.613151079599998 32.1756533688,27.614114154299997" opacity="0.8" /><polyline fill="none" stroke="#66cc99" stroke-width="0.0" points="32.1756533688,27.614114154299997 32.156238764,27.6169940577" opacity="0.8" /><polyline fill="none" stroke="#66cc99" stroke-width="0.0" points="32.156238764,27.6169940577 32.137199925,27.621763054799995" opacity="0.8" /><polyline fill="none" stroke="#66cc99" stroke-width="0.0" points="32.137199925,27.621763054799995 32.11925722974948,27.62818306715905" opacity="0.8" /><polyline fill="none" stroke="#66cc99" stroke-width="0.0" points="32.1952567667,27.613151079599998 32.20479789836197,27.613619793518826" opacity="0.8" /><polyline fill="none" stroke="#66cc99" stroke-width="0.0" points="32.100977575499996,27.636766868000002 32.088218433734596,27.644414409646444" opacity="0.8" /><polyline fill="none" stroke="#66cc99" stroke-width="0.0" points="32.100977575499996,27.636766868000002 32.1181313645525,27.628653719334938" opacity="0.8" /><polyline fill="none" stroke="#66cc99" stroke-width="0.0" points="31.6813979093,28.0455294229 31.6697060775,28.0612940331" opacity="0.8" /><polyline fill="none" stroke="#66cc99" stroke-width="0.0" points="31.6697060775,28.0612940331 31.659615747100002,28.0781287324" opacity="0.8" /><polyline fill="none" stroke="#66cc99" stroke-width="0.0" points="31.659615747100002,28.0781287324 31.65549342307814,28.086844654282167" opacity="0.8" /><polyline fill="none" stroke="#66cc99" stroke-width="0.0" points="31.6813979093,28.0455294229 31.68769596247252,28.03858059208233" opacity="0.8" /><polyline fill="none" stroke="#66cc99" stroke-width="0.0" points="31.639842943899996,28.133390015299998 31.638718878525584,28.1409678486882" opacity="0.8" /><polyline fill="none" stroke="#66cc99" stroke-width="0.0" points="31.639842943899996,28.133390015299998 31.641576606053547,28.126468848130383" opacity="0.8" /><polyline fill="none" stroke="#66cc99" stroke-width="0.0" points="31.636,28.172408079700002 31.636048672232075,28.171417333694436" opacity="0.8" /><polyline fill="none" stroke="#66cc99" stroke-width="0.0" points="30.828602090700002,29.4558705771 30.8402939225,29.4401059669" opacity="0.8" /><polyline fill="none" stroke="#66cc99" stroke-width="0.0" points="30.8402939225,29.4401059669 30.850384252899996,29.4232712676" opacity="0.8" /><polyline fill="none" stroke="#66cc99" stroke-width="0.0" points="30.850384252899996,29.4232712676 30.854506576921857,29.414555345717833" opacity="0.8" /><polyline fill="none" stroke="#66cc99" stroke-width="0.0" points="30.828602090700002,29.4558705771 30.82230403752748,29.46281940791767" opacity="0.8" /><polyline fill="none" stroke="#66cc99" stroke-width="0.0" points="30.870157056100002,29.368009984700002 30.871281121474414,29.3604321513118" opacity="0.8" /><polyline fill="none" stroke="#66cc99" stroke-width="0.0" points="30.870157056100002,29.368009984700002 30.868423393946454,29.374931151869617" opacity="0.8" /><polyline fill="none" stroke="#66cc99" stroke-width="0.0" points="30.874,29.3289919203 30.873951327767923,29.329982666305565" opacity="0.8" /><polyline fill="none" stroke="#66cc99" stroke-width="0.0" points="32.385,25.572110851000005 32.3840369433,25.5525074022" opacity="0.8" /><polyline fill="none" stroke="#66cc99" stroke-width="0.0" points="32.3840369433,25.5525074022 32.383488377046056,25.548809272959666" opacity="0.8" /><polyline fill="none" stroke="#66cc99" stroke-width="0.0" points="32.376388049,25.514053855700002 32.3697758746,25.4955740875" opacity="0.8" /><polyline fill="none" stroke="#66cc99" stroke-width="0.0" points="32.3697758746,25.4955740875 32.36844759494131,25.492765679555514" opacity="0.8" /><polyline fill="none" stroke="#66cc99" stroke-width="0.0" points="32.376388049,25.514053855700002 32.37753423366203,25.51862967636124" opacity="0.8" /><polyline fill="none" stroke="#66cc99" stroke-width="0.0" points="32.351293853,25.460996700400003 32.342030495076585,25.44850652586633" opacity="0.8" /><polyline fill="none" stroke="#66cc99" stroke-width="0.0" points="32.351293853,25.460996700400003 32.35466447704427,25.466620239631705" opacity="0.8" /><polyline fill="none" stroke="#66cc99" stroke-width="0.0" points="32.2615364554,25.387334848800002 32.243056676200005,25.3807227052" opacity="0.8" /><polyline fill="none" stroke="#66cc99" stroke-width="0.0" points="32.243056676200005,25.3807227052 32.229893253700006,25.3774254592" opacity="0.8" /><polyline fill="none" stroke="#66cc99" stroke-width="0.0" points="32.229893253700006,25.3774254592 32.2299069488,25.377370784999997" opacity="0.8" /><polyline fill="none" stroke="#66cc99" stroke-width="0.0" points="32.2615364554,25.387334848800002 32.265865531389224,25.389382342910057" opacity="0.8" /><polyline fill="none" stroke="#66cc99" stroke-width="0.0" points="32.220422199699996,25.374994994999998 32.22042219958435,25.374994995030686" opacity="0.8" /><polyline fill="none" stroke="#66cc99" stroke-width="0.0" points="32.22042219958435,25.374994995030686 32.2162467176,25.372492321000003" opacity="0.8" /><polyline fill="none" stroke="#66cc99" stroke-width="0.0" points="32.2162467176,25.372492321000003 32.19235299972643,25.35652713655185" opacity="0.8" /><polyline fill="none" stroke="#66cc99" stroke-width="0.0" points="32.220422199699996,25.374994994999998 32.227248729621046,25.376704940234198" opacity="0.8" /><polyline fill="none" stroke="#66cc99" stroke-width="0.0" points="32.087757679,25.244003282399998 32.08525500496931,25.23982780041565" opacity="0.8" /><polyline fill="none" stroke="#66cc99" stroke-width="0.0" points="32.08525500496931,25.23982780041565 32.085255005,25.239827800300002" opacity="0.8" /><polyline fill="none" stroke="#66cc99" stroke-width="0.0" points="32.085255005,25.239827800300002 32.08439047270899,25.236376370843136" opacity="0.8" /><polyline fill="none" stroke="#66cc99" stroke-width="0.0" points="32.087757679,25.244003282399998 32.10372286344815,25.26789700027357" opacity="0.8" /><polyline fill="none" stroke="#66cc99" stroke-width="0.0" points="32.0724,25.176425217986353 32.07781683694106,25.20365770399309" opacity="0.8" /><polyline fill="none" stroke="#66cc99" stroke-width="0.0" points="32.0411044548,22.881878459299998 32.049327411700006,22.865416680600003" opacity="0.8" /><polyline fill="none" stroke="#66cc99" stroke-width="0.0" points="32.049327411700006,22.865416680600003 32.051006069519545,22.861104368855425" opacity="0.8" /><polyline fill="none" stroke="#66cc99" stroke-width="0.0" points="32.0411044548,22.881878459299998 32.0381132796764,22.88669964906936" opacity="0.8" /><polyline fill="none" stroke="#66cc99" stroke-width="0.0" points="32.0644970968,22.812500035899998 32.066228142899995,22.794353807400004" opacity="0.8" /><polyline fill="none" stroke="#66cc99" stroke-width="0.0" points="32.066228142899995,22.794353807400004 32.0669578256,22.789434648999997" opacity="0.8" /><polyline fill="none" stroke="#66cc99" stroke-width="0.0" points="32.0669578256,22.789434648999997 32.07781683694106,22.73484229600691" opacity="0.8" /><polyline fill="none" stroke="#66cc99" stroke-width="0.0" points="32.0644970968,22.812500035899998 32.063014746606136,22.820328196780668" opacity="0.8" /><polyline fill="none" stroke="#66cc99" stroke-width="0.0" points="32.085255005,22.6986721997 32.08525500496931,22.69867219958435" opacity="0.8" /><polyline fill="none" stroke="#66cc99" stroke-width="0.0" points="32.08525500496931,22.69867219958435 32.087757679,22.694496717600003" opacity="0.8" /><polyline fill="none" stroke="#66cc99" stroke-width="0.0" points="32.087757679,22.694496717600003 32.093334746860506,22.68615" opacity="0.8" /><polyline fill="none" stroke="#66cc99" stroke-width="0.0" points="32.085255005,22.6986721997 32.08439047270899,22.702123629156866" opacity="0.8" /><polyline fill="none" stroke="#66cc99" stroke-width="0.0" points="32.399285862300005,22.5260836194 32.40227064551761,22.52454081617651" opacity="0.8" /><polyline fill="none" stroke="#66cc99" stroke-width="0.0" points="32.399285862300005,22.5260836194 32.393883477159605,22.528253694113122" opacity="0.8" /><polyline fill="none" stroke="#66cc99" stroke-width="0.0" points="32.4470985396,22.4952903023 32.45918316190043,22.48374939710512" opacity="0.8" /><polyline fill="none" stroke="#66cc99" stroke-width="0.0" points="32.4470985396,22.4952903023 32.44173012979401,22.499519743512288" opacity="0.8" /><polyline fill="none" stroke="#66cc99" stroke-width="0.0" points="35.0106020907,19.5465135538 35.0222939225,19.5307489435" opacity="0.8" /><polyline fill="none" stroke="#66cc99" stroke-width="0.0" points="35.0222939225,19.5307489435 35.032384252899995,19.5139142443" opacity="0.8" /><polyline fill="none" stroke="#66cc99" stroke-width="0.0" points="35.032384252899995,19.5139142443 35.03969295200199,19.49846129831724" opacity="0.8" /><polyline fill="none" stroke="#66cc99" stroke-width="0.0" points="35.0106020907,19.5465135538 34.99925514259615,19.55903298171061" opacity="0.8" /><polyline fill="none" stroke="#66cc99" stroke-width="0.0" points="35.0521570561,19.4586529613 35.05299930665568,19.452974969170324" opacity="0.8" /><polyline fill="none" stroke="#66cc99" stroke-width="0.0" points="35.0521570561,19.4586529613 35.05120604019976,19.46244962955377" opacity="0.8" /><polyline fill="none" stroke="#66cc99" stroke-width="0.0" points="33.0476890193,22.452284317599997 33.058708976999995,22.4677794867" opacity="0.8" /><polyline fill="none" stroke="#66cc99" stroke-width="0.0" points="33.058708976999995,22.4677794867 33.062300175339736,22.471929792785183" opacity="0.8" /><polyline fill="none" stroke="#66cc99" stroke-width="0.0" points="33.0476890193,22.452284317599997 33.04546562600297,22.448428736992224" opacity="0.8" /><polyline fill="none" stroke="#66cc99" stroke-width="0.0" points="33.0849014604,22.4952903023 33.090269870205994,22.499519743512288" opacity="0.8" /><polyline fill="none" stroke="#66cc99" stroke-width="0.0" points="33.0849014604,22.4952903023 33.07281683809958,22.48374939710512" opacity="0.8" /><polyline fill="none" stroke="#66cc99" stroke-width="0.0" points="33.1327141377,22.5260836194 33.1381165228404,22.528253694113122" opacity="0.8" /><polyline fill="none" stroke="#66cc99" stroke-width="0.0" points="33.1327141377,22.5260836194 33.12972935448239,22.52454081617651" opacity="0.8" /><polyline fill="none" stroke="#66cc99" stroke-width="0.0" points="33.220815351000006,22.5452078256 33.27540770399309,22.556066836941064" opacity="0.8" /><polyline fill="none" stroke="#66cc99" stroke-width="0.0" points="33.220815351000006,22.5452078256 33.216689339600016,22.544595794204742" opacity="0.8" /><polyline fill="none" stroke="#66cc99" stroke-width="0.0" points="33.3115778003,22.563505005000003 33.31157780041565,22.563505004969315" opacity="0.8" /><polyline fill="none" stroke="#66cc99" stroke-width="0.0" points="33.31157780041565,22.563505004969315 33.315753282399996,22.566007679" opacity="0.8" /><polyline fill="none" stroke="#66cc99" stroke-width="0.0" points="33.315753282399996,22.566007679 33.33964700027357,22.58197286344815" opacity="0.8" /><polyline fill="none" stroke="#66cc99" stroke-width="0.0" points="33.3115778003,22.563505005000003 33.308126370843134,22.562640472708992" opacity="0.8" /><polyline fill="none" stroke="#66cc99" stroke-width="0.0" points="33.444242321000004,22.694496717600003 33.44674499503068,22.698672199584344" opacity="0.8" /><polyline fill="none" stroke="#66cc99" stroke-width="0.0" points="33.44674499503068,22.698672199584344 33.446744994999996,22.6986721997" opacity="0.8" /><polyline fill="none" stroke="#66cc99" stroke-width="0.0" points="33.446744994999996,22.6986721997 33.44760950551189,22.702123542209193" opacity="0.8" /><polyline fill="none" stroke="#66cc99" stroke-width="0.0" points="33.444242321000004,22.694496717600003 33.42827713655185,22.67060299972643" opacity="0.8" /><polyline fill="none" stroke="#66cc99" stroke-width="0.0" points="33.465042174400004,22.789434648999997 33.46565420579526,22.79356066039998" opacity="0.8" /><polyline fill="none" stroke="#66cc99" stroke-width="0.0" points="33.465042174400004,22.789434648999997 33.454183163058936,22.73484229600691" opacity="0.8" /><polyline fill="none" stroke="#66cc99" stroke-width="0.0" points="32.0519604366,23.5903443921 32.044689154669925,23.596902264416627" opacity="0.8" /><polyline fill="none" stroke="#66cc99" stroke-width="0.0" points="32.0519604366,23.5903443921 32.057703822510035,23.58615" opacity="0.8" /><polyline fill="none" stroke="#66cc99" stroke-width="0.0" points="29.7593979093,25.8827674462 29.747706077500002,25.898532056500002" opacity="0.8" /><polyline fill="none" stroke="#66cc99" stroke-width="0.0" points="29.747706077500002,25.898532056500002 29.7376157471,25.9153667557" opacity="0.8" /><polyline fill="none" stroke="#66cc99" stroke-width="0.0" points="29.7376157471,25.9153667557 29.730307100596665,25.930819590472236" opacity="0.8" /><polyline fill="none" stroke="#66cc99" stroke-width="0.0" points="29.7593979093,25.8827674462 29.770745233697227,25.870247603113622" opacity="0.8" /><polyline fill="none" stroke="#66cc99" stroke-width="0.0" points="29.717842943899996,25.9706280387 29.717000739993484,25.97630571634655" opacity="0.8" /><polyline fill="none" stroke="#66cc99" stroke-width="0.0" points="29.717842943899996,25.9706280387 29.718793824566916,25.96683191032794" opacity="0.8" /><polyline fill="none" stroke="#66cc99" stroke-width="0.0" points="33.220815351000006,28.434207825599998 33.27540770399309,28.445066836941063" opacity="0.8" /><polyline fill="none" stroke="#66cc99" stroke-width="0.0" points="33.220815351000006,28.434207825599998 33.216689339600016,28.43359579420474" opacity="0.8" /><polyline fill="none" stroke="#66cc99" stroke-width="0.0" points="33.3115778003,28.452505005000003 33.311577800415655,28.45250500496932" opacity="0.8" /><polyline fill="none" stroke="#66cc99" stroke-width="0.0" points="33.311577800415655,28.45250500496932 33.315753282399996,28.455007678999998" opacity="0.8" /><polyline fill="none" stroke="#66cc99" stroke-width="0.0" points="33.315753282399996,28.455007678999998 33.33964700027357,28.47097286344815" opacity="0.8" /><polyline fill="none" stroke="#66cc99" stroke-width="0.0" points="33.3115778003,28.452505005000003 33.308126457790806,28.451640494488107" opacity="0.8" /><polyline fill="none" stroke="#66cc99" stroke-width="0.0" points="38.591018064400004,19.1554070561 38.59771956208949,19.153728418296485" opacity="0.8" /><polyline fill="none" stroke="#66cc99" stroke-width="0.0" points="38.591018064400004,19.1554070561 38.58342422315284,19.156533496021733" opacity="0.8" /><polyline fill="none" stroke="#66cc99" stroke-width="0.0" points="38.6285366865,19.1440259065 38.646279347400004,19.1356342529" opacity="0.8" /><polyline fill="none" stroke="#66cc99" stroke-width="0.0" points="38.646279347400004,19.1356342529 38.6631140466,19.1255439225" opacity="0.8" /><polyline fill="none" stroke="#66cc99" stroke-width="0.0" points="38.6631140466,19.1255439225 38.6788786568,19.1138520907" opacity="0.8" /><polyline fill="none" stroke="#66cc99" stroke-width="0.0" points="38.6285366865,19.1440259065 38.62476813532643,19.145374315663574" opacity="0.8" /><polyline fill="none" stroke="#66cc99" stroke-width="0.0" points="38.7066020907,19.086128656800003 38.7182939225,19.070364046599998" opacity="0.8" /><polyline fill="none" stroke="#66cc99" stroke-width="0.0" points="38.7182939225,19.070364046599998 38.7283842529,19.053529347399998" opacity="0.8" /><polyline fill="none" stroke="#66cc99" stroke-width="0.0" points="38.7283842529,19.053529347399998 38.7367759065,19.035786686500003" opacity="0.8" /><polyline fill="none" stroke="#66cc99" stroke-width="0.0" points="38.7367759065,19.035786686500003 38.73812454848457,19.032017484635315" opacity="0.8" /><polyline fill="none" stroke="#66cc99" stroke-width="0.0" points="38.748157056100005,18.998268064399998 38.74928347037736,18.990674396033185" opacity="0.8" /><polyline fill="none" stroke="#66cc99" stroke-width="0.0" points="38.748157056100005,18.998268064399998 38.74647814058336,19.004970670782416" opacity="0.8" /><polyline fill="none" stroke="#66cc99" stroke-width="0.0" points="38.748157056100005,19.820231935600003 38.74647814058336,19.813529329217584" opacity="0.8" /><polyline fill="none" stroke="#66cc99" stroke-width="0.0" points="38.748157056100005,19.820231935600003 38.74928347037736,19.827825603966815" opacity="0.8" /><polyline fill="none" stroke="#66cc99" stroke-width="0.0" points="38.7367759065,19.782713313499997 38.7283842529,19.764970652600002" opacity="0.8" /><polyline fill="none" stroke="#66cc99" stroke-width="0.0" points="38.7283842529,19.764970652600002 38.7182939225,19.748135953400002" opacity="0.8" /><polyline fill="none" stroke="#66cc99" stroke-width="0.0" points="38.7182939225,19.748135953400002 38.7066020907,19.732371343199997" opacity="0.8" /><polyline fill="none" stroke="#66cc99" stroke-width="0.0" points="38.7367759065,19.782713313499997 38.73812454848457,19.786482515364685" opacity="0.8" /><polyline fill="none" stroke="#66cc99" stroke-width="0.0" points="38.6788786568,19.7046479093 38.6631140466,19.6929560775" opacity="0.8" /><polyline fill="none" stroke="#66cc99" stroke-width="0.0" points="38.6631140466,19.6929560775 38.646279347400004,19.6828657471" opacity="0.8" /><polyline fill="none" stroke="#66cc99" stroke-width="0.0" points="38.646279347400004,19.6828657471 38.6285366865,19.6744740935" opacity="0.8" /><polyline fill="none" stroke="#66cc99" stroke-width="0.0" points="38.6285366865,19.6744740935 38.62476813532643,19.673125684336426" opacity="0.8" /><polyline fill="none" stroke="#66cc99" stroke-width="0.0" points="38.591018064400004,19.6630929439 38.58342422315284,19.661966503978267" opacity="0.8" /><polyline fill="none" stroke="#66cc99" stroke-width="0.0" points="38.591018064400004,19.6630929439 38.59771956208949,19.664771581703516" opacity="0.8" /><polyline fill="none" stroke="#66cc99" stroke-width="0.0" points="34.5853979093,21.9967674462 34.5737060775,22.012532056500003" opacity="0.8" /><polyline fill="none" stroke="#66cc99" stroke-width="0.0" points="34.5737060775,22.012532056500003 34.5636157471,22.0293667557" opacity="0.8" /><polyline fill="none" stroke="#66cc99" stroke-width="0.0" points="34.5636157471,22.0293667557 34.55630710059667,22.044819590472237" opacity="0.8" /><polyline fill="none" stroke="#66cc99" stroke-width="0.0" points="34.5853979093,21.9967674462 34.59674523369723,21.984247603113623" opacity="0.8" /><polyline fill="none" stroke="#66cc99" stroke-width="0.0" points="34.543842943899996,22.0846280387 34.54300073999348,22.090305716346545" opacity="0.8" /><polyline fill="none" stroke="#66cc99" stroke-width="0.0" points="34.543842943899996,22.0846280387 34.544793824566916,22.08083191032794" opacity="0.8" /><polyline fill="none" stroke="#66cc99" stroke-width="0.0" points="32.311184649,29.457292174400003 32.25659229600691,29.446433163058938" opacity="0.8" /><polyline fill="none" stroke="#66cc99" stroke-width="0.0" points="32.311184649,29.457292174400003 32.31531066039998,29.45790420579526" opacity="0.8" /><polyline fill="none" stroke="#66cc99" stroke-width="0.0" points="32.220422199699996,29.438994994999998 32.22042219958435,29.438994995030686" opacity="0.8" /><polyline fill="none" stroke="#66cc99" stroke-width="0.0" points="32.22042219958435,29.438994995030686 32.2162467176,29.436492321000003" opacity="0.8" /><polyline fill="none" stroke="#66cc99" stroke-width="0.0" points="32.2162467176,29.436492321000003 32.192351321643756,29.420526015298993" opacity="0.8" /><polyline fill="none" stroke="#66cc99" stroke-width="0.0" points="32.220422199699996,29.438994994999998 32.22387362915686,29.439859527291006" opacity="0.8" /><polyline fill="none" stroke="#66cc99" stroke-width="0.0" points="32.087757679,29.308003282399998 32.08525500496931,29.30382780041565" opacity="0.8" /><polyline fill="none" stroke="#66cc99" stroke-width="0.0" points="32.08525500496931,29.30382780041565 32.085255005,29.303827800300002" opacity="0.8" /><polyline fill="none" stroke="#66cc99" stroke-width="0.0" points="32.085255005,29.303827800300002 32.08439047270899,29.300376370843136" opacity="0.8" /><polyline fill="none" stroke="#66cc99" stroke-width="0.0" points="32.087757679,29.308003282399998 32.10372286344815,29.33189700027357" opacity="0.8" /></g> 
                    </g>
                    </svg>