<svg xmlns="http://www.w3.org/2000/svg" viewBox="0 0 45.208201 24.064963" width="45.208201mm" height="24.064963mm">
                    <g stroke-linecap="round" fill-rule="evenodd">
                        <g><path fill-rule="evenodd" fill="#66cc99" stroke="#555555" stroke-width="0.0" opacity="1" d="M 19.7834,8.484814957317397 L 21.173626478658704,7.094588478658691 L 21.1753405088353,7.092831855013631 L 21.17872494325213,7.089277072379678 L 21.180395347492368,7.087478913390785 L 21.19713488022512,7.069009685146965 L 21.200340813025907,7.0652931180786265 L 21.206566453638466,7.0577071530431805 L 21.209586161450236,7.053837755076073 L 21.22443478782095,7.033816700085491 L 21.227260995903105,7.029803792938277 L 21.232713103755103,7.021644136908322 L 21.235339003524945,7.017497388025582 L 21.248153723144576,6.9961173199924005 L 21.250572988579407,6.991846719255618 L 21.255199056891694,6.983191954179362 L 21.25740585976915,6.978807789839886 L 21.26806325988254,6.956274610506818 L 21.2700522838213,6.951787444400348 L 21.273807761027278,6.942720920396514 L 21.275574214294494,6.93814156249915 L 21.283971658312606,6.914672278701052 L 21.285511285367534,6.9100117610872465 L 21.288360004168673,6.900620793738373 L 21.289669095914885,6.895890344003305 L 21.295725711861326,6.871710977772765 L 21.296801114582195,6.866921991984024 L 21.29871564025922,6.857297021439217 L 21.29955476321538,6.85246103668315 L 21.30321222256769,6.827804448534764 L 21.30381304423843,6.822933115122199 L 21.304774938862472,6.8131668351094055 L 21.305136011815772,6.808271888509177 L 21.30635909124103,6.783375534865469 L 21.30644942749013,6.780922890285052 L 21.306569881869613,6.776016122852318 L 21.3066,6.773562 L 21.3066,5.655962 L 21.30611847266722,5.646160285967045 L 21.30467852804032,5.636452967798389 L 21.302294033573226,5.626933532274552 L 21.298987953251125,5.617693656763494 L 21.29479212643483,5.6088223263174 L 21.289746961230247,5.600404976698041 L 21.283901045336275,5.592522671583637 L 21.27731067811866,5.585251321881346 L 21.270039328416363,5.578660954663723 L 21.26215702330196,5.572815038769744 L 21.2537396736826,5.567769873565167 L 21.244868343236504,5.563574046748869 L 21.23562846772544,5.560267966426783 L 21.226109032201617,5.557883471959681 L 21.216401714032962,5.556443527332783 L 21.2066,5.555962 L 21.196798285967038,5.556443527332783 L 21.187090967798383,5.557883471959681 L 21.17757153227456,5.560267966426783 L 21.168331656763495,5.563574046748869 L 21.1594603263174,5.567769873565167 L 21.15104297669804,5.572815038769744 L 21.143160671583637,5.578660954663723 L 21.13588932188134,5.585251321881346 L 21.129298954663724,5.592522671583637 L 21.123453038769753,5.600404976698041 L 21.118407873565168,5.6088223263174 L 21.114212046748875,5.617693656763494 L 21.110905966426774,5.626933532274552 L 21.10852147195968,5.636452967798389 L 21.10708152733278,5.646160285967045 L 21.1066,5.655962 L 21.1066,6.7723347537622605 L 21.10653978188129,6.774787767965935 L 21.105497374954222,6.796006448421851 L 21.105016717477813,6.800886645677939 L 21.102079664319337,6.820686649757959 L 21.101122978360802,6.825496234858848 L 21.096259328137652,6.844913014955677 L 21.09483582710564,6.8496056689682 L 21.08809241942814,6.868452230875403 L 21.086215812415986,6.872982760975368 L 21.077657589986412,6.891077601999067 L 21.075345949745298,6.89540237670561 L 21.065055332924096,6.9125712336350755 L 21.062330921813132,6.916648603003614 L 21.05040701486586,6.932726130360939 L 21.047296070453434,6.93651682709539 L 21.03302929062237,6.952257792940184 L 21.03133732828435,6.954034916558415 L 19.612689321881337,8.37268292296143 L 19.606098954663725,8.37995427266372 L 19.600253038769736,8.387836577778124 L 19.59520787356517,8.396253927397481 L 19.591012046748876,8.405125257843576 L 19.587705966426775,8.414365133354641 L 19.58532147195968,8.423884568878472 L 19.58388152733278,8.433591887047127 L 19.5834,8.443393601080082 L 19.5834,8.54707094571235 L 19.58388152733278,8.556872659745306 L 19.58532147195968,8.56657997791396 L 19.587705966426775,8.576099413437799 L 19.591012046748876,8.585339288948857 L 19.59520787356517,8.59421061939495 L 19.60025303876975,8.602627969014309 L 19.606098954663725,8.610510274128712 L 19.612689321881337,8.617781623831004 L 19.619960671583637,8.624371991048626 L 19.62784297669804,8.630217906942606 L 19.636260326317398,8.635263072147183 L 19.645131656763493,8.63945889896348 L 19.65437153227456,8.642764979285568 L 19.66389096779838,8.64514947375267 L 19.67359828596704,8.646589418379568 L 19.6834,8.64707094571235 L 19.693201714032963,8.646589418379568 L 19.702909032201617,8.64514947375267 L 19.71242846772544,8.642764979285568 L 19.721668343236505,8.63945889896348 L 19.7305396736826,8.635263072147183 L 19.73895702330196,8.630217906942606 L 19.746839328416364,8.624371991048626 L 19.75411067811866,8.617781623831004 L 19.760701045336276,8.610510274128712 L 19.766546961230247,8.602627969014309 L 19.771592126434832,8.59421061939495 L 19.775787953251122,8.585339288948857 L 19.779094033573227,8.576099413437799 L 19.78147852804032,8.56657997791396 L 19.782918472667216,8.556872659745306 L 19.7834,8.54707094571235 L 19.7834,8.484814957317397 z" /><path fill-rule="evenodd" fill="#66cc99" stroke="#555555" stroke-width="0.0" opacity="1" d="M 20.3986,6.510593601080083 L 20.3986,6.585509042682603 L 19.008373521341294,7.975735521341309 L 19.0066594911647,7.9774921449863685 L 19.003275056747867,7.981046927620321 L 19.001604652507634,7.982845086609214 L 18.984865119774877,8.001314314853035 L 18.981659186974092,8.005030881921373 L 18.975433546361536,8.012616846956819 L 18.972413838549762,8.016486244923927 L 18.95756521217905,8.03650729991451 L 18.954739004096897,8.040520207061723 L 18.9492868962449,8.048679863091678 L 18.946660996475057,8.052826611974417 L 18.933846276855423,8.074206680007599 L 18.931427011420592,8.078477280744382 L 18.926800943108304,8.087132045820638 L 18.924594140230848,8.091516210160114 L 18.91393674011746,8.114049389493182 L 18.9119477161787,8.118536555599652 L 18.908192238972724,8.127603079603485 L 18.90642578570551,8.13218243750085 L 18.898028341687397,8.155651721298948 L 18.896488714632465,8.160312238912754 L 18.893639995831325,8.169703206261627 L 18.892330904085114,8.174433655996696 L 18.886274288138672,8.198613022227235 L 18.885198885417804,8.203402008015976 L 18.883284359740777,8.213026978560784 L 18.882445236784623,8.21786296331685 L 18.878787777432308,8.242519551465236 L 18.878186955761567,8.2473908848778 L 18.877225061137526,8.257157164890595 L 18.87686398818423,8.262052111490823 L 18.875640908758967,8.28694846513453 L 18.87555057250987,8.289401109714948 L 18.875430118130385,8.294307877147682 L 18.8754,8.296762 L 18.8754,8.54707094571235 L 18.875881527332783,8.556872659745306 L 18.87732147195968,8.56657997791396 L 18.879705966426776,8.576099413437799 L 18.883012046748878,8.585339288948857 L 18.887207873565167,8.59421061939495 L 18.892253038769752,8.602627969014309 L 18.898098954663723,8.610510274128712 L 18.90468932188134,8.617781623831004 L 18.91196067158364,8.624371991048626 L 18.919842976698042,8.630217906942606 L 18.9282603263174,8.635263072147183 L 18.937131656763494,8.63945889896348 L 18.946371532274558,8.642764979285568 L 18.955890967798382,8.64514947375267 L 18.965598285967037,8.646589418379568 L 18.9754,8.64707094571235 L 18.985201714032964,8.646589418379568 L 18.99490903220162,8.64514947375267 L 19.00442846772544,8.642764979285568 L 19.013668343236507,8.63945889896348 L 19.0225396736826,8.635263072147183 L 19.03095702330196,8.630217906942606 L 19.038839328416362,8.624371991048626 L 19.046110678118662,8.617781623831004 L 19.052701045336278,8.610510274128712 L 19.05854696123025,8.602627969014309 L 19.063592126434834,8.59421061939495 L 19.067787953251123,8.585339288948857 L 19.071094033573225,8.576099413437799 L 19.07347852804032,8.56657997791396 L 19.074918472667218,8.556872659745306 L 19.0754,8.54707094571235 L 19.0754,8.29798924623774 L 19.075460218118714,8.295536232034065 L 19.076502625045777,8.274317551578148 L 19.076983282522185,8.269437354322061 L 19.079920335680665,8.249637350242041 L 19.080877021639196,8.244827765141151 L 19.08574067186235,8.225410985044324 L 19.087164172894358,8.220718331031799 L 19.09390758057186,8.201871769124597 L 19.095784187584012,8.197341239024631 L 19.104342410013587,8.179246398000933 L 19.106654050254704,8.174921623294392 L 19.116944667075902,8.157752766364924 L 19.11966907818687,8.153675396996386 L 19.13159298513414,8.13759786963906 L 19.134703929546564,8.13380717290461 L 19.148970709377632,8.118066207059815 L 19.150662671715647,8.116289083441586 L 20.56931067811866,6.697641077038571 L 20.575901045336277,6.69036972733628 L 20.581746961230262,6.682487422221877 L 20.586792126434833,6.674070072602518 L 20.590987953251123,6.665198742156424 L 20.594294033573224,6.655958866645358 L 20.596678528040318,6.646439431121528 L 20.598118472667217,6.636732112952873 L 20.5986,6.626930398919917 L 20.5986,6.510593601080083 L 20.5986,5.509330398919918 L 20.598118472667217,5.499528684886962 L 20.596678528040318,5.489821366718307 L 20.594294033573224,5.480301931194469 L 20.590987953251123,5.4710620556834115 L 20.586792126434833,5.462190725237317 L 20.581746961230248,5.453773375617959 L 20.575901045336277,5.4458910705035555 L 20.56931067811866,5.438619720801264 L 20.56203932841636,5.4320293535836415 L 20.554157023301958,5.426183437689662 L 20.5457396736826,5.421138272485085 L 20.536868343236506,5.416942445668787 L 20.527628467725442,5.4136363653467 L 20.518109032201618,5.411251870879598 L 20.508401714032964,5.409811926252701 L 20.4986,5.409330398919917 L 20.488798285967036,5.409811926252701 L 20.47909096779838,5.411251870879598 L 20.46957153227456,5.4136363653467 L 20.460331656763493,5.416942445668787 L 20.4514603263174,5.421138272485085 L 20.44304297669804,5.426183437689662 L 20.43516067158364,5.4320293535836415 L 20.427889321881338,5.438619720801264 L 20.421298954663722,5.4458910705035555 L 20.41545303876975,5.453773375617959 L 20.410407873565166,5.462190725237317 L 20.406212046748877,5.4710620556834115 L 20.402905966426776,5.480301931194469 L 20.40052147195968,5.489821366718307 L 20.399081527332783,5.499528684886962 L 20.3986,5.509330398919918 L 20.3986,6.510593601080083 z" /><path fill-rule="evenodd" fill="#66cc99" stroke="#555555" stroke-width="0.0" opacity="1" d="M 17.610028115282848,7.601786488262273 L 17.61002811528291,7.601786488262497 L 17.610949230565815,7.604707956950762 L 17.612351582526713,7.608839249118172 L 17.615335149617046,7.61703673418688 L 17.61691636474648,7.621102927088142 L 17.626931364746483,7.645281927088141 L 17.628689101013915,7.649276712921873 L 17.632377206232817,7.657185783665255 L 17.634307575184284,7.661100068574905 L 17.646392575184286,7.684314068574905 L 17.648490676950903,7.68813827860672 L 17.652851654971972,7.695691564187296 L 17.655114531226427,7.699420639736056 L 17.669176531226427,7.721493639736057 L 17.671599837273583,7.725120429637588 L 17.67660230275388,7.732264882656202 L 17.67918146218702,7.735782545773283 L 17.69511346218702,7.756546545773283 L 17.69784455270499,7.759949563111372 L 17.703452586221637,7.766633217796661 L 17.706329529220312,7.76991385514386 L 17.724010529220312,7.78920985514386 L 17.727028586491496,7.792362605690584 L 17.733199394309416,7.798533413508505 L 17.736352144856156,7.801551470779702 L 17.755648144856156,7.819232470779702 L 17.758928782203256,7.822109413778305 L 17.76561243688853,7.82771744729495 L 17.769015454226704,7.830448537812993 L 17.789779454226704,7.846380537812993 L 17.793297117343887,7.848959697246194 L 17.80044157036251,7.853962162726484 L 17.804068360263944,7.856385468773573 L 17.826141360263943,7.870447468773573 L 17.829870435812698,7.872710345028035 L 17.83742372139327,7.877071323049106 L 17.841247931425094,7.879169424815714 L 17.864461931425094,7.891254424815714 L 17.868376216334745,7.893184793767176 L 17.876285287078126,7.896872898986079 L 17.88028007291186,7.898630635253519 L 17.90445907291186,7.908645635253519 L 17.908525265813036,7.910226850382924 L 17.916722750881746,7.913210417473264 L 17.920854043049275,7.914612769434199 L 17.945815043049276,7.922482769434199 L 17.95000255740222,7.923703317396641 L 17.9584268275318,7.92596064608521 L 17.96266358330843,7.9269974268113375 L 17.98821458330843,7.932662426811337 L 17.992494814782575,7.933513872486628 L 18.001088350874067,7.935029204061732 L 18.00540165549141,7.935693089961544 L 18.03134965549141,7.939109089961543 L 18.03568563951783,7.939583961074106 L 18.044374191217095,7.940344164807558 L 18.048726758889945,7.940629497428447 L 18.074872758889942,7.941771497428447 L 18.07923637944497,7.941866748714223 L 18.08796362055503,7.941866748714223 L 18.092327241110056,7.941771497428447 L 18.118473241110056,7.940629497428447 L 18.122825808782906,7.940344164807558 L 18.13151436048217,7.939583961074106 L 18.135850344508587,7.939109089961543 L 18.16179834450859,7.935693089961544 L 18.166111649125934,7.935029204061732 L 18.174705185217427,7.933513872486628 L 18.17898541669157,7.932662426811337 L 18.20453641669157,7.9269974268113375 L 18.2087731724682,7.92596064608521 L 18.217197442597776,7.923703317396641 L 18.221384956950725,7.922482769434199 L 18.246345956950723,7.914612769434199 L 18.250477249118255,7.913210417473264 L 18.25867473418696,7.910226850382924 L 18.262740927088142,7.908645635253519 L 18.286919927088142,7.898630635253519 L 18.29091391340622,7.896873271806598 L 18.298821419172643,7.893185981283106 L 18.302734938620986,7.8912560542065355 L 18.325949938620983,7.879171054206536 L 18.329775838642163,7.877072065567017 L 18.33733242070763,7.872709169737406 L 18.34106310275191,7.870445262547314 L 18.36313510275191,7.856383262547314 L 18.36676100202626,7.853960470831632 L 18.37390372353695,7.848959108464472 L 18.377420545773298,7.846380537812993 L 18.398184545773297,7.830448537812993 L 18.40158756311147,7.82771744729495 L 18.40827121779674,7.822109413778305 L 18.411551855143845,7.819232470779702 L 18.430847855143845,7.801551470779702 L 18.434000605690585,7.798533413508505 L 18.440171413508505,7.792362605690584 L 18.443189470779686,7.78920985514386 L 18.46087047077969,7.76991385514386 L 18.463747413778364,7.766633217796661 L 18.46935544729501,7.759949563111372 L 18.472086537812977,7.756546545773283 L 18.488018537812977,7.735782545773283 L 18.49059769724612,7.732264882656202 L 18.49560016272642,7.725120429637588 L 18.498023468773575,7.721493639736057 L 18.512085468773574,7.699420639736056 L 18.51434834502803,7.695691564187296 L 18.518709323049098,7.68813827860672 L 18.520807424815715,7.684314068574905 L 18.532892424815714,7.661100068574905 L 18.534822793767184,7.657185783665255 L 18.538510898986086,7.649276712921873 L 18.54026863525352,7.645281927088141 L 18.550283635253518,7.621102927088142 L 18.551864850382955,7.61703673418688 L 18.554848417473288,7.608839249118172 L 18.556250769434183,7.604707956950724 L 18.564120769434183,7.579746956950724 L 18.565341317396612,7.575559442597851 L 18.567598646085187,7.567135172468275 L 18.568635426811337,7.562898416691572 L 18.574300426811337,7.5373474166915715 L 18.57515187248662,7.533067185217485 L 18.57666720406173,7.524473649125985 L 18.577331089961557,7.520160344508573 L 18.58074708996156,7.494212344508574 L 18.581221961074114,7.489876360482074 L 18.58198216480756,7.481187808782808 L 18.582267497428447,7.476835241110042 L 18.58340949742845,7.450689241110042 L 18.583504748714223,7.446325620555021 L 18.583504748714223,7.437598379444979 L 18.58340949742845,7.4332347588899585 L 18.582267497428447,7.407088758889958 L 18.58198216480756,7.402736191217191 L 18.581221961074114,7.394047639517925 L 18.58092537647027,7.391886125428632 L 18.58074708996156,7.389711655491427 L 18.577331089961557,7.363763655491427 L 18.57666720406173,7.359450350874014 L 18.57515187248662,7.3508568147825155 L 18.574300426811337,7.346576583308429 L 18.568635426811337,7.321025583308429 L 18.567598646085187,7.316788827531725 L 18.565341317396612,7.3083645574021485 L 18.564120769434183,7.304177043049276 L 18.556250769434183,7.279216043049276 L 18.554848417473288,7.275084750881828 L 18.551864850382955,7.26688726581312 L 18.550283635253518,7.2628210729118585 L 18.54026863525352,7.238642072911858 L 18.538511271806627,7.234648086593844 L 18.534823981283143,7.226740580827422 L 18.53289405420655,7.222827061379015 L 18.52080905420655,7.199612061379016 L 18.518710065567017,7.1957861613578125 L 18.5143471697374,7.188229579292342 L 18.512083262547314,7.184498897248075 L 18.498021262547315,7.162426897248074 L 18.495598470831528,7.158800997973598 L 18.49059710846436,7.15165827646292 L 18.488018537812977,7.148141454226717 L 18.472086537812977,7.127377454226718 L 18.46935544729501,7.123974436888628 L 18.463747413778364,7.117290782203339 L 18.46087047077969,7.11401014485614 L 18.443189470779686,7.09471414485614 L 18.440171413508505,7.091561394309417 L 18.434000605690585,7.085390586491496 L 18.430847855143845,7.082372529220298 L 18.411551855143845,7.064691529220298 L 18.40827121779674,7.061814586221695 L 18.40158756311147,7.056206552705049 L 18.398184545773297,7.0534754621870075 L 18.377420545773298,7.037543462187007 L 18.37390372353695,7.034964891535528 L 18.36676100202626,7.029963529168367 L 18.36313510275191,7.027540737452686 L 18.34106310275191,7.013478737452686 L 18.33733242070763,7.011214830262594 L 18.329775838642163,7.006851934432984 L 18.325949938620983,7.004752945793465 L 18.302734938620986,6.992667945793465 L 18.298821419172643,6.990738018716894 L 18.29091391340622,6.9870507281934024 L 18.286919927088142,6.985293364746481 L 18.262740927088142,6.975278364746481 L 18.25867473418696,6.973697149617076 L 18.250477249118255,6.970713582526736 L 18.246345956950723,6.969311230565801 L 18.221384956950725,6.961441230565801 L 18.217197442597776,6.960220682603359 L 18.2087731724682,6.95796335391479 L 18.20453641669157,6.956926573188663 L 18.17898541669157,6.9512615731886624 L 18.174705185217427,6.950410127513371 L 18.166111649125934,6.948894795938268 L 18.16179834450859,6.948230910038457 L 18.135850344508587,6.944814910038456 L 18.13151436048217,6.944340038925894 L 18.122825808782906,6.943579835192442 L 18.118473241110056,6.943294502571553 L 18.092327241110056,6.942152502571553 L 18.08796362055503,6.942057251285776 L 18.07923637944497,6.942057251285776 L 18.07487275889011,6.942152502571545 L 18.07240159191978,6.942260437731035 L 18.07240159191969,6.942260437731043 L 18.0724015919196,6.942260437731043 L 18.048726758889927,6.943294502571553 L 18.044374191217095,6.943579835192442 L 18.03568563951783,6.944340038925894 L 18.03134965549141,6.944814910038456 L 18.00540165549141,6.948230910038457 L 18.001088350874067,6.948894795938268 L 17.992494814782575,6.950410127513371 L 17.98821458330843,6.9512615731886624 L 17.96266358330843,6.956926573188663 L 17.9584268275318,6.95796335391479 L 17.95000255740222,6.960220682603359 L 17.945815043049276,6.961441230565801 L 17.920854043049275,6.969311230565801 L 17.916722750881746,6.970713582526736 L 17.908525265813036,6.973697149617076 L 17.90445907291186,6.975278364746481 L 17.88028007291186,6.985293364746481 L 17.876286086593776,6.9870507281934024 L 17.868378580827354,6.990738018716894 L 17.864465061379015,6.992667945793465 L 17.841250061379014,7.004752945793465 L 17.837424161357834,7.006851934432984 L 17.829867579292372,7.011214830262594 L 17.82613689724809,7.013478737452686 L 17.80406489724809,7.027540737452686 L 17.80043899797374,7.029963529168367 L 17.793296276463046,7.034964891535528 L 17.789779454226704,7.037543462187007 L 17.769015454226704,7.0534754621870075 L 17.76561243688853,7.056206552705049 L 17.758928782203256,7.061814586221695 L 17.755648144856156,7.064691529220298 L 17.736352144856156,7.082372529220298 L 17.733199394309416,7.085390586491496 L 17.727028586491496,7.091561394309417 L 17.724010529220312,7.09471414485614 L 17.706329529220312,7.11401014485614 L 17.703452586221637,7.117290782203339 L 17.69784455270499,7.123974436888628 L 17.69511346218702,7.127377454226718 L 17.67918146218702,7.148141454226717 L 17.67660289153564,7.15165827646292 L 17.671601529168473,7.158800997973598 L 17.669178737452686,7.162426897248074 L 17.655116737452687,7.184498897248075 L 17.652852830262603,7.188229579292342 L 17.648489934432984,7.1957861613578125 L 17.64639094579345,7.199612061379016 L 17.63430594579345,7.222827061379015 L 17.632376018716858,7.226740580827422 L 17.62868872819337,7.234648086593844 L 17.626931364746483,7.238642072911858 L 17.61691636474648,7.2628210729118585 L 17.615335149617046,7.26688726581312 L 17.612351582526713,7.275084750881828 L 17.610949230565815,7.279216043049276 L 17.603079230565815,7.304177043049276 L 17.60185868260339,7.3083645574021485 L 17.599601353914814,7.316788827531725 L 17.598564573188664,7.321025583308429 L 17.592899573188664,7.346576583308429 L 17.59204812751338,7.3508568147825155 L 17.59053279593827,7.359450350874014 L 17.58986891003844,7.363763655491427 L 17.586452910038442,7.389711655491427 L 17.585978038925887,7.394047639517925 L 17.58521783519244,7.402736191217191 L 17.584932502571554,7.407088758889958 L 17.583790502571553,7.4332347588899585 L 17.583695251285775,7.437598379444979 L 17.583695251285775,7.446325620555021 L 17.583790502571553,7.450689241110042 L 17.584932502571554,7.476835241110042 L 17.58521783519244,7.481187808782808 L 17.585978038925887,7.489876360482074 L 17.586452910038442,7.494212344508574 L 17.58986891003844,7.520160344508573 L 17.59053279593827,7.524473649125985 L 17.59204812751338,7.533067185217485 L 17.592899573188664,7.5373474166915715 L 17.598564573188664,7.562898416691572 L 17.599601353914814,7.567135172468275 L 17.60185868260339,7.575559442597851 L 17.603079230565815,7.579746956950724 L 17.610028115282848,7.601786488262273 z M 17.80077188471702,7.541646531311482 L 17.7944789472519,7.521687444644801 L 17.79335081998445,7.5174773139316065 L 17.788630432320534,7.496186824046276 L 17.787873127454937,7.491892102810547 L 17.785026729737194,7.4702708124181925 L 17.78464680875446,7.465928603935361 L 17.783695251285778,7.444142770681188 L 17.783695251285778,7.439781229318813 L 17.78464680875446,7.417995396064639 L 17.785026729737194,7.413653187581807 L 17.787873127454937,7.392031897189454 L 17.788630432320534,7.387737175953723 L 17.79335081998445,7.366446686068393 L 17.7944789472519,7.3622365553551985 L 17.80103689491631,7.341436945234321 L 17.802527968252182,7.337340154031985 L 17.810872898186386,7.31719316842252 L 17.812715665443243,7.313241298447259 L 17.822785254838838,7.293897854688987 L 17.824965663711758,7.290121363287881 L 17.8366831436041,7.2717293695328085 L 17.839182635331646,7.268159707505249 L 17.85245858551325,7.250857307959013 L 17.85526126696737,7.247517072031982 L 17.869993379687397,7.231439313588135 L 17.87307731358814,7.2283553796874065 L 17.88915507203193,7.213623266967423 L 17.892495307958974,7.210820585513272 L 17.909797707505227,7.197544635331675 L 17.91336736953299,7.195045143603981 L 17.931759363287895,7.183327663711749 L 17.935535854689004,7.181147254838824 L 17.954879298447132,7.171077665443309 L 17.95883116842258,7.169234898186356 L 17.97897815403202,7.1608899682521745 L 17.983074945234208,7.1593988949163405 L 18.003874555355267,7.152840947251879 L 18.0080846860684,7.151712819984444 L 18.02937517595376,7.146992432320535 L 18.033669897189483,7.146235127454936 L 18.05529118758151,7.14338872973723 L 18.059633396064847,7.143008808754452 L 18.081128833029688,7.14206993515949 L 18.081419229318737,7.1420572512857765 L 18.085780770681186,7.1420572512857765 L 18.10756660393515,7.143008808754452 L 18.11190881241849,7.14338872973723 L 18.133530102810518,7.146235127454936 L 18.137824824046238,7.146992432320535 L 18.1591153139316,7.151712819984444 L 18.163325444644734,7.152840947251879 L 18.18412505476579,7.1593988949163405 L 18.188221845967977,7.1608899682521745 L 18.20836883157742,7.169234898186356 L 18.21232070155287,7.171077665443309 L 18.231664145310997,7.181147254838824 L 18.235440636712106,7.183327663711749 L 18.253832630467013,7.195045143603981 L 18.257402292494774,7.197544635331675 L 18.274704692041023,7.210820585513272 L 18.27804492796807,7.213623266967423 L 18.294122686411857,7.2283553796874065 L 18.2972066203126,7.231439313588135 L 18.31193873303263,7.247517072031982 L 18.31474141448675,7.250857307959013 L 18.328017364668355,7.268159707505249 L 18.3305168563959,7.2717293695328085 L 18.342234336288243,7.290121363287881 L 18.34441474516116,7.293897854688987 L 18.35448433455676,7.313241298447259 L 18.356327101813616,7.31719316842252 L 18.36467203174782,7.337340154031985 L 18.36616310508369,7.341436945234321 L 18.372721052748098,7.3622365553551985 L 18.37384918001555,7.366446686068393 L 18.378569567679463,7.387737175953723 L 18.379326872545064,7.392031897189454 L 18.382173270262808,7.413653187581822 L 18.38255319124554,7.417995396064639 L 18.383504748714223,7.439781229318813 L 18.383504748714223,7.444142770681188 L 18.38255319124554,7.465928603935361 L 18.382173270262808,7.4702708124181925 L 18.379326872545064,7.491892102810547 L 18.378569567679463,7.496186824046276 L 18.37384918001555,7.5174773139316065 L 18.372721052748098,7.521687444644801 L 18.36616310508369,7.542487054765679 L 18.36467203174782,7.546583845968016 L 18.356327270685792,7.566730423873015 L 18.35448409663014,7.570683075202987 L 18.344414338423014,7.590026009999864 L 18.342234887089223,7.593800855516963 L 18.33051709453784,7.612194173322886 L 18.328017052076056,7.615764699892834 L 18.31474141448675,7.6330666920409875 L 18.31193873303263,7.636406927968018 L 18.2972066203126,7.652484686411865 L 18.294122686411857,7.655568620312594 L 18.27804492796807,7.670300733032577 L 18.274704692041023,7.673103414486729 L 18.257402292494774,7.6863793646683245 L 18.253832630467013,7.68887885639602 L 18.235440636712106,7.700596336288251 L 18.231664145310997,7.7027767451611755 L 18.21232070155287,7.7128463345566916 L 18.20836883157742,7.7146891018136445 L 18.188221845967977,7.723034031747826 L 18.18412505476579,7.724525105083659 L 18.163325444644734,7.731083052748121 L 18.1591153139316,7.732211180015557 L 18.137824824046238,7.7369315676794645 L 18.133530102810518,7.737688872545063 L 18.11190881241849,7.740535270262771 L 18.10756660393515,7.7409151912455485 L 18.085780770681186,7.741866748714224 L 18.08141922931881,7.741866748714224 L 18.059633396064847,7.7409151912455485 L 18.05529118758151,7.740535270262771 L 18.033669897189483,7.737688872545063 L 18.02937517595376,7.7369315676794645 L 18.0080846860684,7.732211180015557 L 18.003874555355267,7.731083052748121 L 17.983074945234208,7.724525105083659 L 17.97897815403202,7.723034031747826 L 17.958831576126844,7.714689270685732 L 17.954878924797146,7.712846096630209 L 17.935535990000353,7.702776338423118 L 17.931761144482834,7.7005968870891035 L 17.913367826677053,7.6888790945377945 L 17.909797300107314,7.686379052076176 L 17.892495307958974,7.673103414486729 L 17.88915507203193,7.670300733032577 L 17.87307731358814,7.655568620312594 L 17.869993379687397,7.652484686411865 L 17.85526126696737,7.636406927968018 L 17.85245858551325,7.6330666920409875 L 17.839182947923945,7.615764699892834 L 17.836682905462162,7.612194173322886 L 17.82496511291078,7.593800855516963 L 17.822785661576987,7.590026009999864 L 17.81271590336986,7.570683075202987 L 17.81087272931421,7.566730423873015 L 17.802527968252182,7.546583845968016 L 17.801036894916386,7.542487054765902 L 17.800771884717093,7.541646531311698 L 17.80077188471702,7.541646531311482 z" /><path fill-rule="evenodd" fill="#66cc99" stroke="#555555" stroke-width="0.0" opacity="1" d="M 17.773864755747184,8.619857189983264 L 17.776809502173336,8.617188217464037 L 17.77877405619852,8.615731187981345 L 17.79942878319466,8.601929919334419 L 17.801516604057834,8.600678512348734 L 17.803877795458167,8.60008708139687 L 17.828242409436196,8.595240877848953 L 17.83066181926809,8.594882008373306 L 17.833104753820017,8.594762 L 18.285695246179984,8.594762 L 18.288138180731906,8.594882008373306 L 18.290557590563804,8.595240877848953 L 18.314922204541833,8.60008708139687 L 18.317283395942166,8.600678512348734 L 18.31937121680534,8.601929919334419 L 18.34002594380148,8.615731187981345 L 18.341990497826664,8.617188217464037 L 18.344935244252817,8.619857189983264 L 18.346244241721706,8.621166182604261 L 18.353830218285545,8.627391809169435 L 18.36198988441144,8.632843901911668 L 18.370644658054083,8.637469954197444 L 18.37971118901211,8.641225414614372 L 18.389102161636128,8.644074116025717 L 18.39872713572614,8.645988623879605 L 18.40849341752012,8.64695050041885 L 18.41830695238559,8.646950482246547 L 18.428073230617166,8.645988569537707 L 18.437698197616697,8.644074026037567 L 18.44708915969044,8.641225289846606 L 18.45615567673999,8.63746979585164 L 18.464810433249905,8.63284371151279 L 18.472970079183817,8.627391588551118 L 18.48055603269088,8.621165933891184 L 18.48749523689191,8.614226703990639 L 18.493720863457085,8.606640727426813 L 18.499172956199317,8.59848106130091 L 18.503799008485093,8.589826287658267 L 18.507554468902022,8.58075975670024 L 18.51040317031336,8.57136878407622 L 18.512317678167253,8.561743809986204 L 18.5132795547065,8.55197752819223 L 18.51327953653419,8.542163993326762 L 18.512317623825357,8.532397715095184 L 18.510403080325215,8.522772748095646 L 18.507554344134256,8.513381786021911 L 18.50379885013929,8.50431526897236 L 18.49917276580043,8.495660512462445 L 18.49372064283876,8.487500866528526 L 18.487494988178835,8.479914913021467 L 18.486872666297494,8.479228289190464 L 18.479933710809604,8.472289333702571 L 18.47266264739293,8.465699201434381 L 18.465076991354763,8.459473767394103 L 18.457195015826287,8.453628028066204 L 18.453182278347015,8.450801900570513 L 18.428445278347017,8.434272900570512 L 18.42429837658593,8.43164686679431 L 18.415880709957555,8.42660144982022 L 18.407225606605515,8.421975162985847 L 18.398353919138387,8.417779152333528 L 18.389287021977587,8.414023527247787 L 18.380046759860306,8.410717336098939 L 18.370655395209177,8.407868544442914 L 18.361135554496048,8.405484015830055 L 18.356346364495188,8.40440860579428 L 18.327166364495188,8.398604605794281 L 18.322330586773962,8.397765556534745 L 18.31262368734327,8.396325738500252 L 18.30285783385937,8.395363928611793 L 18.29305655104247,8.394882443749145 L 18.28815,8.394762 L 17.83065,8.394762 L 17.82574344895753,8.394882443749145 L 17.81594216614063,8.395363928611793 L 17.80617631265673,8.396325738500252 L 17.79646941322604,8.397765556534745 L 17.791633635504812,8.398604605794281 L 17.762453635504812,8.40440860579428 L 17.75766444550395,8.405484015830055 L 17.74814460479082,8.407868544442914 L 17.738753240139694,8.410717336098939 L 17.729512978022413,8.414023527247787 L 17.720446080861613,8.417779152333528 L 17.711574393394486,8.421975162985847 L 17.702919290042445,8.42660144982022 L 17.69450162341407,8.43164686679431 L 17.690354721652984,8.434272900570512 L 17.665617721652985,8.450801900570513 L 17.661604984173714,8.453628028066204 L 17.653723008645237,8.459473767394103 L 17.64613735260707,8.465699201434381 L 17.638866289190396,8.472289333702571 L 17.631927333702503,8.479228289190464 L 17.631305011821166,8.479914913021467 L 17.62507935716124,8.487500866528526 L 17.61962723419957,8.495660512462445 L 17.61500114986071,8.50431526897236 L 17.611245655865744,8.513381786021911 L 17.608396919674785,8.522772748095646 L 17.606482376174643,8.532397715095184 L 17.60552046346581,8.542163993326762 L 17.6055204452935,8.55197752819223 L 17.606482321832747,8.561743809986204 L 17.60839682968664,8.57136878407622 L 17.61124553109798,8.58075975670024 L 17.615000991514908,8.589826287658267 L 17.619627043800683,8.59848106130091 L 17.625079136542915,8.606640727426813 L 17.63130476310809,8.614226703990639 L 17.638243967309116,8.621165933891184 L 17.645829920816183,8.627391588551118 L 17.653989566750095,8.63284371151279 L 17.66264432326001,8.63746979585164 L 17.67171084030956,8.641225289846606 L 17.681101802383303,8.644074026037567 L 17.690726769382835,8.645988569537707 L 17.700493047614412,8.646950482246547 L 17.71030658247988,8.64695050041885 L 17.72007286427386,8.645988623879605 L 17.729697838363872,8.644074116025717 L 17.73908881098789,8.641225414614372 L 17.748155341945917,8.637469954197444 L 17.75681011558856,8.632843901911668 L 17.764969781714456,8.627391809169435 L 17.772555758278294,8.621166182604261 L 17.773864755747184,8.619857189983264 z" /></g>
                        <circle r="0.509901" cx="18.9836" cy="6.441962" stroke-width="0.1" fill="none" stroke="black"/><rect width="21.0" height="18.0" x="1.5836" y="1.841962" stroke-width="0.1" fill="none" stroke="black"/>
                    </g>
                    </svg>