<svg xmlns="http://www.w3.org/2000/svg" viewBox="0 0 45.208201 24.064963" width="45.208201mm" height="24.064963mm">
                    <g stroke-linecap="round" fill-rule="evenodd">
                        <path fill-rule="evenodd" fill="#66cc99" stroke="#555555" stroke-width="0.0" opacity="1" d="M 18.783409497428448,7.4332347588899506 L 18.783218994856895,7.424507517779902 L 18.782076994856894,7.398361517779902 L 18.781506329615116,7.389656382434204 L 18.779985922148214,7.372279279035673 L 18.779036179923086,7.363607310982839 L 18.775620179923088,7.337659310982838 L 18.774292408123465,7.329032701748155 L 18.771261744973256,7.3118456295651715 L 18.769558853622677,7.303285166616872 L 18.763893853622676,7.277734166616872 L 18.761820292170434,7.269260655063636 L 18.757305634793298,7.252412114804477 L 18.754864538868397,7.244037086098552 L 18.746994538868396,7.219076086098552 L 18.744189834946514,7.210813501763478 L 18.73822270076583,7.194418531626068 L 18.735060270507038,7.186286145823732 L 18.72504527050704,7.162107145823732 L 18.721530543613195,7.154119173187554 L 18.714155962566213,7.138304161654711 L 18.710296108413072,7.1304771227580455 L 18.69821110841307,7.107262122758046 L 18.694013131134078,7.099610322715752 L 18.685287339474858,7.084497158584811 L 18.68075952509463,7.0770357944961635 L 18.66669752509463,7.054963794496164 L 18.661851941663205,7.047711995947398 L 18.651849216928884,7.033426552926026 L 18.646692075625985,7.02639290845342 L 18.630760075625986,7.00562890845342 L 18.62529789458996,6.998822873777159 L 18.61408182755667,6.985455564406596 L 18.608327941559406,6.9788942897122945 L 18.590646941559402,6.959598289712295 L 18.58461082701701,6.953292788618841 L 18.57226921138117,6.940951172982998 L 18.56596371028772,6.934915058440611 L 18.54666771028772,6.917234058440611 L 18.540106435593323,6.911480172443263 L 18.526739126222743,6.900264105409972 L 18.519933091546566,6.894801924374029 L 18.499169091546566,6.878869924374029 L 18.4921354470741,6.87371278307122 L 18.477850004052744,6.863710058336891 L 18.47059820550385,6.8588644749053715 L 18.44852620550385,6.8448024749053715 L 18.441064841415255,6.84027466052518 L 18.425951677284313,6.831548868865952 L 18.41829987724197,6.8273508915869145 L 18.39508487724197,6.815265891586915 L 18.387257838345302,6.811406037433773 L 18.371442826812462,6.80403145638679 L 18.363454854176283,6.800516729492948 L 18.339275854176282,6.790501729492948 L 18.33114346837376,6.787339299234085 L 18.314748498236344,6.78137216505342 L 18.306485913901447,6.778567461131617 L 18.28152491390145,6.7706974611316175 L 18.27314988519563,6.7682563652067405 L 18.256301344936475,6.7637417078295945 L 18.24782783338314,6.761668146377325 L 18.222276833383145,6.756003146377325 L 18.213716370434806,6.7543002550267355 L 18.196529298251807,6.751269591876529 L 18.187902689017147,6.749941820076913 L 18.161954689017147,6.746525820076912 L 18.153282720964327,6.745576077851795 L 18.135905617565797,6.744055670384891 L 18.127200482220083,6.743485005143106 L 18.101054482220082,6.742343005143106 L 18.09232724111004,6.742152502571553 L 18.07487275888996,6.742152502571553 L 18.066145517779916,6.742343005143106 L 18.039999517779915,6.743485005143106 L 18.031294382434204,6.744055670384891 L 18.013917279035674,6.745576077851795 L 18.005245310982854,6.746525820076912 L 17.979297310982854,6.749941820076913 L 17.970670701748194,6.751269591876529 L 17.953483629565195,6.7543002550267355 L 17.944923166616856,6.756003146377325 L 17.919372166616856,6.761668146377325 L 17.910898655063527,6.7637417078295945 L 17.894050114804372,6.7682563652067405 L 17.88567508609855,6.7706974611316175 L 17.86071408609855,6.778567461131617 L 17.852451501763657,6.78137216505342 L 17.83605653162624,6.787339299234085 L 17.82792414582372,6.790501729492948 L 17.80374514582372,6.800516729492948 L 17.79575717318754,6.80403145638679 L 17.779942161654695,6.811406037433773 L 17.77211512275803,6.815265891586915 L 17.74890012275803,6.8273508915869145 L 17.741248322715684,6.831548868865952 L 17.726135158584743,6.84027466052518 L 17.718673794496148,6.8448024749053715 L 17.69660179449615,6.8588644749053715 L 17.689349995947257,6.863710058336891 L 17.6750645529259,6.87371278307122 L 17.668030908453435,6.878869924374029 L 17.647266908453435,6.894801924374029 L 17.640460873777254,6.900264105409972 L 17.627093564406678,6.911480172443263 L 17.62053228971228,6.917234058440611 L 17.60123628971228,6.934915058440611 L 17.594930788618832,6.940951172982998 L 17.582589172982992,6.953292788618841 L 17.576553058440595,6.959598289712295 L 17.558872058440596,6.9788942897122945 L 17.55311817244333,6.985455564406596 L 17.54190210541004,6.998822873777159 L 17.536439924374015,7.00562890845342 L 17.520507924374016,7.02639290845342 L 17.515350783071117,7.033426552926026 L 17.505348058336793,7.047711995947398 L 17.50050247490537,7.054963794496164 L 17.486440474905372,7.0770357944961635 L 17.481912660525143,7.084497158584811 L 17.473186868865923,7.099610322715752 L 17.46898889158693,7.107262122758046 L 17.45690389158693,7.1304771227580455 L 17.453044037433788,7.138304161654711 L 17.445669456386806,7.154119173187554 L 17.442154729492962,7.162107145823732 L 17.432139729492963,7.186286145823732 L 17.428977299234166,7.194418531626068 L 17.423010165053487,7.210813501763478 L 17.4202054611316,7.219076086098552 L 17.4123354611316,7.244037086098552 L 17.409894365206704,7.252412114804477 L 17.405379707829564,7.269260655063636 L 17.403306146377325,7.277734166616872 L 17.397641146377325,7.303285166616872 L 17.395938255026742,7.3118456295651715 L 17.392907591876536,7.329032701748155 L 17.391579820076913,7.337659310982838 L 17.38816382007691,7.363607310982839 L 17.387214077851787,7.372279279035673 L 17.385693670384885,7.389656382434204 L 17.385123005143107,7.398361517779902 L 17.383981005143106,7.424507517779902 L 17.383790502571554,7.4332347588899506 L 17.383790502571554,7.450689241110049 L 17.383981005143106,7.459416482220099 L 17.385123005143107,7.485562482220098 L 17.385693670384885,7.494267617565796 L 17.387214077851787,7.511644720964328 L 17.38816382007691,7.520316689017162 L 17.391579820076913,7.546264689017161 L 17.392907591876536,7.554891298251845 L 17.395938255026742,7.572078370434828 L 17.397641146377325,7.580638833383128 L 17.403306146377325,7.606189833383128 L 17.405379707829564,7.614663344936363 L 17.409894365206704,7.631511885195524 L 17.4123354611316,7.6398869139014485 L 17.4202054611316,7.664847913901448 L 17.423010165053487,7.673110498236522 L 17.428977299234166,7.689505468373932 L 17.432139729492963,7.697637854176268 L 17.442154729492962,7.721816854176268 L 17.445670202027813,7.729806425843663 L 17.453046412465618,7.7456245673304425 L 17.456907150368572,7.753453137149826 L 17.46899215036857,7.7766671371498255 L 17.47318835390182,7.7843155572134926 L 17.48191030994396,7.799422128374636 L 17.486436062452853,7.806880279472113 L 17.500498062452852,7.828953279472112 L 17.50534467454706,7.836206859275014 L 17.51534960550764,7.850495765312247 L 17.520507924374016,7.85753109154658 L 17.536439924374015,7.878295091546581 L 17.54190210541004,7.885101126222842 L 17.55311817244333,7.898468435593404 L 17.558872058440596,7.905029710287705 L 17.576553058440595,7.924325710287705 L 17.582589172982992,7.93063121138116 L 17.594930788618832,7.942972827017002 L 17.60123628971228,7.94900894155939 L 17.62053228971228,7.966689941559389 L 17.627093564406678,7.972443827556737 L 17.640460873777254,7.983659894590027 L 17.647266908453435,7.989122075625971 L 17.668030908453435,8.00505407562597 L 17.675066234687655,8.010212394492276 L 17.68935514072488,8.020217325452863 L 17.696608720527887,8.025063937547147 L 17.718681720527886,8.039125937547148 L 17.726139871625335,8.043651690056034 L 17.741246442786483,8.052373646098182 L 17.74889486285019,8.056569849631444 L 17.77210886285019,8.068654849631443 L 17.77993743266949,8.072515587534369 L 17.795755574156253,8.079891797972172 L 17.80374514582372,8.083407270507053 L 17.82792414582372,8.093422270507052 L 17.83605653162624,8.096584700765915 L 17.852451501763657,8.10255183494658 L 17.86071408609855,8.105356538868383 L 17.88567508609855,8.113226538868382 L 17.894050114804372,8.11566763479326 L 17.910898655063527,8.120182292170405 L 17.919372166616856,8.122255853622676 L 17.944923166616856,8.127920853622674 L 17.953483629565195,8.129623744973264 L 17.970670701748194,8.132654408123472 L 17.979297310982854,8.133982179923088 L 18.005245310982854,8.137398179923087 L 18.013917279035674,8.138347922148204 L 18.031294382434204,8.139868329615108 L 18.039999517779915,8.140438994856893 L 18.066145517779916,8.141580994856895 L 18.07487275888996,8.141771497428447 L 18.09232724111004,8.141771497428447 L 18.101054482220082,8.141580994856895 L 18.127200482220083,8.140438994856893 L 18.135905617565797,8.139868329615108 L 18.153282720964327,8.138347922148204 L 18.161954689017147,8.137398179923087 L 18.187902689017147,8.133982179923088 L 18.196529298251807,8.132654408123472 L 18.213716370434806,8.129623744973264 L 18.222276833383145,8.127920853622674 L 18.24782783338314,8.122255853622676 L 18.256301344936475,8.120182292170405 L 18.27314988519563,8.11566763479326 L 18.28152491390145,8.113226538868382 L 18.306485913901447,8.105356538868383 L 18.314748498236344,8.10255183494658 L 18.33114346837376,8.096584700765915 L 18.339275854176282,8.093422270507052 L 18.363454854176283,8.083407270507053 L 18.371442826812462,8.07989254361321 L 18.387257838345302,8.072517962566227 L 18.39508487724197,8.068658108413086 L 18.41829987724197,8.056573108413085 L 18.425951677284313,8.052375131134047 L 18.441064841415255,8.04364933947482 L 18.44852620550385,8.039121525094629 L 18.47059820550385,8.025059525094628 L 18.477850004052744,8.020213941663108 L 18.4921354470741,8.01021121692878 L 18.499169091546566,8.00505407562597 L 18.519933091546566,7.989122075625971 L 18.526739126222743,7.983659894590027 L 18.540106435593323,7.972443827556737 L 18.54666771028772,7.966689941559389 L 18.56596371028772,7.94900894155939 L 18.57226921138117,7.942972827017002 L 18.58461082701701,7.93063121138116 L 18.590646941559402,7.924325710287705 L 18.608327941559406,7.905029710287705 L 18.61408182755667,7.898468435593404 L 18.62529789458996,7.885101126222842 L 18.630760075625986,7.878295091546581 L 18.646692075625985,7.85753109154658 L 18.651850394492357,7.850495765312247 L 18.66185532545294,7.836206859275014 L 18.66670193754715,7.828953279472112 L 18.680763937547148,7.806880279472113 L 18.68528969005604,7.799422128374636 L 18.694011646098183,7.7843155572134926 L 18.69820784963143,7.7766671371498255 L 18.71029284963143,7.753453137149826 L 18.714153587534383,7.7456245673304425 L 18.721529797972188,7.729806425843663 L 18.72504527050704,7.721816854176268 L 18.735060270507038,7.697637854176268 L 18.73822270076583,7.689505468373932 L 18.744189834946514,7.673110498236522 L 18.746994538868396,7.664847913901448 L 18.754864538868397,7.6398869139014485 L 18.757305634793298,7.631511885195524 L 18.761820292170434,7.614663344936363 L 18.763893853622676,7.606189833383128 L 18.769558853622677,7.580638833383128 L 18.771261744973256,7.572078370434828 L 18.774292408123465,7.554891298251845 L 18.775620179923088,7.546264689017161 L 18.779036179923086,7.520316689017162 L 18.779985922148214,7.511644720964328 L 18.781506329615116,7.494267617565796 L 18.782076994856894,7.485562482220098 L 18.783218994856895,7.459416482220099 L 18.783409497428448,7.450689241110049 L 18.783409497428448,7.4332347588899506 z M 18.383409497428445,7.4376004586376325 L 18.383409497428445,7.446323541362368 L 18.382648382491098,7.463749207870305 L 18.38188854052554,7.472433624836967 L 18.379611745090127,7.489728205621057 L 18.378097135358946,7.498317648092448 L 18.374321360031157,7.5153476278630125 L 18.372065105496198,7.523767889289625 L 18.366819210167257,7.5404061095317605 L 18.363837063495712,7.548599691935808 L 18.357162541371434,7.564713847746372 L 18.353476193260477,7.572619150405571 L 18.345421676846087,7.588091019999586 L 18.341062774178354,7.595640711034082 L 18.331689189075515,7.610354346646011 L 18.32668910415241,7.6174953997852874 L 18.316069828973323,7.631335384082228 L 18.310464466065376,7.638015855935887 L 18.298681240624948,7.65087537282399 L 18.292513372823997,7.657043240624949 L 18.27965385593593,7.668826466065332 L 18.27297338408208,7.674431828973427 L 18.259132584989562,7.685051729336649 L 18.25199326093425,7.690050712791898 L 18.23728127342406,7.699423672576606 L 18.229728290622145,7.70378449032227 L 18.214256403105885,7.711838669113308 L 18.206352663154707,7.715524203627348 L 18.19023769193588,7.7221990634956805 L 18.182044109531507,7.7251812101673405 L 18.16540588928969,7.730427105496176 L 18.156985627863033,7.73268336003115 L 18.139955648092478,7.736459135358929 L 18.13136620562099,7.737973745090127 L 18.114071624836832,7.7402505405255635 L 18.10538720787044,7.74101038249109 L 18.087961541362375,7.741771497428447 L 18.079238458637626,7.741771497428447 L 18.06181279212956,7.74101038249109 L 18.05312837516317,7.7402505405255635 L 18.03583379437901,7.737973745090127 L 18.027244351907523,7.736459135358929 L 18.010214372136964,7.73268336003115 L 18.001794110710307,7.730427105496176 L 17.985155890468494,7.7251812101673405 L 17.976962308064117,7.7221990634956805 L 17.96084815225369,7.715524541371464 L 17.95294284959431,7.711838193260409 L 17.93747098000054,7.703783676846154 L 17.92992128896576,7.699424774178252 L 17.91520765335402,7.69005118907553 L 17.908066600214585,7.685051104152322 L 17.894226615917923,7.674431828973427 L 17.887546144064068,7.668826466065332 L 17.874686627176,7.657043240624949 L 17.86851875937505,7.65087537282399 L 17.85673553393462,7.638015855935887 L 17.85113017102668,7.631335384082228 L 17.84051089584759,7.6174953997852874 L 17.835510810924486,7.610354346646011 L 17.826137225821643,7.595640711034082 L 17.821778323153914,7.588091019999586 L 17.813723806739524,7.572619150405571 L 17.810037458628564,7.564713847746372 L 17.80336293650429,7.548599691935808 L 17.80038078983274,7.5404061095317605 L 17.795134894503803,7.523767889289625 L 17.79287863996884,7.5153476278630125 L 17.789102864641055,7.498317648092448 L 17.787588254909874,7.489728205621057 L 17.78531145947446,7.472433624836967 L 17.784551617508903,7.463749207870305 L 17.783790502571552,7.446323541362368 L 17.783790502571552,7.4376004586376325 L 17.784551617508903,7.420174792129695 L 17.78531145947446,7.411490375163034 L 17.787588254909874,7.394195794378944 L 17.789102864641055,7.385606351907551 L 17.79287863996884,7.368576372136988 L 17.795134894503803,7.360156110710375 L 17.80038078983274,7.34351789046824 L 17.80336293650429,7.335324308064193 L 17.81003779637265,7.319209336845294 L 17.813723330886692,7.3113055968941225 L 17.82177750967762,7.295833709378086 L 17.826138327423497,7.288280726575785 L 17.835511287208064,7.273568739065818 L 17.84051027066329,7.266429415010512 L 17.85113017102668,7.252588615917772 L 17.85673553393462,7.2459081440641135 L 17.86851875937505,7.233048627176009 L 17.874686627176,7.22688075937505 L 17.887546144064068,7.215097533934668 L 17.894226615917923,7.2094921710265725 L 17.908067415010436,7.198872270663351 L 17.915206739065752,7.193873287208103 L 17.92991872657594,7.184500327423394 L 17.937471709377856,7.180139509677731 L 17.952943596894116,7.172085330886691 L 17.960847336845294,7.168399796372652 L 17.976962308064117,7.161724936504319 L 17.985155890468494,7.158742789832659 L 18.001794110710307,7.153496894503824 L 18.010214372136964,7.15124063996885 L 18.027244351907523,7.14746486464107 L 18.03583379437901,7.145950254909873 L 18.05312837516317,7.143673459474437 L 18.06181279212956,7.142913617508911 L 18.079238458637626,7.142152502571553 L 18.087961541362375,7.142152502571553 L 18.10538720787044,7.142913617508911 L 18.114071624836832,7.143673459474437 L 18.13136620562099,7.145950254909873 L 18.139955648092478,7.14746486464107 L 18.156985627863033,7.15124063996885 L 18.16540588928969,7.153496894503824 L 18.182044109531507,7.158742789832659 L 18.19023769193588,7.161724936504319 L 18.206352663154707,7.168399796372652 L 18.214256403105885,7.172085330886691 L 18.229728290622145,7.180139509677731 L 18.23728127342406,7.184500327423394 L 18.25199326093425,7.193873287208103 L 18.259132584989562,7.198872270663351 L 18.27297338408208,7.2094921710265725 L 18.27965385593593,7.215097533934668 L 18.292513372823997,7.22688075937505 L 18.298681240624948,7.233048627176009 L 18.310464466065376,7.2459081440641135 L 18.316069828973323,7.252588615917772 L 18.32668972933671,7.266429415010512 L 18.331688712791934,7.273568739065818 L 18.3410616725765,7.288280726575785 L 18.34542249032238,7.295833709378086 L 18.35347666911331,7.3113055968941225 L 18.357162203627347,7.319209336845294 L 18.363837063495712,7.335324308064193 L 18.366819210167257,7.34351789046824 L 18.372065105496198,7.360156110710375 L 18.374321360031157,7.368576372136988 L 18.378097135358946,7.385606351907551 L 18.379611745090127,7.394195794378944 L 18.38188854052554,7.411490375163034 L 18.382648382491098,7.420174792129695 L 18.383409497428445,7.4376004586376325 z" />
                        <circle r="0.509901" cx="18.9836" cy="6.441962" stroke-width="0.1" fill="none" stroke="black"/><rect width="21.0" height="18.0" x="1.5836" y="1.841962" stroke-width="0.1" fill="none" stroke="black"/>
                    </g>
                    </svg>