<svg xmlns="http://www.w3.org/2000/svg" viewBox="0 0 45.208201 24.064963" width="45.208201mm" height="24.064963mm">
                    <g stroke-linecap="round">
                        <path fill-rule="evenodd" fill="#66cc99" stroke="#555555" stroke-width="0.0" opacity="0.6" d="M 42.3852,13.304162 L 42.384438,13.286731 L 42.382161,13.269433 L 42.378385,13.252399 L 42.373138,13.235758 L 42.366461,13.219639 L 42.358405,13.204162 L 42.34903,13.189447 L 42.338408,13.175605 L 42.326621,13.162741 L 42.313757,13.150954 L 42.299915,13.140332 L 42.2852,13.130957 L 42.269723,13.122901 L 42.253604,13.116224 L 42.236963,13.110977 L 42.219929,13.107201 L 42.202631,13.104924 L 42.1852,13.104162 L 42.167769,13.104924 L 42.150471,13.107201 L 42.133437,13.110977 L 42.116796,13.116224 L 42.100677,13.122901 L 42.0852,13.130957 L 42.070485,13.140332 L 42.056643,13.150954 L 42.043779,13.162741 L 42.031992,13.175605 L 42.02137,13.189447 L 42.011995,13.204162 L 42.003939,13.219639 L 41.997262,13.235758 L 41.992015,13.252399 L 41.988239,13.269433 L 41.985962,13.286731 L 41.9852,13.304162 L 41.985962,13.321593 L 41.988239,13.338891 L 41.992015,13.355925 L 41.997262,13.372566 L 42.003939,13.388685 L 42.011995,13.404161 L 42.02137,13.418877 L 42.031992,13.432719 L 42.043779,13.445583 L 42.056643,13.45737 L 42.070485,13.467992 L 42.085201,13.477367 L 42.100677,13.485423 L 42.116796,13.4921 L 42.133437,13.497347 L 42.150471,13.501123 L 42.167769,13.5034 L 42.1852,13.504162 L 42.202631,13.5034 L 42.219929,13.501123 L 42.236963,13.497347 L 42.253604,13.4921 L 42.269723,13.485423 L 42.2852,13.477367 L 42.299915,13.467992 L 42.313757,13.45737 L 42.326621,13.445583 L 42.338408,13.432719 L 42.34903,13.418877 L 42.358405,13.404161 L 42.366461,13.388685 L 42.373138,13.372566 L 42.378385,13.355925 L 42.382161,13.338891 L 42.384438,13.321593 L 42.3852,13.304162 z M 42.332921,13.330209 L 42.330088,13.342984 L 42.326153,13.355465 L 42.321146,13.367554 L 42.315103,13.379161 L 42.308072,13.390198 L 42.300106,13.40058 L 42.291266,13.410228 L 42.281618,13.419068 L 42.271236,13.427034 L 42.2602,13.434065 L 42.248592,13.440108 L 42.236503,13.445115 L 42.224022,13.44905 L 42.211247,13.451883 L 42.198273,13.453591 L 42.1852,13.454162 L 42.172127,13.453591 L 42.159153,13.451883 L 42.146378,13.44905 L 42.133897,13.445115 L 42.121808,13.440108 L 42.110201,13.434065 L 42.099164,13.427034 L 42.088782,13.419068 L 42.079134,13.410228 L 42.070294,13.40058 L 42.062328,13.390198 L 42.055297,13.379161 L 42.049254,13.367554 L 42.044247,13.355465 L 42.040312,13.342984 L 42.037479,13.330209 L 42.035771,13.317235 L 42.0352,13.304162 L 42.035771,13.291089 L 42.037479,13.278115 L 42.040312,13.26534 L 42.044247,13.252859 L 42.049254,13.24077 L 42.055297,13.229162 L 42.062328,13.218126 L 42.070294,13.207744 L 42.079134,13.198096 L 42.088782,13.189256 L 42.099164,13.18129 L 42.1102,13.174259 L 42.121808,13.168216 L 42.133897,13.163209 L 42.146378,13.159274 L 42.159153,13.156441 L 42.172127,13.154733 L 42.1852,13.154162 L 42.198273,13.154733 L 42.211247,13.156441 L 42.224022,13.159274 L 42.236503,13.163209 L 42.248592,13.168216 L 42.2602,13.174259 L 42.271236,13.18129 L 42.281618,13.189256 L 42.291266,13.198096 L 42.300106,13.207744 L 42.308072,13.218126 L 42.315103,13.229162 L 42.321146,13.24077 L 42.326153,13.252859 L 42.330088,13.26534 L 42.332921,13.278115 L 42.334629,13.291089 L 42.3352,13.304162 L 42.334629,13.317235 L 42.332921,13.330209 z" />
                    </g>
                    </svg>