<svg xmlns="http://www.w3.org/2000/svg" viewBox="0 0 23.749 20.768162" width="23.749mm" height="20.768162mm">
                    <g stroke-linecap="round">
                        <path fill-rule="evenodd" fill="#66cc99" stroke="#555555" stroke-width="0.0" opacity="0.6" d="M 19.441226441517873,6.4870342704385 L 19.443440700176478,6.441962 L 19.441226441517873,6.3968897295615 L 19.4346049900634,6.352251529726446 L 19.423640114010215,6.3084772907608 L 19.408437411108732,6.265988582515352 L 19.38914329169847,6.225194594477043 L 19.365943568696647,6.186488195051036 L 19.33906166811806,6.150242148022935 L 19.308756477360355,6.116805522639639 L 19.27531985197705,6.0865003318819255 L 19.239073804948987,6.05961843130336 L 19.200367405522943,6.036418708301507 L 19.159573417484655,6.017124588891275 L 19.1170847092392,6.001921885989785 L 19.073310470273555,5.990957009936594 L 19.02867227043845,5.984335558482118 L 18.9836,5.982121299823523 L 18.938527729561553,5.984335558482118 L 18.893889529726447,5.990957009936594 L 18.8501152907608,6.001921885989785 L 18.807626582515343,6.017124588891275 L 18.76683259447706,6.036418708301507 L 18.728126195051015,6.05961843130336 L 18.69188014802295,6.0865003318819255 L 18.658443522639647,6.116805522639639 L 18.62813833188194,6.150242148022935 L 18.60125643130335,6.186488195051036 L 18.578056708301528,6.225194594477043 L 18.558762588891266,6.265988582515352 L 18.543559885989787,6.3084772907608 L 18.5325950099366,6.352251529726446 L 18.525973558482125,6.3968897295615 L 18.523759299823524,6.441962 L 18.525973558482125,6.4870342704385 L 18.5325950099366,6.531672470273555 L 18.543559885989787,6.5754467092392 L 18.558762588891266,6.617935417484649 L 18.578056708301528,6.658729405522958 L 18.60125643130335,6.697435804948963 L 18.62813833188194,6.733681851977066 L 18.658443522639647,6.76711847736036 L 18.69188014802295,6.797423668118075 L 18.728126195051015,6.824305568696641 L 18.76683259447706,6.847505291698493 L 18.807626582515343,6.866799411108725 L 18.8501152907608,6.8820021140102146 L 18.893889529726447,6.892966990063407 L 18.938527729561553,6.899588441517882 L 18.9836,6.901802700176478 L 19.02867227043845,6.899588441517882 L 19.073310470273555,6.892966990063407 L 19.1170847092392,6.8820021140102146 L 19.159573417484655,6.866799411108725 L 19.200367405522943,6.847505291698493 L 19.239073804948987,6.824305568696641 L 19.275319851977095,6.797423668118045 L 19.308756477360323,6.767118477360397 L 19.33906166811806,6.733681851977066 L 19.365943568696647,6.697435804948963 L 19.38914329169847,6.658729405522958 L 19.408437411108732,6.617935417484649 L 19.423640114010215,6.5754467092392 L 19.4346049900634,6.531672470273555 L 19.441226441517873,6.4870342704385 z" />
                    </g>
                    </svg>