<svg xmlns="http://www.w3.org/2000/svg" viewBox="0 0 23.749 20.768162" width="23.749mm" height="20.768162mm">
                    <g stroke-linecap="round" fill-rule="nonzero">
                        <g><path fill-rule="evenodd" fill="#66cc99" stroke="#555555" stroke-width="0.0" opacity="1" d="M 18.5134,7.748214957317397 L 19.339652957317398,6.921962 L 20.0406,6.921962 L 20.043054122852325,6.921931881869622 L 20.04796089028506,6.9218114274901374 L 20.05041353486547,6.921721091241032 L 20.075309888509185,6.920498011815772 L 20.080204835109384,6.9201369388624805 L 20.0899711151222,6.9191750442384405 L 20.094842448534816,6.918574222567693 L 20.1194990366832,6.914916763215371 L 20.12433502143927,6.9140776402592135 L 20.133959991984025,6.912163114582196 L 20.138748977772714,6.9110877118613345 L 20.162928344003245,6.9050310959149 L 20.16765879373838,6.903722004168667 L 20.177049761087314,6.900873285367504 L 20.18171027870111,6.899333658312574 L 20.20517956249921,6.890936214294456 L 20.209758920396432,6.889169761027306 L 20.218825444400206,6.885414283821366 L 20.22331261050676,6.883425259882577 L 20.245845789839834,6.872767859769195 L 20.250229954179467,6.87056105689165 L 20.25888471925579,6.86593498857931 L 20.26315531999248,6.863515723144516 L 20.284535388025656,6.850701003524877 L 20.288682136908292,6.848075103755102 L 20.296841792938174,6.842622995903164 L 20.300854700085416,6.839796787821002 L 20.320875755076006,6.824948161450297 L 20.32474515304312,6.821928453638524 L 20.33233111807862,6.815702813025929 L 20.336047685147,6.812496880225107 L 20.354516913390814,6.795757347492352 L 20.35631507237977,6.794086943252049 L 20.359869855013713,6.790702508835219 L 20.361626478658707,6.788988478658691 L 20.56931067811866,6.581304279198736 L 21.173626478658704,5.976988478658691 L 21.1753405088353,5.975231855013631 L 21.17872494325213,5.971677072379679 L 21.180395347492368,5.969878913390786 L 21.19713488022512,5.951409685146965 L 21.200340813025907,5.947693118078627 L 21.206566453638466,5.940107153043181 L 21.209586161450236,5.936237755076073 L 21.22443478782095,5.916216700085491 L 21.227260995903105,5.912203792938277 L 21.232713103755103,5.904044136908323 L 21.235339003524945,5.899897388025582 L 21.248153723144576,5.878517319992401 L 21.250572988579407,5.874246719255619 L 21.255199056891694,5.8655919541793615 L 21.25740585976915,5.861207789839886 L 21.26806325988254,5.838674610506818 L 21.2700522838213,5.834187444400348 L 21.273807761027278,5.825120920396515 L 21.275574214294494,5.820541562499151 L 21.283971658312606,5.7970722787010525 L 21.285511285367534,5.792411761087246 L 21.288360004168673,5.783020793738372 L 21.289669095914885,5.778290344003305 L 21.295725711861326,5.754110977772765 L 21.296801114582195,5.749321991984025 L 21.29871564025922,5.739697021439217 L 21.29955476321538,5.734861036683149 L 21.30321222256769,5.710204448534764 L 21.30381304423843,5.705333115122199 L 21.304774938862472,5.695566835109405 L 21.305136011815772,5.6906718885091765 L 21.30635909124103,5.665775534865468 L 21.30644942749013,5.663322890285053 L 21.306569881869613,5.658416122852318 L 21.306329045667873,5.648605543640063 L 21.305127764238893,5.638865811123997 L 21.302977606579557,5.629290724252537 L 21.29989927988349,5.619972496346526 L 21.29592243011956,5.611000867034569 L 21.291085356524988,5.602462238011316 L 21.285434642762677,5.594438840941958 L 21.279024708295168,5.587007945526317 L 21.271917284295395,5.5802411153493745 L 21.264180819141806,5.574203518684857 L 21.255889819223,5.568953300889142 L 21.247124131400525,5.564541024429657 L 21.237968174039914,5.561009181940705 L 21.22851012401572,5.558391786996156 L 21.218841067519946,5.556714046540134 L 21.209054122852326,5.555992118130378 L 21.199243543640062,5.5562329543321285 L 21.189503811124,5.557434235761098 L 21.179928724252537,5.55958439342045 L 21.170610496346534,5.562662720116519 L 21.16163886703457,5.566639569880433 L 21.153100238011316,5.571476643475011 L 21.145076840941964,5.577127357237324 L 21.137645945526316,5.583537291704833 L 21.130879115349366,5.590644715704597 L 21.124841518684864,5.598381180858188 L 21.119591300889148,5.606672180776998 L 21.115179024429665,5.615437868599474 L 21.111647181940704,5.624593825960085 L 21.109029786996157,5.634051875984281 L 21.107352046540125,5.643720932480052 L 21.106630118130386,5.653507877147682 L 21.10653978188129,5.657187767965935 L 21.105497374954222,5.678406448421851 L 21.105016717477813,5.683286645677939 L 21.102079664319337,5.703086649757959 L 21.101122978360802,5.707896234858848 L 21.096259328137652,5.727313014955677 L 21.09483582710564,5.732005668968201 L 21.08809241942814,5.750852230875402 L 21.086215812415986,5.755382760975368 L 21.077657589986412,5.773477601999066 L 21.075345949745298,5.777802376705609 L 21.065055332924096,5.794971233635075 L 21.062330921813132,5.799048603003613 L 21.05040701486586,5.815126130360938 L 21.047296070453434,5.818916827095389 L 21.03302929062237,5.834657792940185 L 21.03133732828435,5.836434916558415 L 20.427889321881338,6.439882922961429 L 20.22107291655831,6.646699328284457 L 20.219295792940365,6.648391290622212 L 20.203554827095406,6.66265807045342 L 20.1997641303609,6.66576901486589 L 20.1836866030035,6.677692921813205 L 20.179609233635126,6.680417332924053 L 20.162440376705693,6.690707949745245 L 20.158115601999118,6.693019589986392 L 20.14002076097536,6.70157781241598 L 20.1354902308753,6.703454419428169 L 20.116643668968216,6.710197827105634 L 20.1119510149557,6.711621328137643 L 20.0925342348589,6.716484978360787 L 20.087724649757938,6.717441664319336 L 20.067924645677984,6.720378717477806 L 20.063044448421778,6.720859374954224 L 20.04182576796624,6.7219017818812725 L 20.039372753761945,6.721962 L 19.29823160108009,6.721962 L 19.288429887047126,6.722443527332783 L 19.27872256887847,6.72388347195968 L 19.269203133354647,6.726267966426782 L 19.259963257843584,6.729574046748869 L 19.25109192739749,6.733769873565167 L 19.242674577778132,6.7388150387697445 L 19.23479227266373,6.744660954663731 L 19.22752092296143,6.751251321881346 L 18.342689321881338,7.636082922961429 L 18.336098954663722,7.64335427266372 L 18.330253038769737,7.651236577778123 L 18.325207873565166,7.659653927397482 L 18.321012046748876,7.6685252578435765 L 18.317705966426775,7.677765133354641 L 18.31532147195968,7.6872845688784714 L 18.313881527332782,7.696991887047127 L 18.3134,7.706793601080082 L 18.3134,8.54707094571235 L 18.313881527332782,8.556872659745306 L 18.31532147195968,8.56657997791396 L 18.317705966426775,8.576099413437799 L 18.321012046748876,8.585339288948857 L 18.325207873565166,8.59421061939495 L 18.33025303876975,8.602627969014309 L 18.336098954663722,8.610510274128712 L 18.342689321881338,8.617781623831004 L 18.349960671583638,8.624371991048626 L 18.35784297669804,8.630217906942606 L 18.3662603263174,8.635263072147183 L 18.375131656763493,8.63945889896348 L 18.38437153227456,8.642764979285568 L 18.39389096779838,8.64514947375267 L 18.403598285967036,8.646589418379568 L 18.4134,8.64707094571235 L 18.423201714032963,8.646589418379568 L 18.432909032201618,8.64514947375267 L 18.442428467725442,8.642764979285568 L 18.451668343236506,8.63945889896348 L 18.4605396736826,8.635263072147183 L 18.468957023301957,8.630217906942606 L 18.47683932841636,8.624371991048626 L 18.48411067811866,8.617781623831004 L 18.490701045336277,8.610510274128712 L 18.496546961230248,8.602627969014309 L 18.501592126434833,8.59421061939495 L 18.505787953251122,8.585339288948857 L 18.509094033573223,8.576099413437799 L 18.51147852804032,8.56657997791396 L 18.512918472667216,8.556872659745306 L 18.5134,8.54707094571235 L 18.5134,7.748214957317397 z" /><path fill-rule="evenodd" fill="#66cc99" stroke="#555555" stroke-width="0.0" opacity="1" d="M 17.6054,7.571716509787097 L 17.6054,8.54707094571235 L 17.605881527332784,8.556872659745306 L 17.60732147195968,8.56657997791396 L 17.609705966426773,8.576099413437799 L 17.613012046748878,8.585339288948857 L 17.617207873565167,8.59421061939495 L 17.622253038769752,8.602627969014309 L 17.628098954663724,8.610510274128712 L 17.63468932188134,8.617781623831004 L 17.641960671583636,8.624371991048626 L 17.64984297669804,8.630217906942606 L 17.6582603263174,8.635263072147183 L 17.667131656763495,8.63945889896348 L 17.67637153227456,8.642764979285568 L 17.685890967798382,8.64514947375267 L 17.695598285967037,8.646589418379568 L 17.7054,8.64707094571235 L 17.71520171403296,8.646589418379568 L 17.72490903220162,8.64514947375267 L 17.73442846772544,8.642764979285568 L 17.743668343236507,8.63945889896348 L 17.7525396736826,8.635263072147183 L 17.76095702330196,8.630217906942606 L 17.768839328416362,8.624371991048626 L 17.776110678118663,8.617781623831004 L 17.782701045336275,8.610510274128712 L 17.78854696123025,8.602627969014309 L 17.793592126434834,8.59421061939495 L 17.797787953251124,8.585339288948857 L 17.801094033573225,8.576099413437799 L 17.80347852804032,8.56657997791396 L 17.804918472667218,8.556872659745306 L 17.8054,8.54707094571235 L 17.8054,7.571716509787097 L 17.8054,7.56138924623774 L 17.80546021811871,7.558936232034065 L 17.806502625045777,7.537717551578149 L 17.806983282522186,7.532837354322061 L 17.809920335680662,7.513037350242041 L 17.810877021639197,7.508227765141152 L 17.81574067186235,7.4888109850443225 L 17.81716417289436,7.484118331031799 L 17.82390758057186,7.465271769124597 L 17.825784187584013,7.460741239024632 L 17.834342410013587,7.442646398000933 L 17.8366540502547,7.4383216232943905 L 17.846944667075903,7.421152766364925 L 17.84966907818687,7.4170753969963865 L 17.86159298513414,7.4009978696390615 L 17.864703929546565,7.3972071729046105 L 17.878970709377633,7.381466207059815 L 17.880662671715648,7.379689083441585 L 18.147475890593306,7.11287586456392 L 18.97112708344169,6.289224671715543 L 18.972904207059635,6.287532709377788 L 18.988645172904597,6.27326592954658 L 18.9924358696391,6.27015498513411 L 19.0085133969965,6.258231078186795 L 19.012590766364873,6.255506667075947 L 19.029759623294307,6.245216050254755 L 19.034084398000882,6.242904410013609 L 19.05217923902464,6.23434618758402 L 19.0567097691247,6.232469580571831 L 19.075556331031784,6.225726172894366 L 19.0802489850443,6.224302671862357 L 19.0996657651411,6.219439021639213 L 19.104475350242062,6.2184823356806636 L 19.124275354322016,6.215545282522194 L 19.129155551578222,6.215064625045776 L 19.15037423203376,6.2140222181187275 L 19.152827246238054,6.213962 L 19.893968398919924,6.213962 L 19.903770112952888,6.213480472667217 L 19.913477431121542,6.21204052804032 L 19.922996866645367,6.209656033573218 L 19.93223674215643,6.206349953251131 L 19.941108072602525,6.2021541264348325 L 19.949525422221885,6.1971089612302555 L 19.95740772733629,6.191263045336269 L 19.964679077038586,6.184672678118654 L 20.56931067811866,5.5800410770385716 L 20.575901045336277,5.57276972733628 L 20.581746961230248,5.564887422221877 L 20.586792126434833,5.556470072602518 L 20.590987953251123,5.547598742156423 L 20.594294033573224,5.538358866645366 L 20.596678528040318,5.528839431121528 L 20.598118472667217,5.519132112952873 L 20.5986,5.509330398919918 L 20.598118472667217,5.499528684886962 L 20.596678528040318,5.489821366718307 L 20.594294033573224,5.480301931194469 L 20.590987953251123,5.4710620556834115 L 20.586792126434833,5.462190725237317 L 20.581746961230248,5.453773375617959 L 20.575901045336277,5.4458910705035555 L 20.56931067811866,5.438619720801264 L 20.56203932841636,5.4320293535836415 L 20.554157023301958,5.426183437689662 L 20.5457396736826,5.421138272485085 L 20.536868343236506,5.416942445668787 L 20.527628467725442,5.4136363653467 L 20.518109032201618,5.411251870879598 L 20.50840171403295,5.409811926252701 L 20.4986,5.409330398919917 L 20.488798285967036,5.409811926252701 L 20.47909096779838,5.411251870879598 L 20.46957153227456,5.4136363653467 L 20.460331656763493,5.416942445668787 L 20.4514603263174,5.421138272485085 L 20.44304297669804,5.426183437689662 L 20.43516067158364,5.4320293535836415 L 20.427889321881338,5.438619720801264 L 19.852547042682602,6.013962 L 19.1516,6.013962 L 19.149145877147674,6.013992118130378 L 19.144239109714942,6.0141125725098625 L 19.14178646513453,6.014202908758968 L 19.116890111490815,6.015425988184228 L 19.11199516489062,6.0157870611375195 L 19.1022288848778,6.016748955761559 L 19.097357551465183,6.017349777432307 L 19.072700963316798,6.021007236784629 L 19.06786497856073,6.0218463597407865 L 19.058240008015975,6.023760885417804 L 19.053451022227286,6.0248362881386655 L 19.029271655996755,6.0308929040851 L 19.02454120626162,6.0322019958313335 L 19.015150238912685,6.035050714632496 L 19.01048972129889,6.036590341687426 L 18.98702043750079,6.044987785705544 L 18.982441079603568,6.046754238972694 L 18.973374555599793,6.050509716178634 L 18.968887389493243,6.052498740117423 L 18.946354210160166,6.063156140230805 L 18.941970045820533,6.06536294310835 L 18.93331528074421,6.06998901142069 L 18.929044680007518,6.072408276855484 L 18.907664611974344,6.085222996475123 L 18.903517863091707,6.087848896244898 L 18.89535820706183,6.093301004096836 L 18.891345299914583,6.096127212178998 L 18.871324244923994,6.110975838549703 L 18.86745484695688,6.113995546361476 L 18.85986888192138,6.120221186974071 L 18.856152314853,6.123427119774893 L 18.837683086609186,6.140166652507648 L 18.83588492762023,6.141837056747951 L 18.832330144986287,6.145221491164781 L 18.830573521341293,6.146935521341309 L 18.006054534355982,6.971454508326612 L 17.738373521341295,7.239135521341309 L 17.736659491164698,7.240892144986368 L 17.733275056747868,7.244446927620322 L 17.731604652507635,7.246245086609215 L 17.714865119774878,7.264714314853035 L 17.711659186974092,7.268430881921374 L 17.705433546361537,7.27601684695682 L 17.702413838549763,7.279886244923927 L 17.68756521217905,7.299907299914509 L 17.684739004096894,7.303920207061723 L 17.6792868962449,7.312079863091677 L 17.676660996475057,7.316226611974418 L 17.663846276855423,7.3376066800076 L 17.661427011420592,7.341877280744381 L 17.656800943108305,7.350532045820638 L 17.65459414023085,7.3549162101601135 L 17.64393674011746,7.377449389493182 L 17.6419477161787,7.381936555599652 L 17.638192238972724,7.391003079603486 L 17.636425785705505,7.395582437500849 L 17.628028341687397,7.419051721298948 L 17.626488714632465,7.423712238912754 L 17.623639995831326,7.433103206261627 L 17.622330904085114,7.4378336559966955 L 17.616274288138673,7.462013022227235 L 17.615198885417804,7.466802008015975 L 17.613284359740778,7.476426978560783 L 17.612445236784623,7.48126296331685 L 17.60878777743231,7.505919551465236 L 17.608186955761568,7.510790884877801 L 17.607225061137527,7.520557164890595 L 17.60686398818423,7.525452111490823 L 17.605640908758968,7.550348465134531 L 17.60555057250987,7.552801109714948 L 17.605430118130386,7.557707877147682 L 17.6054,7.560162 L 17.6054,7.571716509787097 z" /><path fill-rule="evenodd" fill="#66cc99" stroke="#555555" stroke-width="0.0" opacity="1" d="M 19.043864755747183,8.619857189983264 L 19.046809502173335,8.617188217464037 L 19.04877405619852,8.615731187981345 L 19.06942878319466,8.601929919334419 L 19.071516604057834,8.600678512348734 L 19.073877795458166,8.60008708139687 L 19.098242409436196,8.595240877848953 L 19.100661819268094,8.594882008373306 L 19.103104753820016,8.594762 L 19.555695246179983,8.594762 L 19.55813818073191,8.594882008373306 L 19.560557590563803,8.595240877848953 L 19.584922204541833,8.60008708139687 L 19.587283395942165,8.600678512348734 L 19.58937121680534,8.601929919334419 L 19.610025943801478,8.615731187981345 L 19.611990497826664,8.617188217464037 L 19.614935244252816,8.619857189983264 L 19.616244241721706,8.621166182604261 L 19.623830218285544,8.627391809169435 L 19.63198988441144,8.632843901911668 L 19.640644658054082,8.637469954197444 L 19.64971118901211,8.641225414614372 L 19.659102161636127,8.644074116025717 L 19.66872713572614,8.645988623879605 L 19.67849341752012,8.64695050041885 L 19.688306952385588,8.646950482246547 L 19.698073230617165,8.645988569537707 L 19.707698197616697,8.644074026037567 L 19.71708915969044,8.641225289846606 L 19.726155676739992,8.63746979585164 L 19.734810433249905,8.63284371151279 L 19.742970079183817,8.627391588551118 L 19.750556032690884,8.621165933891184 L 19.75749523689191,8.614226703990639 L 19.763720863457085,8.606640727426813 L 19.76917295619932,8.59848106130091 L 19.773799008485092,8.589826287658267 L 19.77755446890202,8.58075975670024 L 19.78040317031336,8.57136878407622 L 19.782317678167253,8.561743809986204 L 19.7832795547065,8.55197752819223 L 19.78327953653419,8.542163993326762 L 19.782317623825357,8.532397715095184 L 19.780403080325215,8.522772748095646 L 19.777554344134256,8.513381786021911 L 19.77379885013929,8.50431526897236 L 19.76917276580043,8.495660512462445 L 19.763720642838763,8.487500866528526 L 19.757494988178834,8.479914913021467 L 19.756872666297497,8.479228289190464 L 19.749933710809604,8.472289333702571 L 19.74266264739293,8.465699201434381 L 19.735076991354763,8.459473767394103 L 19.727195015826286,8.453628028066204 L 19.723182278347014,8.450801900570513 L 19.698445278347016,8.434272900570512 L 19.69429837658593,8.43164686679431 L 19.685880709957555,8.42660144982022 L 19.677225606605514,8.421975162985847 L 19.668353919138386,8.417779152333528 L 19.659287021977587,8.414023527247787 L 19.650046759860306,8.410717336098939 L 19.64065539520918,8.407868544442914 L 19.63113555449605,8.405484015830055 L 19.626346364495188,8.40440860579428 L 19.597166364495187,8.398604605794281 L 19.59233058677396,8.397765556534745 L 19.58262368734327,8.396325738500252 L 19.57285783385937,8.395363928611793 L 19.563056551042468,8.394882443749145 L 19.55815,8.394762 L 19.10065,8.394762 L 19.09574344895753,8.394882443749145 L 19.08594216614063,8.395363928611793 L 19.07617631265673,8.396325738500252 L 19.066469413226038,8.397765556534745 L 19.061633635504812,8.398604605794281 L 19.03245363550481,8.40440860579428 L 19.02766444550395,8.405484015830055 L 19.018144604790823,8.407868544442914 L 19.008753240139693,8.410717336098939 L 18.999512978022413,8.414023527247787 L 18.990446080861613,8.417779152333528 L 18.981574393394485,8.421975162985847 L 18.972919290042444,8.42660144982022 L 18.96450162341407,8.43164686679431 L 18.960354721652983,8.434272900570512 L 18.935617721652985,8.450801900570513 L 18.931604984173717,8.453628028066204 L 18.923723008645236,8.459473767394103 L 18.91613735260707,8.465699201434381 L 18.908866289190396,8.472289333702571 L 18.901927333702506,8.479228289190464 L 18.901305011821165,8.479914913021467 L 18.89507935716124,8.487500866528526 L 18.88962723419957,8.495660512462445 L 18.88500114986071,8.50431526897236 L 18.881245655865744,8.513381786021911 L 18.878396919674785,8.522772748095646 L 18.876482376174643,8.532397715095184 L 18.87552046346581,8.542163993326762 L 18.8755204452935,8.55197752819223 L 18.876482321832746,8.561743809986204 L 18.878396829686643,8.57136878407622 L 18.881245531097978,8.58075975670024 L 18.885000991514907,8.589826287658267 L 18.889627043800683,8.59848106130091 L 18.895079136542915,8.606640727426813 L 18.90130476310809,8.614226703990639 L 18.90824396730912,8.621165933891184 L 18.915829920816183,8.627391588551118 L 18.923989566750095,8.63284371151279 L 18.93264432326001,8.63746979585164 L 18.94171084030956,8.641225289846606 L 18.951101802383302,8.644074026037567 L 18.960726769382834,8.645988569537707 L 18.97049304761441,8.646950482246547 L 18.98030658247988,8.64695050041885 L 18.990072864273863,8.645988623879605 L 18.999697838363872,8.644074116025717 L 19.00908881098789,8.641225414614372 L 19.018155341945917,8.637469954197444 L 19.02681011558856,8.632843901911668 L 19.034969781714455,8.627391809169435 L 19.042555758278297,8.621166182604261 L 19.043864755747183,8.619857189983264 z" /></g>
                        <rect width="21.0" height="18.0" x="1.5836" y="1.841962" stroke-width="0.1" fill="none" stroke="black"/>
                    </g>
                    </svg>