%TF.GenerationSoftware,KiCad,Pcbnew,7.0.10*%
%TF.CreationDate,2024-09-03T14:05:09-04:00*%
%TF.ProjectId,workflow,776f726b-666c-46f7-972e-6b696361645f,rev?*%
%TF.SameCoordinates,Original*%
%TF.FileFunction,Copper,L1,Top*%
%TF.FilePolarity,Positive*%
%FSLAX46Y46*%
G04 Gerber Fmt 4.6, Leading zero omitted, Abs format (unit mm)*
G04 Created by KiCad (PCBNEW 7.0.10) date 2024-09-03 14:05:09*
%MOMM*%
%LPD*%
G01*
G04 APERTURE LIST*
G04 Aperture macros list*
%AMRoundRect*
0 Rectangle with rounded corners*
0 $1 Rounding radius*
0 $2 $3 $4 $5 $6 $7 $8 $9 X,Y pos of 4 corners*
0 Add a 4 corners polygon primitive as box body*
4,1,4,$2,$3,$4,$5,$6,$7,$8,$9,$2,$3,0*
0 Add four circle primitives for the rounded corners*
1,1,$1+$1,$2,$3*
1,1,$1+$1,$4,$5*
1,1,$1+$1,$6,$7*
1,1,$1+$1,$8,$9*
0 Add four rect primitives between the rounded corners*
20,1,$1+$1,$2,$3,$4,$5,0*
20,1,$1+$1,$4,$5,$6,$7,0*
20,1,$1+$1,$6,$7,$8,$9,0*
20,1,$1+$1,$8,$9,$2,$3,0*%
G04 Aperture macros list end*
%TA.AperFunction,SMDPad,CuDef*%
%ADD10RoundRect,0.250000X0.375000X0.625000X-0.375000X0.625000X-0.375000X-0.625000X0.375000X-0.625000X0*%
%TD*%
%TA.AperFunction,SMDPad,CuDef*%
%ADD11RoundRect,0.076250X0.228750X-0.768750X0.228750X0.768750X-0.228750X0.768750X-0.228750X-0.768750X0*%
%TD*%
%TA.AperFunction,SMDPad,CuDef*%
%ADD12RoundRect,0.250000X0.262500X0.450000X-0.262500X0.450000X-0.262500X-0.450000X0.262500X-0.450000X0*%
%TD*%
%TA.AperFunction,SMDPad,CuDef*%
%ADD13R,5.511800X0.990600*%
%TD*%
%TA.AperFunction,SMDPad,CuDef*%
%ADD14R,3.098800X1.701800*%
%TD*%
%TA.AperFunction,SMDPad,CuDef*%
%ADD15R,0.711200X1.498600*%
%TD*%
%TA.AperFunction,SMDPad,CuDef*%
%ADD16R,0.990600X0.812800*%
%TD*%
%TA.AperFunction,Conductor*%
%ADD17C,0.508000*%
%TD*%
G04 APERTURE END LIST*
D10*
%TO.P,D1,1,K*%
%TO.N,Net-(D1-K)*%
X97313400Y-53822600D03*
%TO.P,D1,2,A*%
%TO.N,/vcc*%
X94513400Y-53822600D03*
%TD*%
D11*
%TO.P,U1,1,PB5*%
%TO.N,unconnected-(U1-PB5-Pad1)*%
X95935800Y-65877800D03*
%TO.P,U1,2,PB3*%
%TO.N,unconnected-(U1-PB3-Pad2)*%
X97205800Y-65877800D03*
%TO.P,U1,3,PB4*%
%TO.N,unconnected-(U1-PB4-Pad3)*%
X98475800Y-65877800D03*
%TO.P,U1,4,GND*%
%TO.N,/GND*%
X99745800Y-65877800D03*
%TO.P,U1,5,PB0*%
%TO.N,/LED*%
X99745800Y-58597800D03*
%TO.P,U1,6,PB1*%
%TO.N,unconnected-(U1-PB1-Pad6)*%
X98475800Y-58597800D03*
%TO.P,U1,7,PB2*%
%TO.N,unconnected-(U1-PB2-Pad7)*%
X97205800Y-58597800D03*
%TO.P,U1,8,VCC*%
%TO.N,/vcc*%
X95935800Y-58597800D03*
%TD*%
D12*
%TO.P,R1,1*%
%TO.N,/LED*%
X101269000Y-53819600D03*
%TO.P,R1,2*%
%TO.N,Net-(D1-K)*%
X99444000Y-53819600D03*
%TD*%
D13*
%TO.P,J1,1,1*%
%TO.N,/vin*%
X87757201Y-57896001D03*
%TO.P,J1,2,2*%
%TO.N,/GND*%
X87757201Y-55895999D03*
D14*
%TO.P,J1,3*%
%TO.N,N/C*%
X85507200Y-60295998D03*
%TO.P,J1,4*%
X85507200Y-53496002D03*
%TD*%
D15*
%TO.P,SW1,1,1*%
%TO.N,/GND*%
X85006617Y-65297401D03*
%TO.P,SW1,2,2*%
%TO.N,/vcc*%
X88006620Y-65297401D03*
%TO.P,SW1,3,3*%
%TO.N,/vin*%
X89506620Y-65297401D03*
D16*
%TO.P,SW1,4*%
%TO.N,N/C*%
X83606620Y-65997402D03*
%TO.P,SW1,5*%
X90906620Y-65997402D03*
%TO.P,SW1,6*%
X83606640Y-68097400D03*
%TO.P,SW1,7*%
X90906600Y-68097400D03*
%TD*%
D17*
%TO.N,Net-(D1-K)*%
X99441000Y-53822600D02*
X99444000Y-53819600D01*
X97313400Y-53822600D02*
X99441000Y-53822600D01*
%TO.N,/vcc*%
X88006620Y-64040101D02*
X89003921Y-63042800D01*
X92303600Y-62103000D02*
X92303600Y-54991000D01*
X95935800Y-56743600D02*
X95935800Y-58597800D01*
X91363800Y-63042800D02*
X92303600Y-62103000D01*
X88006620Y-65297401D02*
X88006620Y-64040101D01*
X89003921Y-63042800D02*
X91363800Y-63042800D01*
X93472000Y-53822600D02*
X94513400Y-53822600D01*
X94513400Y-55321200D02*
X95935800Y-56743600D01*
X92303600Y-54991000D02*
X93472000Y-53822600D01*
X94513400Y-53822600D02*
X94513400Y-55321200D01*
%TO.N,/LED*%
X99745800Y-58597800D02*
X99745800Y-57454800D01*
X99745800Y-57454800D02*
X101269000Y-55931600D01*
X101269000Y-55931600D02*
X101269000Y-53819600D01*
%TO.N,/vin*%
X87477600Y-67106800D02*
X88954521Y-67106800D01*
X88954521Y-67106800D02*
X89506620Y-66554701D01*
X87757201Y-62977130D02*
X86715600Y-64018731D01*
X86715600Y-64018731D02*
X86715600Y-66344800D01*
X87757201Y-57896001D02*
X87757201Y-62977130D01*
X89506620Y-66554701D02*
X89506620Y-65297401D01*
X86715600Y-66344800D02*
X87477600Y-67106800D01*
%TD*%
%TA.AperFunction,Conductor*%
%TO.N,/GND*%
G36*
X102942539Y-51020185D02*
G01*
X102988294Y-51072989D01*
X102999500Y-51124500D01*
X102999500Y-68875500D01*
X102979815Y-68942539D01*
X102927011Y-68988294D01*
X102875500Y-68999500D01*
X91903746Y-68999500D01*
X91836707Y-68979815D01*
X91790952Y-68927011D01*
X91781008Y-68857853D01*
X91804480Y-68801188D01*
X91845696Y-68746131D01*
X91895991Y-68611283D01*
X91902400Y-68551673D01*
X91902399Y-67643128D01*
X91895991Y-67583517D01*
X91873681Y-67523702D01*
X91845697Y-67448671D01*
X91845693Y-67448664D01*
X91759447Y-67333455D01*
X91759444Y-67333452D01*
X91644235Y-67247206D01*
X91644228Y-67247202D01*
X91509382Y-67196908D01*
X91509383Y-67196908D01*
X91449783Y-67190501D01*
X91449781Y-67190500D01*
X91449773Y-67190500D01*
X91449764Y-67190500D01*
X90363429Y-67190500D01*
X90363423Y-67190501D01*
X90303817Y-67196908D01*
X90233289Y-67223213D01*
X90163598Y-67228196D01*
X90102275Y-67194710D01*
X90068791Y-67133386D01*
X90073777Y-67063694D01*
X90094965Y-67027329D01*
X90141287Y-66972128D01*
X90141292Y-66972117D01*
X90145257Y-66966091D01*
X90145303Y-66966121D01*
X90149409Y-66959675D01*
X90149362Y-66959646D01*
X90153152Y-66953499D01*
X90153159Y-66953492D01*
X90153163Y-66953483D01*
X90155758Y-66949276D01*
X90207705Y-66902551D01*
X90276667Y-66891327D01*
X90296277Y-66896139D01*
X90296285Y-66896109D01*
X90303836Y-66897893D01*
X90310764Y-66898637D01*
X90363447Y-66904302D01*
X91449792Y-66904301D01*
X91509403Y-66897893D01*
X91644251Y-66847598D01*
X91759466Y-66761348D01*
X91817099Y-66684361D01*
X95130300Y-66684361D01*
X95145145Y-66797111D01*
X95145146Y-66797115D01*
X95203257Y-66937409D01*
X95203257Y-66937410D01*
X95203259Y-66937413D01*
X95203260Y-66937414D01*
X95295707Y-67057893D01*
X95416186Y-67150340D01*
X95416189Y-67150341D01*
X95416190Y-67150342D01*
X95486337Y-67179397D01*
X95556488Y-67208455D01*
X95663539Y-67222548D01*
X95665440Y-67222799D01*
X95669246Y-67223300D01*
X95669253Y-67223300D01*
X96202347Y-67223300D01*
X96202354Y-67223300D01*
X96315112Y-67208455D01*
X96455414Y-67150340D01*
X96495313Y-67119723D01*
X96560482Y-67094529D01*
X96628927Y-67108567D01*
X96646287Y-67119724D01*
X96686184Y-67150339D01*
X96686190Y-67150342D01*
X96756337Y-67179397D01*
X96826488Y-67208455D01*
X96933539Y-67222548D01*
X96935440Y-67222799D01*
X96939246Y-67223300D01*
X96939253Y-67223300D01*
X97472347Y-67223300D01*
X97472354Y-67223300D01*
X97585112Y-67208455D01*
X97725414Y-67150340D01*
X97765313Y-67119723D01*
X97830482Y-67094529D01*
X97898927Y-67108567D01*
X97916287Y-67119724D01*
X97956184Y-67150339D01*
X97956190Y-67150342D01*
X98026337Y-67179397D01*
X98096488Y-67208455D01*
X98203539Y-67222548D01*
X98205440Y-67222799D01*
X98209246Y-67223300D01*
X98209253Y-67223300D01*
X98742347Y-67223300D01*
X98742354Y-67223300D01*
X98855112Y-67208455D01*
X98995414Y-67150340D01*
X99035726Y-67119406D01*
X99100889Y-67094213D01*
X99169335Y-67108250D01*
X99186697Y-67119407D01*
X99226441Y-67149904D01*
X99366615Y-67207965D01*
X99366619Y-67207966D01*
X99479284Y-67222799D01*
X99495800Y-67222798D01*
X99495800Y-66127800D01*
X99995800Y-66127800D01*
X99995800Y-67222799D01*
X100012315Y-67222799D01*
X100124982Y-67207966D01*
X100265158Y-67149904D01*
X100385535Y-67057535D01*
X100477904Y-66937158D01*
X100535965Y-66796984D01*
X100535966Y-66796980D01*
X100550799Y-66684322D01*
X100550800Y-66684308D01*
X100550800Y-66127800D01*
X99995800Y-66127800D01*
X99495800Y-66127800D01*
X99495800Y-64532800D01*
X99995800Y-64532800D01*
X99995800Y-65627800D01*
X100550799Y-65627800D01*
X100550799Y-65071285D01*
X100535966Y-64958617D01*
X100477904Y-64818441D01*
X100385535Y-64698064D01*
X100265158Y-64605695D01*
X100124984Y-64547634D01*
X100124980Y-64547633D01*
X100012322Y-64532800D01*
X99995800Y-64532800D01*
X99495800Y-64532800D01*
X99495800Y-64532799D01*
X99479284Y-64532800D01*
X99366617Y-64547633D01*
X99226438Y-64605696D01*
X99226435Y-64605698D01*
X99186694Y-64636192D01*
X99121525Y-64661385D01*
X99053080Y-64647345D01*
X99035731Y-64636197D01*
X98995414Y-64605260D01*
X98855112Y-64547145D01*
X98841017Y-64545289D01*
X98742361Y-64532300D01*
X98742354Y-64532300D01*
X98209246Y-64532300D01*
X98209238Y-64532300D01*
X98096488Y-64547145D01*
X98096487Y-64547145D01*
X97956185Y-64605260D01*
X97916285Y-64635876D01*
X97851115Y-64661069D01*
X97782671Y-64647030D01*
X97765315Y-64635876D01*
X97725414Y-64605260D01*
X97725407Y-64605257D01*
X97585112Y-64547145D01*
X97571017Y-64545289D01*
X97472361Y-64532300D01*
X97472354Y-64532300D01*
X96939246Y-64532300D01*
X96939238Y-64532300D01*
X96826488Y-64547145D01*
X96826487Y-64547145D01*
X96686185Y-64605260D01*
X96646285Y-64635876D01*
X96581115Y-64661069D01*
X96512671Y-64647030D01*
X96495315Y-64635876D01*
X96455414Y-64605260D01*
X96455407Y-64605257D01*
X96315112Y-64547145D01*
X96301017Y-64545289D01*
X96202361Y-64532300D01*
X96202354Y-64532300D01*
X95669246Y-64532300D01*
X95669238Y-64532300D01*
X95556488Y-64547145D01*
X95556484Y-64547146D01*
X95416190Y-64605257D01*
X95416189Y-64605257D01*
X95295707Y-64697707D01*
X95203257Y-64818189D01*
X95203257Y-64818190D01*
X95145146Y-64958484D01*
X95145145Y-64958488D01*
X95130300Y-65071238D01*
X95130300Y-66684361D01*
X91817099Y-66684361D01*
X91845716Y-66646133D01*
X91896011Y-66511285D01*
X91902420Y-66451675D01*
X91902419Y-65543130D01*
X91896011Y-65483519D01*
X91845716Y-65348671D01*
X91845715Y-65348670D01*
X91845713Y-65348666D01*
X91759467Y-65233457D01*
X91759464Y-65233454D01*
X91644255Y-65147208D01*
X91644248Y-65147204D01*
X91509402Y-65096910D01*
X91509403Y-65096910D01*
X91449803Y-65090503D01*
X91449801Y-65090502D01*
X91449793Y-65090502D01*
X91449785Y-65090502D01*
X90486719Y-65090502D01*
X90419680Y-65070817D01*
X90373925Y-65018013D01*
X90362719Y-64966502D01*
X90362719Y-64500230D01*
X90362718Y-64500224D01*
X90356311Y-64440617D01*
X90306017Y-64305772D01*
X90306013Y-64305765D01*
X90219767Y-64190556D01*
X90219764Y-64190553D01*
X90104555Y-64104307D01*
X90104548Y-64104303D01*
X89969702Y-64054009D01*
X89969703Y-64054009D01*
X89910103Y-64047602D01*
X89910101Y-64047601D01*
X89910093Y-64047601D01*
X89910085Y-64047601D01*
X89365505Y-64047601D01*
X89298466Y-64027916D01*
X89252711Y-63975112D01*
X89242767Y-63905954D01*
X89271792Y-63842398D01*
X89277831Y-63835913D01*
X89280145Y-63833600D01*
X89341475Y-63800128D01*
X89367807Y-63797300D01*
X91299800Y-63797300D01*
X91317769Y-63798609D01*
X91323150Y-63799396D01*
X91341706Y-63802115D01*
X91391348Y-63797771D01*
X91402155Y-63797300D01*
X91407734Y-63797300D01*
X91407741Y-63797300D01*
X91438703Y-63793680D01*
X91442234Y-63793319D01*
X91517412Y-63786743D01*
X91517415Y-63786741D01*
X91524493Y-63785281D01*
X91524504Y-63785335D01*
X91531963Y-63783681D01*
X91531951Y-63783627D01*
X91538978Y-63781961D01*
X91538979Y-63781960D01*
X91538984Y-63781960D01*
X91609895Y-63756150D01*
X91613194Y-63755003D01*
X91684836Y-63731264D01*
X91684838Y-63731262D01*
X91684840Y-63731262D01*
X91691381Y-63728212D01*
X91691404Y-63728262D01*
X91698298Y-63724925D01*
X91698273Y-63724875D01*
X91704720Y-63721637D01*
X91704724Y-63721636D01*
X91767767Y-63680170D01*
X91770742Y-63678276D01*
X91834954Y-63638670D01*
X91834962Y-63638661D01*
X91840623Y-63634187D01*
X91840657Y-63634230D01*
X91846582Y-63629404D01*
X91846547Y-63629362D01*
X91852076Y-63624720D01*
X91852085Y-63624715D01*
X91903871Y-63569823D01*
X91906316Y-63567306D01*
X92791864Y-62681758D01*
X92805483Y-62669988D01*
X92824894Y-62655539D01*
X92856934Y-62617354D01*
X92864223Y-62609399D01*
X92868183Y-62605441D01*
X92887527Y-62580974D01*
X92889761Y-62578232D01*
X92938267Y-62520427D01*
X92938271Y-62520418D01*
X92942237Y-62514390D01*
X92942283Y-62514420D01*
X92946395Y-62507965D01*
X92946348Y-62507936D01*
X92950132Y-62501799D01*
X92950139Y-62501791D01*
X92982017Y-62433428D01*
X92983572Y-62430214D01*
X93017424Y-62362811D01*
X93017426Y-62362798D01*
X93019893Y-62356024D01*
X93019946Y-62356043D01*
X93022458Y-62348815D01*
X93022407Y-62348798D01*
X93024677Y-62341945D01*
X93024677Y-62341943D01*
X93024679Y-62341940D01*
X93039945Y-62268001D01*
X93040697Y-62264610D01*
X93058100Y-62191188D01*
X93058100Y-62191181D01*
X93058938Y-62184015D01*
X93058992Y-62184021D01*
X93059770Y-62176405D01*
X93059717Y-62176401D01*
X93060346Y-62169210D01*
X93058152Y-62093804D01*
X93058100Y-62090198D01*
X93058100Y-55354885D01*
X93077785Y-55287846D01*
X93094415Y-55267208D01*
X93407848Y-54953774D01*
X93469169Y-54920291D01*
X93538860Y-54925275D01*
X93583208Y-54953776D01*
X93669745Y-55040313D01*
X93699994Y-55058970D01*
X93746720Y-55110917D01*
X93758900Y-55164510D01*
X93758900Y-55257200D01*
X93757591Y-55275169D01*
X93754084Y-55299108D01*
X93758428Y-55348745D01*
X93758900Y-55359554D01*
X93758900Y-55365146D01*
X93762516Y-55396085D01*
X93762882Y-55399670D01*
X93769456Y-55474810D01*
X93770916Y-55481877D01*
X93770864Y-55481887D01*
X93772523Y-55489367D01*
X93772574Y-55489355D01*
X93774240Y-55496385D01*
X93800021Y-55567220D01*
X93801204Y-55570623D01*
X93824933Y-55642229D01*
X93827986Y-55648775D01*
X93827936Y-55648798D01*
X93831276Y-55655697D01*
X93831325Y-55655673D01*
X93834567Y-55662130D01*
X93876013Y-55725146D01*
X93877950Y-55728186D01*
X93917531Y-55792356D01*
X93922011Y-55798022D01*
X93921969Y-55798055D01*
X93926801Y-55803986D01*
X93926843Y-55803952D01*
X93931488Y-55809488D01*
X93986338Y-55861236D01*
X93988925Y-55863749D01*
X95144981Y-57019805D01*
X95178466Y-57081128D01*
X95181300Y-57107486D01*
X95181300Y-57566536D01*
X95171861Y-57613988D01*
X95145146Y-57678484D01*
X95145145Y-57678488D01*
X95130300Y-57791238D01*
X95130300Y-59404361D01*
X95145145Y-59517111D01*
X95145146Y-59517115D01*
X95203257Y-59657409D01*
X95203257Y-59657410D01*
X95203259Y-59657413D01*
X95203260Y-59657414D01*
X95295707Y-59777893D01*
X95416186Y-59870340D01*
X95416189Y-59870341D01*
X95416190Y-59870342D01*
X95486337Y-59899397D01*
X95556488Y-59928455D01*
X95669246Y-59943300D01*
X95669253Y-59943300D01*
X96202347Y-59943300D01*
X96202354Y-59943300D01*
X96315112Y-59928455D01*
X96455414Y-59870340D01*
X96495313Y-59839723D01*
X96560482Y-59814529D01*
X96628927Y-59828567D01*
X96646287Y-59839724D01*
X96686184Y-59870339D01*
X96686190Y-59870342D01*
X96756337Y-59899397D01*
X96826488Y-59928455D01*
X96939246Y-59943300D01*
X96939253Y-59943300D01*
X97472347Y-59943300D01*
X97472354Y-59943300D01*
X97585112Y-59928455D01*
X97725414Y-59870340D01*
X97765313Y-59839723D01*
X97830482Y-59814529D01*
X97898927Y-59828567D01*
X97916287Y-59839724D01*
X97956184Y-59870339D01*
X97956190Y-59870342D01*
X98026337Y-59899397D01*
X98096488Y-59928455D01*
X98209246Y-59943300D01*
X98209253Y-59943300D01*
X98742347Y-59943300D01*
X98742354Y-59943300D01*
X98855112Y-59928455D01*
X98995414Y-59870340D01*
X99035313Y-59839723D01*
X99100482Y-59814529D01*
X99168927Y-59828567D01*
X99186287Y-59839724D01*
X99226184Y-59870339D01*
X99226190Y-59870342D01*
X99296337Y-59899397D01*
X99366488Y-59928455D01*
X99479246Y-59943300D01*
X99479253Y-59943300D01*
X100012347Y-59943300D01*
X100012354Y-59943300D01*
X100125112Y-59928455D01*
X100265409Y-59870342D01*
X100265410Y-59870342D01*
X100265410Y-59870341D01*
X100265414Y-59870340D01*
X100385893Y-59777893D01*
X100478340Y-59657414D01*
X100536455Y-59517112D01*
X100551300Y-59404354D01*
X100551300Y-57791246D01*
X100550566Y-57785672D01*
X100561327Y-57716637D01*
X100585820Y-57681802D01*
X101757264Y-56510358D01*
X101770883Y-56498588D01*
X101790294Y-56484139D01*
X101822334Y-56445954D01*
X101829623Y-56437999D01*
X101833583Y-56434041D01*
X101852927Y-56409574D01*
X101855161Y-56406832D01*
X101903667Y-56349027D01*
X101903671Y-56349018D01*
X101907637Y-56342990D01*
X101907683Y-56343020D01*
X101911795Y-56336565D01*
X101911748Y-56336536D01*
X101915532Y-56330399D01*
X101915539Y-56330391D01*
X101942560Y-56272443D01*
X101947417Y-56262028D01*
X101948972Y-56258814D01*
X101982824Y-56191411D01*
X101982826Y-56191398D01*
X101985293Y-56184624D01*
X101985346Y-56184643D01*
X101987858Y-56177415D01*
X101987807Y-56177398D01*
X101990077Y-56170545D01*
X101990077Y-56170543D01*
X101990079Y-56170540D01*
X102005345Y-56096601D01*
X102006097Y-56093210D01*
X102023500Y-56019788D01*
X102023500Y-56019781D01*
X102024338Y-56012615D01*
X102024392Y-56012621D01*
X102025170Y-56005005D01*
X102025117Y-56005001D01*
X102025746Y-55997810D01*
X102023552Y-55922404D01*
X102023500Y-55918798D01*
X102023500Y-54890330D01*
X102043185Y-54823291D01*
X102059819Y-54802649D01*
X102071773Y-54790695D01*
X102124212Y-54738256D01*
X102216314Y-54588934D01*
X102271499Y-54422397D01*
X102282000Y-54319609D01*
X102281999Y-53319592D01*
X102271499Y-53216803D01*
X102216314Y-53050266D01*
X102124212Y-52900944D01*
X102000156Y-52776888D01*
X101850834Y-52684786D01*
X101684297Y-52629601D01*
X101684295Y-52629600D01*
X101581510Y-52619100D01*
X100956498Y-52619100D01*
X100956480Y-52619101D01*
X100853703Y-52629600D01*
X100853700Y-52629601D01*
X100687168Y-52684785D01*
X100687163Y-52684787D01*
X100537842Y-52776889D01*
X100444181Y-52870551D01*
X100382858Y-52904036D01*
X100313166Y-52899052D01*
X100268819Y-52870551D01*
X100175157Y-52776889D01*
X100175156Y-52776888D01*
X100025834Y-52684786D01*
X99859297Y-52629601D01*
X99859295Y-52629600D01*
X99756510Y-52619100D01*
X99131498Y-52619100D01*
X99131480Y-52619101D01*
X99028703Y-52629600D01*
X99028700Y-52629601D01*
X98862168Y-52684785D01*
X98862163Y-52684787D01*
X98712842Y-52776889D01*
X98588786Y-52900945D01*
X98584517Y-52906344D01*
X98527491Y-52946716D01*
X98457692Y-52949849D01*
X98397279Y-52914748D01*
X98374871Y-52881821D01*
X98373216Y-52878273D01*
X98373214Y-52878266D01*
X98281112Y-52728944D01*
X98157056Y-52604888D01*
X98007734Y-52512786D01*
X97841197Y-52457601D01*
X97841195Y-52457600D01*
X97738410Y-52447100D01*
X96888398Y-52447100D01*
X96888380Y-52447101D01*
X96785603Y-52457600D01*
X96785600Y-52457601D01*
X96619068Y-52512785D01*
X96619063Y-52512787D01*
X96469742Y-52604889D01*
X96345689Y-52728942D01*
X96253587Y-52878263D01*
X96253585Y-52878268D01*
X96244282Y-52906344D01*
X96198401Y-53044803D01*
X96198401Y-53044804D01*
X96198400Y-53044804D01*
X96187900Y-53147583D01*
X96187900Y-54497601D01*
X96187901Y-54497618D01*
X96198400Y-54600396D01*
X96198401Y-54600399D01*
X96227642Y-54688640D01*
X96253586Y-54766934D01*
X96345688Y-54916256D01*
X96469744Y-55040312D01*
X96619066Y-55132414D01*
X96785603Y-55187599D01*
X96888391Y-55198100D01*
X97738408Y-55198099D01*
X97738416Y-55198098D01*
X97738419Y-55198098D01*
X97794702Y-55192348D01*
X97841197Y-55187599D01*
X98007734Y-55132414D01*
X98157056Y-55040312D01*
X98281112Y-54916256D01*
X98373214Y-54766934D01*
X98373216Y-54766926D01*
X98376264Y-54760391D01*
X98379021Y-54761676D01*
X98410951Y-54715501D01*
X98475451Y-54688640D01*
X98544234Y-54700914D01*
X98586208Y-54734993D01*
X98588788Y-54738256D01*
X98712844Y-54862312D01*
X98862166Y-54954414D01*
X99028703Y-55009599D01*
X99131491Y-55020100D01*
X99756508Y-55020099D01*
X99756516Y-55020098D01*
X99756519Y-55020098D01*
X99812802Y-55014348D01*
X99859297Y-55009599D01*
X100025834Y-54954414D01*
X100175156Y-54862312D01*
X100268819Y-54768649D01*
X100330142Y-54735164D01*
X100399834Y-54740148D01*
X100444181Y-54768649D01*
X100478181Y-54802649D01*
X100511666Y-54863972D01*
X100514500Y-54890330D01*
X100514500Y-55567713D01*
X100494815Y-55634752D01*
X100478181Y-55655394D01*
X99257542Y-56876032D01*
X99243913Y-56887811D01*
X99224507Y-56902259D01*
X99192474Y-56940433D01*
X99185187Y-56948386D01*
X99181220Y-56952354D01*
X99181218Y-56952356D01*
X99161889Y-56976801D01*
X99159615Y-56979593D01*
X99111134Y-57037371D01*
X99107166Y-57043405D01*
X99107122Y-57043376D01*
X99103009Y-57049831D01*
X99103054Y-57049859D01*
X99099262Y-57056006D01*
X99067381Y-57124372D01*
X99065812Y-57127612D01*
X99031974Y-57194992D01*
X99030280Y-57199646D01*
X98988848Y-57255905D01*
X98923576Y-57280833D01*
X98866314Y-57271785D01*
X98865772Y-57271560D01*
X98855112Y-57267145D01*
X98841017Y-57265289D01*
X98742361Y-57252300D01*
X98742354Y-57252300D01*
X98209246Y-57252300D01*
X98209238Y-57252300D01*
X98096488Y-57267145D01*
X98096487Y-57267145D01*
X97956185Y-57325260D01*
X97916285Y-57355876D01*
X97851115Y-57381069D01*
X97782671Y-57367030D01*
X97765315Y-57355876D01*
X97725414Y-57325260D01*
X97721298Y-57323555D01*
X97585112Y-57267145D01*
X97571017Y-57265289D01*
X97472361Y-57252300D01*
X97472354Y-57252300D01*
X96939246Y-57252300D01*
X96939240Y-57252300D01*
X96939235Y-57252301D01*
X96830485Y-57266618D01*
X96761450Y-57255852D01*
X96709194Y-57209472D01*
X96690300Y-57143679D01*
X96690300Y-56807592D01*
X96691609Y-56789622D01*
X96691994Y-56786988D01*
X96695114Y-56765693D01*
X96690771Y-56716058D01*
X96690300Y-56705252D01*
X96690300Y-56699664D01*
X96690299Y-56699652D01*
X96686682Y-56668709D01*
X96686315Y-56665117D01*
X96679743Y-56589989D01*
X96678283Y-56582918D01*
X96678337Y-56582906D01*
X96676681Y-56575437D01*
X96676627Y-56575450D01*
X96674960Y-56568422D01*
X96674960Y-56568416D01*
X96649169Y-56497557D01*
X96647986Y-56494152D01*
X96632021Y-56445973D01*
X96624264Y-56422564D01*
X96624261Y-56422560D01*
X96621212Y-56416019D01*
X96621261Y-56415995D01*
X96617928Y-56409109D01*
X96617879Y-56409134D01*
X96614635Y-56402675D01*
X96573176Y-56339638D01*
X96571269Y-56336646D01*
X96531670Y-56272446D01*
X96531667Y-56272443D01*
X96527192Y-56266783D01*
X96527234Y-56266749D01*
X96522397Y-56260811D01*
X96522356Y-56260846D01*
X96517712Y-56255312D01*
X96462861Y-56203563D01*
X96460273Y-56201049D01*
X95415977Y-55156753D01*
X95382492Y-55095430D01*
X95387476Y-55025738D01*
X95415977Y-54981391D01*
X95443592Y-54953776D01*
X95481112Y-54916256D01*
X95573214Y-54766934D01*
X95628399Y-54600397D01*
X95638900Y-54497609D01*
X95638899Y-53147592D01*
X95637524Y-53134136D01*
X95628399Y-53044803D01*
X95628398Y-53044800D01*
X95595896Y-52946716D01*
X95573214Y-52878266D01*
X95481112Y-52728944D01*
X95357056Y-52604888D01*
X95207734Y-52512786D01*
X95041197Y-52457601D01*
X95041195Y-52457600D01*
X94938410Y-52447100D01*
X94088398Y-52447100D01*
X94088380Y-52447101D01*
X93985603Y-52457600D01*
X93985600Y-52457601D01*
X93819068Y-52512785D01*
X93819063Y-52512787D01*
X93669742Y-52604889D01*
X93545689Y-52728942D01*
X93453587Y-52878263D01*
X93453585Y-52878268D01*
X93414755Y-52995451D01*
X93374982Y-53052896D01*
X93322130Y-53077884D01*
X93311323Y-53080116D01*
X93311312Y-53080064D01*
X93303832Y-53081722D01*
X93303845Y-53081774D01*
X93296812Y-53083440D01*
X93225925Y-53109239D01*
X93222525Y-53110421D01*
X93150962Y-53134136D01*
X93144420Y-53137187D01*
X93144397Y-53137139D01*
X93137507Y-53140475D01*
X93137531Y-53140522D01*
X93131076Y-53143763D01*
X93068067Y-53185204D01*
X93065030Y-53187139D01*
X93000846Y-53226730D01*
X92995179Y-53231211D01*
X92995146Y-53231169D01*
X92989214Y-53236001D01*
X92989248Y-53236042D01*
X92983712Y-53240687D01*
X92931944Y-53295556D01*
X92929433Y-53298141D01*
X91815342Y-54412232D01*
X91801713Y-54424011D01*
X91782307Y-54438459D01*
X91750274Y-54476633D01*
X91742987Y-54484586D01*
X91739020Y-54488554D01*
X91739018Y-54488556D01*
X91719689Y-54513001D01*
X91717415Y-54515793D01*
X91668934Y-54573571D01*
X91664966Y-54579605D01*
X91664922Y-54579576D01*
X91660809Y-54586031D01*
X91660854Y-54586059D01*
X91657062Y-54592206D01*
X91625181Y-54660572D01*
X91623612Y-54663812D01*
X91589775Y-54731191D01*
X91587304Y-54737979D01*
X91587255Y-54737961D01*
X91584741Y-54745193D01*
X91584791Y-54745210D01*
X91582520Y-54752062D01*
X91567271Y-54825911D01*
X91566491Y-54829430D01*
X91549099Y-54902816D01*
X91548261Y-54909987D01*
X91548207Y-54909980D01*
X91547430Y-54917596D01*
X91547483Y-54917601D01*
X91546853Y-54924790D01*
X91549048Y-55000193D01*
X91549100Y-55003800D01*
X91549100Y-61739114D01*
X91529415Y-61806153D01*
X91512781Y-61826795D01*
X91087595Y-62251981D01*
X91026272Y-62285466D01*
X90999914Y-62288300D01*
X89067921Y-62288300D01*
X89049952Y-62286991D01*
X89026012Y-62283484D01*
X88979251Y-62287576D01*
X88976372Y-62287828D01*
X88965566Y-62288300D01*
X88959972Y-62288300D01*
X88929034Y-62291916D01*
X88925450Y-62292282D01*
X88850308Y-62298856D01*
X88843242Y-62300316D01*
X88843231Y-62300264D01*
X88835752Y-62301922D01*
X88835765Y-62301974D01*
X88828737Y-62303639D01*
X88757883Y-62329428D01*
X88754478Y-62330612D01*
X88676033Y-62356607D01*
X88675130Y-62353882D01*
X88618968Y-62362385D01*
X88555198Y-62333834D01*
X88516987Y-62275339D01*
X88511701Y-62239519D01*
X88511701Y-59015800D01*
X88531386Y-58948761D01*
X88584190Y-58903006D01*
X88635701Y-58891800D01*
X90560972Y-58891800D01*
X90560973Y-58891800D01*
X90620584Y-58885392D01*
X90755432Y-58835097D01*
X90870647Y-58748847D01*
X90956897Y-58633632D01*
X91007192Y-58498784D01*
X91013601Y-58439174D01*
X91013600Y-57352829D01*
X91007192Y-57293218D01*
X90997467Y-57267145D01*
X90956898Y-57158372D01*
X90956894Y-57158365D01*
X90870648Y-57043156D01*
X90862920Y-57037371D01*
X90844433Y-57023531D01*
X90806258Y-56994953D01*
X90764388Y-56939019D01*
X90759404Y-56869327D01*
X90792890Y-56808005D01*
X90806260Y-56796420D01*
X90870290Y-56748487D01*
X90870291Y-56748486D01*
X90956451Y-56633392D01*
X90956455Y-56633385D01*
X91006697Y-56498678D01*
X91006699Y-56498671D01*
X91013100Y-56439143D01*
X91013101Y-56439126D01*
X91013101Y-56145999D01*
X84501301Y-56145999D01*
X84501301Y-56439143D01*
X84507702Y-56498671D01*
X84507704Y-56498678D01*
X84557946Y-56633385D01*
X84557950Y-56633392D01*
X84644109Y-56748485D01*
X84708142Y-56796420D01*
X84750013Y-56852354D01*
X84754997Y-56922046D01*
X84721512Y-56983369D01*
X84708143Y-56994953D01*
X84643753Y-57043156D01*
X84557507Y-57158365D01*
X84557503Y-57158372D01*
X84507209Y-57293218D01*
X84503368Y-57328952D01*
X84500802Y-57352824D01*
X84500801Y-57352836D01*
X84500801Y-58439171D01*
X84500802Y-58439177D01*
X84507209Y-58498784D01*
X84557503Y-58633629D01*
X84557504Y-58633631D01*
X84641839Y-58746287D01*
X84666256Y-58811751D01*
X84651405Y-58880024D01*
X84602000Y-58929430D01*
X84542572Y-58944598D01*
X83909929Y-58944598D01*
X83909923Y-58944599D01*
X83850316Y-58951006D01*
X83715471Y-59001300D01*
X83715464Y-59001304D01*
X83600255Y-59087550D01*
X83600252Y-59087553D01*
X83514006Y-59202762D01*
X83514002Y-59202769D01*
X83463708Y-59337615D01*
X83457301Y-59397214D01*
X83457300Y-59397233D01*
X83457300Y-61194768D01*
X83457301Y-61194774D01*
X83463708Y-61254381D01*
X83514002Y-61389226D01*
X83514006Y-61389233D01*
X83600252Y-61504442D01*
X83600255Y-61504445D01*
X83715464Y-61590691D01*
X83715471Y-61590695D01*
X83850317Y-61640989D01*
X83850316Y-61640989D01*
X83857244Y-61641733D01*
X83909927Y-61647398D01*
X86878701Y-61647397D01*
X86945740Y-61667082D01*
X86991495Y-61719886D01*
X87002701Y-61771397D01*
X87002701Y-62613243D01*
X86983016Y-62680282D01*
X86966382Y-62700924D01*
X86227342Y-63439963D01*
X86213713Y-63451742D01*
X86194307Y-63466190D01*
X86162274Y-63504364D01*
X86154987Y-63512317D01*
X86151020Y-63516285D01*
X86151018Y-63516287D01*
X86131689Y-63540732D01*
X86129415Y-63543524D01*
X86080934Y-63601302D01*
X86076966Y-63607336D01*
X86076922Y-63607307D01*
X86072809Y-63613762D01*
X86072854Y-63613790D01*
X86069062Y-63619937D01*
X86037181Y-63688303D01*
X86035612Y-63691543D01*
X86001775Y-63758922D01*
X85999304Y-63765710D01*
X85999255Y-63765692D01*
X85996741Y-63772924D01*
X85996791Y-63772941D01*
X85994520Y-63779793D01*
X85979271Y-63853642D01*
X85978491Y-63857161D01*
X85961099Y-63930547D01*
X85960261Y-63937718D01*
X85960207Y-63937711D01*
X85959430Y-63945327D01*
X85959483Y-63945332D01*
X85958853Y-63952521D01*
X85961048Y-64027924D01*
X85961100Y-64031531D01*
X85961100Y-64141216D01*
X85941415Y-64208255D01*
X85888611Y-64254010D01*
X85819453Y-64263954D01*
X85755897Y-64234929D01*
X85737835Y-64215529D01*
X85719406Y-64190912D01*
X85719404Y-64190910D01*
X85604310Y-64104750D01*
X85604303Y-64104746D01*
X85469596Y-64054504D01*
X85469589Y-64054502D01*
X85410061Y-64048101D01*
X85256617Y-64048101D01*
X85256617Y-66546701D01*
X85410045Y-66546701D01*
X85410061Y-66546700D01*
X85469589Y-66540299D01*
X85469596Y-66540297D01*
X85604303Y-66490055D01*
X85604310Y-66490051D01*
X85719403Y-66403892D01*
X85743349Y-66371905D01*
X85799283Y-66330034D01*
X85868974Y-66325050D01*
X85930297Y-66358535D01*
X85963782Y-66419858D01*
X85966144Y-66435408D01*
X85971656Y-66498410D01*
X85973116Y-66505477D01*
X85973064Y-66505487D01*
X85974723Y-66512967D01*
X85974774Y-66512955D01*
X85976440Y-66519985D01*
X86002221Y-66590820D01*
X86003404Y-66594223D01*
X86027133Y-66665829D01*
X86030186Y-66672375D01*
X86030136Y-66672398D01*
X86033476Y-66679297D01*
X86033525Y-66679273D01*
X86036767Y-66685730D01*
X86078213Y-66748746D01*
X86080150Y-66751786D01*
X86119731Y-66815956D01*
X86124211Y-66821622D01*
X86124169Y-66821655D01*
X86129001Y-66827586D01*
X86129043Y-66827552D01*
X86133688Y-66833088D01*
X86188538Y-66884836D01*
X86191125Y-66887349D01*
X86898834Y-67595058D01*
X86910615Y-67608690D01*
X86925061Y-67628094D01*
X86963238Y-67660128D01*
X86971214Y-67667438D01*
X86975154Y-67671379D01*
X86975158Y-67671382D01*
X86975159Y-67671383D01*
X86997080Y-67688716D01*
X86999610Y-67690716D01*
X87002407Y-67692995D01*
X87060172Y-67741467D01*
X87066209Y-67745437D01*
X87066179Y-67745482D01*
X87072638Y-67749596D01*
X87072667Y-67749550D01*
X87078807Y-67753337D01*
X87078809Y-67753339D01*
X87147157Y-67785210D01*
X87150375Y-67786768D01*
X87215654Y-67819552D01*
X87217789Y-67820624D01*
X87217791Y-67820624D01*
X87224579Y-67823095D01*
X87224560Y-67823147D01*
X87231785Y-67825658D01*
X87231803Y-67825607D01*
X87238655Y-67827877D01*
X87238656Y-67827877D01*
X87238660Y-67827879D01*
X87312603Y-67843146D01*
X87316010Y-67843902D01*
X87389412Y-67861300D01*
X87389415Y-67861300D01*
X87396586Y-67862139D01*
X87396579Y-67862192D01*
X87404194Y-67862970D01*
X87404199Y-67862917D01*
X87411389Y-67863546D01*
X87411393Y-67863545D01*
X87411394Y-67863546D01*
X87473427Y-67861740D01*
X87486796Y-67861352D01*
X87490402Y-67861300D01*
X88890521Y-67861300D01*
X88908490Y-67862609D01*
X88913871Y-67863396D01*
X88932427Y-67866115D01*
X88982069Y-67861771D01*
X88992876Y-67861300D01*
X88998455Y-67861300D01*
X88998462Y-67861300D01*
X89029424Y-67857680D01*
X89032955Y-67857319D01*
X89108133Y-67850743D01*
X89108136Y-67850741D01*
X89115214Y-67849281D01*
X89115225Y-67849335D01*
X89122684Y-67847681D01*
X89122672Y-67847627D01*
X89129699Y-67845961D01*
X89129700Y-67845960D01*
X89129705Y-67845960D01*
X89200616Y-67820150D01*
X89203915Y-67819003D01*
X89275557Y-67795264D01*
X89275559Y-67795262D01*
X89275561Y-67795262D01*
X89282102Y-67792212D01*
X89282125Y-67792262D01*
X89289019Y-67788925D01*
X89288994Y-67788875D01*
X89295441Y-67785637D01*
X89295445Y-67785636D01*
X89358488Y-67744170D01*
X89361463Y-67742276D01*
X89425675Y-67702670D01*
X89425683Y-67702661D01*
X89431344Y-67698187D01*
X89431378Y-67698230D01*
X89437303Y-67693404D01*
X89437268Y-67693362D01*
X89442797Y-67688720D01*
X89442806Y-67688715D01*
X89494592Y-67633823D01*
X89497037Y-67631306D01*
X89735656Y-67392687D01*
X89796977Y-67359204D01*
X89866669Y-67364188D01*
X89922602Y-67406060D01*
X89947019Y-67471524D01*
X89939517Y-67523702D01*
X89917209Y-67583514D01*
X89917208Y-67583516D01*
X89911937Y-67632552D01*
X89910801Y-67643123D01*
X89910800Y-67643135D01*
X89910800Y-68551670D01*
X89910801Y-68551676D01*
X89917208Y-68611283D01*
X89967502Y-68746128D01*
X89967504Y-68746131D01*
X90008720Y-68801188D01*
X90033138Y-68866653D01*
X90018287Y-68934926D01*
X89968882Y-68984332D01*
X89909454Y-68999500D01*
X84603786Y-68999500D01*
X84536747Y-68979815D01*
X84490992Y-68927011D01*
X84481048Y-68857853D01*
X84504520Y-68801188D01*
X84545736Y-68746131D01*
X84596031Y-68611283D01*
X84602440Y-68551673D01*
X84602439Y-67643128D01*
X84596031Y-67583517D01*
X84573721Y-67523702D01*
X84545737Y-67448671D01*
X84545733Y-67448664D01*
X84459487Y-67333455D01*
X84459484Y-67333452D01*
X84344275Y-67247206D01*
X84344268Y-67247202D01*
X84209422Y-67196908D01*
X84209423Y-67196908D01*
X84149823Y-67190501D01*
X84149821Y-67190500D01*
X84149813Y-67190500D01*
X84149804Y-67190500D01*
X83063469Y-67190500D01*
X83063463Y-67190501D01*
X83003856Y-67196908D01*
X82869011Y-67247202D01*
X82869004Y-67247206D01*
X82753795Y-67333452D01*
X82753792Y-67333455D01*
X82667546Y-67448664D01*
X82667542Y-67448671D01*
X82617248Y-67583517D01*
X82611977Y-67632552D01*
X82610841Y-67643123D01*
X82610840Y-67643135D01*
X82610840Y-68551670D01*
X82610841Y-68551676D01*
X82617248Y-68611283D01*
X82667542Y-68746128D01*
X82667544Y-68746131D01*
X82708760Y-68801188D01*
X82733178Y-68866653D01*
X82718327Y-68934926D01*
X82668922Y-68984332D01*
X82609494Y-68999500D01*
X82124500Y-68999500D01*
X82057461Y-68979815D01*
X82011706Y-68927011D01*
X82000500Y-68875500D01*
X82000500Y-66451672D01*
X82610820Y-66451672D01*
X82610821Y-66451678D01*
X82617228Y-66511285D01*
X82667522Y-66646130D01*
X82667526Y-66646137D01*
X82753772Y-66761346D01*
X82753775Y-66761349D01*
X82868984Y-66847595D01*
X82868991Y-66847599D01*
X83003837Y-66897893D01*
X83003836Y-66897893D01*
X83010764Y-66898637D01*
X83063447Y-66904302D01*
X84149792Y-66904301D01*
X84209403Y-66897893D01*
X84344251Y-66847598D01*
X84459466Y-66761348D01*
X84545716Y-66646133D01*
X84552715Y-66627368D01*
X84594586Y-66571434D01*
X84660051Y-66547017D01*
X84668897Y-66546701D01*
X84756617Y-66546701D01*
X84756617Y-64048101D01*
X84603172Y-64048101D01*
X84543644Y-64054502D01*
X84543637Y-64054504D01*
X84408930Y-64104746D01*
X84408923Y-64104750D01*
X84293829Y-64190910D01*
X84293826Y-64190913D01*
X84207666Y-64306007D01*
X84207662Y-64306014D01*
X84157420Y-64440721D01*
X84157418Y-64440728D01*
X84151017Y-64500256D01*
X84151017Y-64966502D01*
X84131332Y-65033541D01*
X84078528Y-65079296D01*
X84027017Y-65090502D01*
X83063449Y-65090502D01*
X83063443Y-65090503D01*
X83003836Y-65096910D01*
X82868991Y-65147204D01*
X82868984Y-65147208D01*
X82753775Y-65233454D01*
X82753772Y-65233457D01*
X82667526Y-65348666D01*
X82667522Y-65348673D01*
X82617228Y-65483519D01*
X82610821Y-65543118D01*
X82610821Y-65543125D01*
X82610820Y-65543137D01*
X82610820Y-66451672D01*
X82000500Y-66451672D01*
X82000500Y-54394772D01*
X83457300Y-54394772D01*
X83457301Y-54394778D01*
X83463708Y-54454385D01*
X83514002Y-54589230D01*
X83514006Y-54589237D01*
X83600252Y-54704446D01*
X83600255Y-54704449D01*
X83715464Y-54790695D01*
X83715471Y-54790699D01*
X83850317Y-54840993D01*
X83850316Y-54840993D01*
X83857244Y-54841737D01*
X83909927Y-54847402D01*
X84543198Y-54847401D01*
X84610235Y-54867085D01*
X84655990Y-54919889D01*
X84665934Y-54989048D01*
X84642463Y-55045712D01*
X84557948Y-55158609D01*
X84557946Y-55158612D01*
X84507704Y-55293319D01*
X84507702Y-55293326D01*
X84501301Y-55352854D01*
X84501301Y-55645999D01*
X87507201Y-55645999D01*
X87507201Y-54900699D01*
X88007201Y-54900699D01*
X88007201Y-55645999D01*
X91013101Y-55645999D01*
X91013101Y-55352871D01*
X91013100Y-55352854D01*
X91006699Y-55293326D01*
X91006697Y-55293319D01*
X90956455Y-55158612D01*
X90956451Y-55158605D01*
X90870291Y-55043511D01*
X90870288Y-55043508D01*
X90755194Y-54957348D01*
X90755187Y-54957344D01*
X90620480Y-54907102D01*
X90620473Y-54907100D01*
X90560945Y-54900699D01*
X88007201Y-54900699D01*
X87507201Y-54900699D01*
X87503978Y-54897476D01*
X87447915Y-54881014D01*
X87402160Y-54828210D01*
X87392216Y-54759052D01*
X87415686Y-54702389D01*
X87500396Y-54589233D01*
X87550691Y-54454385D01*
X87557100Y-54394775D01*
X87557099Y-52597230D01*
X87550691Y-52537619D01*
X87541429Y-52512787D01*
X87500397Y-52402773D01*
X87500393Y-52402766D01*
X87414147Y-52287557D01*
X87414144Y-52287554D01*
X87298935Y-52201308D01*
X87298928Y-52201304D01*
X87164082Y-52151010D01*
X87164083Y-52151010D01*
X87104483Y-52144603D01*
X87104481Y-52144602D01*
X87104473Y-52144602D01*
X87104464Y-52144602D01*
X83909929Y-52144602D01*
X83909923Y-52144603D01*
X83850316Y-52151010D01*
X83715471Y-52201304D01*
X83715464Y-52201308D01*
X83600255Y-52287554D01*
X83600252Y-52287557D01*
X83514006Y-52402766D01*
X83514002Y-52402773D01*
X83463708Y-52537619D01*
X83457301Y-52597218D01*
X83457301Y-52597225D01*
X83457300Y-52597237D01*
X83457300Y-54394772D01*
X82000500Y-54394772D01*
X82000500Y-51124500D01*
X82020185Y-51057461D01*
X82072989Y-51011706D01*
X82124500Y-51000500D01*
X102875500Y-51000500D01*
X102942539Y-51020185D01*
G37*
%TD.AperFunction*%
%TD*%
M02*
