%TF.GenerationSoftware,KiCad,Pcbnew,7.0.10*%
%TF.CreationDate,2024-02-24T22:19:22-05:00*%
%TF.ProjectId,comparison,636f6d70-6172-4697-936f-6e2e6b696361,rev?*%
%TF.SameCoordinates,Original*%
%TF.FileFunction,Other,User*%
%FSLAX46Y46*%
G04 Gerber Fmt 4.6, Leading zero omitted, Abs format (unit mm)*
G04 Created by KiCad (PCBNEW 7.0.10) date 2024-02-24 22:19:22*
%MOMM*%
%LPD*%
G01*
G04 APERTURE LIST*
%ADD10C,0.000000*%
%ADD11C,0.508000*%
G04 APERTURE END LIST*
D10*
G36*
X135165671Y-80786530D02*
G01*
X135246777Y-80840723D01*
X135300970Y-80921829D01*
X135320000Y-81017500D01*
X135320000Y-81542500D01*
X135300970Y-81638171D01*
X135246777Y-81719277D01*
X135165671Y-81773470D01*
X135070000Y-81792500D01*
X134170000Y-81792500D01*
X134074329Y-81773470D01*
X133993223Y-81719277D01*
X133939030Y-81638171D01*
X133920000Y-81542500D01*
X133920000Y-81017500D01*
X133939030Y-80921829D01*
X133993223Y-80840723D01*
X134074329Y-80786530D01*
X134170000Y-80767500D01*
X135070000Y-80767500D01*
X135165671Y-80786530D01*
G37*
G36*
X145915000Y-76557000D02*
G01*
X140415000Y-76557000D01*
X140415000Y-75557000D01*
X145915000Y-75557000D01*
X145915000Y-76557000D01*
G37*
G36*
X135435000Y-84958000D02*
G01*
X133805000Y-84958000D01*
X133805000Y-82777600D01*
X135435000Y-82777600D01*
X135435000Y-84958000D01*
G37*
G36*
X114210671Y-81064030D02*
G01*
X114291777Y-81118223D01*
X114345970Y-81199329D01*
X114365000Y-81295000D01*
X114365000Y-81820000D01*
X114345970Y-81915671D01*
X114291777Y-81996777D01*
X114210671Y-82050970D01*
X114115000Y-82070000D01*
X113215000Y-82070000D01*
X113119329Y-82050970D01*
X113038223Y-81996777D01*
X112984030Y-81915671D01*
X112965000Y-81820000D01*
X112965000Y-81295000D01*
X112984030Y-81199329D01*
X113038223Y-81118223D01*
X113119329Y-81064030D01*
X113215000Y-81045000D01*
X114115000Y-81045000D01*
X114210671Y-81064030D01*
G37*
G36*
X132984505Y-76093144D02*
G01*
X132997904Y-76102096D01*
X133006856Y-76115495D01*
X133010000Y-76131300D01*
X133010000Y-77708700D01*
X133006856Y-77724505D01*
X132997904Y-77737904D01*
X132984505Y-77746856D01*
X132968700Y-77750000D01*
X132461300Y-77750000D01*
X132445495Y-77746856D01*
X132432096Y-77737904D01*
X132423144Y-77724505D01*
X132420000Y-77708700D01*
X132420000Y-76131300D01*
X132423144Y-76115495D01*
X132432096Y-76102096D01*
X132445495Y-76093144D01*
X132461300Y-76090000D01*
X132968700Y-76090000D01*
X132984505Y-76093144D01*
G37*
D11*
X134620000Y-81280000D02*
X134620000Y-83867800D01*
X113665000Y-81557500D02*
X115872500Y-81557500D01*
D10*
G36*
X146915000Y-79257000D02*
G01*
X143915000Y-79257000D01*
X143915000Y-77657000D01*
X146915000Y-77657000D01*
X146915000Y-79257000D01*
G37*
G36*
X146915000Y-72457000D02*
G01*
X143915000Y-72457000D01*
X143915000Y-70857000D01*
X146915000Y-70857000D01*
X146915000Y-72457000D01*
G37*
G36*
X146915000Y-88528000D02*
G01*
X143915000Y-88528000D01*
X143915000Y-86928000D01*
X146915000Y-86928000D01*
X146915000Y-88528000D01*
G37*
G36*
X146915000Y-81728000D02*
G01*
X143915000Y-81728000D01*
X143915000Y-80128000D01*
X146915000Y-80128000D01*
X146915000Y-81728000D01*
G37*
G36*
X132984505Y-70843144D02*
G01*
X132997904Y-70852096D01*
X133006856Y-70865495D01*
X133010000Y-70881300D01*
X133010000Y-72458700D01*
X133006856Y-72474505D01*
X132997904Y-72487904D01*
X132984505Y-72496856D01*
X132968700Y-72500000D01*
X132461300Y-72500000D01*
X132445495Y-72496856D01*
X132432096Y-72487904D01*
X132423144Y-72474505D01*
X132420000Y-72458700D01*
X132420000Y-70881300D01*
X132423144Y-70865495D01*
X132432096Y-70852096D01*
X132445495Y-70843144D01*
X132461300Y-70840000D01*
X132968700Y-70840000D01*
X132984505Y-70843144D01*
G37*
G36*
X134254505Y-70843144D02*
G01*
X134267904Y-70852096D01*
X134276856Y-70865495D01*
X134280000Y-70881300D01*
X134280000Y-72458700D01*
X134276856Y-72474505D01*
X134267904Y-72487904D01*
X134254505Y-72496856D01*
X134238700Y-72500000D01*
X133731300Y-72500000D01*
X133715495Y-72496856D01*
X133702096Y-72487904D01*
X133693144Y-72474505D01*
X133690000Y-72458700D01*
X133690000Y-70881300D01*
X133693144Y-70865495D01*
X133702096Y-70852096D01*
X133715495Y-70843144D01*
X133731300Y-70840000D01*
X134238700Y-70840000D01*
X134254505Y-70843144D01*
G37*
G36*
X135524505Y-70843144D02*
G01*
X135537904Y-70852096D01*
X135546856Y-70865495D01*
X135550000Y-70881300D01*
X135550000Y-72458700D01*
X135546856Y-72474505D01*
X135537904Y-72487904D01*
X135524505Y-72496856D01*
X135508700Y-72500000D01*
X135001300Y-72500000D01*
X134985495Y-72496856D01*
X134972096Y-72487904D01*
X134963144Y-72474505D01*
X134960000Y-72458700D01*
X134960000Y-70881300D01*
X134963144Y-70865495D01*
X134972096Y-70852096D01*
X134985495Y-70843144D01*
X135001300Y-70840000D01*
X135508700Y-70840000D01*
X135524505Y-70843144D01*
G37*
G36*
X136794505Y-70843144D02*
G01*
X136807904Y-70852096D01*
X136816856Y-70865495D01*
X136820000Y-70881300D01*
X136820000Y-72458700D01*
X136816856Y-72474505D01*
X136807904Y-72487904D01*
X136794505Y-72496856D01*
X136778700Y-72500000D01*
X136271300Y-72500000D01*
X136255495Y-72496856D01*
X136242096Y-72487904D01*
X136233144Y-72474505D01*
X136230000Y-72458700D01*
X136230000Y-70881300D01*
X136233144Y-70865495D01*
X136242096Y-70852096D01*
X136255495Y-70843144D01*
X136271300Y-70840000D01*
X136778700Y-70840000D01*
X136794505Y-70843144D01*
G37*
G36*
X136794505Y-76093144D02*
G01*
X136807904Y-76102096D01*
X136816856Y-76115495D01*
X136820000Y-76131300D01*
X136820000Y-77708700D01*
X136816856Y-77724505D01*
X136807904Y-77737904D01*
X136794505Y-77746856D01*
X136778700Y-77750000D01*
X136271300Y-77750000D01*
X136255495Y-77746856D01*
X136242096Y-77737904D01*
X136233144Y-77724505D01*
X136230000Y-77708700D01*
X136230000Y-76131300D01*
X136233144Y-76115495D01*
X136242096Y-76102096D01*
X136255495Y-76093144D01*
X136271300Y-76090000D01*
X136778700Y-76090000D01*
X136794505Y-76093144D01*
G37*
G36*
X114210671Y-79239030D02*
G01*
X114291777Y-79293223D01*
X114345970Y-79374329D01*
X114365000Y-79470000D01*
X114365000Y-79995000D01*
X114345970Y-80090671D01*
X114291777Y-80171777D01*
X114210671Y-80225970D01*
X114115000Y-80245000D01*
X113215000Y-80245000D01*
X113119329Y-80225970D01*
X113038223Y-80171777D01*
X112984030Y-80090671D01*
X112965000Y-79995000D01*
X112965000Y-79470000D01*
X112984030Y-79374329D01*
X113038223Y-79293223D01*
X113119329Y-79239030D01*
X113215000Y-79220000D01*
X114115000Y-79220000D01*
X114210671Y-79239030D01*
G37*
G36*
X111845671Y-80544030D02*
G01*
X111926777Y-80598223D01*
X111980970Y-80679329D01*
X112000000Y-80775000D01*
X112000000Y-81525000D01*
X111980970Y-81620671D01*
X111926777Y-81701777D01*
X111845671Y-81755970D01*
X111750000Y-81775000D01*
X110500000Y-81775000D01*
X110404329Y-81755970D01*
X110323223Y-81701777D01*
X110269030Y-81620671D01*
X110250000Y-81525000D01*
X110250000Y-80775000D01*
X110269030Y-80679329D01*
X110323223Y-80598223D01*
X110404329Y-80544030D01*
X110500000Y-80525000D01*
X111750000Y-80525000D01*
X111845671Y-80544030D01*
G37*
G36*
X111845671Y-78264030D02*
G01*
X111926777Y-78318223D01*
X111980970Y-78399329D01*
X112000000Y-78495000D01*
X112000000Y-79245000D01*
X111980970Y-79340671D01*
X111926777Y-79421777D01*
X111845671Y-79475970D01*
X111750000Y-79495000D01*
X110500000Y-79495000D01*
X110404329Y-79475970D01*
X110323223Y-79421777D01*
X110269030Y-79340671D01*
X110250000Y-79245000D01*
X110250000Y-78495000D01*
X110269030Y-78399329D01*
X110323223Y-78318223D01*
X110404329Y-78264030D01*
X110500000Y-78245000D01*
X111750000Y-78245000D01*
X111845671Y-78264030D01*
G37*
D11*
X111125000Y-78870000D02*
X112802500Y-78870000D01*
X111125000Y-78870000D02*
X111125000Y-81150000D01*
X112802500Y-78870000D02*
X113665000Y-79732500D01*
D10*
G36*
X135435000Y-88672400D02*
G01*
X133805000Y-88672400D01*
X133805000Y-86492000D01*
X135435000Y-86492000D01*
X135435000Y-88672400D01*
G37*
G36*
X145915000Y-83828000D02*
G01*
X140415000Y-83828000D01*
X140415000Y-82828000D01*
X145915000Y-82828000D01*
X145915000Y-83828000D01*
G37*
D11*
X135895390Y-89238000D02*
X147109000Y-89238000D01*
X147109000Y-89238000D02*
X147955000Y-88392000D01*
X143165000Y-83328000D02*
X146447000Y-83328000D01*
X134620000Y-87962610D02*
X135895390Y-89238000D01*
X146447000Y-83328000D02*
X147955000Y-84836000D01*
X134620000Y-87582200D02*
X134620000Y-87962610D01*
X147955000Y-84836000D02*
X147955000Y-88392000D01*
D10*
G36*
X135165671Y-78961530D02*
G01*
X135246777Y-79015723D01*
X135300970Y-79096829D01*
X135320000Y-79192500D01*
X135320000Y-79717500D01*
X135300970Y-79813171D01*
X135246777Y-79894277D01*
X135165671Y-79948470D01*
X135070000Y-79967500D01*
X134170000Y-79967500D01*
X134074329Y-79948470D01*
X133993223Y-79894277D01*
X133939030Y-79813171D01*
X133920000Y-79717500D01*
X133920000Y-79192500D01*
X133939030Y-79096829D01*
X133993223Y-79015723D01*
X134074329Y-78961530D01*
X134170000Y-78942500D01*
X135070000Y-78942500D01*
X135165671Y-78961530D01*
G37*
G36*
X128644400Y-79019400D02*
G01*
X128085600Y-79019400D01*
X128085600Y-77038200D01*
X128644400Y-77038200D01*
X128644400Y-79019400D01*
G37*
G36*
X134254505Y-76093144D02*
G01*
X134267904Y-76102096D01*
X134276856Y-76115495D01*
X134280000Y-76131300D01*
X134280000Y-77708700D01*
X134276856Y-77724505D01*
X134267904Y-77737904D01*
X134254505Y-77746856D01*
X134238700Y-77750000D01*
X133731300Y-77750000D01*
X133715495Y-77746856D01*
X133702096Y-77737904D01*
X133693144Y-77724505D01*
X133690000Y-77708700D01*
X133690000Y-76131300D01*
X133693144Y-76115495D01*
X133702096Y-76102096D01*
X133715495Y-76093144D01*
X133731300Y-76090000D01*
X134238700Y-76090000D01*
X134254505Y-76093144D01*
G37*
D11*
X133502400Y-75463400D02*
X133985000Y-75946000D01*
X131089400Y-75463400D02*
X133502400Y-75463400D01*
X129032000Y-75438000D02*
X131064000Y-75438000D01*
X133985000Y-75946000D02*
X133985000Y-76920000D01*
X128365000Y-76105000D02*
X128365000Y-78028800D01*
X128365000Y-76105000D02*
X129032000Y-75438000D01*
X133985000Y-76920000D02*
X133985000Y-78820000D01*
X131064000Y-75438000D02*
X131089400Y-75463400D01*
X133985000Y-78820000D02*
X134620000Y-79455000D01*
D10*
G36*
X122294400Y-74091800D02*
G01*
X121735600Y-74091800D01*
X121735600Y-72110600D01*
X122294400Y-72110600D01*
X122294400Y-74091800D01*
G37*
G36*
X116492664Y-76026602D02*
G01*
X116655000Y-76098878D01*
X116798761Y-76203327D01*
X116917664Y-76335383D01*
X117006514Y-76489274D01*
X117061425Y-76658275D01*
X117080000Y-76835000D01*
X117061425Y-77011725D01*
X117006514Y-77180726D01*
X116917664Y-77334617D01*
X116798761Y-77466673D01*
X116655000Y-77571122D01*
X116492664Y-77643398D01*
X116318849Y-77680344D01*
X116141151Y-77680344D01*
X115967336Y-77643398D01*
X115805000Y-77571122D01*
X115661239Y-77466673D01*
X115542336Y-77334617D01*
X115453486Y-77180726D01*
X115398575Y-77011725D01*
X115380000Y-76835000D01*
X115398575Y-76658275D01*
X115453486Y-76489274D01*
X115542336Y-76335383D01*
X115661239Y-76203327D01*
X115805000Y-76098878D01*
X115967336Y-76026602D01*
X116141151Y-75989656D01*
X116318849Y-75989656D01*
X116492664Y-76026602D01*
G37*
G36*
X111845671Y-75464030D02*
G01*
X111926777Y-75518223D01*
X111980970Y-75599329D01*
X112000000Y-75695000D01*
X112000000Y-76445000D01*
X111980970Y-76540671D01*
X111926777Y-76621777D01*
X111845671Y-76675970D01*
X111750000Y-76695000D01*
X110500000Y-76695000D01*
X110404329Y-76675970D01*
X110323223Y-76621777D01*
X110269030Y-76540671D01*
X110250000Y-76445000D01*
X110250000Y-75695000D01*
X110269030Y-75599329D01*
X110323223Y-75518223D01*
X110404329Y-75464030D01*
X110500000Y-75445000D01*
X111750000Y-75445000D01*
X111845671Y-75464030D01*
G37*
D11*
X121303800Y-73101200D02*
X122015000Y-73101200D01*
X111125000Y-76070000D02*
X112900000Y-76070000D01*
X116230000Y-76835000D02*
X117570000Y-76835000D01*
X117570000Y-76835000D02*
X121303800Y-73101200D01*
X113665000Y-76835000D02*
X116230000Y-76835000D01*
X112900000Y-76070000D02*
X113665000Y-76835000D01*
D10*
G36*
X122125000Y-86155000D02*
G01*
X120825000Y-86155000D01*
X120825000Y-82755000D01*
X122125000Y-82755000D01*
X122125000Y-86155000D01*
G37*
G36*
X122294400Y-79019400D02*
G01*
X121735600Y-79019400D01*
X121735600Y-77038200D01*
X122294400Y-77038200D01*
X122294400Y-79019400D01*
G37*
G36*
X117080000Y-87845000D02*
G01*
X115380000Y-87845000D01*
X115380000Y-86145000D01*
X117080000Y-86145000D01*
X117080000Y-87845000D01*
G37*
G36*
X111845671Y-83344030D02*
G01*
X111926777Y-83398223D01*
X111980970Y-83479329D01*
X112000000Y-83575000D01*
X112000000Y-84325000D01*
X111980970Y-84420671D01*
X111926777Y-84501777D01*
X111845671Y-84555970D01*
X111750000Y-84575000D01*
X110500000Y-84575000D01*
X110404329Y-84555970D01*
X110323223Y-84501777D01*
X110269030Y-84420671D01*
X110250000Y-84325000D01*
X110250000Y-83575000D01*
X110269030Y-83479329D01*
X110323223Y-83398223D01*
X110404329Y-83344030D01*
X110500000Y-83325000D01*
X111750000Y-83325000D01*
X111845671Y-83344030D01*
G37*
D11*
X119475000Y-79375000D02*
X120821200Y-78028800D01*
X111125000Y-85090000D02*
X113030000Y-86995000D01*
X121475000Y-84455000D02*
X121475000Y-84995000D01*
X119475000Y-79375000D02*
X119475000Y-81915000D01*
X120821200Y-78028800D02*
X122015000Y-78028800D01*
X113030000Y-86995000D02*
X116230000Y-86995000D01*
X111125000Y-83950000D02*
X111125000Y-85090000D01*
X121475000Y-83915000D02*
X121475000Y-84455000D01*
X116230000Y-86995000D02*
X119475000Y-86995000D01*
X119475000Y-81915000D02*
X121475000Y-83915000D01*
X119475000Y-86995000D02*
X121475000Y-84995000D01*
D10*
G36*
X145915000Y-74557000D02*
G01*
X140415000Y-74557000D01*
X140415000Y-73557000D01*
X145915000Y-73557000D01*
X145915000Y-74557000D01*
G37*
G36*
X127374400Y-74091800D02*
G01*
X126815600Y-74091800D01*
X126815600Y-72110600D01*
X127374400Y-72110600D01*
X127374400Y-74091800D01*
G37*
D11*
X127095000Y-71755000D02*
X127730000Y-71120000D01*
X131572000Y-72644000D02*
X132985000Y-74057000D01*
X127730000Y-71120000D02*
X130937000Y-71120000D01*
X130937000Y-71120000D02*
X131572000Y-71755000D01*
X127095000Y-71755000D02*
X127095000Y-73101200D01*
X131572000Y-71755000D02*
X131572000Y-72644000D01*
X132985000Y-74057000D02*
X143165000Y-74057000D01*
D10*
G36*
X129914400Y-74091800D02*
G01*
X129355600Y-74091800D01*
X129355600Y-72110600D01*
X129914400Y-72110600D01*
X129914400Y-74091800D01*
G37*
G36*
X145915000Y-85828000D02*
G01*
X140415000Y-85828000D01*
X140415000Y-84828000D01*
X145915000Y-84828000D01*
X145915000Y-85828000D01*
G37*
G36*
X116492664Y-78566602D02*
G01*
X116655000Y-78638878D01*
X116798761Y-78743327D01*
X116917664Y-78875383D01*
X117006514Y-79029274D01*
X117061425Y-79198275D01*
X117080000Y-79375000D01*
X117061425Y-79551725D01*
X117006514Y-79720726D01*
X116917664Y-79874617D01*
X116798761Y-80006673D01*
X116655000Y-80111122D01*
X116492664Y-80183398D01*
X116318849Y-80220344D01*
X116141151Y-80220344D01*
X115967336Y-80183398D01*
X115805000Y-80111122D01*
X115661239Y-80006673D01*
X115542336Y-79874617D01*
X115453486Y-79720726D01*
X115398575Y-79551725D01*
X115380000Y-79375000D01*
X115398575Y-79198275D01*
X115453486Y-79029274D01*
X115542336Y-78875383D01*
X115661239Y-78743327D01*
X115805000Y-78638878D01*
X115967336Y-78566602D01*
X116141151Y-78529656D01*
X116318849Y-78529656D01*
X116492664Y-78566602D01*
G37*
G36*
X135524505Y-76093144D02*
G01*
X135537904Y-76102096D01*
X135546856Y-76115495D01*
X135550000Y-76131300D01*
X135550000Y-77708700D01*
X135546856Y-77724505D01*
X135537904Y-77737904D01*
X135524505Y-77746856D01*
X135508700Y-77750000D01*
X135001300Y-77750000D01*
X134985495Y-77746856D01*
X134972096Y-77737904D01*
X134963144Y-77724505D01*
X134960000Y-77708700D01*
X134960000Y-76131300D01*
X134963144Y-76115495D01*
X134972096Y-76102096D01*
X134985495Y-76093144D01*
X135001300Y-76090000D01*
X135508700Y-76090000D01*
X135524505Y-76093144D01*
G37*
D11*
X140192000Y-85328000D02*
X143165000Y-85328000D01*
X135255000Y-77978000D02*
X138430000Y-81153000D01*
X138430000Y-81153000D02*
X138430000Y-83566000D01*
X116230000Y-79375000D02*
X120929000Y-74676000D01*
X120929000Y-74676000D02*
X129254000Y-74676000D01*
X138430000Y-83566000D02*
X140192000Y-85328000D01*
X129635000Y-73101200D02*
X129635000Y-74295000D01*
X129635000Y-73101200D02*
X130759200Y-73101200D01*
X134366000Y-74803000D02*
X135255000Y-75692000D01*
X132461000Y-74803000D02*
X134366000Y-74803000D01*
X135255000Y-75692000D02*
X135255000Y-76920000D01*
X130759200Y-73101200D02*
X132461000Y-74803000D01*
X129254000Y-74676000D02*
X129635000Y-74295000D01*
X135255000Y-76920000D02*
X135255000Y-77978000D01*
M02*
