%TF.GenerationSoftware,KiCad,Pcbnew,7.0.10*%
%TF.CreationDate,2024-02-24T22:19:21-05:00*%
%TF.ProjectId,comparison,636f6d70-6172-4697-936f-6e2e6b696361,rev?*%
%TF.SameCoordinates,Original*%
%TF.FileFunction,Other,User*%
%FSLAX46Y46*%
G04 Gerber Fmt 4.6, Leading zero omitted, Abs format (unit mm)*
G04 Created by KiCad (PCBNEW 7.0.10) date 2024-02-24 22:19:21*
%MOMM*%
%LPD*%
G01*
G04 APERTURE LIST*
%ADD10C,0.000000*%
%ADD11C,0.508000*%
G04 APERTURE END LIST*
D10*
G36*
X143121000Y-76684000D02*
G01*
X137621000Y-76684000D01*
X137621000Y-75684000D01*
X143121000Y-75684000D01*
X143121000Y-76684000D01*
G37*
G36*
X143121000Y-83955000D02*
G01*
X137621000Y-83955000D01*
X137621000Y-82955000D01*
X143121000Y-82955000D01*
X143121000Y-83955000D01*
G37*
G36*
X128644400Y-79019400D02*
G01*
X128085600Y-79019400D01*
X128085600Y-77038200D01*
X128644400Y-77038200D01*
X128644400Y-79019400D01*
G37*
G36*
X144121000Y-79384000D02*
G01*
X141121000Y-79384000D01*
X141121000Y-77784000D01*
X144121000Y-77784000D01*
X144121000Y-79384000D01*
G37*
G36*
X144121000Y-72584000D02*
G01*
X141121000Y-72584000D01*
X141121000Y-70984000D01*
X144121000Y-70984000D01*
X144121000Y-72584000D01*
G37*
G36*
X144121000Y-88655000D02*
G01*
X141121000Y-88655000D01*
X141121000Y-87055000D01*
X144121000Y-87055000D01*
X144121000Y-88655000D01*
G37*
G36*
X144121000Y-81855000D02*
G01*
X141121000Y-81855000D01*
X141121000Y-80255000D01*
X144121000Y-80255000D01*
X144121000Y-81855000D01*
G37*
G36*
X122294400Y-74091800D02*
G01*
X121735600Y-74091800D01*
X121735600Y-72110600D01*
X122294400Y-72110600D01*
X122294400Y-74091800D01*
G37*
G36*
X116492664Y-76026602D02*
G01*
X116655000Y-76098878D01*
X116798761Y-76203327D01*
X116917664Y-76335383D01*
X117006514Y-76489274D01*
X117061425Y-76658275D01*
X117080000Y-76835000D01*
X117061425Y-77011725D01*
X117006514Y-77180726D01*
X116917664Y-77334617D01*
X116798761Y-77466673D01*
X116655000Y-77571122D01*
X116492664Y-77643398D01*
X116318849Y-77680344D01*
X116141151Y-77680344D01*
X115967336Y-77643398D01*
X115805000Y-77571122D01*
X115661239Y-77466673D01*
X115542336Y-77334617D01*
X115453486Y-77180726D01*
X115398575Y-77011725D01*
X115380000Y-76835000D01*
X115730000Y-76835000D01*
X115731903Y-76878577D01*
X115737597Y-76921824D01*
X115747038Y-76964409D01*
X115760154Y-77006010D01*
X115776847Y-77046309D01*
X115796988Y-77084999D01*
X115820424Y-77121788D01*
X115846978Y-77156393D01*
X115876447Y-77188553D01*
X115908607Y-77218022D01*
X115943212Y-77244576D01*
X115980001Y-77268012D01*
X116018691Y-77288153D01*
X116058990Y-77304846D01*
X116100591Y-77317962D01*
X116143176Y-77327403D01*
X116186423Y-77333097D01*
X116230000Y-77335000D01*
X116273577Y-77333097D01*
X116316824Y-77327403D01*
X116359409Y-77317962D01*
X116401010Y-77304846D01*
X116441309Y-77288153D01*
X116480000Y-77268012D01*
X116516788Y-77244576D01*
X116551393Y-77218022D01*
X116583553Y-77188553D01*
X116613022Y-77156393D01*
X116639576Y-77121788D01*
X116663012Y-77084999D01*
X116683153Y-77046309D01*
X116699846Y-77006010D01*
X116712962Y-76964409D01*
X116722403Y-76921824D01*
X116728097Y-76878577D01*
X116730000Y-76835000D01*
X116728097Y-76791423D01*
X116722403Y-76748176D01*
X116712962Y-76705591D01*
X116699846Y-76663990D01*
X116683153Y-76623691D01*
X116663012Y-76585000D01*
X116639576Y-76548212D01*
X116613022Y-76513607D01*
X116583553Y-76481447D01*
X116551393Y-76451978D01*
X116516788Y-76425424D01*
X116480000Y-76401988D01*
X116441309Y-76381847D01*
X116401010Y-76365154D01*
X116359409Y-76352038D01*
X116316824Y-76342597D01*
X116273577Y-76336903D01*
X116230000Y-76335000D01*
X116186423Y-76336903D01*
X116143176Y-76342597D01*
X116100591Y-76352038D01*
X116058990Y-76365154D01*
X116018691Y-76381847D01*
X115980000Y-76401988D01*
X115943212Y-76425424D01*
X115908607Y-76451978D01*
X115876447Y-76481447D01*
X115846978Y-76513607D01*
X115820424Y-76548212D01*
X115796988Y-76585000D01*
X115776847Y-76623691D01*
X115760154Y-76663990D01*
X115747038Y-76705591D01*
X115737597Y-76748176D01*
X115731903Y-76791423D01*
X115730000Y-76835000D01*
X115380000Y-76835000D01*
X115398575Y-76658275D01*
X115453486Y-76489274D01*
X115542336Y-76335383D01*
X115661239Y-76203327D01*
X115805000Y-76098878D01*
X115967336Y-76026602D01*
X116141151Y-75989656D01*
X116318849Y-75989656D01*
X116492664Y-76026602D01*
G37*
D11*
X121303800Y-73101200D02*
X122015000Y-73101200D01*
X116230000Y-76835000D02*
X117570000Y-76835000D01*
X117570000Y-76835000D02*
X121303800Y-73101200D01*
D10*
G36*
X122125000Y-86155000D02*
G01*
X120825000Y-86155000D01*
X120825000Y-82755000D01*
X122125000Y-82755000D01*
X122125000Y-86155000D01*
G37*
G36*
X122294400Y-79019400D02*
G01*
X121735600Y-79019400D01*
X121735600Y-77038200D01*
X122294400Y-77038200D01*
X122294400Y-79019400D01*
G37*
G36*
X117080000Y-87845000D02*
G01*
X115380000Y-87845000D01*
X115380000Y-86995000D01*
X115730000Y-86995000D01*
X115731903Y-87038577D01*
X115737597Y-87081824D01*
X115747038Y-87124409D01*
X115760154Y-87166010D01*
X115776847Y-87206309D01*
X115796988Y-87244999D01*
X115820424Y-87281788D01*
X115846978Y-87316393D01*
X115876447Y-87348553D01*
X115908607Y-87378022D01*
X115943212Y-87404576D01*
X115980001Y-87428012D01*
X116018691Y-87448153D01*
X116058990Y-87464846D01*
X116100591Y-87477962D01*
X116143176Y-87487403D01*
X116186423Y-87493097D01*
X116230000Y-87495000D01*
X116273577Y-87493097D01*
X116316824Y-87487403D01*
X116359409Y-87477962D01*
X116401010Y-87464846D01*
X116441309Y-87448153D01*
X116480000Y-87428012D01*
X116516788Y-87404576D01*
X116551393Y-87378022D01*
X116583553Y-87348553D01*
X116613022Y-87316393D01*
X116639576Y-87281788D01*
X116663012Y-87244999D01*
X116683153Y-87206309D01*
X116699846Y-87166010D01*
X116712962Y-87124409D01*
X116722403Y-87081824D01*
X116728097Y-87038577D01*
X116730000Y-86995000D01*
X116728097Y-86951423D01*
X116722403Y-86908176D01*
X116712962Y-86865591D01*
X116699846Y-86823990D01*
X116683153Y-86783691D01*
X116663012Y-86745000D01*
X116639576Y-86708212D01*
X116613022Y-86673607D01*
X116583553Y-86641447D01*
X116551393Y-86611978D01*
X116516788Y-86585424D01*
X116480000Y-86561988D01*
X116441309Y-86541847D01*
X116401010Y-86525154D01*
X116359409Y-86512038D01*
X116316824Y-86502597D01*
X116273577Y-86496903D01*
X116230000Y-86495000D01*
X116186423Y-86496903D01*
X116143176Y-86502597D01*
X116100591Y-86512038D01*
X116058990Y-86525154D01*
X116018691Y-86541847D01*
X115980000Y-86561988D01*
X115943212Y-86585424D01*
X115908607Y-86611978D01*
X115876447Y-86641447D01*
X115846978Y-86673607D01*
X115820424Y-86708212D01*
X115796988Y-86745000D01*
X115776847Y-86783691D01*
X115760154Y-86823990D01*
X115747038Y-86865591D01*
X115737597Y-86908176D01*
X115731903Y-86951423D01*
X115730000Y-86995000D01*
X115380000Y-86995000D01*
X115380000Y-86145000D01*
X117080000Y-86145000D01*
X117080000Y-87845000D01*
G37*
D11*
X119475000Y-79375000D02*
X120821200Y-78028800D01*
X121475000Y-84455000D02*
X121475000Y-84995000D01*
X119475000Y-79375000D02*
X119475000Y-81915000D01*
X120821200Y-78028800D02*
X122015000Y-78028800D01*
X121475000Y-83915000D02*
X121475000Y-84455000D01*
X116230000Y-86995000D02*
X119475000Y-86995000D01*
X119475000Y-81915000D02*
X121475000Y-83915000D01*
X119475000Y-86995000D02*
X121475000Y-84995000D01*
D10*
G36*
X143121000Y-74684000D02*
G01*
X137621000Y-74684000D01*
X137621000Y-73684000D01*
X143121000Y-73684000D01*
X143121000Y-74684000D01*
G37*
G36*
X127374400Y-74091800D02*
G01*
X126815600Y-74091800D01*
X126815600Y-72110600D01*
X127374400Y-72110600D01*
X127374400Y-74091800D01*
G37*
D11*
X132842000Y-71120000D02*
X135906000Y-74184000D01*
X135906000Y-74184000D02*
X140371000Y-74184000D01*
X127730000Y-71120000D02*
X132842000Y-71120000D01*
X127095000Y-71755000D02*
X127095000Y-73101200D01*
X127095000Y-71755000D02*
X127730000Y-71120000D01*
D10*
G36*
X129914400Y-74091800D02*
G01*
X129355600Y-74091800D01*
X129355600Y-72110600D01*
X129914400Y-72110600D01*
X129914400Y-74091800D01*
G37*
G36*
X143121000Y-85955000D02*
G01*
X137621000Y-85955000D01*
X137621000Y-84955000D01*
X143121000Y-84955000D01*
X143121000Y-85955000D01*
G37*
G36*
X116492664Y-78566602D02*
G01*
X116655000Y-78638878D01*
X116798761Y-78743327D01*
X116917664Y-78875383D01*
X117006514Y-79029274D01*
X117061425Y-79198275D01*
X117080000Y-79375000D01*
X117061425Y-79551725D01*
X117006514Y-79720726D01*
X116917664Y-79874617D01*
X116798761Y-80006673D01*
X116655000Y-80111122D01*
X116492664Y-80183398D01*
X116318849Y-80220344D01*
X116141151Y-80220344D01*
X115967336Y-80183398D01*
X115805000Y-80111122D01*
X115661239Y-80006673D01*
X115542336Y-79874617D01*
X115453486Y-79720726D01*
X115398575Y-79551725D01*
X115380000Y-79375000D01*
X115730000Y-79375000D01*
X115731903Y-79418577D01*
X115737597Y-79461824D01*
X115747038Y-79504409D01*
X115760154Y-79546010D01*
X115776847Y-79586309D01*
X115796988Y-79624999D01*
X115820424Y-79661788D01*
X115846978Y-79696393D01*
X115876447Y-79728553D01*
X115908607Y-79758022D01*
X115943212Y-79784576D01*
X115980001Y-79808012D01*
X116018691Y-79828153D01*
X116058990Y-79844846D01*
X116100591Y-79857962D01*
X116143176Y-79867403D01*
X116186423Y-79873097D01*
X116230000Y-79875000D01*
X116273577Y-79873097D01*
X116316824Y-79867403D01*
X116359409Y-79857962D01*
X116401010Y-79844846D01*
X116441309Y-79828153D01*
X116480000Y-79808012D01*
X116516788Y-79784576D01*
X116551393Y-79758022D01*
X116583553Y-79728553D01*
X116613022Y-79696393D01*
X116639576Y-79661788D01*
X116663012Y-79624999D01*
X116683153Y-79586309D01*
X116699846Y-79546010D01*
X116712962Y-79504409D01*
X116722403Y-79461824D01*
X116728097Y-79418577D01*
X116730000Y-79375000D01*
X116728097Y-79331423D01*
X116722403Y-79288176D01*
X116712962Y-79245591D01*
X116699846Y-79203990D01*
X116683153Y-79163691D01*
X116663012Y-79125000D01*
X116639576Y-79088212D01*
X116613022Y-79053607D01*
X116583553Y-79021447D01*
X116551393Y-78991978D01*
X116516788Y-78965424D01*
X116480000Y-78941988D01*
X116441309Y-78921847D01*
X116401010Y-78905154D01*
X116359409Y-78892038D01*
X116316824Y-78882597D01*
X116273577Y-78876903D01*
X116230000Y-78875000D01*
X116186423Y-78876903D01*
X116143176Y-78882597D01*
X116100591Y-78892038D01*
X116058990Y-78905154D01*
X116018691Y-78921847D01*
X115980000Y-78941988D01*
X115943212Y-78965424D01*
X115908607Y-78991978D01*
X115876447Y-79021447D01*
X115846978Y-79053607D01*
X115820424Y-79088212D01*
X115796988Y-79125000D01*
X115776847Y-79163691D01*
X115760154Y-79203990D01*
X115747038Y-79245591D01*
X115737597Y-79288176D01*
X115731903Y-79331423D01*
X115730000Y-79375000D01*
X115380000Y-79375000D01*
X115398575Y-79198275D01*
X115453486Y-79029274D01*
X115542336Y-78875383D01*
X115661239Y-78743327D01*
X115805000Y-78638878D01*
X115967336Y-78566602D01*
X116141151Y-78529656D01*
X116318849Y-78529656D01*
X116492664Y-78566602D01*
G37*
D11*
X133477000Y-82931000D02*
X136001000Y-85455000D01*
X130759200Y-73101200D02*
X133477000Y-75819000D01*
X116230000Y-79375000D02*
X120929000Y-74676000D01*
X136001000Y-85455000D02*
X140371000Y-85455000D01*
X120929000Y-74676000D02*
X129254000Y-74676000D01*
X129635000Y-73101200D02*
X130759200Y-73101200D01*
X129635000Y-73101200D02*
X129635000Y-74295000D01*
X133477000Y-75819000D02*
X133477000Y-82931000D01*
X129254000Y-74676000D02*
X129635000Y-74295000D01*
M02*
