<?xml version="1.0" standalone="no"?>
 <!DOCTYPE svg PUBLIC "-//W3C//DTD SVG 1.1//EN" 
 "http://www.w3.org/Graphics/SVG/1.1/DTD/svg11.dtd"> 
<svg
  xmlns:svg="http://www.w3.org/2000/svg"
  xmlns="http://www.w3.org/2000/svg"
  xmlns:xlink="http://www.w3.org/1999/xlink"
  version="1.1"
  width="297.0022mm" height="210.0072mm" viewBox="0.0000 0.0000 297.0022 210.0072">
<title>SVG Image created as comparison-write_F_Cu.svg date 2024/07/18 18:45:44 </title>
  <desc>Image generated by PCBNEW </desc>
<g style="fill:#000000; fill-opacity:1.0000;stroke:#000000; stroke-opacity:1.0000;
stroke-linecap:round; stroke-linejoin:round;"
 transform="translate(0 0) scale(1 1)">
</g>
<g style="fill:#000000; fill-opacity:0.0; 
stroke:#000000; stroke-width:0.0000; stroke-opacity:1; 
stroke-linecap:round; stroke-linejoin:round;">
</g>
<g style="fill:#000000; fill-opacity:0.0; 
stroke:#000000; stroke-width:0.6000; stroke-opacity:1; 
stroke-linecap:round; stroke-linejoin:round;">
<path d="M143.1504 75.3854
L143.1210 75.3840
" />
<path d="M143.1795 75.3898
L143.1504 75.3854
" />
<path d="M143.2081 75.3969
L143.1795 75.3898
" />
<path d="M143.2358 75.4068
L143.2081 75.3969
" />
<path d="M143.2624 75.4194
L143.2358 75.4068
" />
<path d="M143.2877 75.4346
L143.2624 75.4194
" />
<path d="M143.3113 75.4521
L143.2877 75.4346
" />
<path d="M143.3331 75.4719
L143.3113 75.4521
" />
<path d="M143.3529 75.4937
L143.3331 75.4719
" />
<path d="M143.3704 75.5173
L143.3529 75.4937
" />
<path d="M143.3856 75.5426
L143.3704 75.5173
" />
<path d="M143.3982 75.5692
L143.3856 75.5426
" />
<path d="M143.4081 75.5969
L143.3982 75.5692
" />
<path d="M143.4152 75.6255
L143.4081 75.5969
" />
<path d="M143.4196 75.6546
L143.4152 75.6255
" />
<path d="M143.4210 75.6840
L143.4196 75.6546
" />
<path d="M143.4210 76.6840
L143.4210 75.6840
" />
<path d="M143.4196 76.7134
L143.4210 76.6840
" />
<path d="M143.4152 76.7425
L143.4196 76.7134
" />
<path d="M143.4081 76.7711
L143.4152 76.7425
" />
<path d="M143.3982 76.7988
L143.4081 76.7711
" />
<path d="M143.3856 76.8254
L143.3982 76.7988
" />
<path d="M143.3704 76.8507
L143.3856 76.8254
" />
<path d="M143.3657 76.8570
L143.3704 76.8507
" />
<path d="M143.3529 76.8743
L143.3657 76.8570
" />
<path d="M143.3331 76.8961
L143.3529 76.8743
" />
<path d="M143.3113 76.9159
L143.3331 76.8961
" />
<path d="M143.2877 76.9334
L143.3113 76.9159
" />
<path d="M143.2624 76.9486
L143.2877 76.9334
" />
<path d="M143.2358 76.9612
L143.2624 76.9486
" />
<path d="M143.2081 76.9711
L143.2358 76.9612
" />
<path d="M143.1795 76.9782
L143.2081 76.9711
" />
<path d="M143.1504 76.9826
L143.1795 76.9782
" />
<path d="M143.1210 76.9840
L143.1504 76.9826
" />
<path d="M137.6210 76.9840
L143.1210 76.9840
" />
<path d="M137.5916 76.9826
L137.6210 76.9840
" />
<path d="M137.5625 76.9782
L137.5916 76.9826
" />
<path d="M137.5339 76.9711
L137.5625 76.9782
" />
<path d="M137.5062 76.9612
L137.5339 76.9711
" />
<path d="M137.4796 76.9486
L137.5062 76.9612
" />
<path d="M137.4543 76.9334
L137.4796 76.9486
" />
<path d="M137.4307 76.9159
L137.4543 76.9334
" />
<path d="M137.4089 76.8961
L137.4307 76.9159
" />
<path d="M137.3891 76.8743
L137.4089 76.8961
" />
<path d="M137.3716 76.8507
L137.3891 76.8743
" />
<path d="M137.3564 76.8254
L137.3716 76.8507
" />
<path d="M137.3438 76.7988
L137.3564 76.8254
" />
<path d="M137.3339 76.7711
L137.3438 76.7988
" />
<path d="M137.3268 76.7425
L137.3339 76.7711
" />
<path d="M137.3224 76.7134
L137.3268 76.7425
" />
<path d="M137.3210 76.6840
L137.3224 76.7134
" />
<path d="M137.3210 75.6840
L137.3210 76.6840
" />
<path d="M137.3224 75.6546
L137.3210 75.6840
" />
<path d="M137.3268 75.6255
L137.3224 75.6546
" />
<path d="M137.3339 75.5969
L137.3268 75.6255
" />
<path d="M137.3438 75.5692
L137.3339 75.5969
" />
<path d="M137.3564 75.5426
L137.3438 75.5692
" />
<path d="M137.3716 75.5173
L137.3564 75.5426
" />
<path d="M137.3891 75.4937
L137.3716 75.5173
" />
<path d="M137.4089 75.4719
L137.3891 75.4937
" />
<path d="M137.4307 75.4521
L137.4089 75.4719
" />
<path d="M137.4543 75.4346
L137.4307 75.4521
" />
<path d="M137.4796 75.4194
L137.4543 75.4346
" />
<path d="M137.5062 75.4068
L137.4796 75.4194
" />
<path d="M137.5339 75.3969
L137.5062 75.4068
" />
<path d="M137.5625 75.3898
L137.5339 75.3969
" />
<path d="M137.5916 75.3854
L137.5625 75.3898
" />
<path d="M137.6210 75.3840
L137.5916 75.3854
" />
<path d="M140.1703 75.3840
L137.6210 75.3840
" />
<path d="M143.1210 75.3840
L140.1703 75.3840
" />
<path d="M143.1504 82.6564
L143.1210 82.6550
" />
<path d="M143.1795 82.6608
L143.1504 82.6564
" />
<path d="M143.2081 82.6679
L143.1795 82.6608
" />
<path d="M143.2358 82.6778
L143.2081 82.6679
" />
<path d="M143.2624 82.6904
L143.2358 82.6778
" />
<path d="M143.2877 82.7056
L143.2624 82.6904
" />
<path d="M143.3113 82.7231
L143.2877 82.7056
" />
<path d="M143.3331 82.7429
L143.3113 82.7231
" />
<path d="M143.3529 82.7647
L143.3331 82.7429
" />
<path d="M143.3704 82.7883
L143.3529 82.7647
" />
<path d="M143.3856 82.8136
L143.3704 82.7883
" />
<path d="M143.3982 82.8402
L143.3856 82.8136
" />
<path d="M143.4081 82.8679
L143.3982 82.8402
" />
<path d="M143.4152 82.8965
L143.4081 82.8679
" />
<path d="M143.4196 82.9256
L143.4152 82.8965
" />
<path d="M143.4210 82.9550
L143.4196 82.9256
" />
<path d="M143.4210 83.9550
L143.4210 82.9550
" />
<path d="M143.4196 83.9844
L143.4210 83.9550
" />
<path d="M143.4152 84.0135
L143.4196 83.9844
" />
<path d="M143.4081 84.0421
L143.4152 84.0135
" />
<path d="M143.3982 84.0698
L143.4081 84.0421
" />
<path d="M143.3856 84.0964
L143.3982 84.0698
" />
<path d="M143.3704 84.1217
L143.3856 84.0964
" />
<path d="M143.3657 84.1280
L143.3704 84.1217
" />
<path d="M143.3529 84.1453
L143.3657 84.1280
" />
<path d="M143.3331 84.1671
L143.3529 84.1453
" />
<path d="M143.3113 84.1869
L143.3331 84.1671
" />
<path d="M143.2877 84.2044
L143.3113 84.1869
" />
<path d="M143.2624 84.2196
L143.2877 84.2044
" />
<path d="M143.2358 84.2322
L143.2624 84.2196
" />
<path d="M143.2081 84.2421
L143.2358 84.2322
" />
<path d="M143.1795 84.2492
L143.2081 84.2421
" />
<path d="M143.1504 84.2536
L143.1795 84.2492
" />
<path d="M143.1210 84.2550
L143.1504 84.2536
" />
<path d="M139.9025 84.2550
L143.1210 84.2550
" />
<path d="M138.3355 84.2550
L139.9025 84.2550
" />
<path d="M137.6210 84.2550
L138.3355 84.2550
" />
<path d="M137.5916 84.2536
L137.6210 84.2550
" />
<path d="M137.5625 84.2492
L137.5916 84.2536
" />
<path d="M137.5339 84.2421
L137.5625 84.2492
" />
<path d="M137.5062 84.2322
L137.5339 84.2421
" />
<path d="M137.4796 84.2196
L137.5062 84.2322
" />
<path d="M137.4543 84.2044
L137.4796 84.2196
" />
<path d="M137.4307 84.1869
L137.4543 84.2044
" />
<path d="M137.4089 84.1671
L137.4307 84.1869
" />
<path d="M137.3891 84.1453
L137.4089 84.1671
" />
<path d="M137.3716 84.1217
L137.3891 84.1453
" />
<path d="M137.3564 84.0964
L137.3716 84.1217
" />
<path d="M137.3438 84.0698
L137.3564 84.0964
" />
<path d="M137.3339 84.0421
L137.3438 84.0698
" />
<path d="M137.3268 84.0135
L137.3339 84.0421
" />
<path d="M137.3224 83.9844
L137.3268 84.0135
" />
<path d="M137.3210 83.9550
L137.3224 83.9844
" />
<path d="M137.3210 82.9550
L137.3210 83.9550
" />
<path d="M137.3224 82.9256
L137.3210 82.9550
" />
<path d="M137.3268 82.8965
L137.3224 82.9256
" />
<path d="M137.3339 82.8679
L137.3268 82.8965
" />
<path d="M137.3438 82.8402
L137.3339 82.8679
" />
<path d="M137.3564 82.8136
L137.3438 82.8402
" />
<path d="M137.3716 82.7883
L137.3564 82.8136
" />
<path d="M137.3891 82.7647
L137.3716 82.7883
" />
<path d="M137.4089 82.7429
L137.3891 82.7647
" />
<path d="M137.4307 82.7231
L137.4089 82.7429
" />
<path d="M137.4543 82.7056
L137.4307 82.7231
" />
<path d="M137.4796 82.6904
L137.4543 82.7056
" />
<path d="M137.5062 82.6778
L137.4796 82.6904
" />
<path d="M137.5339 82.6679
L137.5062 82.6778
" />
<path d="M137.5625 82.6608
L137.5339 82.6679
" />
<path d="M137.5916 82.6564
L137.5625 82.6608
" />
<path d="M137.6210 82.6550
L137.5916 82.6564
" />
<path d="M137.8760 82.6550
L137.6210 82.6550
" />
<path d="M138.9840 82.6550
L137.8760 82.6550
" />
<path d="M140.1703 82.6550
L138.9840 82.6550
" />
<path d="M143.1210 82.6550
L140.1703 82.6550
" />
<path d="M128.6738 76.7396
L128.6444 76.7382
" />
<path d="M128.7029 76.7440
L128.6738 76.7396
" />
<path d="M128.7315 76.7511
L128.7029 76.7440
" />
<path d="M128.7592 76.7610
L128.7315 76.7511
" />
<path d="M128.7858 76.7736
L128.7592 76.7610
" />
<path d="M128.8111 76.7888
L128.7858 76.7736
" />
<path d="M128.8347 76.8063
L128.8111 76.7888
" />
<path d="M128.8565 76.8261
L128.8347 76.8063
" />
<path d="M128.8763 76.8479
L128.8565 76.8261
" />
<path d="M128.8938 76.8715
L128.8763 76.8479
" />
<path d="M128.9090 76.8968
L128.8938 76.8715
" />
<path d="M128.9190 76.9180
L128.9090 76.8968
" />
<path d="M127.8210 76.8968
L127.8110 76.9180
" />
<path d="M127.8362 76.8715
L127.8210 76.8968
" />
<path d="M127.8537 76.8479
L127.8362 76.8715
" />
<path d="M127.8735 76.8261
L127.8537 76.8479
" />
<path d="M127.8953 76.8063
L127.8735 76.8261
" />
<path d="M127.9189 76.7888
L127.8953 76.8063
" />
<path d="M127.9442 76.7736
L127.9189 76.7888
" />
<path d="M127.9708 76.7610
L127.9442 76.7736
" />
<path d="M127.9985 76.7511
L127.9708 76.7610
" />
<path d="M128.0271 76.7440
L127.9985 76.7511
" />
<path d="M128.0562 76.7396
L128.0271 76.7440
" />
<path d="M128.0856 76.7382
L128.0562 76.7396
" />
<path d="M128.6444 76.7382
L128.0856 76.7382
" />
<path d="M141.1210 86.7550
L141.0916 86.7564
" />
<path d="M143.6703 86.7550
L141.1210 86.7550
" />
<path d="M144.1210 86.7550
L143.6703 86.7550
" />
<path d="M144.1504 86.7564
L144.1210 86.7550
" />
<path d="M144.1795 86.7608
L144.1504 86.7564
" />
<path d="M144.2081 86.7679
L144.1795 86.7608
" />
<path d="M144.2358 86.7778
L144.2081 86.7679
" />
<path d="M144.2624 86.7904
L144.2358 86.7778
" />
<path d="M144.2877 86.8056
L144.2624 86.7904
" />
<path d="M144.3113 86.8231
L144.2877 86.8056
" />
<path d="M144.3331 86.8429
L144.3113 86.8231
" />
<path d="M144.3529 86.8647
L144.3331 86.8429
" />
<path d="M144.3704 86.8883
L144.3529 86.8647
" />
<path d="M144.3856 86.9136
L144.3704 86.8883
" />
<path d="M144.3982 86.9402
L144.3856 86.9136
" />
<path d="M144.4081 86.9679
L144.3982 86.9402
" />
<path d="M144.4152 86.9965
L144.4081 86.9679
" />
<path d="M144.4196 87.0256
L144.4152 86.9965
" />
<path d="M144.4210 87.0550
L144.4196 87.0256
" />
<path d="M144.4210 88.6550
L144.4210 87.0550
" />
<path d="M144.4196 88.6840
L144.4210 88.6550
" />
<path d="M144.4196 88.6844
L144.4196 88.6840
" />
<path d="M144.4152 88.7135
L144.4196 88.6844
" />
<path d="M144.4081 88.7421
L144.4152 88.7135
" />
<path d="M144.3982 88.7698
L144.4081 88.7421
" />
<path d="M144.3856 88.7964
L144.3982 88.7698
" />
<path d="M144.3704 88.8217
L144.3856 88.7964
" />
<path d="M144.3657 88.8280
L144.3704 88.8217
" />
<path d="M144.3529 88.8453
L144.3657 88.8280
" />
<path d="M144.3331 88.8671
L144.3529 88.8453
" />
<path d="M144.3113 88.8869
L144.3331 88.8671
" />
<path d="M144.2877 88.9044
L144.3113 88.8869
" />
<path d="M144.2624 88.9196
L144.2877 88.9044
" />
<path d="M144.2358 88.9322
L144.2624 88.9196
" />
<path d="M144.2081 88.9421
L144.2358 88.9322
" />
<path d="M144.1795 88.9492
L144.2081 88.9421
" />
<path d="M144.1504 88.9536
L144.1795 88.9492
" />
<path d="M144.1210 88.9550
L144.1504 88.9536
" />
<path d="M141.1210 88.9550
L144.1210 88.9550
" />
<path d="M141.0916 88.9536
L141.1210 88.9550
" />
<path d="M141.0625 88.9492
L141.0916 88.9536
" />
<path d="M141.0339 88.9421
L141.0625 88.9492
" />
<path d="M141.0062 88.9322
L141.0339 88.9421
" />
<path d="M140.9796 88.9196
L141.0062 88.9322
" />
<path d="M140.9543 88.9044
L140.9796 88.9196
" />
<path d="M140.9307 88.8869
L140.9543 88.9044
" />
<path d="M140.9089 88.8671
L140.9307 88.8869
" />
<path d="M140.8891 88.8453
L140.9089 88.8671
" />
<path d="M140.8716 88.8217
L140.8891 88.8453
" />
<path d="M140.8564 88.7964
L140.8716 88.8217
" />
<path d="M140.8438 88.7698
L140.8564 88.7964
" />
<path d="M140.8339 88.7421
L140.8438 88.7698
" />
<path d="M140.8268 88.7135
L140.8339 88.7421
" />
<path d="M140.8224 88.6844
L140.8268 88.7135
" />
<path d="M140.8224 88.6840
L140.8224 88.6844
" />
<path d="M140.8210 88.6550
L140.8224 88.6840
" />
<path d="M140.8210 87.0550
L140.8210 88.6550
" />
<path d="M140.8224 87.0256
L140.8210 87.0550
" />
<path d="M140.8268 86.9965
L140.8224 87.0256
" />
<path d="M140.8339 86.9679
L140.8268 86.9965
" />
<path d="M140.8438 86.9402
L140.8339 86.9679
" />
<path d="M140.8564 86.9136
L140.8438 86.9402
" />
<path d="M140.8716 86.8883
L140.8564 86.9136
" />
<path d="M140.8891 86.8647
L140.8716 86.8883
" />
<path d="M140.9089 86.8429
L140.8891 86.8647
" />
<path d="M140.9307 86.8231
L140.9089 86.8429
" />
<path d="M140.9543 86.8056
L140.9307 86.8231
" />
<path d="M140.9796 86.7904
L140.9543 86.8056
" />
<path d="M141.0062 86.7778
L140.9796 86.7904
" />
<path d="M141.0339 86.7679
L141.0062 86.7778
" />
<path d="M141.0625 86.7608
L141.0339 86.7679
" />
<path d="M141.0916 86.7564
L141.0625 86.7608
" />
<path d="M141.1210 79.9550
L141.0916 79.9564
" />
<path d="M143.6703 79.9550
L141.1210 79.9550
" />
<path d="M144.1210 79.9550
L143.6703 79.9550
" />
<path d="M144.1504 79.9564
L144.1210 79.9550
" />
<path d="M144.1795 79.9608
L144.1504 79.9564
" />
<path d="M144.2081 79.9679
L144.1795 79.9608
" />
<path d="M144.2358 79.9778
L144.2081 79.9679
" />
<path d="M144.2624 79.9904
L144.2358 79.9778
" />
<path d="M144.2877 80.0056
L144.2624 79.9904
" />
<path d="M144.3113 80.0231
L144.2877 80.0056
" />
<path d="M144.3331 80.0429
L144.3113 80.0231
" />
<path d="M144.3529 80.0647
L144.3331 80.0429
" />
<path d="M144.3704 80.0883
L144.3529 80.0647
" />
<path d="M144.3856 80.1136
L144.3704 80.0883
" />
<path d="M144.3982 80.1402
L144.3856 80.1136
" />
<path d="M144.4081 80.1679
L144.3982 80.1402
" />
<path d="M144.4152 80.1965
L144.4081 80.1679
" />
<path d="M144.4196 80.2256
L144.4152 80.1965
" />
<path d="M144.4210 80.2550
L144.4196 80.2256
" />
<path d="M144.4210 81.8550
L144.4210 80.2550
" />
<path d="M144.4196 81.8844
L144.4210 81.8550
" />
<path d="M144.4152 81.9135
L144.4196 81.8844
" />
<path d="M144.4081 81.9421
L144.4152 81.9135
" />
<path d="M144.3982 81.9698
L144.4081 81.9421
" />
<path d="M144.3856 81.9964
L144.3982 81.9698
" />
<path d="M144.3704 82.0217
L144.3856 81.9964
" />
<path d="M144.3657 82.0280
L144.3704 82.0217
" />
<path d="M144.3529 82.0453
L144.3657 82.0280
" />
<path d="M144.3331 82.0671
L144.3529 82.0453
" />
<path d="M144.3113 82.0869
L144.3331 82.0671
" />
<path d="M144.2877 82.1044
L144.3113 82.0869
" />
<path d="M144.2624 82.1196
L144.2877 82.1044
" />
<path d="M144.2358 82.1322
L144.2624 82.1196
" />
<path d="M144.2081 82.1421
L144.2358 82.1322
" />
<path d="M144.1795 82.1492
L144.2081 82.1421
" />
<path d="M144.1504 82.1536
L144.1795 82.1492
" />
<path d="M144.1210 82.1550
L144.1504 82.1536
" />
<path d="M141.1210 82.1550
L144.1210 82.1550
" />
<path d="M141.0916 82.1536
L141.1210 82.1550
" />
<path d="M141.0625 82.1492
L141.0916 82.1536
" />
<path d="M141.0339 82.1421
L141.0625 82.1492
" />
<path d="M141.0062 82.1322
L141.0339 82.1421
" />
<path d="M140.9796 82.1196
L141.0062 82.1322
" />
<path d="M140.9543 82.1044
L140.9796 82.1196
" />
<path d="M140.9307 82.0869
L140.9543 82.1044
" />
<path d="M140.9089 82.0671
L140.9307 82.0869
" />
<path d="M140.8891 82.0453
L140.9089 82.0671
" />
<path d="M140.8716 82.0217
L140.8891 82.0453
" />
<path d="M140.8564 81.9964
L140.8716 82.0217
" />
<path d="M140.8438 81.9698
L140.8564 81.9964
" />
<path d="M140.8339 81.9421
L140.8438 81.9698
" />
<path d="M140.8268 81.9135
L140.8339 81.9421
" />
<path d="M140.8224 81.8844
L140.8268 81.9135
" />
<path d="M140.8210 81.8550
L140.8224 81.8844
" />
<path d="M140.8210 80.2550
L140.8210 81.8550
" />
<path d="M140.8224 80.2256
L140.8210 80.2550
" />
<path d="M140.8268 80.1965
L140.8224 80.2256
" />
<path d="M140.8339 80.1679
L140.8268 80.1965
" />
<path d="M140.8438 80.1402
L140.8339 80.1679
" />
<path d="M140.8564 80.1136
L140.8438 80.1402
" />
<path d="M140.8716 80.0883
L140.8564 80.1136
" />
<path d="M140.8891 80.0647
L140.8716 80.0883
" />
<path d="M140.9089 80.0429
L140.8891 80.0647
" />
<path d="M140.9307 80.0231
L140.9089 80.0429
" />
<path d="M140.9543 80.0056
L140.9307 80.0231
" />
<path d="M140.9796 79.9904
L140.9543 80.0056
" />
<path d="M141.0062 79.9778
L140.9796 79.9904
" />
<path d="M141.0339 79.9679
L141.0062 79.9778
" />
<path d="M141.0625 79.9608
L141.0339 79.9679
" />
<path d="M141.0916 79.9564
L141.0625 79.9608
" />
<path d="M141.1210 77.4840
L141.0916 77.4854
" />
<path d="M143.6703 77.4840
L141.1210 77.4840
" />
<path d="M144.1210 77.4840
L143.6703 77.4840
" />
<path d="M144.1504 77.4854
L144.1210 77.4840
" />
<path d="M144.1795 77.4898
L144.1504 77.4854
" />
<path d="M144.2081 77.4969
L144.1795 77.4898
" />
<path d="M144.2358 77.5068
L144.2081 77.4969
" />
<path d="M144.2624 77.5194
L144.2358 77.5068
" />
<path d="M144.2877 77.5346
L144.2624 77.5194
" />
<path d="M144.3113 77.5521
L144.2877 77.5346
" />
<path d="M144.3331 77.5719
L144.3113 77.5521
" />
<path d="M144.3529 77.5937
L144.3331 77.5719
" />
<path d="M144.3704 77.6173
L144.3529 77.5937
" />
<path d="M144.3856 77.6426
L144.3704 77.6173
" />
<path d="M144.3982 77.6692
L144.3856 77.6426
" />
<path d="M144.4081 77.6969
L144.3982 77.6692
" />
<path d="M144.4152 77.7255
L144.4081 77.6969
" />
<path d="M144.4196 77.7546
L144.4152 77.7255
" />
<path d="M144.4210 77.7840
L144.4196 77.7546
" />
<path d="M144.4210 79.3840
L144.4210 77.7840
" />
<path d="M144.4196 79.4134
L144.4210 79.3840
" />
<path d="M144.4152 79.4425
L144.4196 79.4134
" />
<path d="M144.4081 79.4711
L144.4152 79.4425
" />
<path d="M144.3982 79.4988
L144.4081 79.4711
" />
<path d="M144.3856 79.5254
L144.3982 79.4988
" />
<path d="M144.3704 79.5507
L144.3856 79.5254
" />
<path d="M144.3657 79.5570
L144.3704 79.5507
" />
<path d="M144.3529 79.5743
L144.3657 79.5570
" />
<path d="M144.3331 79.5961
L144.3529 79.5743
" />
<path d="M144.3113 79.6159
L144.3331 79.5961
" />
<path d="M144.2877 79.6334
L144.3113 79.6159
" />
<path d="M144.2624 79.6486
L144.2877 79.6334
" />
<path d="M144.2358 79.6612
L144.2624 79.6486
" />
<path d="M144.2081 79.6711
L144.2358 79.6612
" />
<path d="M144.1795 79.6782
L144.2081 79.6711
" />
<path d="M144.1504 79.6826
L144.1795 79.6782
" />
<path d="M144.1210 79.6840
L144.1504 79.6826
" />
<path d="M141.1210 79.6840
L144.1210 79.6840
" />
<path d="M141.0916 79.6826
L141.1210 79.6840
" />
<path d="M141.0625 79.6782
L141.0916 79.6826
" />
<path d="M141.0339 79.6711
L141.0625 79.6782
" />
<path d="M141.0062 79.6612
L141.0339 79.6711
" />
<path d="M140.9796 79.6486
L141.0062 79.6612
" />
<path d="M140.9543 79.6334
L140.9796 79.6486
" />
<path d="M140.9307 79.6159
L140.9543 79.6334
" />
<path d="M140.9089 79.5961
L140.9307 79.6159
" />
<path d="M140.8891 79.5743
L140.9089 79.5961
" />
<path d="M140.8716 79.5507
L140.8891 79.5743
" />
<path d="M140.8564 79.5254
L140.8716 79.5507
" />
<path d="M140.8438 79.4988
L140.8564 79.5254
" />
<path d="M140.8339 79.4711
L140.8438 79.4988
" />
<path d="M140.8268 79.4425
L140.8339 79.4711
" />
<path d="M140.8224 79.4134
L140.8268 79.4425
" />
<path d="M140.8210 79.3840
L140.8224 79.4134
" />
<path d="M140.8210 77.7840
L140.8210 79.3840
" />
<path d="M140.8224 77.7546
L140.8210 77.7840
" />
<path d="M140.8268 77.7255
L140.8224 77.7546
" />
<path d="M140.8339 77.6969
L140.8268 77.7255
" />
<path d="M140.8438 77.6692
L140.8339 77.6969
" />
<path d="M140.8564 77.6426
L140.8438 77.6692
" />
<path d="M140.8716 77.6173
L140.8564 77.6426
" />
<path d="M140.8891 77.5937
L140.8716 77.6173
" />
<path d="M140.9089 77.5719
L140.8891 77.5937
" />
<path d="M140.9307 77.5521
L140.9089 77.5719
" />
<path d="M140.9543 77.5346
L140.9307 77.5521
" />
<path d="M140.9796 77.5194
L140.9543 77.5346
" />
<path d="M141.0062 77.5068
L140.9796 77.5194
" />
<path d="M141.0339 77.4969
L141.0062 77.5068
" />
<path d="M141.0625 77.4898
L141.0339 77.4969
" />
<path d="M141.0916 77.4854
L141.0625 77.4898
" />
<path d="M141.1210 70.6840
L141.0916 70.6854
" />
<path d="M143.6703 70.6840
L141.1210 70.6840
" />
<path d="M144.1210 70.6840
L143.6703 70.6840
" />
<path d="M144.1504 70.6854
L144.1210 70.6840
" />
<path d="M144.1795 70.6898
L144.1504 70.6854
" />
<path d="M144.2081 70.6969
L144.1795 70.6898
" />
<path d="M144.2358 70.7068
L144.2081 70.6969
" />
<path d="M144.2624 70.7194
L144.2358 70.7068
" />
<path d="M144.2877 70.7346
L144.2624 70.7194
" />
<path d="M144.3113 70.7521
L144.2877 70.7346
" />
<path d="M144.3331 70.7719
L144.3113 70.7521
" />
<path d="M144.3529 70.7937
L144.3331 70.7719
" />
<path d="M144.3704 70.8173
L144.3529 70.7937
" />
<path d="M144.3856 70.8426
L144.3704 70.8173
" />
<path d="M144.3982 70.8692
L144.3856 70.8426
" />
<path d="M144.4081 70.8969
L144.3982 70.8692
" />
<path d="M144.4152 70.9255
L144.4081 70.8969
" />
<path d="M144.4196 70.9546
L144.4152 70.9255
" />
<path d="M144.4210 70.9840
L144.4196 70.9546
" />
<path d="M144.4210 72.5840
L144.4210 70.9840
" />
<path d="M144.4196 72.6134
L144.4210 72.5840
" />
<path d="M144.4152 72.6425
L144.4196 72.6134
" />
<path d="M144.4081 72.6711
L144.4152 72.6425
" />
<path d="M144.3982 72.6988
L144.4081 72.6711
" />
<path d="M144.3856 72.7254
L144.3982 72.6988
" />
<path d="M144.3704 72.7507
L144.3856 72.7254
" />
<path d="M144.3657 72.7570
L144.3704 72.7507
" />
<path d="M144.3529 72.7743
L144.3657 72.7570
" />
<path d="M144.3331 72.7961
L144.3529 72.7743
" />
<path d="M144.3113 72.8159
L144.3331 72.7961
" />
<path d="M144.2877 72.8334
L144.3113 72.8159
" />
<path d="M144.2624 72.8486
L144.2877 72.8334
" />
<path d="M144.2358 72.8612
L144.2624 72.8486
" />
<path d="M144.2081 72.8711
L144.2358 72.8612
" />
<path d="M144.1795 72.8782
L144.2081 72.8711
" />
<path d="M144.1504 72.8826
L144.1795 72.8782
" />
<path d="M144.1210 72.8840
L144.1504 72.8826
" />
<path d="M141.1210 72.8840
L144.1210 72.8840
" />
<path d="M141.0916 72.8826
L141.1210 72.8840
" />
<path d="M141.0625 72.8782
L141.0916 72.8826
" />
<path d="M141.0339 72.8711
L141.0625 72.8782
" />
<path d="M141.0062 72.8612
L141.0339 72.8711
" />
<path d="M140.9796 72.8486
L141.0062 72.8612
" />
<path d="M140.9543 72.8334
L140.9796 72.8486
" />
<path d="M140.9307 72.8159
L140.9543 72.8334
" />
<path d="M140.9089 72.7961
L140.9307 72.8159
" />
<path d="M140.8891 72.7743
L140.9089 72.7961
" />
<path d="M140.8716 72.7507
L140.8891 72.7743
" />
<path d="M140.8564 72.7254
L140.8716 72.7507
" />
<path d="M140.8438 72.6988
L140.8564 72.7254
" />
<path d="M140.8339 72.6711
L140.8438 72.6988
" />
<path d="M140.8268 72.6425
L140.8339 72.6711
" />
<path d="M140.8224 72.6134
L140.8268 72.6425
" />
<path d="M140.8210 72.5840
L140.8224 72.6134
" />
<path d="M140.8210 70.9840
L140.8210 72.5840
" />
<path d="M140.8224 70.9546
L140.8210 70.9840
" />
<path d="M140.8268 70.9255
L140.8224 70.9546
" />
<path d="M140.8339 70.8969
L140.8268 70.9255
" />
<path d="M140.8438 70.8692
L140.8339 70.8969
" />
<path d="M140.8564 70.8426
L140.8438 70.8692
" />
<path d="M140.8716 70.8173
L140.8564 70.8426
" />
<path d="M140.8891 70.7937
L140.8716 70.8173
" />
<path d="M140.9089 70.7719
L140.8891 70.7937
" />
<path d="M140.9307 70.7521
L140.9089 70.7719
" />
<path d="M140.9543 70.7346
L140.9307 70.7521
" />
<path d="M140.9796 70.7194
L140.9543 70.7346
" />
<path d="M141.0062 70.7068
L140.9796 70.7194
" />
<path d="M141.0339 70.6969
L141.0062 70.7068
" />
<path d="M141.0625 70.6898
L141.0339 70.6969
" />
<path d="M141.0916 70.6854
L141.0625 70.6898
" />
<path d="M115.1937 77.3307
L115.2825 77.4846
" />
<path d="M115.1794 77.3027
L115.1937 77.3307
" />
<path d="M115.1682 77.2734
L115.1794 77.3027
" />
<path d="M115.1133 77.1044
L115.1682 77.2734
" />
<path d="M115.1051 77.0741
L115.1133 77.1044
" />
<path d="M115.1002 77.0431
L115.1051 77.0741
" />
<path d="M115.0816 76.8664
L115.1002 77.0431
" />
<path d="M115.0800 76.8350
L115.0816 76.8664
" />
<path d="M115.0816 76.8036
L115.0800 76.8350
" />
<path d="M115.1002 76.6269
L115.0816 76.8036
" />
<path d="M115.1051 76.5959
L115.1002 76.6269
" />
<path d="M115.1133 76.5656
L115.1051 76.5959
" />
<path d="M115.1682 76.3966
L115.1133 76.5656
" />
<path d="M115.1794 76.3673
L115.1682 76.3966
" />
<path d="M115.1937 76.3393
L115.1794 76.3673
" />
<path d="M115.2825 76.1854
L115.1937 76.3393
" />
<path d="M115.0800 86.4410
L115.0800 87.5490
" />
<path d="M133.2231 70.7181
L133.2046 70.7014
" />
<path d="M133.2337 70.7283
L133.2231 70.7181
" />
<path d="M133.2973 70.7918
L133.2337 70.7283
" />
<path d="M133.3900 70.8845
L133.2973 70.7918
" />
<path d="M134.5800 72.0745
L133.3900 70.8845
" />
<path d="M134.6600 72.1545
L134.5800 72.0745
" />
<path d="M135.3055 72.8000
L134.6600 72.1545
" />
<path d="M136.0085 73.5030
L135.3055 72.8000
" />
<path d="M136.1355 73.6300
L136.0085 73.5030
" />
<path d="M137.3261 73.6300
L136.1355 73.6300
" />
<path d="M137.3268 73.6255
L137.3261 73.6300
" />
<path d="M137.3339 73.5969
L137.3268 73.6255
" />
<path d="M137.3438 73.5692
L137.3339 73.5969
" />
<path d="M137.3564 73.5426
L137.3438 73.5692
" />
<path d="M137.3716 73.5173
L137.3564 73.5426
" />
<path d="M137.3822 73.5030
L137.3716 73.5173
" />
<path d="M137.3891 73.4937
L137.3822 73.5030
" />
<path d="M137.4089 73.4719
L137.3891 73.4937
" />
<path d="M137.4307 73.4521
L137.4089 73.4719
" />
<path d="M137.4543 73.4346
L137.4307 73.4521
" />
<path d="M137.4796 73.4194
L137.4543 73.4346
" />
<path d="M137.5062 73.4068
L137.4796 73.4194
" />
<path d="M137.5339 73.3969
L137.5062 73.4068
" />
<path d="M137.5625 73.3898
L137.5339 73.3969
" />
<path d="M137.5916 73.3854
L137.5625 73.3898
" />
<path d="M137.6210 73.3840
L137.5916 73.3854
" />
<path d="M140.1703 73.3840
L137.6210 73.3840
" />
<path d="M143.1210 73.3840
L140.1703 73.3840
" />
<path d="M143.1504 73.3854
L143.1210 73.3840
" />
<path d="M143.1795 73.3898
L143.1504 73.3854
" />
<path d="M143.2081 73.3969
L143.1795 73.3898
" />
<path d="M143.2358 73.4068
L143.2081 73.3969
" />
<path d="M143.2624 73.4194
L143.2358 73.4068
" />
<path d="M143.2877 73.4346
L143.2624 73.4194
" />
<path d="M143.3113 73.4521
L143.2877 73.4346
" />
<path d="M143.3331 73.4719
L143.3113 73.4521
" />
<path d="M143.3529 73.4937
L143.3331 73.4719
" />
<path d="M143.3704 73.5173
L143.3529 73.4937
" />
<path d="M143.3856 73.5426
L143.3704 73.5173
" />
<path d="M143.3982 73.5692
L143.3856 73.5426
" />
<path d="M143.4081 73.5969
L143.3982 73.5692
" />
<path d="M143.4152 73.6255
L143.4081 73.5969
" />
<path d="M143.4196 73.6546
L143.4152 73.6255
" />
<path d="M143.4210 73.6840
L143.4196 73.6546
" />
<path d="M143.4210 74.6840
L143.4210 73.6840
" />
<path d="M143.4196 74.7134
L143.4210 74.6840
" />
<path d="M143.4152 74.7425
L143.4196 74.7134
" />
<path d="M143.4081 74.7711
L143.4152 74.7425
" />
<path d="M143.3982 74.7988
L143.4081 74.7711
" />
<path d="M143.3856 74.8254
L143.3982 74.7988
" />
<path d="M143.3704 74.8507
L143.3856 74.8254
" />
<path d="M143.3657 74.8570
L143.3704 74.8507
" />
<path d="M143.3529 74.8743
L143.3657 74.8570
" />
<path d="M143.3331 74.8961
L143.3529 74.8743
" />
<path d="M143.3113 74.9159
L143.3331 74.8961
" />
<path d="M143.2877 74.9334
L143.3113 74.9159
" />
<path d="M143.2624 74.9486
L143.2877 74.9334
" />
<path d="M143.2358 74.9612
L143.2624 74.9486
" />
<path d="M143.2081 74.9711
L143.2358 74.9612
" />
<path d="M143.1795 74.9782
L143.2081 74.9711
" />
<path d="M143.1504 74.9826
L143.1795 74.9782
" />
<path d="M143.1210 74.9840
L143.1504 74.9826
" />
<path d="M137.6210 74.9840
L143.1210 74.9840
" />
<path d="M137.5916 74.9826
L137.6210 74.9840
" />
<path d="M137.5625 74.9782
L137.5916 74.9826
" />
<path d="M137.5339 74.9711
L137.5625 74.9782
" />
<path d="M137.5062 74.9612
L137.5339 74.9711
" />
<path d="M137.4796 74.9486
L137.5062 74.9612
" />
<path d="M137.4543 74.9334
L137.4796 74.9486
" />
<path d="M137.4307 74.9159
L137.4543 74.9334
" />
<path d="M137.4089 74.8961
L137.4307 74.9159
" />
<path d="M137.3891 74.8743
L137.4089 74.8961
" />
<path d="M137.3716 74.8507
L137.3891 74.8743
" />
<path d="M137.3564 74.8254
L137.3716 74.8507
" />
<path d="M137.3438 74.7988
L137.3564 74.8254
" />
<path d="M137.3339 74.7711
L137.3438 74.7988
" />
<path d="M137.3268 74.7425
L137.3339 74.7711
" />
<path d="M137.3261 74.7380
L137.3268 74.7425
" />
<path d="M135.9060 74.7380
L137.3261 74.7380
" />
<path d="M135.8913 74.7376
L135.9060 74.7380
" />
<path d="M135.8664 74.7364
L135.8913 74.7376
" />
<path d="M135.8371 74.7335
L135.8664 74.7364
" />
<path d="M135.8124 74.7299
L135.8371 74.7335
" />
<path d="M135.7836 74.7241
L135.8124 74.7299
" />
<path d="M135.7594 74.7181
L135.7836 74.7241
" />
<path d="M135.7312 74.7095
L135.7594 74.7181
" />
<path d="M135.7077 74.7011
L135.7312 74.7095
" />
<path d="M135.6805 74.6899
L135.7077 74.7011
" />
<path d="M135.6580 74.6792
L135.6805 74.6899
" />
<path d="M135.6320 74.6653
L135.6580 74.6792
" />
<path d="M135.6107 74.6525
L135.6320 74.6653
" />
<path d="M135.5862 74.6362
L135.6107 74.6525
" />
<path d="M135.5662 74.6213
L135.5862 74.6362
" />
<path d="M135.5536 74.6110
L135.5662 74.6213
" />
<path d="M135.5434 74.6026
L135.5536 74.6110
" />
<path d="M135.5249 74.5859
L135.5434 74.6026
" />
<path d="M135.5143 74.5757
L135.5249 74.5859
" />
<path d="M134.4415 73.5030
L135.5143 74.5757
" />
<path d="M133.7385 72.8000
L134.4415 73.5030
" />
<path d="M133.3900 72.4515
L133.7385 72.8000
" />
<path d="M133.3100 72.3715
L133.3900 72.4515
" />
<path d="M132.6125 71.6740
L133.3100 72.3715
" />
<path d="M132.1200 71.6740
L132.6125 71.6740
" />
<path d="M132.1197 71.6740
L132.1200 71.6740
" />
<path d="M130.7075 71.6740
L132.1197 71.6740
" />
<path d="M132.3306 70.5660
L130.9370 70.5660
" />
<path d="M132.8420 70.5660
L132.3306 70.5660
" />
<path d="M132.8567 70.5664
L132.8420 70.5660
" />
<path d="M132.8816 70.5676
L132.8567 70.5664
" />
<path d="M132.9109 70.5705
L132.8816 70.5676
" />
<path d="M132.9356 70.5741
L132.9109 70.5705
" />
<path d="M132.9644 70.5799
L132.9356 70.5741
" />
<path d="M132.9886 70.5859
L132.9644 70.5799
" />
<path d="M133.0168 70.5945
L132.9886 70.5859
" />
<path d="M133.0403 70.6029
L133.0168 70.5945
" />
<path d="M133.0675 70.6141
L133.0403 70.6029
" />
<path d="M133.0900 70.6248
L133.0675 70.6141
" />
<path d="M133.1160 70.6387
L133.0900 70.6248
" />
<path d="M133.1373 70.6515
L133.1160 70.6387
" />
<path d="M133.1618 70.6678
L133.1373 70.6515
" />
<path d="M133.1818 70.6827
L133.1618 70.6678
" />
<path d="M133.2046 70.7014
L133.1818 70.6827
" />
<path d="M133.0525 74.6110
L132.6905 74.2490
" />
<path d="M133.3509 74.9094
L133.0525 74.6110
" />
<path d="M133.7985 75.3570
L133.3509 74.9094
" />
<path d="M133.8687 75.4273
L133.7985 75.3570
" />
<path d="M133.8789 75.4379
L133.8687 75.4273
" />
<path d="M133.8956 75.4564
L133.8789 75.4379
" />
<path d="M133.9143 75.4792
L133.8956 75.4564
" />
<path d="M133.9292 75.4992
L133.9143 75.4792
" />
<path d="M133.9455 75.5237
L133.9292 75.4992
" />
<path d="M133.9583 75.5450
L133.9455 75.5237
" />
<path d="M133.9722 75.5710
L133.9583 75.5450
" />
<path d="M133.9829 75.5935
L133.9722 75.5710
" />
<path d="M133.9941 75.6207
L133.9829 75.5935
" />
<path d="M134.0025 75.6442
L133.9941 75.6207
" />
<path d="M134.0111 75.6724
L134.0025 75.6442
" />
<path d="M134.0171 75.6966
L134.0111 75.6724
" />
<path d="M134.0229 75.7254
L134.0171 75.6966
" />
<path d="M134.0265 75.7501
L134.0229 75.7254
" />
<path d="M134.0294 75.7794
L134.0265 75.7501
" />
<path d="M134.0306 75.8043
L134.0294 75.7794
" />
<path d="M134.0310 75.8190
L134.0306 75.8043
" />
<path d="M134.0310 80.2457
L134.0310 75.8190
" />
<path d="M134.0310 80.4893
L134.0310 80.2457
" />
<path d="M134.0310 82.0707
L134.0310 80.4893
" />
<path d="M134.0310 82.4776
L134.0310 82.0707
" />
<path d="M134.0310 82.7015
L134.0310 82.4776
" />
<path d="M134.0660 82.7365
L134.0310 82.7015
" />
<path d="M135.1740 83.8445
L134.0660 82.7365
" />
<path d="M135.7350 84.4055
L135.1740 83.8445
" />
<path d="M136.2305 84.9010
L135.7350 84.4055
" />
<path d="M137.3261 84.9010
L136.2305 84.9010
" />
<path d="M137.3268 84.8965
L137.3261 84.9010
" />
<path d="M137.3339 84.8679
L137.3268 84.8965
" />
<path d="M137.3438 84.8402
L137.3339 84.8679
" />
<path d="M137.3564 84.8136
L137.3438 84.8402
" />
<path d="M137.3716 84.7883
L137.3564 84.8136
" />
<path d="M137.3891 84.7647
L137.3716 84.7883
" />
<path d="M137.4089 84.7429
L137.3891 84.7647
" />
<path d="M137.4307 84.7231
L137.4089 84.7429
" />
<path d="M137.4543 84.7056
L137.4307 84.7231
" />
<path d="M137.4796 84.6904
L137.4543 84.7056
" />
<path d="M137.5062 84.6778
L137.4796 84.6904
" />
<path d="M137.5339 84.6679
L137.5062 84.6778
" />
<path d="M137.5625 84.6608
L137.5339 84.6679
" />
<path d="M137.5916 84.6564
L137.5625 84.6608
" />
<path d="M137.6210 84.6550
L137.5916 84.6564
" />
<path d="M138.7355 84.6550
L137.6210 84.6550
" />
<path d="M143.1210 84.6550
L138.7355 84.6550
" />
<path d="M143.1504 84.6564
L143.1210 84.6550
" />
<path d="M143.1795 84.6608
L143.1504 84.6564
" />
<path d="M143.2081 84.6679
L143.1795 84.6608
" />
<path d="M143.2358 84.6778
L143.2081 84.6679
" />
<path d="M143.2624 84.6904
L143.2358 84.6778
" />
<path d="M143.2877 84.7056
L143.2624 84.6904
" />
<path d="M143.3113 84.7231
L143.2877 84.7056
" />
<path d="M143.3331 84.7429
L143.3113 84.7231
" />
<path d="M143.3529 84.7647
L143.3331 84.7429
" />
<path d="M143.3704 84.7883
L143.3529 84.7647
" />
<path d="M143.3856 84.8136
L143.3704 84.7883
" />
<path d="M143.3982 84.8402
L143.3856 84.8136
" />
<path d="M143.4081 84.8679
L143.3982 84.8402
" />
<path d="M143.4152 84.8965
L143.4081 84.8679
" />
<path d="M143.4196 84.9256
L143.4152 84.8965
" />
<path d="M143.4210 84.9550
L143.4196 84.9256
" />
<path d="M143.4210 85.9550
L143.4210 84.9550
" />
<path d="M143.4196 85.9844
L143.4210 85.9550
" />
<path d="M143.4152 86.0135
L143.4196 85.9844
" />
<path d="M143.4081 86.0421
L143.4152 86.0135
" />
<path d="M143.3982 86.0698
L143.4081 86.0421
" />
<path d="M143.3856 86.0964
L143.3982 86.0698
" />
<path d="M143.3704 86.1217
L143.3856 86.0964
" />
<path d="M143.3657 86.1280
L143.3704 86.1217
" />
<path d="M143.3529 86.1453
L143.3657 86.1280
" />
<path d="M143.3331 86.1671
L143.3529 86.1453
" />
<path d="M143.3113 86.1869
L143.3331 86.1671
" />
<path d="M143.2877 86.2044
L143.3113 86.1869
" />
<path d="M143.2624 86.2196
L143.2877 86.2044
" />
<path d="M143.2358 86.2322
L143.2624 86.2196
" />
<path d="M143.2081 86.2421
L143.2358 86.2322
" />
<path d="M143.1795 86.2492
L143.2081 86.2421
" />
<path d="M143.1504 86.2536
L143.1795 86.2492
" />
<path d="M143.1210 86.2550
L143.1504 86.2536
" />
<path d="M137.6210 86.2550
L143.1210 86.2550
" />
<path d="M137.5916 86.2536
L137.6210 86.2550
" />
<path d="M137.5625 86.2492
L137.5916 86.2536
" />
<path d="M137.5339 86.2421
L137.5625 86.2492
" />
<path d="M137.5062 86.2322
L137.5339 86.2421
" />
<path d="M137.4796 86.2196
L137.5062 86.2322
" />
<path d="M137.4543 86.2044
L137.4796 86.2196
" />
<path d="M137.4307 86.1869
L137.4543 86.2044
" />
<path d="M137.4089 86.1671
L137.4307 86.1869
" />
<path d="M137.3891 86.1453
L137.4089 86.1671
" />
<path d="M137.3716 86.1217
L137.3891 86.1453
" />
<path d="M137.3564 86.0964
L137.3716 86.1217
" />
<path d="M137.3438 86.0698
L137.3564 86.0964
" />
<path d="M137.3339 86.0421
L137.3438 86.0698
" />
<path d="M137.3268 86.0135
L137.3339 86.0421
" />
<path d="M137.3261 86.0090
L137.3268 86.0135
" />
<path d="M136.0010 86.0090
L137.3261 86.0090
" />
<path d="M135.9863 86.0086
L136.0010 86.0090
" />
<path d="M135.9614 86.0074
L135.9863 86.0086
" />
<path d="M135.9321 86.0045
L135.9614 86.0074
" />
<path d="M135.9074 86.0009
L135.9321 86.0045
" />
<path d="M135.8786 85.9951
L135.9074 86.0009
" />
<path d="M135.8544 85.9891
L135.8786 85.9951
" />
<path d="M135.8262 85.9805
L135.8544 85.9891
" />
<path d="M135.8027 85.9721
L135.8262 85.9805
" />
<path d="M135.7755 85.9609
L135.8027 85.9721
" />
<path d="M135.7530 85.9502
L135.7755 85.9609
" />
<path d="M135.7270 85.9363
L135.7530 85.9502
" />
<path d="M135.7057 85.9235
L135.7270 85.9363
" />
<path d="M135.6812 85.9072
L135.7057 85.9235
" />
<path d="M135.6612 85.8923
L135.6812 85.9072
" />
<path d="M135.6384 85.8736
L135.6612 85.8923
" />
<path d="M135.6199 85.8569
L135.6384 85.8736
" />
<path d="M135.6093 85.8467
L135.6199 85.8569
" />
<path d="M135.0205 85.2580
L135.6093 85.8467
" />
<path d="M133.5050 83.7425
L135.0205 85.2580
" />
<path d="M133.0853 83.3227
L133.5050 83.7425
" />
<path d="M133.0751 83.3121
L133.0853 83.3227
" />
<path d="M133.0584 83.2936
L133.0751 83.3121
" />
<path d="M133.0397 83.2708
L133.0584 83.2936
" />
<path d="M133.0248 83.2508
L133.0397 83.2708
" />
<path d="M133.0085 83.2263
L133.0248 83.2508
" />
<path d="M132.9957 83.2050
L133.0085 83.2263
" />
<path d="M132.9818 83.1790
L132.9957 83.2050
" />
<path d="M132.9711 83.1565
L132.9818 83.1790
" />
<path d="M132.9599 83.1293
L132.9711 83.1565
" />
<path d="M132.9515 83.1058
L132.9599 83.1293
" />
<path d="M132.9429 83.0776
L132.9515 83.1058
" />
<path d="M132.9369 83.0534
L132.9429 83.0776
" />
<path d="M132.9311 83.0246
L132.9369 83.0534
" />
<path d="M132.9275 82.9999
L132.9311 83.0246
" />
<path d="M132.9246 82.9706
L132.9275 82.9999
" />
<path d="M132.9234 82.9457
L132.9246 82.9706
" />
<path d="M132.9230 82.9310
L132.9234 82.9457
" />
<path d="M132.9230 78.0500
L132.9230 82.9310
" />
<path d="M132.9230 76.0485
L132.9230 78.0500
" />
<path d="M132.8919 76.0174
L132.9230 76.0485
" />
<path d="M132.6645 75.7900
L132.8919 76.0174
" />
<path d="M132.0693 75.1947
L132.6645 75.7900
" />
<g >
</g>
<g >
</g>
<g >
</g>
<g >
</g>
<g >
</g>
<g >
</g>
<g >
</g>
<g >
</g>
<g >
</g>
<g >
</g>
<g >
</g>
<g >
</g>
<g >
</g>
<g >
</g>
</g>
<g style="fill:#000000; fill-opacity:0.0; 
stroke:#000000; stroke-width:0.6000; stroke-opacity:1; 
stroke-linecap:round; stroke-linejoin:round;">
</g>
<g style="fill:#000000; fill-opacity:0.0; 
stroke:#000000; stroke-width:0.1000; stroke-opacity:1; 
stroke-linecap:round; stroke-linejoin:round;">
<path style="fill:#000000; fill-opacity:0.0; 
stroke:#000000; stroke-width:0.1000; stroke-opacity:1; 
stroke-linecap:round; stroke-linejoin:round;fill:none"
d="M 108.9050,70.0000
148.9050,70.0000
148.9050,90.0000
108.9050,90.0000
Z" /> 
<g >
</g>
<g >
</g>
<g >
</g>
<g >
</g>
<g >
</g>
<g >
</g>
<g >
</g>
<g >
</g>
<g >
</g>
<g >
</g>
<g >
</g>
<g >
</g>
<g >
</g>
<g >
</g>
</g> 
</svg>
