<svg xmlns="http://www.w3.org/2000/svg" viewBox="0 0 100 100">                 <g><polyline fill="none" stroke="#ff0000" stroke-width="0.2" points="143.121,82.855 140.315,82.855" opacity="0.8" /><polyline fill="none" stroke="#ff0000" stroke-width="0.2" points="140.315,82.855 138.7839899817795,82.855" opacity="0.8" /><polyline fill="none" stroke="#ff0000" stroke-width="0.2" points="138.7839899817795,82.855 138.07659947476807,82.855" opacity="0.8" /><polyline fill="none" stroke="#ff0000" stroke-width="0.2" points="138.07659947476807,82.855 137.621,82.855 137.60149096779838,82.85692147195968 137.5827316567635,82.86261204674886 137.56544297669805,82.87185303876974 137.55028932188137,82.88428932188134 137.53785303876975,82.89944297669804 137.5286120467489,82.91673165676349 137.52292147195968,82.93549096779839 137.52100000000002,82.955 137.52100000000002,83.955 137.52292147195968,83.97450903220161 137.5286120467489,83.99326834323651 137.53785303876975,84.01055702330196 137.55028932188137,84.02571067811866 137.56544297669805,84.03814696123025 137.5827316567635,84.04738795325113 137.60149096779838,84.05307852804032 137.621,84.05499999999999 138.496574894656,84.05499999999999" opacity="0.8" /><polyline fill="none" stroke="#ff0000" stroke-width="0.2" points="138.496574894656,84.05499999999999 139.31459042064594,84.05499999999999" opacity="0.8" /><polyline fill="none" stroke="#ff0000" stroke-width="0.2" points="139.31459042064594,84.05499999999999 143.121,84.05499999999999 143.14050903220163,84.05307852804032 143.1592683432365,84.04738795325113 143.17655702330197,84.03814696123025 143.19171067811865,84.02571067811866 143.20414696123026,84.01055702330196 143.21338795325113,83.99326834323651 143.21907852804034,83.97450903220161 143.221,83.955 143.221,83.928" opacity="0.8" /><polyline fill="none" stroke="#ff0000" stroke-width="0.2" points="143.221,83.928 143.221,82.955 143.21907852804034,82.93549096779839 143.21338795325113,82.91673165676349 143.20414696123026,82.89944297669804 143.19171067811865,82.88428932188134 143.17655702330197,82.87185303876974 143.1592683432365,82.86261204674886 143.14050903220163,82.85692147195968 143.121,82.855" opacity="0.8" /><polyline fill="none" stroke="#ff0000" stroke-width="0.2" points="143.121,75.584 140.315,75.584" opacity="0.8" /><polyline fill="none" stroke="#ff0000" stroke-width="0.2" points="140.315,75.584 137.621,75.584 137.60149096779838,75.58592147195968 137.5827316567635,75.59161204674886 137.56544297669805,75.60085303876974 137.55028932188137,75.61328932188134 137.53785303876975,75.62844297669804 137.5286120467489,75.64573165676349 137.52292147195968,75.66449096779839 137.52100000000002,75.684 137.52100000000002,76.684 137.52292147195968,76.70350903220161 137.5286120467489,76.72226834323651 137.53785303876975,76.73955702330196 137.55028932188137,76.75471067811866 137.56544297669805,76.76714696123025 137.5827316567635,76.77638795325113 137.60149096779838,76.78207852804032 137.621,76.78399999999999 143.121,76.78399999999999 143.14050903220163,76.78207852804032 143.1592683432365,76.77638795325113 143.17655702330197,76.76714696123025 143.19171067811865,76.75471067811866 143.20414696123026,76.73955702330196 143.21338795325113,76.72226834323651 143.21907852804034,76.70350903220161 143.221,76.684 143.221,76.657" opacity="0.8" /><polyline fill="none" stroke="#ff0000" stroke-width="0.2" points="143.221,76.657 143.221,75.684 143.21907852804034,75.66449096779839 143.21338795325113,75.64573165676349 143.20414696123026,75.62844297669804 143.19171067811865,75.61328932188134 143.17655702330197,75.60085303876974 143.1592683432365,75.59161204674886 143.14050903220163,75.58592147195968 143.121,75.584" opacity="0.8" /><polyline fill="none" stroke="#ff0000" stroke-width="0.2" points="130.0144,73.45389266990693 130.68816744812048,73.45506007374922 132.11246102629335,74.86390240130261" opacity="0.8" /><polyline fill="none" stroke="#ff0000" stroke-width="0.2" points="132.11246102629335,74.86390240130261 132.36066734406776,75.10941608738925" opacity="0.8" /><polyline fill="none" stroke="#ff0000" stroke-width="0.2" points="132.36066734406776,75.10941608738925 132.40362826683227,75.15191095456336" opacity="0.8" /><polyline fill="none" stroke="#ff0000" stroke-width="0.2" points="132.40362826683227,75.15191095456336 133.0760456683548,75.81703372950678" opacity="0.8" /><polyline fill="none" stroke="#ff0000" stroke-width="0.2" points="133.0760456683548,75.81703372950678 133.12499804608973,75.86545505418607 133.1230170039307,82.93097296182775 133.1232141773552,82.93727767046572 133.123527,82.9422517380239 133.123527,82.946948 133.12431535813414,82.9594799638637 133.12490314755772,82.96413330905504 133.1252161773552,82.9691106704657 133.12678986644292,82.98156998998249 133.1277248800979,82.98647208382859 133.1283123581341,82.99112296386353 133.13066494816053,83.0034571230746 133.13183061789147,83.00799766462013 133.13276586644287,83.01290098998226 133.1358889438933,83.02506545455697 133.13743006340812,83.0298087439728 133.1385959481605,83.0343501230745 133.14247708838664,83.04629579093738 133.1442037412691,83.05065690934553 133.14574494389333,83.05540045455712 133.15036714042859,83.06707547600513 133.1524926290179,83.07159268706371 133.15421808838667,83.07595079093744 133.1595644815524,83.08731282042737 133.16182003415847,83.0914158269578 133.16394714042863,83.09593647600514 133.16999688509105,83.1069415957371 133.17267540113065,83.11116249190225 133.17492948155243,83.11526282042738 133.18165825187737,83.1258660818109 133.18440704417225,83.12964961178248 133.1870868850911,83.13387259573717 133.19446834747376,83.14403279336399 133.19765747732788,83.14788795269826 133.20040525187756,83.15167008181116 133.2084093500593,83.16134580736993 133.2116097271762,83.1647540411603 133.21479934747381,83.16860979336404 133.22339586052377,83.17776452090499 133.22704204673514,83.18118865216493 133.23024235005926,83.18459680736987 133.23939712694175,83.19319410478599 133.2430001815429,83.19617492688552 133.2466468605238,83.19959952090505 133.25632386612543,83.20760525722729 133.26036942359391,83.2105445732798 133.26397212694187,83.2135251047861 133.2741317507804,83.22090679635406 133.27808294485172,83.22341440340465 133.28212786612536,83.22635325722726 133.29273209551928,83.23308292250043 133.29710799461975,83.2354885632853 133.30106175078026,83.23799779635397 133.3120655414105,83.2440475149426 133.31631161087236,83.24604570855156 133.32068309551923,83.2484489225004 133.3320445718053,83.2537952633742 133.33667430614787,83.25562836091434 133.34092454141054,83.25762851494262 133.35260362404023,83.26225275673319 133.3570716784331,83.26370449880797 133.36170057180544,83.26553726337426 133.3736427494501,83.2694177353446 133.37847188300253,83.27065776630438 133.38293762404027,83.2721087567332 133.3950994077826,83.27523144640696 133.3965264740037,83.27550369584212 133.705,83.58037704122916" opacity="0.8" /><polyline fill="none" stroke="#ff0000" stroke-width="0.2" points="133.705,83.58037704122916 135.2000718751962,85.05799999999999" opacity="0.8" /><polyline fill="none" stroke="#ff0000" stroke-width="0.2" points="135.2000718751962,85.05799999999999 135.6508458405963,85.50351300278052 135.65231235813414,85.51512296386366 135.6546649481605,85.52745712307448 135.66259594816052,85.55835012307449 135.6664770883867,85.57029579093751 135.6782180883867,85.59995079093751 135.68356448155245,85.61131282042746 135.69892948155245,85.63926282042745 135.70565825187748,85.64986608181103 135.72440525187747,85.67567008181103 135.73240935005927,85.68534580736988 135.7542423500593,85.70859680736989 135.7633971269418,85.71719410478606 135.7879721269418,85.73752510478606 135.79813175078033,85.744906796354 135.82506175078032,85.761997796354 135.83606554141045,85.76804751494257 135.86492454141043,85.78162851494257 135.87660362404026,85.7862527567332 135.90693762404027,85.7961087567332 135.91909940778248,85.79923144640695 135.95042940778248,85.80520844640695 135.96912349622352,85.80697998964703 135.98277033742207,85.80698619947579 135.98627711317798,85.80789309633425 136.0072776704657,85.80878582264478 136.03551115798842,85.80701019854337 137.52100000000002,85.80768615213508 137.52100000000002,85.955 137.52292147195968,85.97450903220161 137.5286120467489,85.99326834323651 137.53785303876975,86.01055702330196 137.55028932188137,86.02571067811866 137.56544297669805,86.03814696123025 137.5827316567635,86.04738795325113 137.60149096779838,86.05307852804032 137.621,86.05499999999999 143.121,86.05499999999999 143.14050903220163,86.05307852804032 143.1592683432365,86.04738795325113 143.17655702330197,86.03814696123025 143.19171067811865,86.02571067811866 143.20414696123026,86.01055702330196 143.21338795325113,85.99326834323651 143.21907852804034,85.97450903220161 143.221,85.955 143.221,85.928" opacity="0.8" /><polyline fill="none" stroke="#ff0000" stroke-width="0.2" points="143.221,85.928 143.221,84.955 143.21907852804034,84.93549096779839 143.21338795325113,84.91673165676349 143.20414696123026,84.89944297669804 143.19171067811865,84.88428932188134 143.17655702330197,84.87185303876974 143.1592683432365,84.86261204674886 143.14050903220163,84.85692147195968 143.121,84.855 140.315,84.855" opacity="0.8" /><polyline fill="none" stroke="#ff0000" stroke-width="0.2" points="140.315,84.855 140.11487489163122,84.855" opacity="0.8" /><polyline fill="none" stroke="#ff0000" stroke-width="0.2" points="140.11487489163122,84.855 139.3101027628059,84.855" opacity="0.8" /><polyline fill="none" stroke="#ff0000" stroke-width="0.2" points="139.3101027628059,84.855 137.621,84.855 137.60149096779838,84.85692147195968 137.5827316567635,84.86261204674886 137.56544297669805,84.87185303876974 137.55028932188137,84.88428932188134 137.53785303876975,84.89944297669804 137.5286120467489,84.91673165676349 137.52292147195968,84.93549096779839 137.52100000000002,84.955 137.52100000000002,85.10102217390495 136.04295439657105,85.10103367357064 135.535,84.59319958703678" opacity="0.8" /><polyline fill="none" stroke="#ff0000" stroke-width="0.2" points="135.535,84.59319958703678 134.94629216310227,84.00463118679366" opacity="0.8" /><polyline fill="none" stroke="#ff0000" stroke-width="0.2" points="134.94629216310227,84.00463118679366 134.26643205441306,83.32493210436098" opacity="0.8" /><polyline fill="none" stroke="#ff0000" stroke-width="0.2" points="134.26643205441306,83.32493210436098 133.83099980209641,82.88960298506342 133.83099878858397,82.67760000000001" opacity="0.8" /><polyline fill="none" stroke="#ff0000" stroke-width="0.2" points="133.83099878858397,82.67760000000001 133.83099367337465,81.6076184164151" opacity="0.8" /><polyline fill="none" stroke="#ff0000" stroke-width="0.2" points="133.83099367337465,81.6076184164151 133.83099054099083,80.95239733126188" opacity="0.8" /><polyline fill="none" stroke="#ff0000" stroke-width="0.2" points="133.83099054099083,80.95239733126188 133.83098494847553,79.7825745530507" opacity="0.8" /><polyline fill="none" stroke="#ff0000" stroke-width="0.2" points="133.83098494847553,79.7825745530507 133.83096599999885,75.81899852193483 133.8307687979392,75.81272193671344 133.830491,75.80830506048804 133.830491,75.803051 133.82970278956697,75.79052020549523 133.82904474430734,75.78531017289933 133.8287667979392,75.78089093671338 133.82719291342195,75.76843085592886 133.82636390894848,75.76408482494668 133.82570578956694,75.75887420549505 133.82335268443964,75.74653744586568 133.82204571479838,75.74144682218106 133.82121691342192,75.73710185592883 133.8180943787803,75.72493953859215 133.81672739229657,75.72073204990514 133.8154206844397,75.71564244586594 133.81153968824586,75.70369764489398 133.8096074260758,75.69881729238351 133.8082393787803,75.69460653859218 133.80361693076046,75.6829306752903 133.80172830455967,75.67891684043293 133.79979768824586,75.67404064489392 133.79445165008565,75.66267941903216 133.79192838505392,75.65808939533262 133.79003793076043,75.65407167529024 133.7839877330973,75.6430658025959 133.78160808099884,75.6393159254024 133.77908565008553,75.63472741903196 133.77235742349217,75.62412484780162 133.7692782545163,75.61988647386356 133.76689873309724,75.61613680259582 133.75951664469036,75.60597598833962 133.75668980752658,75.60255889422749 133.75360942349218,75.59831884780162 133.74560299006524,75.5886404249927 133.74201271948877,75.58481716090093 133.7391866446902,75.58140098833944 133.73059093654373,75.57224728852177 133.72735676935784,75.56921010102252 133.7237679900651,75.56538842499256 133.7146136546835,75.55679188726371 133.7105782146728,75.55345345839538 133.70734193654368,75.5504142885217 133.69766457273562,75.54240833507792 133.69407137641454,75.53979772191546 133.69003665468335,75.5364598872636 133.67987906575743,75.52907972186344 133.67545318178583,75.52627079501917 133.67186157273545,75.5236613350778 133.66125814403767,75.51693220919591 133.65737653477694,75.51479828933147 133.6529480657573,75.51198772186336 133.64194360951691,75.50593755608375 133.63718735068582,75.50369925846954 133.6333091440377,75.50156720919591 133.6219468640871,75.49622051327496 133.61784111979526,75.49459491323009 133.61308260951697,75.49235555608378 133.6014043689305,75.48773156590455 133.59639781166328,75.48610479787374 133.59229286408717,75.48447951327499 133.58034981972517,75.4805988972577 133.57607372500357,75.47950094363438 133.5710683689306,75.47787456590459 133.55890443802562,75.47475133340842 133.55373597013593,75.4737653787111 133.5494578197252,75.47266689725771 133.53712343987465,75.47031379726992 133.53273735669478,75.46975961104424 133.52757243802563,75.46877433340842 133.52141781445104,75.46799679681185 133.2092037334661,75.15578673653808" opacity="0.8" /><polyline fill="none" stroke="#ff0000" stroke-width="0.2" points="133.2092037334661,75.15578673653808 133.16282118438127,75.1094047847704" opacity="0.8" /><polyline fill="none" stroke="#ff0000" stroke-width="0.2" points="133.16282118438127,75.1094047847704 131.10984893999415,73.05645897867974 131.10984729278303,73.0564459369877" opacity="0.8" /><polyline fill="none" stroke="#ff0000" stroke-width="0.2" points="131.10984729278303,73.0564459369877 131.10790578956696,73.0410742054952" opacity="0.8" /><polyline fill="none" stroke="#ff0000" stroke-width="0.2" points="127.45754696123025,72.05504297669805 127.44897331416743,72.04459595752485 127.4489677638999,71.82483784867928 127.78598953200316,71.472034330222" opacity="0.8" /><polyline fill="none" stroke="#ff0000" stroke-width="0.2" points="127.78598953200316,71.472034330222 127.78600875005891,71.47201421224052 131.78638089948805,71.47357195079329" opacity="0.8" /><polyline fill="none" stroke="#ff0000" stroke-width="0.2" points="131.78638089948805,71.47357195079329 132.32,71.47377974122236" opacity="0.8" /><polyline fill="none" stroke="#ff0000" stroke-width="0.2" points="132.32,71.47377974122236 132.77102552120493,71.473955369843 133.10999999999999,71.80966375741346" opacity="0.8" /><polyline fill="none" stroke="#ff0000" stroke-width="0.2" points="133.10999999999999,71.80966375741346 133.59,72.285038855287" opacity="0.8" /><polyline fill="none" stroke="#ff0000" stroke-width="0.2" points="133.59,72.285038855287 133.90802538698074,72.6" opacity="0.8" /><polyline fill="none" stroke="#ff0000" stroke-width="0.2" points="133.90802538698074,72.6 135.02178388444972,73.70302719737869" opacity="0.8" /><polyline fill="none" stroke="#ff0000" stroke-width="0.2" points="135.02178388444972,73.70302719737869 135.55576359640213,74.23186190119506 135.55731235813414,74.24412296386366 135.5596649481605,74.25645712307448 135.56759594816052,74.28735012307449 135.5714770883867,74.2992957909375 135.5832180883867,74.32895079093751 135.58856448155245,74.34031282042746 135.60392948155246,74.36826282042745 135.61065825187748,74.37886608181103 135.62940525187747,74.40467008181103 135.6334054581942,74.40950571695949" opacity="0.8" /><polyline fill="none" stroke="#ff0000" stroke-width="0.2" points="135.6334054581942,74.40950571695949 135.63740935005927,74.41434580736988 135.6592423500593,74.43759680736989 135.6683971269418,74.44619410478606 135.6929721269418,74.46652510478606 135.70313175078033,74.473906796354 135.73006175078032,74.490997796354 135.74106554141045,74.49704751494257 135.76992454141043,74.51062851494257 135.78160362404026,74.5152527567332 135.81193762404027,74.5251087567332 135.82409940778248,74.52823144640695 135.85542940778248,74.53420844640695 135.8741244575354,74.53597999007984 135.88776458784,74.53598606573065 135.89125167466932,74.5368893061806 135.91227767046573,74.53778582264478 135.9405212341959,74.53600956484351 137.52100000000002,74.53671354910796 137.52100000000002,74.684 137.52292147195968,74.70350903220161 137.5286120467489,74.72226834323651 137.53785303876975,74.73955702330196 137.55028932188137,74.75471067811866 137.56544297669805,74.76714696123025 137.5827316567635,74.77638795325113 137.60149096779838,74.78207852804032 137.621,74.78399999999999 143.121,74.78399999999999 143.14050903220163,74.78207852804032 143.1592683432365,74.77638795325113 143.17655702330197,74.76714696123025 143.19171067811865,74.75471067811866 143.20414696123026,74.73955702330196 143.21338795325113,74.72226834323651 143.21907852804034,74.70350903220161 143.221,74.684 143.221,74.657" opacity="0.8" /><polyline fill="none" stroke="#ff0000" stroke-width="0.2" points="143.221,74.657 143.221,73.684 143.21907852804034,73.66449096779839 143.21338795325113,73.64573165676349 143.20414696123026,73.62844297669804 143.19171067811865,73.61328932188134 143.17655702330197,73.60085303876974 143.1592683432365,73.59161204674886 143.14050903220163,73.58592147195968 143.121,73.584 140.315,73.584" opacity="0.8" /><polyline fill="none" stroke="#ff0000" stroke-width="0.2" points="140.315,73.584 137.621,73.584 137.60149096779838,73.58592147195968 137.5827316567635,73.59161204674886 137.56544297669805,73.60085303876974 137.55028932188137,73.61328932188134 137.53785303876975,73.62844297669804 137.5286120467489,73.64573165676349 137.52292147195968,73.66449096779839 137.52100000000002,73.684 137.52100000000002,73.7030188502923" opacity="0.8" /><polyline fill="none" stroke="#ff0000" stroke-width="0.2" points="137.52100000000002,73.7030188502923 137.52100000000002,73.83002170211991 135.94795573242786,73.83003368050582 135.82092224909104,73.70302452835102" opacity="0.8" /><polyline fill="none" stroke="#ff0000" stroke-width="0.2" points="135.82092224909104,73.70302452835102 134.38,72.26237826430412" opacity="0.8" /><polyline fill="none" stroke="#ff0000" stroke-width="0.2" points="134.38,72.26237826430412 133.59,71.47252957585825" opacity="0.8" /><polyline fill="none" stroke="#ff0000" stroke-width="0.2" points="133.59,71.47252957585825 133.19264831019123,71.07525399225418 133.19070578956698,71.0598742054952 133.18835268443968,71.0475374458658 133.18042068443967,71.0166424458658 133.17653968824584,71.00469764489388 133.16479768824584,70.97504064489388 133.1594516500856,70.96367941903208 133.1440856500856,70.93572741903208 133.13735742349215,70.9251248478016 133.11860942349213,70.8993188478016 133.11060299006513,70.88964042499262 133.10999999999999,70.88899830339909" opacity="0.8" /><polyline fill="none" stroke="#ff0000" stroke-width="0.2" points="133.10999999999999,70.88899830339909 133.08876799006515,70.86638842499262 133.07961365468344,70.85779188726367 133.05503665468345,70.83745988726368 133.04487906575733,70.83007972186338 133.0179480657573,70.81298772186338 133.006943609517,70.80693755608381 132.97808260951703,70.79335555608381 132.9664043689306,70.78873156590458 132.9360683689306,70.77887456590459 132.9239044380256,70.77575133340842 132.89257243802558,70.76977433340842 132.88011359681593,70.76820036143855 132.84827959681596,70.76619736143854 132.84199933489842,70.76600000000221 132.38094839148235,70.76600306645938" opacity="0.8" /><polyline fill="none" stroke="#ff0000" stroke-width="0.2" points="132.38094839148235,70.76600306645938 130.93740205932738,70.766012667509" opacity="0.8" /><polyline fill="none" stroke="#ff0000" stroke-width="0.2" points="130.93740205932738,70.766012667509 127.72999833489841,70.76603400000221 127.72372193671345,70.76623120206078" opacity="0.8" /><polyline fill="none" stroke="#ff0000" stroke-width="0.2" points="115.28,86.6410100937412 115.28,87.34839423488695" opacity="0.8" /><polyline fill="none" stroke="#ff0000" stroke-width="0.2" points="115.3510244784121,76.48101165112419 115.303469223737,76.62737368414757 115.29912283702438,76.64782190096324 115.28054783702439,76.82454690096323 115.28054783702439,76.84545309903676 115.29912283702438,77.02217809903676 115.303469223737,77.04262631585243 115.358380223737,77.21162731585244" opacity="0.8" /><polyline fill="none" stroke="#ff0000" stroke-width="0.2" points="141.02100000000002,72.584 141.02292147195968,72.60350903220161 141.0286120467489,72.62226834323651 141.03785303876975,72.63955702330196 141.05028932188137,72.65471067811866 141.06544297669805,72.66714696123026 141.0827316567635,72.67638795325114 141.10149096779838,72.68207852804032 141.121,72.684 144.121,72.684 144.14050903220163,72.68207852804032 144.1592683432365,72.67638795325114 144.17655702330197,72.66714696123026 144.19171067811865,72.65471067811866 144.20414696123026,72.63955702330196 144.21338795325113,72.62226834323651 144.21907852804034,72.60350903220161 144.221,72.584 144.221,72.55699999999999" opacity="0.8" /><polyline fill="none" stroke="#ff0000" stroke-width="0.2" points="144.221,72.55699999999999 144.221,70.984 144.21907852804034,70.96449096779838 144.21338795325113,70.94573165676348 144.20414696123026,70.92844297669804 144.19171067811865,70.91328932188134 144.17655702330197,70.90085303876974 144.1592683432365,70.89161204674886 144.14050903220163,70.88592147195968 144.121,70.884 143.815,70.884" opacity="0.8" /><polyline fill="none" stroke="#ff0000" stroke-width="0.2" points="143.815,70.884 141.121,70.884 141.10149096779838,70.88592147195968 141.0827316567635,70.89161204674886 141.06544297669805,70.90085303876974 141.05028932188137,70.91328932188134 141.03785303876975,70.92844297669804 141.0286120467489,70.94573165676348 141.02292147195968,70.96449096779838 141.02100000000002,70.984 141.02100000000002,72.584" opacity="0.8" /><polyline fill="none" stroke="#ff0000" stroke-width="0.2" points="141.02100000000002,79.384 141.02292147195968,79.40350903220161 141.0286120467489,79.42226834323651 141.03785303876975,79.43955702330196 141.05028932188137,79.45471067811866 141.06544297669805,79.46714696123026 141.0827316567635,79.47638795325113 141.10149096779838,79.48207852804032 141.121,79.484 144.121,79.484 144.14050903220163,79.48207852804032 144.1592683432365,79.47638795325113 144.17655702330197,79.46714696123026 144.19171067811865,79.45471067811866 144.20414696123026,79.43955702330196 144.21338795325113,79.42226834323651 144.21907852804034,79.40350903220161 144.221,79.384 144.221,79.357" opacity="0.8" /><polyline fill="none" stroke="#ff0000" stroke-width="0.2" points="144.221,79.357 144.221,77.784 144.21907852804034,77.7644909677984 144.21338795325113,77.7457316567635 144.20414696123026,77.72844297669805 144.19171067811865,77.71328932188135 144.17655702330197,77.70085303876975 144.1592683432365,77.69161204674887 144.14050903220163,77.68592147195969 144.121,77.68400000000001 143.815,77.68400000000001" opacity="0.8" /><polyline fill="none" stroke="#ff0000" stroke-width="0.2" points="143.815,77.68400000000001 141.121,77.68400000000001 141.10149096779838,77.68592147195969 141.0827316567635,77.69161204674887 141.06544297669805,77.70085303876975 141.05028932188137,77.71328932188135 141.03785303876975,77.72844297669805 141.0286120467489,77.7457316567635 141.02292147195968,77.7644909677984 141.02100000000002,77.784 141.02100000000002,79.384" opacity="0.8" /><polyline fill="none" stroke="#ff0000" stroke-width="0.2" points="141.02100000000002,81.855 141.02292147195968,81.87450903220162 141.0286120467489,81.89326834323651 141.03785303876975,81.91055702330196 141.05028932188137,81.92571067811866 141.06544297669805,81.93814696123026 141.0827316567635,81.94738795325114 141.10149096779838,81.95307852804032 141.121,81.955 144.121,81.955 144.14050903220163,81.95307852804032 144.1592683432365,81.94738795325114 144.17655702330197,81.93814696123026 144.19171067811865,81.92571067811866 144.20414696123026,81.91055702330196 144.21338795325113,81.89326834323651 144.21907852804034,81.87450903220162 144.221,81.855 144.221,81.82799999999999" opacity="0.8" /><polyline fill="none" stroke="#ff0000" stroke-width="0.2" points="144.221,81.82799999999999 144.221,80.255 144.21907852804034,80.23549096779838 144.21338795325113,80.21673165676349 144.20414696123026,80.19944297669804 144.19171067811865,80.18428932188134 144.17655702330197,80.17185303876974 144.1592683432365,80.16261204674886 144.14050903220163,80.15692147195968 144.121,80.155 143.815,80.155" opacity="0.8" /><polyline fill="none" stroke="#ff0000" stroke-width="0.2" points="143.815,80.155 141.121,80.155 141.10149096779838,80.15692147195968 141.0827316567635,80.16261204674886 141.06544297669805,80.17185303876974 141.05028932188137,80.18428932188134 141.03785303876975,80.19944297669804 141.0286120467489,80.21673165676349 141.02292147195968,80.23549096779838 141.02100000000002,80.255 141.02100000000002,81.855" opacity="0.8" /><polyline fill="none" stroke="#ff0000" stroke-width="0.2" points="141.02100000000002,88.655 141.02292147195968,88.67450903220161 141.0286120467489,88.69326834323651 141.03785303876975,88.71055702330196 141.05028932188137,88.72571067811866 141.06544297669805,88.73814696123026 141.0827316567635,88.74738795325113 141.10149096779838,88.75307852804032 141.121,88.755 144.121,88.755 144.14050903220163,88.75307852804032 144.1592683432365,88.74738795325113 144.17655702330197,88.73814696123026 144.19171067811865,88.72571067811866 144.20414696123026,88.71055702330196 144.21338795325113,88.69326834323651 144.21907852804034,88.67450903220161 144.221,88.655 144.221,88.628" opacity="0.8" /><polyline fill="none" stroke="#ff0000" stroke-width="0.2" points="144.221,88.628 144.221,87.055 144.21907852804034,87.0354909677984 144.21338795325113,87.0167316567635 144.20414696123026,86.99944297669805 144.19171067811865,86.98428932188135 144.17655702330197,86.97185303876975 144.1592683432365,86.96261204674887 144.14050903220163,86.95692147195969 144.121,86.95500000000001 143.815,86.95500000000001" opacity="0.8" /><polyline fill="none" stroke="#ff0000" stroke-width="0.2" points="143.815,86.95500000000001 141.121,86.95500000000001 141.10149096779838,86.95692147195969 141.0827316567635,86.96261204674887 141.06544297669805,86.97185303876975 141.05028932188137,86.98428932188135 141.03785303876975,86.99944297669805 141.0286120467489,87.0167316567635 141.02292147195968,87.0354909677984 141.02100000000002,87.055 141.02100000000002,88.655" opacity="0.8" /><polyline fill="none" stroke="#ff0000" stroke-width="0.2" points="128.6444,76.93820000000001 128.0856,76.93820000000001 128.06609096779837,76.94012147195969 128.0473316567635,76.94581204674887 128.03004297669804,76.95505303876975 128.01488932188136,76.96748932188135 128.01210048508614,76.9708875293486" opacity="0.8" /><polyline fill="none" stroke="#ff0000" stroke-width="0.2" points="128.01210048508614,76.9708875293486 128.00245303876974,76.98264297669805" opacity="0.8" /><polyline fill="none" stroke="#ff0000" stroke-width="0.2" points="128.72754696123025,76.98264297669805 128.71511067811863,76.96748932188135 128.69995702330195,76.95505303876975 128.6826683432365,76.94581204674887 128.66390903220162,76.94012147195969 128.6444,76.93820000000001" opacity="0.8" /></g> </svg>