<svg xmlns="http://www.w3.org/2000/svg" viewBox="0 0 100 100">                 <g><polyline fill="none" stroke="#ff0000" stroke-width="0.2" points="143.121,82.855 137.621,82.855 137.60149096779838,82.85692147195968 137.5827316567635,82.86261204674886 137.56544297669805,82.87185303876974 137.55028932188137,82.88428932188134 137.53785303876975,82.89944297669804 137.5286120467489,82.91673165676349 137.52292147195968,82.93549096779839 137.52100000000002,82.955 137.52100000000002,83.955 137.52292147195968,83.97450903220161 137.5286120467489,83.99326834323651 137.53785303876975,84.01055702330196 137.55028932188137,84.02571067811866 137.56544297669805,84.03814696123025 137.5827316567635,84.04738795325113 137.60149096779838,84.05307852804032 137.621,84.05499999999999 143.121,84.05499999999999 143.14050903220163,84.05307852804032 143.1592683432365,84.04738795325113 143.17655702330197,84.03814696123025 143.19171067811865,84.02571067811866 143.20414696123026,84.01055702330196 143.21338795325113,83.99326834323651 143.21907852804034,83.97450903220161 143.221,83.955 143.221,82.955 143.21907852804034,82.93549096779839 143.21338795325113,82.91673165676349 143.20414696123026,82.89944297669804 143.19171067811865,82.88428932188134 143.17655702330197,82.87185303876974 143.1592683432365,82.86261204674886 143.14050903220163,82.85692147195968 143.121,82.855" opacity="0.8" /><polyline fill="none" stroke="#ff0000" stroke-width="0.2" points="143.121,75.584 137.621,75.584 137.60149096779838,75.58592147195968 137.5827316567635,75.59161204674886 137.56544297669805,75.60085303876974 137.55028932188137,75.61328932188134 137.53785303876975,75.62844297669804 137.5286120467489,75.64573165676349 137.52292147195968,75.66449096779839 137.52100000000002,75.684 137.52100000000002,76.684 137.52292147195968,76.70350903220161 137.5286120467489,76.72226834323651 137.53785303876975,76.73955702330196 137.55028932188137,76.75471067811866 137.56544297669805,76.76714696123025 137.5827316567635,76.77638795325113 137.60149096779838,76.78207852804032 137.621,76.78399999999999 143.121,76.78399999999999 143.14050903220163,76.78207852804032 143.1592683432365,76.77638795325113 143.17655702330197,76.76714696123025 143.19171067811865,76.75471067811866 143.20414696123026,76.73955702330196 143.21338795325113,76.72226834323651 143.21907852804034,76.70350903220161 143.221,76.684 143.221,75.684 143.21907852804034,75.66449096779839 143.21338795325113,75.64573165676349 143.20414696123026,75.62844297669804 143.19171067811865,75.61328932188134 143.17655702330197,75.60085303876974 143.1592683432365,75.59161204674886 143.14050903220163,75.58592147195968 143.121,75.584" opacity="0.8" /><polyline fill="none" stroke="#ff0000" stroke-width="0.2" points="116.67243216552419,78.53717576446782 116.53333736191797,78.47524731960381 116.51345542819004,78.46878729500214 116.33964042819004,78.43184129500214 116.318849,78.42965600000001 116.141151,78.42965600000001 116.12035957180996,78.43184129500214 115.94654457180997,78.46878729500214 115.92666263808204,78.47524731960381 115.76432663808204,78.54752331960381 115.74622128337774,78.55797643961803 115.60246028337772,78.66242543961802 115.58692430576532,78.67641417446701 115.46802130576533,78.80847017446702 115.45573370079686,78.82538258227446 115.36688370079685,78.97927358227446 115.358380223737,78.99837268414755 115.303469223737,79.16737368414755 115.29912283702438,79.18782190096323 115.28054783702439,79.36454690096323 115.28054783702439,79.38545309903677 115.29912283702438,79.56217809903677 115.303469223737,79.58262631585245 115.358380223737,79.75162731585245 115.36688370079685,79.77072641772554 115.45573370079686,79.92461741772554 115.46802130576533,79.94152982553298 115.58692430576532,80.07358582553299 115.60246028337772,80.08757456038198 115.74622128337774,80.19202356038197 115.76432663808204,80.20247668039619 115.92666263808204,80.27475268039619 115.94654457180997,80.28121270499786 116.12035957180996,80.31815870499786 116.141151,80.32034399999999 116.318849,80.32034399999999 116.33964042819004,80.31815870499786 116.51345542819004,80.28121270499786 116.53333736191797,80.27475268039619 116.69567336191797,80.20247668039619 116.71377871662229,80.19202356038197 116.85753971662228,80.08757456038198 116.87307569423467,80.073585825533 116.99197869423467,79.941529825533 117.00426629920315,79.92461741772553 117.09311629920315,79.77072641772553 117.101619776263,79.75162731585245 117.156530776263,79.58262631585245 117.16087716297561,79.56217809903677 117.17945216297561,79.38545309903677 117.17945216297561,79.36454690096323 117.16087716297561,79.18782190096323 117.156530776263,79.16737368414755 117.101619776263,78.99837268414755 117.09311629920315,78.97927358227447 117.07646923016175,78.95044033408259 120.97417919169051,75.02799846099316 129.25397703158777,75.02998299712758 129.26027767046565,75.02978582264477 129.26525173802364,75.029473 129.269948,75.029473 129.28247996386355,75.02868464186588 129.28713330905518,75.02809685244229 129.29211067046575,75.02778382264478 129.3045699899824,75.0262101335571 129.3094720838288,75.02527511990206 129.31412296386364,75.02468764186587 129.32645712307448,75.02233505183949 129.33099766462016,75.02116938210852 129.33590098998232,75.02023413355711 129.348065454557,75.0171110561067 129.35280874397287,75.01556993659186 129.35735012307447,75.01440405183949 129.36929579093757,75.0105229116133 129.37365690934587,75.00879625873075 129.37840045455692,75.00725505610671 129.39007547600514,75.00263285957139 129.39459268706327,75.0005073709823 129.39895079093736,74.99878191161338 129.4103128204275,74.99343551844753 129.4144158269573,74.99117996584178 129.418936476005,74.98905285957146 129.42994159573703,74.98300311490898 129.434162491902,74.9803245988695 129.43826282042747,74.97807051844754 129.44886608181093,74.9713417481226 129.45264961178222,74.96859295582793 129.45687259573714,74.96591311490893 129.4670327933642,74.95853165252605 129.47088795269806,74.95534252267224 129.47467008181093,74.95259474812262 129.48434580736992,74.94459064994071 129.4877540411602,74.94139027282388 129.49160979336406,74.93820065252618 129.500764520905,74.92960413947623 129.50418865216494,74.92595795326488 129.50759680736988,74.92275764994073 129.51619410478597,74.91360287305828 129.51917492688565,74.90999981845694 129.5225995209051,74.90635313947614 129.5306052572273,74.89667613387454 129.5335445732799,74.89263057640598 129.53652510478602,74.88902787305821 129.543906796354,74.87886824921966 129.54641440340473,74.87491705514816 129.5493532572273,74.87087213387457 129.55608292250037,74.8602679044808 129.55848856328524,74.85589200538035 129.56099779635403,74.85193824921963 129.5670475149425,74.84093445858973 129.5690457085517,74.83668838912742 129.57144892250048,74.8323169044806 129.57679526337418,74.82095542819474 129.57862836091434,74.81632569385212 129.58062851494262,74.81207545858948 129.58525275673324,74.80039637595969 129.58670449880807,74.79592832156663 129.58853726337423,74.79129942819462 129.59241773534464,74.7793572505498 129.59365776630443,74.77452811699725 129.5951087567332,74.77006237595972 129.59823144640694,74.75790059221742 129.59882563957356,74.75478597419665 129.70333190610756,74.64214056143027 129.70746255413414,74.64135268443968 129.73835755413415,74.63342068443968 129.75030235510616,74.62953968824584 129.77995935510614,74.61779768824584 129.79132058096792,74.61245165008562 129.81927258096792,74.59708565008562 129.82987515219835,74.5903574234922 129.85568115219837,74.57160942349219 129.86535957500746,74.56360299006509 129.88861157500745,74.54176799006508 129.89720811273634,74.53261365468344 129.91754011273633,74.50803665468345 129.92492027813657,74.49787906575737 129.9420122781366,74.47094806575737 129.94806244391623,74.45994360951696 129.9616444439162,74.43108260951696 129.9662684340954,74.41940436893063 129.97612543409542,74.38906836893062 129.9792486665916,74.3769044380256 129.9852256665916,74.34557243802561 129.98679963856148,74.33311359681595 129.98880263856148,74.30127959681595 129.98899999995945,74.29499715195415 129.9889960918463,74.15777628779314 129.99754696123026,74.14735702330196 130.00678795325112,74.13006834323652 130.01247852804033,74.11130903220162 130.0144,74.0918 130.0144,73.45389266990693 130.68816744812048,73.45506007374922 133.12499804608973,75.86545505418607 133.1230170039307,82.93097296182775 133.1232141773552,82.93727767046572 133.123527,82.9422517380239 133.123527,82.946948 133.12431535813414,82.9594799638637 133.12490314755772,82.96413330905504 133.1252161773552,82.9691106704657 133.12678986644292,82.98156998998249 133.1277248800979,82.98647208382859 133.1283123581341,82.99112296386353 133.13066494816053,83.0034571230746 133.13183061789147,83.00799766462013 133.13276586644287,83.01290098998226 133.1358889438933,83.02506545455697 133.13743006340812,83.0298087439728 133.1385959481605,83.0343501230745 133.14247708838664,83.04629579093738 133.1442037412691,83.05065690934553 133.14574494389333,83.05540045455712 133.15036714042859,83.06707547600513 133.1524926290179,83.07159268706371 133.15421808838667,83.07595079093744 133.1595644815524,83.08731282042737 133.16182003415847,83.0914158269578 133.16394714042863,83.09593647600514 133.16999688509105,83.1069415957371 133.17267540113065,83.11116249190225 133.17492948155243,83.11526282042738 133.18165825187737,83.1258660818109 133.18440704417225,83.12964961178248 133.1870868850911,83.13387259573717 133.19446834747376,83.14403279336399 133.19765747732788,83.14788795269826 133.20040525187756,83.15167008181116 133.2084093500593,83.16134580736993 133.2116097271762,83.1647540411603 133.21479934747381,83.16860979336404 133.22339586052377,83.17776452090499 133.22704204673514,83.18118865216493 133.23024235005926,83.18459680736987 133.23939712694175,83.19319410478599 133.2430001815429,83.19617492688552 133.2466468605238,83.19959952090505 133.25632386612543,83.20760525722729 133.26036942359391,83.2105445732798 133.26397212694187,83.2135251047861 133.2741317507804,83.22090679635406 133.27808294485172,83.22341440340465 133.28212786612536,83.22635325722726 133.29273209551928,83.23308292250043 133.29710799461975,83.2354885632853 133.30106175078026,83.23799779635397 133.3120655414105,83.2440475149426 133.31631161087236,83.24604570855156 133.32068309551923,83.2484489225004 133.3320445718053,83.2537952633742 133.33667430614787,83.25562836091434 133.34092454141054,83.25762851494262 133.35260362404023,83.26225275673319 133.3570716784331,83.26370449880797 133.36170057180544,83.26553726337426 133.3736427494501,83.2694177353446 133.37847188300253,83.27065776630438 133.38293762404027,83.2721087567332 133.3950994077826,83.27523144640696 133.3965264740037,83.27550369584212 135.6508458405963,85.50351300278052 135.65231235813414,85.51512296386366 135.6546649481605,85.52745712307448 135.66259594816052,85.55835012307449 135.6664770883867,85.57029579093751 135.6782180883867,85.59995079093751 135.68356448155245,85.61131282042746 135.69892948155245,85.63926282042745 135.70565825187748,85.64986608181103 135.72440525187747,85.67567008181103 135.73240935005927,85.68534580736988 135.7542423500593,85.70859680736989 135.7633971269418,85.71719410478606 135.7879721269418,85.73752510478606 135.79813175078033,85.744906796354 135.82506175078032,85.761997796354 135.83606554141045,85.76804751494257 135.86492454141043,85.78162851494257 135.87660362404026,85.7862527567332 135.90693762404027,85.7961087567332 135.91909940778248,85.79923144640695 135.95042940778248,85.80520844640695 135.96912349622352,85.80697998964703 135.98277033742207,85.80698619947579 135.98627711317798,85.80789309633425 136.0072776704657,85.80878582264478 136.03551115798842,85.80701019854337 137.52100000000002,85.80768615213508 137.52100000000002,85.955 137.52292147195968,85.97450903220161 137.5286120467489,85.99326834323651 137.53785303876975,86.01055702330196 137.55028932188137,86.02571067811866 137.56544297669805,86.03814696123025 137.5827316567635,86.04738795325113 137.60149096779838,86.05307852804032 137.621,86.05499999999999 143.121,86.05499999999999 143.14050903220163,86.05307852804032 143.1592683432365,86.04738795325113 143.17655702330197,86.03814696123025 143.19171067811865,86.02571067811866 143.20414696123026,86.01055702330196 143.21338795325113,85.99326834323651 143.21907852804034,85.97450903220161 143.221,85.955 143.221,84.955 143.21907852804034,84.93549096779839 143.21338795325113,84.91673165676349 143.20414696123026,84.89944297669804 143.19171067811865,84.88428932188134 143.17655702330197,84.87185303876974 143.1592683432365,84.86261204674886 143.14050903220163,84.85692147195968 143.121,84.855 137.621,84.855 137.60149096779838,84.85692147195968 137.5827316567635,84.86261204674886 137.56544297669805,84.87185303876974 137.55028932188137,84.88428932188134 137.53785303876975,84.89944297669804 137.5286120467489,84.91673165676349 137.52292147195968,84.93549096779839 137.52100000000002,84.955 137.52100000000002,85.10102217390495 136.04295439657105,85.10103367357064 133.83099980209641,82.88960298506342 133.83096599999885,75.81899852193483 133.8307687979392,75.81272193671344 133.830491,75.80830506048804 133.830491,75.803051 133.82970278956697,75.79052020549523 133.82904474430734,75.78531017289933 133.8287667979392,75.78089093671338 133.82719291342195,75.76843085592886 133.82636390894848,75.76408482494668 133.82570578956694,75.75887420549505 133.82335268443964,75.74653744586568 133.82204571479838,75.74144682218106 133.82121691342192,75.73710185592883 133.8180943787803,75.72493953859215 133.81672739229657,75.72073204990514 133.8154206844397,75.71564244586594 133.81153968824586,75.70369764489398 133.8096074260758,75.69881729238351 133.8082393787803,75.69460653859218 133.80361693076046,75.6829306752903 133.80172830455967,75.67891684043293 133.79979768824586,75.67404064489392 133.79445165008565,75.66267941903216 133.79192838505392,75.65808939533262 133.79003793076043,75.65407167529024 133.7839877330973,75.6430658025959 133.78160808099884,75.6393159254024 133.77908565008553,75.63472741903196 133.77235742349217,75.62412484780162 133.7692782545163,75.61988647386356 133.76689873309724,75.61613680259582 133.75951664469036,75.60597598833962 133.75668980752658,75.60255889422749 133.75360942349218,75.59831884780162 133.74560299006524,75.5886404249927 133.74201271948877,75.58481716090093 133.7391866446902,75.58140098833944 133.73059093654373,75.57224728852177 133.72735676935784,75.56921010102252 133.7237679900651,75.56538842499256 133.7146136546835,75.55679188726371 133.7105782146728,75.55345345839538 133.70734193654368,75.5504142885217 133.69766457273562,75.54240833507792 133.69407137641454,75.53979772191546 133.69003665468335,75.5364598872636 133.67987906575743,75.52907972186344 133.67545318178583,75.52627079501917 133.67186157273545,75.5236613350778 133.66125814403767,75.51693220919591 133.65737653477694,75.51479828933147 133.6529480657573,75.51198772186336 133.64194360951691,75.50593755608375 133.63718735068582,75.50369925846954 133.6333091440377,75.50156720919591 133.6219468640871,75.49622051327496 133.61784111979526,75.49459491323009 133.61308260951697,75.49235555608378 133.6014043689305,75.48773156590455 133.59639781166328,75.48610479787374 133.59229286408717,75.48447951327499 133.58034981972517,75.4805988972577 133.57607372500357,75.47950094363438 133.5710683689306,75.47787456590459 133.55890443802562,75.47475133340842 133.55373597013593,75.4737653787111 133.5494578197252,75.47266689725771 133.53712343987465,75.47031379726992 133.53273735669478,75.46975961104424 133.52757243802563,75.46877433340842 133.52141781445104,75.46799679681185 131.10984893999415,73.05645897867974 131.10790578956696,73.0410742054952 131.1055526844397,73.02873744586587 131.0976206844397,72.99784244586587 131.09373968824585,72.98589764489388 131.08199768824585,72.95624064489388 131.0766516500856,72.94487941903208 131.0612856500856,72.91692741903208 131.05455742349216,72.9063248478016 131.03580942349214,72.8805188478016 131.02780299006514,72.87084042499262 131.00596799006516,72.84758842499262 130.99681365468342,72.83899188726363 130.9722366546834,72.81865988726364 130.96207906575737,72.81127972186341 130.93514806575737,72.79418772186341 130.924143609517,72.7881375560838 130.89528260951698,72.7745555560838 130.88360436893058,72.76993156590459 130.85326836893057,72.76007456590459 130.84110443802558,72.75695133340842 130.8097724380256,72.75097433340842 130.79731359681594,72.74940036143855 130.76547959681594,72.74739736143854 130.7591969756298,72.74720000004574 130.0144,72.7472225254635 130.0144,72.1106 130.01247852804033,72.0910909677984 130.00678795325112,72.0723316567635 129.99754696123026,72.05504297669805 129.98511067811864,72.03988932188135 129.96995702330196,72.02745303876975 129.9526683432365,72.01821204674887 129.93390903220163,72.01252147195969 129.9144,72.01060000000001 129.3556,72.01060000000001 129.33609096779838,72.01252147195969 129.3173316567635,72.01821204674887 129.30004297669805,72.02745303876975 129.28488932188137,72.03988932188135 129.27245303876975,72.05504297669805 129.2632120467489,72.0723316567635 129.25752147195968,72.0910909677984 129.25560000000002,72.1106 129.25560000000002,74.0918 129.25752147195968,74.11130903220162 129.2632120467489,74.13006834323652 129.27245303876975,74.14735702330196 129.28124065571944,74.15806476553665 129.2810850231033,74.25329607586552 129.21252755242526,74.3220001693761 120.92899859159165,74.32203400000083 120.92272193671344,74.32223120206078 120.91830506048781,74.32250900000001 120.913051,74.32250900000001 120.90052020549523,74.32329721043304 120.89531017289954,74.32395525569262 120.89089093671339,74.32423320206078 120.87843085592868,74.32580708657808 120.87408482494673,74.32663609105151 120.8688742054952,74.32729421043304 120.85653744586583,74.32964731556034 120.85144682218153,74.3309542852015 120.8471018559287,74.33178308657808 120.83493953859232,74.33490562121963 120.8307320499051,74.33627260770342 120.82564244586578,74.33757931556035 120.81369764489382,74.34146031175418 120.8088172923833,74.34339257392428 120.80460653859231,74.34476062121963 120.79293067529042,74.34938306923948 120.7889168404329,74.35127169544032 120.78404064489379,74.35320231175419 120.7726794190321,74.35854834991437 120.76808939533242,74.36107161494618 120.7640716752903,74.36296206923954 120.75306580259581,74.36901226690277 120.74931592540264,74.37139191900104 120.74472741903203,74.37391434991441 120.73412484780161,74.38064257650784 120.72988647386347,74.38372174548375 120.72613680259582,74.38610126690277 120.71597598833958,74.39348335530968 120.71255889422753,74.3963101924734 120.70831884780165,74.39939057650781 120.6986404249926,74.40739700993485 120.69481716090095,74.41098728051121 120.6914009883396,74.41381335530967 120.68224728852181,74.42240906345621 120.6792101010224,74.42564323064228 120.67538842499253,74.42923200993492 120.66679188726366,74.43838634531657 120.66345345839522,74.44242178532737 120.66041428852172,74.4456580634563 120.65240833507787,74.45533542726447 120.64979772191556,74.45892862358531 120.64645988726367,74.46296334531655 120.63907972186341,74.47312093424264 120.63627079501937,74.47754681821391 120.63366133507787,74.48113842726444 120.62693220919589,74.49174185596237 120.62479828933147,74.49562346522308 120.62198772186338,74.50005193424268 120.61593755608378,74.51105639048302 120.61369925846944,74.51581264931438 120.61156720919587,74.51969085596241 120.60622051327493,74.53105313591296 120.60459491323004,74.53515888020486 120.60235555608381,74.53991739048298 120.59773156590458,74.55159563106942 120.59610479787378,74.5566021883366 120.59447951327495,74.56070713591292 120.59059889725773,74.57265018027469 120.5895009436343,74.57692627499668 120.58787456590456,74.58193163106951 120.58475133340842,74.59409556197438 120.58376537871109,74.59926402986407 120.58266689725771,74.6035421802748 120.58031379726991,74.6158765601254 120.57975961104421,74.62026264330545 120.57877433340843,74.62542756197433 120.57799681745531,74.63158202214474 116.67243216552419,78.53717576446782" opacity="0.8" /><polyline fill="none" stroke="#ff0000" stroke-width="0.2" points="126.74255540070992,72.04273321305719 126.73245303876975,72.05504297669805 126.72321204674887,72.0723316567635 126.71752147195969,72.0910909677984 126.71560000000001,72.1106 126.71560000000001,74.0918 126.71752147195969,74.11130903220162 126.72321204674887,74.13006834323652 126.73245303876975,74.14735702330196 126.74488932188135,74.16251067811866 126.76004297669805,74.17494696123026 126.7773316567635,74.18418795325114 126.79609096779839,74.18987852804032 126.8156,74.1918 127.3744,74.1918 127.3939090322016,74.18987852804032 127.4126683432365,74.18418795325114 127.42995702330195,74.17494696123026 127.44511067811865,74.16251067811866 127.45754696123025,74.14735702330196 127.46678795325113,74.13006834323652 127.47247852804031,74.11130903220162 127.47439999999999,74.0918 127.47439999999999,72.1106 127.47247852804031,72.0910909677984 127.46678795325113,72.0723316567635 127.45754696123025,72.05504297669805 127.44897331416743,72.04459595752485 127.4489677638999,71.82483784867928 127.78600875005891,71.47201421224052 132.77102552120493,71.473955369843 135.55576359640213,74.23186190119506 135.55731235813414,74.24412296386366 135.5596649481605,74.25645712307448 135.56759594816052,74.28735012307449 135.5714770883867,74.2992957909375 135.5832180883867,74.32895079093751 135.58856448155245,74.34031282042746 135.60392948155246,74.36826282042745 135.61065825187748,74.37886608181103 135.62940525187747,74.40467008181103 135.63740935005927,74.41434580736988 135.6592423500593,74.43759680736989 135.6683971269418,74.44619410478606 135.6929721269418,74.46652510478606 135.70313175078033,74.473906796354 135.73006175078032,74.490997796354 135.74106554141045,74.49704751494257 135.76992454141043,74.51062851494257 135.78160362404026,74.5152527567332 135.81193762404027,74.5251087567332 135.82409940778248,74.52823144640695 135.85542940778248,74.53420844640695 135.8741244575354,74.53597999007984 135.88776458784,74.53598606573065 135.89125167466932,74.5368893061806 135.91227767046573,74.53778582264478 135.9405212341959,74.53600956484351 137.52100000000002,74.53671354910796 137.52100000000002,74.684 137.52292147195968,74.70350903220161 137.5286120467489,74.72226834323651 137.53785303876975,74.73955702330196 137.55028932188137,74.75471067811866 137.56544297669805,74.76714696123025 137.5827316567635,74.77638795325113 137.60149096779838,74.78207852804032 137.621,74.78399999999999 143.121,74.78399999999999 143.14050903220163,74.78207852804032 143.1592683432365,74.77638795325113 143.17655702330197,74.76714696123025 143.19171067811865,74.75471067811866 143.20414696123026,74.73955702330196 143.21338795325113,74.72226834323651 143.21907852804034,74.70350903220161 143.221,74.684 143.221,73.684 143.21907852804034,73.66449096779839 143.21338795325113,73.64573165676349 143.20414696123026,73.62844297669804 143.19171067811865,73.61328932188134 143.17655702330197,73.60085303876974 143.1592683432365,73.59161204674886 143.14050903220163,73.58592147195968 143.121,73.584 137.621,73.584 137.60149096779838,73.58592147195968 137.5827316567635,73.59161204674886 137.56544297669805,73.60085303876974 137.55028932188137,73.61328932188134 137.53785303876975,73.62844297669804 137.5286120467489,73.64573165676349 137.52292147195968,73.66449096779839 137.52100000000002,73.684 137.52100000000002,73.83002170211991 135.94795573242786,73.83003368050582 133.19264831019123,71.07525399225418 133.19070578956698,71.0598742054952 133.18835268443968,71.0475374458658 133.18042068443967,71.0166424458658 133.17653968824584,71.00469764489388 133.16479768824584,70.97504064489388 133.1594516500856,70.96367941903208 133.1440856500856,70.93572741903208 133.13735742349215,70.9251248478016 133.11860942349213,70.8993188478016 133.11060299006513,70.88964042499262 133.08876799006515,70.86638842499262 133.07961365468344,70.85779188726367 133.05503665468345,70.83745988726368 133.04487906575733,70.83007972186338 133.0179480657573,70.81298772186338 133.006943609517,70.80693755608381 132.97808260951703,70.79335555608381 132.9664043689306,70.78873156590458 132.9360683689306,70.77887456590459 132.9239044380256,70.77575133340842 132.89257243802558,70.76977433340842 132.88011359681593,70.76820036143855 132.84827959681596,70.76619736143854 132.84199933489842,70.76600000000221 127.72999833489841,70.76603400000221 127.72372193671345,70.76623120206078 127.71930506048804,70.766509 127.714051,70.766509 127.70152020549514,70.76729721043304 127.69631017289937,70.76795525569264 127.69189093671343,70.76823320206078 127.67943085592866,70.76980708657808 127.67508482494664,70.77063609105153 127.66987420549522,70.77129421043304 127.65753744586586,70.77364731556032 127.65244682218156,70.77495428520149 127.64810185592872,70.77578308657807 127.6359395385923,70.77890562121962 127.6317320499049,70.78027260770347 127.6266424458658,70.78157931556034 127.6146976448939,70.78546031175415 127.60981729238341,70.78739257392424 127.60560653859224,70.78876062121965 127.59393067529038,70.7933830692395 127.58991684043285,70.79527169544035 127.5850406448938,70.79720231175419 127.57367941903202,70.80254834991442 127.56908939533234,70.80507161494623 127.56507167529037,70.80696206923952 127.55406580259582,70.81301226690277 127.55031592540264,70.81539191900104 127.54572741903203,70.81791434991442 127.53512484780161,70.82464257650784 127.53088647386348,70.82772174548376 127.52713680259582,70.83010126690277 127.51697598833958,70.83748335530969 127.51355889422753,70.8403101924734 127.50931884780165,70.84339057650782 127.4996404249926,70.85139700993486 127.49581716090096,70.85498728051121 127.4924009883396,70.85781335530967 127.48324728852172,70.8664090634563 127.4802101010224,70.8696432306423 127.47638842499262,70.87323200993484 127.46779188726366,70.88238634531658 127.46445345839538,70.88642178532717 127.46141428852175,70.88965806345625 127.45340833507784,70.8993354272645 127.4507977219155,70.9029286235854 127.44745988726369,70.90696334531654 127.44007972186343,70.91712093424262 127.43727079501936,70.92154681821391 127.43466133507783,70.9251384272645 127.42793220919589,70.93574185596238 127.42579828933147,70.93962346522308 127.42298772186338,70.94405193424268 127.41693755608378,70.95505639048302 127.41469925846944,70.95981264931439 127.41256720919587,70.96369085596241 127.40722051327494,70.97505313591296 127.40559491323005,70.97915888020486 127.40335555608381,70.98391739048299 127.39873156590457,70.99559563106948 127.3971047978738,71.00060218833654 127.39547951327498,71.00470713591285 127.39159889725774,71.0166501802747 127.39050094363434,71.02092627499655 127.38887456590456,71.02593163106948 127.38575133340841,71.03809556197446 127.38476537871112,71.04326402986396 127.38366689725773,71.04754218027472 127.38131379726991,71.0598765601254 127.38075961104421,71.06426264330545 127.37977433340843,71.06942756197434 127.37899663621288,71.07558345677684 127.05022447600389,71.40437373925631 127.03487703613635,71.40631235813413 127.02254287692556,71.40866494816049 126.99164987692555,71.41659594816049 126.97970420906248,71.42047708838669 126.95004920906248,71.43221808838669 126.93868717957257,71.43756448155243 126.91073717957256,71.45292948155243 126.90013391818891,71.4596582518775 126.87432991818892,71.4784052518775 126.86465419263016,71.48640935005925 126.84140319263015,71.50824235005925 126.83280589521395,71.5173971269418 126.81247489521395,71.5419721269418 126.80509320364602,71.55213175078029 126.78800220364602,71.57906175078028 126.7819524850574,71.59006554141047 126.7683714850574,71.61892454141048 126.76374724326679,71.63060362404028 126.75389124326679,71.66093762404027 126.75076855359305,71.6730994077825 126.74479155359305,71.7044294077825 126.74302010563616,71.7230236479411 126.74299999671007,71.73685826783358 126.74214546987749,71.74013296010871 126.74123120206077,71.76127806328658 126.74292534953581,71.78821433115758 126.74255540070992,72.04273321305719" opacity="0.8" /><polyline fill="none" stroke="#ff0000" stroke-width="0.2" points="119.1230093361007,79.35682239912072 119.12214552399804,79.36013260015304 119.12123120206078,79.38127806328654 119.12296877320657,79.40890475017038 119.12101703032819,81.91492311779804 119.12121417735523,81.92127767046568 119.121527,81.92625173802368 119.121527,81.930948 119.12231535813412,81.94347996386358 119.12290314755772,81.94813330905524 119.12321617735522,81.95311067046575 119.12478986644288,81.96556998998234 119.12572488009792,81.97047208382875 119.12631235813413,81.97512296386368 119.12866494816049,81.98745712307445 119.12983061789147,81.99199766462016 119.1307658664429,81.99690098998242 119.13388894389333,82.00906545455709 119.13543006340818,82.01380874397299 119.1365959481605,82.01835012307443 119.14047708838667,82.03029579093746 119.14220374126914,82.03465690934556 119.14374494389332,82.03940045455707 119.14836714042858,82.05107547600507 119.15049262901775,82.0555926870634 119.15221808838666,82.05995079093744 119.15756448155244,82.07131282042744 119.15982003415827,82.07541582695741 119.16194714042854,82.07993647600499 119.16799688509106,82.09094159573712 119.17067540113048,82.095162491902 119.17292948155237,82.09926282042734 119.17965825187753,82.10986608181115 119.18240704417227,82.11364961178253 119.18508688509098,82.117872595737 119.19246834747379,82.12803279336403 119.19565747732777,82.13188795269812 119.19840525187753,82.13567008181114 119.20640935005932,82.14534580736994 119.20960972717606,82.14875404116012 119.21279934747376,82.152609793364 119.22139586052383,82.16176452090505 119.22504204673524,82.16518865216504 119.22824235005922,82.16859680736982 119.23739712694186,82.1771941047861 119.24100018154319,82.18017492688577 119.24464686052376,82.18359952090499 119.25432386612547,82.19160525722732 119.25836942359398,82.19454457327986 119.26197212694181,82.19752510478605 119.27213175078022,82.20490679635394 119.27608294485202,82.20741440340485 119.28012786612557,82.21035325722738 119.29073209551922,82.21708292250038 119.29510799461957,82.21948856328518 119.29906175078031,82.221997796354 119.31006554141048,82.2280475149426 119.31431161087272,82.23004570855176 119.31868309551926,82.23244892250041 119.33004457180544,82.23779526337425 119.33467430614809,82.23962836091442 119.33892454141045,82.24162851494256 119.35060362404026,82.2462527567332 119.35507167843319,82.24770449880799 119.35970057180538,82.24953726337422 119.37164274945012,82.2534177353446 119.37647188300245,82.25465776630435 119.38093762404026,82.2561087567332 119.39309940778253,82.25923144640694 119.3946082901218,82.25951930436231 120.72500000000001,83.57037974673713 120.72500000000001,85.34958608644692 119.43360825250376,86.64100043368295 117.17999999999999,86.64102404621207 117.17999999999999,86.145 117.17807852804032,86.12549096779838 117.17238795325113,86.10673165676349 117.16314696123025,86.08944297669804 117.15071067811866,86.07428932188134 117.13555702330196,86.06185303876974 117.11826834323651,86.05261204674886 117.09950903220161,86.04692147195968 117.08,86.045 115.38,86.045 115.36049096779838,86.04692147195968 115.34173165676349,86.05261204674886 115.32444297669804,86.06185303876974 115.30928932188134,86.07428932188134 115.29685303876974,86.08944297669804 115.28761204674886,86.10673165676349 115.28192147195968,86.12549096779838 115.28,86.145 115.28,87.845 115.28192147195968,87.86450903220161 115.28761204674886,87.88326834323651 115.29685303876974,87.90055702330196 115.30928932188134,87.91571067811866 115.32444297669804,87.92814696123025 115.34173165676349,87.93738795325113 115.36049096779838,87.94307852804032 115.38,87.945 117.08,87.945 117.09950903220161,87.94307852804032 117.11826834323651,87.93738795325113 117.13555702330196,87.92814696123025 117.15071067811866,87.91571067811866 117.16314696123025,87.90055702330196 117.17238795325113,87.88326834323651 117.17807852804032,87.86450903220161 117.17999999999999,87.845 117.17999999999999,87.3475801737992 119.47493987389937,87.34898298131799 119.48127767046569,87.34878582264477 119.48625173802368,87.348473 119.490948,87.348473 119.50347996386358,87.34768464186588 119.50813330905524,87.34709685244228 119.51311067046575,87.34678382264478 119.52556998998234,87.34521013355712 119.53047208382876,87.34427511990208 119.53512296386369,87.34368764186587 119.54745712307445,87.34133505183951 119.5519976646201,87.34016938210856 119.55690098998238,87.33923413355711 119.56906545455703,87.33611105610669 119.57380874397285,87.33456993659186 119.57835012307446,87.3334040518395 119.59029579093755,87.32952291161331 119.59465690934576,87.3277962587308 119.599400454557,87.3262550561067 119.61107547600496,87.32163285957148 119.61559268706327,87.31950737098232 119.61995079093758,87.3177819116133 119.63131282042751,87.31243551844753 119.63541582695741,87.31017996584173 119.63993647600495,87.30805285957149 119.65094159573711,87.30200311490894 119.65516249190193,87.29932459886955 119.65926282042739,87.2970705184476 119.66986608181115,87.29034174812247 119.67364961178254,87.28759295582773 119.677872595737,87.28491311490902 119.68803279336403,87.2775316525262 119.69188795269812,87.27434252267223 119.69567008181114,87.27159474812247 119.70534580736994,87.26359064994068 119.70875404116012,87.26039027282394 119.712609793364,87.25720065252624 119.72176452090505,87.24860413947617 119.72518865216504,87.24495795326476 119.72859680736983,87.24175764994078 119.7371941047861,87.23260287305814 119.74017492688577,87.22899981845681 119.743599520905,87.22535313947624 119.7516052572273,87.21567613387455 119.75454457327987,87.211630576406 119.75752510478607,87.20802787305816 119.76490679635401,87.19786824921967 119.76741440340477,87.19391705514812 119.77035325722731,87.18987213387454 119.7770829225004,87.17926790448077 119.77948856328527,87.17489200538029 119.781997796354,87.17093824921967 119.78804751494255,87.15993445858962 119.79004570855167,87.15568838912745 119.79244892250045,87.15131690448067 119.7977952633742,87.13995542819468 119.79962836091438,87.135325693852 119.8016285149426,87.13107545858946 119.8062527567332,87.11939637595974 119.807704498808,87.11492832156681 119.80953726337422,87.11029942819462 119.8134177353446,87.09835725054988 119.81465776630435,87.09352811699755 119.8161087567332,87.08906237595974 119.81923144640695,87.07690059221747 119.81951930436232,87.0753917098782 120.72512712437576,86.15629071544735 120.72692147195968,86.17450903220161 120.73261204674887,86.19326834323651 120.74185303876975,86.21055702330196 120.75428932188134,86.22571067811866 120.76944297669804,86.23814696123026 120.7867316567635,86.24738795325113 120.80549096779839,86.25307852804032 120.825,86.255 122.125,86.255 122.14450903220161,86.25307852804032 122.16326834323651,86.24738795325113 122.18055702330196,86.23814696123026 122.19571067811866,86.22571067811866 122.20814696123026,86.21055702330196 122.21738795325113,86.19326834323651 122.22307852804032,86.17450903220161 122.225,86.155 122.225,82.755 122.22307852804032,82.73549096779838 122.21738795325113,82.71673165676349 122.20814696123026,82.69944297669804 122.19571067811866,82.68428932188134 122.18055702330196,82.67185303876974 122.16326834323651,82.66261204674886 122.14450903220161,82.65692147195968 122.125,82.655 120.825,82.655 120.80549096779839,82.65692147195968 120.7867316567635,82.66261204674886 120.76944297669804,82.67185303876974 120.75428932188134,82.68428932188134 120.74185303876975,82.69944297669804 120.73261204674887,82.71673165676349 120.72692147195968,82.73549096779838 120.72500000000001,82.755 120.72500000000001,82.76959300618697 119.8289994459448,81.87360813213361 119.82896694482017,79.44558198237864 120.87059013749074,78.38091286990655 121.63560000000001,78.38216309408037 121.63560000000001,79.0194 121.63752147195969,79.03890903220162 121.64321204674887,79.05766834323651 121.65245303876975,79.07495702330196 121.66488932188135,79.09011067811866 121.68004297669805,79.10254696123026 121.6973316567635,79.11178795325114 121.7160909677984,79.11747852804032 121.7356,79.1194 122.2944,79.1194 122.31390903220161,79.11747852804032 122.3326683432365,79.11178795325114 122.34995702330195,79.10254696123026 122.36511067811865,79.09011067811866 122.37754696123025,79.07495702330196 122.38678795325113,79.05766834323651 122.39247852804031,79.03890903220162 122.39439999999999,79.0194 122.39439999999999,77.0382 122.39247852804031,77.01869096779839 122.38678795325113,76.9999316567635 122.37754696123025,76.98264297669805 122.36511067811865,76.96748932188135 122.34995702330195,76.95505303876975 122.3326683432365,76.94581204674887 122.31390903220161,76.94012147195969 122.2944,76.93820000000001 121.7356,76.93820000000001 121.7160909677984,76.94012147195969 121.6973316567635,76.94581204674887 121.68004297669805,76.95505303876975 121.66488932188135,76.96748932188135 121.65245303876975,76.98264297669805 121.64321204674887,76.9999316567635 121.63752147195969,77.01869096779839 121.63560000000001,77.0382 121.63560000000001,77.67481080544546 120.82119615195413,77.67483400004056 120.81492193671343,77.67503120206078 120.81050506048803,77.675309 120.805251,77.675309 120.79272020549514,77.67609721043304 120.78751017289937,77.67675525569264 120.78309093671344,77.67703320206078 120.77063085592873,77.67860708657807 120.76628482494662,77.67943609105153 120.76107420549512,77.68009421043305 120.74873744586583,77.68244731556034 120.74364682218153,77.6837542852015 120.7393018559287,77.68458308657809 120.72713953859237,77.68770562121962 120.72293204990511,77.68907260770341 120.71784244586577,77.69037931556035 120.70589764489384,77.69426031175418 120.70101729238354,77.6961925739242 120.69680653859236,77.69756062121961 120.68513067529038,77.7021830692395 120.68111684043285,77.70407169544035 120.6762406448938,77.70600231175419 120.66487941903202,77.71134834991442 120.66028939533234,77.71387161494623 120.65627167529037,77.71576206923952 120.64526580259582,77.72181226690277 120.64151592540264,77.72419191900104 120.63692741903203,77.72671434991442 120.62632484780161,77.73344257650784 120.62208647386348,77.73652174548376 120.61833680259582,77.73890126690277 120.60817598833958,77.74628335530969 120.60475889422753,77.7491101924734 120.60051884780165,77.75219057650781 120.5908404249926,77.76019700993486 120.58701716090096,77.76378728051121 120.5836009883396,77.76661335530967 120.57444728852172,77.7752090634563 120.5714101010224,77.7784432306423 120.56758842499262,77.78203200993484 120.55899188726366,77.79118634531658 120.55565345839538,77.79522178532717 120.55261428852175,77.79845806345625 120.54460833507784,77.8081354272645 120.54199772191551,77.8117286235854 120.53865988726369,77.81576334531654 120.53127972186343,77.82592093424262 120.52847079501936,77.83034681821391 120.52586133507783,77.8339384272645 120.51913220919589,77.84454185596238 120.51699828933147,77.84842346522308 120.51418772186338,77.85285193424268 120.50813755608378,77.86385639048302 120.50589925846944,77.86861264931439 120.50376720919587,77.87249085596241 120.49842051327494,77.88385313591296 120.49679491323005,77.88795888020486 120.49455555608381,77.89271739048299 120.48993156590457,77.90439563106948 120.4883047978738,77.90940218833654 120.48667951327498,77.91350713591285 120.48279889725774,77.9254501802747 120.48170094363434,77.92972627499655 120.48007456590456,77.93473163106948 120.47695133340841,77.94689556197446 120.47596537871112,77.95206402986396 120.47486689725773,77.95634218027472 120.47251379726991,77.9686765601254 120.47195961104421,77.97306264330545 120.47097433340844,77.97822756197434 120.47019674692555,77.98438258042597 119.43023380532502,79.02437256081886 119.41487703613635,79.02631235813413 119.40254287692554,79.0286649481605 119.37164987692555,79.0365959481605 119.3597042090625,79.04047708838668 119.3300492090625,79.05221808838668 119.31868717957256,79.05756448155243 119.29073717957256,79.07292948155244 119.28013391818891,79.0796582518775 119.25432991818892,79.09840525187751 119.24465419263015,79.10640935005925 119.22140319263015,79.12824235005925 119.21280589521395,79.1373971269418 119.19247489521395,79.1619721269418 119.18509320364602,79.1721317507803 119.16800220364601,79.19906175078029 119.1619524850574,79.2100655414105 119.14837148505741,79.2389245414105 119.1437472432668,79.25060362404028 119.1338912432668,79.28093762404029 119.13076855359306,79.2930994077825 119.12479155359306,79.3244294077825 119.12302003032819,79.34309111779805 119.1230093361007,79.35682239912072" opacity="0.8" /><polyline fill="none" stroke="#ff0000" stroke-width="0.2" points="117.52860993809423,76.48100105016263 117.10897553668688,76.48101169759472 117.101619776263,76.45837268414756 117.09311629920315,76.43927358227447 117.00426629920315,76.28538258227447 116.99197869423466,76.268470174467 116.87307569423466,76.136414174467 116.85753971662228,76.12242543961804 116.71377871662229,76.01797643961804 116.69567336191797,76.0075233196038 116.53333736191797,75.9352473196038 116.51345542819004,75.92878729500214 116.33964042819004,75.89184129500214 116.318849,75.889656 116.141151,75.889656 116.12035957180996,75.89184129500214 115.94654457180997,75.92878729500214 115.92666263808204,75.9352473196038 115.76432663808204,76.0075233196038 115.74622128337772,76.01797643961802 115.60246028337771,76.12242543961803 115.58692430576532,76.13641417446702 115.46802130576533,76.26847017446701 115.45573370079686,76.28538258227445 115.36688370079685,76.43927358227445 115.358380223737,76.45837268414756 115.303469223737,76.62737368414757 115.29912283702438,76.64782190096324 115.28054783702439,76.82454690096323 115.28054783702439,76.84545309903676 115.29912283702438,77.02217809903676 115.303469223737,77.04262631585243 115.358380223737,77.21162731585244 115.36688370079685,77.23072641772555 115.45573370079686,77.38461741772554 115.46802130576533,77.40152982553298 115.58692430576532,77.53358582553298 115.60246028337771,77.54757456038197 115.74622128337772,77.65202356038198 115.76432663808204,77.6624766803962 115.92666263808204,77.7347526803962 115.94654457180997,77.74121270499786 116.12035957180996,77.77815870499786 116.141151,77.780344 116.318849,77.780344 116.33964042819004,77.77815870499786 116.51345542819004,77.74121270499786 116.53333736191797,77.7347526803962 116.69567336191797,77.6624766803962 116.71377871662229,77.65202356038196 116.85753971662228,77.54757456038196 116.87307569423467,77.533585825533 116.99197869423467,77.40152982553299 117.00426629920315,77.38461741772552 117.09311629920315,77.23072641772553 117.101619776263,77.21162731585244 117.10919583358363,77.18831028896813 117.56985499102332,77.18898289340683 117.57627767046573,77.18878582264477 117.58125173802391,77.18847299999999 117.585948,77.18847299999999 117.59847996386367,77.18768464186586 117.6031333090552,77.18709685244227 117.6081106704657,77.18678382264477 117.62056998998239,77.1852101335571 117.62547208382911,77.184275119902 117.63012296386358,77.18368764186586 117.64245712307442,77.1813350518395 117.64699766461985,77.1801693821086 117.65190098998237,77.17923413355712 117.6640654545571,77.17611105610668 117.66880874397297,77.17456993659182 117.6733501230744,77.17340405183951 117.68529579093746,77.16952291161333 117.68965690934556,77.16779625873086 117.69440045455707,77.16625505610668 117.70607547600507,77.16163285957143 117.7105926870634,77.15950737098225 117.71495079093744,77.15778191161334 117.72631282042744,77.15243551844756 117.73041582695741,77.15017996584173 117.73493647600499,77.14805285957146 117.74594159573712,77.14200311490895 117.750162491902,77.13932459886952 117.75426282042734,77.13707051844763 117.76486608181115,77.13034174812248 117.76864961178254,77.12759295582774 117.772872595737,77.12491311490902 117.78303279336403,77.11753165252621 117.78688795269812,77.11434252267223 117.79067008181114,77.11159474812247 117.80034580736994,77.10359064994068 117.80375404116012,77.10039027282394 117.807609793364,77.09720065252624 117.81676452090505,77.08860413947617 117.82018865216504,77.08495795326476 117.82359680736982,77.08175764994078 117.8321941047861,77.07260287305814 117.83517492688577,77.06899981845682 117.83859952090499,77.06535313947624 117.84660525722732,77.05567613387453 117.84954457327986,77.05163057640603 117.85252510478605,77.04802787305819 117.85990679635397,77.03786824921973 117.8624144034048,77.03391705514807 117.86535325722737,77.02987213387445 117.87208292250038,77.01926790448077 117.87448856328524,77.01489200538032 117.87699779635402,77.01093824921963 117.8830475149426,76.99993445858946 117.88504570855166,76.99568838912745 117.88744892250037,76.9913169044808 117.89279526337425,76.97995542819454 117.89462836091438,76.975325693852 117.89662851494253,76.97107545858962 117.90125275673319,76.9593963759598 117.902704498808,76.95492832156677 117.90453726337424,76.9502994281946 117.9084177353446,76.93835725054988 117.90965776630435,76.93352811699755 117.9111087567332,76.92906237595975 117.91423144640694,76.91690059221747 117.91448430697915,76.9155751577642 121.3492454933762,73.4533886784839 121.63560000000001,73.45416060765622 121.63560000000001,74.0918 121.63752147195969,74.11130903220162 121.64321204674887,74.13006834323652 121.65245303876975,74.14735702330196 121.66488932188135,74.16251067811866 121.68004297669805,74.17494696123026 121.6973316567635,74.18418795325114 121.7160909677984,74.18987852804032 121.7356,74.1918 122.2944,74.1918 122.31390903220161,74.18987852804032 122.3326683432365,74.18418795325114 122.34995702330195,74.17494696123026 122.36511067811865,74.16251067811866 122.37754696123025,74.14735702330196 122.38678795325113,74.13006834323652 122.39247852804031,74.11130903220162 122.39439999999999,74.0918 122.39439999999999,72.1106 122.39247852804031,72.0910909677984 122.38678795325113,72.0723316567635 122.37754696123025,72.05504297669805 122.36511067811865,72.03988932188135 122.34995702330195,72.02745303876975 122.3326683432365,72.01821204674887 122.31390903220161,72.01252147195969 122.2944,72.01060000000001 121.7356,72.01060000000001 121.7160909677984,72.01252147195969 121.6973316567635,72.01821204674887 121.68004297669805,72.02745303876975 121.66488932188135,72.03988932188135 121.65245303876975,72.05504297669805 121.64321204674887,72.0723316567635 121.63752147195969,72.0910909677984 121.63560000000001,72.1106 121.63560000000001,72.74721813765551 121.3037942193543,72.74723400011428 121.29752193671344,72.74743120206078 121.29310506048803,72.747709 121.287851,72.747709 121.27532020549523,72.74849721043303 121.27011017289934,72.74915525569264 121.26569093671338,72.74943320206079 121.25323085592876,72.75100708657807 121.24888482494676,72.75183609105152 121.24367420549518,72.75249421043304 121.23133744586579,72.75484731556033 121.22624682218147,72.7561542852015 121.22190185592875,72.75698308657806 121.20973953859226,72.76010562121965 121.20553204990514,72.7614726077034 121.2004424458658,72.76277931556034 121.18849764489389,72.76666031175415 121.18361729238326,72.76859257392428 121.17940653859226,72.76996062121965 121.16773067529026,72.77458306923955 121.16371684043285,72.77647169544035 121.1588406448939,72.77840231175415 121.14747941903205,72.7837483499144 121.14288939533245,72.78627161494619 121.13887167529033,72.78816206923953 121.1278658025958,72.79421226690279 121.12411592540283,72.79659191900092 121.11952741903207,72.79911434991439 121.10892484780152,72.8058425765079 121.1046864738633,72.80892174548387 121.1009368025959,72.81130126690273 121.09077598833959,72.81868335530967 121.08735889422744,72.82151019247345 121.08311884780161,72.82459057650784 121.07344042499257,72.8325970099349 121.06961716090116,72.83618728051103 121.06620098833963,72.83901335530963 121.05704728852176,72.84760906345625 121.05401010102213,72.85084323064257 121.0501884249926,72.85443200993488 121.04159188726375,72.86358634531646 121.03825345839532,72.86762178532726 121.03521428852169,72.87085806345632 121.02720833507786,72.88053542726446 121.02459772191555,72.8841286235853 121.02125988726367,72.88816334531654 121.01387972186338,72.89832093424268 121.01107079501925,72.90274681821408 121.00846133507784,72.9063384272645 121.00173220919588,72.9169418559624 120.99959828933147,72.92082346522307 120.99678772186337,72.92525193424271 120.99073755608379,72.93625639048302 120.98849925846945,72.94101264931439 120.98636720919588,72.94489085596241 120.98102051327494,72.95625313591296 120.97939491323005,72.96035888020486 120.97715555608382,72.96511739048299 120.9725315659046,72.97679563106936 120.97090479787374,72.9818021883367 120.96927951327496,72.98590713591292 120.96539889725773,72.99785018027477 120.9643009436344,73.00212627499641 120.96267456590459,73.00713163106937 120.95955133340838,73.01929556197452 120.95856537871103,73.02446402986436 120.95746689725775,73.0287421802747 120.95511379726995,73.04107656012519 120.95455961104422,73.04546264330534 120.9535743334084,73.05062756197454 120.95279681013487,73.05678208009002 117.52860993809423,76.48100105016263" opacity="0.8" /><polyline fill="none" stroke="#ff0000" stroke-width="0.2" points="141.02100000000002,72.584 141.02292147195968,72.60350903220161 141.0286120467489,72.62226834323651 141.03785303876975,72.63955702330196 141.05028932188137,72.65471067811866 141.06544297669805,72.66714696123026 141.0827316567635,72.67638795325114 141.10149096779838,72.68207852804032 141.121,72.684 144.121,72.684 144.14050903220163,72.68207852804032 144.1592683432365,72.67638795325114 144.17655702330197,72.66714696123026 144.19171067811865,72.65471067811866 144.20414696123026,72.63955702330196 144.21338795325113,72.62226834323651 144.21907852804034,72.60350903220161 144.221,72.584 144.221,70.984 144.21907852804034,70.96449096779838 144.21338795325113,70.94573165676348 144.20414696123026,70.92844297669804 144.19171067811865,70.91328932188134 144.17655702330197,70.90085303876974 144.1592683432365,70.89161204674886 144.14050903220163,70.88592147195968 144.121,70.884 141.121,70.884 141.10149096779838,70.88592147195968 141.0827316567635,70.89161204674886 141.06544297669805,70.90085303876974 141.05028932188137,70.91328932188134 141.03785303876975,70.92844297669804 141.0286120467489,70.94573165676348 141.02292147195968,70.96449096779838 141.02100000000002,70.984 141.02100000000002,72.584" opacity="0.8" /><polyline fill="none" stroke="#ff0000" stroke-width="0.2" points="141.02100000000002,79.384 141.02292147195968,79.40350903220161 141.0286120467489,79.42226834323651 141.03785303876975,79.43955702330196 141.05028932188137,79.45471067811866 141.06544297669805,79.46714696123026 141.0827316567635,79.47638795325113 141.10149096779838,79.48207852804032 141.121,79.484 144.121,79.484 144.14050903220163,79.48207852804032 144.1592683432365,79.47638795325113 144.17655702330197,79.46714696123026 144.19171067811865,79.45471067811866 144.20414696123026,79.43955702330196 144.21338795325113,79.42226834323651 144.21907852804034,79.40350903220161 144.221,79.384 144.221,77.784 144.21907852804034,77.7644909677984 144.21338795325113,77.7457316567635 144.20414696123026,77.72844297669805 144.19171067811865,77.71328932188135 144.17655702330197,77.70085303876975 144.1592683432365,77.69161204674887 144.14050903220163,77.68592147195969 144.121,77.68400000000001 141.121,77.68400000000001 141.10149096779838,77.68592147195969 141.0827316567635,77.69161204674887 141.06544297669805,77.70085303876975 141.05028932188137,77.71328932188135 141.03785303876975,77.72844297669805 141.0286120467489,77.7457316567635 141.02292147195968,77.7644909677984 141.02100000000002,77.784 141.02100000000002,79.384" opacity="0.8" /><polyline fill="none" stroke="#ff0000" stroke-width="0.2" points="141.02100000000002,81.855 141.02292147195968,81.87450903220162 141.0286120467489,81.89326834323651 141.03785303876975,81.91055702330196 141.05028932188137,81.92571067811866 141.06544297669805,81.93814696123026 141.0827316567635,81.94738795325114 141.10149096779838,81.95307852804032 141.121,81.955 144.121,81.955 144.14050903220163,81.95307852804032 144.1592683432365,81.94738795325114 144.17655702330197,81.93814696123026 144.19171067811865,81.92571067811866 144.20414696123026,81.91055702330196 144.21338795325113,81.89326834323651 144.21907852804034,81.87450903220162 144.221,81.855 144.221,80.255 144.21907852804034,80.23549096779838 144.21338795325113,80.21673165676349 144.20414696123026,80.19944297669804 144.19171067811865,80.18428932188134 144.17655702330197,80.17185303876974 144.1592683432365,80.16261204674886 144.14050903220163,80.15692147195968 144.121,80.155 141.121,80.155 141.10149096779838,80.15692147195968 141.0827316567635,80.16261204674886 141.06544297669805,80.17185303876974 141.05028932188137,80.18428932188134 141.03785303876975,80.19944297669804 141.0286120467489,80.21673165676349 141.02292147195968,80.23549096779838 141.02100000000002,80.255 141.02100000000002,81.855" opacity="0.8" /><polyline fill="none" stroke="#ff0000" stroke-width="0.2" points="141.02100000000002,88.655 141.02292147195968,88.67450903220161 141.0286120467489,88.69326834323651 141.03785303876975,88.71055702330196 141.05028932188137,88.72571067811866 141.06544297669805,88.73814696123026 141.0827316567635,88.74738795325113 141.10149096779838,88.75307852804032 141.121,88.755 144.121,88.755 144.14050903220163,88.75307852804032 144.1592683432365,88.74738795325113 144.17655702330197,88.73814696123026 144.19171067811865,88.72571067811866 144.20414696123026,88.71055702330196 144.21338795325113,88.69326834323651 144.21907852804034,88.67450903220161 144.221,88.655 144.221,87.055 144.21907852804034,87.0354909677984 144.21338795325113,87.0167316567635 144.20414696123026,86.99944297669805 144.19171067811865,86.98428932188135 144.17655702330197,86.97185303876975 144.1592683432365,86.96261204674887 144.14050903220163,86.95692147195969 144.121,86.95500000000001 141.121,86.95500000000001 141.10149096779838,86.95692147195969 141.0827316567635,86.96261204674887 141.06544297669805,86.97185303876975 141.05028932188137,86.98428932188135 141.03785303876975,86.99944297669805 141.0286120467489,87.0167316567635 141.02292147195968,87.0354909677984 141.02100000000002,87.055 141.02100000000002,88.655" opacity="0.8" /><polyline fill="none" stroke="#ff0000" stroke-width="0.2" points="128.6444,76.93820000000001 128.0856,76.93820000000001 128.06609096779837,76.94012147195969 128.0473316567635,76.94581204674887 128.03004297669804,76.95505303876975 128.01488932188136,76.96748932188135 128.00245303876974,76.98264297669805 127.99321204674887,76.9999316567635 127.98752147195968,77.01869096779839 127.9856,77.0382 127.9856,79.0194 127.98752147195968,79.03890903220162 127.99321204674887,79.05766834323651 128.00245303876974,79.07495702330196 128.01488932188136,79.09011067811866 128.03004297669804,79.10254696123026 128.0473316567635,79.11178795325114 128.06609096779837,79.11747852804032 128.0856,79.1194 128.6444,79.1194 128.66390903220162,79.11747852804032 128.6826683432365,79.11178795325114 128.69995702330195,79.10254696123026 128.71511067811863,79.09011067811866 128.72754696123025,79.07495702330196 128.7367879532511,79.05766834323651 128.74247852804032,79.03890903220162 128.74439999999998,79.0194 128.74439999999998,77.0382 128.74247852804032,77.01869096779839 128.7367879532511,76.9999316567635 128.72754696123025,76.98264297669805 128.71511067811863,76.96748932188135 128.69995702330195,76.95505303876975 128.6826683432365,76.94581204674887 128.66390903220162,76.94012147195969 128.6444,76.93820000000001" opacity="0.8" /></g> </svg>