<svg xmlns="http://www.w3.org/2000/svg" viewBox="0 0 40.0 20.0" width="40.0mm" height="20.0mm">
                    <g><polyline fill="none" stroke="#000000" stroke-width="0.4" points="23.23497352134131,5.124026478658691 24.00094704268262,5.89" opacity="0.8" /><polyline fill="none" stroke="#000000" stroke-width="0.4" points="24.00094704268262,5.89 24.02834704268262,5.9174" opacity="0.8" /><polyline fill="none" stroke="#000000" stroke-width="0.4" points="24.02834704268262,5.9174 24.118,6.0070529573173825 24.118,7.943117106362149" opacity="0.8" /><polyline fill="none" stroke="#000000" stroke-width="0.4" points="24.118,7.943117106362149 24.118,12.931 24.118240908758967,12.94081353486547 24.11946398818423,12.965709888509185 24.121387777432307,12.985242448534771 24.125045236784622,13.009899036683157 24.12887428813867,13.029148977772786 24.134930904085113,13.05332834400332 24.14062834168741,13.072110278701052 24.149025785705522,13.09557956249915 24.156536740117446,13.113712610506802 24.167194140230833,13.13624578983988 24.176446276855454,13.153555319992439 24.189260996475085,13.174935388025611 24.20016521217902,13.19125470008546 24.215013838549734,13.21127575507605 24.227465119774894,13.226447685147003 24.244204652507648,13.244916913390815 24.250973521341308,13.25202647865869 24.7,13.701052957317382" opacity="0.8" /><polyline fill="none" stroke="#000000" stroke-width="0.4" points="24.7,13.701052957317382 26.156947042682617,15.158" opacity="0.8" /><polyline fill="none" stroke="#000000" stroke-width="0.4" points="26.156947042682617,15.158 26.774973521341295,15.776026478658691 26.782083086609244,15.782795347492398 26.80055231485307,15.799534880225151 26.81572424492395,15.811986161450267 26.83574529991454,15.82683478782098 26.85206461197436,15.837739003524884 26.873444680007516,15.850553723144516 26.890754210160075,15.85980585976915 26.91328738949314,15.87046325988254 26.931420437500833,15.877974214294479 26.954889721298933,15.886371658312589 26.97367165599671,15.892069095914886 26.99785102222726,15.898125711861328 27.017100963316857,15.901954763215377 27.041757551465242,15.905612222567692 27.061290111490816,15.907536011815772 27.08618646513453,15.908759091241032 27.096,15.909 28.516,15.909 28.516,15.955 28.516963054665567,15.974603428065912 28.51984294391936,15.994018064403221 28.52461193285355,16.013056935450898 28.53122409349775,16.03153668647301 28.539615747130334,16.0492793473652 28.549706077539504,16.066114046603918 28.561397909327447,16.081878656832725 28.574578643762678,16.096421356237308 28.589121343167275,16.109602090672553 28.60488595339608,16.121293922460513 28.6217206526348,16.131384252869665 28.63946331352699,16.139775906502262 28.65794306454912,16.146388067146436 28.676981935596764,16.15115705608064 28.696396571934073,16.154036945334436 28.716,16.155 34.216,16.155 34.23560342806593,16.154036945334436 34.25501806440324,16.15115705608064 34.27405693545088,16.146388067146436 34.292536686473014,16.139775906502262 34.3102793473652,16.131384252869665 34.32711404660392,16.121293922460513 34.342878656832724,16.109602090672553 34.357421356237325,16.096421356237308 34.370602090672556,16.081878656832725 34.3822939224605,16.066114046603918 34.39238425286967,16.0492793473652 34.40077590650225,16.03153668647301 34.402041353156804,16.028" opacity="0.8" /><polyline fill="none" stroke="#000000" stroke-width="0.4" points="34.402041353156804,16.028 34.40738806714645,16.013056935450898 34.41215705608064,15.994018064403221 34.415036945334435,15.974603428065912 34.416,15.955 34.416,14.955 34.415036945334435,14.935396571934088 34.41215705608064,14.915981935596779 34.40738806714645,14.896943064549104 34.40077590650225,14.878463313526987 34.39238425286967,14.8607206526348 34.3822939224605,14.843885953396082 34.370602090672556,14.828121343167275 34.357421356237325,14.813578643762693 34.342878656832724,14.800397909327447 34.32711404660392,14.788706077539489 34.3102793473652,14.778615747130335 34.292536686473014,14.770224093497738 34.27405693545088,14.763611932853564 34.25501806440324,14.75884294391936 34.23560342806593,14.755963054665566 34.216,14.755 30.071947042682616,14.755" opacity="0.8" /><polyline fill="none" stroke="#000000" stroke-width="0.4" points="30.071947042682616,14.755 28.716,14.755 28.696396571934073,14.755963054665566 28.676981935596764,14.75884294391936 28.65794306454912,14.763611932853564 28.63946331352699,14.770224093497738 28.6217206526348,14.778615747130335 28.60488595339608,14.788706077539489 28.589121343167275,14.800397909327447 28.574578643762678,14.813578643762693 28.561397909327447,14.828121343167275 28.549706077539504,14.843885953396082 28.539615747130334,14.8607206526348 28.53122409349775,14.878463313526987 28.52461193285355,14.896943064549104 28.51984294391936,14.915981935596779 28.516963054665567,14.935396571934088 28.516,14.955 28.516,15.001 27.284052957317382,15.001 26.73,14.446947042682618" opacity="0.8" /><polyline fill="none" stroke="#000000" stroke-width="0.4" points="26.73,14.446947042682618 26.168380143835126,13.88532718651776" opacity="0.8" /><polyline fill="none" stroke="#000000" stroke-width="0.4" points="26.168380143835126,13.88532718651776 25.261,12.977947042682619" opacity="0.8" /><polyline fill="none" stroke="#000000" stroke-width="0.4" points="25.261,12.977947042682619 25.026,12.742947042682617 25.026,12.5776" opacity="0.8" /><polyline fill="none" stroke="#000000" stroke-width="0.4" points="25.026,12.5776 25.026,11.918238696591512" opacity="0.8" /><polyline fill="none" stroke="#000000" stroke-width="0.4" points="25.026,11.918238696591512 25.026,10.641761303408488" opacity="0.8" /><polyline fill="none" stroke="#000000" stroke-width="0.4" points="25.026,10.641761303408488 25.026,10.093238696591511" opacity="0.8" /><polyline fill="none" stroke="#000000" stroke-width="0.4" points="25.026,10.093238696591511 25.026,5.819 25.02575909124103,5.809186465134531 25.024536011815773,5.784290111490816 25.02261222256769,5.7647575514652285 25.01895476321538,5.740100963316843 25.015125711861327,5.720851022227213 25.009069095914885,5.69667165599668 25.003371658312588,5.677889721298948 24.99497421429448,5.65442043750085 24.987463259882553,5.636287389493197 24.976805859769165,5.613754210160121 24.967553723144547,5.596444680007562 24.954739003524914,5.575064611974389 24.94383478782098,5.558745299914539 24.92898616145027,5.538724244923949 24.916534880225107,5.5235523148529975 24.89979534749235,5.505083086609185 24.89302647865869,5.497973521341309 24.65205295731738,5.257" opacity="0.8" /><polyline fill="none" stroke="#000000" stroke-width="0.4" points="24.65205295731738,5.257 24.404452957317382,5.0094" opacity="0.8" /><polyline fill="none" stroke="#000000" stroke-width="0.4" points="24.404452957317382,5.0094 23.83222926176031,4.437176304442927" opacity="0.8" /><polyline fill="none" stroke="#000000" stroke-width="0.4" points="23.83222926176031,4.437176304442927 23.744052957317383,4.349" opacity="0.8" /><polyline fill="none" stroke="#000000" stroke-width="0.4" points="24.232447685147,0.775465119774893 24.217275755076052,0.7630138385497331 24.197254700085463,0.7481652121790201 24.180935388025613,0.7372609964750856 24.15955531999244,0.7244462768554538 24.14224578983988,0.7151941402308345 24.119712610506802,0.7045367401174456 24.10157956249915,0.6970257857055216 24.07811027870105,0.688628341687411 24.05932834400332,0.6829309040851146 24.03514897777279,0.6768742881386727 24.01589903668316,0.673045236784622 23.991242448534774,0.6693877774323076 23.971709888509185,0.6674639881842286 23.94681353486547,0.6662409087589681 23.937,0.666 23.447821353074044,0.666" opacity="0.8" /><polyline fill="none" stroke="#000000" stroke-width="0.4" points="23.447821353074044,0.666 22.032,0.666" opacity="0.8" /><polyline fill="none" stroke="#000000" stroke-width="0.4" points="21.84394704268262,1.574 23.083172646381527,1.574" opacity="0.8" /><polyline fill="none" stroke="#000000" stroke-width="0.4" points="23.083172646381527,1.574 23.315,1.574" opacity="0.8" /><polyline fill="none" stroke="#000000" stroke-width="0.4" points="23.315,1.574 23.74894704268262,1.574 24.305,2.1300529573173823" opacity="0.8" /><polyline fill="none" stroke="#000000" stroke-width="0.4" points="24.305,2.1300529573173823 24.585,2.410052957317382" opacity="0.8" /><polyline fill="none" stroke="#000000" stroke-width="0.4" points="24.585,2.410052957317382 24.874947042682617,2.7" opacity="0.8" /><polyline fill="none" stroke="#000000" stroke-width="0.4" points="24.874947042682617,2.7 25.77794704268262,3.603" opacity="0.8" /><polyline fill="none" stroke="#000000" stroke-width="0.4" points="25.77794704268262,3.603 26.679973521341292,4.505026478658691 26.686247707013816,4.511" opacity="0.8" /><polyline fill="none" stroke="#000000" stroke-width="0.4" points="26.686247707013816,4.511 26.687083086609245,4.511795347492397 26.705552314853072,4.528534880225152 26.72072424492395,4.540986161450267 26.74074529991454,4.55583478782098 26.757064611974357,4.5667390035248845 26.778444680007517,4.5795537231445165 26.795754210160077,4.588805859769151 26.818287389493136,4.59946325988254 26.836420437500834,4.606974214294478 26.859889721298934,4.615371658312589 26.878671655996712,4.621069095914885 26.902851022227257,4.627125711861328 26.922100963316858,4.630954763215378 26.946757551465243,4.634612222567692 26.966290111490817,4.636536011815771 26.991186465134533,4.637759091241032 27.001,4.638 28.516,4.638 28.516,4.684 28.516963054665567,4.703603428065911 28.51984294391936,4.723018064403221 28.52461193285355,4.742056935450897 28.53122409349775,4.760536686473012 28.539615747130334,4.7782793473652 28.549706077539504,4.795114046603918 28.561397909327447,4.810878656832725 28.574578643762678,4.825421356237308 28.589121343167275,4.838602090672553 28.60488595339608,4.850293922460511 28.6217206526348,4.8603842528696655 28.63946331352699,4.868775906502262 28.65794306454912,4.875388067146435 28.676981935596764,4.880157056080639 28.696396571934073,4.883036945334434 28.716,4.884 34.216,4.884 34.23560342806593,4.883036945334434 34.25501806440324,4.880157056080639 34.27405693545088,4.875388067146435 34.292536686473014,4.868775906502262 34.3102793473652,4.8603842528696655 34.32711404660392,4.850293922460511 34.342878656832724,4.838602090672553 34.357421356237325,4.825421356237308 34.370602090672556,4.810878656832725 34.3822939224605,4.795114046603918 34.39238425286967,4.7782793473652 34.40077590650225,4.760536686473012 34.402041353156804,4.757" opacity="0.8" /><polyline fill="none" stroke="#000000" stroke-width="0.4" points="34.402041353156804,4.757 34.40738806714645,4.742056935450897 34.41215705608064,4.723018064403221 34.415036945334435,4.703603428065911 34.416,4.684 34.416,3.684 34.415036945334435,3.664396571934089 34.41215705608064,3.644981935596779 34.40738806714645,3.6259430645491033 34.40077590650225,3.607463313526988 34.39238425286967,3.5897206526347993 34.3822939224605,3.572885953396082 34.370602090672556,3.557121343167275 34.357421356237325,3.5425786437626927 34.342878656832724,3.5293979093274475 34.32711404660392,3.5177060775394886 34.3102793473652,3.5076157471303344 34.292536686473014,3.4992240934977383 34.27405693545088,3.4926119328535647 34.25501806440324,3.4878429439193606 34.23560342806593,3.4849630546655654 34.216,3.484 31.323958646843195,3.484" opacity="0.8" /><polyline fill="none" stroke="#000000" stroke-width="0.4" points="31.323958646843195,3.484 28.716,3.484 28.696396571934073,3.4849630546655654 28.676981935596764,3.4878429439193606 28.65794306454912,3.4926119328535647 28.63946331352699,3.4992240934977383 28.6217206526348,3.5076157471303344 28.60488595339608,3.5177060775394886 28.589121343167275,3.5293979093274475 28.574578643762678,3.5425786437626927 28.561397909327447,3.557121343167275 28.549706077539504,3.572885953396082 28.539615747130334,3.5897206526347993 28.53333508357978,3.603" opacity="0.8" /><polyline fill="none" stroke="#000000" stroke-width="0.4" points="28.53333508357978,3.603 28.53122409349775,3.607463313526988 28.52461193285355,3.6259430645491033 28.51984294391936,3.644981935596779 28.516963054665567,3.664396571934089 28.516,3.684 28.516,3.73 27.189052957317383,3.73 27.06205295731738,3.603" opacity="0.8" /><polyline fill="none" stroke="#000000" stroke-width="0.4" points="27.06205295731738,3.603 26.159052957317382,2.7" opacity="0.8" /><polyline fill="none" stroke="#000000" stroke-width="0.4" points="26.159052957317382,2.7 25.855,2.395947042682618" opacity="0.8" /><polyline fill="none" stroke="#000000" stroke-width="0.4" points="25.855,2.395947042682618 25.575,2.1159470426826177" opacity="0.8" /><polyline fill="none" stroke="#000000" stroke-width="0.4" points="25.575,2.1159470426826177 24.585,1.125947042682618" opacity="0.8" /><polyline fill="none" stroke="#000000" stroke-width="0.4" points="24.585,1.125947042682618 24.301112895367503,0.842059938050121" opacity="0.8" /><polyline fill="none" stroke="#000000" stroke-width="0.4" points="24.301112895367503,0.842059938050121 24.258026478658692,0.798973521341309 24.250916913390814,0.7922046525076478 24.232447685147,0.775465119774893" opacity="0.8" /><polyline fill="none" stroke="#000000" stroke-width="0.4" points="6.275,16.541 6.275,17.449" opacity="0.8" /><polyline fill="none" stroke="#000000" stroke-width="0.4" points="6.4641314015937,6.235382164548933 6.3752814015937,6.389273164548934 6.3657769406133,6.40792659919317 6.3582744474740025,6.427471368295133 6.303363447474003,6.596472368295133 6.297945448828101,6.61669280779849 6.294670674048781,6.6373688019264785 6.276095674048781,6.814093801926479 6.275,6.835 6.276095674048781,6.855906198073521 6.294670674048781,7.032631198073521 6.297945448828101,7.05330719220151 6.303363447474003,7.0735276317048665 6.3582744474740025,7.242528631704867 6.3657769406133,7.2620734008068295 6.3752814015937,7.280726835451066 6.4641314015937,7.434617835451067" opacity="0.8" /><polyline fill="none" stroke="#000000" stroke-width="0.4" points="32.19639657193407,0.7849630546655655 32.176981935596764,0.7878429439193606 32.157943064549116,0.7926119328535646 32.13946331352699,0.7992240934977383 32.1217206526348,0.8076157471303343 32.104885953396085,0.8177060775394887 32.08912134316728,0.8293979093274474 32.07457864376268,0.8425786437626928 32.06139790932745,0.8571213431672752 32.049706077539504,0.8728859533960819 32.039615747130334,0.8897206526347995 32.031224093497755,0.9074633135269881 32.02461193285355,0.9259430645491034 32.01984294391936,0.944981935596779 32.01696305466557,0.9643965719340891 32.016,0.984 32.016,2.584 32.01696305466557,2.603603428065911 32.01984294391936,2.623018064403221 32.02461193285355,2.6420569354508965 32.031224093497755,2.660536686473012 32.039615747130334,2.6782793473652005 32.049706077539504,2.6951140466039183 32.06139790932745,2.7108786568327248 32.07457864376268,2.725421356237307 32.08912134316728,2.738602090672553 32.104885953396085,2.750293922460511 32.1217206526348,2.760384252869666 32.13946331352699,2.768775906502262 32.157943064549116,2.7753880671464355 32.176981935596764,2.7801570560806392 32.19639657193407,2.7830369453344344 32.216,2.784 35.216,2.784 35.23560342806593,2.7830369453344344 35.25501806440324,2.7801570560806392 35.27405693545088,2.7753880671464355 35.292536686473014,2.768775906502262 35.3102793473652,2.760384252869666 35.32711404660392,2.750293922460511 35.342878656832724,2.738602090672553 35.357421356237325,2.725421356237307 35.370602090672556,2.7108786568327248 35.3822939224605,2.6951140466039183 35.39238425286967,2.6782793473652005 35.40077590650225,2.660536686473012 35.402041353156804,2.657" opacity="0.8" /><polyline fill="none" stroke="#000000" stroke-width="0.4" points="35.402041353156804,2.657 35.40738806714645,2.6420569354508965 35.41215705608064,2.623018064403221 35.415036945334435,2.603603428065911 35.416,2.584 35.416,0.984 35.415036945334435,0.9643965719340891 35.41215705608064,0.944981935596779 35.40738806714645,0.9259430645491034 35.40077590650225,0.9074633135269881 35.39238425286967,0.8897206526347995 35.3822939224605,0.8728859533960819 35.370602090672556,0.8571213431672752 35.357421356237325,0.8425786437626928 35.342878656832724,0.8293979093274474 35.32711404660392,0.8177060775394887 35.3102793473652,0.8076157471303343 35.292536686473014,0.7992240934977383 35.27405693545088,0.7926119328535646 35.25501806440324,0.7878429439193606 35.23560342806593,0.7849630546655655 35.216,0.784 34.823958646843195,0.784" opacity="0.8" /><polyline fill="none" stroke="#000000" stroke-width="0.4" points="34.823958646843195,0.784 32.216,0.784 32.19639657193407,0.7849630546655655" opacity="0.8" /><polyline fill="none" stroke="#000000" stroke-width="0.4" points="32.19639657193407,7.5849630546655655 32.176981935596764,7.587842943919361 32.157943064549116,7.592611932853565 32.13946331352699,7.599224093497738 32.1217206526348,7.6076157471303345 32.104885953396085,7.617706077539489 32.08912134316728,7.629397909327447 32.07457864376268,7.642578643762693 32.06139790932745,7.657121343167275 32.049706077539504,7.672885953396082 32.039615747130334,7.6897206526348 32.031224093497755,7.707463313526988 32.02461193285355,7.725943064549103 32.01984294391936,7.744981935596779 32.01696305466557,7.764396571934089 32.016,7.784 32.016,9.384 32.01696305466557,9.40360342806591 32.01984294391936,9.423018064403221 32.02461193285355,9.442056935450896 32.031224093497755,9.460536686473011 32.039615747130334,9.4782793473652 32.049706077539504,9.495114046603918 32.06139790932745,9.510878656832725 32.07457864376268,9.525421356237308 32.08912134316728,9.538602090672553 32.104885953396085,9.550293922460511 32.1217206526348,9.560384252869666 32.13946331352699,9.568775906502262 32.157943064549116,9.575388067146436 32.176981935596764,9.580157056080639 32.19639657193407,9.583036945334435 32.216,9.584 35.216,9.584 35.23560342806593,9.583036945334435 35.25501806440324,9.580157056080639 35.27405693545088,9.575388067146436 35.292536686473014,9.568775906502262 35.3102793473652,9.560384252869666 35.32711404660392,9.550293922460511 35.342878656832724,9.538602090672553 35.357421356237325,9.525421356237308 35.370602090672556,9.510878656832725 35.3822939224605,9.495114046603918 35.39238425286967,9.4782793473652 35.40077590650225,9.460536686473011 35.402041353156804,9.457" opacity="0.8" /><polyline fill="none" stroke="#000000" stroke-width="0.4" points="35.402041353156804,9.457 35.40738806714645,9.442056935450896 35.41215705608064,9.423018064403221 35.415036945334435,9.40360342806591 35.416,9.384 35.416,7.784 35.415036945334435,7.764396571934089 35.41215705608064,7.744981935596779 35.40738806714645,7.725943064549103 35.40077590650225,7.707463313526988 35.39238425286967,7.6897206526348 35.3822939224605,7.672885953396082 35.370602090672556,7.657121343167275 35.357421356237325,7.642578643762693 35.342878656832724,7.629397909327447 35.32711404660392,7.617706077539489 35.3102793473652,7.6076157471303345 35.292536686473014,7.599224093497738 35.27405693545088,7.592611932853565 35.25501806440324,7.587842943919361 35.23560342806593,7.5849630546655655 35.216,7.584 34.823958646843195,7.584" opacity="0.8" /><polyline fill="none" stroke="#000000" stroke-width="0.4" points="34.823958646843195,7.584 32.216,7.584 32.19639657193407,7.5849630546655655" opacity="0.8" /><polyline fill="none" stroke="#000000" stroke-width="0.4" points="32.19639657193407,10.055963054665565 32.176981935596764,10.05884294391936 32.157943064549116,10.063611932853565 32.13946331352699,10.070224093497739 32.1217206526348,10.078615747130334 32.104885953396085,10.088706077539488 32.08912134316728,10.100397909327448 32.07457864376268,10.113578643762693 32.06139790932745,10.128121343167274 32.049706077539504,10.143885953396081 32.039615747130334,10.160720652634799 32.031224093497755,10.178463313526988 32.02461193285355,10.196943064549103 32.01984294391936,10.21598193559678 32.01696305466557,10.23539657193409 32.016,10.255 32.016,11.855 32.01696305466557,11.87460342806591 32.01984294391936,11.894018064403221 32.02461193285355,11.913056935450896 32.031224093497755,11.931536686473011 32.039615747130334,11.9492793473652 32.049706077539504,11.966114046603918 32.06139790932745,11.981878656832725 32.07457864376268,11.996421356237308 32.08912134316728,12.009602090672553 32.104885953396085,12.021293922460512 32.1217206526348,12.031384252869666 32.13946331352699,12.039775906502262 32.157943064549116,12.046388067146435 32.176981935596764,12.051157056080639 32.19639657193407,12.054036945334435 32.216,12.055 35.216,12.055 35.23560342806593,12.054036945334435 35.25501806440324,12.051157056080639 35.27405693545088,12.046388067146435 35.292536686473014,12.039775906502262 35.3102793473652,12.031384252869666 35.32711404660392,12.021293922460512 35.342878656832724,12.009602090672553 35.357421356237325,11.996421356237308 35.370602090672556,11.981878656832725 35.3822939224605,11.966114046603918 35.39238425286967,11.9492793473652 35.40077590650225,11.931536686473011 35.402041353156804,11.928" opacity="0.8" /><polyline fill="none" stroke="#000000" stroke-width="0.4" points="35.402041353156804,11.928 35.40738806714645,11.913056935450896 35.41215705608064,11.894018064403221 35.415036945334435,11.87460342806591 35.416,11.855 35.416,10.255 35.415036945334435,10.23539657193409 35.41215705608064,10.21598193559678 35.40738806714645,10.196943064549103 35.40077590650225,10.178463313526988 35.39238425286967,10.160720652634799 35.3822939224605,10.143885953396081 35.370602090672556,10.128121343167274 35.357421356237325,10.113578643762693 35.342878656832724,10.100397909327448 35.32711404660392,10.088706077539488 35.3102793473652,10.078615747130334 35.292536686473014,10.070224093497739 35.27405693545088,10.063611932853565 35.25501806440324,10.05884294391936 35.23560342806593,10.055963054665565 35.216,10.055 34.823958646843195,10.055" opacity="0.8" /><polyline fill="none" stroke="#000000" stroke-width="0.4" points="34.823958646843195,10.055 32.216,10.055 32.19639657193407,10.055963054665565" opacity="0.8" /><polyline fill="none" stroke="#000000" stroke-width="0.4" points="32.19639657193407,16.855963054665565 32.176981935596764,16.85884294391936 32.157943064549116,16.863611932853566 32.13946331352699,16.87022409349774 32.1217206526348,16.878615747130333 32.104885953396085,16.88870607753949 32.08912134316728,16.90039790932745 32.07457864376268,16.913578643762694 32.06139790932745,16.928121343167277 32.049706077539504,16.94388595339608 32.039615747130334,16.960720652634798 32.031224093497755,16.978463313526987 32.02461193285355,16.996943064549104 32.01984294391936,17.01598193559678 32.01696305466557,17.03539657193409 32.016,17.055 32.016,18.655 32.01696305466557,18.67460342806591 32.01984294391936,18.69401806440322 32.02461193285355,18.713056935450897 32.031224093497755,18.731536686473014 32.039615747130334,18.7492793473652 32.049706077539504,18.766114046603917 32.06139790932745,18.781878656832724 32.06332058270162,18.784" opacity="0.8" /><polyline fill="none" stroke="#000000" stroke-width="0.4" points="32.06332058270162,18.784 32.07457864376268,18.796421356237307 32.08912134316728,18.809602090672552 32.104885953396085,18.821293922460512 32.1217206526348,18.831384252869665 32.13946331352699,18.83977590650226 32.157943064549116,18.846388067146435 32.176981935596764,18.851157056080638 32.19639657193407,18.854036945334435 32.216,18.855 35.216,18.855 35.23560342806593,18.854036945334435 35.25501806440324,18.851157056080638 35.27405693545088,18.846388067146435 35.292536686473014,18.83977590650226 35.3102793473652,18.831384252869665 35.32711404660392,18.821293922460512 35.342878656832724,18.809602090672552 35.357421356237325,18.796421356237307 35.368679417298374,18.784" opacity="0.8" /><polyline fill="none" stroke="#000000" stroke-width="0.4" points="35.368679417298374,18.784 35.370602090672556,18.781878656832724 35.3822939224605,18.766114046603917 35.39238425286967,18.7492793473652 35.40077590650225,18.731536686473014 35.402041353156804,18.728" opacity="0.8" /><polyline fill="none" stroke="#000000" stroke-width="0.4" points="35.402041353156804,18.728 35.40738806714645,18.713056935450897 35.41215705608064,18.69401806440322 35.415036945334435,18.67460342806591 35.416,18.655 35.416,17.055 35.415036945334435,17.03539657193409 35.41215705608064,17.01598193559678 35.40738806714645,16.996943064549104 35.40077590650225,16.978463313526987 35.39238425286967,16.960720652634798 35.3822939224605,16.94388595339608 35.370602090672556,16.928121343167277 35.357421356237325,16.913578643762694 35.342878656832724,16.90039790932745 35.32711404660392,16.88870607753949 35.3102793473652,16.878615747130333 35.292536686473014,16.87022409349774 35.27405693545088,16.863611932853566 35.25501806440324,16.85884294391936 35.23560342806593,16.855963054665565 35.216,16.855 34.823958646843195,16.855" opacity="0.8" /><polyline fill="none" stroke="#000000" stroke-width="0.4" points="34.823958646843195,16.855 32.216,16.855 32.19639657193407,16.855963054665565" opacity="0.8" /><polyline fill="none" stroke="#000000" stroke-width="0.4" points="19.7394,6.8382 19.1806,6.8382 19.16099657193409,6.8391630546655655 19.14158193559678,6.842042943919361 19.122543064549102,6.846811932853565 19.10406331352699,6.853424093497738 19.0863206526348,6.8618157471303345 19.069485953396082,6.871906077539489 19.053721343167275,6.883597909327447 19.039178643762693,6.896778643762693 19.025997909327447,6.911321343167275 19.014306077539487,6.927085953396082 19.006,6.940943806564495" opacity="0.8" /><polyline fill="none" stroke="#000000" stroke-width="0.4" points="19.914,6.940943806564495 19.90569392246051,6.927085953396082 19.894002090672554,6.911321343167275 19.880821356237306,6.896778643762693 19.866278656832726,6.883597909327447 19.85051404660392,6.871906077539489 19.8336793473652,6.8618157471303345 19.815936686473012,6.853424093497738 19.797456935450896,6.846811932853565 19.778418064403223,6.842042943919361 19.75900342806591,6.8391630546655655 19.7394,6.8382" opacity="0.8" /><polyline fill="none" stroke="#000000" stroke-width="0.4" points="34.216,12.755 31.323958646843195,12.755" opacity="0.8" /><polyline fill="none" stroke="#000000" stroke-width="0.4" points="31.323958646843195,12.755 29.979,12.755" opacity="0.8" /><polyline fill="none" stroke="#000000" stroke-width="0.4" points="29.979,12.755 29.071,12.755" opacity="0.8" /><polyline fill="none" stroke="#000000" stroke-width="0.4" points="29.071,12.755 28.716,12.755 28.696396571934073,12.755963054665566 28.676981935596764,12.75884294391936 28.65794306454912,12.763611932853564 28.63946331352699,12.770224093497738 28.6217206526348,12.778615747130335 28.60488595339608,12.788706077539489 28.589121343167275,12.800397909327447 28.574578643762678,12.813578643762693 28.561397909327447,12.828121343167275 28.549706077539504,12.843885953396082 28.539615747130334,12.8607206526348 28.53122409349775,12.878463313526987 28.52461193285355,12.896943064549104 28.51984294391936,12.915981935596779 28.516963054665567,12.935396571934088 28.516,12.955 28.516,13.955 28.516963054665567,13.974603428065912 28.51984294391936,13.994018064403221 28.52461193285355,14.013056935450896 28.53122409349775,14.031536686473013 28.539615747130334,14.0492793473652 28.549706077539504,14.066114046603918 28.561397909327447,14.081878656832725 28.574578643762678,14.096421356237308 28.589121343167275,14.109602090672553 28.60488595339608,14.121293922460511 28.6217206526348,14.131384252869665 28.63946331352699,14.139775906502262 28.65794306454912,14.146388067146436 28.676981935596764,14.15115705608064 28.696396571934073,14.154036945334434 28.716,14.155 29.471947042682586,14.155" opacity="0.8" /><polyline fill="none" stroke="#000000" stroke-width="0.4" points="29.471947042682586,14.155 30.756052957317383,14.155" opacity="0.8" /><polyline fill="none" stroke="#000000" stroke-width="0.4" points="30.756052957317383,14.155 34.216,14.155 34.23560342806593,14.154036945334434 34.25501806440324,14.15115705608064 34.27405693545088,14.146388067146436 34.292536686473014,14.139775906502262 34.3102793473652,14.131384252869665 34.32711404660392,14.121293922460511 34.342878656832724,14.109602090672553 34.357421356237325,14.096421356237308 34.370602090672556,14.081878656832725 34.3822939224605,14.066114046603918 34.39238425286967,14.0492793473652 34.40077590650225,14.031536686473013 34.402041353156804,14.028" opacity="0.8" /><polyline fill="none" stroke="#000000" stroke-width="0.4" points="34.402041353156804,14.028 34.40738806714645,14.013056935450896 34.41215705608064,13.994018064403221 34.415036945334435,13.974603428065912 34.416,13.955 34.416,12.955 34.415036945334435,12.935396571934088 34.41215705608064,12.915981935596779 34.40738806714645,12.896943064549104 34.40077590650225,12.878463313526987 34.39238425286967,12.8607206526348 34.3822939224605,12.843885953396082 34.370602090672556,12.828121343167275 34.357421356237325,12.813578643762693 34.342878656832724,12.800397909327447 34.32711404660392,12.788706077539489 34.3102793473652,12.778615747130335 34.292536686473014,12.770224093497738 34.27405693545088,12.763611932853564 34.25501806440324,12.75884294391936 34.23560342806593,12.755963054665566 34.216,12.755" opacity="0.8" /><polyline fill="none" stroke="#000000" stroke-width="0.4" points="34.216,5.484 31.323958646843195,5.484" opacity="0.8" /><polyline fill="none" stroke="#000000" stroke-width="0.4" points="31.323958646843195,5.484 28.716,5.484 28.696396571934073,5.484963054665566 28.676981935596764,5.487842943919361 28.65794306454912,5.492611932853564 28.63946331352699,5.499224093497738 28.6217206526348,5.507615747130334 28.60488595339608,5.517706077539489 28.589121343167275,5.5293979093274475 28.574578643762678,5.542578643762693 28.561397909327447,5.5571213431672755 28.549706077539504,5.5728859533960815 28.539615747130334,5.589720652634799 28.53122409349775,5.6074633135269885 28.52461193285355,5.625943064549103 28.51984294391936,5.644981935596779 28.516963054665567,5.664396571934089 28.516,5.684 28.516,6.684 28.516963054665567,6.703603428065911 28.51984294391936,6.723018064403221 28.52461193285355,6.742056935450897 28.53122409349775,6.760536686473012 28.539615747130334,6.7782793473652 28.549706077539504,6.795114046603918 28.561397909327447,6.810878656832725 28.574578643762678,6.825421356237308 28.589121343167275,6.838602090672553 28.60488595339608,6.850293922460511 28.6217206526348,6.8603842528696655 28.63946331352699,6.868775906502262 28.65794306454912,6.875388067146435 28.676981935596764,6.880157056080639 28.696396571934073,6.883036945334434 28.716,6.884 34.216,6.884 34.23560342806593,6.883036945334434 34.25501806440324,6.880157056080639 34.27405693545088,6.875388067146435 34.292536686473014,6.868775906502262 34.3102793473652,6.8603842528696655 34.32711404660392,6.850293922460511 34.342878656832724,6.838602090672553 34.357421356237325,6.825421356237308 34.370602090672556,6.810878656832725 34.3822939224605,6.795114046603918 34.39238425286967,6.7782793473652 34.40077590650225,6.760536686473012 34.402041353156804,6.757" opacity="0.8" /><polyline fill="none" stroke="#000000" stroke-width="0.4" points="34.402041353156804,6.757 34.40738806714645,6.742056935450897 34.41215705608064,6.723018064403221 34.415036945334435,6.703603428065911 34.416,6.684 34.416,5.684 34.415036945334435,5.664396571934089 34.41215705608064,5.644981935596779 34.40738806714645,5.625943064549103 34.40077590650225,5.6074633135269885 34.39238425286967,5.589720652634799 34.3822939224605,5.5728859533960815 34.370602090672556,5.5571213431672755 34.357421356237325,5.542578643762693 34.342878656832724,5.5293979093274475 34.32711404660392,5.517706077539489 34.3102793473652,5.507615747130334 34.292536686473014,5.499224093497738 34.27405693545088,5.492611932853564 34.25501806440324,5.487842943919361 34.23560342806593,5.484963054665566 34.216,5.484" opacity="0.8" /></g>
                    <rect width="40.0" height="20.0" stroke-width="0.1" fill="none" stroke="black"/> 
                    </svg>