<svg xmlns="http://www.w3.org/2000/svg" viewBox="0 0 45.047298 41.998238" width="45.047298mm" height="41.998238mm">
                    <g stroke-linecap="round">
                        <g><path fill-rule="evenodd" fill="#66cc99" stroke="#555555" stroke-width="0.0" opacity="0.6" d="M 11.706048,26.97860209471911 L 11.679252598000005,27.025012575 L 11.663121196999997,27.052952671000003 L 11.706048,26.97860209541786 L 11.706048,26.97860209471911 z" /><path fill-rule="evenodd" fill="#66cc99" stroke="#555555" stroke-width="0.0" opacity="0.6" d="M 11.706048,25.72806590458214 L 11.663121196999997,25.653715328999997 L 11.679252598000005,25.681655424999995 L 11.706048,25.72806590528089 L 11.706048,25.72806590458214 z" /><path fill-rule="evenodd" fill="#66cc99" stroke="#555555" stroke-width="0.0" opacity="0.6" d="M 11.706048,24.438602094719112 L 11.679252598000005,24.485012575000002 L 11.663121196999997,24.512952671000004 L 11.706048,24.438602095417856 L 11.706048,24.438602094719112 z" /><path fill-rule="evenodd" fill="#66cc99" stroke="#555555" stroke-width="0.0" opacity="0.6" d="M 15.214198963231162,22.21343116999966 L 15.217796464000001,22.213254436000003 L 15.214198963435456,22.21343116975072 L 15.214198963231162,22.21343116999966 z" /><path fill-rule="evenodd" fill="#66cc99" stroke="#555555" stroke-width="0.0" opacity="0.6" d="M 14.883265042575061,26.437655372575076 L 14.969644856999993,26.524035187000006 L 15.239967025000006,26.793334 L 15.240119280000002,26.793334 L 14.88379225252965,26.437550504004108 L 14.883265042575061,26.437655372575076 z" /><path fill-rule="evenodd" fill="#66cc99" stroke="#555555" stroke-width="0.0" opacity="0.6" d="M 14.526033714327633,26.646109469733133 L 14.808876426628292,26.92895218237172 L 14.808876588956803,26.92895202004321 L 14.687204590000004,26.807279836999996 L 14.687076816,26.807139395999997 L 14.68693614,26.807011894999995 L 14.526033714530378,26.646109469530373 L 14.526033714327633,26.646109469733133 z" /><path fill-rule="evenodd" fill="#66cc99" stroke="#555555" stroke-width="0.0" opacity="0.6" d="M 13.88398075735347,27.288162427353456 L 14.166823469500006,27.571005139500006 L 14.166823469999999,27.571005139000015 L 14.025402113999993,27.42958378300001 L 13.883980757738263,27.288162426968665 L 13.88398075735347,27.288162427353456 z" /><path fill-rule="evenodd" fill="#66cc99" stroke="#555555" stroke-width="0.0" opacity="0.6" d="M 14.652448,31.01414424438335 L 14.252448,31.41414424479647 L 14.252448,31.41414424499999 L 14.311026643999993,31.355565600999995 L 14.652448,31.014144244520875 L 14.652448,31.01414424438335 z" /><path fill-rule="evenodd" fill="#66cc99" stroke="#555555" stroke-width="0.0" opacity="0.6" d="M 14.803219572806194,28.207401242677822 L 14.661798216999992,28.065979886000008 L 14.520376860999987,27.924558530000002 L 14.520376860499994,27.924558530499993 L 14.803219572742,28.207401242742 L 14.803219572806194,28.207401242677822 z" /><path fill-rule="evenodd" fill="#66cc99" stroke="#555555" stroke-width="0.0" opacity="0.6" d="M 9.88617888434127,29.297334 L 9.938765485,29.388415650000006 L 9.941606033000006,29.392789682999997 L 9.938765486000001,29.388415650999992 L 9.886178884498104,29.297334 L 9.88617888434127,29.297334 z" /><path fill-rule="evenodd" fill="#66cc99" stroke="#555555" stroke-width="0.0" opacity="0.6" d="M 13.97825824487999,20.823334 L 14.319679600999995,20.481912643999994 L 14.37825824499999,20.423334 L 14.378258244781032,20.423334 L 13.97825824467343,20.823334 L 13.97825824487999,20.823334 z" /><path fill-rule="evenodd" fill="#66cc99" stroke="#555555" stroke-width="0.0" opacity="0.6" d="M 12.722048,20.79543833 L 12.322048,21.195438329999998 L 12.322048,21.19543833084996 L 12.380421134000004,21.137065197 L 12.722048,20.795438330862538 L 12.722048,20.79543833 z" /><path fill-rule="evenodd" fill="#66cc99" stroke="#555555" stroke-width="0.0" opacity="0.6" d="M 15.118296204597577,19.68329604040241 L 15.192265651999994,19.609326592999995 L 15.11829620459664,19.683296040383457 L 15.118296204597577,19.68329604040241 z" /><path fill-rule="evenodd" fill="#66cc99" stroke="#555555" stroke-width="0.0" opacity="0.6" d="M 42.91518683300001,33.165654548999996 L 42.90833272600001,33.177089937000005 L 42.921147444999995,33.155709869000006 L 42.91518683300001,33.165654548999996 z" /><path fill-rule="evenodd" fill="#66cc99" stroke="#555555" stroke-width="0.0" opacity="0.6" d="M 37.915173192000005,15.267520465000004 L 37.915251963,15.265917037000001 L 37.91428890900001,15.285520465000003 L 37.915173192000005,15.267520465000004 z" /><path fill-rule="evenodd" fill="#66cc99" stroke="#555555" stroke-width="0.0" opacity="0.6" d="M 10.022250237000003,19.825448269999995 L 10.013250319000006,19.820862605000006 L 10.031903512999996,19.830366836999996 L 10.022250237000003,19.825448269999995 z" /><path fill-rule="evenodd" fill="#66cc99" stroke="#555555" stroke-width="0.0" opacity="0.6" d="M 10.022250237000003,20.181219730000006 L 10.031903512999996,20.176301163 L 10.013250319000006,20.185805394999996 L 10.022250237000003,20.181219730000006 z" /><path fill-rule="evenodd" fill="#66cc99" stroke="#555555" stroke-width="0.0" opacity="0.6" d="M 11.679252598000005,28.221655424999998 L 11.689459442000002,28.239334 L 11.663121196999997,28.193715328999996 L 11.679252598000005,28.221655424999998 z" /><path fill-rule="evenodd" fill="#66cc99" stroke="#555555" stroke-width="0.0" opacity="0.6" d="M 10.022250237000003,27.801219730000003 L 10.031903512999996,27.796301163000003 L 10.013250319000006,27.805805394999997 L 10.022250237000003,27.801219730000003 z" /><path fill-rule="evenodd" fill="#66cc99" stroke="#555555" stroke-width="0.0" opacity="0.6" d="M 11.679252598000005,29.565012575000004 L 11.663121196999997,29.592952671000003 L 11.689459442000002,29.547334 L 11.679252598000005,29.565012575000004 z" /><path fill-rule="evenodd" fill="#66cc99" stroke="#555555" stroke-width="0.0" opacity="0.6" d="M 11.506457326000005,30.184439334999993 L 11.508464963,30.184537963 L 11.488861534999996,30.183574908999994 L 11.506457326000005,30.184439334999993 z" /><path fill-rule="evenodd" fill="#66cc99" stroke="#555555" stroke-width="0.0" opacity="0.6" d="M 31.61070880399999,15.238313666999996 L 31.61136121000001,15.241593334000006 L 31.60821721000001,15.225788334000006 L 31.61070880399999,15.238313666999996 z" /><path fill-rule="evenodd" fill="#66cc99" stroke="#555555" stroke-width="0.0" opacity="0.6" d="M 10.204185237000003,20.537449713 L 10.199810921000005,20.540290433 L 10.204185238765985,20.537449712100194 L 10.204185237000003,20.537449713 z" /><path fill-rule="evenodd" fill="#66cc99" stroke="#555555" stroke-width="0.0" opacity="0.6" d="M 10.204185237000003,19.469218287 L 10.204185238765985,19.469218287899807 L 10.199810921000005,19.466377567000002 L 10.204185237000003,19.469218287 z" /><path fill-rule="evenodd" fill="#66cc99" stroke="#555555" stroke-width="0.0" opacity="0.6" d="M 11.332843401999995,24.285010904 L 11.402943275000005,24.163595714000003 L 11.319330513999999,24.308415650999994 L 11.332843401999995,24.285010904 z" /><path fill-rule="evenodd" fill="#66cc99" stroke="#555555" stroke-width="0.0" opacity="0.6" d="M 10.473630856000007,24.644528319999992 L 10.535076199,24.657589100999996 L 10.371506591000006,24.622820854 L 10.473630856000007,24.644528319999992 z" /><path fill-rule="evenodd" fill="#66cc99" stroke="#555555" stroke-width="0.0" opacity="0.6" d="M 15.170838494000003,21.815320134000004 L 15.175724577000008,21.814838897 L 15.165934682999998,21.815561043 L 15.170838494000003,21.815320134000004 z" /><path fill-rule="evenodd" fill="#66cc99" stroke="#555555" stroke-width="0.0" opacity="0.6" d="M 31.218090048000008,15.314818341000006 L 31.216861750999986,15.308643647 L 31.218090048000008,15.314818341999993 L 31.218090048000008,15.314818341000006 z" /><path fill-rule="evenodd" fill="#66cc99" stroke="#555555" stroke-width="0.0" opacity="0.6" d="M 31.20968016499999,20.544513409999997 L 31.206779703999995,20.540602297000007 L 31.202868590000005,20.537701834999993 L 31.20677970300001,20.540602297000007 L 31.20968016499999,20.544513409999997 z" /><path fill-rule="evenodd" fill="#66cc99" stroke="#555555" stroke-width="0.0" opacity="0.6" d="M 17.267106380999998,19.868065448 L 17.267106375785755,19.868065444515942 L 17.279240367,19.877064625 L 17.267106380999998,19.868065448 z" /><path fill-rule="evenodd" fill="#66cc99" stroke="#555555" stroke-width="0.0" opacity="0.6" d="M 11.332843401999995,29.365010904 L 11.400785432999998,29.247333165000008 L 11.319330513999999,29.388415650999992 L 11.332843401999995,29.365010904 z" /><path fill-rule="evenodd" fill="#66cc99" stroke="#555555" stroke-width="0.0" opacity="0.6" d="M 10.204185237000003,28.157449713 L 10.199810921000005,28.160290432999997 L 10.204185238765985,28.157449712100192 L 10.204185237000003,28.157449713 z" /><path fill-rule="evenodd" fill="#66cc99" stroke="#555555" stroke-width="0.0" opacity="0.6" d="M 11.332843401999995,28.421657096 L 11.319330513999999,28.398252349000007 L 11.400785432999998,28.539334834999995 L 11.332843401999995,28.421657096 z" /><path fill-rule="evenodd" fill="#66cc99" stroke="#555555" stroke-width="0.0" opacity="0.6" d="M 12.351991486000001,23.148581062000005 L 12.351030170000001,23.158341465000003 L 12.350168436000004,23.175882464 L 12.351030171000003,23.158341457000002 L 12.351991486000001,23.148581062000005 z" /><path fill-rule="evenodd" fill="#66cc99" stroke="#555555" stroke-width="0.0" opacity="0.6" d="M 6.178464615999997,24.33213006 L 6.178464611078143,24.332130060579047 L 6.178464745000005,24.332130054000004 L 6.178464615999997,24.33213006 z" /><path fill-rule="evenodd" fill="#66cc99" stroke="#555555" stroke-width="0.0" opacity="0.6" d="M 6.187303253000006,24.331259540000005 L 6.178464745000005,24.332130054000004 L 6.197997160999998,24.330206294 L 6.187303253000006,24.331259540000005 z" /><path fill-rule="evenodd" fill="#66cc99" stroke="#555555" stroke-width="0.0" opacity="0.6" d="M 6.197997305999994,24.330206272 L 6.197997160999998,24.330206294 L 6.217411657000005,24.327326446999997 L 6.197997305999994,24.330206272 z" /><path fill-rule="evenodd" fill="#66cc99" stroke="#555555" stroke-width="0.0" opacity="0.6" d="M 10.022250237000003,27.445448269999996 L 10.013250319000006,27.440862605000003 L 10.031903512999996,27.450366836999997 L 10.022250237000003,27.445448269999996 z" /><path fill-rule="evenodd" fill="#66cc99" stroke="#555555" stroke-width="0.0" opacity="0.6" d="M 7.471531731999994,22.712905348000003 L 7.492304809,22.722730282000004 L 7.469771628999993,22.712072880999997 L 7.471531731999994,22.712905348000003 z" /><path fill-rule="evenodd" fill="#66cc99" stroke="#555555" stroke-width="0.0" opacity="0.6" d="M 11.332843401999995,26.825010904 L 11.402943275000005,26.703595714000002 L 11.319330513999999,26.848415650999993 L 11.332843401999995,26.825010904 z" /><path fill-rule="evenodd" fill="#66cc99" stroke="#555555" stroke-width="0.0" opacity="0.6" d="M 10.204185237000003,27.089218287 L 10.204185238765985,27.089218287899808 L 10.199810921000005,27.086377567000003 L 10.204185237000003,27.089218287 z" /><path fill-rule="evenodd" fill="#66cc99" stroke="#555555" stroke-width="0.0" opacity="0.6" d="M 11.332843401999995,25.881657096 L 11.319330513999999,25.858252349000008 L 11.402943275000005,26.003072286 L 11.332843401999995,25.881657096 z" /><path fill-rule="evenodd" fill="#66cc99" stroke="#555555" stroke-width="0.0" opacity="0.6" d="M 10.615861534999997,26.606686190999998 L 10.624144189999997,26.607093091000007 L 10.609055457000002,26.606351828999998 L 10.615861534999997,26.606686190999998 z" /><path fill-rule="evenodd" fill="#66cc99" stroke="#555555" stroke-width="0.0" opacity="0.6" d="M 10.754238224999995,26.436665260000005 L 10.747533572999998,26.444062703999997 L 10.764273105000004,26.425593475999996 L 10.754238224999995,26.436665260000005 z" /><path fill-rule="evenodd" fill="#66cc99" stroke="#555555" stroke-width="0.0" opacity="0.6" d="M 7.303187941,23.075767781000003 L 7.303187937551573,23.075767779571624 L 7.316844432999998,23.082226820999995 L 7.303187941,23.075767781000003 z" /></g> 
                    </g>
                    </svg>