<svg xmlns="http://www.w3.org/2000/svg" viewBox="0 0 40.0 20.0" width="40.0mm" height="20.0mm">
                    <g><polyline fill="none" stroke="#000000" stroke-width="0.6" points="23.164262843222648,5.194737156777352 23.759525686445297,5.79" opacity="0.8" /><polyline fill="none" stroke="#000000" stroke-width="0.6" points="23.759525686445297,5.79 23.986925686445296,6.0174" opacity="0.8" /><polyline fill="none" stroke="#000000" stroke-width="0.6" points="23.986925686445296,6.0174 24.018,6.0484743135547046 24.018,8.05" opacity="0.8" /><polyline fill="none" stroke="#000000" stroke-width="0.6" points="24.018,8.05 24.018,12.931 24.018361363138453,12.945720302298204 24.019584442563712,12.97061665594192 24.022470126435817,12.999915495980293 24.02612758578813,13.024572084128678 24.031871162819222,13.053446995763123 24.037927778765663,13.077626361993655 24.0464739351691,13.105799264040261 24.05487137918721,13.12926854783836 24.0661378108051,13.156468119849832 24.076795210918487,13.179001299182907 24.090673415855424,13.204965594411746 24.103488135475054,13.226345662444919 24.119844459030958,13.250824630534709 24.13469308540167,13.270845685525298 24.153370007239417,13.293603580631718 24.17010953997217,13.31207280887553 24.180262843222646,13.322737156777352 24.6,13.742474313554704" opacity="0.8" /><polyline fill="none" stroke="#000000" stroke-width="0.6" points="24.6,13.742474313554704 26.115525686445295,15.258" opacity="0.8" /><polyline fill="none" stroke="#000000" stroke-width="0.6" points="26.115525686445295,15.258 26.704262843222647,15.846737156777353 26.71492719112456,15.856890460027918 26.733396419368386,15.873629992760673 26.756154314474703,15.892306914598331 26.776175369465292,15.907155540969043 26.80065433755502,15.923511864524901 26.82203440558818,15.936326584144533 26.84799870081702,15.95020478908147 26.87053188015008,15.960862189194858 26.89773145216161,15.97212862081279 26.921200735959708,15.980526064830899 26.94937363800639,15.989072221234352 26.973553004236937,15.995128837180793 27.002427915871323,16.00087241421187 27.027084504019708,16.004529873564184 27.056383344058098,16.00741555743629 27.081279697701813,16.008638636861548 27.096,16.009 28.421092884533493,16.009 28.42176441587904,16.01352709660484 28.42891789928034,16.042085403176337 28.4388361402466,16.06980502970953 28.4514236206955,16.0964190210478 28.466559116309227,16.121671069905876 28.48409686399117,16.145317985249086 28.50386796564403,16.16713203435597 28.5256820147509,16.186903136008812 28.549328930094124,16.204440883690758 28.5745809789522,16.219576379304513 28.601194970290482,16.232163859753385 28.628914596823662,16.24208210071966 28.657472903395178,16.249235584120974 28.686594857901127,16.253555418001653 28.716,16.255 34.216,16.255 34.245405142098875,16.253555418001653 34.27452709660482,16.249235584120974 34.30308540317634,16.24208210071966 34.330805029709516,16.232163859753385 34.357419021047804,16.219576379304513 34.382671069905875,16.204440883690758 34.4063179852491,16.186903136008812 34.42813203435597,16.16713203435597 34.447903136008826,16.145317985249086 34.46074702922916,16.128" opacity="0.8" /><polyline fill="none" stroke="#000000" stroke-width="0.6" points="34.46074702922916,16.128 34.465440883690775,16.121671069905876 34.4805763793045,16.0964190210478 34.4931638597534,16.06980502970953 34.50308210071966,16.042085403176337 34.510235584120956,16.01352709660484 34.51455541800165,15.984405142098874 34.516,15.955 34.516,14.955 34.51455541800165,14.925594857901126 34.510235584120956,14.89647290339516 34.50308210071966,14.867914596823663 34.4931638597534,14.840194970290467 34.4805763793045,14.8135809789522 34.465440883690775,14.788328930094123 34.447903136008826,14.764682014750912 34.42813203435597,14.742867965644031 34.4063179852491,14.723096863991186 34.382671069905875,14.70555911630924 34.357419021047804,14.690423620695487 34.330805029709516,14.677836140246615 34.30308540317634,14.66791789928034 34.27452709660482,14.660764415879026 34.245405142098875,14.656444581998349 34.216,14.655 29.830525686445295,14.655" opacity="0.8" /><polyline fill="none" stroke="#000000" stroke-width="0.6" points="29.830525686445295,14.655 28.716,14.655 28.686594857901127,14.656444581998349 28.657472903395178,14.660764415879026 28.628914596823662,14.66791789928034 28.601194970290482,14.677836140246615 28.5745809789522,14.690423620695487 28.549328930094124,14.70555911630924 28.5256820147509,14.723096863991186 28.50386796564403,14.742867965644031 28.48409686399117,14.764682014750912 28.466559116309227,14.788328930094123 28.4514236206955,14.8135809789522 28.4388361402466,14.840194970290467 28.42891789928034,14.867914596823663 28.42176441587904,14.89647290339516 28.421092884533493,14.901 27.325474313554704,14.901 26.83,14.405525686445296" opacity="0.8" /><polyline fill="none" stroke="#000000" stroke-width="0.6" points="26.83,14.405525686445296 26.269,13.844525686445296" opacity="0.8" /><polyline fill="none" stroke="#000000" stroke-width="0.6" points="26.269,13.844525686445296 25.161,12.736525686445296" opacity="0.8" /><polyline fill="none" stroke="#000000" stroke-width="0.6" points="25.161,12.736525686445296 25.126,12.701525686445295 25.126,12.4776" opacity="0.8" /><polyline fill="none" stroke="#000000" stroke-width="0.6" points="25.126,12.4776 25.126,12.070728650446416" opacity="0.8" /><polyline fill="none" stroke="#000000" stroke-width="0.6" points="25.126,12.070728650446416 25.126,10.489271349553585" opacity="0.8" /><polyline fill="none" stroke="#000000" stroke-width="0.6" points="25.126,10.489271349553585 25.126,10.245728650446415" opacity="0.8" /><polyline fill="none" stroke="#000000" stroke-width="0.6" points="25.126,10.245728650446415 25.126,5.819 25.12563863686155,5.804279697701797 25.124415557436286,5.779383344058082 25.121529873564185,5.750084504019707 25.11787241421187,5.725427915871322 25.11212883718078,5.696553004236877 25.106072221234335,5.672373638006344 25.097526064830898,5.644200735959738 25.08912862081279,5.62073145216164 25.077862189194903,5.593531880150169 25.067204789081515,5.570998700817094 25.05332658414458,5.545034405588254 25.040511864524944,5.52365433755508 25.024155540969044,5.499175369465291 25.00930691459833,5.479154314474702 24.990629992760585,5.456396419368282 24.973890460027828,5.437927191124469 24.963737156777352,5.427262843222648 24.893474313554705,5.357" opacity="0.8" /><polyline fill="none" stroke="#000000" stroke-width="0.6" points="24.893474313554705,5.357 24.445874313554704,4.9094" opacity="0.8" /><polyline fill="none" stroke="#000000" stroke-width="0.6" points="24.445874313554704,4.9094 24.147474313554703,4.611" opacity="0.8" /><polyline fill="none" stroke="#000000" stroke-width="0.6" points="24.147474313554703,4.611 23.785474313554705,4.249" opacity="0.8" /><polyline fill="none" stroke="#000000" stroke-width="0.6" points="24.299603580631718,0.7013700072394162 24.2768456855253,0.6826930854016692 24.25682463053471,0.667844459030956 24.23234566244492,0.6514881354750544 24.210965594411746,0.6386734158554226 24.185001299182908,0.6247952109184861 24.16246811984983,0.6141378108050972 24.13526854783836,0.6028713791872113 24.11179926404026,0.5944739351691007 24.083626361993655,0.5859277787656635 24.059446995763125,0.5798711628192216 24.03057208412868,0.5741275857881307 24.005915495980293,0.5704701264358163 23.976616655941918,0.5675844425637125 23.951720302298202,0.5663613631384522 23.937,0.566 23.4256486004453,0.566" opacity="0.8" /><polyline fill="none" stroke="#000000" stroke-width="0.6" points="23.4256486004453,0.566 22.032,0.566" opacity="0.8" /><polyline fill="none" stroke="#000000" stroke-width="0.6" points="21.802525686445296,1.674 23.214737306726516,1.674" opacity="0.8" /><polyline fill="none" stroke="#000000" stroke-width="0.6" points="23.214737306726516,1.674 23.215,1.674" opacity="0.8" /><polyline fill="none" stroke="#000000" stroke-width="0.6" points="23.215,1.674 23.707525686445297,1.674 24.405,2.371474313554704" opacity="0.8" /><polyline fill="none" stroke="#000000" stroke-width="0.6" points="24.405,2.371474313554704 24.485,2.451474313554704" opacity="0.8" /><polyline fill="none" stroke="#000000" stroke-width="0.6" points="24.485,2.451474313554704 24.833525686445295,2.8" opacity="0.8" /><polyline fill="none" stroke="#000000" stroke-width="0.6" points="24.833525686445295,2.8 25.536525686445295,3.503" opacity="0.8" /><polyline fill="none" stroke="#000000" stroke-width="0.6" points="25.536525686445295,3.503 26.60926284322265,4.575737156777352 26.619927191124557,4.585890460027918 26.638396419368387,4.602629992760673 26.648595302698702,4.611" opacity="0.8" /><polyline fill="none" stroke="#000000" stroke-width="0.6" points="26.648595302698702,4.611 26.6611543144747,4.621306914598331 26.68117536946529,4.636155540969044 26.70565433755502,4.652511864524901 26.72703440558818,4.665326584144533 26.75299870081702,4.679204789081469 26.77553188015008,4.689862189194858 26.80273145216161,4.7011286208127885 26.82620073595971,4.709526064830899 26.85437363800639,4.718072221234351 26.878553004236938,4.7241288371807935 26.907427915871324,4.7298724142118695 26.93208450401971,4.7335298735641835 26.961383344058095,4.736415557436287 26.98627969770181,4.737638636861548 27.001,4.738 28.421092884533493,4.738 28.42176441587904,4.742527096604839 28.42891789928034,4.771085403176338 28.4388361402466,4.798805029709533 28.4514236206955,4.825419021047801 28.466559116309227,4.850671069905877 28.48409686399117,4.874317985249087 28.50386796564403,4.896132034355968 28.5256820147509,4.915903136008814 28.549328930094124,4.93344088369076 28.5745809789522,4.948576379304513 28.601194970290482,4.961163859753385 28.628914596823662,4.97108210071966 28.657472903395178,4.9782355841209736 28.686594857901127,4.982555418001652 28.716,4.984 34.216,4.984 34.245405142098875,4.982555418001652 34.27452709660482,4.9782355841209736 34.30308540317634,4.97108210071966 34.330805029709516,4.961163859753385 34.357419021047804,4.948576379304513 34.382671069905875,4.93344088369076 34.4063179852491,4.915903136008814 34.42813203435597,4.896132034355968 34.447903136008826,4.874317985249087 34.46074702922916,4.857" opacity="0.8" /><polyline fill="none" stroke="#000000" stroke-width="0.6" points="34.46074702922916,4.857 34.465440883690775,4.850671069905877 34.4805763793045,4.825419021047801 34.4931638597534,4.798805029709533 34.50308210071966,4.771085403176338 34.510235584120956,4.742527096604839 34.51455541800165,4.713405142098874 34.516,4.684 34.516,3.684 34.51455541800165,3.654594857901126 34.510235584120956,3.625472903395161 34.50308210071966,3.5969145968236624 34.4931638597534,3.569194970290467 34.4805763793045,3.5425809789521994 34.465440883690775,3.517328930094123 34.447903136008826,3.4936820147509127 34.42813203435597,3.471867965644032 34.4063179852491,3.452096863991186 34.382671069905875,3.4345591163092406 34.357419021047804,3.4194236206954867 34.330805029709516,3.406836140246615 34.30308540317634,3.3969178992803393 34.27452709660482,3.389764415879026 34.245405142098875,3.3854445819983483 34.216,3.384 31.265252970770835,3.384" opacity="0.8" /><polyline fill="none" stroke="#000000" stroke-width="0.6" points="31.265252970770835,3.384 28.716,3.384 28.686594857901127,3.3854445819983483 28.657472903395178,3.389764415879026 28.628914596823662,3.3969178992803393 28.601194970290482,3.406836140246615 28.5745809789522,3.4194236206954867 28.549328930094124,3.4345591163092406 28.5256820147509,3.452096863991186 28.50386796564403,3.471867965644032 28.48409686399117,3.4936820147509127 28.477186175141036,3.503" opacity="0.8" /><polyline fill="none" stroke="#000000" stroke-width="0.6" points="28.477186175141036,3.503 28.466559116309227,3.517328930094123 28.4514236206955,3.5425809789521994 28.4388361402466,3.569194970290467 28.42891789928034,3.5969145968236624 28.42176441587904,3.625472903395161 28.421092884533493,3.63 27.230474313554705,3.63 27.103474313554702,3.503" opacity="0.8" /><polyline fill="none" stroke="#000000" stroke-width="0.6" points="27.103474313554702,3.503 26.400474313554703,2.8" opacity="0.8" /><polyline fill="none" stroke="#000000" stroke-width="0.6" points="26.400474313554703,2.8 25.755,2.1545256864452957" opacity="0.8" /><polyline fill="none" stroke="#000000" stroke-width="0.6" points="25.755,2.1545256864452957 25.675,2.0745256864452957" opacity="0.8" /><polyline fill="none" stroke="#000000" stroke-width="0.6" points="25.675,2.0745256864452957 24.485,0.8845256864452958" opacity="0.8" /><polyline fill="none" stroke="#000000" stroke-width="0.6" points="24.485,0.8845256864452958 24.392298352179317,0.7918240386246145" opacity="0.8" /><polyline fill="none" stroke="#000000" stroke-width="0.6" points="24.392298352179317,0.7918240386246145 24.32873715677735,0.7282628432226479 24.31807280887553,0.7181095399721712 24.299603580631718,0.7013700072394162" opacity="0.8" /><polyline fill="none" stroke="#000000" stroke-width="0.6" points="6.175,16.441 6.175,17.549" opacity="0.8" /><polyline fill="none" stroke="#000000" stroke-width="0.6" points="6.377529102390542,6.1853817468234 6.288679102390542,6.339272746823401 6.274422410919949,6.367252898789749 6.263168671211004,6.3965700524426845 6.208257671211005,6.565571052442685 6.200130673242167,6.595901711697728 6.195218511073172,6.62691570288971 6.176643511073172,6.803640702889711 6.175,6.835 6.176643511073172,6.866359297110289 6.195218511073172,7.04308429711029 6.200130673242167,7.074098288302273 6.208257671211005,7.104428947557315 6.263168671211004,7.273429947557315 6.274422410919949,7.302747101210252 6.288679102390542,7.3307272531766 6.377529102390542,7.4846182531766" opacity="0.8" /><polyline fill="none" stroke="#000000" stroke-width="0.6" points="32.18659485790113,0.6854445819983482 32.157472903395174,0.689764415879026 32.12891459682366,0.6969178992803394 32.10119497029048,0.7068361402466148 32.0745809789522,0.7194236206954867 32.04932893009412,0.7345591163092404 32.0256820147509,0.752096863991186 32.003867965644034,0.7718679656440318 31.98409686399117,0.7936820147509128 31.966559116309227,0.8173289300941229 31.9514236206955,0.8425809789521992 31.9388361402466,0.8691949702904671 31.92891789928034,0.8969145968236625 31.92176441587904,0.9254729033951611 31.91744458199835,0.9545948579011262 31.916,0.984 31.916,2.584 31.91744458199835,2.6134051420988738 31.92176441587904,2.642527096604839 31.92891789928034,2.6710854031763374 31.9388361402466,2.6988050297095327 31.9514236206955,2.725419021047801 31.966559116309227,2.750671069905877 31.98409686399117,2.774317985249087 32.003867965644034,2.7961320343559684 32.0256820147509,2.815903136008814 32.04932893009412,2.8334408836907596 32.0745809789522,2.848576379304513 32.10119497029048,2.8611638597533853 32.12891459682366,2.8710821007196605 32.157472903395174,2.878235584120974 32.18659485790113,2.882555418001652 32.216,2.884 35.216,2.884 35.245405142098875,2.882555418001652 35.27452709660482,2.878235584120974 35.30308540317634,2.8710821007196605 35.330805029709516,2.8611638597533853 35.357419021047804,2.848576379304513 35.382671069905875,2.8334408836907596 35.4063179852491,2.815903136008814 35.42813203435597,2.7961320343559684 35.447903136008826,2.774317985249087 35.46074702922916,2.757" opacity="0.8" /><polyline fill="none" stroke="#000000" stroke-width="0.6" points="35.46074702922916,2.757 35.465440883690775,2.750671069905877 35.4805763793045,2.725419021047801 35.4931638597534,2.6988050297095327 35.50308210071966,2.6710854031763374 35.510235584120956,2.642527096604839 35.51455541800165,2.6134051420988738 35.516,2.584 35.516,0.984 35.51455541800165,0.9545948579011262 35.510235584120956,0.9254729033951611 35.50308210071966,0.8969145968236625 35.4931638597534,0.8691949702904671 35.4805763793045,0.8425809789521992 35.465440883690775,0.8173289300941229 35.447903136008826,0.7936820147509128 35.42813203435597,0.7718679656440318 35.4063179852491,0.752096863991186 35.382671069905875,0.7345591163092404 35.357419021047804,0.7194236206954867 35.330805029709516,0.7068361402466148 35.30308540317634,0.6969178992803394 35.27452709660482,0.689764415879026 35.245405142098875,0.6854445819983482 35.216,0.684 34.76525297077084,0.684" opacity="0.8" /><polyline fill="none" stroke="#000000" stroke-width="0.6" points="34.76525297077084,0.684 32.216,0.684 32.18659485790113,0.6854445819983482" opacity="0.8" /><polyline fill="none" stroke="#000000" stroke-width="0.6" points="32.18659485790113,7.485444581998348 32.157472903395174,7.489764415879026 32.12891459682366,7.49691789928034 32.10119497029048,7.506836140246615 32.0745809789522,7.519423620695487 32.04932893009412,7.53455911630924 32.0256820147509,7.552096863991186 32.003867965644034,7.5718679656440315 31.98409686399117,7.593682014750913 31.966559116309227,7.617328930094123 31.9514236206955,7.642580978952199 31.9388361402466,7.669194970290467 31.92891789928034,7.696914596823662 31.92176441587904,7.725472903395161 31.91744458199835,7.754594857901126 31.916,7.784 31.916,9.384 31.91744458199835,9.413405142098874 31.92176441587904,9.44252709660484 31.92891789928034,9.471085403176337 31.9388361402466,9.498805029709533 31.9514236206955,9.525419021047801 31.966559116309227,9.550671069905878 31.98409686399117,9.574317985249087 32.003867965644034,9.596132034355968 32.0256820147509,9.615903136008814 32.04932893009412,9.63344088369076 32.0745809789522,9.648576379304513 32.10119497029048,9.661163859753385 32.12891459682366,9.67108210071966 32.157472903395174,9.678235584120975 32.18659485790113,9.682555418001652 32.216,9.684 35.216,9.684 35.245405142098875,9.682555418001652 35.27452709660482,9.678235584120975 35.30308540317634,9.67108210071966 35.330805029709516,9.661163859753385 35.357419021047804,9.648576379304513 35.382671069905875,9.63344088369076 35.4063179852491,9.615903136008814 35.42813203435597,9.596132034355968 35.447903136008826,9.574317985249087 35.46074702922916,9.557" opacity="0.8" /><polyline fill="none" stroke="#000000" stroke-width="0.6" points="35.46074702922916,9.557 35.465440883690775,9.550671069905878 35.4805763793045,9.525419021047801 35.4931638597534,9.498805029709533 35.50308210071966,9.471085403176337 35.510235584120956,9.44252709660484 35.51455541800165,9.413405142098874 35.516,9.384 35.516,7.784 35.51455541800165,7.754594857901126 35.510235584120956,7.725472903395161 35.50308210071966,7.696914596823662 35.4931638597534,7.669194970290467 35.4805763793045,7.642580978952199 35.465440883690775,7.617328930094123 35.447903136008826,7.593682014750913 35.42813203435597,7.5718679656440315 35.4063179852491,7.552096863991186 35.382671069905875,7.53455911630924 35.357419021047804,7.519423620695487 35.330805029709516,7.506836140246615 35.30308540317634,7.49691789928034 35.27452709660482,7.489764415879026 35.245405142098875,7.485444581998348 35.216,7.484 34.76525297077084,7.484" opacity="0.8" /><polyline fill="none" stroke="#000000" stroke-width="0.6" points="34.76525297077084,7.484 32.216,7.484 32.18659485790113,7.485444581998348" opacity="0.8" /><polyline fill="none" stroke="#000000" stroke-width="0.6" points="32.18659485790113,9.956444581998348 32.157472903395174,9.960764415879027 32.12891459682366,9.967917899280339 32.10119497029048,9.977836140246614 32.0745809789522,9.990423620695486 32.04932893009412,10.005559116309241 32.0256820147509,10.023096863991187 32.003867965644034,10.042867965644032 31.98409686399117,10.064682014750913 31.966559116309227,10.088328930094123 31.9514236206955,10.1135809789522 31.9388361402466,10.140194970290468 31.92891789928034,10.167914596823662 31.92176441587904,10.196472903395161 31.91744458199835,10.225594857901125 31.916,10.255 31.916,11.855 31.91744458199835,11.884405142098874 31.92176441587904,11.913527096604838 31.92891789928034,11.942085403176337 31.9388361402466,11.969805029709534 31.9514236206955,11.996419021047801 31.966559116309227,12.021671069905878 31.98409686399117,12.045317985249087 32.003867965644034,12.067132034355968 32.0256820147509,12.086903136008814 32.04932893009412,12.10444088369076 32.0745809789522,12.119576379304513 32.10119497029048,12.132163859753385 32.12891459682366,12.14208210071966 32.157472903395174,12.149235584120975 32.18659485790113,12.153555418001652 32.216,12.155 35.216,12.155 35.245405142098875,12.153555418001652 35.27452709660482,12.149235584120975 35.30308540317634,12.14208210071966 35.330805029709516,12.132163859753385 35.357419021047804,12.119576379304513 35.382671069905875,12.10444088369076 35.4063179852491,12.086903136008814 35.42813203435597,12.067132034355968 35.447903136008826,12.045317985249087 35.46074702922916,12.028" opacity="0.8" /><polyline fill="none" stroke="#000000" stroke-width="0.6" points="35.46074702922916,12.028 35.465440883690775,12.021671069905878 35.4805763793045,11.996419021047801 35.4931638597534,11.969805029709534 35.50308210071966,11.942085403176337 35.510235584120956,11.913527096604838 35.51455541800165,11.884405142098874 35.516,11.855 35.516,10.255 35.51455541800165,10.225594857901125 35.510235584120956,10.196472903395161 35.50308210071966,10.167914596823662 35.4931638597534,10.140194970290468 35.4805763793045,10.1135809789522 35.465440883690775,10.088328930094123 35.447903136008826,10.064682014750913 35.42813203435597,10.042867965644032 35.4063179852491,10.023096863991187 35.382671069905875,10.005559116309241 35.357419021047804,9.990423620695486 35.330805029709516,9.977836140246614 35.30308540317634,9.967917899280339 35.27452709660482,9.960764415879027 35.245405142098875,9.956444581998348 35.216,9.955 34.76525297077084,9.955" opacity="0.8" /><polyline fill="none" stroke="#000000" stroke-width="0.6" points="34.76525297077084,9.955 32.216,9.955 32.18659485790113,9.956444581998348" opacity="0.8" /><polyline fill="none" stroke="#000000" stroke-width="0.6" points="32.18659485790113,16.75644458199835 32.157472903395174,16.760764415879027 32.12891459682366,16.767917899280338 32.10119497029048,16.777836140246613 32.0745809789522,16.79042362069549 32.04932893009412,16.80555911630924 32.0256820147509,16.823096863991186 32.003867965644034,16.842867965644032 31.98409686399117,16.86468201475091 31.966559116309227,16.888328930094122 31.9514236206955,16.9135809789522 31.9388361402466,16.940194970290467 31.92891789928034,16.96791459682366 31.92176441587904,16.996472903395162 31.91744458199835,17.025594857901126 31.916,17.055 31.916,18.655 31.917424678643314,18.684" opacity="0.8" /><polyline fill="none" stroke="#000000" stroke-width="0.6" points="31.917424678643314,18.684 31.91744458199835,18.684405142098875 31.92176441587904,18.71352709660484 31.92891789928034,18.742085403176336 31.9388361402466,18.769805029709534 31.9514236206955,18.7964190210478 31.966559116309227,18.82167106990588 31.98409686399117,18.845317985249086 32.003867965644034,18.86713203435597 32.0256820147509,18.886903136008815 32.04932893009412,18.90444088369076 32.0745809789522,18.919576379304512 32.10119497029048,18.932163859753384 32.12891459682366,18.94208210071966 32.157472903395174,18.949235584120974 32.18659485790113,18.953555418001653 32.216,18.955 35.216,18.955 35.245405142098875,18.953555418001653 35.27452709660482,18.949235584120974 35.30308540317634,18.94208210071966 35.330805029709516,18.932163859753384 35.357419021047804,18.919576379304512 35.382671069905875,18.90444088369076 35.4063179852491,18.886903136008815 35.42813203435597,18.86713203435597 35.447903136008826,18.845317985249086 35.46074702922916,18.828" opacity="0.8" /><polyline fill="none" stroke="#000000" stroke-width="0.6" points="35.46074702922916,18.828 35.465440883690775,18.82167106990588 35.4805763793045,18.7964190210478 35.4931638597534,18.769805029709534 35.50308210071966,18.742085403176336 35.510235584120956,18.71352709660484 35.51455541800165,18.684405142098875 35.51457532135668,18.684" opacity="0.8" /><polyline fill="none" stroke="#000000" stroke-width="0.6" points="35.51457532135668,18.684 35.516,18.655 35.516,17.055 35.51455541800165,17.025594857901126 35.510235584120956,16.996472903395162 35.50308210071966,16.96791459682366 35.4931638597534,16.940194970290467 35.4805763793045,16.9135809789522 35.465440883690775,16.888328930094122 35.447903136008826,16.86468201475091 35.42813203435597,16.842867965644032 35.4063179852491,16.823096863991186 35.382671069905875,16.80555911630924 35.357419021047804,16.79042362069549 35.330805029709516,16.777836140246613 35.30308540317634,16.767917899280338 35.27452709660482,16.760764415879027 35.245405142098875,16.75644458199835 35.216,16.755 34.76525297077084,16.755" opacity="0.8" /><polyline fill="none" stroke="#000000" stroke-width="0.6" points="34.76525297077084,16.755 32.216,16.755 32.18659485790113,16.75644458199835" opacity="0.8" /><polyline fill="none" stroke="#000000" stroke-width="0.6" points="19.7394,6.7382 19.1806,6.7382 19.151194857901125,6.739644581998348 19.12207290339516,6.743964415879026 19.093514596823663,6.75111789928034 19.06579497029047,6.761036140246615 19.0391809789522,6.773623620695487 19.013928930094124,6.78875911630924 18.990282014750914,6.806296863991186 18.96846796564403,6.8260679656440315 18.948696863991184,6.847882014750913 18.93115911630924,6.871528930094123 18.916023620695487,6.896780978952199 18.906,6.917974144292265" opacity="0.8" /><polyline fill="none" stroke="#000000" stroke-width="0.6" points="20.014,6.917974144292265 20.003976379304515,6.896780978952199 19.98884088369076,6.871528930094123 19.971303136008814,6.847882014750913 19.951532034355967,6.8260679656440315 19.929717985249088,6.806296863991186 19.906071069905877,6.78875911630924 19.880819021047802,6.773623620695487 19.854205029709533,6.761036140246615 19.82648540317634,6.75111789928034 19.797927096604838,6.743964415879026 19.768805142098874,6.739644581998348 19.7394,6.7382" opacity="0.8" /><polyline fill="none" stroke="#000000" stroke-width="0.6" points="34.216,12.655 31.265252970770835,12.655" opacity="0.8" /><polyline fill="none" stroke="#000000" stroke-width="0.6" points="31.265252970770835,12.655 30.079,12.655" opacity="0.8" /><polyline fill="none" stroke="#000000" stroke-width="0.6" points="30.079,12.655 28.971,12.655" opacity="0.8" /><polyline fill="none" stroke="#000000" stroke-width="0.6" points="28.971,12.655 28.716,12.655 28.686594857901127,12.656444581998349 28.657472903395178,12.660764415879026 28.628914596823662,12.66791789928034 28.601194970290482,12.677836140246615 28.5745809789522,12.690423620695487 28.549328930094124,12.70555911630924 28.5256820147509,12.723096863991186 28.50386796564403,12.742867965644031 28.48409686399117,12.764682014750912 28.466559116309227,12.788328930094123 28.4514236206955,12.8135809789522 28.4388361402466,12.840194970290467 28.42891789928034,12.867914596823663 28.42176441587904,12.89647290339516 28.41744458199835,12.925594857901126 28.416,12.955 28.416,13.955 28.41744458199835,13.984405142098874 28.42176441587904,14.01352709660484 28.42891789928034,14.042085403176337 28.4388361402466,14.069805029709533 28.4514236206955,14.0964190210478 28.466559116309227,14.121671069905878 28.48409686399117,14.145317985249088 28.50386796564403,14.167132034355967 28.5256820147509,14.186903136008814 28.549328930094124,14.20444088369076 28.5745809789522,14.219576379304513 28.601194970290482,14.232163859753385 28.628914596823662,14.24208210071966 28.657472903395178,14.249235584120974 28.686594857901127,14.253555418001651 28.716,14.255 29.430525686445296,14.255" opacity="0.8" /><polyline fill="none" stroke="#000000" stroke-width="0.6" points="29.430525686445296,14.255 30.997474313554704,14.255" opacity="0.8" /><polyline fill="none" stroke="#000000" stroke-width="0.6" points="30.997474313554704,14.255 34.216,14.255 34.245405142098875,14.253555418001651 34.27452709660482,14.249235584120974 34.30308540317634,14.24208210071966 34.330805029709516,14.232163859753385 34.357419021047804,14.219576379304513 34.382671069905875,14.20444088369076 34.4063179852491,14.186903136008814 34.42813203435597,14.167132034355967 34.447903136008826,14.145317985249088 34.46074702922916,14.128" opacity="0.8" /><polyline fill="none" stroke="#000000" stroke-width="0.6" points="34.46074702922916,14.128 34.465440883690775,14.121671069905878 34.4805763793045,14.0964190210478 34.4931638597534,14.069805029709533 34.50308210071966,14.042085403176337 34.510235584120956,14.01352709660484 34.51455541800165,13.984405142098874 34.516,13.955 34.516,12.955 34.51455541800165,12.925594857901126 34.510235584120956,12.89647290339516 34.50308210071966,12.867914596823663 34.4931638597534,12.840194970290467 34.4805763793045,12.8135809789522 34.465440883690775,12.788328930094123 34.447903136008826,12.764682014750912 34.42813203435597,12.742867965644031 34.4063179852491,12.723096863991186 34.382671069905875,12.70555911630924 34.357419021047804,12.690423620695487 34.330805029709516,12.677836140246615 34.30308540317634,12.66791789928034 34.27452709660482,12.660764415879026 34.245405142098875,12.656444581998349 34.216,12.655" opacity="0.8" /><polyline fill="none" stroke="#000000" stroke-width="0.6" points="34.216,5.384 31.265252970770835,5.384" opacity="0.8" /><polyline fill="none" stroke="#000000" stroke-width="0.6" points="31.265252970770835,5.384 28.716,5.384 28.686594857901127,5.385444581998348 28.657472903395178,5.389764415879026 28.628914596823662,5.396917899280339 28.601194970290482,5.4068361402466145 28.5745809789522,5.419423620695486 28.549328930094124,5.434559116309241 28.5256820147509,5.452096863991186 28.50386796564403,5.471867965644032 28.48409686399117,5.493682014750913 28.466559116309227,5.517328930094123 28.4514236206955,5.542580978952199 28.4388361402466,5.569194970290467 28.42891789928034,5.596914596823662 28.42176441587904,5.625472903395161 28.41744458199835,5.6545948579011265 28.416,5.684 28.416,6.684 28.41744458199835,6.713405142098874 28.42176441587904,6.742527096604839 28.42891789928034,6.771085403176338 28.4388361402466,6.798805029709533 28.4514236206955,6.825419021047801 28.466559116309227,6.850671069905877 28.48409686399117,6.874317985249087 28.50386796564403,6.896132034355968 28.5256820147509,6.915903136008814 28.549328930094124,6.93344088369076 28.5745809789522,6.948576379304513 28.601194970290482,6.961163859753385 28.628914596823662,6.97108210071966 28.657472903395178,6.9782355841209736 28.686594857901127,6.982555418001652 28.716,6.984 34.216,6.984 34.245405142098875,6.982555418001652 34.27452709660482,6.9782355841209736 34.30308540317634,6.97108210071966 34.330805029709516,6.961163859753385 34.357419021047804,6.948576379304513 34.382671069905875,6.93344088369076 34.4063179852491,6.915903136008814 34.42813203435597,6.896132034355968 34.447903136008826,6.874317985249087 34.46074702922916,6.857" opacity="0.8" /><polyline fill="none" stroke="#000000" stroke-width="0.6" points="34.46074702922916,6.857 34.465440883690775,6.850671069905877 34.4805763793045,6.825419021047801 34.4931638597534,6.798805029709533 34.50308210071966,6.771085403176338 34.510235584120956,6.742527096604839 34.51455541800165,6.713405142098874 34.516,6.684 34.516,5.684 34.51455541800165,5.6545948579011265 34.510235584120956,5.625472903395161 34.50308210071966,5.596914596823662 34.4931638597534,5.569194970290467 34.4805763793045,5.542580978952199 34.465440883690775,5.517328930094123 34.447903136008826,5.493682014750913 34.42813203435597,5.471867965644032 34.4063179852491,5.452096863991186 34.382671069905875,5.434559116309241 34.357419021047804,5.419423620695486 34.330805029709516,5.4068361402466145 34.30308540317634,5.396917899280339 34.27452709660482,5.389764415879026 34.245405142098875,5.385444581998348 34.216,5.384" opacity="0.8" /></g>
                    <rect width="40.0" height="20.0" stroke-width="0.1" fill="none" stroke="black"/> 
                    </svg>