%TF.GenerationSoftware,KiCad,Pcbnew,7.0.10*%
%TF.CreationDate,2024-03-11T11:30:26-04:00*%
%TF.ProjectId,comparison,636f6d70-6172-4697-936f-6e2e6b696361,rev?*%
%TF.SameCoordinates,Original*%
%TF.FileFunction,Other,User*%
%FSLAX46Y46*%
G04 Gerber Fmt 4.6, Leading zero omitted, Abs format (unit mm)*
G04 Created by KiCad (PCBNEW 7.0.10) date 2024-03-11 11:30:26*
%MOMM*%
%LPD*%
G01*
G04 APERTURE LIST*
%ADD10C,0.000000*%
%ADD11C,0.508000*%
G04 APERTURE END LIST*
D10*
G36*
X128644400Y-79019400D02*
G01*
X128085600Y-79019400D01*
X128085600Y-77038200D01*
X128644400Y-77038200D01*
X128644400Y-79019400D01*
G37*
G36*
X127374400Y-79019400D02*
G01*
X126815600Y-79019400D01*
X126815600Y-77038200D01*
X127374400Y-77038200D01*
X127374400Y-79019400D01*
G37*
G36*
X126104400Y-79019400D02*
G01*
X125545600Y-79019400D01*
X125545600Y-77038200D01*
X126104400Y-77038200D01*
X126104400Y-79019400D01*
G37*
G36*
X124834400Y-79019400D02*
G01*
X124275600Y-79019400D01*
X124275600Y-77038200D01*
X124834400Y-77038200D01*
X124834400Y-79019400D01*
G37*
G36*
X123564400Y-74091800D02*
G01*
X123005600Y-74091800D01*
X123005600Y-72110600D01*
X123564400Y-72110600D01*
X123564400Y-74091800D01*
G37*
G36*
X124834400Y-74091800D02*
G01*
X124275600Y-74091800D01*
X124275600Y-72110600D01*
X124834400Y-72110600D01*
X124834400Y-74091800D01*
G37*
G36*
X128644400Y-74091800D02*
G01*
X128085600Y-74091800D01*
X128085600Y-72110600D01*
X128644400Y-72110600D01*
X128644400Y-74091800D01*
G37*
G36*
X144121000Y-79384000D02*
G01*
X141121000Y-79384000D01*
X141121000Y-77784000D01*
X144121000Y-77784000D01*
X144121000Y-79384000D01*
G37*
G36*
X144121000Y-72584000D02*
G01*
X141121000Y-72584000D01*
X141121000Y-70984000D01*
X144121000Y-70984000D01*
X144121000Y-72584000D01*
G37*
G36*
X144121000Y-88655000D02*
G01*
X141121000Y-88655000D01*
X141121000Y-87055000D01*
X144121000Y-87055000D01*
X144121000Y-88655000D01*
G37*
G36*
X144121000Y-81855000D02*
G01*
X141121000Y-81855000D01*
X141121000Y-80255000D01*
X144121000Y-80255000D01*
X144121000Y-81855000D01*
G37*
G36*
X126104400Y-74091800D02*
G01*
X125545600Y-74091800D01*
X125545600Y-72110600D01*
X126104400Y-72110600D01*
X126104400Y-74091800D01*
G37*
G36*
X116492664Y-73486602D02*
G01*
X116655000Y-73558878D01*
X116798761Y-73663327D01*
X116917664Y-73795383D01*
X117006514Y-73949274D01*
X117061425Y-74118275D01*
X117080000Y-74295000D01*
X117061425Y-74471725D01*
X117006514Y-74640726D01*
X116917664Y-74794617D01*
X116798761Y-74926673D01*
X116655000Y-75031122D01*
X116492664Y-75103398D01*
X116318849Y-75140344D01*
X116141151Y-75140344D01*
X115967336Y-75103398D01*
X115805000Y-75031122D01*
X115661239Y-74926673D01*
X115542336Y-74794617D01*
X115453486Y-74640726D01*
X115398575Y-74471725D01*
X115380000Y-74295000D01*
X115398575Y-74118275D01*
X115453486Y-73949274D01*
X115542336Y-73795383D01*
X115661239Y-73663327D01*
X115805000Y-73558878D01*
X115967336Y-73486602D01*
X116141151Y-73449656D01*
X116318849Y-73449656D01*
X116492664Y-73486602D01*
G37*
D11*
X125825000Y-71755000D02*
X125825000Y-73101200D01*
X125190000Y-71120000D02*
X125825000Y-71755000D01*
X116230000Y-72460000D02*
X117570000Y-71120000D01*
X116230000Y-72460000D02*
X116230000Y-74295000D01*
X117570000Y-71120000D02*
X125190000Y-71120000D01*
D10*
G36*
X122294400Y-74091800D02*
G01*
X121735600Y-74091800D01*
X121735600Y-72110600D01*
X122294400Y-72110600D01*
X122294400Y-74091800D01*
G37*
G36*
X116492664Y-76026602D02*
G01*
X116655000Y-76098878D01*
X116798761Y-76203327D01*
X116917664Y-76335383D01*
X117006514Y-76489274D01*
X117061425Y-76658275D01*
X117080000Y-76835000D01*
X117061425Y-77011725D01*
X117006514Y-77180726D01*
X116917664Y-77334617D01*
X116798761Y-77466673D01*
X116655000Y-77571122D01*
X116492664Y-77643398D01*
X116318849Y-77680344D01*
X116141151Y-77680344D01*
X115967336Y-77643398D01*
X115805000Y-77571122D01*
X115661239Y-77466673D01*
X115542336Y-77334617D01*
X115453486Y-77180726D01*
X115398575Y-77011725D01*
X115380000Y-76835000D01*
X115398575Y-76658275D01*
X115453486Y-76489274D01*
X115542336Y-76335383D01*
X115661239Y-76203327D01*
X115805000Y-76098878D01*
X115967336Y-76026602D01*
X116141151Y-75989656D01*
X116318849Y-75989656D01*
X116492664Y-76026602D01*
G37*
D11*
X121303800Y-73101200D02*
X122015000Y-73101200D01*
X116230000Y-76835000D02*
X117570000Y-76835000D01*
X117570000Y-76835000D02*
X121303800Y-73101200D01*
D10*
G36*
X123564400Y-79019400D02*
G01*
X123005600Y-79019400D01*
X123005600Y-77038200D01*
X123564400Y-77038200D01*
X123564400Y-79019400D01*
G37*
G36*
X116492664Y-83646602D02*
G01*
X116655000Y-83718878D01*
X116798761Y-83823327D01*
X116917664Y-83955383D01*
X117006514Y-84109274D01*
X117061425Y-84278275D01*
X117080000Y-84455000D01*
X117061425Y-84631725D01*
X117006514Y-84800726D01*
X116917664Y-84954617D01*
X116798761Y-85086673D01*
X116655000Y-85191122D01*
X116492664Y-85263398D01*
X116318849Y-85300344D01*
X116141151Y-85300344D01*
X115967336Y-85263398D01*
X115805000Y-85191122D01*
X115661239Y-85086673D01*
X115542336Y-84954617D01*
X115453486Y-84800726D01*
X115398575Y-84631725D01*
X115380000Y-84455000D01*
X115398575Y-84278275D01*
X115453486Y-84109274D01*
X115542336Y-83955383D01*
X115661239Y-83823327D01*
X115805000Y-83718878D01*
X115967336Y-83646602D01*
X116141151Y-83609656D01*
X116318849Y-83609656D01*
X116492664Y-83646602D01*
G37*
D11*
X116230000Y-84455000D02*
X117570000Y-84455000D01*
X122723000Y-75638000D02*
X123285000Y-76200000D01*
X121307000Y-75638000D02*
X122723000Y-75638000D01*
X118205000Y-78740000D02*
X121307000Y-75638000D01*
X123285000Y-76200000D02*
X123285000Y-78028800D01*
X118205000Y-78740000D02*
X118205000Y-83820000D01*
X117570000Y-84455000D02*
X118205000Y-83820000D01*
D10*
G36*
X122125000Y-86155000D02*
G01*
X120825000Y-86155000D01*
X120825000Y-82755000D01*
X122125000Y-82755000D01*
X122125000Y-86155000D01*
G37*
G36*
X122294400Y-79019400D02*
G01*
X121735600Y-79019400D01*
X121735600Y-77038200D01*
X122294400Y-77038200D01*
X122294400Y-79019400D01*
G37*
G36*
X117080000Y-87845000D02*
G01*
X115380000Y-87845000D01*
X115380000Y-86145000D01*
X117080000Y-86145000D01*
X117080000Y-87845000D01*
G37*
D11*
X119475000Y-79375000D02*
X120821200Y-78028800D01*
X121475000Y-84455000D02*
X121475000Y-84995000D01*
X119475000Y-79375000D02*
X119475000Y-81915000D01*
X120821200Y-78028800D02*
X122015000Y-78028800D01*
X121475000Y-83915000D02*
X121475000Y-84455000D01*
X116230000Y-86995000D02*
X119475000Y-86995000D01*
X119475000Y-81915000D02*
X121475000Y-83915000D01*
X119475000Y-86995000D02*
X121475000Y-84995000D01*
D10*
G36*
X143121000Y-74684000D02*
G01*
X137621000Y-74684000D01*
X137621000Y-73684000D01*
X143121000Y-73684000D01*
X143121000Y-74684000D01*
G37*
G36*
X127374400Y-74091800D02*
G01*
X126815600Y-74091800D01*
X126815600Y-72110600D01*
X127374400Y-72110600D01*
X127374400Y-74091800D01*
G37*
D11*
X132842000Y-71120000D02*
X135906000Y-74184000D01*
X135906000Y-74184000D02*
X140371000Y-74184000D01*
X127730000Y-71120000D02*
X132842000Y-71120000D01*
X127095000Y-71755000D02*
X127095000Y-73101200D01*
X127095000Y-71755000D02*
X127730000Y-71120000D01*
D10*
G36*
X129914400Y-74091800D02*
G01*
X129355600Y-74091800D01*
X129355600Y-72110600D01*
X129914400Y-72110600D01*
X129914400Y-74091800D01*
G37*
G36*
X143121000Y-85955000D02*
G01*
X137621000Y-85955000D01*
X137621000Y-84955000D01*
X143121000Y-84955000D01*
X143121000Y-85955000D01*
G37*
G36*
X116492664Y-78566602D02*
G01*
X116655000Y-78638878D01*
X116798761Y-78743327D01*
X116917664Y-78875383D01*
X117006514Y-79029274D01*
X117061425Y-79198275D01*
X117080000Y-79375000D01*
X117061425Y-79551725D01*
X117006514Y-79720726D01*
X116917664Y-79874617D01*
X116798761Y-80006673D01*
X116655000Y-80111122D01*
X116492664Y-80183398D01*
X116318849Y-80220344D01*
X116141151Y-80220344D01*
X115967336Y-80183398D01*
X115805000Y-80111122D01*
X115661239Y-80006673D01*
X115542336Y-79874617D01*
X115453486Y-79720726D01*
X115398575Y-79551725D01*
X115380000Y-79375000D01*
X115398575Y-79198275D01*
X115453486Y-79029274D01*
X115542336Y-78875383D01*
X115661239Y-78743327D01*
X115805000Y-78638878D01*
X115967336Y-78566602D01*
X116141151Y-78529656D01*
X116318849Y-78529656D01*
X116492664Y-78566602D01*
G37*
D11*
X133477000Y-82931000D02*
X136001000Y-85455000D01*
X130759200Y-73101200D02*
X133477000Y-75819000D01*
X116230000Y-79375000D02*
X120929000Y-74676000D01*
X136001000Y-85455000D02*
X140371000Y-85455000D01*
X120929000Y-74676000D02*
X129254000Y-74676000D01*
X129635000Y-73101200D02*
X130759200Y-73101200D01*
X129635000Y-73101200D02*
X129635000Y-74295000D01*
X133477000Y-75819000D02*
X133477000Y-82931000D01*
X129254000Y-74676000D02*
X129635000Y-74295000D01*
D10*
G36*
X128644400Y-79019400D02*
G01*
X128085600Y-79019400D01*
X128085600Y-77038200D01*
X128644400Y-77038200D01*
X128644400Y-79019400D01*
G37*
G36*
X127374400Y-79019400D02*
G01*
X126815600Y-79019400D01*
X126815600Y-77038200D01*
X127374400Y-77038200D01*
X127374400Y-79019400D01*
G37*
G36*
X126104400Y-79019400D02*
G01*
X125545600Y-79019400D01*
X125545600Y-77038200D01*
X126104400Y-77038200D01*
X126104400Y-79019400D01*
G37*
G36*
X124834400Y-79019400D02*
G01*
X124275600Y-79019400D01*
X124275600Y-77038200D01*
X124834400Y-77038200D01*
X124834400Y-79019400D01*
G37*
G36*
X123564400Y-74091800D02*
G01*
X123005600Y-74091800D01*
X123005600Y-72110600D01*
X123564400Y-72110600D01*
X123564400Y-74091800D01*
G37*
G36*
X124834400Y-74091800D02*
G01*
X124275600Y-74091800D01*
X124275600Y-72110600D01*
X124834400Y-72110600D01*
X124834400Y-74091800D01*
G37*
G36*
X128644400Y-74091800D02*
G01*
X128085600Y-74091800D01*
X128085600Y-72110600D01*
X128644400Y-72110600D01*
X128644400Y-74091800D01*
G37*
G36*
X144121000Y-79384000D02*
G01*
X141121000Y-79384000D01*
X141121000Y-77784000D01*
X144121000Y-77784000D01*
X144121000Y-79384000D01*
G37*
G36*
X144121000Y-72584000D02*
G01*
X141121000Y-72584000D01*
X141121000Y-70984000D01*
X144121000Y-70984000D01*
X144121000Y-72584000D01*
G37*
G36*
X144121000Y-88655000D02*
G01*
X141121000Y-88655000D01*
X141121000Y-87055000D01*
X144121000Y-87055000D01*
X144121000Y-88655000D01*
G37*
G36*
X144121000Y-81855000D02*
G01*
X141121000Y-81855000D01*
X141121000Y-80255000D01*
X144121000Y-80255000D01*
X144121000Y-81855000D01*
G37*
G36*
X126104400Y-74091800D02*
G01*
X125545600Y-74091800D01*
X125545600Y-72110600D01*
X126104400Y-72110600D01*
X126104400Y-74091800D01*
G37*
G36*
X116492664Y-73486602D02*
G01*
X116655000Y-73558878D01*
X116798761Y-73663327D01*
X116917664Y-73795383D01*
X117006514Y-73949274D01*
X117061425Y-74118275D01*
X117080000Y-74295000D01*
X117061425Y-74471725D01*
X117006514Y-74640726D01*
X116917664Y-74794617D01*
X116798761Y-74926673D01*
X116655000Y-75031122D01*
X116492664Y-75103398D01*
X116318849Y-75140344D01*
X116141151Y-75140344D01*
X115967336Y-75103398D01*
X115805000Y-75031122D01*
X115661239Y-74926673D01*
X115542336Y-74794617D01*
X115453486Y-74640726D01*
X115398575Y-74471725D01*
X115380000Y-74295000D01*
X115398575Y-74118275D01*
X115453486Y-73949274D01*
X115542336Y-73795383D01*
X115661239Y-73663327D01*
X115805000Y-73558878D01*
X115967336Y-73486602D01*
X116141151Y-73449656D01*
X116318849Y-73449656D01*
X116492664Y-73486602D01*
G37*
D11*
X125825000Y-71755000D02*
X125825000Y-73101200D01*
X125190000Y-71120000D02*
X125825000Y-71755000D01*
X116230000Y-72460000D02*
X117570000Y-71120000D01*
X116230000Y-72460000D02*
X116230000Y-74295000D01*
X117570000Y-71120000D02*
X125190000Y-71120000D01*
D10*
G36*
X122294400Y-74091800D02*
G01*
X121735600Y-74091800D01*
X121735600Y-72110600D01*
X122294400Y-72110600D01*
X122294400Y-74091800D01*
G37*
G36*
X116492664Y-76026602D02*
G01*
X116655000Y-76098878D01*
X116798761Y-76203327D01*
X116917664Y-76335383D01*
X117006514Y-76489274D01*
X117061425Y-76658275D01*
X117080000Y-76835000D01*
X117061425Y-77011725D01*
X117006514Y-77180726D01*
X116917664Y-77334617D01*
X116798761Y-77466673D01*
X116655000Y-77571122D01*
X116492664Y-77643398D01*
X116318849Y-77680344D01*
X116141151Y-77680344D01*
X115967336Y-77643398D01*
X115805000Y-77571122D01*
X115661239Y-77466673D01*
X115542336Y-77334617D01*
X115453486Y-77180726D01*
X115398575Y-77011725D01*
X115380000Y-76835000D01*
X115398575Y-76658275D01*
X115453486Y-76489274D01*
X115542336Y-76335383D01*
X115661239Y-76203327D01*
X115805000Y-76098878D01*
X115967336Y-76026602D01*
X116141151Y-75989656D01*
X116318849Y-75989656D01*
X116492664Y-76026602D01*
G37*
D11*
X121303800Y-73101200D02*
X122015000Y-73101200D01*
X116230000Y-76835000D02*
X117570000Y-76835000D01*
X117570000Y-76835000D02*
X121303800Y-73101200D01*
D10*
G36*
X123564400Y-79019400D02*
G01*
X123005600Y-79019400D01*
X123005600Y-77038200D01*
X123564400Y-77038200D01*
X123564400Y-79019400D01*
G37*
G36*
X116492664Y-83646602D02*
G01*
X116655000Y-83718878D01*
X116798761Y-83823327D01*
X116917664Y-83955383D01*
X117006514Y-84109274D01*
X117061425Y-84278275D01*
X117080000Y-84455000D01*
X117061425Y-84631725D01*
X117006514Y-84800726D01*
X116917664Y-84954617D01*
X116798761Y-85086673D01*
X116655000Y-85191122D01*
X116492664Y-85263398D01*
X116318849Y-85300344D01*
X116141151Y-85300344D01*
X115967336Y-85263398D01*
X115805000Y-85191122D01*
X115661239Y-85086673D01*
X115542336Y-84954617D01*
X115453486Y-84800726D01*
X115398575Y-84631725D01*
X115380000Y-84455000D01*
X115398575Y-84278275D01*
X115453486Y-84109274D01*
X115542336Y-83955383D01*
X115661239Y-83823327D01*
X115805000Y-83718878D01*
X115967336Y-83646602D01*
X116141151Y-83609656D01*
X116318849Y-83609656D01*
X116492664Y-83646602D01*
G37*
D11*
X116230000Y-84455000D02*
X117570000Y-84455000D01*
X122723000Y-75638000D02*
X123285000Y-76200000D01*
X121307000Y-75638000D02*
X122723000Y-75638000D01*
X118205000Y-78740000D02*
X121307000Y-75638000D01*
X123285000Y-76200000D02*
X123285000Y-78028800D01*
X118205000Y-78740000D02*
X118205000Y-83820000D01*
X117570000Y-84455000D02*
X118205000Y-83820000D01*
D10*
G36*
X122125000Y-86155000D02*
G01*
X120825000Y-86155000D01*
X120825000Y-82755000D01*
X122125000Y-82755000D01*
X122125000Y-86155000D01*
G37*
G36*
X122294400Y-79019400D02*
G01*
X121735600Y-79019400D01*
X121735600Y-77038200D01*
X122294400Y-77038200D01*
X122294400Y-79019400D01*
G37*
G36*
X117080000Y-87845000D02*
G01*
X115380000Y-87845000D01*
X115380000Y-86145000D01*
X117080000Y-86145000D01*
X117080000Y-87845000D01*
G37*
D11*
X119475000Y-79375000D02*
X120821200Y-78028800D01*
X121475000Y-84455000D02*
X121475000Y-84995000D01*
X119475000Y-79375000D02*
X119475000Y-81915000D01*
X120821200Y-78028800D02*
X122015000Y-78028800D01*
X121475000Y-83915000D02*
X121475000Y-84455000D01*
X116230000Y-86995000D02*
X119475000Y-86995000D01*
X119475000Y-81915000D02*
X121475000Y-83915000D01*
X119475000Y-86995000D02*
X121475000Y-84995000D01*
D10*
G36*
X143121000Y-74684000D02*
G01*
X137621000Y-74684000D01*
X137621000Y-73684000D01*
X143121000Y-73684000D01*
X143121000Y-74684000D01*
G37*
G36*
X127374400Y-74091800D02*
G01*
X126815600Y-74091800D01*
X126815600Y-72110600D01*
X127374400Y-72110600D01*
X127374400Y-74091800D01*
G37*
D11*
X132842000Y-71120000D02*
X135906000Y-74184000D01*
X135906000Y-74184000D02*
X140371000Y-74184000D01*
X127730000Y-71120000D02*
X132842000Y-71120000D01*
X127095000Y-71755000D02*
X127095000Y-73101200D01*
X127095000Y-71755000D02*
X127730000Y-71120000D01*
D10*
G36*
X129914400Y-74091800D02*
G01*
X129355600Y-74091800D01*
X129355600Y-72110600D01*
X129914400Y-72110600D01*
X129914400Y-74091800D01*
G37*
G36*
X143121000Y-85955000D02*
G01*
X137621000Y-85955000D01*
X137621000Y-84955000D01*
X143121000Y-84955000D01*
X143121000Y-85955000D01*
G37*
G36*
X116492664Y-78566602D02*
G01*
X116655000Y-78638878D01*
X116798761Y-78743327D01*
X116917664Y-78875383D01*
X117006514Y-79029274D01*
X117061425Y-79198275D01*
X117080000Y-79375000D01*
X117061425Y-79551725D01*
X117006514Y-79720726D01*
X116917664Y-79874617D01*
X116798761Y-80006673D01*
X116655000Y-80111122D01*
X116492664Y-80183398D01*
X116318849Y-80220344D01*
X116141151Y-80220344D01*
X115967336Y-80183398D01*
X115805000Y-80111122D01*
X115661239Y-80006673D01*
X115542336Y-79874617D01*
X115453486Y-79720726D01*
X115398575Y-79551725D01*
X115380000Y-79375000D01*
X115398575Y-79198275D01*
X115453486Y-79029274D01*
X115542336Y-78875383D01*
X115661239Y-78743327D01*
X115805000Y-78638878D01*
X115967336Y-78566602D01*
X116141151Y-78529656D01*
X116318849Y-78529656D01*
X116492664Y-78566602D01*
G37*
D11*
X133477000Y-82931000D02*
X136001000Y-85455000D01*
X130759200Y-73101200D02*
X133477000Y-75819000D01*
X116230000Y-79375000D02*
X120929000Y-74676000D01*
X136001000Y-85455000D02*
X140371000Y-85455000D01*
X120929000Y-74676000D02*
X129254000Y-74676000D01*
X129635000Y-73101200D02*
X130759200Y-73101200D01*
X129635000Y-73101200D02*
X129635000Y-74295000D01*
X133477000Y-75819000D02*
X133477000Y-82931000D01*
X129254000Y-74676000D02*
X129635000Y-74295000D01*
M02*
