<svg xmlns="http://www.w3.org/2000/svg" viewBox="0 0 43.624048 30.585062" width="43.624048mm" height="30.585062mm">
                    <g stroke-linecap="round">
                        <g><polyline fill="none" stroke="#66cc99" stroke-width="0.4" points="23.71562993559678,4.81260094391936 23.696591064549104,4.817369932853564 23.678111313526987,4.823982093497738 23.660368652634798,4.832373747130334 23.643533953396084,4.842464077539488 23.627769343167277,4.854155909327448 23.613226643762694,4.867336643762693 23.60004590932745,4.881879343167276 23.58835407753949,4.897643953396082 23.578263747130336,4.914478652634799 23.56987209349774,4.932221313526988 23.563259932853565,4.950701064549103 23.55849094391936,4.969739935596779 23.555611054665565,4.989154571934089 23.554648,5.008758 23.554648,6.989958 23.555611054665565,7.009561428065911 23.55819203803985,7.02696100464277 23.464995042682617,7.120158 21.925039800695554,7.120158" opacity="1" /><polyline fill="none" stroke="#66cc99" stroke-width="0.4" points="21.925039800695554,7.120158 21.063056199304448,7.120158" opacity="1" /><polyline fill="none" stroke="#66cc99" stroke-width="0.4" points="21.063056199304448,7.120158 16.845039800695552,7.120158" opacity="1" /><polyline fill="none" stroke="#66cc99" stroke-width="0.4" points="16.845039800695552,7.120158 15.983056199304446,7.120158" opacity="1" /><polyline fill="none" stroke="#66cc99" stroke-width="0.4" points="15.983056199304446,7.120158 15.328048,7.120158 15.318234465134532,7.120398908758968 15.293338111490815,7.121621988184229 15.273805551465228,7.123545777432308 15.249148963316843,7.127203236784622 15.229899022227213,7.131032288138672 15.20765477541229,7.136604181905091" opacity="1" /><polyline fill="none" stroke="#66cc99" stroke-width="0.4" points="15.20765477541229,7.136604181905091 15.20571965599668,7.137088904085115 15.186937721298948,7.142786341687411 15.16346843750085,7.151183785705522 15.145335389493198,7.158694740117445 15.12280221016012,7.169352140230835 15.105492680007561,7.178604276855454 15.084112611974389,7.191418996475085 15.06779329991454,7.20232321217902 15.04777224492395,7.217171838549733 15.032600314852997,7.229623119774893 15.014131086609185,7.246362652507647 15.00702152134131,7.253131521341309 12.08944122458771,10.17071181809491" opacity="1" /><polyline fill="none" stroke="#66cc99" stroke-width="0.4" points="12.08944122458771,10.17071181809491 10.976548616841779,11.28360442584084 10.97305872383593,11.282050639207617 10.953515336001187,11.274548676312044 10.933294856380074,11.26913059000428 10.759479856380075,11.23218459000428 10.738802956099347,11.228909648615792 10.717897,11.227814 10.540199,11.227814 10.519293043900653,11.228909648615792 10.498616143619925,11.23218459000428 10.324801143619926,11.26913059000428 10.304580663998813,11.274548676312044 10.28503727616407,11.282050639207617 10.12270127616407,11.354326639207617 10.104048081780002,11.363830872027442 10.08649056675543,11.375232879236057 9.942729566755428,11.479681879236058 9.92646046781668,11.492856404891969 9.911657611530677,11.507659348934025 9.792754611530677,11.639715348934024 9.7795806986897,11.655983815255343 9.7681794015937,11.673540164548934 9.6793294015937,11.827431164548933 9.6698249406133,11.846084599193171 9.662322447474002,11.865629368295133 9.607411447474004,12.034630368295133 9.601993448828102,12.05485080779849 9.598718674048781,12.075526801926479 9.58014367404878,12.252251801926478 9.579048,12.273158 9.58014367404878,12.29406419807352 9.598718674048781,12.470789198073522 9.601993448828102,12.49146519220151 9.607411447474004,12.511685631704866 9.662322447474002,12.680686631704868 9.6698249406133,12.70023140080683 9.6793294015937,12.718884835451066 9.7681794015937,12.872775835451067 9.7795806986897,12.890332184744656 9.792754611530677,12.906600651065975 9.911657611530677,13.038656651065976 9.92646046781668,13.053459595108032 9.942729566755428,13.066634120763943 10.08649056675543,13.171083120763942 10.104048081780002,13.182485127972559 10.12270127616407,13.191989360792384 10.28503727616407,13.264265360792384 10.304580663998813,13.271767323687955 10.324801143619926,13.27718540999572 10.498616143619925,13.31413140999572 10.519293043900653,13.317406351384207 10.540199,13.318502 10.717897,13.318502 10.738802956099347,13.317406351384207 10.759479856380075,13.31413140999572 10.933294856380074,13.27718540999572 10.953515336001187,13.271767323687955 10.97305872383593,13.264265360792384 11.13539472383593,13.191989360792384 11.154047918219998,13.182485127972559 11.17160543324457,13.171083120763942 11.315366433244572,13.066634120763943 11.33163553218332,13.053459595108032 11.346438388469323,13.038656651065976 11.465341388469323,12.906600651065975 11.478515301310301,12.890332184744656 11.4899165984063,12.872775835451067 11.5787665984063,12.718884835451066 11.5882710593867,12.70023140080683 11.595773552525998,12.680686631704868 11.650684552525997,12.511685631704866 11.656102551171898,12.49146519220151 11.659377325951219,12.470789198073522 11.67795232595122,12.29406419807352 11.679048,12.273158 11.67795232595122,12.252251801926478 11.659377325951219,12.075526801926479 11.656102551171898,12.05485080779849 11.650684552525997,12.034630368295133 11.616092730685473,11.928166226631909 15.516100957317382,8.028158 23.653048,8.028158 23.66286153486547,8.027917091241031 23.687757888509186,8.02669401181577 23.70729044853477,8.024770222567692 23.731947036683156,8.021112763215378 23.751196977772786,8.017283711861328 23.77537634400332,8.011227095914885 23.79415827870105,8.00552965831259 23.81762756249915,7.997132214294479 23.835760610506803,7.989621259882554 23.85829378983988,7.9789638597691654 23.87560331999244,7.969711723144546 23.89698338802561,7.956897003524914 23.91330270008546,7.94599278782098 23.93332375507605,7.931144161450267 23.948495685147,7.918692880225107 23.966964913390814,7.901953347492352 23.97407447865869,7.895184478658691 24.35507447865869,7.514184478658691 24.361843347492353,7.507074913390816 24.378582880225107,7.488605685147002 24.391034161450268,7.473433755076051 24.40588278782098,7.453412700085461 24.416787003524913,7.437093388025612 24.429601723144547,7.415713319992438 24.438853859769164,7.398403789839879 24.449511259882556,7.375870610506802 24.45702221429448,7.357737562499151 24.465419658312587,7.334268278701052 24.471117095914884,7.31548634400332 24.477173711861326,7.291306977772787 24.48100276321538,7.272057036683157 24.484660222567694,7.247400448534772 24.486584011815772,7.227867888509184 24.48780709124103,7.202971534865469 24.488048,7.193158 24.488048,7.087214193435505 24.489832252869665,7.0842373473652005 24.49822390650226,7.066494686473012 24.504836067146435,7.0480149354508965 24.50960505608064,7.028976064403221 24.512484945334435,7.009561428065911 24.513448,6.989958 24.513448,6.453358 24.97019504268262,6.453358 27.422048,8.905210957317381 27.422048,15.829158 27.42228890875897,15.838971534865468 27.423511988184227,15.863867888509184 27.42543577743231,15.883400448534772 27.42909323678462,15.908057036683157 27.432922288138673,15.927306977772787 27.438978904085115,15.95148634400332 27.444676341687412,15.970268278701052 27.45307378570552,15.99373756249915 27.460584740117447,16.011870610506804 27.471242140230835,16.034403789839878 27.480494276855453,16.051713319992437 27.493308996475086,16.07309338802561 27.50421321217902,16.08941270008546 27.51906183854973,16.10943375507605 27.531513119774893,16.124605685147003 27.54825265250765,16.143074913390816 27.55502152134131,16.15018447865869 30.079021521341293,18.67418447865869 30.086131086609246,18.680953347492398 30.104600314853073,18.69769288022515 30.11977224492395,18.710144161450266 30.13979329991454,18.72499278782098 30.156112611974358,18.735897003524883 30.177492680007518,18.748711723144517 30.194802210160077,18.757963859769152 30.217335389493137,18.76862125988254 30.235468437500835,18.776132214294478 30.258937721298935,18.78452965831259 30.27771965599671,18.790227095914886 30.301899022227257,18.796283711861328 30.32114896331686,18.800112763215377 30.345805551465244,18.803770222567692 30.365338111490814,18.80569401181577 30.39023446513453,18.806917091241033 30.400048,18.807158 31.820048,18.807158 31.820048,18.853158 31.821011054665565,18.87276142806591 31.82389094391936,18.89217606440322 31.82865993285355,18.911214935450896 31.835272093497753,18.929694686473013 31.843663747130336,18.947437347365202 31.853754077539502,18.964272046603917 31.86544590932745,18.980036656832723 31.87862664376268,18.994579356237306 31.893169343167276,19.00776009067255 31.908933953396083,19.01945192246051 31.9257686526348,19.029542252869664 31.943511313526987,19.03793390650226 31.961991064549117,19.044546067146435 31.981029935596766,19.04931505608064 32.000444571934075,19.052194945334435 32.020048,19.053158 37.520048,19.053158 37.53965142806592,19.052194945334435 37.55906606440323,19.04931505608064 37.57810493545088,19.044546067146435 37.596584686473015,19.03793390650226 37.6143273473652,19.029542252869664 37.63116204660392,19.01945192246051 37.646926656832726,19.00776009067255 37.66146935623732,18.994579356237306 37.67465009067255,18.980036656832723 37.6863419224605,18.964272046603917 37.69643225286966,18.947437347365202 37.70482390650225,18.929694686473013 37.71143606714645,18.911214935450896 37.71620505608064,18.89217606440322 37.71908494533444,18.87276142806591 37.720048,18.853158 37.720048,17.853158 37.71908494533444,17.83355457193409 37.71620505608064,17.814139935596778 37.71143606714645,17.795101064549105 37.70482390650225,17.776621313526988 37.69643225286966,17.7588786526348 37.6863419224605,17.74204395339608 37.67465009067255,17.726279343167274 37.66146935623732,17.71173664376269 37.646926656832726,17.698555909327446 37.63116204660392,17.68686407753949 37.6143273473652,17.676773747130333 37.596584686473015,17.668382093497737 37.57810493545088,17.661769932853563 37.55906606440323,17.65700094391936 37.53965142806592,17.654121054665566 37.520048,17.653158 32.020048,17.653158 32.000444571934075,17.654121054665566 31.981029935596766,17.65700094391936 31.961991064549117,17.661769932853563 31.943511313526987,17.668382093497737 31.9257686526348,17.676773747130333 31.908933953396083,17.68686407753949 31.893169343167276,17.698555909327446 31.87862664376268,17.71173664376269 31.86544590932745,17.726279343167274 31.853754077539502,17.74204395339608 31.843663747130336,17.7588786526348 31.835272093497753,17.776621313526988 31.82865993285355,17.795101064549105 31.82389094391936,17.814139935596778 31.821011054665565,17.83355457193409 31.820048,17.853158 31.820048,17.899158 30.588100957317383,17.899158 28.330048,15.641105042682618 28.330048,8.717158 28.329807091241033,8.70734446513453 28.32858401181577,8.682448111490816 28.326660222567693,8.662915551465229 28.323002763215378,8.638258963316844 28.31917371186133,8.619009022227212 28.313117095914887,8.59482965599668 28.30741965831259,8.576047721298949 28.299022214294478,8.55257843750085 28.291511259882554,8.534445389493197 28.280853859769167,8.511912210160121 28.271601723144546,8.494602680007562 28.258787003524915,8.47322261197439 28.24788278782098,8.456903299914538 28.233034161450266,8.436882244923948 28.220582880225106,8.421710314852998 28.203843347492352,8.403241086609185 28.197074478658692,8.396131521341308 25.47927447865869,5.678331521341309 25.472164913390817,5.671562652507648 25.453695685147004,5.654823119774893 25.43852375507605,5.6423718385497335 25.41850270008546,5.62752321217902 25.402183388025612,5.6166189964750854 25.380803319992438,5.6038042768554535 25.36349378983988,5.594552140230834 25.3409606105068,5.5838947401174455 25.32282756249915,5.576383785705522 25.299358278701053,5.567986341687411 25.280576344003318,5.562288904085115 25.256396977772788,5.5562322881386725 25.237147036683158,5.552403236784622 25.212490448534773,5.548745777432307 25.192957888509184,5.546821988184228 25.16806153486547,5.5455989087589685 25.158248,5.545358 24.513448,5.545358 24.513448,5.008758 24.512484945334435,4.989154571934089 24.50960505608064,4.969739935596779 24.504836067146435,4.950701064549103 24.49822390650226,4.932221313526988 24.489832252869665,4.914478652634799 24.479741922460512,4.897643953396082 24.468050090672552,4.881879343167276 24.454869356237307,4.867336643762693 24.440326656832724,4.854155909327448 24.424562046603917,4.842464077539488 24.4077273473652,4.832373747130334 24.389984686473014,4.823982093497738 24.371504935450897,4.817369932853564 24.35246606440322,4.81260094391936 24.33305142806591,4.809721054665565 24.313448,4.808758 23.754648,4.808758 23.73504457193409,4.809721054665565 23.71562993559678,4.81260094391936" opacity="1" /><polyline fill="none" stroke="#66cc99" stroke-width="0.4" points="27.536495685147003,3.6736231197748928 27.52132375507605,3.661171838549733 27.50130270008546,3.64632321217902 27.48498338802561,3.6354189964750856 27.463603319992437,3.622604276855454 27.446293789839878,3.6133521402308344 27.423760610506804,3.6026947401174456 27.405627562499152,3.5951837857055216 27.382158278701052,3.5867863416874113 27.36337634400332,3.5810889040851146 27.339196977772787,3.5750322881386727 27.319947036683157,3.5712032367846223 27.29529044853477,3.5675457774323074 27.275757888509183,3.5656219881842284 27.250861534865468,3.5643989087589683 27.241048,3.564158 22.129048,3.564158 22.119234465134532,3.5643989087589683 22.094338111490817,3.5656219881842284 22.07480555146523,3.5675457774323074 22.050148963316843,3.5712032367846223 22.030899022227214,3.5750322881386727 22.00671965599668,3.5810889040851146 21.987937721298948,3.5867863416874113 21.964468437500848,3.5951837857055216 21.946335389493196,3.6026947401174456 21.923802210160122,3.6133521402308344 21.906492680007563,3.622604276855454 21.88511261197439,3.6354189964750856 21.86879329991454,3.64632321217902 21.84877224492395,3.661171838549733 21.833600314852998,3.6736231197748928 21.815131086609185,3.690362652507648 21.80802152134131,3.697131521341309 21.173021521341308,4.332131521341309 21.166252652507648,4.339241086609185 21.149513119774895,4.357710314852998 21.137061838549734,4.372882244923949 21.12221321217902,4.392903299914539 21.111308996475085,4.409222611974388 21.098494276855455,4.430602680007562 21.089242140230834,4.447912210160121 21.078584740117446,4.4704453894931975 21.071073785705522,4.488578437500849 21.06267634168741,4.512047721298948 21.056978904085113,4.53082965599668 21.050922288138672,4.555009022227213 21.047093236784622,4.574258963316843 21.043435777432308,4.598915551465228 21.04151198818423,4.618448111490816 21.040288908758967,4.643344465134532 21.040048,4.653158 21.040048,4.911501806564495 21.038263747130333,4.914478652634799 21.029872093497737,4.932221313526988 21.023259932853566,4.950701064549103 21.01849094391936,4.969739935596779 21.015611054665566,4.989154571934089 21.014648,5.008758 21.014648,6.989958 21.015611054665566,7.009561428065911 21.01849094391936,7.028976064403221 21.023259932853566,7.0480149354508965 21.029872093497737,7.066494686473012 21.038263747130333,7.0842373473652005 21.04835407753949,7.101072046603918 21.060045909327446,7.116836656832724 21.063056199304448,7.120158" opacity="1" /><polyline fill="none" stroke="#66cc99" stroke-width="0.4" points="21.063056199304448,7.120158 21.07322664376269,7.131379356237307 21.087769343167274,7.144560090672552 21.10353395339608,7.156251922460512 21.1203686526348,7.166342252869666 21.138111313526988,7.1747339065022615 21.156591064549104,7.1813460671464355 21.175629935596778,7.18611505608064 21.19504457193409,7.188994945334435 21.214648,7.189958 21.773448,7.189958 21.793051428065912,7.188994945334435 21.81246606440322,7.18611505608064 21.831504935450898,7.1813460671464355 21.84998468647301,7.1747339065022615 21.8677273473652,7.166342252869666 21.884562046603918,7.156251922460512 21.900326656832725,7.144560090672552 21.914869356237308,7.131379356237307 21.925039800695554,7.120158" opacity="1" /><polyline fill="none" stroke="#66cc99" stroke-width="0.4" points="21.925039800695554,7.120158 21.928050090672553,7.116836656832724 21.939741922460513,7.101072046603918 21.949832252869665,7.0842373473652005 21.958223906502262,7.066494686473012 21.964836067146436,7.0480149354508965 21.96960505608064,7.028976064403221 21.972484945334436,7.009561428065911 21.973448,6.989958 21.973448,5.008758 21.972484945334436,4.989154571934089 21.96960505608064,4.969739935596779 21.964836067146436,4.950701064549103 21.958223906502262,4.932221313526988 21.949832252869665,4.914478652634799 21.948048,4.911501806564495 21.948048,4.841210957317382 22.317100957317383,4.472158 27.052995042682618,4.472158 29.984021521341294,7.403184478658691 29.991131086609244,7.409953347492396 30.00960031485307,7.4266928802251515 30.02477224492395,7.439144161450267 30.044793299914538,7.4539927878209795 30.06111261197436,7.464897003524885 30.08249268000752,7.477711723144516 30.099802210160078,7.48696385976915 30.122335389493138,7.497621259882539 30.140468437500836,7.505132214294478 30.163937721298932,7.513529658312589 30.18271965599671,7.519227095914886 30.206899022227258,7.525283711861327 30.22614896331686,7.529112763215378 30.250805551465245,7.5327702225676925 30.270338111490815,7.5346940118157715 30.29523446513453,7.535917091241032 30.305048,7.536158 31.820048,7.536158 31.820048,7.582158 31.821011054665565,7.601761428065911 31.82389094391936,7.621176064403221 31.82865993285355,7.640214935450897 31.835272093497753,7.658694686473012 31.843663747130336,7.676437347365201 31.853754077539502,7.693272046603918 31.86544590932745,7.709036656832724 31.87862664376268,7.723579356237307 31.893169343167276,7.736760090672552 31.908933953396083,7.748451922460512 31.9257686526348,7.758542252869666 31.943511313526987,7.766933906502262 31.961991064549117,7.773546067146436 31.981029935596766,7.77831505608064 32.000444571934075,7.781194945334435 32.020048,7.782158 37.520048,7.782158 37.53965142806592,7.781194945334435 37.55906606440323,7.77831505608064 37.57810493545088,7.773546067146436 37.596584686473015,7.766933906502262 37.6143273473652,7.758542252869666 37.63116204660392,7.748451922460512 37.646926656832726,7.736760090672552 37.66146935623732,7.723579356237307 37.67465009067255,7.709036656832724 37.6863419224605,7.693272046603918 37.69643225286966,7.676437347365201 37.70482390650225,7.658694686473012 37.71143606714645,7.640214935450897 37.71620505608064,7.621176064403221 37.71908494533444,7.601761428065911 37.720048,7.582158 37.720048,6.582158 37.71908494533444,6.562554571934089 37.71620505608064,6.543139935596779 37.71143606714645,6.524101064549104 37.70482390650225,6.505621313526988 37.69643225286966,6.4878786526348 37.6863419224605,6.471043953396082 37.67465009067255,6.455279343167275 37.66146935623732,6.440736643762693 37.646926656832726,6.427555909327447 37.63116204660392,6.415864077539489 37.6143273473652,6.405773747130334 37.596584686473015,6.397382093497738 37.57810493545088,6.390769932853565 37.55906606440323,6.386000943919361 37.53965142806592,6.3831210546655655 37.520048,6.382158 32.020048,6.382158 32.000444571934075,6.3831210546655655 31.981029935596766,6.386000943919361 31.961991064549117,6.390769932853565 31.943511313526987,6.397382093497738 31.9257686526348,6.405773747130334 31.908933953396083,6.415864077539489 31.893169343167276,6.427555909327447 31.87862664376268,6.440736643762693 31.86544590932745,6.455279343167275 31.853754077539502,6.471043953396082 31.843663747130336,6.4878786526348 31.835272093497753,6.505621313526988 31.82865993285355,6.524101064549104 31.82389094391936,6.543139935596779 31.821011054665565,6.562554571934089 31.820048,6.582158 31.820048,6.628158 30.49310095731738,6.628158 27.56207447865869,3.697131521341309 27.554964913390815,3.690362652507648 27.536495685147003,3.6736231197748928" opacity="1" /><polyline fill="none" stroke="#66cc99" stroke-width="0.4" points="15.185538111490816,10.474421988184229 15.166005551465227,10.476345777432307 15.141348963316842,10.480003236784622 15.122099022227212,10.483832288138673 15.09791965599668,10.489888904085115 15.079137721298949,10.49558634168741 15.055668437500849,10.503983785705522 15.037535389493197,10.511494740117445 15.015002210160121,10.522152140230835 14.997692680007562,10.531404276855454 14.976312611974388,10.544218996475086 14.959993299914538,10.55512321217902 14.939972244923949,10.569971838549733 14.924800314852998,10.582423119774893 14.906331086609185,10.599162652507648 14.899221521341309,10.60593152134131 13.553021521341309,11.95213152134131 13.546252652507647,11.959241086609184 13.529513119774894,11.977710314852997 13.517061838549733,11.99288224492395 13.50221321217902,12.012903299914539 13.491308996475086,12.029222611974388 13.478494276855454,12.050602680007563 13.469242140230834,12.067912210160122 13.458584740117445,12.090445389493198 13.451073785705521,12.10857843750085 13.442676341687411,12.132047721298948 13.436978904085114,12.15082965599668 13.430922288138673,12.175009022227213 13.427093236784621,12.194258963316843 13.423435777432308,12.218915551465228 13.421511988184228,12.238448111490817 13.420288908758968,12.263344465134532 13.420048,12.273158 13.420048,14.813158 13.420288908758968,14.822971534865468 13.421511988184228,14.847867888509183 13.423435777432308,14.867400448534772 13.427093236784621,14.892057036683157 13.430922288138673,14.911306977772787 13.436978904085114,14.93548634400332 13.442676341687411,14.954268278701052 13.451073785705521,14.97773756249915 13.458584740117445,14.995870610506802 13.469242140230834,15.018403789839878 13.478494276855454,15.035713319992437 13.491308996475086,15.057093388025612 13.50221321217902,15.073412700085461 13.517061838549733,15.09343375507605 13.529513119774894,15.108605685147003 13.546252652507647,15.127074913390816 13.553021521341309,15.13418447865869 15.024048,16.605210957317382 15.024048,18.10110504268262 13.685995042682618,19.439158 11.679048,19.439158 11.679048,19.043158 11.678084945334435,19.02355457193409 11.675205056080639,19.00413993559678 11.670436067146435,18.985101064549102 11.663823906502262,18.96662131352699 11.655432252869666,18.9488786526348 11.645341922460512,18.932043953396082 11.633650090672553,18.916279343167275 11.620469356237308,18.901736643762693 11.605926656832725,18.888555909327447 11.590162046603918,18.876864077539487 11.5733273473652,18.866773747130335 11.555584686473011,18.858382093497738 11.537104935450897,18.851769932853564 11.518066064403222,18.84700094391936 11.49865142806591,18.844121054665564 11.479048,18.843158 9.779048,18.843158 9.75944457193409,18.844121054665564 9.740029935596779,18.84700094391936 9.720991064549104,18.851769932853564 9.702511313526989,18.858382093497738 9.6847686526348,18.866773747130335 9.667933953396082,18.876864077539487 9.652169343167275,18.888555909327447 9.637626643762692,18.901736643762693 9.624445909327447,18.916279343167275 9.612754077539488,18.932043953396082 9.602663747130334,18.9488786526348 9.594272093497738,18.96662131352699 9.587659932853565,18.985101064549102 9.582890943919361,19.00413993559678 9.580011054665565,19.02355457193409 9.579048,19.043158 9.579048,20.743158 9.580011054665565,20.76276142806591 9.582890943919361,20.78217606440322 9.587659932853565,20.801214935450897 9.594272093497738,20.819694686473014 9.602663747130334,20.8374373473652 9.612754077539488,20.854272046603917 9.624445909327447,20.870036656832724 9.637626643762692,20.884579356237307 9.652169343167275,20.897760090672552 9.667933953396082,20.909451922460512 9.6847686526348,20.919542252869665 9.702511313526989,20.92793390650226 9.720991064549104,20.934546067146435 9.740029935596779,20.939315056080638 9.75944457193409,20.942194945334435 9.779048,20.943158 11.479048,20.943158 11.49865142806591,20.942194945334435 11.518066064403222,20.939315056080638 11.537104935450897,20.934546067146435 11.555584686473011,20.92793390650226 11.5733273473652,20.919542252869665 11.590162046603918,20.909451922460512 11.605926656832725,20.897760090672552 11.620469356237308,20.884579356237307 11.633650090672553,20.870036656832724 11.645341922460512,20.854272046603917 11.655432252869666,20.8374373473652 11.663823906502262,20.819694686473014 11.670436067146435,20.801214935450897 11.675205056080639,20.78217606440322 11.678084945334435,20.76276142806591 11.679048,20.743158 11.679048,20.347158 13.874048,20.347158 13.883861534865469,20.346917091241032 13.908757888509184,20.345694011815773 13.928290448534772,20.34377022256769 13.952947036683158,20.340112763215377 13.972196977772787,20.336283711861327 13.99637634400332,20.330227095914886 14.015158278701053,20.32452965831259 14.038627562499151,20.316132214294477 14.056760610506803,20.308621259882553 14.079293789839879,20.297963859769165 14.096603319992438,20.288711723144544 14.117983388025612,20.275897003524914 14.134302700085462,20.26499278782098 14.154323755076051,20.250144161450265 14.169495685147002,20.237692880225108 14.187964913390815,20.22095334749235 14.195074478658691,20.21418447865869 15.165049711630866,19.244209245686516 15.165991064549104,19.244546067146434 15.185029935596779,19.24931505608064 15.20444457193409,19.252194945334434 15.224048,19.253158 16.524048,19.253158 16.54365142806591,19.252194945334434 16.56306606440322,19.24931505608064 16.582104935450896,19.244546067146434 16.600584686473013,19.237933906502263 16.618327347365202,19.229542252869667 16.635162046603917,19.21945192246051 16.650926656832723,19.207760090672554 16.665469356237306,19.194579356237305 16.67865009067255,19.180036656832726 16.69034192246051,19.16427204660392 16.700432252869664,19.1474373473652 16.70882390650226,19.129694686473012 16.715436067146435,19.111214935450896 16.72020505608064,19.092176064403223 16.723084945334435,19.07276142806591 16.724048,19.053158 16.724048,15.653158 16.723084945334435,15.63355457193409 16.72020505608064,15.614139935596778 16.715436067146435,15.595101064549103 16.70882390650226,15.576621313526989 16.700432252869664,15.5588786526348 16.69034192246051,15.542043953396082 16.67865009067255,15.526279343167275 16.665469356237306,15.511736643762692 16.650926656832723,15.498555909327447 16.635162046603917,15.486864077539488 16.618327347365202,15.476773747130334 16.600584686473013,15.468382093497738 16.582104935450896,15.461769932853565 16.56306606440322,15.457000943919361 16.54365142806591,15.454121054665565 16.524048,15.453158 15.224048,15.453158 15.20444457193409,15.454121054665565 15.185029935596779,15.457000943919361 15.165991064549104,15.461769932853565 15.165049711630866,15.462106754313483 14.328048,14.625105042682618 14.328048,12.461210957317382 15.408300957317381,11.380958 15.934648,11.380958 15.934648,11.917558 15.935611054665566,11.937161428065911 15.93849094391936,11.95657606440322 15.943259932853564,11.975614935450897 15.949872093497738,11.994094686473012 15.958263747130335,12.011837347365201 15.96835407753949,12.028672046603917 15.980045909327448,12.044436656832724 15.993226643762693,12.058979356237307 16.007769343167276,12.072160090672552 16.023533953396083,12.08385192246051 16.0403686526348,12.093942252869665 16.05811131352699,12.102333906502261 16.076591064549103,12.108946067146436 16.09562993559678,12.11371505608064 16.11504457193409,12.116594945334434 16.134648,12.117558 16.693448,12.117558 16.71305142806591,12.116594945334434 16.73246606440322,12.11371505608064 16.751504935450896,12.108946067146436 16.769984686473013,12.102333906502261 16.787727347365202,12.093942252869665 16.80456204660392,12.08385192246051 16.820326656832727,12.072160090672552 16.834869356237306,12.058979356237307 16.84805009067255,12.044436656832724 16.85974192246051,12.028672046603917 16.869832252869667,12.011837347365201 16.87822390650226,11.994094686473012 16.884836067146434,11.975614935450897 16.88960505608064,11.95657606440322 16.892484945334434,11.937161428065911 16.893448,11.917558 16.893448,9.936358 16.892484945334434,9.916754571934089 16.88960505608064,9.89733993559678 16.884836067146434,9.878301064549103 16.87822390650226,9.859821313526988 16.869832252869667,9.8420786526348 16.85974192246051,9.825243953396082 16.84805009067255,9.809479343167276 16.834869356237306,9.794936643762693 16.820326656832727,9.781755909327448 16.80456204660392,9.77006407753949 16.787727347365202,9.759973747130335 16.769984686473013,9.751582093497738 16.751504935450896,9.744969932853564 16.73246606440322,9.74020094391936 16.71305142806591,9.737321054665566 16.693448,9.736358 16.134648,9.736358 16.11504457193409,9.737321054665566 16.09562993559678,9.74020094391936 16.076591064549103,9.744969932853564 16.05811131352699,9.751582093497738 16.0403686526348,9.759973747130335 16.023533953396083,9.77006407753949 16.007769343167276,9.781755909327448 15.993226643762693,9.794936643762693 15.980045909327448,9.809479343167276 15.96835407753949,9.825243953396082 15.958263747130335,9.8420786526348 15.949872093497738,9.859821313526988 15.943259932853564,9.878301064549103 15.93849094391936,9.89733993559678 15.935611054665566,9.916754571934089 15.934648,9.936358 15.934648,10.472958 15.220248,10.472958 15.210434465134531,10.473198908758969 15.185538111490816,10.474421988184229" opacity="1" /><polyline fill="none" stroke="#66cc99" stroke-width="0.4" points="15.69303446513453,5.5455989087589685 15.668138111490816,5.546821988184228 15.648605551465229,5.548745777432307 15.623948963316844,5.552403236784622 15.604699022227212,5.5562322881386725 15.58051965599668,5.562288904085115 15.561737721298949,5.567986341687411 15.53826843750085,5.576383785705522 15.520135389493197,5.5838947401174455 15.497602210160121,5.594552140230834 15.480292680007562,5.6038042768554535 15.45891261197439,5.6166189964750854 15.442593299914538,5.62752321217902 15.422572244923948,5.6423718385497335 15.407400314852998,5.654823119774893 15.388931086609185,5.671562652507648 15.381821521341308,5.678331521341309 11.780995042682617,9.279158 11.573990031419456,9.279158 11.4899165984063,9.133540164548933 11.478515301310301,9.115983815255344 11.465341388469323,9.099715348934025 11.346438388469323,8.967659348934024 11.33163553218332,8.952856404891968 11.315366433244572,8.939681879236057 11.17160543324457,8.835232879236058 11.154047918219998,8.823830872027441 11.13539472383593,8.814326639207616 10.97305872383593,8.742050639207616 10.953515336001187,8.734548676312045 10.933294856380074,8.72913059000428 10.759479856380075,8.69218459000428 10.738802956099347,8.688909648615793 10.717897,8.687814 10.540199,8.687814 10.519293043900653,8.688909648615793 10.498616143619925,8.69218459000428 10.324801143619926,8.72913059000428 10.304580663998813,8.734548676312045 10.28503727616407,8.742050639207616 10.12270127616407,8.814326639207616 10.104048081780002,8.823830872027441 10.08649056675543,8.835232879236058 9.942729566755428,8.939681879236057 9.92646046781668,8.952856404891968 9.911657611530677,8.967659348934024 9.792754611530677,9.099715348934025 9.7795806986897,9.115983815255344 9.7681794015937,9.133540164548933 9.6793294015937,9.287431164548934 9.6698249406133,9.30608459919317 9.662322447474002,9.325629368295132 9.607411447474004,9.494630368295134 9.601993448828102,9.51485080779849 9.598718674048781,9.535526801926478 9.58014367404878,9.71225180192648 9.579048,9.733158 9.58014367404878,9.754064198073522 9.598718674048781,9.930789198073521 9.601993448828102,9.95146519220151 9.607411447474004,9.971685631704867 9.662322447474002,10.140686631704867 9.6698249406133,10.160231400806829 9.6793294015937,10.178884835451067 9.7681794015937,10.332775835451066 9.7795806986897,10.350332184744657 9.792754611530677,10.366600651065976 9.911657611530677,10.498656651065975 9.92646046781668,10.513459595108031 9.942729566755428,10.526634120763942 10.08649056675543,10.631083120763943 10.104048081780002,10.642485127972558 10.12270127616407,10.651989360792383 10.28503727616407,10.724265360792383 10.304580663998813,10.731767323687956 10.324801143619926,10.73718540999572 10.498616143619925,10.77413140999572 10.519293043900653,10.777406351384208 10.540199,10.778502 10.717897,10.778502 10.738802956099347,10.777406351384208 10.759479856380075,10.77413140999572 10.933294856380074,10.73718540999572 10.953515336001187,10.731767323687956 10.97305872383593,10.724265360792383 11.13539472383593,10.651989360792383 11.154047918219998,10.642485127972558 11.17160543324457,10.631083120763943 11.315366433244572,10.526634120763942 11.33163553218332,10.513459595108031 11.346438388469323,10.498656651065975 11.465341388469323,10.366600651065976 11.478515301310301,10.350332184744657 11.4899165984063,10.332775835451066 11.573990031419456,10.187158 11.969048,10.187158 11.97886153486547,10.186917091241032 12.003757888509185,10.185694011815771 12.023290448534771,10.183770222567693 12.047947036683157,10.180112763215378 12.067196977772786,10.176283711861327 12.08944122458771,10.17071181809491" opacity="1" /><polyline fill="none" stroke="#66cc99" stroke-width="0.4" points="12.08944122458771,10.17071181809491 12.09137634400332,10.170227095914885 12.110158278701052,10.164529658312588 12.13362756249915,10.156132214294479 12.151760610506804,10.148621259882555 12.17429378983988,10.137963859769165 12.191603319992439,10.128711723144546 12.212983388025611,10.115897003524914 12.22930270008546,10.10499278782098 12.24932375507605,10.090144161450267 12.264495685147002,10.077692880225108 12.282964913390815,10.060953347492353 12.29007447865869,10.05418447865869 15.20765477541229,7.136604181905091" opacity="1" /><polyline fill="none" stroke="#66cc99" stroke-width="0.4" points="15.20765477541229,7.136604181905091 15.890900957317383,6.453358 15.934648,6.453358 15.934648,6.989958 15.935611054665566,7.009561428065911 15.93849094391936,7.028976064403221 15.943259932853564,7.0480149354508965 15.949872093497738,7.066494686473012 15.958263747130335,7.0842373473652005 15.96835407753949,7.101072046603918 15.980045909327448,7.116836656832724 15.983056199304446,7.120158" opacity="1" /><polyline fill="none" stroke="#66cc99" stroke-width="0.4" points="15.983056199304446,7.120158 15.993226643762693,7.131379356237307 16.007769343167276,7.144560090672552 16.023533953396083,7.156251922460512 16.0403686526348,7.166342252869666 16.05811131352699,7.1747339065022615 16.076591064549103,7.1813460671464355 16.09562993559678,7.18611505608064 16.11504457193409,7.188994945334435 16.134648,7.189958 16.693448,7.189958 16.71305142806591,7.188994945334435 16.73246606440322,7.18611505608064 16.751504935450896,7.1813460671464355 16.769984686473013,7.1747339065022615 16.787727347365202,7.166342252869666 16.80456204660392,7.156251922460512 16.820326656832727,7.144560090672552 16.834869356237306,7.131379356237307 16.845039800695552,7.120158" opacity="1" /><polyline fill="none" stroke="#66cc99" stroke-width="0.4" points="16.845039800695552,7.120158 16.84805009067255,7.116836656832724 16.85974192246051,7.101072046603918 16.869832252869667,7.0842373473652005 16.87822390650226,7.066494686473012 16.884836067146434,7.0480149354508965 16.88960505608064,7.028976064403221 16.892484945334434,7.009561428065911 16.893448,6.989958 16.893448,5.008758 16.892484945334434,4.989154571934089 16.88960505608064,4.969739935596779 16.884836067146434,4.950701064549103 16.87822390650226,4.932221313526988 16.869832252869667,4.914478652634799 16.85974192246051,4.897643953396082 16.84805009067255,4.881879343167276 16.834869356237306,4.867336643762693 16.820326656832727,4.854155909327448 16.80456204660392,4.842464077539488 16.787727347365202,4.832373747130334 16.769984686473013,4.823982093497738 16.751504935450896,4.817369932853564 16.73246606440322,4.81260094391936 16.71305142806591,4.809721054665565 16.693448,4.808758 16.134648,4.808758 16.11504457193409,4.809721054665565 16.09562993559678,4.81260094391936 16.076591064549103,4.817369932853564 16.05811131352699,4.823982093497738 16.0403686526348,4.832373747130334 16.023533953396083,4.842464077539488 16.007769343167276,4.854155909327448 15.993226643762693,4.867336643762693 15.980045909327448,4.881879343167276 15.96835407753949,4.897643953396082 15.958263747130335,4.914478652634799 15.949872093497738,4.932221313526988 15.943259932853564,4.950701064549103 15.93849094391936,4.969739935596779 15.935611054665566,4.989154571934089 15.934648,5.008758 15.934648,5.545358 15.702848,5.545358 15.69303446513453,5.5455989087589685" opacity="1" /><polyline fill="none" stroke="#66cc99" stroke-width="0.4" points="35.500444571934075,3.6831210546655653 35.481029935596766,3.686000943919361 35.46199106454912,3.6907699328535646 35.44351131352699,3.697382093497738 35.4257686526348,3.7057737471303343 35.40893395339608,3.715864077539489 35.39316934316727,3.7275559093274473 35.37862664376268,3.740736643762693 35.36544590932745,3.7552793431672753 35.353754077539506,3.771043953396082 35.343663747130336,3.7878786526347996 35.33527209349775,3.805621313526988 35.32865993285355,3.8241010645491036 35.32389094391936,3.843139935596779 35.32101105466557,3.8625545719340892 35.320048,3.882158 35.320048,5.482158 35.32101105466557,5.501761428065911 35.32389094391936,5.521176064403221 35.32865993285355,5.540214935450897 35.33527209349775,5.558694686473012 35.343663747130336,5.576437347365201 35.353754077539506,5.593272046603918 35.36544590932745,5.609036656832725 35.37862664376268,5.6235793562373075 35.39316934316727,5.636760090672553 35.40893395339608,5.648451922460511 35.4257686526348,5.658542252869665 35.44351131352699,5.666933906502262 35.46199106454912,5.673546067146435 35.481029935596766,5.678315056080639 35.500444571934075,5.681194945334434 35.520048,5.682158 38.520048,5.682158 38.53965142806592,5.681194945334434 38.55906606440323,5.678315056080639 38.57810493545088,5.673546067146435 38.596584686473015,5.666933906502262 38.6143273473652,5.658542252869665 38.63116204660392,5.648451922460511 38.646926656832726,5.636760090672553 38.66146935623732,5.6235793562373075 38.67465009067255,5.609036656832725 38.6863419224605,5.593272046603918 38.69643225286966,5.576437347365201 38.70482390650225,5.558694686473012 38.71143606714645,5.540214935450897 38.71620505608064,5.521176064403221 38.71908494533444,5.501761428065911 38.720048,5.482158 38.720048,3.882158 38.71908494533444,3.8625545719340892 38.71620505608064,3.843139935596779 38.71143606714645,3.8241010645491036 38.70482390650225,3.805621313526988 38.69643225286966,3.7878786526347996 38.6863419224605,3.771043953396082 38.67465009067255,3.7552793431672753 38.66146935623732,3.740736643762693 38.646926656832726,3.7275559093274473 38.63116204660392,3.715864077539489 38.6143273473652,3.7057737471303343 38.596584686473015,3.697382093497738 38.57810493545088,3.6907699328535646 38.55906606440323,3.686000943919361 38.53965142806592,3.6831210546655653 38.520048,3.682158 35.520048,3.682158 35.500444571934075,3.6831210546655653" opacity="1" /><polyline fill="none" stroke="#66cc99" stroke-width="0.4" points="35.500444571934075,10.483121054665565 35.481029935596766,10.486000943919361 35.46199106454912,10.490769932853565 35.44351131352699,10.497382093497738 35.4257686526348,10.505773747130334 35.40893395339608,10.515864077539488 35.39316934316727,10.527555909327447 35.37862664376268,10.540736643762692 35.36544590932745,10.555279343167275 35.353754077539506,10.571043953396082 35.343663747130336,10.5878786526348 35.33527209349775,10.605621313526989 35.32865993285355,10.624101064549103 35.32389094391936,10.643139935596778 35.32101105466557,10.66255457193409 35.320048,10.682158 35.320048,12.282158 35.32101105466557,12.30176142806591 35.32389094391936,12.321176064403222 35.32865993285355,12.340214935450897 35.33527209349775,12.358694686473012 35.343663747130336,12.3764373473652 35.353754077539506,12.393272046603919 35.36544590932745,12.409036656832725 35.37862664376268,12.423579356237306 35.39316934316727,12.436760090672552 35.40893395339608,12.448451922460512 35.4257686526348,12.458542252869666 35.44351131352699,12.466933906502263 35.46199106454912,12.473546067146435 35.481029935596766,12.478315056080639 35.500444571934075,12.481194945334435 35.520048,12.482158 38.520048,12.482158 38.53965142806592,12.481194945334435 38.55906606440323,12.478315056080639 38.57810493545088,12.473546067146435 38.596584686473015,12.466933906502263 38.6143273473652,12.458542252869666 38.63116204660392,12.448451922460512 38.646926656832726,12.436760090672552 38.66146935623732,12.423579356237306 38.67465009067255,12.409036656832725 38.6863419224605,12.393272046603919 38.69643225286966,12.3764373473652 38.70482390650225,12.358694686473012 38.71143606714645,12.340214935450897 38.71620505608064,12.321176064403222 38.71908494533444,12.30176142806591 38.720048,12.282158 38.720048,10.682158 38.71908494533444,10.66255457193409 38.71620505608064,10.643139935596778 38.71143606714645,10.624101064549103 38.70482390650225,10.605621313526989 38.69643225286966,10.5878786526348 38.6863419224605,10.571043953396082 38.67465009067255,10.555279343167275 38.66146935623732,10.540736643762692 38.646926656832726,10.527555909327447 38.63116204660392,10.515864077539488 38.6143273473652,10.505773747130334 38.596584686473015,10.497382093497738 38.57810493545088,10.490769932853565 38.55906606440323,10.486000943919361 38.53965142806592,10.483121054665565 38.520048,10.482158 35.520048,10.482158 35.500444571934075,10.483121054665565" opacity="1" /><polyline fill="none" stroke="#66cc99" stroke-width="0.4" points="35.500444571934075,12.954121054665565 35.481029935596766,12.957000943919361 35.46199106454912,12.961769932853565 35.44351131352699,12.968382093497738 35.4257686526348,12.976773747130334 35.40893395339608,12.986864077539488 35.39316934316727,12.998555909327447 35.37862664376268,13.011736643762692 35.36544590932745,13.026279343167275 35.353754077539506,13.042043953396082 35.343663747130336,13.0588786526348 35.33527209349775,13.076621313526989 35.32865993285355,13.095101064549103 35.32389094391936,13.114139935596778 35.32101105466557,13.13355457193409 35.320048,13.153158 35.320048,14.753158 35.32101105466557,14.77276142806591 35.32389094391936,14.792176064403222 35.32865993285355,14.811214935450897 35.33527209349775,14.829694686473012 35.343663747130336,14.8474373473652 35.353754077539506,14.864272046603919 35.36544590932745,14.880036656832726 35.37862664376268,14.894579356237307 35.39316934316727,14.907760090672552 35.40893395339608,14.919451922460512 35.4257686526348,14.929542252869666 35.44351131352699,14.937933906502261 35.46199106454912,14.944546067146435 35.481029935596766,14.94931505608064 35.500444571934075,14.952194945334435 35.520048,14.953158 38.520048,14.953158 38.53965142806592,14.952194945334435 38.55906606440323,14.94931505608064 38.57810493545088,14.944546067146435 38.596584686473015,14.937933906502261 38.6143273473652,14.929542252869666 38.63116204660392,14.919451922460512 38.646926656832726,14.907760090672552 38.66146935623732,14.894579356237307 38.67465009067255,14.880036656832726 38.6863419224605,14.864272046603919 38.69643225286966,14.8474373473652 38.70482390650225,14.829694686473012 38.71143606714645,14.811214935450897 38.71620505608064,14.792176064403222 38.71908494533444,14.77276142806591 38.720048,14.753158 38.720048,13.153158 38.71908494533444,13.13355457193409 38.71620505608064,13.114139935596778 38.71143606714645,13.095101064549103 38.70482390650225,13.076621313526989 38.69643225286966,13.0588786526348 38.6863419224605,13.042043953396082 38.67465009067255,13.026279343167275 38.66146935623732,13.011736643762692 38.646926656832726,12.998555909327447 38.63116204660392,12.986864077539488 38.6143273473652,12.976773747130334 38.596584686473015,12.968382093497738 38.57810493545088,12.961769932853565 38.55906606440323,12.957000943919361 38.53965142806592,12.954121054665565 38.520048,12.953158 35.520048,12.953158 35.500444571934075,12.954121054665565" opacity="1" /><polyline fill="none" stroke="#66cc99" stroke-width="0.4" points="35.500444571934075,19.754121054665564 35.481029935596766,19.757000943919362 35.46199106454912,19.761769932853564 35.44351131352699,19.76838209349774 35.4257686526348,19.776773747130335 35.40893395339608,19.786864077539487 35.39316934316727,19.798555909327447 35.37862664376268,19.811736643762693 35.36544590932745,19.826279343167275 35.353754077539506,19.842043953396082 35.343663747130336,19.8588786526348 35.33527209349775,19.87662131352699 35.32865993285355,19.895101064549102 35.32389094391936,19.91413993559678 35.32101105466557,19.93355457193409 35.320048,19.953158 35.320048,21.553158 35.32101105466557,21.57276142806591 35.32389094391936,21.592176064403223 35.32865993285355,21.611214935450896 35.33527209349775,21.629694686473012 35.343663747130336,21.6474373473652 35.353754077539506,21.66427204660392 35.36544590932745,21.680036656832726 35.37862664376268,21.694579356237305 35.39316934316727,21.707760090672554 35.40893395339608,21.71945192246051 35.4257686526348,21.729542252869667 35.44351131352699,21.737933906502263 35.46199106454912,21.744546067146434 35.481029935596766,21.74931505608064 35.500444571934075,21.752194945334434 35.520048,21.753158 38.520048,21.753158 38.53965142806592,21.752194945334434 38.55906606440323,21.74931505608064 38.57810493545088,21.744546067146434 38.596584686473015,21.737933906502263 38.6143273473652,21.729542252869667 38.63116204660392,21.71945192246051 38.646926656832726,21.707760090672554 38.66146935623732,21.694579356237305 38.67465009067255,21.680036656832726 38.6863419224605,21.66427204660392 38.69643225286966,21.6474373473652 38.70482390650225,21.629694686473012 38.71143606714645,21.611214935450896 38.71620505608064,21.592176064403223 38.71908494533444,21.57276142806591 38.720048,21.553158 38.720048,19.953158 38.71908494533444,19.93355457193409 38.71620505608064,19.91413993559678 38.71143606714645,19.895101064549102 38.70482390650225,19.87662131352699 38.69643225286966,19.8588786526348 38.6863419224605,19.842043953396082 38.67465009067255,19.826279343167275 38.66146935623732,19.811736643762693 38.646926656832726,19.798555909327447 38.63116204660392,19.786864077539487 38.6143273473652,19.776773747130335 38.596584686473015,19.76838209349774 38.57810493545088,19.761769932853564 38.55906606440323,19.757000943919362 38.53965142806592,19.754121054665564 38.520048,19.753158 35.520048,19.753158 35.500444571934075,19.754121054665564" opacity="1" /><polyline fill="none" stroke="#66cc99" stroke-width="0.4" points="23.043448,9.736358 22.484648,9.736358 22.46504457193409,9.737321054665566 22.445629935596777,9.74020094391936 22.426591064549104,9.744969932853564 22.408111313526987,9.751582093497738 22.3903686526348,9.759973747130335 22.37353395339608,9.77006407753949 22.357769343167273,9.781755909327448 22.343226643762694,9.794936643762693 22.33004590932745,9.809479343167276 22.31835407753949,9.825243953396082 22.308263747130333,9.8420786526348 22.29987209349774,9.859821313526988 22.293259932853566,9.878301064549103 22.28849094391936,9.89733993559678 22.285611054665566,9.916754571934089 22.284648,9.936358 22.284648,11.917558 22.285611054665566,11.937161428065911 22.28849094391936,11.95657606440322 22.293259932853566,11.975614935450897 22.29987209349774,11.994094686473012 22.308263747130333,12.011837347365201 22.31835407753949,12.028672046603917 22.33004590932745,12.044436656832724 22.343226643762694,12.058979356237307 22.357769343167273,12.072160090672552 22.37353395339608,12.08385192246051 22.3903686526348,12.093942252869665 22.408111313526987,12.102333906502261 22.426591064549104,12.108946067146436 22.445629935596777,12.11371505608064 22.46504457193409,12.116594945334434 22.484648,12.117558 23.043448,12.117558 23.06305142806591,12.116594945334434 23.08246606440322,12.11371505608064 23.101504935450897,12.108946067146436 23.11998468647301,12.102333906502261 23.1377273473652,12.093942252869665 23.154562046603917,12.08385192246051 23.170326656832724,12.072160090672552 23.184869356237307,12.058979356237307 23.198050090672552,12.044436656832724 23.209741922460513,12.028672046603917 23.219832252869665,12.011837347365201 23.22822390650226,11.994094686473012 23.234836067146436,11.975614935450897 23.239605056080638,11.95657606440322 23.242484945334436,11.937161428065911 23.243448,11.917558 23.243448,9.936358 23.242484945334436,9.916754571934089 23.239605056080638,9.89733993559678 23.234836067146436,9.878301064549103 23.22822390650226,9.859821313526988 23.219832252869665,9.8420786526348 23.209741922460513,9.825243953396082 23.198050090672552,9.809479343167276 23.184869356237307,9.794936643762693 23.170326656832724,9.781755909327448 23.154562046603917,9.77006407753949 23.1377273473652,9.759973747130335 23.11998468647301,9.751582093497738 23.101504935450897,9.744969932853564 23.08246606440322,9.74020094391936 23.06305142806591,9.737321054665566 23.043448,9.736358" opacity="1" /><polyline fill="none" stroke="#66cc99" stroke-width="0.4" points="37.520048,15.653158 32.020048,15.653158 32.000444571934075,15.654121054665566 31.981029935596766,15.65700094391936 31.961991064549117,15.661769932853565 31.943511313526987,15.668382093497739 31.9257686526348,15.676773747130335 31.908933953396083,15.68686407753949 31.893169343167276,15.698555909327448 31.87862664376268,15.711736643762693 31.86544590932745,15.726279343167276 31.853754077539502,15.742043953396083 31.843663747130336,15.758878652634799 31.835272093497753,15.776621313526988 31.82865993285355,15.795101064549103 31.82389094391936,15.81413993559678 31.821011054665565,15.833554571934089 31.820048,15.853158 31.820048,16.853158 31.821011054665565,16.87276142806591 31.82389094391936,16.89217606440322 31.82865993285355,16.911214935450896 31.835272093497753,16.929694686473013 31.843663747130336,16.947437347365202 31.853754077539502,16.964272046603917 31.86544590932745,16.980036656832723 31.87862664376268,16.994579356237306 31.893169343167276,17.00776009067255 31.908933953396083,17.01945192246051 31.9257686526348,17.029542252869664 31.943511313526987,17.03793390650226 31.961991064549117,17.044546067146435 31.981029935596766,17.04931505608064 32.000444571934075,17.052194945334435 32.020048,17.053158 37.520048,17.053158 37.53965142806592,17.052194945334435 37.55906606440323,17.04931505608064 37.57810493545088,17.044546067146435 37.596584686473015,17.03793390650226 37.6143273473652,17.029542252869664 37.63116204660392,17.01945192246051 37.646926656832726,17.00776009067255 37.66146935623732,16.994579356237306 37.67465009067255,16.980036656832723 37.6863419224605,16.964272046603917 37.69643225286966,16.947437347365202 37.70482390650225,16.929694686473013 37.71143606714645,16.911214935450896 37.71620505608064,16.89217606440322 37.71908494533444,16.87276142806591 37.720048,16.853158 37.720048,15.853158 37.71908494533444,15.833554571934089 37.71620505608064,15.81413993559678 37.71143606714645,15.795101064549103 37.70482390650225,15.776621313526988 37.69643225286966,15.758878652634799 37.6863419224605,15.742043953396083 37.67465009067255,15.726279343167276 37.66146935623732,15.711736643762693 37.646926656832726,15.698555909327448 37.63116204660392,15.68686407753949 37.6143273473652,15.676773747130335 37.596584686473015,15.668382093497739 37.57810493545088,15.661769932853565 37.55906606440323,15.65700094391936 37.53965142806592,15.654121054665566 37.520048,15.653158" opacity="1" /><polyline fill="none" stroke="#66cc99" stroke-width="0.4" points="37.520048,8.382158 32.020048,8.382158 32.000444571934075,8.383121054665565 31.981029935596766,8.386000943919361 31.961991064549117,8.390769932853564 31.943511313526987,8.397382093497738 31.9257686526348,8.405773747130334 31.908933953396083,8.415864077539489 31.893169343167276,8.427555909327447 31.87862664376268,8.440736643762692 31.86544590932745,8.455279343167275 31.853754077539502,8.471043953396082 31.843663747130336,8.4878786526348 31.835272093497753,8.505621313526989 31.82865993285355,8.524101064549104 31.82389094391936,8.543139935596779 31.821011054665565,8.56255457193409 31.820048,8.582158 31.820048,9.582158 31.821011054665565,9.601761428065911 31.82389094391936,9.62117606440322 31.82865993285355,9.640214935450897 31.835272093497753,9.658694686473012 31.843663747130336,9.6764373473652 31.853754077539502,9.693272046603918 31.86544590932745,9.709036656832724 31.87862664376268,9.723579356237307 31.893169343167276,9.736760090672552 31.908933953396083,9.74845192246051 31.9257686526348,9.758542252869665 31.943511313526987,9.766933906502262 31.961991064549117,9.773546067146436 31.981029935596766,9.77831505608064 32.000444571934075,9.781194945334434 32.020048,9.782158 37.520048,9.782158 37.53965142806592,9.781194945334434 37.55906606440323,9.77831505608064 37.57810493545088,9.773546067146436 37.596584686473015,9.766933906502262 37.6143273473652,9.758542252869665 37.63116204660392,9.74845192246051 37.646926656832726,9.736760090672552 37.66146935623732,9.723579356237307 37.67465009067255,9.709036656832724 37.6863419224605,9.693272046603918 37.69643225286966,9.6764373473652 37.70482390650225,9.658694686473012 37.71143606714645,9.640214935450897 37.71620505608064,9.62117606440322 37.71908494533444,9.601761428065911 37.720048,9.582158 37.720048,8.582158 37.71908494533444,8.56255457193409 37.71620505608064,8.543139935596779 37.71143606714645,8.524101064549104 37.70482390650225,8.505621313526989 37.69643225286966,8.4878786526348 37.6863419224605,8.471043953396082 37.67465009067255,8.455279343167275 37.66146935623732,8.440736643762692 37.646926656832726,8.427555909327447 37.63116204660392,8.415864077539489 37.6143273473652,8.405773747130334 37.596584686473015,8.397382093497738 37.57810493545088,8.390769932853564 37.55906606440323,8.386000943919361 37.53965142806592,8.383121054665565 37.520048,8.382158" opacity="1" /></g>
                        <rect width="40.0" height="20.0" x="3" y="3" stroke-width="0.1" fill="none" stroke="black"/>
                    </g>
                    </svg>