%TF.GenerationSoftware,KiCad,Pcbnew,7.0.11*%
%TF.CreationDate,2024-11-14T13:48:53-05:00*%
%TF.ProjectId,IO_watch,494f5f77-6174-4636-982e-6b696361645f,rev?*%
%TF.SameCoordinates,Original*%
%TF.FileFunction,Paste,Top*%
%TF.FilePolarity,Positive*%
%FSLAX46Y46*%
G04 Gerber Fmt 4.6, Leading zero omitted, Abs format (unit mm)*
G04 Created by KiCad (PCBNEW 7.0.11) date 2024-11-14 13:48:53*
%MOMM*%
%LPD*%
G01*
G04 APERTURE LIST*
G04 Aperture macros list*
%AMRoundRect*
0 Rectangle with rounded corners*
0 $1 Rounding radius*
0 $2 $3 $4 $5 $6 $7 $8 $9 X,Y pos of 4 corners*
0 Add a 4 corners polygon primitive as box body*
4,1,4,$2,$3,$4,$5,$6,$7,$8,$9,$2,$3,0*
0 Add four circle primitives for the rounded corners*
1,1,$1+$1,$2,$3*
1,1,$1+$1,$4,$5*
1,1,$1+$1,$6,$7*
1,1,$1+$1,$8,$9*
0 Add four rect primitives between the rounded corners*
20,1,$1+$1,$2,$3,$4,$5,0*
20,1,$1+$1,$4,$5,$6,$7,0*
20,1,$1+$1,$6,$7,$8,$9,0*
20,1,$1+$1,$8,$9,$2,$3,0*%
G04 Aperture macros list end*
%ADD10RoundRect,0.218750X0.317568X0.112544X-0.061318X0.331294X-0.317568X-0.112544X0.061318X-0.331294X0*%
%ADD11RoundRect,0.200000X0.338157X-0.035705X0.138157X0.310705X-0.338157X0.035705X-0.138157X-0.310705X0*%
%ADD12RoundRect,0.218750X-0.331294X0.061318X-0.112544X-0.317568X0.331294X-0.061318X0.112544X0.317568X0*%
%ADD13RoundRect,0.200000X-0.200000X-0.275000X0.200000X-0.275000X0.200000X0.275000X-0.200000X0.275000X0*%
%ADD14RoundRect,0.218750X0.331294X-0.061318X0.112544X0.317568X-0.331294X0.061318X-0.112544X-0.317568X0*%
%ADD15RoundRect,0.200000X-0.275000X0.200000X-0.275000X-0.200000X0.275000X-0.200000X0.275000X0.200000X0*%
%ADD16RoundRect,0.200000X-0.035705X-0.338157X0.310705X-0.138157X0.035705X0.338157X-0.310705X0.138157X0*%
%ADD17RoundRect,0.218750X-0.256250X0.218750X-0.256250X-0.218750X0.256250X-0.218750X0.256250X0.218750X0*%
%ADD18RoundRect,0.200000X0.035705X0.338157X-0.310705X0.138157X-0.035705X-0.338157X0.310705X-0.138157X0*%
%ADD19RoundRect,0.200000X-0.138157X0.310705X-0.338157X-0.035705X0.138157X-0.310705X0.338157X0.035705X0*%
%ADD20RoundRect,0.218750X-0.317568X-0.112544X0.061318X-0.331294X0.317568X0.112544X-0.061318X0.331294X0*%
%ADD21RoundRect,0.218750X0.112544X-0.317568X0.331294X0.061318X-0.112544X0.317568X-0.331294X-0.061318X0*%
%ADD22RoundRect,0.200000X0.200000X0.275000X-0.200000X0.275000X-0.200000X-0.275000X0.200000X-0.275000X0*%
%ADD23RoundRect,0.250000X-0.475000X0.250000X-0.475000X-0.250000X0.475000X-0.250000X0.475000X0.250000X0*%
%ADD24R,1.981200X0.533400*%
%ADD25RoundRect,0.200000X0.138157X-0.310705X0.338157X0.035705X-0.138157X0.310705X-0.338157X-0.035705X0*%
%ADD26RoundRect,0.200000X0.275000X-0.200000X0.275000X0.200000X-0.275000X0.200000X-0.275000X-0.200000X0*%
%ADD27RoundRect,0.200000X-0.310705X-0.138157X0.035705X-0.338157X0.310705X0.138157X-0.035705X0.338157X0*%
%ADD28RoundRect,0.200000X0.310705X0.138157X-0.035705X0.338157X-0.310705X-0.138157X0.035705X-0.338157X0*%
%ADD29RoundRect,0.218750X-0.112544X0.317568X-0.331294X-0.061318X0.112544X-0.317568X0.331294X0.061318X0*%
%ADD30RoundRect,0.200000X-0.338157X0.035705X-0.138157X-0.310705X0.338157X-0.035705X0.138157X0.310705X0*%
%ADD31RoundRect,0.050000X-0.150000X0.685000X-0.150000X-0.685000X0.150000X-0.685000X0.150000X0.685000X0*%
%ADD32RoundRect,0.050000X-0.685000X0.150000X-0.685000X-0.150000X0.685000X-0.150000X0.685000X0.150000X0*%
%ADD33RoundRect,0.218750X0.218750X0.256250X-0.218750X0.256250X-0.218750X-0.256250X0.218750X-0.256250X0*%
%ADD34RoundRect,0.218750X-0.061318X-0.331294X0.317568X-0.112544X0.061318X0.331294X-0.317568X0.112544X0*%
%ADD35RoundRect,0.218750X0.256250X-0.218750X0.256250X0.218750X-0.256250X0.218750X-0.256250X-0.218750X0*%
%ADD36RoundRect,0.218750X-0.218750X-0.256250X0.218750X-0.256250X0.218750X0.256250X-0.218750X0.256250X0*%
%ADD37RoundRect,0.218750X0.061318X0.331294X-0.317568X0.112544X-0.061318X-0.331294X0.317568X-0.112544X0*%
G04 APERTURE END LIST*
D10*
%TO.C,4*%
X146539776Y-89893750D03*
X145188486Y-89084253D03*
%TD*%
D11*
%TO.C,R5*%
X142131719Y-94947473D03*
X141306719Y-93518531D03*
%TD*%
D12*
%TO.C,D11*%
X124973650Y-68327624D03*
X125739153Y-69704314D03*
%TD*%
D13*
%TO.C,R9*%
X117022400Y-83549400D03*
X118672400Y-83549400D03*
%TD*%
D14*
%TO.C,5*%
X140761150Y-95672376D03*
X139995647Y-94295686D03*
%TD*%
D15*
%TO.C,R12*%
X131318000Y-66155000D03*
X131318000Y-67805000D03*
%TD*%
D16*
%TO.C,R8*%
X119919927Y-91264319D03*
X121348869Y-90439319D03*
%TD*%
D17*
%TO.C,12*%
X132867400Y-66212500D03*
X132842000Y-67787500D03*
%TD*%
D18*
%TO.C,R2*%
X145814873Y-72735681D03*
X144385931Y-73560681D03*
%TD*%
D19*
%TO.C,R1*%
X139448081Y-67503127D03*
X138623081Y-68932069D03*
%TD*%
D20*
%TO.C,D10*%
X119195024Y-74106250D03*
X120546314Y-74915747D03*
%TD*%
D21*
%TO.C,D7*%
X124973650Y-95672376D03*
X125783147Y-94321086D03*
%TD*%
D22*
%TO.C,R13*%
X142366000Y-76962000D03*
X140716000Y-76962000D03*
%TD*%
D23*
%TO.C,C2*%
X143256000Y-78806000D03*
X143256000Y-80706000D03*
%TD*%
D22*
%TO.C,R14*%
X142557000Y-84836000D03*
X140907000Y-84836000D03*
%TD*%
D24*
%TO.C,U2*%
X128143000Y-82931000D03*
X128143000Y-84201000D03*
X128143000Y-85471000D03*
X128143000Y-86741000D03*
X128143000Y-88011000D03*
X128143000Y-89281000D03*
X128143000Y-90551000D03*
X128143000Y-91821000D03*
X137541000Y-91821000D03*
X137541000Y-90551000D03*
X137541000Y-89281000D03*
X137541000Y-88011000D03*
X137541000Y-86741000D03*
X137541000Y-85471000D03*
X137541000Y-84201000D03*
X137541000Y-82931000D03*
%TD*%
D25*
%TO.C,R7*%
X126286719Y-96496873D03*
X127111719Y-95067931D03*
%TD*%
D26*
%TO.C,R6*%
X134416800Y-97845000D03*
X134416800Y-96195000D03*
%TD*%
D13*
%TO.C,R15*%
X140907000Y-83058000D03*
X142557000Y-83058000D03*
%TD*%
D27*
%TO.C,R10*%
X118370527Y-75419319D03*
X119799469Y-76244319D03*
%TD*%
D22*
%TO.C,R3*%
X148712400Y-80450600D03*
X147062400Y-80450600D03*
%TD*%
D28*
%TO.C,R4*%
X145935331Y-87755681D03*
X147364273Y-88580681D03*
%TD*%
D29*
%TO.C,1*%
X140761150Y-68327624D03*
X139951653Y-69678914D03*
%TD*%
D30*
%TO.C,R11*%
X123603081Y-69052527D03*
X124428081Y-70481469D03*
%TD*%
D23*
%TO.C,C1*%
X140970000Y-78806000D03*
X140970000Y-80706000D03*
%TD*%
D31*
%TO.C,U1*%
X135642000Y-71522000D03*
X134842000Y-71522000D03*
X134042000Y-71522000D03*
X133242000Y-71522000D03*
X132442000Y-71522000D03*
X131642000Y-71522000D03*
X130842000Y-71522000D03*
X130042000Y-71522000D03*
D32*
X128672000Y-72892000D03*
X128672000Y-73692000D03*
X128672000Y-74492000D03*
X128672000Y-75292000D03*
X128672000Y-76092000D03*
X128672000Y-76892000D03*
X128672000Y-77692000D03*
X128672000Y-78492000D03*
D31*
X130042000Y-79862000D03*
X130842000Y-79862000D03*
X131642000Y-79862000D03*
X132442000Y-79862000D03*
X133242000Y-79862000D03*
X134042000Y-79862000D03*
X134842000Y-79862000D03*
X135642000Y-79862000D03*
D32*
X137012000Y-78492000D03*
X137012000Y-77692000D03*
X137012000Y-76892000D03*
X137012000Y-76092000D03*
X137012000Y-75292000D03*
X137012000Y-74492000D03*
X137012000Y-73692000D03*
X137012000Y-72892000D03*
%TD*%
D33*
%TO.C,3*%
X148654900Y-82000000D03*
X147079900Y-81974600D03*
%TD*%
D34*
%TO.C,D8*%
X119195024Y-89893750D03*
X120571714Y-89128247D03*
%TD*%
D35*
%TO.C,D6*%
X132867400Y-97787500D03*
X132892800Y-96212500D03*
%TD*%
D36*
%TO.C,D9*%
X117079900Y-82000000D03*
X118654900Y-82025400D03*
%TD*%
D37*
%TO.C,2*%
X146539776Y-74106250D03*
X145163086Y-74871753D03*
%TD*%
M02*
