M48
; DRILL file {KiCad 7.0.11} date Thu Nov 14 13:48:56 2024
; FORMAT={-:-/ absolute / inch / decimal}
; #@! TF.CreationDate,2024-11-14T13:48:56-05:00
; #@! TF.GenerationSoftware,Kicad,Pcbnew,7.0.11
; #@! TF.FileFunction,Plated,1,2,PTH
FMAT,2
INCH
; #@! TA.AperFunction,Plated,PTH,ViaDrill
T1C0.0157
%
G90
G05
T1
X4.94Y-2.83
X4.95Y-2.9919
X5.04Y-3.17
X5.07Y-2.76
X5.08Y-3.22
X5.12Y-3.22
X5.1324Y-2.9487
X5.14Y-2.87
X5.14Y-2.9094
X5.16Y-3.22
X5.17Y-2.73
X5.2Y-3.22
X5.21Y-3.01
X5.2389Y-2.94
X5.28Y-2.89
X5.31Y-2.92
X5.31Y-3.21
X5.34Y-2.73
X5.3508Y-3.2083
X5.4Y-3.21
X5.45Y-3.01
X5.4776Y-3.05
X5.4776Y-3.0902
X5.48Y-3.15
X5.49Y-3.61
X5.53Y-3.47
X5.58Y-3.44
X5.62Y-2.88
X5.68Y-3.0
X5.71Y-3.05
X5.75Y-3.09
X5.86Y-3.33
M30
