%TF.GenerationSoftware,KiCad,Pcbnew,7.0.11*%
%TF.CreationDate,2024-11-14T13:48:53-05:00*%
%TF.ProjectId,IO_watch,494f5f77-6174-4636-982e-6b696361645f,rev?*%
%TF.SameCoordinates,Original*%
%TF.FileFunction,Legend,Bot*%
%TF.FilePolarity,Positive*%
%FSLAX46Y46*%
G04 Gerber Fmt 4.6, Leading zero omitted, Abs format (unit mm)*
G04 Created by KiCad (PCBNEW 7.0.11) date 2024-11-14 13:48:53*
%MOMM*%
%LPD*%
G01*
G04 APERTURE LIST*
%ADD10C,0.150000*%
%ADD11C,0.200000*%
%ADD12C,0.127000*%
%ADD13C,0.120000*%
G04 APERTURE END LIST*
D10*
X146888675Y-76549953D02*
X146792214Y-76434320D01*
X146792214Y-76434320D02*
X146705338Y-76212640D01*
X146705338Y-76212640D02*
X146714924Y-76106593D01*
X146714924Y-76106593D02*
X146741885Y-76044882D01*
X146741885Y-76044882D02*
X146813182Y-75965796D01*
X146813182Y-75965796D02*
X146901854Y-75931046D01*
X146901854Y-75931046D02*
X147007901Y-75940632D01*
X147007901Y-75940632D02*
X147069612Y-75967593D01*
X147069612Y-75967593D02*
X147148698Y-76038890D01*
X147148698Y-76038890D02*
X147262535Y-76198858D01*
X147262535Y-76198858D02*
X147341621Y-76270155D01*
X147341621Y-76270155D02*
X147403332Y-76297116D01*
X147403332Y-76297116D02*
X147509379Y-76306702D01*
X147509379Y-76306702D02*
X147598051Y-76271952D01*
X147598051Y-76271952D02*
X147669348Y-76192866D01*
X147669348Y-76192866D02*
X147696309Y-76131155D01*
X147696309Y-76131155D02*
X147705894Y-76025108D01*
X147705894Y-76025108D02*
X147619019Y-75803428D01*
X147619019Y-75803428D02*
X147522558Y-75687795D01*
X146288336Y-75148577D02*
X146496837Y-75680608D01*
X146392587Y-75414592D02*
X147323643Y-75049716D01*
X147323643Y-75049716D02*
X147225385Y-75190513D01*
X147225385Y-75190513D02*
X147171463Y-75313935D01*
X147171463Y-75313935D02*
X147161877Y-75419982D01*
X148027927Y-88034401D02*
X148020138Y-88184784D01*
X148020138Y-88184784D02*
X147933262Y-88406464D01*
X147933262Y-88406464D02*
X147854176Y-88477761D01*
X147854176Y-88477761D02*
X147792465Y-88504722D01*
X147792465Y-88504722D02*
X147686418Y-88514308D01*
X147686418Y-88514308D02*
X147597746Y-88479558D01*
X147597746Y-88479558D02*
X147526449Y-88400472D01*
X147526449Y-88400472D02*
X147499488Y-88338761D01*
X147499488Y-88338761D02*
X147489902Y-88232714D01*
X147489902Y-88232714D02*
X147515067Y-88037995D01*
X147515067Y-88037995D02*
X147505481Y-87931947D01*
X147505481Y-87931947D02*
X147478520Y-87870236D01*
X147478520Y-87870236D02*
X147407223Y-87791150D01*
X147407223Y-87791150D02*
X147318551Y-87756400D01*
X147318551Y-87756400D02*
X147212504Y-87765986D01*
X147212504Y-87765986D02*
X147150793Y-87792947D01*
X147150793Y-87792947D02*
X147071707Y-87864244D01*
X147071707Y-87864244D02*
X146984831Y-88085924D01*
X146984831Y-88085924D02*
X146977042Y-88236307D01*
X146882377Y-88608370D02*
X146820666Y-88635331D01*
X146820666Y-88635331D02*
X146741580Y-88706628D01*
X146741580Y-88706628D02*
X146654705Y-88928308D01*
X146654705Y-88928308D02*
X146664290Y-89034355D01*
X146664290Y-89034355D02*
X146691251Y-89096066D01*
X146691251Y-89096066D02*
X146762548Y-89175152D01*
X146762548Y-89175152D02*
X146851220Y-89209902D01*
X146851220Y-89209902D02*
X147001603Y-89217691D01*
X147001603Y-89217691D02*
X147742136Y-88894160D01*
X147742136Y-88894160D02*
X147516260Y-89470528D01*
D11*
%TO.C,S1*%
X145650355Y-73163368D02*
G75*
G03*
X145450353Y-73163368I-100001J0D01*
G01*
X145450353Y-73163368D02*
G75*
G03*
X145650355Y-73163368I100001J0D01*
G01*
D12*
X149414240Y-76750863D02*
X149085851Y-75912913D01*
X148465561Y-74330118D02*
X148137171Y-73492167D01*
X145225760Y-74633137D02*
X146502829Y-77891833D01*
D13*
%TO.C,TP5*%
X139384000Y-92964000D02*
G75*
G03*
X137984000Y-92964000I-700000J0D01*
G01*
X137984000Y-92964000D02*
G75*
G03*
X139384000Y-92964000I700000J0D01*
G01*
D12*
%TO.C,BT1*%
X148080000Y-80780000D02*
X148080000Y-81780000D01*
X147580000Y-81280000D02*
X148580000Y-81280000D01*
X146280000Y-84810500D02*
X146280000Y-83405000D01*
X146280000Y-84810500D02*
X143080000Y-84810500D01*
X146280000Y-77749500D02*
X146280000Y-79155000D01*
X143080000Y-89280000D02*
X121080000Y-89280000D01*
X143080000Y-84810500D02*
X143080000Y-89280000D01*
X143080000Y-77749500D02*
X146280000Y-77749500D01*
X143080000Y-73280000D02*
X143080000Y-77749500D01*
X121080000Y-89280000D02*
X121080000Y-84810500D01*
X121080000Y-84810500D02*
X117880000Y-84810500D01*
X121080000Y-77749500D02*
X121080000Y-73280000D01*
X121080000Y-73280000D02*
X143080000Y-73280000D01*
X117880000Y-84810500D02*
X117880000Y-83405000D01*
X117880000Y-79155000D02*
X117880000Y-77749500D01*
X117880000Y-77749500D02*
X121080000Y-77749500D01*
X116580000Y-81280000D02*
X115580000Y-81280000D01*
%TO.C,S2*%
X146441035Y-86333532D02*
X145163966Y-89592228D01*
X149024057Y-88312452D02*
X149352446Y-87474502D01*
X148075377Y-90733198D02*
X148403767Y-89895247D01*
D11*
X147777821Y-85475662D02*
G75*
G03*
X147577821Y-85475662I-100000J0D01*
G01*
X147577821Y-85475662D02*
G75*
G03*
X147777821Y-85475662I100000J0D01*
G01*
D13*
%TO.C,TP1*%
X127700000Y-92964000D02*
G75*
G03*
X126300000Y-92964000I-700000J0D01*
G01*
X126300000Y-92964000D02*
G75*
G03*
X127700000Y-92964000I700000J0D01*
G01*
%TO.C,TP2*%
X130621000Y-92964000D02*
G75*
G03*
X129221000Y-92964000I-700000J0D01*
G01*
X129221000Y-92964000D02*
G75*
G03*
X130621000Y-92964000I700000J0D01*
G01*
%TD*%
M02*
