%TF.GenerationSoftware,KiCad,Pcbnew,7.0.11*%
%TF.CreationDate,2024-11-14T13:48:53-05:00*%
%TF.ProjectId,IO_watch,494f5f77-6174-4636-982e-6b696361645f,rev?*%
%TF.SameCoordinates,Original*%
%TF.FileFunction,Copper,L2,Bot*%
%TF.FilePolarity,Positive*%
%FSLAX46Y46*%
G04 Gerber Fmt 4.6, Leading zero omitted, Abs format (unit mm)*
G04 Created by KiCad (PCBNEW 7.0.11) date 2024-11-14 13:48:53*
%MOMM*%
%LPD*%
G01*
G04 APERTURE LIST*
G04 Aperture macros list*
%AMRotRect*
0 Rectangle, with rotation*
0 The origin of the aperture is its center*
0 $1 length*
0 $2 width*
0 $3 Rotation angle, in degrees counterclockwise*
0 Add horizontal line*
21,1,$1,$2,0,0,$3*%
G04 Aperture macros list end*
%TA.AperFunction,SMDPad,CuDef*%
%ADD10RotRect,1.400000X1.050000X291.400000*%
%TD*%
%TA.AperFunction,SMDPad,CuDef*%
%ADD11C,1.000000*%
%TD*%
%TA.AperFunction,SMDPad,CuDef*%
%ADD12R,2.590000X3.610000*%
%TD*%
%TA.AperFunction,SMDPad,CuDef*%
%ADD13RotRect,1.400000X1.050000X248.600000*%
%TD*%
%TA.AperFunction,ViaPad*%
%ADD14C,0.800000*%
%TD*%
%TA.AperFunction,Conductor*%
%ADD15C,0.203200*%
%TD*%
G04 APERTURE END LIST*
D10*
%TO.P,S1,2_2*%
%TO.N,GND*%
X148651794Y-77103365D03*
%TO.P,S1,2_1*%
X147338237Y-73751564D03*
%TO.P,S1,1_2*%
%TO.N,/D2*%
X147301763Y-77632436D03*
%TO.P,S1,1_1*%
X145988206Y-74280635D03*
%TD*%
D11*
%TO.P,TP5,1,1*%
%TO.N,GND*%
X138684000Y-92964000D03*
%TD*%
D12*
%TO.P,BT1,N*%
%TO.N,VCC*%
X118720000Y-81280000D03*
%TO.P,BT1,P*%
%TO.N,GND*%
X145440000Y-81280000D03*
%TD*%
D13*
%TO.P,S2,1_1*%
%TO.N,/D3*%
X147239969Y-86592929D03*
%TO.P,S2,1_2*%
X145926412Y-89944730D03*
%TO.P,S2,2_1*%
%TO.N,GND*%
X148590000Y-87122000D03*
%TO.P,S2,2_2*%
X147276443Y-90473801D03*
%TD*%
D11*
%TO.P,TP1,1,1*%
%TO.N,VCC*%
X127000000Y-92964000D03*
%TD*%
%TO.P,TP2,1,1*%
%TO.N,/D-*%
X129921000Y-92964000D03*
%TD*%
D14*
%TO.N,VCC*%
X128016000Y-80518000D03*
X141732000Y-87376000D03*
X128778000Y-70104000D03*
%TO.N,GND*%
X140462000Y-88138000D03*
X133067600Y-74676000D03*
X139192000Y-80010000D03*
X148844000Y-84582000D03*
%TO.N,/D-*%
X139446000Y-91694000D03*
%TO.N,/A0*%
X134874000Y-81534000D03*
X135636000Y-69342000D03*
%TO.N,/A1*%
X142748000Y-73152000D03*
X135910241Y-81489972D03*
%TO.N,/A2*%
X139131600Y-78492000D03*
X146050000Y-78486000D03*
%TO.N,/A3*%
X139131600Y-77470000D03*
X145034000Y-77470000D03*
%TO.N,/D4*%
X134112000Y-73406000D03*
X132080000Y-81788000D03*
%TO.N,/D5*%
X131064000Y-81788000D03*
X130556000Y-72898000D03*
%TO.N,/D6*%
X130048000Y-81788000D03*
X130556000Y-73898003D03*
%TO.N,/D7*%
X130362400Y-74898006D03*
X129032000Y-81788000D03*
%TO.N,/D9*%
X125476000Y-71882000D03*
X125730000Y-75993600D03*
%TO.N,/D10*%
X132334000Y-76454000D03*
X131318000Y-69342000D03*
%TO.N,/SDA*%
X138430000Y-76454000D03*
X137160000Y-81534000D03*
%TO.N,/D2*%
X144272000Y-76200000D03*
%TO.N,/D3*%
X134874000Y-74168000D03*
%TD*%
D15*
%TO.N,VCC*%
X124460000Y-81280000D02*
X127000000Y-83820000D01*
X136335790Y-87376000D02*
X141732000Y-87376000D01*
X128016000Y-79248000D02*
X127254000Y-78486000D01*
X124460000Y-81280000D02*
X118720000Y-81280000D01*
X128016000Y-80518000D02*
X128016000Y-79248000D01*
X128778000Y-83820000D02*
X127000000Y-83820000D01*
X132334000Y-87376000D02*
X128778000Y-83820000D01*
X127000000Y-83820000D02*
X127000000Y-92964000D01*
X136335790Y-87376000D02*
X132334000Y-87376000D01*
X127254000Y-71628000D02*
X127254000Y-78486000D01*
X128778000Y-70104000D02*
X127254000Y-71628000D01*
X127254000Y-78486000D02*
X124460000Y-81280000D01*
%TO.N,/D-*%
X129921000Y-92964000D02*
X129921000Y-92075000D01*
X129921000Y-92075000D02*
X130302000Y-91694000D01*
X130302000Y-91694000D02*
X139446000Y-91694000D01*
%TO.N,/A0*%
X136475000Y-79933000D02*
X136475000Y-70181000D01*
X136475000Y-70181000D02*
X135636000Y-69342000D01*
X134874000Y-81534000D02*
X136475000Y-79933000D01*
%TO.N,/A1*%
X140716000Y-73152000D02*
X142748000Y-73152000D01*
X135910241Y-81489972D02*
X135934028Y-81489972D01*
X137725000Y-79699000D02*
X137725000Y-76143000D01*
X137725000Y-76143000D02*
X140716000Y-73152000D01*
X135934028Y-81489972D02*
X137725000Y-79699000D01*
%TO.N,/A2*%
X146050000Y-78486000D02*
X139137600Y-78486000D01*
X139137600Y-78486000D02*
X139131600Y-78492000D01*
%TO.N,/A3*%
X139131600Y-77470000D02*
X145034000Y-77470000D01*
%TO.N,/D4*%
X134125000Y-79743000D02*
X134125000Y-73419000D01*
X134125000Y-73419000D02*
X134112000Y-73406000D01*
X132080000Y-81788000D02*
X134125000Y-79743000D01*
%TO.N,/D5*%
X131064000Y-72898000D02*
X130556000Y-72898000D01*
X131572000Y-73406000D02*
X131064000Y-72898000D01*
X131064000Y-81788000D02*
X131572000Y-81280000D01*
X131572000Y-81280000D02*
X131572000Y-73406000D01*
%TO.N,/D6*%
X130794003Y-73898003D02*
X130556000Y-73898003D01*
X130048000Y-81788000D02*
X131064000Y-80772000D01*
X131064000Y-80772000D02*
X131064000Y-74168000D01*
X131064000Y-74168000D02*
X130794003Y-73898003D01*
%TO.N,/D7*%
X129032000Y-81788000D02*
X130556000Y-80264000D01*
X130556000Y-80264000D02*
X130556000Y-75091606D01*
X130556000Y-75091606D02*
X130362400Y-74898006D01*
%TO.N,/D9*%
X125730000Y-75993600D02*
X125476000Y-75739600D01*
X125476000Y-75739600D02*
X125476000Y-71882000D01*
%TO.N,/D10*%
X132334000Y-76454000D02*
X132080000Y-76200000D01*
X132080000Y-70104000D02*
X131318000Y-69342000D01*
X132080000Y-76200000D02*
X132080000Y-70104000D01*
%TO.N,/SDA*%
X138430000Y-81280000D02*
X138430000Y-76454000D01*
X137160000Y-81534000D02*
X138176000Y-81534000D01*
X138176000Y-81534000D02*
X138430000Y-81280000D01*
%TO.N,/D2*%
X145869327Y-76200000D02*
X147301763Y-77632436D01*
X144272000Y-76200000D02*
X145869327Y-76200000D01*
%TO.N,/D3*%
X134874000Y-74168000D02*
X134900000Y-74194000D01*
X135292000Y-85000000D02*
X145647040Y-85000000D01*
X134172400Y-83880400D02*
X135292000Y-85000000D01*
X134900000Y-74194000D02*
X134900000Y-80515787D01*
X145647040Y-85000000D02*
X147239969Y-86592929D01*
X134900000Y-80515787D02*
X134172400Y-81243387D01*
X134172400Y-81243387D02*
X134172400Y-83880400D01*
%TD*%
%TA.AperFunction,Conductor*%
%TO.N,GND*%
G36*
X133108196Y-64519928D02*
G01*
X133110446Y-64519956D01*
X133487986Y-64529160D01*
X133490200Y-64529240D01*
X133941058Y-64550869D01*
X133943333Y-64551005D01*
X134320100Y-64578279D01*
X134322168Y-64578453D01*
X134771545Y-64621473D01*
X134773853Y-64621722D01*
X135148682Y-64666977D01*
X135150912Y-64667272D01*
X135597696Y-64731578D01*
X135600126Y-64731958D01*
X135972303Y-64795095D01*
X135974329Y-64795462D01*
X136417719Y-64880943D01*
X136420163Y-64881447D01*
X136788770Y-64962302D01*
X136790852Y-64962783D01*
X137229719Y-65069233D01*
X137232016Y-65069821D01*
X137596463Y-65168264D01*
X137598328Y-65168791D01*
X138031732Y-65295987D01*
X138034174Y-65296739D01*
X138393233Y-65412433D01*
X138395168Y-65413080D01*
X138822104Y-65560736D01*
X138824472Y-65561589D01*
X139177537Y-65694323D01*
X139179350Y-65695026D01*
X139598965Y-65862860D01*
X139601388Y-65863866D01*
X139947441Y-66013241D01*
X139949242Y-66014041D01*
X140360527Y-66201664D01*
X140362978Y-66202823D01*
X140506833Y-66273269D01*
X140701298Y-66368500D01*
X140702966Y-66369337D01*
X141055487Y-66550849D01*
X141105096Y-66576393D01*
X141107523Y-66577686D01*
X141437350Y-66759274D01*
X141439051Y-66760233D01*
X141830961Y-66986189D01*
X141833286Y-66987572D01*
X142153921Y-67184667D01*
X142155543Y-67185686D01*
X142536482Y-67430129D01*
X142538838Y-67431689D01*
X142849374Y-67643705D01*
X142850914Y-67644778D01*
X143055269Y-67790056D01*
X143220061Y-67907209D01*
X143222328Y-67908870D01*
X143522220Y-68135404D01*
X143523576Y-68136448D01*
X143645755Y-68232357D01*
X143880082Y-68416301D01*
X143882338Y-68418126D01*
X144170774Y-68658533D01*
X144172147Y-68659699D01*
X144232834Y-68712181D01*
X144515145Y-68956324D01*
X144517238Y-68958188D01*
X144793723Y-69212025D01*
X144794986Y-69213207D01*
X145114801Y-69517500D01*
X145123677Y-69525945D01*
X145125803Y-69528029D01*
X145389478Y-69794465D01*
X145390681Y-69795702D01*
X145423223Y-69829752D01*
X145655865Y-70073174D01*
X145704436Y-70123995D01*
X145706486Y-70126207D01*
X145956796Y-70404619D01*
X145957914Y-70405883D01*
X146256018Y-70749044D01*
X146257984Y-70751380D01*
X146494429Y-71041148D01*
X146495462Y-71042434D01*
X146777155Y-71399644D01*
X146779031Y-71402101D01*
X147001144Y-71702599D01*
X147002091Y-71703903D01*
X147266700Y-72074365D01*
X147268479Y-72076940D01*
X147475625Y-72387238D01*
X147492208Y-72446133D01*
X147471007Y-72503528D01*
X147429409Y-72534380D01*
X147169636Y-72636183D01*
X147479782Y-73427581D01*
X147972364Y-74684504D01*
X148257718Y-74572675D01*
X148339510Y-74524690D01*
X148339512Y-74524688D01*
X148423637Y-74429937D01*
X148423639Y-74429933D01*
X148436249Y-74401071D01*
X148476871Y-74355316D01*
X148536629Y-74342176D01*
X148592697Y-74366671D01*
X148616329Y-74398092D01*
X148689918Y-74552414D01*
X148696383Y-74565970D01*
X148696988Y-74567263D01*
X148723036Y-74624027D01*
X148887747Y-74982975D01*
X148889065Y-74985978D01*
X149032509Y-75328039D01*
X149033050Y-75329355D01*
X149204101Y-75754273D01*
X149205288Y-75757371D01*
X149215457Y-75785299D01*
X149217600Y-75846447D01*
X149183392Y-75897176D01*
X149125900Y-75918110D01*
X149082798Y-75909891D01*
X148987271Y-75868156D01*
X148861163Y-75855792D01*
X148768547Y-75876156D01*
X148483193Y-75987984D01*
X148793339Y-76779382D01*
X149285921Y-78036305D01*
X149571275Y-77924476D01*
X149653067Y-77876491D01*
X149653068Y-77876490D01*
X149691438Y-77833273D01*
X149744211Y-77802311D01*
X149805104Y-77808281D01*
X149850859Y-77848902D01*
X149861629Y-77875450D01*
X149927946Y-78146225D01*
X149928705Y-78149573D01*
X150003811Y-78509869D01*
X150004062Y-78511114D01*
X150092333Y-78963551D01*
X150092938Y-78966969D01*
X150150562Y-79329514D01*
X150150748Y-79330732D01*
X150217570Y-79787786D01*
X150218016Y-79791266D01*
X150258121Y-80155272D01*
X150258244Y-80156460D01*
X150303368Y-80617016D01*
X150303651Y-80620551D01*
X150326228Y-80985148D01*
X150326292Y-80986303D01*
X150349541Y-81449427D01*
X150349656Y-81453009D01*
X150354738Y-81817038D01*
X150354748Y-81818157D01*
X150355982Y-82283121D01*
X150355925Y-82286743D01*
X150343610Y-82649485D01*
X150343567Y-82650565D01*
X150322670Y-83116136D01*
X150322439Y-83119788D01*
X150292880Y-83480248D01*
X150292789Y-83481288D01*
X150249683Y-83946663D01*
X150249273Y-83950338D01*
X150202673Y-84307578D01*
X150202538Y-84308574D01*
X150137192Y-84772723D01*
X150136602Y-84776411D01*
X150073205Y-85129612D01*
X150073029Y-85130563D01*
X149985443Y-85592525D01*
X149984670Y-85596219D01*
X149904830Y-85944263D01*
X149904618Y-85945168D01*
X149806204Y-86356436D01*
X149774273Y-86408628D01*
X149717763Y-86432085D01*
X149658257Y-86417846D01*
X149635890Y-86399125D01*
X149591276Y-86348875D01*
X149591271Y-86348871D01*
X149509487Y-86300890D01*
X149224127Y-86189058D01*
X148731545Y-87445983D01*
X148731544Y-87445983D01*
X148421398Y-88237378D01*
X148421399Y-88237379D01*
X148706741Y-88349204D01*
X148706749Y-88349206D01*
X148799369Y-88369571D01*
X148925475Y-88357208D01*
X148987004Y-88330327D01*
X149047897Y-88324356D01*
X149100671Y-88355318D01*
X149125166Y-88411386D01*
X149118672Y-88457529D01*
X148994108Y-88771768D01*
X148992589Y-88775388D01*
X148851340Y-89094205D01*
X148851023Y-89094914D01*
X148653014Y-89532534D01*
X148651308Y-89536112D01*
X148529202Y-89779535D01*
X148486210Y-89823071D01*
X148425840Y-89833023D01*
X148371150Y-89805589D01*
X148366679Y-89800875D01*
X148277718Y-89700676D01*
X148277714Y-89700672D01*
X148195930Y-89652691D01*
X147910570Y-89540859D01*
X147417988Y-90797784D01*
X147417987Y-90797784D01*
X147107841Y-91589179D01*
X147298253Y-91663801D01*
X147345533Y-91702638D01*
X147360956Y-91761847D01*
X147343354Y-91812577D01*
X147223348Y-91984788D01*
X147222989Y-91985300D01*
X146938759Y-92387730D01*
X146936315Y-92391041D01*
X146733660Y-92654055D01*
X146733300Y-92654520D01*
X146427601Y-93046431D01*
X146424979Y-93049651D01*
X146212951Y-93299148D01*
X146212593Y-93299566D01*
X145885634Y-93680003D01*
X145882836Y-93683123D01*
X145662891Y-93918142D01*
X145662540Y-93918515D01*
X145314051Y-94287047D01*
X145311081Y-94290057D01*
X145084754Y-94509796D01*
X145084413Y-94510125D01*
X144714189Y-94866142D01*
X144711051Y-94869033D01*
X144480040Y-95072767D01*
X144479712Y-95073054D01*
X144087383Y-95415999D01*
X144084081Y-95418761D01*
X143850900Y-95605347D01*
X143850588Y-95605596D01*
X143435071Y-95935348D01*
X143431612Y-95937972D01*
X143198508Y-96106848D01*
X143198216Y-96107058D01*
X142758749Y-96423006D01*
X142755137Y-96425484D01*
X142525397Y-96575698D01*
X142525126Y-96575874D01*
X142059965Y-96877856D01*
X142056206Y-96880179D01*
X141834339Y-97010526D01*
X141834094Y-97010670D01*
X141340252Y-97298897D01*
X141336354Y-97301055D01*
X141128194Y-97410299D01*
X141127975Y-97410414D01*
X140601293Y-97685146D01*
X140597263Y-97687133D01*
X140411907Y-97773356D01*
X140411717Y-97773444D01*
X139844774Y-98035719D01*
X139840619Y-98037527D01*
X139692387Y-98098028D01*
X139692229Y-98098093D01*
X139072351Y-98349849D01*
X139068078Y-98351470D01*
X138982812Y-98381596D01*
X138982687Y-98381640D01*
X138286530Y-98626550D01*
X138282058Y-98628005D01*
X137490853Y-98864777D01*
X137486317Y-98866018D01*
X136684756Y-99064952D01*
X136680166Y-99065976D01*
X135890292Y-99222609D01*
X135871035Y-99224500D01*
X129877217Y-99224500D01*
X129857877Y-99222593D01*
X129055217Y-99062710D01*
X129050628Y-99061682D01*
X128249237Y-98862063D01*
X128244702Y-98860818D01*
X127453700Y-98623367D01*
X127449229Y-98621908D01*
X126753641Y-98376529D01*
X126753516Y-98376485D01*
X126667897Y-98346152D01*
X126663626Y-98344527D01*
X126043684Y-98092126D01*
X126043696Y-98092094D01*
X126043525Y-98092061D01*
X125895689Y-98031574D01*
X125891535Y-98029763D01*
X125324390Y-97766804D01*
X125324200Y-97766716D01*
X125139317Y-97680520D01*
X125135289Y-97678529D01*
X124608645Y-97403243D01*
X124608673Y-97403189D01*
X124608425Y-97403128D01*
X124400537Y-97293801D01*
X124396641Y-97291639D01*
X123903161Y-97003056D01*
X123902915Y-97002912D01*
X123681055Y-96872313D01*
X123677299Y-96869987D01*
X123212354Y-96567578D01*
X123212084Y-96567402D01*
X122982498Y-96417009D01*
X122978888Y-96414528D01*
X122551984Y-96107058D01*
X122539498Y-96098065D01*
X122306448Y-95928922D01*
X122302991Y-95926295D01*
X121920498Y-95622216D01*
X121887721Y-95596158D01*
X121887426Y-95595922D01*
X121654421Y-95409149D01*
X121651168Y-95406424D01*
X121258839Y-95062888D01*
X121258586Y-95062665D01*
X121039408Y-94869033D01*
X121027932Y-94858894D01*
X121024824Y-94856027D01*
X120654553Y-94499353D01*
X120439350Y-94290057D01*
X120428399Y-94279406D01*
X120425434Y-94276396D01*
X120077116Y-93907411D01*
X120076766Y-93907038D01*
X119857188Y-93672008D01*
X119854392Y-93668886D01*
X119822931Y-93632216D01*
X119527566Y-93287945D01*
X119527278Y-93287607D01*
X119342500Y-93069798D01*
X119315550Y-93038030D01*
X119312962Y-93034846D01*
X119007454Y-92642486D01*
X119007310Y-92642300D01*
X118976776Y-92602602D01*
X121237784Y-92602602D01*
X121245231Y-92678209D01*
X121245708Y-92687913D01*
X121245708Y-92703228D01*
X121248177Y-92715643D01*
X121248696Y-92718249D01*
X121250121Y-92727861D01*
X121257566Y-92803462D01*
X121257567Y-92803468D01*
X121279623Y-92876175D01*
X121281982Y-92885594D01*
X121284453Y-92898011D01*
X121284971Y-92900617D01*
X121284971Y-92900618D01*
X121290829Y-92914761D01*
X121294101Y-92923904D01*
X121306264Y-92963999D01*
X121316159Y-92996617D01*
X121344506Y-93049651D01*
X121351970Y-93063614D01*
X121356124Y-93072398D01*
X121361985Y-93086549D01*
X121361988Y-93086553D01*
X121370491Y-93099279D01*
X121370499Y-93099290D01*
X121375484Y-93107606D01*
X121411306Y-93174624D01*
X121411307Y-93174625D01*
X121411308Y-93174627D01*
X121459499Y-93233347D01*
X121465286Y-93241150D01*
X121473796Y-93253886D01*
X121473797Y-93253887D01*
X121473800Y-93253891D01*
X121484643Y-93264734D01*
X121491151Y-93271915D01*
X121504029Y-93287607D01*
X121539349Y-93330645D01*
X121539354Y-93330650D01*
X121541339Y-93332279D01*
X121598086Y-93378850D01*
X121605263Y-93385354D01*
X121616109Y-93396200D01*
X121616112Y-93396202D01*
X121628847Y-93404712D01*
X121636647Y-93410497D01*
X121692203Y-93456090D01*
X121695376Y-93458694D01*
X121762396Y-93494517D01*
X121770689Y-93499487D01*
X121783447Y-93508012D01*
X121797618Y-93513882D01*
X121806362Y-93518017D01*
X121873383Y-93553841D01*
X121946089Y-93575896D01*
X121955235Y-93579169D01*
X121969372Y-93585025D01*
X121969377Y-93585026D01*
X121969383Y-93585029D01*
X121984410Y-93588018D01*
X121993813Y-93590373D01*
X122066532Y-93612432D01*
X122066533Y-93612432D01*
X122066536Y-93612433D01*
X122103689Y-93616091D01*
X122142150Y-93619879D01*
X122151745Y-93621302D01*
X122166772Y-93624292D01*
X122166775Y-93624292D01*
X122182086Y-93624292D01*
X122191790Y-93624769D01*
X122267397Y-93632216D01*
X122267400Y-93632216D01*
X122267403Y-93632216D01*
X122343010Y-93624769D01*
X122352714Y-93624292D01*
X122368026Y-93624292D01*
X122368028Y-93624292D01*
X122383072Y-93621299D01*
X122392612Y-93619883D01*
X122468268Y-93612432D01*
X122540996Y-93590370D01*
X122550374Y-93588021D01*
X122565417Y-93585029D01*
X122579582Y-93579161D01*
X122588700Y-93575899D01*
X122661417Y-93553841D01*
X122728427Y-93518022D01*
X122737191Y-93513877D01*
X122751353Y-93508012D01*
X122764118Y-93499482D01*
X122772375Y-93494532D01*
X122839424Y-93458694D01*
X122898155Y-93410494D01*
X122905955Y-93404710D01*
X122914949Y-93398700D01*
X122918691Y-93396200D01*
X122929542Y-93385348D01*
X122936690Y-93378869D01*
X122995448Y-93330648D01*
X123043669Y-93271890D01*
X123050148Y-93264742D01*
X123061000Y-93253891D01*
X123069510Y-93241155D01*
X123075299Y-93233349D01*
X123077433Y-93230749D01*
X123123494Y-93174624D01*
X123159332Y-93107575D01*
X123164282Y-93099318D01*
X123172812Y-93086553D01*
X123178677Y-93072391D01*
X123182822Y-93063627D01*
X123218641Y-92996617D01*
X123240699Y-92923900D01*
X123243961Y-92914782D01*
X123249829Y-92900617D01*
X123252821Y-92885574D01*
X123255170Y-92876196D01*
X123277232Y-92803468D01*
X123284682Y-92727818D01*
X123286100Y-92718269D01*
X123289092Y-92703228D01*
X123289661Y-92680001D01*
X123290105Y-92672764D01*
X123297016Y-92602600D01*
X123290105Y-92532438D01*
X123289661Y-92525196D01*
X123289092Y-92501972D01*
X123286099Y-92486927D01*
X123284683Y-92477384D01*
X123277232Y-92401732D01*
X123255173Y-92329013D01*
X123252817Y-92319604D01*
X123249829Y-92304583D01*
X123249826Y-92304577D01*
X123249825Y-92304572D01*
X123243969Y-92290435D01*
X123240695Y-92281286D01*
X123220805Y-92215718D01*
X123218641Y-92208583D01*
X123182817Y-92141562D01*
X123178682Y-92132818D01*
X123172812Y-92118647D01*
X123164287Y-92105889D01*
X123159317Y-92097596D01*
X123123494Y-92030576D01*
X123121362Y-92027978D01*
X123075297Y-91971847D01*
X123069512Y-91964047D01*
X123061002Y-91951312D01*
X123061000Y-91951309D01*
X123050154Y-91940463D01*
X123043650Y-91933286D01*
X123007674Y-91889449D01*
X122995450Y-91874554D01*
X122995445Y-91874549D01*
X122943470Y-91831895D01*
X122936715Y-91826351D01*
X122929534Y-91819843D01*
X122918691Y-91809000D01*
X122918687Y-91808997D01*
X122918686Y-91808996D01*
X122905950Y-91800486D01*
X122898147Y-91794699D01*
X122839427Y-91746508D01*
X122839425Y-91746507D01*
X122839424Y-91746506D01*
X122772406Y-91710684D01*
X122764095Y-91705702D01*
X122757210Y-91701101D01*
X122751349Y-91697185D01*
X122737198Y-91691324D01*
X122728414Y-91687170D01*
X122723555Y-91684573D01*
X122666850Y-91654263D01*
X122661421Y-91651361D01*
X122661420Y-91651360D01*
X122661417Y-91651359D01*
X122629909Y-91641801D01*
X122588704Y-91629301D01*
X122579561Y-91626029D01*
X122565418Y-91620171D01*
X122558869Y-91618868D01*
X122550394Y-91617182D01*
X122540975Y-91614823D01*
X122468268Y-91592767D01*
X122468262Y-91592766D01*
X122392661Y-91585321D01*
X122383051Y-91583896D01*
X122368028Y-91580908D01*
X122352714Y-91580908D01*
X122343010Y-91580431D01*
X122267403Y-91572984D01*
X122267397Y-91572984D01*
X122191790Y-91580431D01*
X122182086Y-91580908D01*
X122166767Y-91580908D01*
X122151745Y-91583896D01*
X122142140Y-91585320D01*
X122066537Y-91592766D01*
X121993824Y-91614823D01*
X121984404Y-91617182D01*
X121969387Y-91620169D01*
X121955228Y-91626033D01*
X121946091Y-91629301D01*
X121873393Y-91651355D01*
X121873373Y-91651363D01*
X121806378Y-91687173D01*
X121797599Y-91691326D01*
X121796853Y-91691635D01*
X121783455Y-91697185D01*
X121783445Y-91697189D01*
X121770704Y-91705702D01*
X121762375Y-91710694D01*
X121695378Y-91746504D01*
X121636644Y-91794704D01*
X121628850Y-91800484D01*
X121616115Y-91808994D01*
X121616107Y-91809001D01*
X121605275Y-91819833D01*
X121598080Y-91826354D01*
X121539357Y-91874547D01*
X121539347Y-91874557D01*
X121491154Y-91933280D01*
X121484633Y-91940475D01*
X121473801Y-91951307D01*
X121473794Y-91951315D01*
X121465284Y-91964050D01*
X121459504Y-91971844D01*
X121411304Y-92030578D01*
X121375494Y-92097575D01*
X121370502Y-92105904D01*
X121361989Y-92118645D01*
X121356126Y-92132799D01*
X121351973Y-92141578D01*
X121316163Y-92208573D01*
X121316155Y-92208593D01*
X121294101Y-92281291D01*
X121290833Y-92290428D01*
X121284969Y-92304587D01*
X121281982Y-92319604D01*
X121279623Y-92329024D01*
X121257566Y-92401737D01*
X121250120Y-92477340D01*
X121248696Y-92486945D01*
X121245708Y-92501967D01*
X121245708Y-92517285D01*
X121245231Y-92526989D01*
X121237784Y-92602597D01*
X121237784Y-92602602D01*
X118976776Y-92602602D01*
X118804774Y-92378974D01*
X118802365Y-92375704D01*
X118580206Y-92060586D01*
X118518389Y-91972902D01*
X118518030Y-91972390D01*
X118326021Y-91696349D01*
X118323762Y-91692954D01*
X118250528Y-91577831D01*
X118061014Y-91279918D01*
X117880323Y-90991624D01*
X117878274Y-90988200D01*
X117832816Y-90908633D01*
X117637132Y-90566118D01*
X117636988Y-90565863D01*
X117468759Y-90266500D01*
X117466907Y-90263041D01*
X117247318Y-89832411D01*
X117092228Y-89522568D01*
X117090548Y-89519037D01*
X116892876Y-89081167D01*
X116892746Y-89080874D01*
X116751581Y-88761509D01*
X116750094Y-88757956D01*
X116574369Y-88313543D01*
X116574164Y-88313017D01*
X116447631Y-87985140D01*
X116446309Y-87981503D01*
X116292498Y-87531034D01*
X116292452Y-87530898D01*
X116181026Y-87195125D01*
X116179918Y-87191558D01*
X116048246Y-86736279D01*
X116048009Y-86735441D01*
X116001893Y-86570435D01*
X115952401Y-86393350D01*
X115951462Y-86389718D01*
X115841944Y-85930315D01*
X115841855Y-85929934D01*
X115762243Y-85581511D01*
X115761503Y-85577962D01*
X115674260Y-85115652D01*
X115674132Y-85114955D01*
X115611023Y-84761623D01*
X115610438Y-84757941D01*
X115599971Y-84683131D01*
X115545449Y-84293444D01*
X115545393Y-84293025D01*
X115499054Y-83935408D01*
X115498659Y-83931835D01*
X115455942Y-83466301D01*
X115455856Y-83465306D01*
X115454597Y-83449791D01*
X115427554Y-83116521D01*
X117024500Y-83116521D01*
X117024501Y-83116523D01*
X117039352Y-83210299D01*
X117039354Y-83210304D01*
X117096950Y-83323342D01*
X117186658Y-83413050D01*
X117299696Y-83470646D01*
X117393481Y-83485500D01*
X120046518Y-83485499D01*
X120046521Y-83485499D01*
X120046522Y-83485498D01*
X120093411Y-83478072D01*
X120140299Y-83470647D01*
X120140299Y-83470646D01*
X120140304Y-83470646D01*
X120253342Y-83413050D01*
X120343050Y-83323342D01*
X120400646Y-83210304D01*
X120411926Y-83139081D01*
X120415500Y-83116521D01*
X120415500Y-81881100D01*
X120434407Y-81822909D01*
X120483907Y-81786945D01*
X120514500Y-81782100D01*
X124211015Y-81782100D01*
X124269206Y-81801007D01*
X124281019Y-81811096D01*
X126468904Y-83998980D01*
X126496681Y-84053497D01*
X126497900Y-84068984D01*
X126497900Y-92165274D01*
X126478993Y-92223465D01*
X126457092Y-92245366D01*
X126394126Y-92291113D01*
X126394124Y-92291116D01*
X126267469Y-92431781D01*
X126267465Y-92431787D01*
X126172825Y-92595706D01*
X126172819Y-92595720D01*
X126114327Y-92775738D01*
X126114326Y-92775742D01*
X126114326Y-92775744D01*
X126094540Y-92964000D01*
X126114315Y-93152156D01*
X126114327Y-93152261D01*
X126172819Y-93332279D01*
X126172825Y-93332293D01*
X126213136Y-93402112D01*
X126267467Y-93496216D01*
X126267469Y-93496218D01*
X126384557Y-93626258D01*
X126394129Y-93636888D01*
X126547270Y-93748151D01*
X126720197Y-93825144D01*
X126905354Y-93864500D01*
X126905357Y-93864500D01*
X127094643Y-93864500D01*
X127094646Y-93864500D01*
X127279803Y-93825144D01*
X127452730Y-93748151D01*
X127605871Y-93636888D01*
X127732533Y-93496216D01*
X127827179Y-93332284D01*
X127885674Y-93152256D01*
X127905460Y-92964000D01*
X129015540Y-92964000D01*
X129035315Y-93152156D01*
X129035327Y-93152261D01*
X129093819Y-93332279D01*
X129093825Y-93332293D01*
X129134136Y-93402112D01*
X129188467Y-93496216D01*
X129188469Y-93496218D01*
X129305557Y-93626258D01*
X129315129Y-93636888D01*
X129468270Y-93748151D01*
X129641197Y-93825144D01*
X129826354Y-93864500D01*
X129826357Y-93864500D01*
X130015643Y-93864500D01*
X130015646Y-93864500D01*
X130200803Y-93825144D01*
X130359268Y-93754590D01*
X138246961Y-93754590D01*
X138404352Y-93824664D01*
X138404356Y-93824665D01*
X138589408Y-93864000D01*
X138778592Y-93864000D01*
X138963643Y-93824665D01*
X138963647Y-93824664D01*
X139121035Y-93754589D01*
X138683999Y-93317553D01*
X138246962Y-93754590D01*
X138246961Y-93754590D01*
X130359268Y-93754590D01*
X130373730Y-93748151D01*
X130526871Y-93636888D01*
X130653533Y-93496216D01*
X130748179Y-93332284D01*
X130806674Y-93152256D01*
X130826460Y-92964000D01*
X137779043Y-92964000D01*
X137798819Y-93152156D01*
X137857279Y-93332074D01*
X137857285Y-93332088D01*
X137895744Y-93398700D01*
X138330445Y-92963999D01*
X137895744Y-92529298D01*
X137857280Y-92595921D01*
X137798819Y-92775843D01*
X137779043Y-92964000D01*
X130826460Y-92964000D01*
X130806674Y-92775744D01*
X130748179Y-92595716D01*
X130748176Y-92595711D01*
X130748174Y-92595706D01*
X130683879Y-92484345D01*
X130653533Y-92431784D01*
X130590107Y-92361343D01*
X130565221Y-92305449D01*
X130577942Y-92245600D01*
X130623412Y-92204659D01*
X130663679Y-92196100D01*
X138228645Y-92196100D01*
X138286836Y-92215007D01*
X138298649Y-92225096D01*
X138684000Y-92610447D01*
X139472254Y-93398700D01*
X139510717Y-93332082D01*
X139510722Y-93332070D01*
X139569180Y-93152156D01*
X139588956Y-92964000D01*
X139569180Y-92775845D01*
X139515722Y-92611321D01*
X139515722Y-92600002D01*
X142440384Y-92600002D01*
X142447831Y-92675609D01*
X142448308Y-92685313D01*
X142448308Y-92700628D01*
X142451296Y-92715649D01*
X142452721Y-92725261D01*
X142460166Y-92800862D01*
X142460167Y-92800868D01*
X142482223Y-92873575D01*
X142484582Y-92882994D01*
X142485101Y-92885599D01*
X142487571Y-92898017D01*
X142487571Y-92898018D01*
X142493429Y-92912161D01*
X142496701Y-92921304D01*
X142509201Y-92962509D01*
X142518759Y-92994017D01*
X142540564Y-93034812D01*
X142554570Y-93061014D01*
X142558724Y-93069798D01*
X142564585Y-93083949D01*
X142566324Y-93086551D01*
X142573091Y-93096679D01*
X142573099Y-93096690D01*
X142578084Y-93105006D01*
X142613906Y-93172024D01*
X142613907Y-93172025D01*
X142613908Y-93172027D01*
X142662099Y-93230747D01*
X142667886Y-93238550D01*
X142676396Y-93251286D01*
X142676397Y-93251287D01*
X142676400Y-93251291D01*
X142687243Y-93262134D01*
X142693751Y-93269315D01*
X142695894Y-93271926D01*
X142741949Y-93328045D01*
X142741954Y-93328050D01*
X142756849Y-93340274D01*
X142800686Y-93376250D01*
X142807863Y-93382754D01*
X142818709Y-93393600D01*
X142818712Y-93393602D01*
X142831447Y-93402112D01*
X142839247Y-93407897D01*
X142897971Y-93456090D01*
X142897976Y-93456094D01*
X142964996Y-93491917D01*
X142973289Y-93496887D01*
X142986047Y-93505412D01*
X143000218Y-93511282D01*
X143008962Y-93515417D01*
X143075983Y-93551241D01*
X143148689Y-93573296D01*
X143157835Y-93576569D01*
X143171972Y-93582425D01*
X143171977Y-93582426D01*
X143171983Y-93582429D01*
X143187010Y-93585418D01*
X143196413Y-93587773D01*
X143269132Y-93609832D01*
X143269133Y-93609832D01*
X143269136Y-93609833D01*
X143306289Y-93613491D01*
X143344750Y-93617279D01*
X143354345Y-93618702D01*
X143369372Y-93621692D01*
X143369375Y-93621692D01*
X143384686Y-93621692D01*
X143394390Y-93622169D01*
X143469997Y-93629616D01*
X143470000Y-93629616D01*
X143470003Y-93629616D01*
X143545610Y-93622169D01*
X143555314Y-93621692D01*
X143570626Y-93621692D01*
X143570628Y-93621692D01*
X143585672Y-93618699D01*
X143595212Y-93617283D01*
X143670868Y-93609832D01*
X143743596Y-93587770D01*
X143752974Y-93585421D01*
X143768017Y-93582429D01*
X143782182Y-93576561D01*
X143791300Y-93573299D01*
X143864017Y-93551241D01*
X143931027Y-93515422D01*
X143939791Y-93511277D01*
X143953953Y-93505412D01*
X143966718Y-93496882D01*
X143974975Y-93491932D01*
X144042024Y-93456094D01*
X144100755Y-93407894D01*
X144108555Y-93402110D01*
X144113658Y-93398700D01*
X144121291Y-93393600D01*
X144132142Y-93382748D01*
X144139290Y-93376269D01*
X144198048Y-93328048D01*
X144246269Y-93269290D01*
X144252748Y-93262142D01*
X144263600Y-93251291D01*
X144272110Y-93238555D01*
X144277899Y-93230749D01*
X144277901Y-93230747D01*
X144326094Y-93172024D01*
X144361932Y-93104975D01*
X144366882Y-93096718D01*
X144375412Y-93083953D01*
X144381277Y-93069791D01*
X144385422Y-93061027D01*
X144421241Y-92994017D01*
X144443299Y-92921300D01*
X144446561Y-92912182D01*
X144452429Y-92898017D01*
X144455421Y-92882974D01*
X144457770Y-92873596D01*
X144479832Y-92800868D01*
X144487282Y-92725218D01*
X144488700Y-92715669D01*
X144491692Y-92700628D01*
X144492261Y-92677401D01*
X144492705Y-92670164D01*
X144499616Y-92600000D01*
X144499194Y-92595720D01*
X144498292Y-92586565D01*
X144492705Y-92529838D01*
X144492261Y-92522596D01*
X144491692Y-92499372D01*
X144488699Y-92484327D01*
X144487283Y-92474784D01*
X144479832Y-92399132D01*
X144457773Y-92326413D01*
X144455417Y-92317004D01*
X144452429Y-92301983D01*
X144452426Y-92301977D01*
X144452425Y-92301972D01*
X144446569Y-92287835D01*
X144443295Y-92278686D01*
X144421241Y-92205983D01*
X144385417Y-92138962D01*
X144381282Y-92130218D01*
X144375412Y-92116047D01*
X144366887Y-92103289D01*
X144361917Y-92094996D01*
X144326094Y-92027976D01*
X144326091Y-92027972D01*
X144277897Y-91969247D01*
X144272112Y-91961447D01*
X144263602Y-91948712D01*
X144263600Y-91948709D01*
X144252754Y-91937863D01*
X144246250Y-91930686D01*
X144204182Y-91879426D01*
X144198050Y-91871954D01*
X144198045Y-91871949D01*
X144172455Y-91850948D01*
X144139315Y-91823751D01*
X144132134Y-91817243D01*
X144121291Y-91806400D01*
X144121287Y-91806397D01*
X144121286Y-91806396D01*
X144108550Y-91797886D01*
X144100747Y-91792099D01*
X144042027Y-91743908D01*
X144042025Y-91743907D01*
X144042024Y-91743906D01*
X143975006Y-91708084D01*
X143966695Y-91703102D01*
X143956589Y-91696349D01*
X143953949Y-91694585D01*
X143939798Y-91688724D01*
X143931014Y-91684570D01*
X143892158Y-91663801D01*
X143887643Y-91661387D01*
X143864021Y-91648761D01*
X143864020Y-91648760D01*
X143864017Y-91648759D01*
X143832509Y-91639201D01*
X143791304Y-91626701D01*
X143782161Y-91623429D01*
X143768018Y-91617571D01*
X143761469Y-91616268D01*
X143752994Y-91614582D01*
X143743575Y-91612223D01*
X143670868Y-91590167D01*
X143670862Y-91590166D01*
X143595261Y-91582721D01*
X143585651Y-91581296D01*
X143570628Y-91578308D01*
X143555314Y-91578308D01*
X143545610Y-91577831D01*
X143470003Y-91570384D01*
X143469997Y-91570384D01*
X143394390Y-91577831D01*
X143384686Y-91578308D01*
X143369367Y-91578308D01*
X143354345Y-91581296D01*
X143344740Y-91582720D01*
X143269137Y-91590166D01*
X143196424Y-91612223D01*
X143187004Y-91614582D01*
X143171987Y-91617569D01*
X143157828Y-91623433D01*
X143148691Y-91626701D01*
X143075993Y-91648755D01*
X143075973Y-91648763D01*
X143008978Y-91684573D01*
X143000197Y-91688726D01*
X142986055Y-91694585D01*
X142986045Y-91694589D01*
X142973304Y-91703102D01*
X142964975Y-91708094D01*
X142897978Y-91743904D01*
X142839244Y-91792104D01*
X142831450Y-91797884D01*
X142818715Y-91806394D01*
X142818707Y-91806401D01*
X142807875Y-91817233D01*
X142800680Y-91823754D01*
X142741957Y-91871947D01*
X142741947Y-91871957D01*
X142693754Y-91930680D01*
X142687233Y-91937875D01*
X142676401Y-91948707D01*
X142676394Y-91948715D01*
X142667884Y-91961450D01*
X142662104Y-91969244D01*
X142613904Y-92027978D01*
X142578094Y-92094975D01*
X142573102Y-92103304D01*
X142567835Y-92111187D01*
X142564588Y-92116047D01*
X142563511Y-92118647D01*
X142558726Y-92130199D01*
X142554573Y-92138978D01*
X142518763Y-92205973D01*
X142518755Y-92205993D01*
X142496701Y-92278691D01*
X142493433Y-92287828D01*
X142487569Y-92301987D01*
X142484582Y-92317004D01*
X142482223Y-92326424D01*
X142460166Y-92399137D01*
X142452720Y-92474740D01*
X142451296Y-92484345D01*
X142448308Y-92499367D01*
X142448308Y-92514685D01*
X142447831Y-92524389D01*
X142440384Y-92599997D01*
X142440384Y-92600002D01*
X139515722Y-92600002D01*
X139515721Y-92550135D01*
X139551684Y-92500635D01*
X139598789Y-92482349D01*
X139625255Y-92479368D01*
X139638493Y-92474736D01*
X139640667Y-92473974D01*
X139795522Y-92419789D01*
X139948262Y-92323816D01*
X140075816Y-92196262D01*
X140171789Y-92043522D01*
X140230350Y-91876164D01*
X140231366Y-91873261D01*
X140231367Y-91873257D01*
X140231368Y-91873255D01*
X140251565Y-91694000D01*
X140231368Y-91514745D01*
X140171789Y-91344478D01*
X140161810Y-91328597D01*
X140075818Y-91191741D01*
X140075817Y-91191740D01*
X140075816Y-91191738D01*
X139948262Y-91064184D01*
X139948259Y-91064182D01*
X139948258Y-91064181D01*
X139795523Y-90968211D01*
X139625261Y-90908633D01*
X139625257Y-90908632D01*
X139446000Y-90888435D01*
X139266742Y-90908632D01*
X139266738Y-90908633D01*
X139096477Y-90968211D01*
X139096476Y-90968211D01*
X138943741Y-91064181D01*
X138943738Y-91064183D01*
X138943738Y-91064184D01*
X138845016Y-91162905D01*
X138790502Y-91190681D01*
X138775015Y-91191900D01*
X130366627Y-91191900D01*
X130345584Y-91189638D01*
X130338187Y-91188029D01*
X130338186Y-91188029D01*
X130287591Y-91191648D01*
X130280528Y-91191900D01*
X130266091Y-91191900D01*
X130251789Y-91193955D01*
X130244777Y-91194708D01*
X130194175Y-91198329D01*
X130194167Y-91198331D01*
X130187079Y-91200975D01*
X130166579Y-91206207D01*
X130159087Y-91207285D01*
X130112937Y-91228360D01*
X130106420Y-91231059D01*
X130093045Y-91236047D01*
X130058895Y-91248785D01*
X130058890Y-91248788D01*
X130052832Y-91253323D01*
X130034640Y-91264117D01*
X130027753Y-91267262D01*
X129989406Y-91300488D01*
X129983910Y-91304917D01*
X129972354Y-91313568D01*
X129962132Y-91323789D01*
X129956967Y-91328597D01*
X129918635Y-91361812D01*
X129918634Y-91361813D01*
X129914546Y-91368176D01*
X129901268Y-91384653D01*
X129611653Y-91674268D01*
X129595176Y-91687546D01*
X129588813Y-91691634D01*
X129588812Y-91691635D01*
X129555597Y-91729967D01*
X129550789Y-91735132D01*
X129540568Y-91745354D01*
X129531917Y-91756910D01*
X129527488Y-91762406D01*
X129494262Y-91800753D01*
X129491117Y-91807640D01*
X129480323Y-91825832D01*
X129475789Y-91831889D01*
X129475787Y-91831893D01*
X129458056Y-91879426D01*
X129455354Y-91885948D01*
X129434284Y-91932087D01*
X129434284Y-91932088D01*
X129433206Y-91939583D01*
X129427978Y-91960068D01*
X129425328Y-91967173D01*
X129421708Y-92017780D01*
X129420954Y-92024795D01*
X129418900Y-92039090D01*
X129418900Y-92053524D01*
X129418648Y-92060586D01*
X129415029Y-92111187D01*
X129416637Y-92118578D01*
X129418900Y-92139626D01*
X129418900Y-92165274D01*
X129399993Y-92223465D01*
X129378092Y-92245366D01*
X129315126Y-92291113D01*
X129315124Y-92291116D01*
X129188469Y-92431781D01*
X129188465Y-92431787D01*
X129093825Y-92595706D01*
X129093819Y-92595720D01*
X129035327Y-92775738D01*
X129035326Y-92775742D01*
X129035326Y-92775744D01*
X129015540Y-92964000D01*
X127905460Y-92964000D01*
X127885674Y-92775744D01*
X127827179Y-92595716D01*
X127827176Y-92595711D01*
X127827174Y-92595706D01*
X127762879Y-92484345D01*
X127732533Y-92431784D01*
X127635318Y-92323816D01*
X127605875Y-92291116D01*
X127605873Y-92291113D01*
X127542908Y-92245366D01*
X127506945Y-92195866D01*
X127502100Y-92165274D01*
X127502100Y-90380863D01*
X144777414Y-90380863D01*
X144789795Y-90507117D01*
X144789796Y-90507122D01*
X144840584Y-90623372D01*
X144840585Y-90623375D01*
X144840586Y-90623376D01*
X144924816Y-90718246D01*
X145006715Y-90766296D01*
X146043015Y-91172416D01*
X146043014Y-91172416D01*
X146079412Y-91180419D01*
X146135754Y-91192808D01*
X146169597Y-91189489D01*
X146229354Y-91202626D01*
X146253290Y-91222286D01*
X146275166Y-91246924D01*
X146275171Y-91246929D01*
X146356955Y-91294910D01*
X146642314Y-91406741D01*
X147134898Y-90149818D01*
X147445042Y-89358421D01*
X147159690Y-89246593D01*
X147159691Y-89246593D01*
X147067069Y-89226228D01*
X147034276Y-89229443D01*
X146974518Y-89216303D01*
X146950585Y-89196643D01*
X146928008Y-89171214D01*
X146846112Y-89123166D01*
X146846113Y-89123166D01*
X146846109Y-89123164D01*
X145809809Y-88717044D01*
X145809807Y-88717043D01*
X145717067Y-88696651D01*
X145590811Y-88709031D01*
X145590809Y-88709032D01*
X145474557Y-88759821D01*
X145474551Y-88759825D01*
X145379687Y-88844048D01*
X145379684Y-88844052D01*
X145331634Y-88925952D01*
X145198338Y-89266084D01*
X144797806Y-90288122D01*
X144777415Y-90380858D01*
X144777414Y-90380863D01*
X127502100Y-90380863D01*
X127502100Y-84421100D01*
X127521007Y-84362909D01*
X127570507Y-84326945D01*
X127601100Y-84322100D01*
X128529015Y-84322100D01*
X128587206Y-84341007D01*
X128599019Y-84351096D01*
X131933266Y-87685343D01*
X131946545Y-87701822D01*
X131950636Y-87708187D01*
X131988957Y-87741392D01*
X131994131Y-87746208D01*
X132004353Y-87756430D01*
X132015914Y-87765085D01*
X132021409Y-87769513D01*
X132031015Y-87777836D01*
X132059753Y-87802737D01*
X132064959Y-87805114D01*
X132066637Y-87805881D01*
X132084838Y-87816680D01*
X132090895Y-87821214D01*
X132138436Y-87838945D01*
X132144934Y-87841637D01*
X132169592Y-87852898D01*
X132191082Y-87862713D01*
X132191083Y-87862713D01*
X132191087Y-87862715D01*
X132198573Y-87863791D01*
X132219086Y-87869026D01*
X132226173Y-87871670D01*
X132276777Y-87875289D01*
X132283793Y-87876044D01*
X132298091Y-87878100D01*
X132312528Y-87878100D01*
X132319591Y-87878352D01*
X132370187Y-87881971D01*
X132377584Y-87880361D01*
X132398627Y-87878100D01*
X136299881Y-87878100D01*
X141061015Y-87878100D01*
X141119206Y-87897007D01*
X141131012Y-87907090D01*
X141229738Y-88005816D01*
X141382478Y-88101789D01*
X141450657Y-88125646D01*
X141552738Y-88161366D01*
X141552742Y-88161367D01*
X141552745Y-88161368D01*
X141732000Y-88181565D01*
X141911255Y-88161368D01*
X142081522Y-88101789D01*
X142234262Y-88005816D01*
X142361816Y-87878262D01*
X142457789Y-87725522D01*
X142517368Y-87555255D01*
X142537565Y-87376000D01*
X142517368Y-87196745D01*
X142516801Y-87195125D01*
X142458691Y-87029057D01*
X142457789Y-87026478D01*
X142361816Y-86873738D01*
X142234262Y-86746184D01*
X142234259Y-86746182D01*
X142234258Y-86746181D01*
X142081523Y-86650211D01*
X141911261Y-86590633D01*
X141911257Y-86590632D01*
X141732000Y-86570435D01*
X141552742Y-86590632D01*
X141552738Y-86590633D01*
X141382477Y-86650211D01*
X141382476Y-86650211D01*
X141229741Y-86746181D01*
X141229738Y-86746183D01*
X141229738Y-86746184D01*
X141131016Y-86844905D01*
X141076502Y-86872681D01*
X141061015Y-86873900D01*
X132582985Y-86873900D01*
X132524794Y-86854993D01*
X132512981Y-86844904D01*
X129178732Y-83510655D01*
X129165450Y-83494171D01*
X129161363Y-83487812D01*
X129161364Y-83487812D01*
X129123039Y-83454604D01*
X129117869Y-83449791D01*
X129107645Y-83439568D01*
X129096084Y-83430913D01*
X129090584Y-83426481D01*
X129052249Y-83393264D01*
X129052247Y-83393263D01*
X129045358Y-83390116D01*
X129027165Y-83379322D01*
X129021105Y-83374786D01*
X129021103Y-83374785D01*
X128973578Y-83357058D01*
X128967054Y-83354356D01*
X128920909Y-83333283D01*
X128913417Y-83332206D01*
X128892920Y-83326974D01*
X128885827Y-83324328D01*
X128835218Y-83320708D01*
X128828201Y-83319953D01*
X128813915Y-83317900D01*
X128813909Y-83317900D01*
X128799475Y-83317900D01*
X128792413Y-83317648D01*
X128741812Y-83314029D01*
X128734418Y-83315637D01*
X128713374Y-83317900D01*
X127248984Y-83317900D01*
X127190793Y-83298993D01*
X127178980Y-83288904D01*
X125240080Y-81350004D01*
X125212303Y-81295487D01*
X125221874Y-81235055D01*
X125240080Y-81209996D01*
X126170556Y-80279520D01*
X127183999Y-79266077D01*
X127238512Y-79238303D01*
X127298944Y-79247874D01*
X127324003Y-79266080D01*
X127484904Y-79426981D01*
X127512681Y-79481498D01*
X127513900Y-79496985D01*
X127513900Y-79847015D01*
X127494993Y-79905206D01*
X127484909Y-79917012D01*
X127386908Y-80015014D01*
X127386181Y-80015741D01*
X127290211Y-80168476D01*
X127290211Y-80168477D01*
X127230633Y-80338738D01*
X127230632Y-80338742D01*
X127210435Y-80518000D01*
X127230632Y-80697257D01*
X127230633Y-80697261D01*
X127290211Y-80867522D01*
X127290211Y-80867523D01*
X127386181Y-81020258D01*
X127386184Y-81020262D01*
X127513738Y-81147816D01*
X127513740Y-81147817D01*
X127513741Y-81147818D01*
X127654740Y-81236414D01*
X127666478Y-81243789D01*
X127666547Y-81243813D01*
X127836738Y-81303366D01*
X127836742Y-81303367D01*
X127836745Y-81303368D01*
X128016000Y-81323565D01*
X128195255Y-81303368D01*
X128195257Y-81303367D01*
X128200780Y-81302745D01*
X128201004Y-81304738D01*
X128253507Y-81309450D01*
X128299595Y-81349695D01*
X128313225Y-81409342D01*
X128307057Y-81432884D01*
X128308047Y-81433231D01*
X128246633Y-81608738D01*
X128246632Y-81608742D01*
X128226435Y-81788000D01*
X128246632Y-81967257D01*
X128246633Y-81967261D01*
X128306211Y-82137522D01*
X128306211Y-82137523D01*
X128402181Y-82290258D01*
X128402184Y-82290262D01*
X128529738Y-82417816D01*
X128682478Y-82513789D01*
X128750657Y-82537646D01*
X128852738Y-82573366D01*
X128852742Y-82573367D01*
X128852745Y-82573368D01*
X129032000Y-82593565D01*
X129211255Y-82573368D01*
X129381522Y-82513789D01*
X129487329Y-82447306D01*
X129546659Y-82432356D01*
X129592671Y-82447306D01*
X129698478Y-82513789D01*
X129766657Y-82537646D01*
X129868738Y-82573366D01*
X129868742Y-82573367D01*
X129868745Y-82573368D01*
X130048000Y-82593565D01*
X130227255Y-82573368D01*
X130397522Y-82513789D01*
X130503329Y-82447306D01*
X130562659Y-82432356D01*
X130608671Y-82447306D01*
X130714478Y-82513789D01*
X130782657Y-82537646D01*
X130884738Y-82573366D01*
X130884742Y-82573367D01*
X130884745Y-82573368D01*
X131064000Y-82593565D01*
X131243255Y-82573368D01*
X131413522Y-82513789D01*
X131519329Y-82447306D01*
X131578659Y-82432356D01*
X131624671Y-82447306D01*
X131730478Y-82513789D01*
X131798657Y-82537646D01*
X131900738Y-82573366D01*
X131900742Y-82573367D01*
X131900745Y-82573368D01*
X132080000Y-82593565D01*
X132259255Y-82573368D01*
X132429522Y-82513789D01*
X132582262Y-82417816D01*
X132709816Y-82290262D01*
X132805789Y-82137522D01*
X132865368Y-81967255D01*
X132885565Y-81788000D01*
X132881233Y-81749558D01*
X132893504Y-81689618D01*
X132909602Y-81668473D01*
X133507084Y-81070991D01*
X133561599Y-81043216D01*
X133622031Y-81052787D01*
X133665296Y-81096052D01*
X133675834Y-81148061D01*
X133673108Y-81186166D01*
X133672354Y-81193182D01*
X133670300Y-81207477D01*
X133670300Y-81221911D01*
X133670048Y-81228973D01*
X133666429Y-81279575D01*
X133666521Y-81280000D01*
X133668037Y-81286965D01*
X133670300Y-81308013D01*
X133670300Y-83815771D01*
X133668038Y-83836813D01*
X133666429Y-83844209D01*
X133666428Y-83844210D01*
X133670048Y-83894813D01*
X133670300Y-83901875D01*
X133670300Y-83916315D01*
X133672353Y-83930601D01*
X133673108Y-83937618D01*
X133676728Y-83988227D01*
X133679374Y-83995320D01*
X133684606Y-84015817D01*
X133685683Y-84023309D01*
X133706756Y-84069454D01*
X133709458Y-84075978D01*
X133727186Y-84123505D01*
X133731722Y-84129565D01*
X133742516Y-84147758D01*
X133745663Y-84154647D01*
X133745664Y-84154649D01*
X133778881Y-84192984D01*
X133783313Y-84198484D01*
X133791968Y-84210045D01*
X133802191Y-84220269D01*
X133807004Y-84225439D01*
X133840213Y-84263764D01*
X133845430Y-84267117D01*
X133846571Y-84267850D01*
X133863055Y-84281132D01*
X134891263Y-85309339D01*
X134904542Y-85325819D01*
X134908631Y-85332181D01*
X134908636Y-85332187D01*
X134946965Y-85365399D01*
X134952136Y-85370213D01*
X134962353Y-85380429D01*
X134973916Y-85389086D01*
X134979401Y-85393505D01*
X135017753Y-85426737D01*
X135024634Y-85429879D01*
X135042838Y-85440680D01*
X135048896Y-85445215D01*
X135096441Y-85462948D01*
X135102943Y-85465641D01*
X135149087Y-85486715D01*
X135156570Y-85487790D01*
X135177075Y-85493023D01*
X135184174Y-85495671D01*
X135234782Y-85499290D01*
X135241806Y-85500046D01*
X135256091Y-85502100D01*
X135270525Y-85502100D01*
X135277587Y-85502352D01*
X135328188Y-85505971D01*
X135335585Y-85504361D01*
X135356628Y-85502100D01*
X145398055Y-85502100D01*
X145456246Y-85521007D01*
X145468059Y-85531096D01*
X146280076Y-86343113D01*
X146307853Y-86397630D01*
X146302247Y-86449240D01*
X146111363Y-86936321D01*
X146090972Y-87029057D01*
X146090971Y-87029062D01*
X146103352Y-87155316D01*
X146103353Y-87155321D01*
X146154141Y-87271571D01*
X146154142Y-87271574D01*
X146154143Y-87271575D01*
X146238373Y-87366445D01*
X146320272Y-87414495D01*
X147356572Y-87820615D01*
X147356571Y-87820615D01*
X147392969Y-87828618D01*
X147449311Y-87841007D01*
X147483154Y-87837688D01*
X147542911Y-87850825D01*
X147566847Y-87870485D01*
X147588723Y-87895123D01*
X147588728Y-87895128D01*
X147670512Y-87943109D01*
X147955871Y-88054940D01*
X148448455Y-86798017D01*
X148758599Y-86006620D01*
X148473247Y-85894792D01*
X148473248Y-85894792D01*
X148380626Y-85874427D01*
X148347833Y-85877642D01*
X148288075Y-85864502D01*
X148264142Y-85844842D01*
X148241565Y-85819413D01*
X148159669Y-85771365D01*
X148159670Y-85771365D01*
X148159666Y-85771363D01*
X147123366Y-85365243D01*
X147123364Y-85365242D01*
X147030624Y-85344850D01*
X146904368Y-85357230D01*
X146904366Y-85357231D01*
X146834008Y-85387969D01*
X146773114Y-85393939D01*
X146724370Y-85367253D01*
X146047772Y-84690655D01*
X146034490Y-84674171D01*
X146030403Y-84667812D01*
X146030404Y-84667812D01*
X145992079Y-84634604D01*
X145986909Y-84629791D01*
X145976685Y-84619568D01*
X145965124Y-84610913D01*
X145959624Y-84606481D01*
X145921289Y-84573264D01*
X145921287Y-84573263D01*
X145914398Y-84570116D01*
X145896205Y-84559322D01*
X145890145Y-84554786D01*
X145890143Y-84554785D01*
X145842618Y-84537058D01*
X145836094Y-84534356D01*
X145789949Y-84513283D01*
X145782457Y-84512206D01*
X145761960Y-84506974D01*
X145754867Y-84504328D01*
X145704258Y-84500708D01*
X145697241Y-84499953D01*
X145682955Y-84497900D01*
X145682949Y-84497900D01*
X145668515Y-84497900D01*
X145661453Y-84497648D01*
X145610852Y-84494029D01*
X145603458Y-84495637D01*
X145582414Y-84497900D01*
X135540984Y-84497900D01*
X135482793Y-84478993D01*
X135470980Y-84468904D01*
X134703496Y-83701419D01*
X134675719Y-83646902D01*
X134674500Y-83631415D01*
X134674500Y-83116485D01*
X143745001Y-83116485D01*
X143759833Y-83210141D01*
X143759836Y-83210151D01*
X143817358Y-83323043D01*
X143906956Y-83412641D01*
X144019848Y-83470163D01*
X144019852Y-83470164D01*
X144113515Y-83484999D01*
X145189998Y-83484999D01*
X145190000Y-83484998D01*
X145690000Y-83484998D01*
X145690001Y-83484999D01*
X146766483Y-83484999D01*
X146766485Y-83484998D01*
X146860141Y-83470166D01*
X146860151Y-83470163D01*
X146973043Y-83412641D01*
X147062641Y-83323043D01*
X147120163Y-83210151D01*
X147120164Y-83210147D01*
X147135000Y-83116484D01*
X147135000Y-81530001D01*
X147134999Y-81530000D01*
X145690001Y-81530000D01*
X145690000Y-81530001D01*
X145690000Y-83484998D01*
X145190000Y-83484998D01*
X145190000Y-81530001D01*
X145189999Y-81530000D01*
X143745002Y-81530000D01*
X143745001Y-81530001D01*
X143745001Y-83116485D01*
X134674500Y-83116485D01*
X134674500Y-82427867D01*
X134693407Y-82369676D01*
X134742907Y-82333712D01*
X134784582Y-82329490D01*
X134822053Y-82333712D01*
X134873996Y-82339565D01*
X134873997Y-82339564D01*
X134874000Y-82339565D01*
X135053255Y-82319368D01*
X135223522Y-82259789D01*
X135374485Y-82164932D01*
X135433814Y-82149982D01*
X135479827Y-82164933D01*
X135560715Y-82215759D01*
X135560716Y-82215759D01*
X135560719Y-82215761D01*
X135661386Y-82250986D01*
X135730979Y-82275338D01*
X135730983Y-82275339D01*
X135730986Y-82275340D01*
X135910241Y-82295537D01*
X136089496Y-82275340D01*
X136259763Y-82215761D01*
X136412503Y-82119788D01*
X136443103Y-82089187D01*
X136497616Y-82061410D01*
X136558049Y-82070980D01*
X136583106Y-82089184D01*
X136657738Y-82163816D01*
X136657740Y-82163817D01*
X136657741Y-82163818D01*
X136810474Y-82259787D01*
X136810478Y-82259789D01*
X136877157Y-82283121D01*
X136980738Y-82319366D01*
X136980742Y-82319367D01*
X136980745Y-82319368D01*
X137160000Y-82339565D01*
X137339255Y-82319368D01*
X137509522Y-82259789D01*
X137662262Y-82163816D01*
X137760983Y-82065094D01*
X137815498Y-82037319D01*
X137830985Y-82036100D01*
X138111374Y-82036100D01*
X138132418Y-82038362D01*
X138139812Y-82039971D01*
X138190413Y-82036352D01*
X138197475Y-82036100D01*
X138211902Y-82036100D01*
X138211909Y-82036100D01*
X138226229Y-82034040D01*
X138233202Y-82033291D01*
X138283827Y-82029671D01*
X138290918Y-82027025D01*
X138311429Y-82021790D01*
X138318913Y-82020715D01*
X138365083Y-81999629D01*
X138371559Y-81996947D01*
X138419105Y-81979214D01*
X138425158Y-81974681D01*
X138443365Y-81963879D01*
X138450247Y-81960737D01*
X138488607Y-81927496D01*
X138494073Y-81923093D01*
X138505647Y-81914430D01*
X138515872Y-81904203D01*
X138521000Y-81899428D01*
X138559364Y-81866187D01*
X138563450Y-81859827D01*
X138576728Y-81843347D01*
X138739347Y-81680728D01*
X138755827Y-81667450D01*
X138762187Y-81663364D01*
X138795428Y-81625000D01*
X138800203Y-81619872D01*
X138810430Y-81609647D01*
X138819093Y-81598073D01*
X138823496Y-81592607D01*
X138856737Y-81554247D01*
X138859879Y-81547365D01*
X138870681Y-81529158D01*
X138875214Y-81523105D01*
X138892944Y-81475566D01*
X138895642Y-81469055D01*
X138909607Y-81438478D01*
X138916715Y-81422913D01*
X138917792Y-81415420D01*
X138923027Y-81394910D01*
X138925670Y-81387827D01*
X138929289Y-81337224D01*
X138930045Y-81330198D01*
X138932100Y-81315906D01*
X138932100Y-81301470D01*
X138932352Y-81294407D01*
X138932972Y-81285738D01*
X138935971Y-81243813D01*
X138935966Y-81243788D01*
X138934362Y-81236414D01*
X138932100Y-81215372D01*
X138932100Y-79385867D01*
X138951007Y-79327676D01*
X139000507Y-79291712D01*
X139042182Y-79287490D01*
X139079653Y-79291712D01*
X139131596Y-79297565D01*
X139131597Y-79297564D01*
X139131600Y-79297565D01*
X139310855Y-79277368D01*
X139481122Y-79217789D01*
X139633862Y-79121816D01*
X139710101Y-79045577D01*
X139738583Y-79017096D01*
X139793099Y-78989319D01*
X139808586Y-78988100D01*
X143827207Y-78988100D01*
X143885398Y-79007007D01*
X143921362Y-79056507D01*
X143921362Y-79117693D01*
X143897211Y-79157104D01*
X143817358Y-79236956D01*
X143759836Y-79349848D01*
X143759835Y-79349852D01*
X143745000Y-79443515D01*
X143745000Y-81029999D01*
X143745001Y-81030000D01*
X147134998Y-81030000D01*
X147134999Y-81029999D01*
X147134999Y-79443516D01*
X147134998Y-79443514D01*
X147120166Y-79349858D01*
X147120163Y-79349848D01*
X147062641Y-79236956D01*
X146973043Y-79147358D01*
X146860151Y-79089836D01*
X146860147Y-79089835D01*
X146786223Y-79078126D01*
X146731707Y-79050348D01*
X146703930Y-78995831D01*
X146713502Y-78935399D01*
X146717880Y-78927683D01*
X146747519Y-78880514D01*
X146755366Y-78868026D01*
X146802335Y-78828814D01*
X146863382Y-78824699D01*
X146878826Y-78829978D01*
X146966161Y-78868134D01*
X146991413Y-78870610D01*
X147092417Y-78880514D01*
X147092418Y-78880513D01*
X147092421Y-78880514D01*
X147185160Y-78860124D01*
X148221459Y-78454001D01*
X148303359Y-78405952D01*
X148325937Y-78380522D01*
X148378710Y-78349560D01*
X148409631Y-78347723D01*
X148442418Y-78350938D01*
X148442423Y-78350937D01*
X148535041Y-78330573D01*
X148535051Y-78330570D01*
X148820393Y-78218745D01*
X148510249Y-77427348D01*
X148017665Y-76170422D01*
X147732320Y-76282249D01*
X147732315Y-76282251D01*
X147650518Y-76330239D01*
X147628642Y-76354879D01*
X147575868Y-76385840D01*
X147544950Y-76387676D01*
X147511108Y-76384357D01*
X147511100Y-76384358D01*
X147418370Y-76404746D01*
X147418364Y-76404748D01*
X147023034Y-76559675D01*
X146961957Y-76563303D01*
X146916908Y-76537504D01*
X146270059Y-75890655D01*
X146256777Y-75874171D01*
X146252690Y-75867812D01*
X146252691Y-75867812D01*
X146214366Y-75834604D01*
X146209196Y-75829791D01*
X146198972Y-75819568D01*
X146187411Y-75810913D01*
X146181911Y-75806481D01*
X146143576Y-75773264D01*
X146143574Y-75773263D01*
X146136685Y-75770116D01*
X146118492Y-75759322D01*
X146112432Y-75754786D01*
X146112430Y-75754785D01*
X146064905Y-75737058D01*
X146058381Y-75734356D01*
X146012236Y-75713283D01*
X146004744Y-75712206D01*
X145984247Y-75706974D01*
X145977154Y-75704328D01*
X145926545Y-75700708D01*
X145919528Y-75699953D01*
X145905244Y-75697900D01*
X145904273Y-75697831D01*
X145904005Y-75697722D01*
X145901741Y-75697397D01*
X145901821Y-75696836D01*
X145847579Y-75674821D01*
X145815237Y-75622882D01*
X145819601Y-75561853D01*
X145859004Y-75515044D01*
X145875211Y-75506909D01*
X145980764Y-75465543D01*
X146907902Y-75102200D01*
X146950408Y-75077263D01*
X146989795Y-75054155D01*
X146989794Y-75054155D01*
X146989802Y-75054151D01*
X147012380Y-75028721D01*
X147065153Y-74997759D01*
X147096074Y-74995922D01*
X147128861Y-74999137D01*
X147128866Y-74999136D01*
X147221484Y-74978772D01*
X147221494Y-74978769D01*
X147506836Y-74866944D01*
X147196692Y-74075547D01*
X146704108Y-72818621D01*
X146418763Y-72930448D01*
X146418758Y-72930450D01*
X146336961Y-72978438D01*
X146315085Y-73003078D01*
X146262311Y-73034039D01*
X146231393Y-73035875D01*
X146197551Y-73032556D01*
X146197543Y-73032557D01*
X146104813Y-73052945D01*
X146104801Y-73052949D01*
X145068506Y-73459071D01*
X145068500Y-73459074D01*
X144986613Y-73507116D01*
X144986609Y-73507119D01*
X144902379Y-73601989D01*
X144902378Y-73601992D01*
X144851590Y-73718242D01*
X144851589Y-73718247D01*
X144839208Y-73844501D01*
X144839209Y-73844507D01*
X144859599Y-73937241D01*
X144859602Y-73937251D01*
X145393427Y-75299408D01*
X145393429Y-75299412D01*
X145441476Y-75381311D01*
X145441480Y-75381316D01*
X145479006Y-75414632D01*
X145536348Y-75465542D01*
X145542636Y-75468289D01*
X145633942Y-75508180D01*
X145679697Y-75548803D01*
X145692836Y-75608561D01*
X145668340Y-75664629D01*
X145615567Y-75695591D01*
X145594308Y-75697900D01*
X144942985Y-75697900D01*
X144884794Y-75678993D01*
X144872987Y-75668909D01*
X144774262Y-75570184D01*
X144774259Y-75570182D01*
X144774258Y-75570181D01*
X144621523Y-75474211D01*
X144451261Y-75414633D01*
X144451257Y-75414632D01*
X144272000Y-75394435D01*
X144092742Y-75414632D01*
X144092738Y-75414633D01*
X143922477Y-75474211D01*
X143922476Y-75474211D01*
X143769741Y-75570181D01*
X143642181Y-75697741D01*
X143546211Y-75850476D01*
X143546211Y-75850477D01*
X143486633Y-76020738D01*
X143486632Y-76020742D01*
X143466435Y-76200000D01*
X143486632Y-76379257D01*
X143486633Y-76379261D01*
X143546211Y-76549522D01*
X143546211Y-76549523D01*
X143631106Y-76684632D01*
X143642184Y-76702262D01*
X143738820Y-76798898D01*
X143766596Y-76853413D01*
X143757025Y-76913845D01*
X143713760Y-76957110D01*
X143668815Y-76967900D01*
X139802585Y-76967900D01*
X139744394Y-76948993D01*
X139732587Y-76938909D01*
X139633862Y-76840184D01*
X139633859Y-76840182D01*
X139633858Y-76840181D01*
X139481123Y-76744211D01*
X139310856Y-76684631D01*
X139310851Y-76684630D01*
X139309214Y-76684446D01*
X139308378Y-76684066D01*
X139305437Y-76683395D01*
X139305574Y-76682792D01*
X139253509Y-76659136D01*
X139223320Y-76605917D01*
X139221933Y-76574985D01*
X139223250Y-76563303D01*
X139235565Y-76454000D01*
X139215368Y-76274745D01*
X139205378Y-76246196D01*
X139189214Y-76200000D01*
X139155789Y-76104478D01*
X139147600Y-76091446D01*
X139059818Y-75951741D01*
X139059817Y-75951740D01*
X139059816Y-75951738D01*
X138932262Y-75824184D01*
X138932259Y-75824182D01*
X138932257Y-75824180D01*
X138927831Y-75821399D01*
X138888622Y-75774428D01*
X138884509Y-75713381D01*
X138910501Y-75667574D01*
X140894981Y-73683096D01*
X140949498Y-73655319D01*
X140964985Y-73654100D01*
X142077015Y-73654100D01*
X142135206Y-73673007D01*
X142147012Y-73683090D01*
X142245738Y-73781816D01*
X142245740Y-73781817D01*
X142245741Y-73781818D01*
X142345500Y-73844501D01*
X142398478Y-73877789D01*
X142456246Y-73898003D01*
X142568738Y-73937366D01*
X142568742Y-73937367D01*
X142568745Y-73937368D01*
X142748000Y-73957565D01*
X142927255Y-73937368D01*
X142927590Y-73937251D01*
X142942667Y-73931974D01*
X143097522Y-73877789D01*
X143250262Y-73781816D01*
X143377816Y-73654262D01*
X143473789Y-73501522D01*
X143533368Y-73331255D01*
X143553565Y-73152000D01*
X143533368Y-72972745D01*
X143518568Y-72930450D01*
X143499515Y-72875998D01*
X143473789Y-72802478D01*
X143463810Y-72786597D01*
X143377818Y-72649741D01*
X143377817Y-72649740D01*
X143377816Y-72649738D01*
X143316617Y-72588539D01*
X143288842Y-72534025D01*
X143298413Y-72473593D01*
X143341678Y-72430328D01*
X143396324Y-72420015D01*
X143459227Y-72426211D01*
X143467399Y-72427016D01*
X143467400Y-72427016D01*
X143467403Y-72427016D01*
X143543010Y-72419569D01*
X143552714Y-72419092D01*
X143568026Y-72419092D01*
X143568028Y-72419092D01*
X143583072Y-72416099D01*
X143592612Y-72414683D01*
X143668268Y-72407232D01*
X143740996Y-72385170D01*
X143750374Y-72382821D01*
X143765417Y-72379829D01*
X143779582Y-72373961D01*
X143788700Y-72370699D01*
X143861417Y-72348641D01*
X143928427Y-72312822D01*
X143937191Y-72308677D01*
X143951353Y-72302812D01*
X143964118Y-72294282D01*
X143972375Y-72289332D01*
X144039424Y-72253494D01*
X144098155Y-72205294D01*
X144105955Y-72199510D01*
X144106867Y-72198900D01*
X144118691Y-72191000D01*
X144129542Y-72180148D01*
X144136690Y-72173669D01*
X144195448Y-72125448D01*
X144243669Y-72066690D01*
X144250148Y-72059542D01*
X144261000Y-72048691D01*
X144269510Y-72035955D01*
X144275299Y-72028149D01*
X144275301Y-72028147D01*
X144323494Y-71969424D01*
X144359332Y-71902375D01*
X144364282Y-71894118D01*
X144372812Y-71881353D01*
X144378677Y-71867191D01*
X144382822Y-71858427D01*
X144418641Y-71791417D01*
X144440699Y-71718700D01*
X144443961Y-71709582D01*
X144449829Y-71695417D01*
X144452821Y-71680374D01*
X144455170Y-71670996D01*
X144477232Y-71598268D01*
X144484682Y-71522618D01*
X144486100Y-71513068D01*
X144489092Y-71498028D01*
X144489661Y-71474801D01*
X144490105Y-71467564D01*
X144497016Y-71397400D01*
X144490105Y-71327238D01*
X144489661Y-71319996D01*
X144489092Y-71296772D01*
X144486099Y-71281727D01*
X144484683Y-71272184D01*
X144477232Y-71196532D01*
X144455173Y-71123813D01*
X144452817Y-71114404D01*
X144449829Y-71099383D01*
X144449826Y-71099377D01*
X144449825Y-71099372D01*
X144443969Y-71085235D01*
X144440695Y-71076086D01*
X144430487Y-71042434D01*
X144418641Y-71003383D01*
X144382817Y-70936362D01*
X144378682Y-70927618D01*
X144372812Y-70913447D01*
X144364287Y-70900689D01*
X144359317Y-70892396D01*
X144323494Y-70825376D01*
X144323491Y-70825372D01*
X144275297Y-70766647D01*
X144269512Y-70758847D01*
X144261002Y-70746112D01*
X144261000Y-70746109D01*
X144250154Y-70735263D01*
X144243650Y-70728086D01*
X144207674Y-70684249D01*
X144195450Y-70669354D01*
X144195445Y-70669349D01*
X144169855Y-70648348D01*
X144136715Y-70621151D01*
X144129534Y-70614643D01*
X144118691Y-70603800D01*
X144118687Y-70603797D01*
X144118686Y-70603796D01*
X144105950Y-70595286D01*
X144098147Y-70589499D01*
X144039427Y-70541308D01*
X144039425Y-70541307D01*
X144039424Y-70541306D01*
X143972406Y-70505484D01*
X143964095Y-70500502D01*
X143955240Y-70494585D01*
X143951349Y-70491985D01*
X143937198Y-70486124D01*
X143928414Y-70481970D01*
X143861421Y-70446161D01*
X143861420Y-70446160D01*
X143861417Y-70446159D01*
X143829909Y-70436601D01*
X143788704Y-70424101D01*
X143779561Y-70420829D01*
X143765418Y-70414971D01*
X143758869Y-70413668D01*
X143750394Y-70411982D01*
X143740975Y-70409623D01*
X143668268Y-70387567D01*
X143668262Y-70387566D01*
X143592661Y-70380121D01*
X143583051Y-70378696D01*
X143568028Y-70375708D01*
X143552714Y-70375708D01*
X143543010Y-70375231D01*
X143467403Y-70367784D01*
X143467397Y-70367784D01*
X143391790Y-70375231D01*
X143382086Y-70375708D01*
X143366767Y-70375708D01*
X143351745Y-70378696D01*
X143342140Y-70380120D01*
X143266537Y-70387566D01*
X143193824Y-70409623D01*
X143184404Y-70411982D01*
X143169387Y-70414969D01*
X143155228Y-70420833D01*
X143146091Y-70424101D01*
X143073393Y-70446155D01*
X143073373Y-70446163D01*
X143006378Y-70481973D01*
X142997597Y-70486126D01*
X142983455Y-70491985D01*
X142983445Y-70491989D01*
X142970704Y-70500502D01*
X142962375Y-70505494D01*
X142895378Y-70541304D01*
X142836644Y-70589504D01*
X142828850Y-70595284D01*
X142816115Y-70603794D01*
X142816107Y-70603801D01*
X142805275Y-70614633D01*
X142798080Y-70621154D01*
X142739357Y-70669347D01*
X142739347Y-70669357D01*
X142691154Y-70728080D01*
X142684633Y-70735275D01*
X142673801Y-70746107D01*
X142673794Y-70746115D01*
X142665284Y-70758850D01*
X142659504Y-70766644D01*
X142611304Y-70825378D01*
X142575494Y-70892375D01*
X142570502Y-70900704D01*
X142561989Y-70913445D01*
X142561988Y-70913447D01*
X142560911Y-70916047D01*
X142556126Y-70927599D01*
X142551973Y-70936378D01*
X142516163Y-71003373D01*
X142516155Y-71003393D01*
X142494101Y-71076091D01*
X142490833Y-71085228D01*
X142484969Y-71099387D01*
X142481982Y-71114404D01*
X142479623Y-71123824D01*
X142457566Y-71196537D01*
X142450120Y-71272140D01*
X142448696Y-71281745D01*
X142445708Y-71296767D01*
X142445708Y-71312085D01*
X142445231Y-71321789D01*
X142437784Y-71397397D01*
X142437784Y-71397402D01*
X142445231Y-71473009D01*
X142445708Y-71482713D01*
X142445708Y-71498028D01*
X142448696Y-71513049D01*
X142450121Y-71522661D01*
X142457566Y-71598262D01*
X142457567Y-71598268D01*
X142479623Y-71670975D01*
X142481982Y-71680394D01*
X142482501Y-71682999D01*
X142484971Y-71695417D01*
X142484971Y-71695418D01*
X142490829Y-71709561D01*
X142494101Y-71718704D01*
X142506601Y-71759909D01*
X142516159Y-71791417D01*
X142516160Y-71791420D01*
X142516161Y-71791421D01*
X142551970Y-71858414D01*
X142556124Y-71867198D01*
X142561985Y-71881349D01*
X142563724Y-71883951D01*
X142570491Y-71894079D01*
X142570499Y-71894090D01*
X142575484Y-71902406D01*
X142611306Y-71969424D01*
X142611307Y-71969425D01*
X142611308Y-71969427D01*
X142659499Y-72028147D01*
X142665286Y-72035950D01*
X142673796Y-72048686D01*
X142673797Y-72048687D01*
X142673800Y-72048691D01*
X142684643Y-72059534D01*
X142691151Y-72066715D01*
X142712259Y-72092435D01*
X142739349Y-72125445D01*
X142739360Y-72125456D01*
X142796010Y-72171947D01*
X142828998Y-72223478D01*
X142825396Y-72284557D01*
X142786581Y-72331854D01*
X142744291Y-72346852D01*
X142568750Y-72366630D01*
X142568738Y-72366633D01*
X142398477Y-72426211D01*
X142398476Y-72426211D01*
X142245741Y-72522181D01*
X142245738Y-72522183D01*
X142245738Y-72522184D01*
X142147016Y-72620905D01*
X142092502Y-72648681D01*
X142077015Y-72649900D01*
X140780628Y-72649900D01*
X140759585Y-72647638D01*
X140752188Y-72646029D01*
X140752187Y-72646029D01*
X140701587Y-72649648D01*
X140694525Y-72649900D01*
X140680090Y-72649900D01*
X140665795Y-72651954D01*
X140658780Y-72652708D01*
X140608173Y-72656328D01*
X140601068Y-72658978D01*
X140580583Y-72664206D01*
X140573088Y-72665284D01*
X140573087Y-72665284D01*
X140526948Y-72686354D01*
X140520426Y-72689056D01*
X140488122Y-72701105D01*
X140472895Y-72706786D01*
X140472894Y-72706786D01*
X140472893Y-72706787D01*
X140472889Y-72706789D01*
X140466832Y-72711323D01*
X140448640Y-72722117D01*
X140441753Y-72725262D01*
X140403406Y-72758488D01*
X140397910Y-72762917D01*
X140386354Y-72771568D01*
X140376132Y-72781789D01*
X140370967Y-72786597D01*
X140332635Y-72819812D01*
X140332634Y-72819813D01*
X140328546Y-72826176D01*
X140315268Y-72842653D01*
X137415653Y-75742268D01*
X137399176Y-75755546D01*
X137392813Y-75759634D01*
X137392812Y-75759635D01*
X137359597Y-75797967D01*
X137354789Y-75803132D01*
X137344568Y-75813354D01*
X137335917Y-75824910D01*
X137331488Y-75830406D01*
X137298262Y-75868753D01*
X137295117Y-75875640D01*
X137284323Y-75893832D01*
X137279789Y-75899889D01*
X137279787Y-75899893D01*
X137262056Y-75947426D01*
X137259354Y-75953948D01*
X137238284Y-76000087D01*
X137238284Y-76000088D01*
X137237206Y-76007583D01*
X137231978Y-76028068D01*
X137229328Y-76035173D01*
X137225708Y-76085780D01*
X137224954Y-76092795D01*
X137222900Y-76107090D01*
X137222900Y-76121524D01*
X137222648Y-76128586D01*
X137219029Y-76179187D01*
X137220637Y-76186578D01*
X137222900Y-76207626D01*
X137222900Y-79450015D01*
X137203993Y-79508206D01*
X137193904Y-79520019D01*
X137146104Y-79567819D01*
X137091587Y-79595596D01*
X137031155Y-79586025D01*
X136987890Y-79542760D01*
X136977100Y-79497815D01*
X136977100Y-70245625D01*
X136979363Y-70224577D01*
X136979734Y-70222871D01*
X136980971Y-70217187D01*
X136977352Y-70166591D01*
X136977100Y-70159528D01*
X136977100Y-70145092D01*
X136975045Y-70130801D01*
X136974289Y-70123773D01*
X136970670Y-70073174D01*
X136968774Y-70068091D01*
X136968026Y-70066086D01*
X136962790Y-70045569D01*
X136961715Y-70038090D01*
X136961715Y-70038087D01*
X136940637Y-69991934D01*
X136937945Y-69985436D01*
X136920214Y-69937895D01*
X136915680Y-69931838D01*
X136904881Y-69913637D01*
X136904011Y-69911733D01*
X136901737Y-69906753D01*
X136896229Y-69900397D01*
X136868513Y-69868409D01*
X136864079Y-69862907D01*
X136855429Y-69851352D01*
X136845208Y-69841131D01*
X136840392Y-69835957D01*
X136835015Y-69829752D01*
X136807187Y-69797636D01*
X136807187Y-69797635D01*
X136800822Y-69793545D01*
X136784343Y-69780266D01*
X136465606Y-69461529D01*
X136437829Y-69407012D01*
X136437233Y-69380443D01*
X136441565Y-69342000D01*
X136421368Y-69162745D01*
X136361789Y-68992478D01*
X136339042Y-68956277D01*
X136265818Y-68839741D01*
X136265817Y-68839740D01*
X136265816Y-68839738D01*
X136138262Y-68712184D01*
X136138259Y-68712182D01*
X136138258Y-68712181D01*
X135985523Y-68616211D01*
X135815261Y-68556633D01*
X135815257Y-68556632D01*
X135636000Y-68536435D01*
X135456742Y-68556632D01*
X135456738Y-68556633D01*
X135286477Y-68616211D01*
X135286476Y-68616211D01*
X135133741Y-68712181D01*
X135006181Y-68839741D01*
X134910211Y-68992476D01*
X134910211Y-68992477D01*
X134850633Y-69162738D01*
X134850632Y-69162742D01*
X134830435Y-69342000D01*
X134850632Y-69521257D01*
X134850633Y-69521261D01*
X134910211Y-69691522D01*
X134910211Y-69691523D01*
X135006181Y-69844258D01*
X135006184Y-69844262D01*
X135133738Y-69971816D01*
X135133740Y-69971817D01*
X135133741Y-69971818D01*
X135264222Y-70053805D01*
X135286478Y-70067789D01*
X135338702Y-70086063D01*
X135456738Y-70127366D01*
X135456742Y-70127367D01*
X135456745Y-70127368D01*
X135636000Y-70147565D01*
X135674440Y-70143233D01*
X135734380Y-70155504D01*
X135755529Y-70171606D01*
X135943904Y-70359981D01*
X135971681Y-70414498D01*
X135972900Y-70429985D01*
X135972900Y-79684015D01*
X135953993Y-79742206D01*
X135943904Y-79754019D01*
X135571104Y-80126819D01*
X135516587Y-80154596D01*
X135456155Y-80145025D01*
X135412890Y-80101760D01*
X135402100Y-80056815D01*
X135402100Y-74812985D01*
X135421007Y-74754794D01*
X135431090Y-74742987D01*
X135503816Y-74670262D01*
X135599789Y-74517522D01*
X135659368Y-74347255D01*
X135679565Y-74168000D01*
X135659368Y-73988745D01*
X135648457Y-73957564D01*
X135620542Y-73877788D01*
X135599789Y-73818478D01*
X135537124Y-73718748D01*
X135503818Y-73665741D01*
X135503817Y-73665740D01*
X135503816Y-73665738D01*
X135376262Y-73538184D01*
X135376259Y-73538182D01*
X135376258Y-73538181D01*
X135223523Y-73442211D01*
X135053261Y-73382633D01*
X135053249Y-73382630D01*
X134991606Y-73375685D01*
X134935898Y-73350381D01*
X134905703Y-73297166D01*
X134904315Y-73288407D01*
X134897368Y-73226745D01*
X134837789Y-73056478D01*
X134835570Y-73052947D01*
X134741818Y-72903741D01*
X134741817Y-72903740D01*
X134741816Y-72903738D01*
X134614262Y-72776184D01*
X134614259Y-72776182D01*
X134614258Y-72776181D01*
X134461523Y-72680211D01*
X134291261Y-72620633D01*
X134291257Y-72620632D01*
X134112000Y-72600435D01*
X133932742Y-72620632D01*
X133932738Y-72620633D01*
X133762477Y-72680211D01*
X133762476Y-72680211D01*
X133609741Y-72776181D01*
X133482181Y-72903741D01*
X133386211Y-73056476D01*
X133386211Y-73056477D01*
X133326633Y-73226738D01*
X133326632Y-73226742D01*
X133306435Y-73406000D01*
X133326632Y-73585257D01*
X133326633Y-73585261D01*
X133386211Y-73755522D01*
X133386211Y-73755523D01*
X133482181Y-73908258D01*
X133482184Y-73908262D01*
X133593905Y-74019983D01*
X133621681Y-74074498D01*
X133622900Y-74089985D01*
X133622900Y-79494014D01*
X133603993Y-79552205D01*
X133593904Y-79564018D01*
X132243104Y-80914818D01*
X132188587Y-80942595D01*
X132128155Y-80933024D01*
X132084890Y-80889759D01*
X132074100Y-80844814D01*
X132074100Y-77341062D01*
X132093007Y-77282871D01*
X132142507Y-77246907D01*
X132184184Y-77242685D01*
X132201915Y-77244682D01*
X132333996Y-77259565D01*
X132333997Y-77259564D01*
X132334000Y-77259565D01*
X132513255Y-77239368D01*
X132683522Y-77179789D01*
X132836262Y-77083816D01*
X132963816Y-76956262D01*
X133059789Y-76803522D01*
X133119368Y-76633255D01*
X133139565Y-76454000D01*
X133119368Y-76274745D01*
X133109378Y-76246196D01*
X133093214Y-76200000D01*
X133059789Y-76104478D01*
X133051600Y-76091446D01*
X132963818Y-75951741D01*
X132963817Y-75951740D01*
X132963816Y-75951738D01*
X132836262Y-75824184D01*
X132836259Y-75824182D01*
X132836258Y-75824181D01*
X132683523Y-75728211D01*
X132648401Y-75715921D01*
X132599721Y-75678855D01*
X132582100Y-75622477D01*
X132582100Y-70168626D01*
X132584363Y-70147578D01*
X132584904Y-70145091D01*
X132585971Y-70140188D01*
X132582352Y-70089586D01*
X132582100Y-70082524D01*
X132582100Y-70068090D01*
X132580046Y-70053805D01*
X132579290Y-70046778D01*
X132575671Y-69996175D01*
X132575671Y-69996173D01*
X132573023Y-69989074D01*
X132567790Y-69968566D01*
X132566715Y-69961088D01*
X132566715Y-69961087D01*
X132545644Y-69914947D01*
X132542941Y-69908421D01*
X132536724Y-69891755D01*
X132525214Y-69860895D01*
X132520680Y-69854838D01*
X132509881Y-69836637D01*
X132509114Y-69834959D01*
X132506737Y-69829753D01*
X132478908Y-69797636D01*
X132473513Y-69791409D01*
X132469079Y-69785907D01*
X132467541Y-69783853D01*
X132460430Y-69774353D01*
X132450208Y-69764131D01*
X132445392Y-69758957D01*
X132412187Y-69720636D01*
X132412187Y-69720635D01*
X132405822Y-69716545D01*
X132389343Y-69703266D01*
X132147606Y-69461529D01*
X132119829Y-69407012D01*
X132119233Y-69380443D01*
X132123565Y-69342000D01*
X132103368Y-69162745D01*
X132043789Y-68992478D01*
X132021042Y-68956277D01*
X131947818Y-68839741D01*
X131947817Y-68839740D01*
X131947816Y-68839738D01*
X131820262Y-68712184D01*
X131820259Y-68712182D01*
X131820258Y-68712181D01*
X131667523Y-68616211D01*
X131497261Y-68556633D01*
X131497257Y-68556632D01*
X131318000Y-68536435D01*
X131138742Y-68556632D01*
X131138738Y-68556633D01*
X130968477Y-68616211D01*
X130968476Y-68616211D01*
X130815741Y-68712181D01*
X130688181Y-68839741D01*
X130592211Y-68992476D01*
X130592211Y-68992477D01*
X130532633Y-69162738D01*
X130532632Y-69162742D01*
X130512435Y-69342000D01*
X130532632Y-69521257D01*
X130532633Y-69521261D01*
X130592211Y-69691522D01*
X130592211Y-69691523D01*
X130688181Y-69844258D01*
X130688184Y-69844262D01*
X130815738Y-69971816D01*
X130815740Y-69971817D01*
X130815741Y-69971818D01*
X130946222Y-70053805D01*
X130968478Y-70067789D01*
X131020702Y-70086063D01*
X131138738Y-70127366D01*
X131138742Y-70127367D01*
X131138745Y-70127368D01*
X131318000Y-70147565D01*
X131356440Y-70143233D01*
X131416380Y-70155504D01*
X131437529Y-70171606D01*
X131548904Y-70282981D01*
X131576681Y-70337498D01*
X131577900Y-70352985D01*
X131577900Y-72462143D01*
X131558993Y-72520334D01*
X131509493Y-72556298D01*
X131448307Y-72556298D01*
X131414073Y-72536966D01*
X131409043Y-72532608D01*
X131403869Y-72527791D01*
X131393645Y-72517568D01*
X131382084Y-72508913D01*
X131376584Y-72504481D01*
X131338249Y-72471264D01*
X131338247Y-72471263D01*
X131331358Y-72468116D01*
X131313165Y-72457322D01*
X131307105Y-72452786D01*
X131307103Y-72452785D01*
X131259578Y-72435058D01*
X131253054Y-72432356D01*
X131230746Y-72422169D01*
X131212945Y-72414039D01*
X131184070Y-72393992D01*
X131058262Y-72268184D01*
X131058259Y-72268182D01*
X131058258Y-72268181D01*
X130905523Y-72172211D01*
X130735261Y-72112633D01*
X130735257Y-72112632D01*
X130556000Y-72092435D01*
X130376742Y-72112632D01*
X130376738Y-72112633D01*
X130206477Y-72172211D01*
X130206476Y-72172211D01*
X130053741Y-72268181D01*
X129926181Y-72395741D01*
X129830211Y-72548476D01*
X129830211Y-72548477D01*
X129770633Y-72718738D01*
X129770632Y-72718742D01*
X129750435Y-72898000D01*
X129770632Y-73077257D01*
X129770633Y-73077261D01*
X129830211Y-73247522D01*
X129830211Y-73247523D01*
X129891667Y-73345330D01*
X129906617Y-73404661D01*
X129891667Y-73450671D01*
X129830211Y-73548479D01*
X129770633Y-73718741D01*
X129770632Y-73718745D01*
X129750435Y-73898003D01*
X129770632Y-74077260D01*
X129770633Y-74077264D01*
X129822779Y-74226287D01*
X129824152Y-74287457D01*
X129799339Y-74328988D01*
X129732585Y-74395742D01*
X129732581Y-74395747D01*
X129636611Y-74548482D01*
X129636611Y-74548483D01*
X129577033Y-74718744D01*
X129577032Y-74718748D01*
X129556835Y-74898006D01*
X129577032Y-75077263D01*
X129577033Y-75077267D01*
X129636611Y-75247528D01*
X129636611Y-75247529D01*
X129732581Y-75400264D01*
X129732584Y-75400268D01*
X129860138Y-75527822D01*
X129860141Y-75527824D01*
X129860140Y-75527824D01*
X129957049Y-75588715D01*
X130007571Y-75620460D01*
X130046783Y-75667429D01*
X130053900Y-75704286D01*
X130053900Y-80015014D01*
X130034993Y-80073205D01*
X130024904Y-80085018D01*
X129151529Y-80958392D01*
X129097012Y-80986169D01*
X129070442Y-80986766D01*
X129032000Y-80982435D01*
X128852745Y-81002632D01*
X128852743Y-81002632D01*
X128847220Y-81003255D01*
X128846996Y-81001271D01*
X128794453Y-80996533D01*
X128748383Y-80956269D01*
X128734778Y-80896615D01*
X128741289Y-80873236D01*
X128739953Y-80872769D01*
X128801366Y-80697261D01*
X128801367Y-80697257D01*
X128801368Y-80697255D01*
X128821565Y-80518000D01*
X128801368Y-80338745D01*
X128790543Y-80307810D01*
X128754980Y-80206177D01*
X128741789Y-80168478D01*
X128733066Y-80154596D01*
X128645818Y-80015741D01*
X128645817Y-80015740D01*
X128645816Y-80015738D01*
X128547094Y-79917016D01*
X128519319Y-79862502D01*
X128518100Y-79847015D01*
X128518100Y-79312626D01*
X128520363Y-79291578D01*
X128520366Y-79291565D01*
X128521971Y-79284188D01*
X128518352Y-79233586D01*
X128518100Y-79226524D01*
X128518100Y-79212090D01*
X128516046Y-79197805D01*
X128515290Y-79190778D01*
X128512156Y-79146950D01*
X128511671Y-79140173D01*
X128509023Y-79133074D01*
X128503790Y-79112566D01*
X128502715Y-79105088D01*
X128502715Y-79105087D01*
X128487900Y-79072648D01*
X128481644Y-79058947D01*
X128478941Y-79052421D01*
X128472724Y-79035755D01*
X128461214Y-79004895D01*
X128456680Y-78998838D01*
X128445881Y-78980637D01*
X128445114Y-78978959D01*
X128442737Y-78973753D01*
X128421127Y-78948813D01*
X128409513Y-78935409D01*
X128405079Y-78929907D01*
X128396429Y-78918352D01*
X128386208Y-78908131D01*
X128381392Y-78902957D01*
X128348187Y-78864636D01*
X128348187Y-78864635D01*
X128341822Y-78860545D01*
X128325343Y-78847266D01*
X127785096Y-78307019D01*
X127757319Y-78252502D01*
X127756100Y-78237015D01*
X127756100Y-71876983D01*
X127775007Y-71818792D01*
X127785090Y-71806985D01*
X128658470Y-70933604D01*
X128712985Y-70905829D01*
X128739554Y-70905233D01*
X128778000Y-70909565D01*
X128957255Y-70889368D01*
X129127522Y-70829789D01*
X129280262Y-70733816D01*
X129407816Y-70606262D01*
X129503789Y-70453522D01*
X129563368Y-70283255D01*
X129583565Y-70104000D01*
X129563368Y-69924745D01*
X129560001Y-69915123D01*
X129534110Y-69841131D01*
X129503789Y-69754478D01*
X129471610Y-69703266D01*
X129407818Y-69601741D01*
X129407817Y-69601740D01*
X129407816Y-69601738D01*
X129280262Y-69474184D01*
X129280259Y-69474182D01*
X129280258Y-69474181D01*
X129127523Y-69378211D01*
X128957261Y-69318633D01*
X128957257Y-69318632D01*
X128778000Y-69298435D01*
X128598742Y-69318632D01*
X128598738Y-69318633D01*
X128428477Y-69378211D01*
X128428476Y-69378211D01*
X128275741Y-69474181D01*
X128148181Y-69601741D01*
X128052211Y-69754476D01*
X128052211Y-69754477D01*
X127992633Y-69924738D01*
X127992632Y-69924742D01*
X127972435Y-70104000D01*
X127976766Y-70142443D01*
X127964491Y-70202385D01*
X127948392Y-70223530D01*
X126944653Y-71227268D01*
X126928176Y-71240546D01*
X126921813Y-71244634D01*
X126921812Y-71244635D01*
X126888597Y-71282967D01*
X126883789Y-71288132D01*
X126873568Y-71298354D01*
X126864917Y-71309910D01*
X126860488Y-71315406D01*
X126827262Y-71353753D01*
X126824117Y-71360640D01*
X126813323Y-71378832D01*
X126808789Y-71384889D01*
X126808787Y-71384893D01*
X126808786Y-71384895D01*
X126803153Y-71399997D01*
X126791056Y-71432426D01*
X126788354Y-71438948D01*
X126767284Y-71485087D01*
X126767284Y-71485088D01*
X126766206Y-71492583D01*
X126760978Y-71513068D01*
X126758328Y-71520173D01*
X126754708Y-71570780D01*
X126753954Y-71577795D01*
X126751900Y-71592090D01*
X126751900Y-71606524D01*
X126751648Y-71613586D01*
X126748029Y-71664188D01*
X126749505Y-71670975D01*
X126749637Y-71671578D01*
X126751900Y-71692626D01*
X126751900Y-78237015D01*
X126732993Y-78295206D01*
X126722904Y-78307019D01*
X124281019Y-80748904D01*
X124226502Y-80776681D01*
X124211015Y-80777900D01*
X120514499Y-80777900D01*
X120456308Y-80758993D01*
X120420344Y-80709493D01*
X120415499Y-80678900D01*
X120415499Y-79443478D01*
X120415498Y-79443476D01*
X120400647Y-79349700D01*
X120400646Y-79349698D01*
X120400646Y-79349696D01*
X120343050Y-79236658D01*
X120253342Y-79146950D01*
X120140304Y-79089354D01*
X120140305Y-79089354D01*
X120046521Y-79074500D01*
X117393478Y-79074500D01*
X117393476Y-79074501D01*
X117299700Y-79089352D01*
X117299695Y-79089354D01*
X117186659Y-79146949D01*
X117096949Y-79236659D01*
X117039354Y-79349695D01*
X117024500Y-79443478D01*
X117024500Y-83116521D01*
X115427554Y-83116521D01*
X115426600Y-83104770D01*
X115426383Y-83101294D01*
X115405874Y-82635445D01*
X115405840Y-82634570D01*
X115393833Y-82271697D01*
X115393781Y-82268198D01*
X115395415Y-81802867D01*
X115395419Y-81802410D01*
X115400816Y-81438012D01*
X115400931Y-81434544D01*
X115424594Y-80971102D01*
X115424643Y-80970242D01*
X115447541Y-80605537D01*
X115447809Y-80602208D01*
X115493373Y-80141239D01*
X115493434Y-80140659D01*
X115533893Y-79776314D01*
X115534321Y-79772990D01*
X115601576Y-79315709D01*
X115601678Y-79315049D01*
X115659679Y-78952136D01*
X115660253Y-78948905D01*
X115748986Y-78496160D01*
X115749136Y-78495425D01*
X115824600Y-78134952D01*
X115825339Y-78131704D01*
X115935250Y-77684588D01*
X115935485Y-77683659D01*
X116028301Y-77326515D01*
X116029190Y-77323320D01*
X116159971Y-76882733D01*
X116160292Y-76881679D01*
X116270322Y-76528671D01*
X116271327Y-76525629D01*
X116422680Y-76092331D01*
X116422996Y-76091446D01*
X116550107Y-75743268D01*
X116551228Y-75740351D01*
X116722666Y-75315523D01*
X116723136Y-75314382D01*
X116866996Y-74972145D01*
X116868235Y-74969332D01*
X117059452Y-74553566D01*
X117059924Y-74552559D01*
X117220244Y-74217095D01*
X117221629Y-74214315D01*
X117432171Y-73808491D01*
X117432639Y-73807605D01*
X117609165Y-73479588D01*
X117610620Y-73476987D01*
X117839865Y-73082189D01*
X117840448Y-73081203D01*
X118032744Y-72761563D01*
X118034320Y-72759036D01*
X118281769Y-72376014D01*
X118282448Y-72374981D01*
X118490067Y-72064552D01*
X118491747Y-72062124D01*
X118756806Y-71691703D01*
X118757637Y-71690562D01*
X118972789Y-71400002D01*
X121235184Y-71400002D01*
X121242631Y-71475609D01*
X121243108Y-71485313D01*
X121243108Y-71500628D01*
X121245582Y-71513068D01*
X121246096Y-71515649D01*
X121247521Y-71525261D01*
X121254966Y-71600862D01*
X121254967Y-71600868D01*
X121277023Y-71673575D01*
X121279382Y-71682994D01*
X121280872Y-71690481D01*
X121282371Y-71698017D01*
X121282371Y-71698018D01*
X121288229Y-71712161D01*
X121291501Y-71721304D01*
X121304001Y-71762509D01*
X121313559Y-71794017D01*
X121313560Y-71794020D01*
X121313561Y-71794021D01*
X121349370Y-71861014D01*
X121353524Y-71869798D01*
X121359385Y-71883949D01*
X121359388Y-71883953D01*
X121367891Y-71896679D01*
X121367899Y-71896690D01*
X121372884Y-71905006D01*
X121408706Y-71972024D01*
X121408707Y-71972025D01*
X121408708Y-71972027D01*
X121456899Y-72030747D01*
X121462686Y-72038550D01*
X121471196Y-72051286D01*
X121471197Y-72051287D01*
X121471200Y-72051291D01*
X121482043Y-72062134D01*
X121488551Y-72069315D01*
X121494809Y-72076940D01*
X121536749Y-72128045D01*
X121536752Y-72128048D01*
X121595486Y-72176250D01*
X121602663Y-72182754D01*
X121613509Y-72193600D01*
X121613512Y-72193602D01*
X121626247Y-72202112D01*
X121634047Y-72207897D01*
X121689603Y-72253490D01*
X121692776Y-72256094D01*
X121759796Y-72291917D01*
X121768089Y-72296887D01*
X121780847Y-72305412D01*
X121795018Y-72311282D01*
X121803762Y-72315417D01*
X121870783Y-72351241D01*
X121943489Y-72373296D01*
X121952635Y-72376569D01*
X121966772Y-72382425D01*
X121966777Y-72382426D01*
X121966783Y-72382429D01*
X121981810Y-72385418D01*
X121991213Y-72387773D01*
X122063932Y-72409832D01*
X122063933Y-72409832D01*
X122063936Y-72409833D01*
X122101089Y-72413491D01*
X122139550Y-72417279D01*
X122149145Y-72418702D01*
X122164172Y-72421692D01*
X122164175Y-72421692D01*
X122179486Y-72421692D01*
X122189190Y-72422169D01*
X122264797Y-72429616D01*
X122264800Y-72429616D01*
X122264803Y-72429616D01*
X122340410Y-72422169D01*
X122350114Y-72421692D01*
X122365426Y-72421692D01*
X122365428Y-72421692D01*
X122380472Y-72418699D01*
X122390012Y-72417283D01*
X122465668Y-72409832D01*
X122538396Y-72387770D01*
X122547774Y-72385421D01*
X122562817Y-72382429D01*
X122576982Y-72376561D01*
X122586100Y-72373299D01*
X122658817Y-72351241D01*
X122725827Y-72315422D01*
X122734591Y-72311277D01*
X122748753Y-72305412D01*
X122761518Y-72296882D01*
X122769775Y-72291932D01*
X122836824Y-72256094D01*
X122895555Y-72207894D01*
X122903355Y-72202110D01*
X122907246Y-72199510D01*
X122916091Y-72193600D01*
X122926942Y-72182748D01*
X122934090Y-72176269D01*
X122992848Y-72128048D01*
X123041069Y-72069290D01*
X123047548Y-72062142D01*
X123058400Y-72051291D01*
X123066910Y-72038555D01*
X123072699Y-72030749D01*
X123074833Y-72028149D01*
X123120894Y-71972024D01*
X123156732Y-71904975D01*
X123161682Y-71896718D01*
X123170212Y-71883953D01*
X123171021Y-71882000D01*
X124670435Y-71882000D01*
X124690632Y-72061257D01*
X124690633Y-72061261D01*
X124750211Y-72231522D01*
X124750211Y-72231523D01*
X124846181Y-72384258D01*
X124846184Y-72384262D01*
X124944905Y-72482983D01*
X124972681Y-72537498D01*
X124973900Y-72552985D01*
X124973900Y-75674971D01*
X124971638Y-75696013D01*
X124970028Y-75703410D01*
X124970029Y-75703411D01*
X124970029Y-75703412D01*
X124970095Y-75704328D01*
X124970845Y-75714828D01*
X124965542Y-75754584D01*
X124944632Y-75814342D01*
X124924435Y-75993600D01*
X124944632Y-76172857D01*
X124944633Y-76172861D01*
X125004211Y-76343122D01*
X125004211Y-76343123D01*
X125042933Y-76404748D01*
X125100184Y-76495862D01*
X125227738Y-76623416D01*
X125227740Y-76623417D01*
X125227741Y-76623418D01*
X125353220Y-76702262D01*
X125380478Y-76719389D01*
X125448657Y-76743246D01*
X125550738Y-76778966D01*
X125550742Y-76778967D01*
X125550745Y-76778968D01*
X125730000Y-76799165D01*
X125909255Y-76778968D01*
X126079522Y-76719389D01*
X126232262Y-76623416D01*
X126359816Y-76495862D01*
X126455789Y-76343122D01*
X126515368Y-76172855D01*
X126535565Y-75993600D01*
X126515368Y-75814345D01*
X126515021Y-75813354D01*
X126480039Y-75713381D01*
X126455789Y-75644078D01*
X126443044Y-75623795D01*
X126359818Y-75491341D01*
X126359817Y-75491340D01*
X126359816Y-75491338D01*
X126232262Y-75363784D01*
X126232259Y-75363782D01*
X126232258Y-75363781D01*
X126079523Y-75267811D01*
X126044401Y-75255521D01*
X125995721Y-75218455D01*
X125978100Y-75162077D01*
X125978100Y-72552985D01*
X125997007Y-72494794D01*
X126007090Y-72482987D01*
X126105816Y-72384262D01*
X126201789Y-72231522D01*
X126261058Y-72062142D01*
X126261366Y-72061261D01*
X126261367Y-72061257D01*
X126261368Y-72061255D01*
X126281565Y-71882000D01*
X126261368Y-71702745D01*
X126258804Y-71695418D01*
X126225721Y-71600871D01*
X126201789Y-71532478D01*
X126197254Y-71525261D01*
X126105818Y-71379741D01*
X126105817Y-71379740D01*
X126105816Y-71379738D01*
X125978262Y-71252184D01*
X125978259Y-71252182D01*
X125978258Y-71252181D01*
X125825523Y-71156211D01*
X125655261Y-71096633D01*
X125655257Y-71096632D01*
X125476000Y-71076435D01*
X125296742Y-71096632D01*
X125296738Y-71096633D01*
X125126477Y-71156211D01*
X125126476Y-71156211D01*
X124973741Y-71252181D01*
X124846181Y-71379741D01*
X124750211Y-71532476D01*
X124750211Y-71532477D01*
X124690633Y-71702738D01*
X124690632Y-71702742D01*
X124670435Y-71882000D01*
X123171021Y-71882000D01*
X123176077Y-71869791D01*
X123180222Y-71861027D01*
X123216041Y-71794017D01*
X123238099Y-71721300D01*
X123241361Y-71712182D01*
X123247229Y-71698017D01*
X123250221Y-71682974D01*
X123252570Y-71673596D01*
X123274632Y-71600868D01*
X123282082Y-71525218D01*
X123283500Y-71515669D01*
X123286492Y-71500628D01*
X123287061Y-71477401D01*
X123287505Y-71470164D01*
X123294416Y-71400000D01*
X123287505Y-71329838D01*
X123287061Y-71322596D01*
X123286492Y-71299372D01*
X123283499Y-71284327D01*
X123282083Y-71274784D01*
X123274632Y-71199132D01*
X123252573Y-71126413D01*
X123250217Y-71117004D01*
X123247229Y-71101983D01*
X123247226Y-71101977D01*
X123247225Y-71101972D01*
X123241369Y-71087835D01*
X123238095Y-71078686D01*
X123226708Y-71041148D01*
X123216041Y-71005983D01*
X123180217Y-70938962D01*
X123176082Y-70930218D01*
X123170212Y-70916047D01*
X123161687Y-70903289D01*
X123156717Y-70894996D01*
X123120894Y-70827976D01*
X123118762Y-70825378D01*
X123072697Y-70769247D01*
X123066912Y-70761447D01*
X123058402Y-70748712D01*
X123058400Y-70748709D01*
X123047554Y-70737863D01*
X123041050Y-70730686D01*
X122992848Y-70671952D01*
X122992845Y-70671949D01*
X122967255Y-70650948D01*
X122934115Y-70623751D01*
X122926934Y-70617243D01*
X122916091Y-70606400D01*
X122916087Y-70606397D01*
X122916086Y-70606396D01*
X122903350Y-70597886D01*
X122895547Y-70592099D01*
X122836827Y-70543908D01*
X122836825Y-70543907D01*
X122836824Y-70543906D01*
X122769806Y-70508084D01*
X122761495Y-70503102D01*
X122754610Y-70498501D01*
X122748749Y-70494585D01*
X122734598Y-70488724D01*
X122725814Y-70484570D01*
X122720955Y-70481973D01*
X122664250Y-70451663D01*
X122658821Y-70448761D01*
X122658820Y-70448760D01*
X122658817Y-70448759D01*
X122627309Y-70439201D01*
X122586104Y-70426701D01*
X122576961Y-70423429D01*
X122562818Y-70417571D01*
X122556269Y-70416268D01*
X122547794Y-70414582D01*
X122538375Y-70412223D01*
X122465668Y-70390167D01*
X122465662Y-70390166D01*
X122390061Y-70382721D01*
X122380451Y-70381296D01*
X122365428Y-70378308D01*
X122350114Y-70378308D01*
X122340410Y-70377831D01*
X122264803Y-70370384D01*
X122264797Y-70370384D01*
X122189190Y-70377831D01*
X122179486Y-70378308D01*
X122164167Y-70378308D01*
X122149145Y-70381296D01*
X122139540Y-70382720D01*
X122063937Y-70390166D01*
X121991224Y-70412223D01*
X121981804Y-70414582D01*
X121966787Y-70417569D01*
X121952628Y-70423433D01*
X121943491Y-70426701D01*
X121870793Y-70448755D01*
X121870773Y-70448763D01*
X121803778Y-70484573D01*
X121794997Y-70488726D01*
X121780855Y-70494585D01*
X121780845Y-70494589D01*
X121768104Y-70503102D01*
X121759775Y-70508094D01*
X121692778Y-70543904D01*
X121634044Y-70592104D01*
X121626250Y-70597884D01*
X121613515Y-70606394D01*
X121613507Y-70606401D01*
X121602675Y-70617233D01*
X121595480Y-70623754D01*
X121536757Y-70671947D01*
X121536747Y-70671957D01*
X121488554Y-70730680D01*
X121482033Y-70737875D01*
X121471201Y-70748707D01*
X121471194Y-70748715D01*
X121462684Y-70761450D01*
X121456904Y-70769244D01*
X121408704Y-70827978D01*
X121372894Y-70894975D01*
X121367902Y-70903304D01*
X121359389Y-70916045D01*
X121353526Y-70930199D01*
X121349373Y-70938978D01*
X121313563Y-71005973D01*
X121313555Y-71005993D01*
X121291501Y-71078691D01*
X121288233Y-71087828D01*
X121282369Y-71101987D01*
X121279382Y-71117004D01*
X121277023Y-71126424D01*
X121254966Y-71199137D01*
X121247520Y-71274740D01*
X121246096Y-71284345D01*
X121243108Y-71299367D01*
X121243108Y-71314685D01*
X121242631Y-71324389D01*
X121235184Y-71399997D01*
X121235184Y-71400002D01*
X118972789Y-71400002D01*
X118980098Y-71390131D01*
X118981879Y-71387803D01*
X119263970Y-71030716D01*
X119264853Y-71029617D01*
X119501728Y-70739829D01*
X119503571Y-70737645D01*
X119802129Y-70394556D01*
X119802950Y-70393628D01*
X120053780Y-70115120D01*
X120055659Y-70113097D01*
X120369916Y-69784840D01*
X120370878Y-69783853D01*
X120634923Y-69517500D01*
X120636909Y-69515555D01*
X120966153Y-69202828D01*
X120967176Y-69201874D01*
X121243932Y-68948226D01*
X121245979Y-68946404D01*
X121589443Y-68649889D01*
X121590555Y-68648947D01*
X121879347Y-68408661D01*
X121881454Y-68406959D01*
X122238372Y-68127277D01*
X122239658Y-68126289D01*
X122539766Y-67899996D01*
X122541973Y-67898381D01*
X122911438Y-67636199D01*
X122912837Y-67635226D01*
X123223719Y-67423365D01*
X123225950Y-67421890D01*
X123607290Y-67177652D01*
X123608711Y-67176762D01*
X123929536Y-66979929D01*
X123931853Y-66978551D01*
X124324073Y-66752863D01*
X124325643Y-66751980D01*
X124655833Y-66570560D01*
X124658002Y-66569408D01*
X125060514Y-66362592D01*
X125061943Y-66361876D01*
X125400628Y-66196378D01*
X125402905Y-66195304D01*
X125814565Y-66007936D01*
X125816226Y-66007201D01*
X126162483Y-65858091D01*
X126164773Y-65857141D01*
X126584681Y-65689607D01*
X126586398Y-65688942D01*
X126939569Y-65556514D01*
X126941946Y-65555659D01*
X127369218Y-65408297D01*
X127370934Y-65407726D01*
X127730108Y-65292334D01*
X127732501Y-65291599D01*
X128166174Y-65164727D01*
X128167990Y-65164216D01*
X128532416Y-65066114D01*
X128534784Y-65065509D01*
X128973849Y-64959409D01*
X128975750Y-64958972D01*
X129344628Y-64878389D01*
X129346820Y-64877939D01*
X129790456Y-64792804D01*
X129792367Y-64792459D01*
X130164698Y-64729625D01*
X130167076Y-64729254D01*
X130614097Y-64665306D01*
X130616022Y-64665053D01*
X130991001Y-64620106D01*
X130993334Y-64619856D01*
X131442771Y-64577219D01*
X131444831Y-64577047D01*
X131821611Y-64550096D01*
X131823867Y-64549963D01*
X132274812Y-64528717D01*
X132276925Y-64528642D01*
X132654577Y-64519759D01*
X132656729Y-64519735D01*
X133108196Y-64519928D01*
G37*
%TD.AperFunction*%
%TD*%
M02*
