%TF.GenerationSoftware,KiCad,Pcbnew,7.0.11*%
%TF.CreationDate,2024-11-14T13:48:53-05:00*%
%TF.ProjectId,IO_watch,494f5f77-6174-4636-982e-6b696361645f,rev?*%
%TF.SameCoordinates,Original*%
%TF.FileFunction,Legend,Top*%
%TF.FilePolarity,Positive*%
%FSLAX46Y46*%
G04 Gerber Fmt 4.6, Leading zero omitted, Abs format (unit mm)*
G04 Created by KiCad (PCBNEW 7.0.11) date 2024-11-14 13:48:53*
%MOMM*%
%LPD*%
G01*
G04 APERTURE LIST*
%ADD10C,0.150000*%
%ADD11C,0.120000*%
%ADD12C,0.152400*%
%ADD13C,0.127000*%
%ADD14C,0.200000*%
G04 APERTURE END LIST*
D10*
X142175116Y-70231853D02*
X141603688Y-70231853D01*
X141889402Y-70231853D02*
X141889402Y-69231853D01*
X141889402Y-69231853D02*
X141794164Y-69374710D01*
X141794164Y-69374710D02*
X141698926Y-69469948D01*
X141698926Y-69469948D02*
X141603688Y-69517567D01*
X146506452Y-75475659D02*
X146554071Y-75428040D01*
X146554071Y-75428040D02*
X146649309Y-75380421D01*
X146649309Y-75380421D02*
X146887404Y-75380421D01*
X146887404Y-75380421D02*
X146982642Y-75428040D01*
X146982642Y-75428040D02*
X147030261Y-75475659D01*
X147030261Y-75475659D02*
X147077880Y-75570897D01*
X147077880Y-75570897D02*
X147077880Y-75666135D01*
X147077880Y-75666135D02*
X147030261Y-75808992D01*
X147030261Y-75808992D02*
X146458833Y-76380421D01*
X146458833Y-76380421D02*
X147077880Y-76380421D01*
X147630467Y-83156619D02*
X148249514Y-83156619D01*
X148249514Y-83156619D02*
X147916181Y-83537571D01*
X147916181Y-83537571D02*
X148059038Y-83537571D01*
X148059038Y-83537571D02*
X148154276Y-83585190D01*
X148154276Y-83585190D02*
X148201895Y-83632809D01*
X148201895Y-83632809D02*
X148249514Y-83728047D01*
X148249514Y-83728047D02*
X148249514Y-83966142D01*
X148249514Y-83966142D02*
X148201895Y-84061380D01*
X148201895Y-84061380D02*
X148154276Y-84109000D01*
X148154276Y-84109000D02*
X148059038Y-84156619D01*
X148059038Y-84156619D02*
X147773324Y-84156619D01*
X147773324Y-84156619D02*
X147678086Y-84109000D01*
X147678086Y-84109000D02*
X147630467Y-84061380D01*
X145280842Y-90810154D02*
X145280842Y-91476821D01*
X145042747Y-90429202D02*
X144804652Y-91143487D01*
X144804652Y-91143487D02*
X145423699Y-91143487D01*
X139179893Y-95379585D02*
X138703703Y-95379585D01*
X138703703Y-95379585D02*
X138656084Y-95855775D01*
X138656084Y-95855775D02*
X138703703Y-95808156D01*
X138703703Y-95808156D02*
X138798941Y-95760537D01*
X138798941Y-95760537D02*
X139037036Y-95760537D01*
X139037036Y-95760537D02*
X139132274Y-95808156D01*
X139132274Y-95808156D02*
X139179893Y-95855775D01*
X139179893Y-95855775D02*
X139227512Y-95951013D01*
X139227512Y-95951013D02*
X139227512Y-96189108D01*
X139227512Y-96189108D02*
X139179893Y-96284346D01*
X139179893Y-96284346D02*
X139132274Y-96331966D01*
X139132274Y-96331966D02*
X139037036Y-96379585D01*
X139037036Y-96379585D02*
X138798941Y-96379585D01*
X138798941Y-96379585D02*
X138703703Y-96331966D01*
X138703703Y-96331966D02*
X138656084Y-96284346D01*
X131356076Y-96551219D02*
X131165600Y-96551219D01*
X131165600Y-96551219D02*
X131070362Y-96598838D01*
X131070362Y-96598838D02*
X131022743Y-96646457D01*
X131022743Y-96646457D02*
X130927505Y-96789314D01*
X130927505Y-96789314D02*
X130879886Y-96979790D01*
X130879886Y-96979790D02*
X130879886Y-97360742D01*
X130879886Y-97360742D02*
X130927505Y-97455980D01*
X130927505Y-97455980D02*
X130975124Y-97503600D01*
X130975124Y-97503600D02*
X131070362Y-97551219D01*
X131070362Y-97551219D02*
X131260838Y-97551219D01*
X131260838Y-97551219D02*
X131356076Y-97503600D01*
X131356076Y-97503600D02*
X131403695Y-97455980D01*
X131403695Y-97455980D02*
X131451314Y-97360742D01*
X131451314Y-97360742D02*
X131451314Y-97122647D01*
X131451314Y-97122647D02*
X131403695Y-97027409D01*
X131403695Y-97027409D02*
X131356076Y-96979790D01*
X131356076Y-96979790D02*
X131260838Y-96932171D01*
X131260838Y-96932171D02*
X131070362Y-96932171D01*
X131070362Y-96932171D02*
X130975124Y-96979790D01*
X130975124Y-96979790D02*
X130927505Y-97027409D01*
X130927505Y-97027409D02*
X130879886Y-97122647D01*
X123512065Y-93677785D02*
X124178731Y-93677785D01*
X124178731Y-93677785D02*
X123750160Y-94677785D01*
X118847396Y-87957788D02*
X118752158Y-87910169D01*
X118752158Y-87910169D02*
X118704539Y-87862550D01*
X118704539Y-87862550D02*
X118656920Y-87767312D01*
X118656920Y-87767312D02*
X118656920Y-87719693D01*
X118656920Y-87719693D02*
X118704539Y-87624455D01*
X118704539Y-87624455D02*
X118752158Y-87576836D01*
X118752158Y-87576836D02*
X118847396Y-87529217D01*
X118847396Y-87529217D02*
X119037872Y-87529217D01*
X119037872Y-87529217D02*
X119133110Y-87576836D01*
X119133110Y-87576836D02*
X119180729Y-87624455D01*
X119180729Y-87624455D02*
X119228348Y-87719693D01*
X119228348Y-87719693D02*
X119228348Y-87767312D01*
X119228348Y-87767312D02*
X119180729Y-87862550D01*
X119180729Y-87862550D02*
X119133110Y-87910169D01*
X119133110Y-87910169D02*
X119037872Y-87957788D01*
X119037872Y-87957788D02*
X118847396Y-87957788D01*
X118847396Y-87957788D02*
X118752158Y-88005407D01*
X118752158Y-88005407D02*
X118704539Y-88053026D01*
X118704539Y-88053026D02*
X118656920Y-88148264D01*
X118656920Y-88148264D02*
X118656920Y-88338740D01*
X118656920Y-88338740D02*
X118704539Y-88433978D01*
X118704539Y-88433978D02*
X118752158Y-88481598D01*
X118752158Y-88481598D02*
X118847396Y-88529217D01*
X118847396Y-88529217D02*
X119037872Y-88529217D01*
X119037872Y-88529217D02*
X119133110Y-88481598D01*
X119133110Y-88481598D02*
X119180729Y-88433978D01*
X119180729Y-88433978D02*
X119228348Y-88338740D01*
X119228348Y-88338740D02*
X119228348Y-88148264D01*
X119228348Y-88148264D02*
X119180729Y-88053026D01*
X119180729Y-88053026D02*
X119133110Y-88005407D01*
X119133110Y-88005407D02*
X119037872Y-87957788D01*
X117580524Y-80753019D02*
X117771000Y-80753019D01*
X117771000Y-80753019D02*
X117866238Y-80705400D01*
X117866238Y-80705400D02*
X117913857Y-80657780D01*
X117913857Y-80657780D02*
X118009095Y-80514923D01*
X118009095Y-80514923D02*
X118056714Y-80324447D01*
X118056714Y-80324447D02*
X118056714Y-79943495D01*
X118056714Y-79943495D02*
X118009095Y-79848257D01*
X118009095Y-79848257D02*
X117961476Y-79800638D01*
X117961476Y-79800638D02*
X117866238Y-79753019D01*
X117866238Y-79753019D02*
X117675762Y-79753019D01*
X117675762Y-79753019D02*
X117580524Y-79800638D01*
X117580524Y-79800638D02*
X117532905Y-79848257D01*
X117532905Y-79848257D02*
X117485286Y-79943495D01*
X117485286Y-79943495D02*
X117485286Y-80181590D01*
X117485286Y-80181590D02*
X117532905Y-80276828D01*
X117532905Y-80276828D02*
X117580524Y-80324447D01*
X117580524Y-80324447D02*
X117675762Y-80372066D01*
X117675762Y-80372066D02*
X117866238Y-80372066D01*
X117866238Y-80372066D02*
X117961476Y-80324447D01*
X117961476Y-80324447D02*
X118009095Y-80276828D01*
X118009095Y-80276828D02*
X118056714Y-80181590D01*
X120688123Y-73505219D02*
X120116695Y-73505219D01*
X120402409Y-73505219D02*
X120402409Y-72505219D01*
X120402409Y-72505219D02*
X120307171Y-72648076D01*
X120307171Y-72648076D02*
X120211933Y-72743314D01*
X120211933Y-72743314D02*
X120116695Y-72790933D01*
X121307171Y-72505219D02*
X121402409Y-72505219D01*
X121402409Y-72505219D02*
X121497647Y-72552838D01*
X121497647Y-72552838D02*
X121545266Y-72600457D01*
X121545266Y-72600457D02*
X121592885Y-72695695D01*
X121592885Y-72695695D02*
X121640504Y-72886171D01*
X121640504Y-72886171D02*
X121640504Y-73124266D01*
X121640504Y-73124266D02*
X121592885Y-73314742D01*
X121592885Y-73314742D02*
X121545266Y-73409980D01*
X121545266Y-73409980D02*
X121497647Y-73457600D01*
X121497647Y-73457600D02*
X121402409Y-73505219D01*
X121402409Y-73505219D02*
X121307171Y-73505219D01*
X121307171Y-73505219D02*
X121211933Y-73457600D01*
X121211933Y-73457600D02*
X121164314Y-73409980D01*
X121164314Y-73409980D02*
X121116695Y-73314742D01*
X121116695Y-73314742D02*
X121069076Y-73124266D01*
X121069076Y-73124266D02*
X121069076Y-72886171D01*
X121069076Y-72886171D02*
X121116695Y-72695695D01*
X121116695Y-72695695D02*
X121164314Y-72600457D01*
X121164314Y-72600457D02*
X121211933Y-72552838D01*
X121211933Y-72552838D02*
X121307171Y-72505219D01*
X126860323Y-68603019D02*
X126288895Y-68603019D01*
X126574609Y-68603019D02*
X126574609Y-67603019D01*
X126574609Y-67603019D02*
X126479371Y-67745876D01*
X126479371Y-67745876D02*
X126384133Y-67841114D01*
X126384133Y-67841114D02*
X126288895Y-67888733D01*
X127812704Y-68603019D02*
X127241276Y-68603019D01*
X127526990Y-68603019D02*
X127526990Y-67603019D01*
X127526990Y-67603019D02*
X127431752Y-67745876D01*
X127431752Y-67745876D02*
X127336514Y-67841114D01*
X127336514Y-67841114D02*
X127241276Y-67888733D01*
X134505723Y-67409219D02*
X133934295Y-67409219D01*
X134220009Y-67409219D02*
X134220009Y-66409219D01*
X134220009Y-66409219D02*
X134124771Y-66552076D01*
X134124771Y-66552076D02*
X134029533Y-66647314D01*
X134029533Y-66647314D02*
X133934295Y-66694933D01*
X134886676Y-66504457D02*
X134934295Y-66456838D01*
X134934295Y-66456838D02*
X135029533Y-66409219D01*
X135029533Y-66409219D02*
X135267628Y-66409219D01*
X135267628Y-66409219D02*
X135362866Y-66456838D01*
X135362866Y-66456838D02*
X135410485Y-66504457D01*
X135410485Y-66504457D02*
X135458104Y-66599695D01*
X135458104Y-66599695D02*
X135458104Y-66694933D01*
X135458104Y-66694933D02*
X135410485Y-66837790D01*
X135410485Y-66837790D02*
X134839057Y-67409219D01*
X134839057Y-67409219D02*
X135458104Y-67409219D01*
X140809742Y-76019819D02*
X140476409Y-75543628D01*
X140238314Y-76019819D02*
X140238314Y-75019819D01*
X140238314Y-75019819D02*
X140619266Y-75019819D01*
X140619266Y-75019819D02*
X140714504Y-75067438D01*
X140714504Y-75067438D02*
X140762123Y-75115057D01*
X140762123Y-75115057D02*
X140809742Y-75210295D01*
X140809742Y-75210295D02*
X140809742Y-75353152D01*
X140809742Y-75353152D02*
X140762123Y-75448390D01*
X140762123Y-75448390D02*
X140714504Y-75496009D01*
X140714504Y-75496009D02*
X140619266Y-75543628D01*
X140619266Y-75543628D02*
X140238314Y-75543628D01*
X141762123Y-76019819D02*
X141190695Y-76019819D01*
X141476409Y-76019819D02*
X141476409Y-75019819D01*
X141476409Y-75019819D02*
X141381171Y-75162676D01*
X141381171Y-75162676D02*
X141285933Y-75257914D01*
X141285933Y-75257914D02*
X141190695Y-75305533D01*
X142095457Y-75019819D02*
X142714504Y-75019819D01*
X142714504Y-75019819D02*
X142381171Y-75400771D01*
X142381171Y-75400771D02*
X142524028Y-75400771D01*
X142524028Y-75400771D02*
X142619266Y-75448390D01*
X142619266Y-75448390D02*
X142666885Y-75496009D01*
X142666885Y-75496009D02*
X142714504Y-75591247D01*
X142714504Y-75591247D02*
X142714504Y-75829342D01*
X142714504Y-75829342D02*
X142666885Y-75924580D01*
X142666885Y-75924580D02*
X142619266Y-75972200D01*
X142619266Y-75972200D02*
X142524028Y-76019819D01*
X142524028Y-76019819D02*
X142238314Y-76019819D01*
X142238314Y-76019819D02*
X142143076Y-75972200D01*
X142143076Y-75972200D02*
X142095457Y-75924580D01*
X145291980Y-81472066D02*
X145339600Y-81519685D01*
X145339600Y-81519685D02*
X145387219Y-81662542D01*
X145387219Y-81662542D02*
X145387219Y-81757780D01*
X145387219Y-81757780D02*
X145339600Y-81900637D01*
X145339600Y-81900637D02*
X145244361Y-81995875D01*
X145244361Y-81995875D02*
X145149123Y-82043494D01*
X145149123Y-82043494D02*
X144958647Y-82091113D01*
X144958647Y-82091113D02*
X144815790Y-82091113D01*
X144815790Y-82091113D02*
X144625314Y-82043494D01*
X144625314Y-82043494D02*
X144530076Y-81995875D01*
X144530076Y-81995875D02*
X144434838Y-81900637D01*
X144434838Y-81900637D02*
X144387219Y-81757780D01*
X144387219Y-81757780D02*
X144387219Y-81662542D01*
X144387219Y-81662542D02*
X144434838Y-81519685D01*
X144434838Y-81519685D02*
X144482457Y-81472066D01*
X144482457Y-81091113D02*
X144434838Y-81043494D01*
X144434838Y-81043494D02*
X144387219Y-80948256D01*
X144387219Y-80948256D02*
X144387219Y-80710161D01*
X144387219Y-80710161D02*
X144434838Y-80614923D01*
X144434838Y-80614923D02*
X144482457Y-80567304D01*
X144482457Y-80567304D02*
X144577695Y-80519685D01*
X144577695Y-80519685D02*
X144672933Y-80519685D01*
X144672933Y-80519685D02*
X144815790Y-80567304D01*
X144815790Y-80567304D02*
X145387219Y-81138732D01*
X145387219Y-81138732D02*
X145387219Y-80519685D01*
X143933942Y-85341619D02*
X143600609Y-84865428D01*
X143362514Y-85341619D02*
X143362514Y-84341619D01*
X143362514Y-84341619D02*
X143743466Y-84341619D01*
X143743466Y-84341619D02*
X143838704Y-84389238D01*
X143838704Y-84389238D02*
X143886323Y-84436857D01*
X143886323Y-84436857D02*
X143933942Y-84532095D01*
X143933942Y-84532095D02*
X143933942Y-84674952D01*
X143933942Y-84674952D02*
X143886323Y-84770190D01*
X143886323Y-84770190D02*
X143838704Y-84817809D01*
X143838704Y-84817809D02*
X143743466Y-84865428D01*
X143743466Y-84865428D02*
X143362514Y-84865428D01*
X144886323Y-85341619D02*
X144314895Y-85341619D01*
X144600609Y-85341619D02*
X144600609Y-84341619D01*
X144600609Y-84341619D02*
X144505371Y-84484476D01*
X144505371Y-84484476D02*
X144410133Y-84579714D01*
X144410133Y-84579714D02*
X144314895Y-84627333D01*
X145743466Y-84674952D02*
X145743466Y-85341619D01*
X145505371Y-84294000D02*
X145267276Y-85008285D01*
X145267276Y-85008285D02*
X145886323Y-85008285D01*
X133420310Y-90601014D02*
X133420310Y-91929660D01*
X133420310Y-91929660D02*
X133498465Y-92085971D01*
X133498465Y-92085971D02*
X133576621Y-92164127D01*
X133576621Y-92164127D02*
X133732932Y-92242282D01*
X133732932Y-92242282D02*
X134045555Y-92242282D01*
X134045555Y-92242282D02*
X134201866Y-92164127D01*
X134201866Y-92164127D02*
X134280021Y-92085971D01*
X134280021Y-92085971D02*
X134358177Y-91929660D01*
X134358177Y-91929660D02*
X134358177Y-90601014D01*
X135061578Y-90757325D02*
X135139734Y-90679170D01*
X135139734Y-90679170D02*
X135296045Y-90601014D01*
X135296045Y-90601014D02*
X135686823Y-90601014D01*
X135686823Y-90601014D02*
X135843134Y-90679170D01*
X135843134Y-90679170D02*
X135921290Y-90757325D01*
X135921290Y-90757325D02*
X135999445Y-90913637D01*
X135999445Y-90913637D02*
X135999445Y-91069948D01*
X135999445Y-91069948D02*
X135921290Y-91304415D01*
X135921290Y-91304415D02*
X134983422Y-92242282D01*
X134983422Y-92242282D02*
X135999445Y-92242282D01*
X143933942Y-83538219D02*
X143600609Y-83062028D01*
X143362514Y-83538219D02*
X143362514Y-82538219D01*
X143362514Y-82538219D02*
X143743466Y-82538219D01*
X143743466Y-82538219D02*
X143838704Y-82585838D01*
X143838704Y-82585838D02*
X143886323Y-82633457D01*
X143886323Y-82633457D02*
X143933942Y-82728695D01*
X143933942Y-82728695D02*
X143933942Y-82871552D01*
X143933942Y-82871552D02*
X143886323Y-82966790D01*
X143886323Y-82966790D02*
X143838704Y-83014409D01*
X143838704Y-83014409D02*
X143743466Y-83062028D01*
X143743466Y-83062028D02*
X143362514Y-83062028D01*
X144886323Y-83538219D02*
X144314895Y-83538219D01*
X144600609Y-83538219D02*
X144600609Y-82538219D01*
X144600609Y-82538219D02*
X144505371Y-82681076D01*
X144505371Y-82681076D02*
X144410133Y-82776314D01*
X144410133Y-82776314D02*
X144314895Y-82823933D01*
X145791085Y-82538219D02*
X145314895Y-82538219D01*
X145314895Y-82538219D02*
X145267276Y-83014409D01*
X145267276Y-83014409D02*
X145314895Y-82966790D01*
X145314895Y-82966790D02*
X145410133Y-82919171D01*
X145410133Y-82919171D02*
X145648228Y-82919171D01*
X145648228Y-82919171D02*
X145743466Y-82966790D01*
X145743466Y-82966790D02*
X145791085Y-83014409D01*
X145791085Y-83014409D02*
X145838704Y-83109647D01*
X145838704Y-83109647D02*
X145838704Y-83347742D01*
X145838704Y-83347742D02*
X145791085Y-83442980D01*
X145791085Y-83442980D02*
X145743466Y-83490600D01*
X145743466Y-83490600D02*
X145648228Y-83538219D01*
X145648228Y-83538219D02*
X145410133Y-83538219D01*
X145410133Y-83538219D02*
X145314895Y-83490600D01*
X145314895Y-83490600D02*
X145267276Y-83442980D01*
X139780180Y-81421266D02*
X139827800Y-81468885D01*
X139827800Y-81468885D02*
X139875419Y-81611742D01*
X139875419Y-81611742D02*
X139875419Y-81706980D01*
X139875419Y-81706980D02*
X139827800Y-81849837D01*
X139827800Y-81849837D02*
X139732561Y-81945075D01*
X139732561Y-81945075D02*
X139637323Y-81992694D01*
X139637323Y-81992694D02*
X139446847Y-82040313D01*
X139446847Y-82040313D02*
X139303990Y-82040313D01*
X139303990Y-82040313D02*
X139113514Y-81992694D01*
X139113514Y-81992694D02*
X139018276Y-81945075D01*
X139018276Y-81945075D02*
X138923038Y-81849837D01*
X138923038Y-81849837D02*
X138875419Y-81706980D01*
X138875419Y-81706980D02*
X138875419Y-81611742D01*
X138875419Y-81611742D02*
X138923038Y-81468885D01*
X138923038Y-81468885D02*
X138970657Y-81421266D01*
X139875419Y-80468885D02*
X139875419Y-81040313D01*
X139875419Y-80754599D02*
X138875419Y-80754599D01*
X138875419Y-80754599D02*
X139018276Y-80849837D01*
X139018276Y-80849837D02*
X139113514Y-80945075D01*
X139113514Y-80945075D02*
X139161133Y-81040313D01*
X136741819Y-72212104D02*
X137551342Y-72212104D01*
X137551342Y-72212104D02*
X137646580Y-72164485D01*
X137646580Y-72164485D02*
X137694200Y-72116866D01*
X137694200Y-72116866D02*
X137741819Y-72021628D01*
X137741819Y-72021628D02*
X137741819Y-71831152D01*
X137741819Y-71831152D02*
X137694200Y-71735914D01*
X137694200Y-71735914D02*
X137646580Y-71688295D01*
X137646580Y-71688295D02*
X137551342Y-71640676D01*
X137551342Y-71640676D02*
X136741819Y-71640676D01*
X137741819Y-70640676D02*
X137741819Y-71212104D01*
X137741819Y-70926390D02*
X136741819Y-70926390D01*
X136741819Y-70926390D02*
X136884676Y-71021628D01*
X136884676Y-71021628D02*
X136979914Y-71116866D01*
X136979914Y-71116866D02*
X137027533Y-71212104D01*
D11*
%TO.C,4*%
X146789029Y-90857032D02*
X147524029Y-89583974D01*
X147524029Y-89583974D02*
X145545161Y-88441474D01*
X144810161Y-89714532D02*
X146789029Y-90857032D01*
%TO.C,R5*%
X141385350Y-94699723D02*
X141148092Y-94288781D01*
X142290346Y-94177223D02*
X142053088Y-93766281D01*
%TO.C,D11*%
X125239432Y-67368771D02*
X123966374Y-68103771D01*
X123966374Y-68103771D02*
X125108874Y-70082639D01*
X126381932Y-69347639D02*
X125239432Y-67368771D01*
%TO.C,R9*%
X117610142Y-83026900D02*
X118084658Y-83026900D01*
X117610142Y-84071900D02*
X118084658Y-84071900D01*
%TO.C,5*%
X140495368Y-96631229D02*
X141768426Y-95896229D01*
X141768426Y-95896229D02*
X140625926Y-93917361D01*
X139352868Y-94652361D02*
X140495368Y-96631229D01*
%TO.C,R12*%
X131840500Y-66742742D02*
X131840500Y-67217258D01*
X130795500Y-66742742D02*
X130795500Y-67217258D01*
%TO.C,TP6*%
X125922000Y-86360000D02*
G75*
G03*
X124522000Y-86360000I-700000J0D01*
G01*
X124522000Y-86360000D02*
G75*
G03*
X125922000Y-86360000I700000J0D01*
G01*
%TO.C,R8*%
X120167677Y-90517950D02*
X120578619Y-90280692D01*
X120690177Y-91422946D02*
X121101119Y-91185688D01*
%TO.C,12*%
X133577000Y-65515000D02*
X132107000Y-65515000D01*
X132107000Y-65515000D02*
X132107000Y-67800000D01*
X133577000Y-67800000D02*
X133577000Y-65515000D01*
%TO.C,R2*%
X145567123Y-73482050D02*
X145156181Y-73719308D01*
X145044623Y-72577054D02*
X144633681Y-72814312D01*
%TO.C,R1*%
X139606708Y-68273377D02*
X139369450Y-68684319D01*
X138701712Y-67750877D02*
X138464454Y-68161819D01*
%TO.C,D10*%
X118945771Y-73142968D02*
X118210771Y-74416026D01*
X118210771Y-74416026D02*
X120189639Y-75558526D01*
X120924639Y-74285468D02*
X118945771Y-73142968D01*
%TO.C,D7*%
X124010368Y-95921629D02*
X125283426Y-96656629D01*
X125283426Y-96656629D02*
X126425926Y-94677761D01*
X125152868Y-93942761D02*
X124010368Y-95921629D01*
%TO.C,R13*%
X141778258Y-77484500D02*
X141303742Y-77484500D01*
X141778258Y-76439500D02*
X141303742Y-76439500D01*
%TO.C,C2*%
X143991000Y-79494748D02*
X143991000Y-80017252D01*
X142521000Y-79494748D02*
X142521000Y-80017252D01*
%TO.C,R14*%
X141969258Y-85358500D02*
X141494742Y-85358500D01*
X141969258Y-84313500D02*
X141494742Y-84313500D01*
D12*
%TO.C,U2*%
X129032000Y-82118200D02*
X129032000Y-82321400D01*
X129032000Y-92430600D02*
X129032000Y-92633800D01*
X129032000Y-92633800D02*
X136652000Y-92633800D01*
X132537200Y-82118200D02*
X129032000Y-82118200D01*
X133146800Y-82118200D02*
X132537200Y-82118200D01*
X136652000Y-82118200D02*
X133146800Y-82118200D01*
X136652000Y-82321400D02*
X136652000Y-82118200D01*
X136652000Y-92633800D02*
X136652000Y-92430600D01*
X132537200Y-82118200D02*
G75*
G03*
X133146800Y-82118200I304800J0D01*
G01*
D11*
%TO.C,R7*%
X126128092Y-95726623D02*
X126365350Y-95315681D01*
X127033088Y-96249123D02*
X127270346Y-95838181D01*
%TO.C,R6*%
X133894300Y-97257258D02*
X133894300Y-96782742D01*
X134939300Y-97257258D02*
X134939300Y-96782742D01*
%TO.C,R15*%
X141494742Y-82535500D02*
X141969258Y-82535500D01*
X141494742Y-83580500D02*
X141969258Y-83580500D01*
%TO.C,R10*%
X119140777Y-75260692D02*
X119551719Y-75497950D01*
X118618277Y-76165688D02*
X119029219Y-76402946D01*
%TO.C,R3*%
X148124658Y-80973100D02*
X147650142Y-80973100D01*
X148124658Y-79928100D02*
X147650142Y-79928100D01*
%TO.C,R4*%
X147116523Y-87834312D02*
X146705581Y-87597054D01*
X146594023Y-88739308D02*
X146183081Y-88502050D01*
%TO.C,1*%
X141724432Y-68078371D02*
X140451374Y-67343371D01*
X140451374Y-67343371D02*
X139308874Y-69322239D01*
X140581932Y-70057239D02*
X141724432Y-68078371D01*
%TO.C,R11*%
X124349450Y-69300277D02*
X124586708Y-69711219D01*
X123444454Y-69822777D02*
X123681712Y-70233719D01*
%TO.C,C1*%
X141705000Y-79494748D02*
X141705000Y-80017252D01*
X140235000Y-79494748D02*
X140235000Y-80017252D01*
D13*
%TO.C,U1*%
X136342000Y-72192000D02*
X136237000Y-72192000D01*
X136342000Y-72192000D02*
X136342000Y-72297000D01*
X129342000Y-72192000D02*
X129447000Y-72192000D01*
X129342000Y-72192000D02*
X129342000Y-72297000D01*
X136342000Y-79192000D02*
X136342000Y-79087000D01*
X136342000Y-79192000D02*
X136237000Y-79192000D01*
X129342000Y-79192000D02*
X129342000Y-79087000D01*
X129342000Y-79192000D02*
X129447000Y-79192000D01*
D14*
X135742000Y-69852000D02*
G75*
G03*
X135542000Y-69852000I-100000J0D01*
G01*
X135542000Y-69852000D02*
G75*
G03*
X135742000Y-69852000I100000J0D01*
G01*
D11*
%TO.C,TP7*%
X140908000Y-74168000D02*
G75*
G03*
X139508000Y-74168000I-700000J0D01*
G01*
X139508000Y-74168000D02*
G75*
G03*
X140908000Y-74168000I700000J0D01*
G01*
%TO.C,3*%
X149352400Y-82709600D02*
X149352400Y-81239600D01*
X149352400Y-81239600D02*
X147067400Y-81239600D01*
X147067400Y-82709600D02*
X149352400Y-82709600D01*
%TO.C,D8*%
X118236171Y-89627968D02*
X118971171Y-90901026D01*
X118971171Y-90901026D02*
X120950039Y-89758526D01*
X120215039Y-88485468D02*
X118236171Y-89627968D01*
%TO.C,D6*%
X132157800Y-98485000D02*
X133627800Y-98485000D01*
X133627800Y-98485000D02*
X133627800Y-96200000D01*
X132157800Y-96200000D02*
X132157800Y-98485000D01*
%TO.C,D9*%
X116382400Y-81290400D02*
X116382400Y-82760400D01*
X116382400Y-82760400D02*
X118667400Y-82760400D01*
X118667400Y-81290400D02*
X116382400Y-81290400D01*
%TO.C,2*%
X147498629Y-74372032D02*
X146763629Y-73098974D01*
X146763629Y-73098974D02*
X144784761Y-74241474D01*
X145519761Y-75514532D02*
X147498629Y-74372032D01*
%TD*%
M02*
