<?xml version="1.0" encoding="UTF-8"?><svg id="Layer_2" xmlns="http://www.w3.org/2000/svg" viewBox="0 0 36 57.6"><defs><style>.cls-1,.cls-2{stroke-width:0px;}.cls-1,.cls-3{fill-rule:evenodd;}.cls-3{fill:none;stroke:#231f20;stroke-miterlimit:10;stroke-width:0px;}</style></defs><g id="Layer_1-2"><polygon class="cls-1" points="19.33 24.77 19.33 24.77 19.33 24.77 19.33 24.77"/><path class="cls-1" d="m18.97,26.93v.03l-.04.19.46.46.11-.08.12-.02h.51l.19.06.06.05,1.62,1.63.1.17v.08s0,4.45,0,4.45l.57.57v-2.04l-.36-.36v-3.3s-.01-.05-.02-.08l-1.79-1.79h-1.54Z"/><path class="cls-1" d="m24.07,39.88c-.03.08-.08.15-.14.21,0,0,0,.01-.01.02l-3.6,3.6s-.01,0-.02.01c-.06.06-.13.11-.21.14-.09.04-.18.06-.28.06h-.99v1.69h-4.82v-4.82h4.82v1.69h.69l3.18-3.18v-4.03h-.02s-.01-.02-.01-.02l-.14-.09-.06-.08-.03-.03-.31-.31v4.19l-.05.19-.05.06-2.03,2.03-.17.1h-.2s-.16-.13-.16-.13l-.07-.19v-.03s0-.22,0-.22l-.03-.16-.12-.19-.19-.12-.16-.03h-4.93l-.16.03-.19.12-.12.19-.03.16v4.93l.03.16.12.19.19.12.16.03h4.97s.12-.03.12-.03l.19-.12.12-.19.03-.16v-.82l.06-.19.15-.13.18-.03h.08s.16-.02.16-.02h.01s.16-.03.16-.03h.03s.02-.01.02-.01l.14-.08h.01s.15-.08.15-.08h.02s.02-.03.02-.03l.12-.12h0s.12-.12.12-.12l.02-.02h0s.03-.03.03-.03l3.38-3.38.03-.03.08-.06.09-.14h0s.1-.14.1-.14v-.02s.02-.02.02-.02l.05-.16h0s.05-.17.05-.17v-.02s0-.02,0-.02v-.16h0s0-.18,0-.18v-.03s0,0,0,0v-.04s0-3.89,0-3.89h-.57v4.11c0,.09-.02.19-.06.28Z"/><rect class="cls-2" x="24.12" y="33.48" width=".57" height="1.44"/><path class="cls-1" d="m24.67,28.59h0s-.03-.17-.03-.17v-.03s-.01-.02-.01-.02l-.08-.14h0s-.07-.16-.07-.16v-.02s-.03-.02-.03-.02l-.12-.12h0s-.11-.13-.11-.13l-.02-.02h0s-.03-.03-.03-.03l-2.37-2.37-.03-.03-.02-.02-.05-.06-.14-.09h0s-.13-.1-.13-.1h-.02s-.02-.02-.02-.02l-.16-.05h-.01s-.15-.06-.15-.06h-.02s-.03,0-.03,0h-.34s-.03,0-.03,0h0s-.05,0-.05,0h-.97l-.19-.06-.09-.09h-.01s.07.08.07.08v.02s.02.02.02.02l.13.12h0,0s0,.01,0,.01h.03s.02.03.02.03l.13.1h0s.14.1.14.1l.05.06.02.02.03.03.12.12h.7c.09,0,.19.02.28.06.08.03.15.08.21.14,0,0,.01,0,.02.01l2.59,2.59s0,.01.01.02c.06.06.11.13.14.22.03.08.05.17.05.25,0,0,0,.02,0,.02v4.11h.57v-4.16s0-.03,0-.03l-.03-.14Z"/><polygon class="cls-1" points=".03 57.39 .16 57.54 .35 57.6 .16 57.54 .03 57.39"/><polygon class="cls-3" points="35.97 .21 35.84 .06 35.65 0 .35 0 .21 .03 .06 .16 0 .35 0 28.85 0 28.85 0 45.67 0 57.25 .03 57.39 .16 57.54 .35 57.6 35.65 57.6 35.79 57.57 35.94 57.44 36 57.25 36 .35 35.97 .21"/></g></svg>