<svg xmlns="http://www.w3.org/2000/svg" viewBox="0 0 18.9 25.4" width="18.9mm" height="25.4mm">
                    <g stroke-linecap="round" fill-rule="nonzero">
                        <path fill-rule="evenodd" fill="#66cc99" stroke="#555555" stroke-width="0.0" opacity="1" d="M 6.335278219429895,6.966301145019733 L 6.330372930269062,6.966481817517936 L 6.305476576625347,6.9677048969431965 L 6.295686683424949,6.968427042849787 L 6.276154123399302,6.970350832097866 L 6.266411456574053,6.9715524754393545 L 6.241754868425668,6.9752099347916765 L 6.232082898913532,6.97688818070399 L 6.212832957824022,6.9807172320580255 L 6.2032549862466455,6.982868037499748 L 6.179075620016113,6.988924653446182 L 6.169614720545813,6.991542836938664 L 6.150832785847962,6.9972402745409905 L 6.14151175062041,7.000319528650835 L 6.1180424668223115,7.008716972668953 L 6.1088837510277925,7.012249879203282 L 6.090750703020245,7.019760833615169 L 6.081776370807216,7.023738881492727 L 6.05924319147414,7.034396281606108 L 6.050474862794981,7.038809887361132 L 6.033165332642332,7.048062023985795 L 6.024624131168842,7.052900554855436 L 6.003244063135669,7.0657152744750755 L 5.99495056537041,7.070967074014612 L 5.978631253310636,7.081871289718494 L 5.9706054390161185,7.08752370588284 L 5.950584384025529,7.1023723322535455 L 5.942845588091254,7.108411747877151 L 5.9276736580202725,7.12086302910234 L 5.9202405238835665,7.127274894703925 L 5.901771295639754,7.144014427436679 L 5.898174977661699,7.147355235917427 L 5.891065412393823,7.154124104751087 L 5.887552165104002,7.1575521651040015 L 5.252552165104002,7.792552165104002 L 5.24912410475111,7.796065412393801 L 5.242355235917419,7.8031749776617065 L 5.23901442743662,7.8067712956398125 L 5.222274894703865,7.825240523883633 L 5.215863029102341,7.832673658020281 L 5.203411747877225,7.847845588091165 L 5.197372332253635,7.855584384025402 L 5.182523705882922,7.875605439015985 L 5.176871289718479,7.883631253310658 L 5.165967074014515,7.899950565370575 L 5.160715274474994,7.908244063135817 L 5.147900554855362,7.929624131168999 L 5.143062023985759,7.938165332642414 L 5.133809887361169,7.9554748627949206 L 5.129396281606183,7.964243191474013 L 5.118738881492794,7.986776370807082 L 5.114760833615199,7.995750703020178 L 5.10724987920326,8.013883751027853 L 5.1037169726689156,8.02304246682243 L 5.095319528650806,8.04651175062053 L 5.092240274540976,8.055832785848029 L 5.086542836938679,8.074614720545783 L 5.083924653446212,8.084075620016039 L 5.077868037499771,8.108254986246578 L 5.075717232058018,8.117832957824051 L 5.071888180703968,8.137082898913667 L 5.070209934791669,8.146754868425809 L 5.066552475439355,8.171411456574194 L 5.065350832097873,8.181154123399317 L 5.063427042849794,8.200686683424898 L 5.062704896943196,8.210476576625355 L 5.061481817517937,8.235372930269062 L 5.061301145019725,8.240278219429888 L 5.061060236260757,8.250091754295356 L 5.061,8.255 L 5.061,12.7 L 5.061060236260757,12.704908245704644 L 5.061301145019725,12.714721780570112 L 5.061481817517937,12.719627069730937 L 5.062704896943196,12.744523423374645 L 5.063427042849794,12.754313316575102 L 5.065350832097873,12.773845876600683 L 5.066552475439355,12.783588543425806 L 5.070209934791669,12.808245131574191 L 5.071888180703968,12.817917101086334 L 5.075717232058018,12.837167042175949 L 5.077868037499771,12.846745013753422 L 5.083924653446212,12.870924379983961 L 5.086542836938679,12.880385279454217 L 5.092240274540976,12.899167214151971 L 5.095319528650806,12.90848824937947 L 5.1037169726689156,12.93195753317757 L 5.10724987920326,12.941116248972147 L 5.114760833615199,12.959249296979822 L 5.118738881492794,12.968223629192918 L 5.129396281606183,12.990756808525987 L 5.133809887361169,12.99952513720508 L 5.143062023985759,13.016834667357587 L 5.147900554855362,13.025375868831 L 5.160715274474994,13.046755936864182 L 5.165967074014515,13.055049434629426 L 5.176871289718479,13.071368746689341 L 5.182523705882922,13.079394560984015 L 5.197372332253635,13.099415615974598 L 5.203411747877225,13.107154411908835 L 5.215863029102341,13.12232634197972 L 5.222274894703865,13.129759476116366 L 5.23901442743662,13.148228704360188 L 5.242355235917419,13.151825022338294 L 5.24912410475111,13.158934587606199 L 5.252552165104002,13.162447834895998 L 6.165052165104002,14.074947834895998 L 6.168565412393823,14.078375895248906 L 6.175674977661699,14.085144764082566 L 6.1792712956397535,14.08848557256332 L 6.197740523883566,14.105225105296075 L 6.2051736580203025,14.11163697089769 L 6.220345588091254,14.12408825212285 L 6.228084384025469,14.130127667746395 L 6.248105439016059,14.144976294117107 L 6.256131253310591,14.150628710281476 L 6.27245056537044,14.16153292598541 L 6.280744063135758,14.166784725524977 L 6.302124131168932,14.179599445144609 L 6.310665332642362,14.184437976014213 L 6.327974862794921,14.193690112638832 L 6.33674319147405,14.198103718393847 L 6.359276370807126,14.208761118507237 L 6.368250703020244,14.212739166384846 L 6.386383751027897,14.22025012079677 L 6.39554246682243,14.223783027331084 L 6.419011750620529,14.232180471349194 L 6.428332785847962,14.23525972545901 L 6.447114720545694,14.240957163061307 L 6.456575620015994,14.243575346553788 L 6.480754986246526,14.24963196250023 L 6.490332957824052,14.251782767941982 L 6.509582898913681,14.255611819296032 L 6.5192548684257865,14.25729006520833 L 6.543911456574172,14.260947524560645 L 6.553654123399302,14.262149167902127 L 6.57318668342489,14.264072957150207 L 6.582976576625347,14.264795103056803 L 6.607872930269062,14.266018182482064 L 6.612778219429895,14.266198854980274 L 6.622591754295364,14.266439763739243 L 6.6275,14.2665 L 7.568120439566717,14.2665 L 7.573134593229264,14.274004252338022 L 7.578787064406276,14.282030182459504 L 7.590479016727999,14.297795017685846 L 7.6029304389715495,14.312967158698813 L 7.616111333797887,14.327510053540767 L 7.629989946459234,14.341388666202112 L 7.644532841301188,14.35456956102845 L 7.659704982314154,14.367020983272 L 7.675469817540496,14.378712935593724 L 7.683495747661978,14.384365406770735 L 7.764601747661978,14.438558406770737 L 7.772895235775173,14.443810171598509 L 7.789729913371369,14.453900434241206 L 7.8070394173457025,14.463152506556675 L 7.824782047813937,14.471544099613636 L 7.842915061457872,14.479054997439459 L 7.861394774497479,14.48566710572204 L 7.880176667927802,14.491364495400072 L 7.899215494768605,14.496133441037447 L 7.90879344355166,14.498284226009964 L 8.00446444355166,14.517314226009965 L 8.014136343355387,14.518992447108209 L 8.033550838703931,14.521872293737605 L 8.053083255117402,14.523796054454714 L 8.072686537993029,14.524759094820336 L 8.0825,14.525 L 8.9825,14.525 L 8.99231346200697,14.524759094820336 L 9.011916744882598,14.523796054454714 L 9.03144916129607,14.521872293737605 L 9.050863656644612,14.518992447108209 L 9.06053555644834,14.517314226009965 L 9.15620655644834,14.498284226009964 L 9.165784505231395,14.496133441037447 L 9.184823332072199,14.491364495400072 L 9.203605225502521,14.48566710572204 L 9.222084938542128,14.479054997439459 L 9.240217952186063,14.471544099613636 L 9.257960582654297,14.463152506556675 L 9.27527008662863,14.453900434241206 L 9.292104764224828,14.443810171598509 L 9.300398252338022,14.438558406770737 L 9.381504252338022,14.384365406770735 L 9.389530182459504,14.378712935593724 L 9.405295017685846,14.367020983272 L 9.420467158698813,14.35456956102845 L 9.435010053540767,14.341388666202112 L 9.448888666202112,14.327510053540767 L 9.46206956102845,14.312967158698813 L 9.474520983272,14.297795017685846 L 9.486212935593723,14.282030182459504 L 9.491865406770735,14.274004252338022 L 9.546058406770737,14.192898252338022 L 9.551310171598509,14.184604764224828 L 9.561400434241206,14.16777008662863 L 9.570652506556675,14.150460582654297 L 9.579044099613636,14.132717952186063 L 9.586554997439459,14.114584938542128 L 9.59316710572204,14.096105225502521 L 9.598864495400072,14.077323332072199 L 9.603633441037447,14.058284505231395 L 9.605784226009964,14.04870655644834 L 9.624814226009965,13.95303555644834 L 9.626492447108209,13.943363656644612 L 9.629372293737605,13.92394916129607 L 9.631296054454713,13.904416744882598 L 9.632259094820336,13.88481346200697 L 9.6325,13.875 L 9.6325,13.35 L 9.632259094820336,13.340186537993022 L 9.631296054454713,13.320583255117395 L 9.629372293737605,13.301050838703931 L 9.626492447108209,13.281636343355387 L 9.624814226009965,13.27196444355166 L 9.605784226009964,13.176293443551659 L 9.603633441037447,13.166715494768598 L 9.598864495400072,13.147676667927794 L 9.593167105722085,13.12889477449759 L 9.586554997439519,13.110415061457992 L 9.579044099613608,13.092282047813848 L 9.57065250655663,13.074539417345607 L 9.561400434241175,13.057229913371332 L 9.551310171598479,13.040395235775144 L 9.546058406770737,13.032101747661994 L 9.491865406770735,12.950995747661993 L 9.486212935593754,12.942969817540535 L 9.474520983272031,12.927204982314183 L 9.46206956102845,12.912032841301196 L 9.448888666202112,12.897489946459242 L 9.435010053540767,12.883611333797887 L 9.420467158698813,12.87043043897155 L 9.405295017685846,12.857979016727992 L 9.389530182459504,12.846287064406269 L 9.381504252338022,12.840634593229264 L 9.300398252338022,12.786441593229265 L 9.292104764224828,12.781189828401498 L 9.27527008662863,12.771099565758801 L 9.257960582654357,12.761847493443362 L 9.240217952186123,12.753455900386394 L 9.222084938541993,12.74594500256048 L 9.203605225502386,12.739332894277915 L 9.184823332072273,12.733635504599958 L 9.16578450523147,12.728866558962576 L 9.15620655644834,12.726715773990035 L 9.06053555644834,12.707685773990034 L 9.050863656644612,12.706007552891798 L 9.03144916129607,12.703127706262402 L 9.011916744882598,12.701203945545293 L 8.99231346200697,12.700240905179673 L 8.9825,12.7 L 8.99231346200697,12.699759094820328 L 9.011916744882598,12.698796054454707 L 9.03144916129607,12.696872293737599 L 9.050863656644612,12.6939924471082 L 9.06053555644834,12.692314226009964 L 9.15620655644834,12.673284226009965 L 9.16578450523147,12.671133441037425 L 9.184823332072273,12.66636449540004 L 9.203605225502386,12.660667105722085 L 9.222084938541993,12.654054997439518 L 9.240217952186123,12.646544099613607 L 9.257960582654357,12.638152506556638 L 9.27527008662863,12.628900434241197 L 9.292104764224828,12.618810171598502 L 9.300398252338022,12.613558406770736 L 9.381504252338022,12.559365406770736 L 9.389530182459504,12.553712935593731 L 9.405295017685846,12.542020983272009 L 9.420467158698813,12.52956956102845 L 9.435010053540767,12.516388666202113 L 9.448888666202112,12.502510053540759 L 9.46206956102845,12.487967158698805 L 9.474520983272031,12.472795017685815 L 9.486212935593754,12.457030182459466 L 9.491865406770735,12.449004252338007 L 9.49687956043327,12.4415 L 9.611604330208003,12.4415 L 10.141,12.970895669791997 L 10.141,16.239104330208004 L 9.559547822528229,16.820556507679775 L 9.554696880183055,16.80456509387073 L 9.548084719538883,16.786085342848615 L 9.54057376512693,16.76795229484087 L 9.532182111494333,16.750209633948685 L 9.522929974869744,16.732900103796197 L 9.51283964446059,16.716065404557483 L 9.501935428756655,16.699746092497602 L 9.490243596968696,16.683981482268795 L 9.477792315743521,16.668809552197843 L 9.464611581308276,16.65426685279326 L 9.450733147206739,16.640388418691725 L 9.436190447802156,16.62720768425648 L 9.421018517731204,16.614756403031304 L 9.405253907502399,16.603064571243344 L 9.38893459544252,16.592160355539413 L 9.372099896203801,16.582070025130257 L 9.354790366051317,16.572817888505668 L 9.337047705159128,16.56442623487307 L 9.318914657151387,16.55691528046112 L 9.30043490612927,16.550303119816945 L 9.281652971431523,16.544605682214648 L 9.262614100383848,16.539836693280442 L 9.243364159294321,16.536007641926407 L 9.223949522957012,16.533127752672613 L 9.20441696293144,16.531203963424534 L 9.184813534865528,16.53024090875897 L 9.175,16.53 L 7.475,16.53 L 7.4651864651344715,16.53024090875897 L 7.445583037068561,16.531203963424534 L 7.426050477042988,16.533127752672613 L 7.406635840705678,16.536007641926407 L 7.387385899616152,16.539836693280442 L 7.3683470285684765,16.544605682214648 L 7.349565093870729,16.550303119816945 L 7.331085342848614,16.55691528046112 L 7.312952294840873,16.56442623487307 L 7.295209633948684,16.572817888505668 L 7.277900103796199,16.582070025130257 L 7.261065404557481,16.592160355539413 L 7.244746092497602,16.603064571243344 L 7.228981482268796,16.614756403031304 L 7.213809552197843,16.62720768425648 L 7.1992668527932615,16.640388418691725 L 7.1853884186917245,16.65426685279326 L 7.172207684256479,16.668809552197843 L 7.159756403031304,16.683981482268795 L 7.148064571243346,16.699746092497602 L 7.137160355539411,16.716065404557483 L 7.127070025130257,16.732900103796197 L 7.117817888505668,16.750209633948685 L 7.109426234873071,16.76795229484087 L 7.101915280461117,16.786085342848615 L 7.095303119816944,16.80456509387073 L 7.089605682214647,16.823347028568477 L 7.084836693280444,16.84238589961615 L 7.081007641926408,16.861635840705677 L 7.0781277526726125,16.881050477042987 L 7.0762039634245335,16.90058303706856 L 7.0752409087589685,16.92018646513447 L 7.075,16.93 L 7.075,18.63 L 7.0752409087589685,18.639813534865528 L 7.0762039634245335,18.659416962931438 L 7.0781277526726125,18.678949522957012 L 7.081007641926408,18.69836415929432 L 7.084836693280444,18.717614100383848 L 7.089605682214647,18.736652971431525 L 7.095303119816944,18.75543490612927 L 7.101915280461117,18.773914657151387 L 7.109426234873071,18.792047705159128 L 7.117817888505668,18.809790366051317 L 7.127070025130257,18.8270998962038 L 7.137160355539411,18.84393459544252 L 7.148064571243346,18.860253907502397 L 7.159756403031304,18.876018517731204 L 7.172207684256479,18.891190447802156 L 7.1853884186917245,18.90573314720674 L 7.1992668527932615,18.919611581308274 L 7.213809552197843,18.93279231574352 L 7.228981482268796,18.945243596968695 L 7.244746092497602,18.956935428756655 L 7.261065404557481,18.96783964446059 L 7.277900103796199,18.977929974869742 L 7.295209633948684,18.98718211149433 L 7.312952294840873,18.995573765126927 L 7.331085342848614,19.003084719538883 L 7.349565093870729,19.009696880183057 L 7.3683470285684765,19.015394317785354 L 7.387385899616152,19.020163306719557 L 7.406635840705678,19.023992358073592 L 7.426050477042988,19.026872247327386 L 7.445583037068561,19.028796036575468 L 7.4651864651344715,19.029759091241033 L 7.475,19.03 L 9.175,19.03 L 9.184813534865528,19.029759091241033 L 9.20441696293144,19.028796036575468 L 9.223949522957012,19.026872247327386 L 9.243364159294321,19.023992358073592 L 9.262614100383848,19.020163306719557 L 9.281652971431523,19.015394317785354 L 9.30043490612927,19.009696880183057 L 9.318914657151387,19.003084719538883 L 9.337047705159128,18.995573765126927 L 9.354790366051317,18.98718211149433 L 9.372099896203801,18.977929974869742 L 9.38893459544252,18.96783964446059 L 9.405253907502399,18.956935428756655 L 9.421018517731204,18.945243596968695 L 9.436190447802156,18.93279231574352 L 9.450733147206739,18.919611581308274 L 9.464611581308276,18.90573314720674 L 9.477792315743521,18.891190447802156 L 9.490243596968696,18.876018517731204 L 9.501935428756655,18.860253907502397 L 9.51283964446059,18.84393459544252 L 9.522929974869744,18.8270998962038 L 9.532182111494333,18.809790366051317 L 9.54057376512693,18.792047705159128 L 9.548084719538883,18.773914657151387 L 9.554696880183055,18.75543490612927 L 9.560394317785352,18.736652971431525 L 9.565163306719557,18.717614100383848 L 9.568992358073592,18.69836415929432 L 9.571872247327388,18.678949522957012 L 9.573796036575466,18.659416962931438 L 9.574759091241033,18.639813534865528 L 9.575,18.63 L 9.575,18.431891126495348 L 9.57931331657511,18.431572957150205 L 9.598845876600697,18.429649167902127 L 9.608588543425828,18.428447524560646 L 9.633245131574213,18.42479006520833 L 9.642917101086319,18.423111819296032 L 9.662167042175948,18.419282767941983 L 9.671745013753474,18.41713196250023 L 9.695924379984007,18.411075346553787 L 9.705385279454307,18.408457163061307 L 9.724167214152038,18.40275972545901 L 9.733488249379471,18.399680471349196 L 9.75695753317757,18.391283027331085 L 9.766116248972104,18.38775012079677 L 9.784249296979755,18.380239166384847 L 9.793223629192873,18.376261118507237 L 9.81575680852595,18.365603718393846 L 9.824525137205079,18.36119011263883 L 9.841834667357638,18.351937976014213 L 9.850375868831069,18.347099445144607 L 9.871755936864242,18.334284725524977 L 9.880049434629559,18.329032925985413 L 9.89636874668941,18.318128710281478 L 9.90439456098394,18.312476294117108 L 9.92441561597453,18.297627667746394 L 9.932154411908746,18.29158825212285 L 9.947326341979698,18.27913697089769 L 9.954759476116434,18.272725105296075 L 9.973228704360247,18.255985572563322 L 9.976825022338302,18.252644764082564 L 9.983934587606177,18.245875895248904 L 9.987447834895999,18.242447834895998 L 11.257447834895999,16.972447834896 L 11.260875895248905,16.968934587606178 L 11.267644764082567,16.9618250223383 L 11.27098557256332,16.95822870436025 L 11.287725105296076,16.939759476116432 L 11.29413697089769,16.932326341979696 L 11.306588252122848,16.917154411908747 L 11.312627667746394,16.90941561597453 L 11.327476294117108,16.88939456098394 L 11.333128710281477,16.881368746689407 L 11.344032925985411,16.865049434629558 L 11.349284725524976,16.856755936864243 L 11.362099445144608,16.83537586883107 L 11.366937976014212,16.826834667357637 L 11.376190112638831,16.80952513720508 L 11.380603718393848,16.80075680852595 L 11.391261118507236,16.778223629192873 L 11.395239166384846,16.769249296979755 L 11.40275012079677,16.751116248972103 L 11.406283027331083,16.74195753317757 L 11.414680471349195,16.718488249379472 L 11.417759725459009,16.70916721415204 L 11.423457163061306,16.690385279454304 L 11.426075346553787,16.680924379984006 L 11.432131962500229,16.656745013753472 L 11.434282767941982,16.647167042175948 L 11.438111819296033,16.627917101086318 L 11.439790065208332,16.618245131574213 L 11.443447524560645,16.593588543425827 L 11.444649167902126,16.583845876600698 L 11.446572957150206,16.56431331657511 L 11.447295103056803,16.554523423374654 L 11.448518182482063,16.52962706973094 L 11.448698854980275,16.524721780570104 L 11.448939763739244,16.514908245704635 L 11.449,16.51 L 11.449,12.7 L 11.448939763739244,12.695091754295357 L 11.448698854980275,12.685278219429888 L 11.448518182482063,12.680372930269062 L 11.447295103056803,12.655476576625354 L 11.446572957150206,12.645686683424897 L 11.444649167902126,12.626154123399317 L 11.443447524560645,12.616411456574195 L 11.439790065208332,12.59175486842581 L 11.438111819296033,12.582082898913667 L 11.434282767941982,12.562832957824051 L 11.432131962500229,12.553254986246579 L 11.426075346553787,12.52907562001604 L 11.42345716306132,12.519614720545784 L 11.417759725459025,12.50083278584803 L 11.414680471349195,12.491511750620528 L 11.406283027331083,12.46804246682243 L 11.40275012079674,12.458883751027852 L 11.395239166384801,12.440750703020178 L 11.391261118507206,12.431776370807082 L 11.380603718393818,12.409243191474014 L 11.376190112638831,12.40047486279492 L 11.366937976014242,12.383165332642413 L 11.362099445144638,12.374624131168998 L 11.349284725525006,12.353244063135818 L 11.344032925985486,12.344950565370574 L 11.333128710281521,12.328631253310657 L 11.327476294117078,12.320605439015985 L 11.312627667746366,12.300584384025402 L 11.306588252122774,12.292845588091165 L 11.294136970897659,12.27767365802028 L 11.287725105296134,12.270240523883633 L 11.27098557256338,12.251771295639813 L 11.267644764082581,12.248174977661707 L 11.26087589524889,12.241065412393802 L 11.257447834895999,12.237552165104002 L 10.344947834895999,11.325052165104001 L 10.341434587606177,11.321624104751088 L 10.334325022338302,11.314855235917427 L 10.330728704360247,11.311514427436679 L 10.312259476116434,11.294774894703925 L 10.304826341979727,11.28836302910234 L 10.289654411908746,11.275911747877151 L 10.281915615974471,11.269872332253545 L 10.261894560983881,11.25502370588284 L 10.253868746689363,11.249371289718495 L 10.237549434629589,11.238467074014611 L 10.229255936864332,11.233215274475075 L 10.207875868831158,11.220400554855436 L 10.199334667357668,11.215562023985795 L 10.18202513720502,11.206309887361131 L 10.17325680852586,11.201896281606109 L 10.150723629192784,11.191238881492726 L 10.141749296979755,11.187260833615168 L 10.123616248972207,11.179749879203282 L 10.114457533177688,11.176216972668954 L 10.09098824937959,11.167819528650835 L 10.081667214152038,11.164740274540991 L 10.062885279454187,11.159042836938664 L 10.053424379983888,11.156424653446182 L 10.029245013753355,11.150368037499748 L 10.019667042175978,11.148217232058025 L 10.000417101086468,11.14438818070399 L 9.990745131574332,11.142709934791677 L 9.966088543425947,11.139052475439355 L 9.956345876600698,11.137850832097866 L 9.93681331657505,11.135927042849787 L 9.927023423374653,11.135204896943197 L 9.902127069730938,11.133981817517936 L 9.897221780570105,11.133801145019733 L 9.887408245704636,11.133560236260765 L 9.8825,11.1335 L 9.49687956043327,11.1335 L 9.491865406770735,11.125995747661992 L 9.486212935593754,11.117969817540533 L 9.474520983272031,11.102204982314184 L 9.46206956102845,11.087032841301195 L 9.448888666202112,11.07248994645924 L 9.435010053540767,11.058611333797886 L 9.420467158698813,11.045430438971549 L 9.405295017685846,11.03297901672799 L 9.389530182459504,11.021287064406268 L 9.381504252338022,11.015634593229263 L 9.300398252338022,10.961441593229264 L 9.292104764224828,10.956189828401499 L 9.27527008662863,10.946099565758802 L 9.257960582654357,10.936847493443363 L 9.240217952186123,10.928455900386393 L 9.222084938541993,10.920945002560481 L 9.203605225502386,10.914332894277916 L 9.184823332072273,10.908635504599959 L 9.16578450523147,10.903866558962577 L 9.15620655644834,10.901715773990036 L 9.06053555644834,10.882685773990035 L 9.050863656644612,10.881007552891798 L 9.03144916129607,10.878127706262402 L 9.011916744882598,10.876203945545294 L 8.99231346200697,10.875240905179671 L 8.9825,10.875 L 8.0825,10.875 L 8.072686537993029,10.875240905179671 L 8.053083255117402,10.876203945545294 L 8.033550838703931,10.878127706262402 L 8.014136343355387,10.881007552891798 L 8.00446444355166,10.882685773990035 L 7.90879344355166,10.901715773990036 L 7.89921549476853,10.903866558962577 L 7.880176667927727,10.908635504599959 L 7.861394774497613,10.914332894277916 L 7.842915061458006,10.920945002560481 L 7.824782047813877,10.928455900386393 L 7.807039417345643,10.936847493443363 L 7.789729913371369,10.946099565758802 L 7.772895235775173,10.956189828401499 L 7.764601747661978,10.961441593229264 L 7.683495747661978,11.015634593229263 L 7.675469817540496,11.021287064406268 L 7.659704982314154,11.03297901672799 L 7.644532841301188,11.045430438971549 L 7.629989946459234,11.058611333797886 L 7.616111333797887,11.07248994645924 L 7.6029304389715495,11.087032841301195 L 7.590479016727969,11.102204982314184 L 7.578787064406246,11.117969817540533 L 7.573134593229264,11.125995747661992 L 7.518941593229264,11.207101747661993 L 7.513689828401521,11.215395235775143 L 7.503599565758824,11.232229913371333 L 7.49434749344337,11.249539417345606 L 7.485955900386393,11.267282047813847 L 7.478445002560481,11.285415061457991 L 7.471832894277916,11.303894774497591 L 7.4661355045999285,11.322676667927794 L 7.4613665589625535,11.341715494768597 L 7.459215773990035,11.35129344355166 L 7.440185773990035,11.446964443551659 L 7.4385075528917906,11.456636343355388 L 7.4356277062623946,11.47605083870393 L 7.433703945545286,11.495583255117394 L 7.4327409051796645,11.51518653799302 L 7.4325,11.525 L 7.4325,12.05 L 7.4327409051796645,12.059813462006979 L 7.433703945545286,12.079416744882606 L 7.4356277062623946,12.09894916129607 L 7.4385075528917906,12.118363656644613 L 7.440185773990035,12.12803555644834 L 7.459215773990035,12.22370655644834 L 7.4613665589625535,12.233284505231403 L 7.4661355045999285,12.252323332072207 L 7.471832894277916,12.271105225502408 L 7.478445002560481,12.289584938542008 L 7.485955900386393,12.307717952186152 L 7.49434749344337,12.325460582654394 L 7.503599565758824,12.342770086628668 L 7.513689828401521,12.359604764224857 L 7.518941593229264,12.367898252338007 L 7.573134593229264,12.449004252338007 L 7.578787064406246,12.457030182459466 L 7.590479016727969,12.472795017685815 L 7.6029304389715495,12.487967158698805 L 7.616111333797887,12.502510053540759 L 7.629989946459234,12.516388666202113 L 7.644532841301188,12.52956956102845 L 7.659704982314154,12.542020983272009 L 7.675469817540496,12.553712935593731 L 7.683495747661978,12.559365406770736 L 7.764601747661978,12.613558406770736 L 7.772895235775173,12.618810171598502 L 7.789729913371369,12.628900434241197 L 7.807039417345643,12.638152506556638 L 7.824782047813877,12.646544099613607 L 7.842915061458006,12.654054997439518 L 7.861394774497613,12.660667105722085 L 7.880176667927727,12.66636449540004 L 7.89921549476853,12.671133441037425 L 7.90879344355166,12.673284226009965 L 8.00446444355166,12.692314226009964 L 8.014136343355387,12.6939924471082 L 8.033550838703931,12.696872293737599 L 8.053083255117402,12.698796054454707 L 8.072686537993029,12.699759094820328 L 8.0825,12.7 L 8.072686537993029,12.700240905179673 L 8.053083255117402,12.701203945545293 L 8.033550838703931,12.703127706262402 L 8.014136343355387,12.706007552891798 L 8.00446444355166,12.707685773990034 L 7.90879344355166,12.726715773990035 L 7.89921549476853,12.728866558962576 L 7.880176667927727,12.733635504599958 L 7.861394774497613,12.739332894277915 L 7.842915061458006,12.74594500256048 L 7.824782047813877,12.753455900386394 L 7.807039417345643,12.761847493443362 L 7.789729913371369,12.771099565758801 L 7.772895235775173,12.781189828401498 L 7.764601747661978,12.786441593229265 L 7.683495747661978,12.840634593229264 L 7.675469817540496,12.846287064406269 L 7.659704982314154,12.857979016727992 L 7.644532841301188,12.87043043897155 L 7.629989946459234,12.883611333797887 L 7.616111333797887,12.897489946459242 L 7.6029304389715495,12.912032841301196 L 7.590479016727969,12.927204982314183 L 7.578787064406246,12.942969817540535 L 7.573134593229264,12.950995747661993 L 7.568120439566732,12.9585 L 6.898395669791997,12.9585 L 6.369,12.429104330208004 L 6.369,8.525895669791996 L 6.620895669791996,8.274 L 7.075,8.274 L 7.075,8.47 L 7.0752409087589685,8.479813534865535 L 7.0762039634245335,8.499416962931447 L 7.0781277526726125,8.518949522956998 L 7.081007641926408,8.538364159294314 L 7.084836693280458,8.557614100383892 L 7.089605682214662,8.576652971431553 L 7.095303119816914,8.595434906129219 L 7.101915280461088,8.61391465715135 L 7.109426234873086,8.632047705159158 L 7.117817888505682,8.649790366051338 L 7.127070025130257,8.667099896203801 L 7.137160355539411,8.683934595442519 L 7.148064571243331,8.700253907502361 L 7.15975640303129,8.716018517731175 L 7.172207684256524,8.731190447802208 L 7.185388418691769,8.745733147206783 L 7.199266852793306,8.759611581308306 L 7.213809552197889,8.772792315743542 L 7.22898148226875,8.785243596968643 L 7.244746092497557,8.79693542875661 L 7.261065404557422,8.80783964446056 L 7.2779001037961395,8.81792997486972 L 7.295209633948818,8.827182111494393 L 7.312952294841007,8.835573765126973 L 7.33108534284848,8.84308471953883 L 7.349565093870595,8.84969688018302 L 7.3683470285684765,8.85539431778536 L 7.387385899616152,8.860163306719564 L 7.406635840705678,8.863992358073599 L 7.426050477042988,8.866872247327395 L 7.445583037068635,8.868796036575482 L 7.465186465134546,8.86975909124104 L 7.475,8.87 L 9.175,8.87 L 9.184813534865453,8.86975909124104 L 9.204416962931365,8.868796036575482 L 9.223949522957012,8.866872247327395 L 9.243364159294321,8.863992358073599 L 9.262614100383848,8.860163306719564 L 9.281652971431523,8.85539431778536 L 9.300434906129405,8.84969688018302 L 9.31891465715152,8.84308471953883 L 9.337047705158994,8.835573765126973 L 9.354790366051182,8.827182111494393 L 9.37209989620386,8.81792997486972 L 9.388934595442578,8.80783964446056 L 9.405253907502443,8.79693542875661 L 9.42101851773125,8.785243596968643 L 9.436190447802112,8.772792315743542 L 9.450733147206694,8.759611581308306 L 9.464611581308231,8.745733147206783 L 9.477792315743477,8.731190447802208 L 9.49024359696871,8.716018517731175 L 9.501935428756669,8.700253907502361 L 9.51283964446059,8.683934595442519 L 9.522929974869744,8.667099896203801 L 9.532182111494318,8.649790366051338 L 9.540573765126913,8.632047705159158 L 9.548084719538911,8.61391465715135 L 9.554696880183085,8.595434906129219 L 9.560394317785338,8.576652971431553 L 9.565163306719542,8.557614100383892 L 9.568992358073592,8.538364159294314 L 9.571872247327388,8.518949522956998 L 9.573796036575466,8.499416962931447 L 9.574759091241033,8.479813534865535 L 9.575,8.47 L 9.575,6.77 L 9.574759091241033,6.760186465134464 L 9.573796036575466,6.7405830370685536 L 9.571872247327388,6.721050477043002 L 9.568992358073592,6.701635840705685 L 9.565163306719542,6.682385899616107 L 9.560394317785338,6.663347028568447 L 9.554696880183085,6.644565093870781 L 9.548084719538911,6.6260853428486515 L 9.540573765126913,6.6079522948408425 L 9.532182111494318,6.590209633948661 L 9.522929974869744,6.572900103796199 L 9.51283964446059,6.556065404557481 L 9.501935428756669,6.539746092497639 L 9.49024359696871,6.523981482268825 L 9.477792315743477,6.508809552197792 L 9.464611581308231,6.494266852793217 L 9.450733147206694,6.480388418691695 L 9.436190447802112,6.467207684256457 L 9.42101851773125,6.4547564030313564 L 9.405253907502443,6.44306457124339 L 9.388934595442578,6.432160355539441 L 9.37209989620386,6.42207002513028 L 9.354790366051182,6.412817888505608 L 9.337047705158994,6.404426234873027 L 9.31891465715152,6.39691528046117 L 9.300434906129405,6.3903031198169815 L 9.281652971431523,6.38460568221464 L 9.262614100383848,6.379836693280436 L 9.243364159294321,6.3760076419264005 L 9.223949522957012,6.373127752672605 L 9.204416962931365,6.371203963424518 L 9.184813534865453,6.37024090875896 L 9.175,6.37 L 7.475,6.37 L 7.465186465134546,6.37024090875896 L 7.445583037068635,6.371203963424518 L 7.426050477042988,6.373127752672605 L 7.406635840705678,6.3760076419264005 L 7.387385899616152,6.379836693280436 L 7.3683470285684765,6.38460568221464 L 7.349565093870595,6.3903031198169815 L 7.33108534284848,6.39691528046117 L 7.312952294841007,6.404426234873027 L 7.295209633948818,6.412817888505608 L 7.2779001037961395,6.42207002513028 L 7.261065404557422,6.432160355539441 L 7.244746092497557,6.44306457124339 L 7.22898148226875,6.4547564030313564 L 7.213809552197889,6.467207684256457 L 7.199266852793306,6.480388418691695 L 7.185388418691769,6.494266852793217 L 7.172207684256524,6.508809552197792 L 7.15975640303129,6.523981482268825 L 7.148064571243331,6.539746092497639 L 7.137160355539411,6.556065404557481 L 7.127070025130257,6.572900103796199 L 7.117817888505682,6.590209633948661 L 7.109426234873086,6.6079522948408425 L 7.101915280461088,6.6260853428486515 L 7.095303119816914,6.644565093870781 L 7.089605682214662,6.663347028568447 L 7.084836693280458,6.682385899616107 L 7.081007641926408,6.701635840705685 L 7.0781277526726125,6.721050477043002 L 7.0762039634245335,6.7405830370685536 L 7.0752409087589685,6.760186465134464 L 7.075,6.77 L 7.075,6.966 L 6.35,6.966 L 6.345091754295364,6.966060236260764 L 6.335278219429895,6.966301145019733 z M 7.475229904795722,16.93022990479572 L 7.479909724421799,16.93 L 9.1700902755782,16.93 L 9.174770095204279,16.93022990479572 L 9.175,16.9349097244218 L 9.175,17.287947042682617 L 9.175963054665566,17.307550470748527 L 9.17884294391936,17.32696510708584 L 9.183611932853564,17.346003978133513 L 9.190224093497738,17.36448372915563 L 9.198615747130335,17.38222639004782 L 9.208706077539489,17.399061089286537 L 9.220397909327447,17.414825699515344 L 9.233578643762693,17.429368398919927 L 9.248121343167275,17.442549133355172 L 9.263885953396082,17.45424096514313 L 9.2807206526348,17.464331295552284 L 9.298463313526987,17.47272294918488 L 9.316943064549104,17.479335109829055 L 9.335981935596779,17.484104098763257 L 9.355396571934088,17.48698398801705 L 9.375,17.487947042682617 L 9.394603428065912,17.48698398801705 L 9.414018064403221,17.484104098763257 L 9.433056935450896,17.479335109829055 L 9.451536686473013,17.47272294918488 L 9.4692793473652,17.464331295552284 L 9.486114046603918,17.45424096514313 L 9.501878656832725,17.442549133355172 L 9.516421356237307,17.429368398919927 L 10.482421356237307,16.463368398919926 L 10.495602090672552,16.448825699515343 L 10.507293922460512,16.433061089286536 L 10.517384252869666,16.416226390047818 L 10.525775906502261,16.39848372915563 L 10.532388067146435,16.380003978133516 L 10.53715705608064,16.36096510708584 L 10.540036945334435,16.34155047074853 L 10.541,16.321947042682616 L 10.541,12.888052957317383 L 10.540036945334435,12.868449529251471 L 10.53715705608064,12.849034892914153 L 10.532388067146435,12.829996021866492 L 10.525775906502261,12.811516270844363 L 10.517384252869666,12.793773609952181 L 10.507293922460512,12.776938910713463 L 10.495602090672552,12.76117430048465 L 10.482421356237307,12.746631601080075 L 9.835868398919924,12.100078643762693 L 9.821325699515343,12.086897909327455 L 9.805561089286536,12.07520607753949 L 9.788726390047819,12.065115747130326 L 9.77098372915563,12.056724093497746 L 9.752503978133515,12.050111932853557 L 9.73346510708584,12.045342943919353 L 9.714050470748528,12.042463054665559 L 9.694447042682619,12.0415 L 9.388925406001777,12.0415 L 9.37021032712163,12.042377560725793 L 9.351659484423548,12.045002541774899 L 9.333435672817334,12.049351907344573 L 9.315698817316399,12.055387489110746 L 9.2986045695986,12.063056321178273 L 9.282302942068293,12.072291104888805 L 9.266936991406336,12.08301079940737 L 9.252641563160882,12.095121332904972 L 9.2395421083958,12.10851642809593 L 9.227753582781403,12.123078534885682 L 9.217379437788635,12.138679861944183 L 9.210742321010544,12.149753282437198 L 9.162004721556679,12.222694653856099 L 9.159104783363864,12.226604783363848 L 9.155194653856158,12.22950472155664 L 9.082253282437026,12.278242321010664 L 9.078077800415679,12.280744995030672 L 9.073355626276626,12.281927830083891 L 8.987315351047188,12.299042174426653 L 8.9824763588617,12.299759965699867 L 8.977590312073424,12.3 L 8.087409687926575,12.3 L 8.0825236411383,12.299759965699867 L 8.077684648952811,12.299042174426653 L 7.991644373723373,12.281927830083891 L 7.9869221995843205,12.280744995030672 L 7.982746717562973,12.278242321010664 L 7.909805346143842,12.22950472155664 L 7.905895216636136,12.226604783363848 L 7.9029952784433215,12.222694653856099 L 7.854257678989366,12.149753282437064 L 7.851755004969329,12.145577800415673 L 7.850572169916093,12.140855626276553 L 7.833457825573385,12.054815351047337 L 7.832740034300149,12.049976358861707 L 7.8325,12.045090312073269 L 7.8325,11.529909687926732 L 7.832740034300149,11.525023641138294 L 7.833457825573385,11.520184648952663 L 7.850572169916093,11.434144373723447 L 7.851755004969329,11.429422199584328 L 7.854257678989366,11.425246717562937 L 7.9029952784433215,11.3523053461439 L 7.905895216636136,11.34839521663615 L 7.909805346143842,11.345495278443359 L 7.982746717562973,11.296757678989335 L 7.9869221995843205,11.294255004969328 L 7.991644373723373,11.293072169916108 L 8.077684648952811,11.275957825573348 L 8.0825236411383,11.275240034300134 L 8.087409687926575,11.275 L 8.977590312073424,11.275 L 8.9824763588617,11.275240034300134 L 8.987315351047188,11.275957825573348 L 9.073355626276626,11.293072169916108 L 9.078077800415679,11.294255004969328 L 9.082253282437026,11.296757678989335 L 9.155194653856158,11.345495278443359 L 9.159104783363864,11.34839521663615 L 9.162004721556679,11.3523053461439 L 9.210742321010544,11.425246717562802 L 9.217379437788635,11.436320138055816 L 9.227753582781403,11.451921465114317 L 9.2395421083958,11.466483571904071 L 9.252641563160882,11.479878667095027 L 9.266936991406336,11.491989200592629 L 9.282302942068293,11.502708895111196 L 9.2986045695986,11.511943678821728 L 9.315698817316399,11.519612510889255 L 9.333435672817334,11.525648092655429 L 9.351659484423548,11.5299974582251 L 9.37021032712163,11.532622439274206 L 9.388925406001777,11.5335 L 9.880045507524207,11.5335 L 9.884951535932169,11.533620436237447 L 9.902492543200001,11.534482170666292 L 9.912252937712088,11.535443485619105 L 9.927196357723773,11.537660132583746 L 9.936815527925715,11.539573504500837 L 9.95146972188887,11.543244189000719 L 9.960855029913738,11.5460911910647 L 9.975078869929805,11.55118056240151 L 9.984139930130109,11.554933776425965 L 9.99779643284431,11.561392821171633 L 10.00644598225759,11.566016101653986 L 10.019403628083229,11.573782615676693 L 10.027558366820053,11.579231437898457 L 10.039692366544486,11.588230625422545 L 10.04727376001309,11.594452514247157 L 10.060286463459269,11.606246541176885 L 10.06384071069546,11.609630465852693 L 10.972869534147337,12.51865928930457 L 10.976253458823056,12.52221353654068 L 10.988047485752954,12.535226239987038 L 10.994269374577344,12.542807633455373 L 11.003268562101617,12.554941633180045 L 11.0087173843233,12.563096371916771 L 11.016483898345976,12.57605401774235 L 11.02110717882839,12.584703567155756 L 11.027566223573983,12.598360069869758 L 11.031319437598542,12.607421130070344 L 11.036408808935285,12.62164497008621 L 11.03925581099929,12.631030278111183 L 11.042926495499119,12.645684472074084 L 11.044839867416307,12.655303642276495 L 11.047056514380888,12.670247062287816 L 11.048017829333707,12.680007456800006 L 11.048879563762545,12.697548464067518 L 11.049,12.702454492476098 L 11.049,16.507545507523908 L 11.048879563762545,16.51245153593248 L 11.048017829333707,16.529992543200017 L 11.047056514380888,16.539752937712176 L 11.044839867416277,16.554696357723667 L 11.042926495499163,16.56431552792573 L 11.03925581099929,16.57896972188881 L 11.036408808935255,16.588355029913856 L 11.0313194375986,16.602578869929477 L 11.027566223573922,16.611639930130377 L 11.021107178828315,16.625296432844415 L 11.016483898346051,16.633945982257515 L 11.008717384323388,16.646903628083095 L 11.00326856210144,16.655058366820185 L 10.994269374577552,16.667192366544352 L 10.988047485752777,16.674773760013164 L 10.976253458822965,16.687786463459418 L 10.972869534147456,16.69134071069531 L 9.706340710695311,17.957869534147456 L 9.702786463459418,17.961253458822966 L 9.689773760013162,17.973047485752776 L 9.682192366544351,17.97926937457755 L 9.670058366820186,17.98826856210144 L 9.661903628083095,17.99371738432339 L 9.648945982257516,18.001483898346052 L 9.640296432844416,18.006107178828312 L 9.626639930130377,18.012566223573923 L 9.617578869929478,18.0163194375986 L 9.603355029913857,18.021408808935256 L 9.59396972188881,18.02425581099929 L 9.57931552792573,18.027926495499162 L 9.569696357723668,18.02983986741628 L 9.554752937712177,18.032056514380887 L 9.544992543200015,18.03301782933371 L 9.527451535932482,18.033879563762547 L 9.52254550752391,18.034 L 9.375,18.034 L 9.355396571934088,18.034963054665564 L 9.335981935596779,18.03784294391936 L 9.316943064549104,18.042611932853564 L 9.298463313526987,18.049224093497738 L 9.2807206526348,18.057615747130335 L 9.263885953396082,18.067706077539487 L 9.248121343167275,18.079397909327447 L 9.233578643762693,18.092578643762693 L 9.220397909327447,18.107121343167275 L 9.208706077539489,18.122885953396082 L 9.198615747130335,18.1397206526348 L 9.190224093497738,18.15746331352699 L 9.183611932853564,18.175943064549102 L 9.17884294391936,18.19498193559678 L 9.175963054665566,18.21439657193409 L 9.175,18.234 L 9.175,18.625090275578202 L 9.174770095204279,18.62977009520428 L 9.1700902755782,18.63 L 7.479909724421799,18.63 L 7.475229904795722,18.62977009520428 L 7.475,18.625090275578202 L 7.475,16.9349097244218 L 7.475229904795722,16.93022990479572 z M 6.347548464067832,7.366120436237447 L 6.352454492475792,7.366 L 7.275,7.366 L 7.294603428065911,7.365036945334442 L 7.314018064403221,7.362157056080647 L 7.333056935450896,7.3573880671464424 L 7.351536686473012,7.350775906502254 L 7.3692793473652,7.342384252869673 L 7.386114046603918,7.3322939224605115 L 7.401878656832725,7.320602090672545 L 7.416421356237307,7.307421356237307 L 7.429602090672552,7.292878656832732 L 7.4412939224605115,7.277114046603918 L 7.451384252869666,7.2602793473652 L 7.459775906502262,7.242536686473019 L 7.466388067146435,7.224056935450889 L 7.4711570560806395,7.2050180644032285 L 7.474036945334435,7.185603428065911 L 7.475,7.166 L 7.475,6.774909724421807 L 7.475229904795722,6.7702299047957215 L 7.4799097244218435,6.77 L 9.170090275578156,6.77 L 9.174770095204279,6.7702299047957215 L 9.175,6.774909724421807 L 9.175,8.465090275578193 L 9.174770095204279,8.469770095204279 L 9.170090275578156,8.47 L 7.4799097244218435,8.47 L 7.475229904795722,8.469770095204279 L 7.475,8.465090275578193 L 7.475,8.074 L 7.474036945334435,8.054396571934088 L 7.4711570560806395,8.034981935596772 L 7.466388067146435,8.015943064549111 L 7.459775906502262,7.99746331352698 L 7.451384252869666,7.9797206526348 L 7.4412939224605115,7.962885953396082 L 7.429602090672552,7.947121343167268 L 7.416421356237307,7.932578643762692 L 7.401878656832725,7.919397909327455 L 7.386114046603918,7.907706077539489 L 7.3692793473652,7.8976157471303265 L 7.351536686473012,7.889224093497746 L 7.333056935450896,7.882611932853557 L 7.314018064403221,7.877842943919354 L 7.294603428065911,7.8749630546655585 L 7.275,7.874 L 6.538052957317382,7.874 L 6.5184495292514715,7.8749630546655585 L 6.499034892914161,7.877842943919354 L 6.479996021866485,7.882611932853557 L 6.4615162708443705,7.889224093497746 L 6.443773609952181,7.8976157471303265 L 6.4269389107134645,7.907706077539489 L 6.4111743004846575,7.919397909327455 L 6.396631601080075,7.932578643762692 L 6.027578643762693,8.301631601080075 L 6.014397909327448,8.31617430048465 L 6.0027060775394885,8.331938910713465 L 5.992615747130334,8.34877360995218 L 5.984224093497739,8.366516270844363 L 5.977611932853565,8.384996021866494 L 5.97284294391936,8.404034892914154 L 5.969963054665565,8.42344952925147 L 5.969,8.443052957317382 L 5.969,12.511947042682618 L 5.969963054665565,12.53155047074853 L 5.97284294391936,12.550965107085846 L 5.977611932853565,12.570003978133506 L 5.984224093497739,12.588483729155637 L 5.992615747130334,12.60622639004782 L 6.0027060775394885,12.623061089286535 L 6.014397909327448,12.63882569951535 L 6.027578643762693,12.653368398919925 L 6.674131601080075,13.299921356237308 L 6.688674300484657,13.313102090672546 L 6.704438910713464,13.324793922460511 L 6.721273609952181,13.334884252869672 L 6.73901627084437,13.343275906502255 L 6.757496021866485,13.349888067146443 L 6.776534892914161,13.354657056080647 L 6.795949529251471,13.357536945334441 L 6.815552957317382,13.3585 L 7.676074593998224,13.3585 L 7.69478967287837,13.357622439274207 L 7.713340515576452,13.354997458225101 L 7.7315643271826655,13.350648092655428 L 7.749301182683602,13.344612510889254 L 7.7663954304014,13.336943678821727 L 7.782697057931706,13.327708895111195 L 7.7980630085936635,13.31698920059263 L 7.812358436839118,13.304878667095029 L 7.8254578916042,13.29148357190407 L 7.837246417218596,13.276921465114318 L 7.847620562211365,13.261320138055817 L 7.854257678989455,13.250246717562803 L 7.9029952784433215,13.177305346143902 L 7.905895216636136,13.173395216636152 L 7.909805346143842,13.170495278443358 L 7.982746717562973,13.121757678989336 L 7.9869221995843205,13.119255004969329 L 7.991644373723373,13.118072169916108 L 8.077684648952811,13.100957825573348 L 8.0825236411383,13.100240034300134 L 8.087409687926575,13.1 L 8.977590312073424,13.1 L 8.9824763588617,13.100240034300134 L 8.987315351047188,13.100957825573348 L 9.073355626276626,13.118072169916108 L 9.078077800415679,13.119255004969329 L 9.082253282437026,13.121757678989336 L 9.155194653856158,13.170495278443358 L 9.159104783363864,13.173395216636152 L 9.162004721556679,13.177305346143902 L 9.210742321010635,13.250246717562936 L 9.21324499503067,13.254422199584328 L 9.214427830083906,13.259144373723448 L 9.231542174426615,13.345184648952664 L 9.232259965699852,13.350023641138293 L 9.2325,13.354909687926732 L 9.2325,13.870090312073275 L 9.232259965699852,13.8749763588617 L 9.231542174426615,13.879815351047338 L 9.214427830083892,13.965855626276582 L 9.213244995030687,13.970577800415635 L 9.21074232101059,13.974753282437131 L 9.162004721556574,14.047694653856263 L 9.159104783363864,14.051604783363864 L 9.155194653856263,14.054504721556574 L 9.082253282437131,14.10324232101059 L 9.078077800415635,14.105744995030687 L 9.073355626276582,14.106927830083892 L 8.987315351047338,14.124042174426615 L 8.9824763588617,14.124759965699852 L 8.977590312073275,14.125 L 8.087409687926725,14.125 L 8.0825236411383,14.124759965699852 L 8.077684648952664,14.124042174426615 L 7.9916443737234175,14.106927830083892 L 7.986922199584365,14.105744995030687 L 7.982746717562869,14.10324232101059 L 7.909805346143737,14.054504721556574 L 7.905895216636136,14.051604783363864 L 7.902995278443426,14.047694653856263 L 7.854257678989396,13.974753282437101 L 7.84762056221138,13.963679861944213 L 7.83724641721861,13.948078534885704 L 7.825457891604215,13.933516428095952 L 7.8123584368391334,13.92012133290498 L 7.798063008593679,13.908010799407393 L 7.782697057931721,13.897291104888811 L 7.766395430401414,13.888056321178272 L 7.749301182683602,13.880387489110753 L 7.7315643271826655,13.874351907344565 L 7.713340515576452,13.870002541774898 L 7.69478967287837,13.867377560725794 L 7.676074593998224,13.8665 L 6.629954492476091,13.8665 L 6.625048464067519,13.866379563762546 L 6.607507456799984,13.865517829333708 L 6.597747062287822,13.864556514380887 L 6.582803642276332,13.862339867416278 L 6.57318447207427,13.860426495499164 L 6.558530278111189,13.856755810999289 L 6.549144970086142,13.853908808935255 L 6.534921130070522,13.848819437598602 L 6.525860069869623,13.845066223573923 L 6.512203567155585,13.838607178828314 L 6.503554017742485,13.833983898346052 L 6.490596371916905,13.826217384323389 L 6.482441633179814,13.820768562101438 L 6.470307633455649,13.811769374577553 L 6.462726239986837,13.805547485752776 L 6.449713536540583,13.793753458822966 L 6.446159289304688,13.790369534147457 L 5.5371304658526626,12.881340710695431 L 5.533746541176945,12.877786463459321 L 5.521952514247045,12.864773760012962 L 5.515730625422656,12.857192366544627 L 5.506731437898383,12.845058366819956 L 5.501282615676701,12.83690362808323 L 5.493516101654023,12.82394598225765 L 5.4888928211716115,12.815296432844244 L 5.482433776426017,12.801639930130243 L 5.4786805624014585,12.792578869929656 L 5.473591191064715,12.77835502991379 L 5.470744189000711,12.768969721888817 L 5.467073504500881,12.754315527925916 L 5.4651601325836925,12.744696357723504 L 5.462943485619113,12.729752937712185 L 5.4619821706662925,12.719992543199993 L 5.461120436237454,12.70245153593248 L 5.461,12.697545507523902 L 5.461,8.257454492476098 L 5.461120436237454,8.25254846406752 L 5.4619821706662925,8.235007456800007 L 5.462943485619113,8.225247062287815 L 5.4651601325836925,8.210303642276497 L 5.467073504500881,8.200684472074084 L 5.470744189000711,8.186030278111183 L 5.473591191064715,8.17664497008621 L 5.4786805624014585,8.162421130070344 L 5.482433776426017,8.153360069869757 L 5.4888928211716115,8.139703567155756 L 5.493516101654023,8.13105401774235 L 5.501282615676701,8.11809637191677 L 5.506731437898383,8.109941633180044 L 5.515730625422656,8.097807633455373 L 5.521952514247045,8.090226239987038 L 5.533746541176945,8.077213536540679 L 5.5371304658526626,8.073659289304569 L 6.168659289304539,7.442130465852693 L 6.172213536540732,7.438746541176886 L 6.185226239986911,7.426952514247157 L 6.192807633455515,7.420730625422545 L 6.204941633179947,7.411731437898457 L 6.213096371916771,7.406282615676694 L 6.226054017742411,7.3985161016539855 L 6.234703567155689,7.393892821171634 L 6.248360069869891,7.387433776425965 L 6.2574211300701945,7.383680562401511 L 6.271644970086261,7.3785911910647 L 6.28103027811113,7.375744189000718 L 6.295684472074285,7.372073504500836 L 6.305303642276227,7.370160132583745 L 6.320247062287912,7.367943485619105 L 6.330007456799999,7.366982170666292 L 6.347548464067832,7.366120436237447 z" />
                        <rect width="12.7" height="20.32" x="3" y="3" stroke-width="0.1" fill="none" stroke="black"/>
                    </g>
                    </svg>