%TF.GenerationSoftware,KiCad,Pcbnew,7.0.9*%
%TF.CreationDate,2024-03-28T23:27:42-04:00*%
%TF.ProjectId,esp_1st_iter_robot,6573705f-3173-4745-9f69-7465725f726f,rev?*%
%TF.SameCoordinates,Original*%
%TF.FileFunction,Copper,L1,Top*%
%TF.FilePolarity,Positive*%
%FSLAX46Y46*%
G04 Gerber Fmt 4.6, Leading zero omitted, Abs format (unit mm)*
G04 Created by KiCad (PCBNEW 7.0.9) date 2024-03-28 23:27:42*
%MOMM*%
%LPD*%
G01*
G04 APERTURE LIST*
G04 Aperture macros list*
%AMRoundRect*
0 Rectangle with rounded corners*
0 $1 Rounding radius*
0 $2 $3 $4 $5 $6 $7 $8 $9 X,Y pos of 4 corners*
0 Add a 4 corners polygon primitive as box body*
4,1,4,$2,$3,$4,$5,$6,$7,$8,$9,$2,$3,0*
0 Add four circle primitives for the rounded corners*
1,1,$1+$1,$2,$3*
1,1,$1+$1,$4,$5*
1,1,$1+$1,$6,$7*
1,1,$1+$1,$8,$9*
0 Add four rect primitives between the rounded corners*
20,1,$1+$1,$2,$3,$4,$5,0*
20,1,$1+$1,$4,$5,$6,$7,0*
20,1,$1+$1,$6,$7,$8,$9,0*
20,1,$1+$1,$8,$9,$2,$3,0*%
G04 Aperture macros list end*
%TA.AperFunction,SMDPad,CuDef*%
%ADD10RoundRect,0.065100X-0.589900X-0.399900X0.589900X-0.399900X0.589900X0.399900X-0.589900X0.399900X0*%
%TD*%
%TA.AperFunction,SMDPad,CuDef*%
%ADD11RoundRect,0.314400X-0.340600X-1.305600X0.340600X-1.305600X0.340600X1.305600X-0.340600X1.305600X0*%
%TD*%
%TA.AperFunction,ComponentPad*%
%ADD12R,1.700000X1.700000*%
%TD*%
%TA.AperFunction,ComponentPad*%
%ADD13O,1.700000X1.700000*%
%TD*%
%TA.AperFunction,SMDPad,CuDef*%
%ADD14RoundRect,0.250000X-0.475000X0.250000X-0.475000X-0.250000X0.475000X-0.250000X0.475000X0.250000X0*%
%TD*%
%TA.AperFunction,SMDPad,CuDef*%
%ADD15R,1.701800X3.098800*%
%TD*%
%TA.AperFunction,SMDPad,CuDef*%
%ADD16R,0.990600X5.511800*%
%TD*%
%TA.AperFunction,SMDPad,CuDef*%
%ADD17RoundRect,0.250000X-0.625000X0.375000X-0.625000X-0.375000X0.625000X-0.375000X0.625000X0.375000X0*%
%TD*%
%TA.AperFunction,SMDPad,CuDef*%
%ADD18R,2.000000X1.200000*%
%TD*%
%TA.AperFunction,SMDPad,CuDef*%
%ADD19R,1.200000X2.000000*%
%TD*%
%TA.AperFunction,SMDPad,CuDef*%
%ADD20RoundRect,0.250000X0.262500X0.450000X-0.262500X0.450000X-0.262500X-0.450000X0.262500X-0.450000X0*%
%TD*%
%TA.AperFunction,SMDPad,CuDef*%
%ADD21RoundRect,0.250000X0.450000X-0.262500X0.450000X0.262500X-0.450000X0.262500X-0.450000X-0.262500X0*%
%TD*%
%TA.AperFunction,SMDPad,CuDef*%
%ADD22RoundRect,0.250000X-0.262500X-0.450000X0.262500X-0.450000X0.262500X0.450000X-0.262500X0.450000X0*%
%TD*%
%TA.AperFunction,SMDPad,CuDef*%
%ADD23R,1.295400X3.149600*%
%TD*%
%TA.AperFunction,SMDPad,CuDef*%
%ADD24RoundRect,0.088500X0.206500X-0.516500X0.206500X0.516500X-0.206500X0.516500X-0.206500X-0.516500X0*%
%TD*%
%TA.AperFunction,SMDPad,CuDef*%
%ADD25RoundRect,0.250000X0.475000X-0.250000X0.475000X0.250000X-0.475000X0.250000X-0.475000X-0.250000X0*%
%TD*%
%TA.AperFunction,SMDPad,CuDef*%
%ADD26RoundRect,0.250000X0.625000X-0.375000X0.625000X0.375000X-0.625000X0.375000X-0.625000X-0.375000X0*%
%TD*%
%TA.AperFunction,SMDPad,CuDef*%
%ADD27R,0.990600X0.889000*%
%TD*%
%TA.AperFunction,SMDPad,CuDef*%
%ADD28R,0.558800X1.701800*%
%TD*%
%TA.AperFunction,SMDPad,CuDef*%
%ADD29R,0.889000X0.990600*%
%TD*%
%TA.AperFunction,SMDPad,CuDef*%
%ADD30R,1.701800X0.558800*%
%TD*%
%TA.AperFunction,Conductor*%
%ADD31C,0.508000*%
%TD*%
G04 APERTURE END LIST*
D10*
%TO.P,U2,1,GND/ADJ*%
%TO.N,GND*%
X70188000Y-65147000D03*
%TO.P,U2,2,VOUT*%
%TO.N,VCC*%
X70188000Y-67437000D03*
%TO.P,U2,3,VIN*%
%TO.N,Net-(J4-Pin_2)*%
X70188000Y-69727000D03*
D11*
%TO.P,U2,4*%
%TO.N,N/C*%
X76878000Y-67437000D03*
%TD*%
D12*
%TO.P,J5,1,Pin_1*%
%TO.N,/servo*%
X40259000Y-56515000D03*
D13*
%TO.P,J5,2,Pin_2*%
%TO.N,VCC*%
X40259000Y-53975000D03*
%TO.P,J5,3,Pin_3*%
%TO.N,GND*%
X40259000Y-51435000D03*
%TD*%
D12*
%TO.P,J4,1,Pin_1*%
%TO.N,GND*%
X40259000Y-39624000D03*
D13*
%TO.P,J4,2,Pin_2*%
%TO.N,Net-(J4-Pin_2)*%
X40259000Y-42164000D03*
%TD*%
D14*
%TO.P,C2,1*%
%TO.N,GND*%
X65278000Y-68834000D03*
%TO.P,C2,2*%
%TO.N,Net-(J4-Pin_2)*%
X65278000Y-70734000D03*
%TD*%
D15*
%TO.P,J1,4*%
%TO.N,N/C*%
X86659001Y-69052001D03*
%TO.P,J1,3*%
X93458997Y-69052001D03*
D16*
%TO.P,J1,2,2*%
%TO.N,VCC*%
X89058998Y-66802000D03*
%TO.P,J1,1,1*%
%TO.N,Net-(J1-Pad1)*%
X91059000Y-66802000D03*
%TD*%
D17*
%TO.P,D2,1,K*%
%TO.N,Net-(D2-K)*%
X107569000Y-30601000D03*
%TO.P,D2,2,A*%
%TO.N,Net-(D1-A)*%
X107569000Y-33401000D03*
%TD*%
D18*
%TO.P,U1,1,RST*%
%TO.N,Net-(U1-RST)*%
X65660000Y-44907000D03*
%TO.P,U1,2,ADC*%
%TO.N,unconnected-(U1-ADC-Pad2)*%
X65660000Y-46907000D03*
%TO.P,U1,3,EN*%
%TO.N,Net-(U1-EN)*%
X65660000Y-48907000D03*
%TO.P,U1,4,GPIO16*%
%TO.N,unconnected-(U1-GPIO16-Pad4)*%
X65660000Y-50907000D03*
%TO.P,U1,5,GPIO14*%
%TO.N,unconnected-(U1-GPIO14-Pad5)*%
X65660000Y-52907000D03*
%TO.P,U1,6,GPIO12*%
%TO.N,/servo*%
X65660000Y-54907000D03*
%TO.P,U1,7,GPIO13*%
%TO.N,Net-(U1-GPIO13)*%
X65660000Y-56907000D03*
%TO.P,U1,8,VCC*%
%TO.N,VCC*%
X65660000Y-58907000D03*
D19*
%TO.P,U1,9,CS0*%
%TO.N,unconnected-(U1-CS0-Pad9)*%
X68660000Y-60387000D03*
%TO.P,U1,10,MISO*%
%TO.N,unconnected-(U1-MISO-Pad10)*%
X70660000Y-60387000D03*
%TO.P,U1,11,IO9*%
%TO.N,unconnected-(U1-IO9-Pad11)*%
X72660000Y-60387000D03*
%TO.P,U1,12,IO10*%
%TO.N,unconnected-(U1-IO10-Pad12)*%
X74660000Y-60387000D03*
%TO.P,U1,13,MOSI*%
%TO.N,unconnected-(U1-MOSI-Pad13)*%
X76660000Y-60387000D03*
%TO.P,U1,14,SCLK*%
%TO.N,unconnected-(U1-SCLK-Pad14)*%
X78660000Y-60387000D03*
D18*
%TO.P,U1,15,GND*%
%TO.N,GND*%
X81660000Y-58907000D03*
%TO.P,U1,16,GPIO15*%
%TO.N,/DC*%
X81660000Y-56907000D03*
%TO.P,U1,17,GPIO2*%
%TO.N,unconnected-(U1-GPIO2-Pad17)*%
X81660000Y-54907000D03*
%TO.P,U1,18,GPIO0*%
%TO.N,Net-(U1-GPIO0)*%
X81660000Y-52907000D03*
%TO.P,U1,19,GPIO4*%
%TO.N,Net-(D1-K)*%
X81660000Y-50907000D03*
%TO.P,U1,20,GPIO5*%
%TO.N,Net-(D2-K)*%
X81660000Y-48907000D03*
%TO.P,U1,21,RXD*%
%TO.N,Net-(J3-Pin_1)*%
X81660000Y-46907000D03*
%TO.P,U1,22,TXD*%
%TO.N,Net-(J3-Pin_2)*%
X81660000Y-44907000D03*
%TD*%
D20*
%TO.P,R2,1*%
%TO.N,VCC*%
X96647000Y-36703000D03*
%TO.P,R2,2*%
%TO.N,Net-(U1-GPIO0)*%
X94822000Y-36703000D03*
%TD*%
D21*
%TO.P,R3,1*%
%TO.N,/DC*%
X92075000Y-54149000D03*
%TO.P,R3,2*%
%TO.N,GND*%
X92075000Y-52324000D03*
%TD*%
D22*
%TO.P,R1,1*%
%TO.N,Net-(U1-RST)*%
X55960000Y-44958000D03*
%TO.P,R1,2*%
%TO.N,VCC*%
X57785000Y-44958000D03*
%TD*%
D23*
%TO.P,U3,1,1*%
%TO.N,Net-(U1-GPIO13)*%
X55880000Y-36322000D03*
%TO.P,U3,2,2*%
%TO.N,GND*%
X46558200Y-36322000D03*
%TD*%
D24*
%TO.P,Q1,1*%
%TO.N,/DC*%
X94935000Y-54095500D03*
%TO.P,Q1,2*%
%TO.N,GND*%
X96835000Y-54095500D03*
%TO.P,Q1,3*%
%TO.N,Net-(J1-Pad1)*%
X95885000Y-51585500D03*
%TD*%
D25*
%TO.P,C3,1*%
%TO.N,VCC*%
X61087000Y-66543000D03*
%TO.P,C3,2*%
%TO.N,GND*%
X61087000Y-64643000D03*
%TD*%
D26*
%TO.P,D1,1,K*%
%TO.N,Net-(D1-K)*%
X107889000Y-69342000D03*
%TO.P,D1,2,A*%
%TO.N,Net-(D1-A)*%
X107889000Y-66542000D03*
%TD*%
D27*
%TO.P,SW2,1,1*%
%TO.N,unconnected-(SW2-Pad1)*%
X96403000Y-41638002D03*
%TO.P,SW2,2,2*%
%TO.N,GND*%
X96403000Y-45737998D03*
%TO.P,SW2,3,3*%
%TO.N,Net-(U1-GPIO0)*%
X94802998Y-41638002D03*
%TO.P,SW2,4,4*%
%TO.N,unconnected-(SW2-Pad4)*%
X94802998Y-45737998D03*
D28*
%TO.P,SW2,5,5*%
%TO.N,unconnected-(SW2-Pad5)*%
X97028000Y-43688000D03*
%TD*%
D25*
%TO.P,C4,1*%
%TO.N,VCC*%
X65278000Y-66543000D03*
%TO.P,C4,2*%
%TO.N,GND*%
X65278000Y-64643000D03*
%TD*%
D29*
%TO.P,SW1,1,1*%
%TO.N,unconnected-(SW1-Pad1)*%
X50292000Y-46558002D03*
%TO.P,SW1,2,2*%
%TO.N,GND*%
X46192004Y-46558002D03*
%TO.P,SW1,3,3*%
%TO.N,Net-(U1-RST)*%
X50292000Y-44958000D03*
%TO.P,SW1,4,4*%
%TO.N,unconnected-(SW1-Pad4)*%
X46192004Y-44958000D03*
D30*
%TO.P,SW1,5,5*%
%TO.N,unconnected-(SW1-Pad5)*%
X48242002Y-47183002D03*
%TD*%
D15*
%TO.P,J2,4*%
%TO.N,N/C*%
X41829251Y-69052001D03*
%TO.P,J2,3*%
X48629247Y-69052001D03*
D16*
%TO.P,J2,2,2*%
%TO.N,Net-(J4-Pin_2)*%
X44229248Y-66802000D03*
%TO.P,J2,1,1*%
%TO.N,GND*%
X46229250Y-66802000D03*
%TD*%
D14*
%TO.P,C1,1*%
%TO.N,GND*%
X61087000Y-68834000D03*
%TO.P,C1,2*%
%TO.N,Net-(J4-Pin_2)*%
X61087000Y-70734000D03*
%TD*%
D20*
%TO.P,R4,1*%
%TO.N,Net-(U1-EN)*%
X57785000Y-48895000D03*
%TO.P,R4,2*%
%TO.N,VCC*%
X55960000Y-48895000D03*
%TD*%
D12*
%TO.P,J3,1,Pin_1*%
%TO.N,Net-(J3-Pin_1)*%
X40259000Y-32004000D03*
D13*
%TO.P,J3,2,Pin_2*%
%TO.N,Net-(J3-Pin_2)*%
X40259000Y-34544000D03*
%TD*%
D21*
%TO.P,R5,1*%
%TO.N,Net-(D1-A)*%
X107950000Y-50339000D03*
%TO.P,R5,2*%
%TO.N,GND*%
X107950000Y-48514000D03*
%TD*%
D31*
%TO.N,Net-(J4-Pin_2)*%
X34671000Y-69850000D02*
X37338000Y-72517000D01*
X37338000Y-72517000D02*
X42418000Y-72517000D01*
X42418000Y-72517000D02*
X44229248Y-70705752D01*
X34671000Y-44069000D02*
X34671000Y-69850000D01*
X36576000Y-42164000D02*
X34671000Y-44069000D01*
X40259000Y-42164000D02*
X36576000Y-42164000D01*
%TO.N,VCC*%
X37338000Y-61849000D02*
X38354000Y-62865000D01*
X37338000Y-54737000D02*
X37338000Y-61849000D01*
X38100000Y-53975000D02*
X37338000Y-54737000D01*
X40259000Y-53975000D02*
X38100000Y-53975000D01*
X38354000Y-62865000D02*
X58420000Y-62865000D01*
%TO.N,Net-(U1-GPIO13)*%
X67172000Y-56907000D02*
X65660000Y-56907000D01*
X67945000Y-44196000D02*
X67945000Y-56134000D01*
X64008000Y-43434000D02*
X67183000Y-43434000D01*
X62103000Y-41529000D02*
X64008000Y-43434000D01*
X67183000Y-43434000D02*
X67945000Y-44196000D01*
X62103000Y-37592000D02*
X62103000Y-41529000D01*
X67945000Y-56134000D02*
X67172000Y-56907000D01*
X60833000Y-36322000D02*
X62103000Y-37592000D01*
X55880000Y-36322000D02*
X60833000Y-36322000D01*
%TO.N,Net-(D1-A)*%
X105048000Y-34525000D02*
X105048000Y-48914000D01*
X106473000Y-50339000D02*
X107950000Y-50339000D01*
X106172000Y-33401000D02*
X105048000Y-34525000D01*
X105048000Y-48914000D02*
X106473000Y-50339000D01*
X107569000Y-33401000D02*
X106172000Y-33401000D01*
%TO.N,Net-(D1-K)*%
X105918000Y-69342000D02*
X107889000Y-69342000D01*
X104140000Y-67564000D02*
X105918000Y-69342000D01*
X104140000Y-31369000D02*
X104140000Y-67564000D01*
X87649000Y-33255000D02*
X91802000Y-29102000D01*
X87649000Y-48241000D02*
X87649000Y-33255000D01*
X101873000Y-29102000D02*
X104140000Y-31369000D01*
X84983000Y-50907000D02*
X87649000Y-48241000D01*
X91802000Y-29102000D02*
X101873000Y-29102000D01*
X81660000Y-50907000D02*
X84983000Y-50907000D01*
%TO.N,Net-(J1-Pad1)*%
X100819000Y-59582000D02*
X100819000Y-52813000D01*
X99591500Y-51585500D02*
X95885000Y-51585500D01*
X99441000Y-60960000D02*
X100819000Y-59582000D01*
X92837000Y-60960000D02*
X99441000Y-60960000D01*
X91059000Y-66802000D02*
X91059000Y-62738000D01*
X91059000Y-62738000D02*
X92837000Y-60960000D01*
X100819000Y-52813000D02*
X99591500Y-51585500D01*
%TO.N,VCC*%
X91249996Y-72517000D02*
X89058998Y-70326002D01*
X101727000Y-71120000D02*
X100330000Y-72517000D01*
X100330000Y-72517000D02*
X91249996Y-72517000D01*
X100203000Y-36703000D02*
X101727000Y-38227000D01*
X101727000Y-38227000D02*
X101727000Y-71120000D01*
X96647000Y-36703000D02*
X100203000Y-36703000D01*
%TO.N,Net-(U1-GPIO0)*%
X88646000Y-42926000D02*
X89933998Y-41638002D01*
X89933998Y-41638002D02*
X94802998Y-41638002D01*
X88646000Y-49276000D02*
X88646000Y-42926000D01*
X81660000Y-52907000D02*
X85015000Y-52907000D01*
X85015000Y-52907000D02*
X88646000Y-49276000D01*
%TO.N,Net-(J3-Pin_2)*%
X42926000Y-34544000D02*
X40259000Y-34544000D01*
X43815000Y-33655000D02*
X42926000Y-34544000D01*
X43815000Y-30099000D02*
X43815000Y-33655000D01*
X44939000Y-28975000D02*
X43815000Y-30099000D01*
X80649894Y-28975000D02*
X44939000Y-28975000D01*
X84125000Y-44907000D02*
X84925000Y-44107000D01*
X84925000Y-44107000D02*
X84925000Y-33250106D01*
X81660000Y-44907000D02*
X84125000Y-44907000D01*
X84925000Y-33250106D02*
X80649894Y-28975000D01*
%TO.N,Net-(J3-Pin_1)*%
X41529000Y-28067000D02*
X40259000Y-29337000D01*
X81026000Y-28067000D02*
X41529000Y-28067000D01*
X85833000Y-32874000D02*
X81026000Y-28067000D01*
X85833000Y-45485000D02*
X85833000Y-32874000D01*
X40259000Y-29337000D02*
X40259000Y-32004000D01*
X84411000Y-46907000D02*
X85833000Y-45485000D01*
X81660000Y-46907000D02*
X84411000Y-46907000D01*
%TO.N,Net-(D2-K)*%
X106553000Y-28194000D02*
X107569000Y-29210000D01*
X86741000Y-32878894D02*
X91425894Y-28194000D01*
X86741000Y-46863000D02*
X86741000Y-32878894D01*
X84697000Y-48907000D02*
X86741000Y-46863000D01*
X91425894Y-28194000D02*
X106553000Y-28194000D01*
X81660000Y-48907000D02*
X84697000Y-48907000D01*
X107569000Y-29210000D02*
X107569000Y-30601000D01*
%TO.N,/servo*%
X54737000Y-56515000D02*
X40259000Y-56515000D01*
%TO.N,VCC*%
X53467000Y-53975000D02*
X40259000Y-53975000D01*
X55960000Y-51482000D02*
X53467000Y-53975000D01*
X55960000Y-48895000D02*
X55960000Y-51482000D01*
%TO.N,Net-(U1-GPIO0)*%
X94822000Y-41619000D02*
X94802998Y-41638002D01*
X94822000Y-36703000D02*
X94822000Y-41619000D01*
%TO.N,VCC*%
X86868000Y-72517000D02*
X89058998Y-70326002D01*
X76835000Y-72517000D02*
X86868000Y-72517000D01*
X71755000Y-67437000D02*
X76835000Y-72517000D01*
X70188000Y-67437000D02*
X71755000Y-67437000D01*
X89058998Y-70326002D02*
X89058998Y-66802000D01*
%TO.N,Net-(J4-Pin_2)*%
X44229248Y-70705752D02*
X44229248Y-66802000D01*
%TO.N,/DC*%
X92075000Y-55372000D02*
X92075000Y-54149000D01*
X90540000Y-56907000D02*
X92075000Y-55372000D01*
X81660000Y-56907000D02*
X90540000Y-56907000D01*
%TO.N,Net-(D1-A)*%
X107889000Y-50400000D02*
X107950000Y-50339000D01*
X107889000Y-66542000D02*
X107889000Y-50400000D01*
%TO.N,VCC*%
X68072000Y-67437000D02*
X70188000Y-67437000D01*
X67178000Y-66543000D02*
X68072000Y-67437000D01*
X65278000Y-66543000D02*
X67178000Y-66543000D01*
%TO.N,Net-(J4-Pin_2)*%
X67442000Y-70734000D02*
X65278000Y-70734000D01*
X68449000Y-69727000D02*
X67442000Y-70734000D01*
X70188000Y-69727000D02*
X68449000Y-69727000D01*
X61087000Y-70734000D02*
X65278000Y-70734000D01*
X52990998Y-72517000D02*
X52974999Y-72532999D01*
X59304000Y-72517000D02*
X52990998Y-72517000D01*
X61087000Y-70734000D02*
X59304000Y-72517000D01*
%TO.N,VCC*%
X61087000Y-66543000D02*
X65278000Y-66543000D01*
X59060000Y-66543000D02*
X61087000Y-66543000D01*
X59055000Y-66548000D02*
X59060000Y-66543000D01*
X58420000Y-65913000D02*
X59055000Y-66548000D01*
X58420000Y-62865000D02*
X58420000Y-65913000D01*
X64008000Y-61976000D02*
X59309000Y-61976000D01*
X59309000Y-61976000D02*
X58420000Y-62865000D01*
%TO.N,Net-(J4-Pin_2)*%
X46056495Y-72532999D02*
X44229248Y-70705752D01*
X52974999Y-72532999D02*
X46056495Y-72532999D01*
%TO.N,/servo*%
X56345000Y-54907000D02*
X54737000Y-56515000D01*
X65660000Y-54907000D02*
X56345000Y-54907000D01*
%TO.N,VCC*%
X55960000Y-47672000D02*
X55960000Y-48895000D01*
X57785000Y-45847000D02*
X55960000Y-47672000D01*
X57785000Y-44958000D02*
X57785000Y-45847000D01*
%TO.N,Net-(U1-EN)*%
X63476000Y-48895000D02*
X57785000Y-48895000D01*
X63488000Y-48907000D02*
X63476000Y-48895000D01*
%TO.N,Net-(U1-RST)*%
X55960000Y-44958000D02*
X50292000Y-44958000D01*
%TO.N,Net-(J4-Pin_2)*%
X52974999Y-72532999D02*
X52959000Y-72517000D01*
%TO.N,VCC*%
X65660000Y-58907000D02*
X65660000Y-60324000D01*
X65660000Y-60324000D02*
X64008000Y-61976000D01*
X64622000Y-58907000D02*
X65660000Y-58907000D01*
%TO.N,/DC*%
X92064000Y-54160000D02*
X92075000Y-54149000D01*
X92075000Y-54149000D02*
X94881500Y-54149000D01*
X94881500Y-54149000D02*
X94935000Y-54095500D01*
%TO.N,Net-(U1-RST)*%
X61595000Y-42418000D02*
X64084000Y-44907000D01*
X55960000Y-44958000D02*
X55960000Y-43481000D01*
X57023000Y-42418000D02*
X61595000Y-42418000D01*
X64084000Y-44907000D02*
X65660000Y-44907000D01*
X55960000Y-43481000D02*
X57023000Y-42418000D01*
%TO.N,Net-(U1-EN)*%
X63488000Y-48907000D02*
X65660000Y-48907000D01*
%TD*%
%TA.AperFunction,Conductor*%
%TO.N,GND*%
G36*
X114866609Y-25019866D02*
G01*
X114941964Y-25074615D01*
X114988537Y-25155280D01*
X114999500Y-25224500D01*
X114999500Y-74775500D01*
X114980134Y-74866609D01*
X114925385Y-74941964D01*
X114844720Y-74988537D01*
X114775500Y-74999500D01*
X30224500Y-74999500D01*
X30133391Y-74980134D01*
X30058036Y-74925385D01*
X30011463Y-74844720D01*
X30000500Y-74775500D01*
X30000500Y-69892848D01*
X33962620Y-69892848D01*
X33973592Y-69952726D01*
X33974609Y-69959411D01*
X33981947Y-70019830D01*
X33981950Y-70019843D01*
X33982363Y-70020931D01*
X33993244Y-70059959D01*
X33993458Y-70061128D01*
X33993458Y-70061129D01*
X34018446Y-70116651D01*
X34021036Y-70122903D01*
X34042612Y-70179797D01*
X34042617Y-70179805D01*
X34043278Y-70180763D01*
X34063189Y-70216064D01*
X34063672Y-70217138D01*
X34063673Y-70217139D01*
X34063674Y-70217141D01*
X34087626Y-70247713D01*
X34101208Y-70265050D01*
X34105218Y-70270499D01*
X34139800Y-70320600D01*
X34139801Y-70320601D01*
X34185364Y-70360966D01*
X34190291Y-70365604D01*
X36822401Y-72997716D01*
X36827032Y-73002634D01*
X36867399Y-73048199D01*
X36890577Y-73064197D01*
X36917490Y-73082774D01*
X36922941Y-73086785D01*
X36970857Y-73124325D01*
X36971916Y-73124802D01*
X37007240Y-73144724D01*
X37008196Y-73145384D01*
X37008197Y-73145384D01*
X37008198Y-73145385D01*
X37050387Y-73161385D01*
X37065111Y-73166969D01*
X37071349Y-73169553D01*
X37126870Y-73194541D01*
X37128018Y-73194751D01*
X37167077Y-73205640D01*
X37167088Y-73205644D01*
X37168164Y-73206052D01*
X37228584Y-73213388D01*
X37235273Y-73214406D01*
X37295151Y-73225380D01*
X37355933Y-73221703D01*
X37362672Y-73221500D01*
X42393332Y-73221500D01*
X42400074Y-73221703D01*
X42460849Y-73225380D01*
X42520743Y-73214403D01*
X42527410Y-73213388D01*
X42587836Y-73206052D01*
X42588912Y-73205644D01*
X42627986Y-73194750D01*
X42629130Y-73194541D01*
X42662443Y-73179547D01*
X42684657Y-73169550D01*
X42690886Y-73166969D01*
X42747802Y-73145385D01*
X42748746Y-73144733D01*
X42784088Y-73124799D01*
X42785141Y-73124326D01*
X42833058Y-73086783D01*
X42838475Y-73082797D01*
X42888601Y-73048199D01*
X42928990Y-73002607D01*
X42933581Y-72997730D01*
X44070860Y-71860452D01*
X44148973Y-71809726D01*
X44240970Y-71795155D01*
X44330941Y-71819263D01*
X44387639Y-71860456D01*
X45540897Y-73013715D01*
X45545535Y-73018642D01*
X45585894Y-73064198D01*
X45635998Y-73098782D01*
X45641441Y-73102788D01*
X45689353Y-73140324D01*
X45690414Y-73140801D01*
X45725730Y-73160719D01*
X45726693Y-73161384D01*
X45783627Y-73182975D01*
X45789851Y-73185553D01*
X45845363Y-73210538D01*
X45845365Y-73210539D01*
X45846497Y-73210746D01*
X45885569Y-73221637D01*
X45886659Y-73222051D01*
X45886662Y-73222051D01*
X45886664Y-73222052D01*
X45947083Y-73229388D01*
X45953773Y-73230406D01*
X45969173Y-73233228D01*
X46013645Y-73241378D01*
X46074410Y-73237702D01*
X46081150Y-73237499D01*
X52890623Y-73237499D01*
X52930997Y-73241168D01*
X52931194Y-73241203D01*
X52932150Y-73241379D01*
X52968240Y-73239195D01*
X52981758Y-73239195D01*
X53017848Y-73241379D01*
X53053416Y-73234860D01*
X53066835Y-73233230D01*
X53102921Y-73231048D01*
X53102929Y-73231045D01*
X53116258Y-73228604D01*
X53116386Y-73229303D01*
X53167655Y-73221500D01*
X59279332Y-73221500D01*
X59286074Y-73221703D01*
X59346849Y-73225380D01*
X59406743Y-73214403D01*
X59413410Y-73213388D01*
X59473836Y-73206052D01*
X59474912Y-73205644D01*
X59513986Y-73194750D01*
X59515130Y-73194541D01*
X59548443Y-73179547D01*
X59570657Y-73169550D01*
X59576886Y-73166969D01*
X59633802Y-73145385D01*
X59634746Y-73144733D01*
X59670088Y-73124799D01*
X59671141Y-73124326D01*
X59719058Y-73086783D01*
X59724475Y-73082797D01*
X59774601Y-73048199D01*
X59814990Y-73002607D01*
X59819599Y-72997713D01*
X61067205Y-71750108D01*
X61145323Y-71699378D01*
X61225597Y-71684500D01*
X61618611Y-71684500D01*
X61618616Y-71684500D01*
X61689196Y-71678086D01*
X61851606Y-71627478D01*
X61997185Y-71539472D01*
X62032549Y-71504108D01*
X62110667Y-71453378D01*
X62190941Y-71438500D01*
X64174059Y-71438500D01*
X64265168Y-71457866D01*
X64332451Y-71504108D01*
X64367815Y-71539472D01*
X64513394Y-71627478D01*
X64675804Y-71678086D01*
X64746384Y-71684500D01*
X64746388Y-71684500D01*
X65809611Y-71684500D01*
X65809616Y-71684500D01*
X65880196Y-71678086D01*
X66042606Y-71627478D01*
X66188185Y-71539472D01*
X66223549Y-71504108D01*
X66301667Y-71453378D01*
X66381941Y-71438500D01*
X67417332Y-71438500D01*
X67424074Y-71438703D01*
X67484849Y-71442380D01*
X67544743Y-71431403D01*
X67551410Y-71430388D01*
X67611836Y-71423052D01*
X67612912Y-71422644D01*
X67651986Y-71411750D01*
X67653130Y-71411541D01*
X67694599Y-71392877D01*
X67708657Y-71386550D01*
X67714886Y-71383969D01*
X67771802Y-71362385D01*
X67772746Y-71361733D01*
X67808088Y-71341799D01*
X67809141Y-71341326D01*
X67857058Y-71303783D01*
X67862475Y-71299797D01*
X67912601Y-71265199D01*
X67952976Y-71219623D01*
X67957598Y-71214714D01*
X68675205Y-70497108D01*
X68753323Y-70446378D01*
X68833597Y-70431500D01*
X69073892Y-70431500D01*
X69165001Y-70450866D01*
X69217103Y-70486674D01*
X69217878Y-70485654D01*
X69343019Y-70580550D01*
X69343022Y-70580551D01*
X69343024Y-70580553D01*
X69474877Y-70632549D01*
X69557739Y-70642500D01*
X70818260Y-70642499D01*
X70901123Y-70632549D01*
X71032976Y-70580553D01*
X71145912Y-70494912D01*
X71152933Y-70485654D01*
X71231550Y-70381980D01*
X71231550Y-70381979D01*
X71231553Y-70381976D01*
X71283549Y-70250123D01*
X71293500Y-70167261D01*
X71293499Y-69286740D01*
X71283549Y-69203877D01*
X71231553Y-69072024D01*
X71231551Y-69072022D01*
X71231550Y-69072019D01*
X71145916Y-68959092D01*
X71145907Y-68959083D01*
X71032980Y-68873449D01*
X71032974Y-68873446D01*
X70997648Y-68859515D01*
X70901123Y-68821451D01*
X70901120Y-68821450D01*
X70901119Y-68821450D01*
X70833814Y-68813367D01*
X70818261Y-68811500D01*
X70818260Y-68811500D01*
X69557747Y-68811500D01*
X69557732Y-68811501D01*
X69474879Y-68821450D01*
X69343027Y-68873445D01*
X69343019Y-68873449D01*
X69217878Y-68968346D01*
X69216811Y-68966939D01*
X69154166Y-69007622D01*
X69073892Y-69022500D01*
X68473668Y-69022500D01*
X68466925Y-69022296D01*
X68406151Y-69018620D01*
X68406150Y-69018620D01*
X68406149Y-69018620D01*
X68346265Y-69029594D01*
X68339590Y-69030610D01*
X68303050Y-69035047D01*
X68279162Y-69037948D01*
X68279159Y-69037949D01*
X68278057Y-69038367D01*
X68239029Y-69049247D01*
X68237873Y-69049458D01*
X68237867Y-69049460D01*
X68182371Y-69074437D01*
X68176122Y-69077025D01*
X68119200Y-69098613D01*
X68119192Y-69098617D01*
X68118219Y-69099290D01*
X68082933Y-69119191D01*
X68081863Y-69119672D01*
X68081858Y-69119675D01*
X68033945Y-69157211D01*
X68028497Y-69161220D01*
X67978397Y-69195802D01*
X67978396Y-69195803D01*
X67938033Y-69241363D01*
X67933396Y-69246289D01*
X67215795Y-69963892D01*
X67137678Y-70014622D01*
X67057403Y-70029500D01*
X66381941Y-70029500D01*
X66290832Y-70010134D01*
X66223549Y-69963892D01*
X66201695Y-69942038D01*
X66150965Y-69863920D01*
X66136394Y-69771923D01*
X66160502Y-69681952D01*
X66201695Y-69625254D01*
X66308074Y-69518874D01*
X66396014Y-69373406D01*
X66396018Y-69373398D01*
X66446590Y-69211108D01*
X66452999Y-69140572D01*
X66453000Y-69140570D01*
X66453000Y-69059000D01*
X64103001Y-69059000D01*
X64103001Y-69140582D01*
X64109407Y-69211099D01*
X64109409Y-69211108D01*
X64159981Y-69373396D01*
X64159985Y-69373406D01*
X64247925Y-69518874D01*
X64354305Y-69625254D01*
X64405035Y-69703372D01*
X64419606Y-69795369D01*
X64395498Y-69885340D01*
X64354305Y-69942038D01*
X64332451Y-69963892D01*
X64254333Y-70014622D01*
X64174059Y-70029500D01*
X62190941Y-70029500D01*
X62099832Y-70010134D01*
X62032549Y-69963892D01*
X62010695Y-69942038D01*
X61959965Y-69863920D01*
X61945394Y-69771923D01*
X61969502Y-69681952D01*
X62010695Y-69625254D01*
X62117074Y-69518874D01*
X62205014Y-69373406D01*
X62205018Y-69373398D01*
X62255590Y-69211108D01*
X62261999Y-69140572D01*
X62262000Y-69140570D01*
X62262000Y-69059000D01*
X59912001Y-69059000D01*
X59912001Y-69140582D01*
X59918407Y-69211099D01*
X59918409Y-69211108D01*
X59968981Y-69373396D01*
X59968985Y-69373406D01*
X60056925Y-69518874D01*
X60163305Y-69625254D01*
X60214035Y-69703372D01*
X60228606Y-69795369D01*
X60204498Y-69885340D01*
X60163305Y-69942038D01*
X60056529Y-70048813D01*
X59968521Y-70194395D01*
X59917914Y-70356801D01*
X59911500Y-70427388D01*
X59911500Y-70820403D01*
X59892134Y-70911512D01*
X59845892Y-70978795D01*
X59077795Y-71746892D01*
X58999677Y-71797622D01*
X58919403Y-71812500D01*
X53043377Y-71812500D01*
X53003003Y-71808831D01*
X53001851Y-71808620D01*
X53001851Y-71808619D01*
X52987566Y-71809483D01*
X52981761Y-71809835D01*
X52968237Y-71809835D01*
X52948149Y-71808620D01*
X52948148Y-71808620D01*
X52948141Y-71808620D01*
X52928347Y-71812247D01*
X52914914Y-71813878D01*
X52831081Y-71818950D01*
X52817755Y-71821393D01*
X52817626Y-71820694D01*
X52766346Y-71828499D01*
X46441093Y-71828499D01*
X46349984Y-71809133D01*
X46282701Y-71762891D01*
X44999356Y-70479546D01*
X44948626Y-70401428D01*
X44933748Y-70321154D01*
X44933748Y-70076491D01*
X44953114Y-69985382D01*
X45007863Y-69910027D01*
X45024734Y-69896260D01*
X45039530Y-69885340D01*
X45046698Y-69880050D01*
X45049328Y-69876486D01*
X45057591Y-69869156D01*
X45058568Y-69868180D01*
X45058626Y-69868238D01*
X45119005Y-69814681D01*
X45207803Y-69786557D01*
X45300362Y-69796982D01*
X45380679Y-69844153D01*
X45409790Y-69876482D01*
X45412159Y-69879692D01*
X45521301Y-69960244D01*
X45521307Y-69960247D01*
X45649341Y-70005048D01*
X45649350Y-70005050D01*
X45679738Y-70007899D01*
X46004250Y-70007899D01*
X46004250Y-67027000D01*
X46454250Y-67027000D01*
X46454250Y-70007899D01*
X46778745Y-70007899D01*
X46778765Y-70007898D01*
X46809154Y-70005049D01*
X46937190Y-69960248D01*
X46937199Y-69960243D01*
X46970828Y-69935424D01*
X47055633Y-69896901D01*
X47148775Y-69896203D01*
X47234148Y-69933449D01*
X47296991Y-70002200D01*
X47326438Y-70090567D01*
X47327847Y-70115651D01*
X47327847Y-70655662D01*
X47330701Y-70686101D01*
X47330701Y-70686103D01*
X47375552Y-70814279D01*
X47375553Y-70814280D01*
X47375554Y-70814283D01*
X47456197Y-70923551D01*
X47565465Y-71004194D01*
X47693648Y-71049047D01*
X47724081Y-71051901D01*
X47724091Y-71051901D01*
X49534403Y-71051901D01*
X49534413Y-71051901D01*
X49564846Y-71049047D01*
X49693029Y-71004194D01*
X49802297Y-70923551D01*
X49882940Y-70814283D01*
X49927793Y-70686100D01*
X49930647Y-70655667D01*
X49930647Y-67448335D01*
X49927793Y-67417902D01*
X49903498Y-67348472D01*
X49882941Y-67289722D01*
X49882940Y-67289719D01*
X49802297Y-67180451D01*
X49693029Y-67099808D01*
X49693026Y-67099807D01*
X49693025Y-67099806D01*
X49564848Y-67054955D01*
X49556150Y-67054139D01*
X49534413Y-67052101D01*
X47724081Y-67052101D01*
X47703792Y-67054003D01*
X47693646Y-67054955D01*
X47693644Y-67054955D01*
X47565466Y-67099807D01*
X47531563Y-67124828D01*
X47446756Y-67163347D01*
X47353614Y-67164043D01*
X47268242Y-67126793D01*
X47205402Y-67058041D01*
X47205307Y-67057757D01*
X47174550Y-67027000D01*
X46454250Y-67027000D01*
X46004250Y-67027000D01*
X46004250Y-66801000D01*
X46023616Y-66709891D01*
X46078365Y-66634536D01*
X46159030Y-66587963D01*
X46228250Y-66577000D01*
X47174549Y-66577000D01*
X47174549Y-63991905D01*
X47174548Y-63991884D01*
X47171699Y-63961495D01*
X47138803Y-63867481D01*
X47126991Y-63775088D01*
X47153780Y-63685879D01*
X47214537Y-63615279D01*
X47298758Y-63575495D01*
X47350233Y-63569500D01*
X57491500Y-63569500D01*
X57582609Y-63588866D01*
X57657964Y-63643615D01*
X57704537Y-63724280D01*
X57715500Y-63793500D01*
X57715500Y-65888331D01*
X57715296Y-65895073D01*
X57711930Y-65950720D01*
X57711620Y-65955848D01*
X57722592Y-66015726D01*
X57723609Y-66022411D01*
X57730947Y-66082830D01*
X57730950Y-66082843D01*
X57731363Y-66083931D01*
X57742244Y-66122959D01*
X57742458Y-66124128D01*
X57742458Y-66124129D01*
X57767446Y-66179651D01*
X57770036Y-66185903D01*
X57791612Y-66242797D01*
X57791617Y-66242805D01*
X57792278Y-66243763D01*
X57812189Y-66279064D01*
X57812672Y-66280138D01*
X57812673Y-66280139D01*
X57812674Y-66280141D01*
X57836626Y-66310713D01*
X57850208Y-66328050D01*
X57854218Y-66333499D01*
X57888800Y-66383600D01*
X57888801Y-66383601D01*
X57934363Y-66423965D01*
X57939290Y-66428604D01*
X58589548Y-67078862D01*
X58589562Y-67078875D01*
X58617331Y-67106644D01*
X58648269Y-67125347D01*
X58659401Y-67133030D01*
X58687859Y-67155326D01*
X58720829Y-67170165D01*
X58732802Y-67176449D01*
X58763741Y-67195152D01*
X58780018Y-67200224D01*
X58798248Y-67205905D01*
X58810906Y-67210705D01*
X58843867Y-67225540D01*
X58843868Y-67225540D01*
X58843870Y-67225541D01*
X58879440Y-67232059D01*
X58892568Y-67235295D01*
X58927078Y-67246049D01*
X58963164Y-67248231D01*
X58976581Y-67249861D01*
X59012151Y-67256380D01*
X59048243Y-67254196D01*
X59061760Y-67254196D01*
X59097849Y-67256380D01*
X59126275Y-67251170D01*
X59166657Y-67247500D01*
X59983059Y-67247500D01*
X60074168Y-67266866D01*
X60141451Y-67313108D01*
X60176815Y-67348472D01*
X60291666Y-67417902D01*
X60322396Y-67436479D01*
X60445707Y-67474903D01*
X60526930Y-67520496D01*
X60582586Y-67595184D01*
X60603053Y-67686052D01*
X60584790Y-67777389D01*
X60530956Y-67853401D01*
X60450860Y-67900945D01*
X60445712Y-67902618D01*
X60322600Y-67940982D01*
X60322593Y-67940985D01*
X60177125Y-68028925D01*
X60056925Y-68149125D01*
X59968985Y-68294593D01*
X59968981Y-68294601D01*
X59918409Y-68456891D01*
X59912000Y-68527427D01*
X59912000Y-68609000D01*
X62261999Y-68609000D01*
X62261999Y-68527433D01*
X62261998Y-68527417D01*
X62255592Y-68456900D01*
X62255590Y-68456891D01*
X62205018Y-68294603D01*
X62205014Y-68294593D01*
X62117074Y-68149125D01*
X61996874Y-68028925D01*
X61851406Y-67940985D01*
X61851399Y-67940982D01*
X61728287Y-67902618D01*
X61647066Y-67857023D01*
X61591411Y-67782334D01*
X61570946Y-67691466D01*
X61589211Y-67600129D01*
X61643046Y-67524118D01*
X61723143Y-67476576D01*
X61728259Y-67474913D01*
X61813555Y-67448335D01*
X61851604Y-67436479D01*
X61882334Y-67417902D01*
X61997185Y-67348472D01*
X62032549Y-67313108D01*
X62110667Y-67262378D01*
X62190941Y-67247500D01*
X64174059Y-67247500D01*
X64265168Y-67266866D01*
X64332451Y-67313108D01*
X64367815Y-67348472D01*
X64482666Y-67417902D01*
X64513396Y-67436479D01*
X64636707Y-67474903D01*
X64717930Y-67520496D01*
X64773586Y-67595184D01*
X64794053Y-67686052D01*
X64775790Y-67777389D01*
X64721956Y-67853401D01*
X64641860Y-67900945D01*
X64636712Y-67902618D01*
X64513600Y-67940982D01*
X64513593Y-67940985D01*
X64368125Y-68028925D01*
X64247925Y-68149125D01*
X64159985Y-68294593D01*
X64159981Y-68294601D01*
X64109409Y-68456891D01*
X64103000Y-68527427D01*
X64103000Y-68609000D01*
X66452999Y-68609000D01*
X66452999Y-68527433D01*
X66452998Y-68527417D01*
X66446592Y-68456900D01*
X66446590Y-68456891D01*
X66396018Y-68294603D01*
X66396014Y-68294593D01*
X66308074Y-68149125D01*
X66187874Y-68028925D01*
X66042406Y-67940985D01*
X66042399Y-67940982D01*
X65919287Y-67902618D01*
X65838066Y-67857023D01*
X65782411Y-67782334D01*
X65761946Y-67691466D01*
X65780211Y-67600129D01*
X65834046Y-67524118D01*
X65914143Y-67476576D01*
X65919259Y-67474913D01*
X66004555Y-67448335D01*
X66042604Y-67436479D01*
X66073334Y-67417902D01*
X66188185Y-67348472D01*
X66223549Y-67313108D01*
X66301667Y-67262378D01*
X66381941Y-67247500D01*
X66793403Y-67247500D01*
X66884512Y-67266866D01*
X66951795Y-67313108D01*
X67556394Y-67917707D01*
X67561032Y-67922634D01*
X67601399Y-67968199D01*
X67651503Y-68002783D01*
X67656943Y-68006786D01*
X67704859Y-68044326D01*
X67705490Y-68044610D01*
X67705916Y-68044802D01*
X67741240Y-68064724D01*
X67742196Y-68065384D01*
X67742197Y-68065384D01*
X67742198Y-68065385D01*
X67773381Y-68077211D01*
X67799111Y-68086969D01*
X67805349Y-68089553D01*
X67860870Y-68114541D01*
X67862018Y-68114751D01*
X67901077Y-68125640D01*
X67901389Y-68125758D01*
X67902164Y-68126052D01*
X67962584Y-68133388D01*
X67969273Y-68134406D01*
X68029151Y-68145380D01*
X68089933Y-68141703D01*
X68096672Y-68141500D01*
X69073892Y-68141500D01*
X69165001Y-68160866D01*
X69217103Y-68196674D01*
X69217878Y-68195654D01*
X69343019Y-68290550D01*
X69343022Y-68290551D01*
X69343024Y-68290553D01*
X69474877Y-68342549D01*
X69557739Y-68352500D01*
X70818260Y-68352499D01*
X70901123Y-68342549D01*
X71032976Y-68290553D01*
X71064695Y-68266500D01*
X71158122Y-68195654D01*
X71159188Y-68197060D01*
X71221834Y-68156378D01*
X71302108Y-68141500D01*
X71370403Y-68141500D01*
X71461512Y-68160866D01*
X71528795Y-68207108D01*
X76319394Y-72997707D01*
X76324032Y-73002634D01*
X76364399Y-73048199D01*
X76414503Y-73082783D01*
X76419942Y-73086785D01*
X76467859Y-73124326D01*
X76468490Y-73124610D01*
X76468916Y-73124802D01*
X76504240Y-73144724D01*
X76505196Y-73145384D01*
X76505197Y-73145384D01*
X76505198Y-73145385D01*
X76547387Y-73161385D01*
X76562111Y-73166969D01*
X76568349Y-73169553D01*
X76623870Y-73194541D01*
X76625018Y-73194751D01*
X76664077Y-73205640D01*
X76664088Y-73205644D01*
X76665164Y-73206052D01*
X76725584Y-73213388D01*
X76732273Y-73214406D01*
X76792151Y-73225380D01*
X76852933Y-73221703D01*
X76859672Y-73221500D01*
X86843332Y-73221500D01*
X86850074Y-73221703D01*
X86910849Y-73225380D01*
X86970743Y-73214403D01*
X86977410Y-73213388D01*
X87037836Y-73206052D01*
X87038912Y-73205644D01*
X87077986Y-73194750D01*
X87079130Y-73194541D01*
X87112443Y-73179547D01*
X87134657Y-73169550D01*
X87140886Y-73166969D01*
X87197802Y-73145385D01*
X87198746Y-73144733D01*
X87234088Y-73124799D01*
X87235141Y-73124326D01*
X87283058Y-73086783D01*
X87288475Y-73082797D01*
X87338601Y-73048199D01*
X87378990Y-73002607D01*
X87383581Y-72997730D01*
X88900610Y-71480702D01*
X88978723Y-71429976D01*
X89070720Y-71415405D01*
X89160691Y-71439513D01*
X89217389Y-71480706D01*
X90734390Y-72997707D01*
X90739028Y-73002634D01*
X90779395Y-73048199D01*
X90829487Y-73082775D01*
X90829502Y-73082785D01*
X90834932Y-73086780D01*
X90882855Y-73124325D01*
X90882857Y-73124326D01*
X90883912Y-73124801D01*
X90919230Y-73144720D01*
X90919236Y-73144724D01*
X90920194Y-73145385D01*
X90977138Y-73166980D01*
X90983346Y-73169552D01*
X91013159Y-73182970D01*
X91038863Y-73194539D01*
X91038864Y-73194539D01*
X91038866Y-73194540D01*
X91039998Y-73194747D01*
X91079070Y-73205638D01*
X91080160Y-73206052D01*
X91130695Y-73212187D01*
X91140586Y-73213389D01*
X91147280Y-73214408D01*
X91207147Y-73225380D01*
X91267921Y-73221703D01*
X91274664Y-73221500D01*
X100305332Y-73221500D01*
X100312074Y-73221703D01*
X100372849Y-73225380D01*
X100432743Y-73214403D01*
X100439410Y-73213388D01*
X100499836Y-73206052D01*
X100500912Y-73205644D01*
X100539986Y-73194750D01*
X100541130Y-73194541D01*
X100574443Y-73179547D01*
X100596657Y-73169550D01*
X100602886Y-73166969D01*
X100659802Y-73145385D01*
X100660746Y-73144733D01*
X100696088Y-73124799D01*
X100697141Y-73124326D01*
X100745058Y-73086783D01*
X100750475Y-73082797D01*
X100800601Y-73048199D01*
X100840990Y-73002607D01*
X100845581Y-72997730D01*
X102207730Y-71635581D01*
X102212607Y-71630990D01*
X102258199Y-71590601D01*
X102292796Y-71540477D01*
X102296790Y-71535050D01*
X102334325Y-71487141D01*
X102334798Y-71486090D01*
X102354730Y-71450751D01*
X102355384Y-71449803D01*
X102355383Y-71449803D01*
X102355385Y-71449802D01*
X102376982Y-71392852D01*
X102379547Y-71386659D01*
X102404540Y-71331130D01*
X102404750Y-71329982D01*
X102415639Y-71290925D01*
X102415661Y-71290866D01*
X102416052Y-71289836D01*
X102419044Y-71265198D01*
X102423388Y-71229416D01*
X102424406Y-71222724D01*
X102435379Y-71162850D01*
X102431703Y-71102085D01*
X102431500Y-71095342D01*
X102431500Y-38251655D01*
X102431703Y-38244915D01*
X102435379Y-38184150D01*
X102424407Y-38124278D01*
X102423389Y-38117588D01*
X102416053Y-38057169D01*
X102416052Y-38057167D01*
X102416052Y-38057164D01*
X102415638Y-38056074D01*
X102404747Y-38017002D01*
X102404540Y-38015870D01*
X102379552Y-37960350D01*
X102376980Y-37954142D01*
X102355385Y-37897198D01*
X102354720Y-37896234D01*
X102334801Y-37860916D01*
X102334326Y-37859861D01*
X102334324Y-37859858D01*
X102324317Y-37847085D01*
X102296779Y-37811935D01*
X102292784Y-37806505D01*
X102258199Y-37756399D01*
X102212643Y-37716040D01*
X102207716Y-37711401D01*
X100718604Y-36222291D01*
X100713966Y-36217364D01*
X100695379Y-36196384D01*
X100673601Y-36171801D01*
X100623498Y-36137217D01*
X100618050Y-36133208D01*
X100600713Y-36119626D01*
X100570141Y-36095674D01*
X100570139Y-36095673D01*
X100570138Y-36095672D01*
X100569064Y-36095189D01*
X100533763Y-36075278D01*
X100532805Y-36074617D01*
X100532797Y-36074612D01*
X100486198Y-36056940D01*
X100475896Y-36053033D01*
X100469651Y-36050446D01*
X100414129Y-36025458D01*
X100412959Y-36025244D01*
X100373931Y-36014363D01*
X100372843Y-36013950D01*
X100372838Y-36013948D01*
X100372836Y-36013948D01*
X100372832Y-36013947D01*
X100372830Y-36013947D01*
X100312411Y-36006609D01*
X100305726Y-36005592D01*
X100258760Y-35996986D01*
X100245849Y-35994620D01*
X100245848Y-35994620D01*
X100240743Y-35994928D01*
X100185074Y-35998296D01*
X100178332Y-35998500D01*
X97700536Y-35998500D01*
X97609427Y-35979134D01*
X97534072Y-35924385D01*
X97508844Y-35890389D01*
X97464972Y-35817815D01*
X97344685Y-35697528D01*
X97199106Y-35609522D01*
X97199105Y-35609521D01*
X97199104Y-35609521D01*
X97036698Y-35558914D01*
X97013169Y-35556776D01*
X96966116Y-35552500D01*
X96327884Y-35552500D01*
X96287552Y-35556165D01*
X96257301Y-35558914D01*
X96094895Y-35609521D01*
X95949313Y-35697529D01*
X95892892Y-35753951D01*
X95814774Y-35804681D01*
X95722777Y-35819252D01*
X95632806Y-35795144D01*
X95576108Y-35753951D01*
X95519686Y-35697529D01*
X95519685Y-35697528D01*
X95374106Y-35609522D01*
X95374105Y-35609521D01*
X95374104Y-35609521D01*
X95211698Y-35558914D01*
X95188169Y-35556776D01*
X95141116Y-35552500D01*
X94502884Y-35552500D01*
X94462552Y-35556165D01*
X94432301Y-35558914D01*
X94269895Y-35609521D01*
X94124313Y-35697529D01*
X94004029Y-35817813D01*
X93916021Y-35963395D01*
X93865414Y-36125801D01*
X93865414Y-36125804D01*
X93859000Y-36196384D01*
X93859000Y-37209616D01*
X93862715Y-37250500D01*
X93865414Y-37280198D01*
X93909652Y-37422164D01*
X93916022Y-37442606D01*
X93960158Y-37515616D01*
X94004029Y-37588186D01*
X94051892Y-37636049D01*
X94102622Y-37714167D01*
X94117500Y-37794441D01*
X94117500Y-40660886D01*
X94098134Y-40751995D01*
X94043385Y-40827350D01*
X94026516Y-40841115D01*
X93972042Y-40881319D01*
X93970840Y-40879690D01*
X93910888Y-40918624D01*
X93830614Y-40933502D01*
X89958654Y-40933502D01*
X89951915Y-40933298D01*
X89891149Y-40929623D01*
X89831285Y-40940592D01*
X89824600Y-40941610D01*
X89764162Y-40948949D01*
X89763053Y-40949370D01*
X89724021Y-40960250D01*
X89722874Y-40960460D01*
X89722864Y-40960463D01*
X89667369Y-40985439D01*
X89661120Y-40988027D01*
X89604198Y-41009615D01*
X89604190Y-41009619D01*
X89603217Y-41010292D01*
X89567931Y-41030193D01*
X89566861Y-41030674D01*
X89566856Y-41030677D01*
X89518943Y-41068213D01*
X89513495Y-41072222D01*
X89463395Y-41106804D01*
X89463394Y-41106805D01*
X89423031Y-41152365D01*
X89418394Y-41157291D01*
X88735892Y-41839794D01*
X88657775Y-41890524D01*
X88565777Y-41905095D01*
X88475806Y-41880988D01*
X88403419Y-41822370D01*
X88361133Y-41739378D01*
X88353500Y-41681402D01*
X88353500Y-33639597D01*
X88372866Y-33548488D01*
X88419108Y-33481205D01*
X92028205Y-29872108D01*
X92106323Y-29821378D01*
X92186597Y-29806500D01*
X101488403Y-29806500D01*
X101579512Y-29825866D01*
X101646795Y-29872108D01*
X103369892Y-31595205D01*
X103420622Y-31673323D01*
X103435500Y-31753597D01*
X103435500Y-67539331D01*
X103435296Y-67546073D01*
X103431620Y-67606849D01*
X103433572Y-67617500D01*
X103442592Y-67666726D01*
X103443609Y-67673411D01*
X103450947Y-67733830D01*
X103450950Y-67733843D01*
X103451363Y-67734931D01*
X103462244Y-67773959D01*
X103462458Y-67775128D01*
X103462458Y-67775129D01*
X103487446Y-67830651D01*
X103490036Y-67836903D01*
X103511612Y-67893797D01*
X103511617Y-67893805D01*
X103512278Y-67894763D01*
X103532189Y-67930064D01*
X103532672Y-67931138D01*
X103532673Y-67931139D01*
X103532674Y-67931141D01*
X103556626Y-67961713D01*
X103570208Y-67979050D01*
X103574218Y-67984499D01*
X103608800Y-68034600D01*
X103608801Y-68034601D01*
X103654364Y-68074966D01*
X103659291Y-68079604D01*
X105402394Y-69822707D01*
X105407032Y-69827634D01*
X105447399Y-69873199D01*
X105497503Y-69907783D01*
X105502943Y-69911786D01*
X105550859Y-69949326D01*
X105551490Y-69949610D01*
X105551916Y-69949802D01*
X105587240Y-69969724D01*
X105588196Y-69970384D01*
X105588197Y-69970384D01*
X105588198Y-69970385D01*
X105627742Y-69985382D01*
X105645111Y-69991969D01*
X105651349Y-69994553D01*
X105706870Y-70019541D01*
X105708018Y-70019751D01*
X105747077Y-70030640D01*
X105747389Y-70030758D01*
X105748164Y-70031052D01*
X105808584Y-70038388D01*
X105815273Y-70039406D01*
X105875151Y-70050380D01*
X105935933Y-70046703D01*
X105942672Y-70046500D01*
X106518303Y-70046500D01*
X106609412Y-70065866D01*
X106684767Y-70120615D01*
X106702201Y-70144109D01*
X106708526Y-70152183D01*
X106708528Y-70152185D01*
X106828815Y-70272472D01*
X106974394Y-70360478D01*
X107136804Y-70411086D01*
X107207384Y-70417500D01*
X107207388Y-70417500D01*
X108570611Y-70417500D01*
X108570616Y-70417500D01*
X108641196Y-70411086D01*
X108803606Y-70360478D01*
X108949185Y-70272472D01*
X109069472Y-70152185D01*
X109157478Y-70006606D01*
X109208086Y-69844196D01*
X109214500Y-69773616D01*
X109214500Y-68910384D01*
X109208086Y-68839804D01*
X109157478Y-68677394D01*
X109069472Y-68531815D01*
X108949185Y-68411528D01*
X108803606Y-68323522D01*
X108803605Y-68323521D01*
X108803604Y-68323521D01*
X108641198Y-68272914D01*
X108617669Y-68270776D01*
X108570616Y-68266500D01*
X107207384Y-68266500D01*
X107167052Y-68270165D01*
X107136801Y-68272914D01*
X106974395Y-68323521D01*
X106828813Y-68411529D01*
X106708526Y-68531816D01*
X106700174Y-68542478D01*
X106698759Y-68541370D01*
X106646288Y-68597336D01*
X106560451Y-68633499D01*
X106518303Y-68637500D01*
X106302597Y-68637500D01*
X106211488Y-68618134D01*
X106144205Y-68571892D01*
X104910108Y-67337795D01*
X104859378Y-67259677D01*
X104844500Y-67179403D01*
X104844500Y-50247597D01*
X104863866Y-50156488D01*
X104918615Y-50081133D01*
X104999280Y-50034560D01*
X105091914Y-50024824D01*
X105180500Y-50053607D01*
X105226892Y-50089205D01*
X105957394Y-50819707D01*
X105962032Y-50824634D01*
X106002399Y-50870199D01*
X106002405Y-50870203D01*
X106002406Y-50870204D01*
X106052506Y-50904785D01*
X106057936Y-50908780D01*
X106105859Y-50946325D01*
X106105861Y-50946326D01*
X106106916Y-50946801D01*
X106142234Y-50966720D01*
X106143192Y-50967381D01*
X106143198Y-50967385D01*
X106200142Y-50988980D01*
X106206350Y-50991552D01*
X106240887Y-51007096D01*
X106261867Y-51016539D01*
X106261868Y-51016539D01*
X106261870Y-51016540D01*
X106263017Y-51016750D01*
X106302073Y-51027638D01*
X106303164Y-51028052D01*
X106303162Y-51028052D01*
X106363584Y-51035388D01*
X106370276Y-51036406D01*
X106430151Y-51047379D01*
X106490916Y-51043703D01*
X106497656Y-51043500D01*
X106858559Y-51043500D01*
X106949668Y-51062866D01*
X107016951Y-51109108D01*
X107064815Y-51156972D01*
X107076383Y-51163965D01*
X107144334Y-51227671D01*
X107180498Y-51313508D01*
X107184500Y-51355660D01*
X107184500Y-65293227D01*
X107165134Y-65384336D01*
X107110385Y-65459691D01*
X107029720Y-65506264D01*
X107027143Y-65507084D01*
X106974395Y-65523521D01*
X106828813Y-65611529D01*
X106708529Y-65731813D01*
X106620521Y-65877395D01*
X106569914Y-66039801D01*
X106569914Y-66039804D01*
X106566004Y-66082836D01*
X106563500Y-66110388D01*
X106563500Y-66973611D01*
X106569914Y-67044198D01*
X106620521Y-67206604D01*
X106620522Y-67206606D01*
X106708528Y-67352185D01*
X106828815Y-67472472D01*
X106974394Y-67560478D01*
X107136804Y-67611086D01*
X107207384Y-67617500D01*
X107207388Y-67617500D01*
X108570611Y-67617500D01*
X108570616Y-67617500D01*
X108641196Y-67611086D01*
X108803606Y-67560478D01*
X108949185Y-67472472D01*
X109069472Y-67352185D01*
X109157478Y-67206606D01*
X109208086Y-67044196D01*
X109214500Y-66973616D01*
X109214500Y-66110384D01*
X109208086Y-66039804D01*
X109157478Y-65877394D01*
X109069472Y-65731815D01*
X108949185Y-65611528D01*
X108803606Y-65523522D01*
X108803605Y-65523521D01*
X108803604Y-65523521D01*
X108750857Y-65507084D01*
X108669635Y-65461489D01*
X108613981Y-65386800D01*
X108593516Y-65295931D01*
X108593500Y-65293227D01*
X108593500Y-51429412D01*
X108612866Y-51338303D01*
X108667615Y-51262948D01*
X108701611Y-51237720D01*
X108835185Y-51156972D01*
X108955472Y-51036685D01*
X109043478Y-50891106D01*
X109094086Y-50728696D01*
X109100500Y-50658116D01*
X109100500Y-50019884D01*
X109094086Y-49949304D01*
X109043478Y-49786894D01*
X108955472Y-49641315D01*
X108898695Y-49584538D01*
X108847965Y-49506420D01*
X108833394Y-49414423D01*
X108857502Y-49324452D01*
X108898695Y-49267754D01*
X108955074Y-49211374D01*
X109043014Y-49065906D01*
X109043018Y-49065898D01*
X109093590Y-48903608D01*
X109099999Y-48833072D01*
X109100000Y-48833070D01*
X109100000Y-48739000D01*
X106800001Y-48739000D01*
X106800001Y-48833082D01*
X106806407Y-48903599D01*
X106806409Y-48903608D01*
X106856981Y-49065896D01*
X106856984Y-49065904D01*
X106912633Y-49157957D01*
X106943194Y-49245944D01*
X106935326Y-49338756D01*
X106890388Y-49420343D01*
X106816150Y-49476599D01*
X106725450Y-49497796D01*
X106633969Y-49480269D01*
X106562546Y-49432233D01*
X105818108Y-48687795D01*
X105767378Y-48609677D01*
X105752500Y-48529403D01*
X105752500Y-48289000D01*
X106800000Y-48289000D01*
X107725000Y-48289000D01*
X107725000Y-47551500D01*
X108175000Y-47551500D01*
X108175000Y-48289000D01*
X109099999Y-48289000D01*
X109099999Y-48194933D01*
X109099998Y-48194917D01*
X109093592Y-48124400D01*
X109093590Y-48124391D01*
X109043018Y-47962103D01*
X109043014Y-47962093D01*
X108955074Y-47816625D01*
X108834874Y-47696425D01*
X108689406Y-47608485D01*
X108689398Y-47608481D01*
X108527107Y-47557909D01*
X108527110Y-47557909D01*
X108456572Y-47551500D01*
X108175000Y-47551500D01*
X107725000Y-47551500D01*
X107443433Y-47551500D01*
X107443417Y-47551501D01*
X107372900Y-47557907D01*
X107372891Y-47557909D01*
X107210603Y-47608481D01*
X107210593Y-47608485D01*
X107065125Y-47696425D01*
X106944925Y-47816625D01*
X106856985Y-47962093D01*
X106856981Y-47962101D01*
X106806409Y-48124391D01*
X106800000Y-48194927D01*
X106800000Y-48289000D01*
X105752500Y-48289000D01*
X105752500Y-34909596D01*
X105771866Y-34818487D01*
X105818106Y-34751206D01*
X106216556Y-34352755D01*
X106294670Y-34302028D01*
X106386668Y-34287457D01*
X106476639Y-34311564D01*
X106497118Y-34324630D01*
X106497220Y-34324462D01*
X106508813Y-34331470D01*
X106508815Y-34331472D01*
X106654394Y-34419478D01*
X106816804Y-34470086D01*
X106887384Y-34476500D01*
X106887388Y-34476500D01*
X108250611Y-34476500D01*
X108250616Y-34476500D01*
X108321196Y-34470086D01*
X108483606Y-34419478D01*
X108629185Y-34331472D01*
X108749472Y-34211185D01*
X108837478Y-34065606D01*
X108888086Y-33903196D01*
X108894500Y-33832616D01*
X108894500Y-32969384D01*
X108888086Y-32898804D01*
X108837478Y-32736394D01*
X108749472Y-32590815D01*
X108629185Y-32470528D01*
X108483606Y-32382522D01*
X108483605Y-32382521D01*
X108483604Y-32382521D01*
X108321198Y-32331914D01*
X108297669Y-32329776D01*
X108250616Y-32325500D01*
X106887384Y-32325500D01*
X106847052Y-32329165D01*
X106816801Y-32331914D01*
X106654395Y-32382521D01*
X106508813Y-32470529D01*
X106388526Y-32590816D01*
X106380174Y-32601478D01*
X106378742Y-32600356D01*
X106326331Y-32656246D01*
X106240489Y-32692400D01*
X106184841Y-32695988D01*
X106129152Y-32692619D01*
X106129150Y-32692620D01*
X106069265Y-32703594D01*
X106062590Y-32704610D01*
X106026050Y-32709047D01*
X106002162Y-32711948D01*
X106002159Y-32711949D01*
X106001057Y-32712367D01*
X105962029Y-32723247D01*
X105960873Y-32723458D01*
X105960867Y-32723460D01*
X105905371Y-32748437D01*
X105899122Y-32751025D01*
X105842200Y-32772613D01*
X105842192Y-32772617D01*
X105841219Y-32773290D01*
X105805933Y-32793191D01*
X105804863Y-32793672D01*
X105804858Y-32793675D01*
X105756945Y-32831211D01*
X105751497Y-32835220D01*
X105701397Y-32869802D01*
X105701396Y-32869803D01*
X105661033Y-32915363D01*
X105656396Y-32920289D01*
X105226892Y-33349794D01*
X105148775Y-33400524D01*
X105056777Y-33415095D01*
X104966806Y-33390988D01*
X104894419Y-33332370D01*
X104852133Y-33249378D01*
X104844500Y-33191402D01*
X104844500Y-31393655D01*
X104844703Y-31386916D01*
X104848379Y-31326151D01*
X104837406Y-31266276D01*
X104836388Y-31259584D01*
X104829052Y-31199164D01*
X104828638Y-31198072D01*
X104817749Y-31159013D01*
X104817539Y-31157867D01*
X104808096Y-31136887D01*
X104792552Y-31102350D01*
X104789980Y-31096142D01*
X104768385Y-31039198D01*
X104767720Y-31038234D01*
X104747801Y-31002916D01*
X104747326Y-31001861D01*
X104747325Y-31001859D01*
X104709780Y-30953936D01*
X104705785Y-30948506D01*
X104671204Y-30898406D01*
X104671203Y-30898405D01*
X104671199Y-30898399D01*
X104625634Y-30858032D01*
X104620707Y-30853394D01*
X103048205Y-29280892D01*
X102997475Y-29202774D01*
X102982904Y-29110777D01*
X103007012Y-29020806D01*
X103065629Y-28948419D01*
X103148622Y-28906133D01*
X103206597Y-28898500D01*
X106168403Y-28898500D01*
X106259512Y-28917866D01*
X106326795Y-28964108D01*
X106633469Y-29270782D01*
X106684199Y-29348900D01*
X106698770Y-29440897D01*
X106674662Y-29530868D01*
X106616045Y-29603255D01*
X106590962Y-29620868D01*
X106508814Y-29670528D01*
X106388529Y-29790813D01*
X106300521Y-29936395D01*
X106249914Y-30098801D01*
X106249914Y-30098804D01*
X106243500Y-30169384D01*
X106243500Y-31032616D01*
X106246834Y-31069299D01*
X106249914Y-31103198D01*
X106299695Y-31262953D01*
X106300522Y-31265606D01*
X106388528Y-31411185D01*
X106508815Y-31531472D01*
X106654394Y-31619478D01*
X106816804Y-31670086D01*
X106887384Y-31676500D01*
X106887388Y-31676500D01*
X108250611Y-31676500D01*
X108250616Y-31676500D01*
X108321196Y-31670086D01*
X108483606Y-31619478D01*
X108629185Y-31531472D01*
X108749472Y-31411185D01*
X108837478Y-31265606D01*
X108888086Y-31103196D01*
X108894500Y-31032616D01*
X108894500Y-30169384D01*
X108888086Y-30098804D01*
X108837478Y-29936394D01*
X108749472Y-29790815D01*
X108629185Y-29670528D01*
X108483606Y-29582522D01*
X108483605Y-29582521D01*
X108483604Y-29582521D01*
X108430857Y-29566084D01*
X108349635Y-29520489D01*
X108293981Y-29445800D01*
X108273516Y-29354931D01*
X108273500Y-29352227D01*
X108273500Y-29234667D01*
X108273703Y-29227926D01*
X108277380Y-29167151D01*
X108266406Y-29107273D01*
X108265388Y-29100584D01*
X108258052Y-29040164D01*
X108257640Y-29039077D01*
X108246751Y-29000017D01*
X108246541Y-28998870D01*
X108221553Y-28943349D01*
X108218969Y-28937111D01*
X108197384Y-28880196D01*
X108196724Y-28879240D01*
X108176802Y-28843916D01*
X108176326Y-28842860D01*
X108176326Y-28842859D01*
X108138786Y-28794943D01*
X108134783Y-28789503D01*
X108100199Y-28739399D01*
X108054634Y-28699032D01*
X108049707Y-28694394D01*
X107068604Y-27713291D01*
X107063966Y-27708364D01*
X107023601Y-27662801D01*
X107023600Y-27662800D01*
X106973499Y-27628218D01*
X106968050Y-27624208D01*
X106950713Y-27610626D01*
X106920141Y-27586674D01*
X106920139Y-27586673D01*
X106920138Y-27586672D01*
X106919064Y-27586189D01*
X106883763Y-27566278D01*
X106882805Y-27565617D01*
X106882797Y-27565612D01*
X106836198Y-27547940D01*
X106825896Y-27544033D01*
X106819651Y-27541446D01*
X106764129Y-27516458D01*
X106762959Y-27516244D01*
X106723931Y-27505363D01*
X106722843Y-27504950D01*
X106722838Y-27504948D01*
X106722836Y-27504948D01*
X106722832Y-27504947D01*
X106722830Y-27504947D01*
X106662411Y-27497609D01*
X106655726Y-27496592D01*
X106608760Y-27487986D01*
X106595849Y-27485620D01*
X106595848Y-27485620D01*
X106590743Y-27485928D01*
X106535074Y-27489296D01*
X106528332Y-27489500D01*
X91450567Y-27489500D01*
X91443826Y-27489296D01*
X91383045Y-27485620D01*
X91323165Y-27496592D01*
X91316480Y-27497610D01*
X91256060Y-27504947D01*
X91256059Y-27504947D01*
X91254955Y-27505366D01*
X91215925Y-27516246D01*
X91214768Y-27516457D01*
X91214760Y-27516460D01*
X91159249Y-27541443D01*
X91153000Y-27544031D01*
X91096093Y-27565614D01*
X91096089Y-27565616D01*
X91095113Y-27566290D01*
X91059838Y-27586184D01*
X91058761Y-27586668D01*
X91058753Y-27586673D01*
X91010834Y-27624215D01*
X91005385Y-27628224D01*
X90955296Y-27662798D01*
X90914934Y-27708355D01*
X90910297Y-27713280D01*
X86447838Y-32175740D01*
X86369720Y-32226470D01*
X86277723Y-32241041D01*
X86187752Y-32216933D01*
X86131054Y-32175740D01*
X81541604Y-27586291D01*
X81536966Y-27581364D01*
X81523015Y-27565617D01*
X81496601Y-27535801D01*
X81468579Y-27516459D01*
X81446499Y-27501218D01*
X81441050Y-27497208D01*
X81393142Y-27459675D01*
X81393141Y-27459674D01*
X81393139Y-27459673D01*
X81393138Y-27459672D01*
X81392064Y-27459189D01*
X81356763Y-27439278D01*
X81355805Y-27438617D01*
X81355797Y-27438612D01*
X81309198Y-27420940D01*
X81298896Y-27417033D01*
X81292651Y-27414446D01*
X81237129Y-27389458D01*
X81235959Y-27389244D01*
X81196931Y-27378363D01*
X81195843Y-27377950D01*
X81195838Y-27377948D01*
X81195836Y-27377948D01*
X81195832Y-27377947D01*
X81195830Y-27377947D01*
X81135411Y-27370609D01*
X81128726Y-27369592D01*
X81081760Y-27360986D01*
X81068849Y-27358620D01*
X81068848Y-27358620D01*
X81063743Y-27358928D01*
X81008074Y-27362296D01*
X81001332Y-27362500D01*
X41553656Y-27362500D01*
X41546917Y-27362296D01*
X41486151Y-27358621D01*
X41426287Y-27369590D01*
X41419602Y-27370608D01*
X41359164Y-27377947D01*
X41358055Y-27378368D01*
X41319023Y-27389248D01*
X41317876Y-27389458D01*
X41317866Y-27389461D01*
X41262371Y-27414437D01*
X41256122Y-27417025D01*
X41199200Y-27438613D01*
X41199192Y-27438617D01*
X41198219Y-27439290D01*
X41162933Y-27459191D01*
X41161863Y-27459672D01*
X41161858Y-27459675D01*
X41113945Y-27497211D01*
X41108497Y-27501220D01*
X41058397Y-27535802D01*
X41058396Y-27535803D01*
X41018033Y-27581363D01*
X41013396Y-27586289D01*
X39778289Y-28821396D01*
X39773363Y-28826033D01*
X39727803Y-28866396D01*
X39727799Y-28866400D01*
X39693216Y-28916502D01*
X39689208Y-28921949D01*
X39651673Y-28969859D01*
X39651668Y-28969867D01*
X39651184Y-28970944D01*
X39631290Y-29006219D01*
X39630616Y-29007195D01*
X39630614Y-29007199D01*
X39609031Y-29064106D01*
X39606443Y-29070355D01*
X39581460Y-29125866D01*
X39581457Y-29125874D01*
X39581246Y-29127031D01*
X39570366Y-29166061D01*
X39569947Y-29167165D01*
X39569947Y-29167166D01*
X39562610Y-29227586D01*
X39561592Y-29234271D01*
X39550620Y-29294151D01*
X39554296Y-29354925D01*
X39554500Y-29361668D01*
X39554500Y-30480790D01*
X39535134Y-30571899D01*
X39480385Y-30647254D01*
X39399720Y-30693827D01*
X39351417Y-30703810D01*
X39333393Y-30705501D01*
X39324298Y-30706354D01*
X39324297Y-30706354D01*
X39196121Y-30751205D01*
X39086850Y-30831850D01*
X39006205Y-30941121D01*
X38961354Y-31069297D01*
X38961354Y-31069299D01*
X38961354Y-31069301D01*
X38958500Y-31099734D01*
X38958500Y-32908266D01*
X38959628Y-32920289D01*
X38961354Y-32938700D01*
X38961354Y-32938702D01*
X39006205Y-33066878D01*
X39006206Y-33066879D01*
X39006207Y-33066882D01*
X39086850Y-33176150D01*
X39196118Y-33256793D01*
X39226444Y-33267404D01*
X39238099Y-33271483D01*
X39317699Y-33319854D01*
X39370743Y-33396419D01*
X39388060Y-33487940D01*
X39366654Y-33578591D01*
X39322509Y-33641304D01*
X39258953Y-33704860D01*
X39128431Y-33891266D01*
X39032261Y-34097503D01*
X39032259Y-34097509D01*
X38973366Y-34317300D01*
X38973365Y-34317304D01*
X38953532Y-34544000D01*
X38973365Y-34770695D01*
X38973366Y-34770699D01*
X39032259Y-34990490D01*
X39032261Y-34990496D01*
X39128431Y-35196733D01*
X39231562Y-35344020D01*
X39258953Y-35383139D01*
X39419861Y-35544047D01*
X39606266Y-35674568D01*
X39812504Y-35770739D01*
X39939178Y-35804681D01*
X40032300Y-35829633D01*
X40032304Y-35829634D01*
X40032308Y-35829635D01*
X40259000Y-35849468D01*
X40485692Y-35829635D01*
X40705496Y-35770739D01*
X40911734Y-35674568D01*
X41098139Y-35544047D01*
X41259047Y-35383139D01*
X41286438Y-35344019D01*
X41354559Y-35280495D01*
X41442629Y-35250170D01*
X41469929Y-35248500D01*
X42901332Y-35248500D01*
X42908074Y-35248703D01*
X42968849Y-35252380D01*
X43028743Y-35241403D01*
X43035410Y-35240388D01*
X43095836Y-35233052D01*
X43096912Y-35232644D01*
X43135986Y-35221750D01*
X43137130Y-35221541D01*
X43170443Y-35206547D01*
X43192657Y-35196550D01*
X43198886Y-35193969D01*
X43255802Y-35172385D01*
X43256746Y-35171733D01*
X43292088Y-35151799D01*
X43293141Y-35151326D01*
X43341058Y-35113783D01*
X43346475Y-35109797D01*
X43396601Y-35075199D01*
X43436990Y-35029607D01*
X43441581Y-35024730D01*
X44295730Y-34170581D01*
X44300607Y-34165990D01*
X44346199Y-34125601D01*
X44380797Y-34075475D01*
X44384783Y-34070058D01*
X44422326Y-34022141D01*
X44422799Y-34021088D01*
X44442735Y-33985743D01*
X44443385Y-33984802D01*
X44464969Y-33927886D01*
X44467550Y-33921657D01*
X44481228Y-33891266D01*
X44492541Y-33866130D01*
X44492750Y-33864986D01*
X44503644Y-33825912D01*
X44503700Y-33825763D01*
X44504052Y-33824836D01*
X44511388Y-33764410D01*
X44512403Y-33757743D01*
X44523380Y-33697849D01*
X44519703Y-33637067D01*
X44519500Y-33630325D01*
X44519500Y-30483597D01*
X44538866Y-30392488D01*
X44585108Y-30325205D01*
X45165205Y-29745108D01*
X45243323Y-29694378D01*
X45323597Y-29679500D01*
X80265297Y-29679500D01*
X80356406Y-29698866D01*
X80423689Y-29745108D01*
X84154892Y-33476311D01*
X84205622Y-33554429D01*
X84220500Y-33634703D01*
X84220500Y-43722403D01*
X84201134Y-43813512D01*
X84154892Y-43880795D01*
X83898795Y-44136892D01*
X83820677Y-44187622D01*
X83740403Y-44202500D01*
X83255047Y-44202500D01*
X83163938Y-44183134D01*
X83088583Y-44128385D01*
X83073634Y-44106978D01*
X83072760Y-44107624D01*
X83062793Y-44094120D01*
X83062793Y-44094118D01*
X82982150Y-43984850D01*
X82872882Y-43904207D01*
X82872879Y-43904206D01*
X82872878Y-43904205D01*
X82744701Y-43859354D01*
X82736003Y-43858538D01*
X82714266Y-43856500D01*
X80605734Y-43856500D01*
X80585445Y-43858402D01*
X80575299Y-43859354D01*
X80575297Y-43859354D01*
X80447121Y-43904205D01*
X80447118Y-43904206D01*
X80447118Y-43904207D01*
X80337850Y-43984850D01*
X80260035Y-44090287D01*
X80257205Y-44094121D01*
X80212354Y-44222297D01*
X80212354Y-44222299D01*
X80212354Y-44222301D01*
X80209774Y-44249821D01*
X80209500Y-44252738D01*
X80209500Y-45561261D01*
X80212354Y-45591700D01*
X80212354Y-45591702D01*
X80257206Y-45719881D01*
X80297137Y-45773986D01*
X80335657Y-45858792D01*
X80336353Y-45951934D01*
X80299105Y-46037306D01*
X80297137Y-46040014D01*
X80257206Y-46094118D01*
X80212354Y-46222297D01*
X80212354Y-46222299D01*
X80209500Y-46252738D01*
X80209500Y-47561261D01*
X80212354Y-47591700D01*
X80212354Y-47591702D01*
X80257206Y-47719881D01*
X80297137Y-47773986D01*
X80335657Y-47858792D01*
X80336353Y-47951934D01*
X80299105Y-48037306D01*
X80297137Y-48040014D01*
X80257206Y-48094118D01*
X80212354Y-48222297D01*
X80212354Y-48222299D01*
X80209500Y-48252738D01*
X80209500Y-49561261D01*
X80212354Y-49591700D01*
X80212354Y-49591702D01*
X80257206Y-49719881D01*
X80297137Y-49773986D01*
X80335657Y-49858792D01*
X80336353Y-49951934D01*
X80299105Y-50037306D01*
X80297137Y-50040014D01*
X80257206Y-50094118D01*
X80212354Y-50222297D01*
X80212354Y-50222299D01*
X80209500Y-50252738D01*
X80209500Y-51561261D01*
X80212354Y-51591700D01*
X80212354Y-51591702D01*
X80257206Y-51719881D01*
X80297137Y-51773986D01*
X80335657Y-51858792D01*
X80336353Y-51951934D01*
X80299105Y-52037306D01*
X80297137Y-52040014D01*
X80257206Y-52094118D01*
X80212354Y-52222297D01*
X80212354Y-52222299D01*
X80209500Y-52252738D01*
X80209500Y-53561261D01*
X80212354Y-53591700D01*
X80212354Y-53591702D01*
X80257206Y-53719881D01*
X80297137Y-53773986D01*
X80335657Y-53858792D01*
X80336353Y-53951934D01*
X80299105Y-54037306D01*
X80297137Y-54040014D01*
X80257206Y-54094118D01*
X80212354Y-54222297D01*
X80212354Y-54222299D01*
X80212046Y-54225580D01*
X80209500Y-54252734D01*
X80209500Y-55561266D01*
X80211878Y-55586626D01*
X80212354Y-55591700D01*
X80212354Y-55591702D01*
X80257206Y-55719881D01*
X80297137Y-55773986D01*
X80335657Y-55858792D01*
X80336353Y-55951934D01*
X80299105Y-56037306D01*
X80297137Y-56040014D01*
X80257206Y-56094118D01*
X80212354Y-56222297D01*
X80212354Y-56222299D01*
X80209500Y-56252738D01*
X80209500Y-57561261D01*
X80212354Y-57591700D01*
X80212354Y-57591702D01*
X80257205Y-57719879D01*
X80257206Y-57719881D01*
X80257207Y-57719882D01*
X80297137Y-57773986D01*
X80297447Y-57774405D01*
X80335967Y-57859212D01*
X80336663Y-57952353D01*
X80299415Y-58037726D01*
X80297447Y-58040434D01*
X80257657Y-58094348D01*
X80257652Y-58094357D01*
X80212851Y-58222391D01*
X80212851Y-58222392D01*
X80210000Y-58252801D01*
X80210000Y-58682000D01*
X83109999Y-58682000D01*
X83109999Y-58252805D01*
X83109998Y-58252784D01*
X83107149Y-58222395D01*
X83062348Y-58094359D01*
X83062342Y-58094348D01*
X83022553Y-58040435D01*
X82984032Y-57955629D01*
X82983336Y-57862488D01*
X83020584Y-57777115D01*
X83022481Y-57774502D01*
X83062793Y-57719882D01*
X83062793Y-57719880D01*
X83072761Y-57706375D01*
X83075647Y-57708505D01*
X83116683Y-57659343D01*
X83200295Y-57618295D01*
X83255047Y-57611500D01*
X90515332Y-57611500D01*
X90522074Y-57611703D01*
X90582849Y-57615380D01*
X90642743Y-57604403D01*
X90649410Y-57603388D01*
X90709836Y-57596052D01*
X90710912Y-57595644D01*
X90749986Y-57584750D01*
X90751130Y-57584541D01*
X90784443Y-57569547D01*
X90806657Y-57559550D01*
X90812886Y-57556969D01*
X90869802Y-57535385D01*
X90870746Y-57534733D01*
X90906088Y-57514799D01*
X90907141Y-57514326D01*
X90955058Y-57476783D01*
X90960475Y-57472797D01*
X91010601Y-57438199D01*
X91050990Y-57392607D01*
X91055581Y-57387730D01*
X92555730Y-55887581D01*
X92560607Y-55882990D01*
X92606199Y-55842601D01*
X92640797Y-55792475D01*
X92644783Y-55787058D01*
X92682326Y-55739141D01*
X92682799Y-55738088D01*
X92702735Y-55702743D01*
X92703385Y-55701802D01*
X92724969Y-55644886D01*
X92727550Y-55638657D01*
X92748683Y-55591702D01*
X92752541Y-55583130D01*
X92752750Y-55581986D01*
X92763644Y-55542912D01*
X92763700Y-55542763D01*
X92764052Y-55541836D01*
X92771388Y-55481410D01*
X92772403Y-55474743D01*
X92783380Y-55414849D01*
X92779703Y-55354067D01*
X92779500Y-55347325D01*
X92779500Y-55202536D01*
X92798866Y-55111427D01*
X92853615Y-55036072D01*
X92887610Y-55010844D01*
X92960185Y-54966972D01*
X93008049Y-54919108D01*
X93086167Y-54868378D01*
X93166441Y-54853500D01*
X94123926Y-54853500D01*
X94215035Y-54872866D01*
X94290390Y-54927615D01*
X94302409Y-54942149D01*
X94318376Y-54963205D01*
X94343787Y-54996713D01*
X94461847Y-55086242D01*
X94599684Y-55140598D01*
X94686305Y-55151000D01*
X95183694Y-55150999D01*
X95183696Y-55150998D01*
X95183707Y-55150998D01*
X95255044Y-55142431D01*
X95270316Y-55140598D01*
X95408153Y-55086242D01*
X95526213Y-54996713D01*
X95615742Y-54878653D01*
X95670098Y-54740816D01*
X95670097Y-54740816D01*
X95675367Y-54727455D01*
X95678047Y-54728512D01*
X95709186Y-54665182D01*
X95780730Y-54605537D01*
X95870347Y-54580149D01*
X95962543Y-54593406D01*
X96041377Y-54643017D01*
X96093216Y-54720403D01*
X96097084Y-54732310D01*
X96154698Y-54878405D01*
X96244142Y-54996356D01*
X96244143Y-54996357D01*
X96362094Y-55085801D01*
X96499803Y-55140107D01*
X96499806Y-55140108D01*
X96586336Y-55150499D01*
X96586345Y-55150500D01*
X96610000Y-55150500D01*
X96610000Y-54320500D01*
X97060000Y-54320500D01*
X97060000Y-55150500D01*
X97083655Y-55150500D01*
X97083663Y-55150499D01*
X97170193Y-55140108D01*
X97170196Y-55140107D01*
X97307905Y-55085801D01*
X97425856Y-54996357D01*
X97425857Y-54996356D01*
X97515301Y-54878405D01*
X97569607Y-54740696D01*
X97569608Y-54740693D01*
X97579999Y-54654163D01*
X97580000Y-54654155D01*
X97580000Y-54320500D01*
X97060000Y-54320500D01*
X96610000Y-54320500D01*
X96610000Y-53040500D01*
X97060000Y-53040500D01*
X97060000Y-53870500D01*
X97580000Y-53870500D01*
X97580000Y-53536845D01*
X97579999Y-53536836D01*
X97569608Y-53450306D01*
X97569607Y-53450303D01*
X97515301Y-53312594D01*
X97425857Y-53194643D01*
X97425856Y-53194642D01*
X97307905Y-53105198D01*
X97170196Y-53050892D01*
X97170193Y-53050891D01*
X97083663Y-53040500D01*
X97060000Y-53040500D01*
X96610000Y-53040500D01*
X96586336Y-53040500D01*
X96499806Y-53050891D01*
X96499803Y-53050892D01*
X96362094Y-53105198D01*
X96244143Y-53194642D01*
X96244142Y-53194643D01*
X96154698Y-53312594D01*
X96095123Y-53463665D01*
X96092419Y-53462598D01*
X96061326Y-53525828D01*
X95989780Y-53585468D01*
X95900161Y-53610852D01*
X95807966Y-53597590D01*
X95729135Y-53547975D01*
X95677300Y-53470586D01*
X95673352Y-53458436D01*
X95667856Y-53444500D01*
X95620271Y-53323832D01*
X95615743Y-53312349D01*
X95615742Y-53312348D01*
X95615742Y-53312347D01*
X95526213Y-53194287D01*
X95408153Y-53104758D01*
X95408151Y-53104757D01*
X95270316Y-53050402D01*
X95270312Y-53050401D01*
X95199953Y-53041952D01*
X95183695Y-53040000D01*
X95183694Y-53040000D01*
X94686307Y-53040000D01*
X94686292Y-53040001D01*
X94599684Y-53050401D01*
X94599683Y-53050401D01*
X94461849Y-53104756D01*
X94343787Y-53194287D01*
X94254255Y-53312350D01*
X94246748Y-53325703D01*
X94243883Y-53324092D01*
X94206642Y-53380319D01*
X94128069Y-53430340D01*
X94049690Y-53444500D01*
X93197733Y-53444500D01*
X93106624Y-53425134D01*
X93031269Y-53370385D01*
X92984696Y-53289720D01*
X92974960Y-53197086D01*
X93003743Y-53108500D01*
X93039341Y-53062108D01*
X93080074Y-53021374D01*
X93168014Y-52875906D01*
X93168018Y-52875898D01*
X93218590Y-52713608D01*
X93224999Y-52643072D01*
X93225000Y-52643070D01*
X93225000Y-52549000D01*
X90925001Y-52549000D01*
X90925001Y-52643082D01*
X90931407Y-52713599D01*
X90931409Y-52713608D01*
X90981981Y-52875896D01*
X90981985Y-52875906D01*
X91069925Y-53021374D01*
X91126305Y-53077754D01*
X91177035Y-53155872D01*
X91191606Y-53247869D01*
X91167498Y-53337840D01*
X91126305Y-53394538D01*
X91069529Y-53451313D01*
X90981521Y-53596895D01*
X90930914Y-53759301D01*
X90930914Y-53759304D01*
X90924500Y-53829884D01*
X90924500Y-54468116D01*
X90927961Y-54506199D01*
X90930914Y-54538698D01*
X90980824Y-54698866D01*
X90981522Y-54701106D01*
X91049853Y-54814139D01*
X91069529Y-54846686D01*
X91178373Y-54955530D01*
X91229103Y-55033648D01*
X91243674Y-55125645D01*
X91219566Y-55215616D01*
X91178373Y-55272314D01*
X90313795Y-56136892D01*
X90235677Y-56187622D01*
X90155403Y-56202500D01*
X83255047Y-56202500D01*
X83163938Y-56183134D01*
X83088583Y-56128385D01*
X83073635Y-56106979D01*
X83072761Y-56107625D01*
X83062793Y-56094119D01*
X83062793Y-56094118D01*
X83022861Y-56040012D01*
X82984343Y-55955210D01*
X82983646Y-55862069D01*
X83020893Y-55776696D01*
X83022792Y-55774081D01*
X83062793Y-55719882D01*
X83107646Y-55591699D01*
X83110500Y-55561266D01*
X83110500Y-54252734D01*
X83107646Y-54222301D01*
X83107329Y-54221396D01*
X83062794Y-54094120D01*
X83062793Y-54094118D01*
X83022861Y-54040012D01*
X82984343Y-53955210D01*
X82983646Y-53862069D01*
X83020893Y-53776696D01*
X83022792Y-53774081D01*
X83062793Y-53719882D01*
X83062793Y-53719880D01*
X83072761Y-53706375D01*
X83075647Y-53708505D01*
X83116683Y-53659343D01*
X83200295Y-53618295D01*
X83255047Y-53611500D01*
X84990332Y-53611500D01*
X84997074Y-53611703D01*
X85057849Y-53615380D01*
X85117743Y-53604403D01*
X85124410Y-53603388D01*
X85184836Y-53596052D01*
X85185912Y-53595644D01*
X85224986Y-53584750D01*
X85226130Y-53584541D01*
X85259443Y-53569547D01*
X85281657Y-53559550D01*
X85287886Y-53556969D01*
X85344802Y-53535385D01*
X85345746Y-53534733D01*
X85381088Y-53514799D01*
X85382141Y-53514326D01*
X85430058Y-53476783D01*
X85435475Y-53472797D01*
X85485601Y-53438199D01*
X85525990Y-53392607D01*
X85530581Y-53387730D01*
X86819311Y-52099000D01*
X90925000Y-52099000D01*
X91850000Y-52099000D01*
X91850000Y-51361500D01*
X92300000Y-51361500D01*
X92300000Y-52099000D01*
X93224999Y-52099000D01*
X93224999Y-52004933D01*
X93224998Y-52004917D01*
X93218592Y-51934400D01*
X93218590Y-51934391D01*
X93168018Y-51772103D01*
X93168014Y-51772093D01*
X93080074Y-51626625D01*
X92959874Y-51506425D01*
X92814406Y-51418485D01*
X92814398Y-51418481D01*
X92652107Y-51367909D01*
X92652110Y-51367909D01*
X92581572Y-51361500D01*
X92300000Y-51361500D01*
X91850000Y-51361500D01*
X91568433Y-51361500D01*
X91568417Y-51361501D01*
X91497900Y-51367907D01*
X91497891Y-51367909D01*
X91335603Y-51418481D01*
X91335593Y-51418485D01*
X91190125Y-51506425D01*
X91069925Y-51626625D01*
X90981985Y-51772093D01*
X90981981Y-51772101D01*
X90931409Y-51934391D01*
X90925000Y-52004927D01*
X90925000Y-52099000D01*
X86819311Y-52099000D01*
X89126739Y-49791573D01*
X89131632Y-49786968D01*
X89177199Y-49746601D01*
X89211795Y-49696477D01*
X89215764Y-49691082D01*
X89253325Y-49643141D01*
X89253798Y-49642090D01*
X89273730Y-49606751D01*
X89274384Y-49605803D01*
X89274383Y-49605803D01*
X89274385Y-49605802D01*
X89295982Y-49548852D01*
X89298547Y-49542659D01*
X89323540Y-49487130D01*
X89323750Y-49485982D01*
X89334639Y-49446925D01*
X89334661Y-49446866D01*
X89335052Y-49445836D01*
X89342388Y-49385413D01*
X89343406Y-49378724D01*
X89343905Y-49376000D01*
X89354379Y-49318850D01*
X89350703Y-49258085D01*
X89350500Y-49251342D01*
X89350500Y-43310597D01*
X89369866Y-43219488D01*
X89416108Y-43152205D01*
X90160203Y-42408110D01*
X90238321Y-42357380D01*
X90318595Y-42342502D01*
X93830614Y-42342502D01*
X93921723Y-42361868D01*
X93971175Y-42395855D01*
X93972041Y-42394683D01*
X93985547Y-42404650D01*
X93985548Y-42404652D01*
X94094816Y-42485295D01*
X94222999Y-42530148D01*
X94253432Y-42533002D01*
X94253442Y-42533002D01*
X95352554Y-42533002D01*
X95352564Y-42533002D01*
X95382997Y-42530148D01*
X95383000Y-42530147D01*
X95527025Y-42479751D01*
X95528357Y-42483558D01*
X95587913Y-42466637D01*
X95680120Y-42479823D01*
X95683576Y-42481361D01*
X95694817Y-42485294D01*
X95694818Y-42485295D01*
X95823001Y-42530148D01*
X95853434Y-42533002D01*
X96075540Y-42533002D01*
X96166649Y-42552368D01*
X96242004Y-42607117D01*
X96288577Y-42687782D01*
X96298561Y-42777910D01*
X96298230Y-42781446D01*
X96298100Y-42782836D01*
X96298100Y-44593166D01*
X96298610Y-44598605D01*
X96287826Y-44691123D01*
X96240344Y-44771257D01*
X96164374Y-44825150D01*
X96075587Y-44843498D01*
X95853505Y-44843498D01*
X95853484Y-44843499D01*
X95823095Y-44846348D01*
X95679209Y-44896696D01*
X95677855Y-44892828D01*
X95618491Y-44909657D01*
X95526292Y-44896416D01*
X95521858Y-44894441D01*
X95382999Y-44845852D01*
X95374301Y-44845036D01*
X95352564Y-44842998D01*
X94253432Y-44842998D01*
X94233143Y-44844900D01*
X94222997Y-44845852D01*
X94222995Y-44845852D01*
X94094819Y-44890703D01*
X94094816Y-44890704D01*
X94094816Y-44890705D01*
X94082475Y-44899813D01*
X93985548Y-44971348D01*
X93904903Y-45080619D01*
X93860052Y-45208795D01*
X93860052Y-45208797D01*
X93857198Y-45239236D01*
X93857198Y-46236759D01*
X93860052Y-46267198D01*
X93860052Y-46267200D01*
X93904903Y-46395376D01*
X93904904Y-46395377D01*
X93904905Y-46395380D01*
X93985548Y-46504648D01*
X94094816Y-46585291D01*
X94094819Y-46585292D01*
X94221581Y-46629648D01*
X94222999Y-46630144D01*
X94253432Y-46632998D01*
X94253442Y-46632998D01*
X95352554Y-46632998D01*
X95352564Y-46632998D01*
X95382997Y-46630144D01*
X95383000Y-46630143D01*
X95527025Y-46579747D01*
X95528315Y-46583436D01*
X95588416Y-46566349D01*
X95679203Y-46579317D01*
X95679209Y-46579300D01*
X95679295Y-46579330D01*
X95680624Y-46579520D01*
X95683516Y-46580807D01*
X95823091Y-46629646D01*
X95823100Y-46629648D01*
X95853488Y-46632497D01*
X96178000Y-46632497D01*
X96178000Y-45962998D01*
X96628000Y-45962998D01*
X96628000Y-46632497D01*
X96952495Y-46632497D01*
X96952515Y-46632496D01*
X96982904Y-46629647D01*
X97110940Y-46584846D01*
X97110948Y-46584842D01*
X97220090Y-46504290D01*
X97220092Y-46504288D01*
X97300644Y-46395146D01*
X97300647Y-46395140D01*
X97345448Y-46267106D01*
X97345448Y-46267105D01*
X97348299Y-46236696D01*
X97348300Y-46236690D01*
X97348300Y-45962998D01*
X96628000Y-45962998D01*
X96178000Y-45962998D01*
X96178000Y-45736998D01*
X96197366Y-45645889D01*
X96252115Y-45570534D01*
X96332780Y-45523961D01*
X96402000Y-45512998D01*
X97348299Y-45512998D01*
X97348299Y-45239303D01*
X97348298Y-45239282D01*
X97344177Y-45195321D01*
X97345871Y-45195162D01*
X97345435Y-45118099D01*
X97382839Y-45032795D01*
X97451706Y-44970079D01*
X97490819Y-44952003D01*
X97507042Y-44946325D01*
X97520282Y-44941693D01*
X97629550Y-44861050D01*
X97710193Y-44751782D01*
X97755046Y-44623599D01*
X97757900Y-44593166D01*
X97757900Y-42782834D01*
X97755046Y-42752401D01*
X97752583Y-42745363D01*
X97710194Y-42624221D01*
X97710193Y-42624218D01*
X97629550Y-42514950D01*
X97520282Y-42434307D01*
X97491298Y-42424165D01*
X97411698Y-42375794D01*
X97358654Y-42299229D01*
X97341337Y-42207709D01*
X97345118Y-42176017D01*
X97345944Y-42167206D01*
X97345946Y-42167201D01*
X97348800Y-42136768D01*
X97348800Y-41139236D01*
X97345946Y-41108803D01*
X97345505Y-41107543D01*
X97301094Y-40980623D01*
X97301093Y-40980620D01*
X97220450Y-40871352D01*
X97111182Y-40790709D01*
X97111179Y-40790708D01*
X97111178Y-40790707D01*
X96983001Y-40745856D01*
X96974303Y-40745040D01*
X96952566Y-40743002D01*
X95853434Y-40743002D01*
X95833145Y-40744904D01*
X95822999Y-40745856D01*
X95809683Y-40748765D01*
X95809356Y-40747271D01*
X95732083Y-40757149D01*
X95642874Y-40730357D01*
X95572275Y-40669598D01*
X95532493Y-40585376D01*
X95526500Y-40533907D01*
X95526500Y-37826441D01*
X95545866Y-37735332D01*
X95600615Y-37659977D01*
X95681280Y-37613404D01*
X95773914Y-37603668D01*
X95862500Y-37632451D01*
X95908892Y-37668049D01*
X95949315Y-37708472D01*
X96094894Y-37796478D01*
X96257304Y-37847086D01*
X96327884Y-37853500D01*
X96327888Y-37853500D01*
X96966111Y-37853500D01*
X96966116Y-37853500D01*
X97036696Y-37847086D01*
X97199106Y-37796478D01*
X97344685Y-37708472D01*
X97464972Y-37588185D01*
X97508842Y-37515613D01*
X97572548Y-37447666D01*
X97658386Y-37411502D01*
X97700536Y-37407500D01*
X99818403Y-37407500D01*
X99909512Y-37426866D01*
X99976795Y-37473108D01*
X100956892Y-38453205D01*
X101007622Y-38531323D01*
X101022500Y-38611597D01*
X101022500Y-51479403D01*
X101003134Y-51570512D01*
X100948385Y-51645867D01*
X100867720Y-51692440D01*
X100775086Y-51702176D01*
X100686500Y-51673393D01*
X100640108Y-51637795D01*
X100107104Y-51104791D01*
X100102466Y-51099864D01*
X100062101Y-51054301D01*
X100062100Y-51054300D01*
X100011999Y-51019718D01*
X100006550Y-51015708D01*
X99989213Y-51002126D01*
X99958641Y-50978174D01*
X99958639Y-50978173D01*
X99958638Y-50978172D01*
X99957564Y-50977689D01*
X99922263Y-50957778D01*
X99921305Y-50957117D01*
X99921297Y-50957112D01*
X99874698Y-50939440D01*
X99864396Y-50935533D01*
X99858151Y-50932946D01*
X99802629Y-50907958D01*
X99801459Y-50907744D01*
X99762431Y-50896863D01*
X99761343Y-50896450D01*
X99761338Y-50896448D01*
X99761336Y-50896448D01*
X99761332Y-50896447D01*
X99761330Y-50896447D01*
X99700911Y-50889109D01*
X99694226Y-50888092D01*
X99647260Y-50879486D01*
X99634349Y-50877120D01*
X99634348Y-50877120D01*
X99629243Y-50877428D01*
X99573574Y-50880796D01*
X99566832Y-50881000D01*
X96736644Y-50881000D01*
X96645535Y-50861634D01*
X96570180Y-50806885D01*
X96558171Y-50792363D01*
X96476213Y-50684287D01*
X96358153Y-50594758D01*
X96358151Y-50594757D01*
X96220316Y-50540402D01*
X96220312Y-50540401D01*
X96149953Y-50531952D01*
X96133695Y-50530000D01*
X96133694Y-50530000D01*
X95636307Y-50530000D01*
X95636292Y-50530001D01*
X95549684Y-50540401D01*
X95549683Y-50540401D01*
X95411849Y-50594756D01*
X95293787Y-50684287D01*
X95204257Y-50802348D01*
X95149902Y-50940183D01*
X95149901Y-50940187D01*
X95139500Y-51026799D01*
X95139500Y-52144192D01*
X95139501Y-52144207D01*
X95149901Y-52230815D01*
X95149901Y-52230816D01*
X95204256Y-52368650D01*
X95204257Y-52368652D01*
X95204258Y-52368653D01*
X95293787Y-52486713D01*
X95411847Y-52576242D01*
X95549684Y-52630598D01*
X95636305Y-52641000D01*
X96133694Y-52640999D01*
X96133696Y-52640998D01*
X96133707Y-52640998D01*
X96205044Y-52632431D01*
X96220316Y-52630598D01*
X96358153Y-52576242D01*
X96476213Y-52486713D01*
X96558162Y-52378647D01*
X96628642Y-52317756D01*
X96717799Y-52290794D01*
X96736644Y-52290000D01*
X99206903Y-52290000D01*
X99298012Y-52309366D01*
X99365295Y-52355608D01*
X100048892Y-53039205D01*
X100099622Y-53117323D01*
X100114500Y-53197597D01*
X100114500Y-59197403D01*
X100095134Y-59288512D01*
X100048892Y-59355795D01*
X99214795Y-60189892D01*
X99136677Y-60240622D01*
X99056403Y-60255500D01*
X92861673Y-60255500D01*
X92854932Y-60255296D01*
X92794151Y-60251620D01*
X92734271Y-60262592D01*
X92727586Y-60263610D01*
X92667166Y-60270947D01*
X92667165Y-60270947D01*
X92666061Y-60271366D01*
X92627031Y-60282246D01*
X92625874Y-60282457D01*
X92625866Y-60282460D01*
X92570355Y-60307443D01*
X92564106Y-60310031D01*
X92507199Y-60331614D01*
X92507195Y-60331616D01*
X92506219Y-60332290D01*
X92470944Y-60352184D01*
X92469867Y-60352668D01*
X92469859Y-60352673D01*
X92421949Y-60390208D01*
X92416502Y-60394216D01*
X92366400Y-60428799D01*
X92366396Y-60428803D01*
X92326033Y-60474363D01*
X92321396Y-60479289D01*
X90578289Y-62222396D01*
X90573363Y-62227033D01*
X90527803Y-62267396D01*
X90527799Y-62267400D01*
X90493216Y-62317502D01*
X90489208Y-62322949D01*
X90451673Y-62370859D01*
X90451668Y-62370867D01*
X90451184Y-62371944D01*
X90431290Y-62407219D01*
X90430616Y-62408195D01*
X90430614Y-62408199D01*
X90409031Y-62465106D01*
X90406443Y-62471355D01*
X90381460Y-62526866D01*
X90381457Y-62526874D01*
X90381246Y-62528031D01*
X90370366Y-62567061D01*
X90369947Y-62568165D01*
X90369947Y-62568166D01*
X90362610Y-62628586D01*
X90361592Y-62635271D01*
X90353305Y-62680500D01*
X90350620Y-62695151D01*
X90354296Y-62755925D01*
X90354500Y-62762668D01*
X90354500Y-63527508D01*
X90335134Y-63618617D01*
X90280385Y-63693972D01*
X90263517Y-63707737D01*
X90241551Y-63723948D01*
X90241550Y-63723949D01*
X90239229Y-63727095D01*
X90231940Y-63733559D01*
X90229680Y-63735820D01*
X90229544Y-63735684D01*
X90169545Y-63788901D01*
X90080746Y-63817021D01*
X89988188Y-63806592D01*
X89907873Y-63759418D01*
X89878769Y-63727095D01*
X89876448Y-63723950D01*
X89824863Y-63685879D01*
X89767180Y-63643307D01*
X89767177Y-63643306D01*
X89767176Y-63643305D01*
X89638999Y-63598454D01*
X89630301Y-63597638D01*
X89608564Y-63595600D01*
X88509432Y-63595600D01*
X88489143Y-63597502D01*
X88478997Y-63598454D01*
X88478995Y-63598454D01*
X88350819Y-63643305D01*
X88241548Y-63723950D01*
X88160903Y-63833221D01*
X88116052Y-63961397D01*
X88116052Y-63961399D01*
X88113198Y-63991838D01*
X88113198Y-66944227D01*
X88093832Y-67035336D01*
X88039083Y-67110691D01*
X87958418Y-67157264D01*
X87865784Y-67167000D01*
X87777198Y-67138217D01*
X87756185Y-67124459D01*
X87736789Y-67110145D01*
X87722783Y-67099808D01*
X87722781Y-67099807D01*
X87594602Y-67054955D01*
X87585904Y-67054139D01*
X87564167Y-67052101D01*
X85753835Y-67052101D01*
X85733546Y-67054003D01*
X85723400Y-67054955D01*
X85723398Y-67054955D01*
X85595222Y-67099806D01*
X85595219Y-67099807D01*
X85595219Y-67099808D01*
X85485951Y-67180451D01*
X85425487Y-67262378D01*
X85405306Y-67289722D01*
X85360455Y-67417898D01*
X85360455Y-67417900D01*
X85357601Y-67448339D01*
X85357601Y-70655662D01*
X85360455Y-70686101D01*
X85360455Y-70686103D01*
X85405306Y-70814279D01*
X85405307Y-70814280D01*
X85405308Y-70814283D01*
X85485951Y-70923551D01*
X85595219Y-71004194D01*
X85723402Y-71049047D01*
X85753835Y-71051901D01*
X86796002Y-71051901D01*
X86887111Y-71071267D01*
X86962466Y-71126016D01*
X87009039Y-71206681D01*
X87018775Y-71299315D01*
X86989992Y-71387901D01*
X86954394Y-71434293D01*
X86641795Y-71746892D01*
X86563677Y-71797622D01*
X86483403Y-71812500D01*
X77219597Y-71812500D01*
X77128488Y-71793134D01*
X77061205Y-71746892D01*
X74107883Y-68793570D01*
X75772500Y-68793570D01*
X75780661Y-68873449D01*
X75783203Y-68898329D01*
X75803338Y-68959092D01*
X75836443Y-69059000D01*
X75839446Y-69068061D01*
X75933316Y-69220248D01*
X76059752Y-69346684D01*
X76211939Y-69440554D01*
X76381671Y-69496797D01*
X76486433Y-69507500D01*
X77269566Y-69507499D01*
X77269570Y-69507499D01*
X77316127Y-69502742D01*
X77374329Y-69496797D01*
X77544061Y-69440554D01*
X77696248Y-69346684D01*
X77822684Y-69220248D01*
X77916554Y-69068061D01*
X77972797Y-68898329D01*
X77983500Y-68793567D01*
X77983499Y-66080434D01*
X77983499Y-66080430D01*
X77983499Y-66080429D01*
X77972797Y-65975675D01*
X77972797Y-65975671D01*
X77916554Y-65805939D01*
X77822684Y-65653752D01*
X77696248Y-65527316D01*
X77544061Y-65433446D01*
X77544060Y-65433445D01*
X77544059Y-65433445D01*
X77374326Y-65377202D01*
X77269569Y-65366500D01*
X76486429Y-65366500D01*
X76381675Y-65377202D01*
X76381672Y-65377202D01*
X76381671Y-65377203D01*
X76360145Y-65384336D01*
X76211940Y-65433445D01*
X76059750Y-65527317D01*
X75933317Y-65653750D01*
X75839445Y-65805940D01*
X75783202Y-65975673D01*
X75772500Y-66080430D01*
X75772500Y-68793570D01*
X74107883Y-68793570D01*
X72270604Y-66956291D01*
X72265966Y-66951364D01*
X72225601Y-66905801D01*
X72225600Y-66905800D01*
X72175499Y-66871218D01*
X72170050Y-66867208D01*
X72152713Y-66853626D01*
X72122141Y-66829674D01*
X72122139Y-66829673D01*
X72122138Y-66829672D01*
X72121064Y-66829189D01*
X72085763Y-66809278D01*
X72084805Y-66808617D01*
X72084797Y-66808612D01*
X72038198Y-66790940D01*
X72027896Y-66787033D01*
X72021651Y-66784446D01*
X71966129Y-66759458D01*
X71964959Y-66759244D01*
X71925931Y-66748363D01*
X71924843Y-66747950D01*
X71924838Y-66747948D01*
X71924836Y-66747948D01*
X71924832Y-66747947D01*
X71924830Y-66747947D01*
X71864411Y-66740609D01*
X71857726Y-66739592D01*
X71810760Y-66730986D01*
X71797849Y-66728620D01*
X71797848Y-66728620D01*
X71792743Y-66728928D01*
X71737074Y-66732296D01*
X71730332Y-66732500D01*
X71302108Y-66732500D01*
X71210999Y-66713134D01*
X71158896Y-66677325D01*
X71158122Y-66678346D01*
X71032980Y-66583449D01*
X71032974Y-66583446D01*
X70997648Y-66569515D01*
X70901123Y-66531451D01*
X70901120Y-66531450D01*
X70901119Y-66531450D01*
X70833814Y-66523367D01*
X70818261Y-66521500D01*
X70818260Y-66521500D01*
X69557747Y-66521500D01*
X69557732Y-66521501D01*
X69474879Y-66531450D01*
X69343027Y-66583445D01*
X69343019Y-66583449D01*
X69217878Y-66678346D01*
X69216811Y-66676939D01*
X69154166Y-66717622D01*
X69073892Y-66732500D01*
X68456597Y-66732500D01*
X68365488Y-66713134D01*
X68298205Y-66666892D01*
X67693604Y-66062291D01*
X67688966Y-66057364D01*
X67648601Y-66011801D01*
X67648600Y-66011800D01*
X67598499Y-65977218D01*
X67593050Y-65973208D01*
X67570891Y-65955848D01*
X67545141Y-65935674D01*
X67545139Y-65935673D01*
X67545138Y-65935672D01*
X67544064Y-65935189D01*
X67508763Y-65915278D01*
X67507805Y-65914617D01*
X67507797Y-65914612D01*
X67461198Y-65896940D01*
X67450896Y-65893033D01*
X67444651Y-65890446D01*
X67389129Y-65865458D01*
X67387959Y-65865244D01*
X67348931Y-65854363D01*
X67347843Y-65853950D01*
X67347838Y-65853948D01*
X67347836Y-65853948D01*
X67347832Y-65853947D01*
X67347830Y-65853947D01*
X67287411Y-65846609D01*
X67280726Y-65845592D01*
X67233760Y-65836986D01*
X67220849Y-65834620D01*
X67220848Y-65834620D01*
X67215743Y-65834928D01*
X67160074Y-65838296D01*
X67153332Y-65838500D01*
X66381941Y-65838500D01*
X66290832Y-65819134D01*
X66223549Y-65772892D01*
X66201695Y-65751038D01*
X66150965Y-65672920D01*
X66136394Y-65580923D01*
X66160502Y-65490952D01*
X66201695Y-65434254D01*
X66263948Y-65372000D01*
X69083000Y-65372000D01*
X69083000Y-65587235D01*
X69092939Y-65670000D01*
X69092940Y-65670004D01*
X69144886Y-65801729D01*
X69230443Y-65914553D01*
X69230446Y-65914556D01*
X69343270Y-66000113D01*
X69474995Y-66052059D01*
X69474999Y-66052060D01*
X69557764Y-66061999D01*
X69557777Y-66062000D01*
X69963000Y-66062000D01*
X69963000Y-65372000D01*
X70413000Y-65372000D01*
X70413000Y-66062000D01*
X70818223Y-66062000D01*
X70818235Y-66061999D01*
X70901000Y-66052060D01*
X70901004Y-66052059D01*
X71032729Y-66000113D01*
X71145553Y-65914556D01*
X71145556Y-65914553D01*
X71231113Y-65801729D01*
X71283059Y-65670004D01*
X71283060Y-65670000D01*
X71292999Y-65587235D01*
X71293000Y-65587223D01*
X71293000Y-65372000D01*
X70413000Y-65372000D01*
X69963000Y-65372000D01*
X69083000Y-65372000D01*
X66263948Y-65372000D01*
X66308074Y-65327874D01*
X66396014Y-65182406D01*
X66396018Y-65182398D01*
X66446590Y-65020108D01*
X66452999Y-64949572D01*
X66453000Y-64949570D01*
X66453000Y-64922000D01*
X69083000Y-64922000D01*
X69963000Y-64922000D01*
X69963000Y-64232000D01*
X70413000Y-64232000D01*
X70413000Y-64922000D01*
X71293000Y-64922000D01*
X71293000Y-64706776D01*
X71292999Y-64706764D01*
X71283060Y-64623999D01*
X71283059Y-64623995D01*
X71231113Y-64492270D01*
X71145556Y-64379446D01*
X71145553Y-64379443D01*
X71032729Y-64293886D01*
X70901004Y-64241940D01*
X70901000Y-64241939D01*
X70818235Y-64232000D01*
X70413000Y-64232000D01*
X69963000Y-64232000D01*
X69557764Y-64232000D01*
X69474999Y-64241939D01*
X69474995Y-64241940D01*
X69343270Y-64293886D01*
X69230446Y-64379443D01*
X69230443Y-64379446D01*
X69144886Y-64492270D01*
X69092940Y-64623995D01*
X69092939Y-64623999D01*
X69083000Y-64706764D01*
X69083000Y-64922000D01*
X66453000Y-64922000D01*
X66453000Y-64868000D01*
X64103001Y-64868000D01*
X64103001Y-64949582D01*
X64109407Y-65020099D01*
X64109409Y-65020108D01*
X64159981Y-65182396D01*
X64159985Y-65182406D01*
X64247925Y-65327874D01*
X64354305Y-65434254D01*
X64405035Y-65512372D01*
X64419606Y-65604369D01*
X64395498Y-65694340D01*
X64354305Y-65751038D01*
X64332451Y-65772892D01*
X64254333Y-65823622D01*
X64174059Y-65838500D01*
X62190941Y-65838500D01*
X62099832Y-65819134D01*
X62032549Y-65772892D01*
X62010695Y-65751038D01*
X61959965Y-65672920D01*
X61945394Y-65580923D01*
X61969502Y-65490952D01*
X62010695Y-65434254D01*
X62117074Y-65327874D01*
X62205014Y-65182406D01*
X62205018Y-65182398D01*
X62255590Y-65020108D01*
X62261999Y-64949572D01*
X62262000Y-64949570D01*
X62262000Y-64868000D01*
X59912001Y-64868000D01*
X59912001Y-64949582D01*
X59918407Y-65020099D01*
X59918409Y-65020108D01*
X59968981Y-65182396D01*
X59968985Y-65182406D01*
X60056925Y-65327874D01*
X60163305Y-65434254D01*
X60214035Y-65512372D01*
X60228606Y-65604369D01*
X60204498Y-65694340D01*
X60163305Y-65751038D01*
X60141451Y-65772892D01*
X60063333Y-65823622D01*
X59983059Y-65838500D01*
X59434598Y-65838500D01*
X59343489Y-65819134D01*
X59276206Y-65772892D01*
X59190108Y-65686794D01*
X59139378Y-65608676D01*
X59124500Y-65528402D01*
X59124500Y-64418000D01*
X59912000Y-64418000D01*
X60862000Y-64418000D01*
X60862000Y-63693000D01*
X61312000Y-63693000D01*
X61312000Y-64418000D01*
X62261999Y-64418000D01*
X64103000Y-64418000D01*
X65053000Y-64418000D01*
X65053000Y-63693000D01*
X65503000Y-63693000D01*
X65503000Y-64418000D01*
X66452999Y-64418000D01*
X66452999Y-64336433D01*
X66452998Y-64336417D01*
X66446592Y-64265900D01*
X66446590Y-64265891D01*
X66396018Y-64103603D01*
X66396014Y-64103593D01*
X66308074Y-63958125D01*
X66187874Y-63837925D01*
X66042406Y-63749985D01*
X66042398Y-63749981D01*
X65880107Y-63699409D01*
X65880110Y-63699409D01*
X65809572Y-63693000D01*
X65503000Y-63693000D01*
X65053000Y-63693000D01*
X64746433Y-63693000D01*
X64746417Y-63693001D01*
X64675900Y-63699407D01*
X64675891Y-63699409D01*
X64513603Y-63749981D01*
X64513593Y-63749985D01*
X64368125Y-63837925D01*
X64247925Y-63958125D01*
X64159985Y-64103593D01*
X64159981Y-64103601D01*
X64109409Y-64265891D01*
X64103000Y-64336427D01*
X64103000Y-64418000D01*
X62261999Y-64418000D01*
X62261999Y-64336433D01*
X62261998Y-64336417D01*
X62255592Y-64265900D01*
X62255590Y-64265891D01*
X62205018Y-64103603D01*
X62205014Y-64103593D01*
X62117074Y-63958125D01*
X61996874Y-63837925D01*
X61851406Y-63749985D01*
X61851398Y-63749981D01*
X61689107Y-63699409D01*
X61689110Y-63699409D01*
X61618572Y-63693000D01*
X61312000Y-63693000D01*
X60862000Y-63693000D01*
X60555433Y-63693000D01*
X60555417Y-63693001D01*
X60484900Y-63699407D01*
X60484891Y-63699409D01*
X60322603Y-63749981D01*
X60322593Y-63749985D01*
X60177125Y-63837925D01*
X60056925Y-63958125D01*
X59968985Y-64103593D01*
X59968981Y-64103601D01*
X59918409Y-64265891D01*
X59912000Y-64336427D01*
X59912000Y-64418000D01*
X59124500Y-64418000D01*
X59124500Y-63249597D01*
X59143866Y-63158488D01*
X59190108Y-63091205D01*
X59535205Y-62746108D01*
X59613323Y-62695378D01*
X59693597Y-62680500D01*
X63983332Y-62680500D01*
X63990074Y-62680703D01*
X64050849Y-62684380D01*
X64110743Y-62673403D01*
X64117410Y-62672388D01*
X64177836Y-62665052D01*
X64178912Y-62664644D01*
X64217986Y-62653750D01*
X64219130Y-62653541D01*
X64267131Y-62631937D01*
X64274657Y-62628550D01*
X64280886Y-62625969D01*
X64337802Y-62604385D01*
X64338746Y-62603733D01*
X64374088Y-62583799D01*
X64375141Y-62583326D01*
X64423058Y-62545783D01*
X64428475Y-62541797D01*
X64478601Y-62507199D01*
X64518990Y-62461607D01*
X64523581Y-62456730D01*
X65539045Y-61441266D01*
X67609500Y-61441266D01*
X67611670Y-61464403D01*
X67612354Y-61471700D01*
X67612354Y-61471702D01*
X67657205Y-61599878D01*
X67657206Y-61599879D01*
X67657207Y-61599882D01*
X67737850Y-61709150D01*
X67847118Y-61789793D01*
X67975301Y-61834646D01*
X68005734Y-61837500D01*
X68005744Y-61837500D01*
X69314256Y-61837500D01*
X69314266Y-61837500D01*
X69344699Y-61834646D01*
X69472882Y-61789793D01*
X69526987Y-61749861D01*
X69611790Y-61711343D01*
X69704931Y-61710646D01*
X69790304Y-61747893D01*
X69792918Y-61749792D01*
X69847118Y-61789793D01*
X69847119Y-61789793D01*
X69847120Y-61789794D01*
X69965153Y-61831095D01*
X69975301Y-61834646D01*
X70005734Y-61837500D01*
X70005744Y-61837500D01*
X71314256Y-61837500D01*
X71314266Y-61837500D01*
X71344699Y-61834646D01*
X71472882Y-61789793D01*
X71526987Y-61749861D01*
X71611790Y-61711343D01*
X71704931Y-61710646D01*
X71790304Y-61747893D01*
X71792918Y-61749792D01*
X71847118Y-61789793D01*
X71847119Y-61789793D01*
X71847120Y-61789794D01*
X71965153Y-61831095D01*
X71975301Y-61834646D01*
X72005734Y-61837500D01*
X72005744Y-61837500D01*
X73314256Y-61837500D01*
X73314266Y-61837500D01*
X73344699Y-61834646D01*
X73472882Y-61789793D01*
X73526987Y-61749861D01*
X73611790Y-61711343D01*
X73704931Y-61710646D01*
X73790304Y-61747893D01*
X73792918Y-61749792D01*
X73847118Y-61789793D01*
X73847119Y-61789793D01*
X73847120Y-61789794D01*
X73965153Y-61831095D01*
X73975301Y-61834646D01*
X74005734Y-61837500D01*
X74005744Y-61837500D01*
X75314256Y-61837500D01*
X75314266Y-61837500D01*
X75344699Y-61834646D01*
X75472882Y-61789793D01*
X75526987Y-61749861D01*
X75611790Y-61711343D01*
X75704931Y-61710646D01*
X75790304Y-61747893D01*
X75792918Y-61749792D01*
X75847118Y-61789793D01*
X75847119Y-61789793D01*
X75847120Y-61789794D01*
X75965153Y-61831095D01*
X75975301Y-61834646D01*
X76005734Y-61837500D01*
X76005744Y-61837500D01*
X77314256Y-61837500D01*
X77314266Y-61837500D01*
X77344699Y-61834646D01*
X77472882Y-61789793D01*
X77526987Y-61749861D01*
X77611790Y-61711343D01*
X77704931Y-61710646D01*
X77790304Y-61747893D01*
X77792918Y-61749792D01*
X77847118Y-61789793D01*
X77847119Y-61789793D01*
X77847120Y-61789794D01*
X77965153Y-61831095D01*
X77975301Y-61834646D01*
X78005734Y-61837500D01*
X78005744Y-61837500D01*
X79314256Y-61837500D01*
X79314266Y-61837500D01*
X79344699Y-61834646D01*
X79472882Y-61789793D01*
X79582150Y-61709150D01*
X79662793Y-61599882D01*
X79707646Y-61471699D01*
X79710500Y-61441266D01*
X79710500Y-59332734D01*
X79707646Y-59302301D01*
X79703407Y-59290187D01*
X79662794Y-59174121D01*
X79662793Y-59174118D01*
X79631709Y-59132000D01*
X80210001Y-59132000D01*
X80210001Y-59561215D01*
X80212850Y-59591604D01*
X80257651Y-59719640D01*
X80257655Y-59719648D01*
X80338207Y-59828790D01*
X80338209Y-59828792D01*
X80447351Y-59909344D01*
X80447357Y-59909347D01*
X80575392Y-59954148D01*
X80605804Y-59956999D01*
X81435000Y-59956999D01*
X81435000Y-59132000D01*
X81885000Y-59132000D01*
X81885000Y-59956999D01*
X82714195Y-59956999D01*
X82714215Y-59956998D01*
X82744604Y-59954149D01*
X82872640Y-59909348D01*
X82872648Y-59909344D01*
X82981790Y-59828792D01*
X82981792Y-59828790D01*
X83062344Y-59719648D01*
X83062347Y-59719642D01*
X83107148Y-59591608D01*
X83107148Y-59591607D01*
X83109999Y-59561198D01*
X83110000Y-59561192D01*
X83110000Y-59132000D01*
X81885000Y-59132000D01*
X81435000Y-59132000D01*
X80210001Y-59132000D01*
X79631709Y-59132000D01*
X79582150Y-59064850D01*
X79472882Y-58984207D01*
X79472879Y-58984206D01*
X79472878Y-58984205D01*
X79344701Y-58939354D01*
X79336003Y-58938538D01*
X79314266Y-58936500D01*
X78005734Y-58936500D01*
X77985445Y-58938402D01*
X77975299Y-58939354D01*
X77975297Y-58939354D01*
X77847118Y-58984206D01*
X77793014Y-59024137D01*
X77708208Y-59062657D01*
X77615066Y-59063353D01*
X77529694Y-59026105D01*
X77526986Y-59024137D01*
X77472881Y-58984206D01*
X77344701Y-58939354D01*
X77336003Y-58938538D01*
X77314266Y-58936500D01*
X76005734Y-58936500D01*
X75985445Y-58938402D01*
X75975299Y-58939354D01*
X75975297Y-58939354D01*
X75847118Y-58984206D01*
X75793014Y-59024137D01*
X75708208Y-59062657D01*
X75615066Y-59063353D01*
X75529694Y-59026105D01*
X75526986Y-59024137D01*
X75472881Y-58984206D01*
X75344701Y-58939354D01*
X75336003Y-58938538D01*
X75314266Y-58936500D01*
X74005734Y-58936500D01*
X73985445Y-58938402D01*
X73975299Y-58939354D01*
X73975297Y-58939354D01*
X73847118Y-58984206D01*
X73793014Y-59024137D01*
X73708208Y-59062657D01*
X73615066Y-59063353D01*
X73529694Y-59026105D01*
X73526986Y-59024137D01*
X73472881Y-58984206D01*
X73344701Y-58939354D01*
X73336003Y-58938538D01*
X73314266Y-58936500D01*
X72005734Y-58936500D01*
X71985445Y-58938402D01*
X71975299Y-58939354D01*
X71975297Y-58939354D01*
X71847118Y-58984206D01*
X71793014Y-59024137D01*
X71708208Y-59062657D01*
X71615066Y-59063353D01*
X71529694Y-59026105D01*
X71526986Y-59024137D01*
X71472881Y-58984206D01*
X71344701Y-58939354D01*
X71336003Y-58938538D01*
X71314266Y-58936500D01*
X70005734Y-58936500D01*
X69985445Y-58938402D01*
X69975299Y-58939354D01*
X69975297Y-58939354D01*
X69847118Y-58984206D01*
X69793014Y-59024137D01*
X69708208Y-59062657D01*
X69615066Y-59063353D01*
X69529694Y-59026105D01*
X69526986Y-59024137D01*
X69472881Y-58984206D01*
X69344701Y-58939354D01*
X69336003Y-58938538D01*
X69314266Y-58936500D01*
X68005734Y-58936500D01*
X67985445Y-58938402D01*
X67975299Y-58939354D01*
X67975297Y-58939354D01*
X67847121Y-58984205D01*
X67847118Y-58984206D01*
X67847118Y-58984207D01*
X67737850Y-59064850D01*
X67660001Y-59170333D01*
X67657205Y-59174121D01*
X67612354Y-59302297D01*
X67612354Y-59302299D01*
X67612354Y-59302301D01*
X67609500Y-59332734D01*
X67609500Y-61441266D01*
X65539045Y-61441266D01*
X66140730Y-60839581D01*
X66145607Y-60834990D01*
X66191199Y-60794601D01*
X66225797Y-60744475D01*
X66229783Y-60739058D01*
X66267326Y-60691141D01*
X66267799Y-60690088D01*
X66287735Y-60654743D01*
X66288385Y-60653802D01*
X66309969Y-60596886D01*
X66312550Y-60590657D01*
X66322547Y-60568443D01*
X66337541Y-60535130D01*
X66337750Y-60533986D01*
X66348644Y-60494912D01*
X66348700Y-60494763D01*
X66349052Y-60493836D01*
X66356388Y-60433410D01*
X66357403Y-60426743D01*
X66368380Y-60366849D01*
X66364703Y-60306067D01*
X66364500Y-60299325D01*
X66364500Y-60181500D01*
X66383866Y-60090391D01*
X66438615Y-60015036D01*
X66519280Y-59968463D01*
X66588500Y-59957500D01*
X66714256Y-59957500D01*
X66714266Y-59957500D01*
X66744699Y-59954646D01*
X66872882Y-59909793D01*
X66982150Y-59829150D01*
X67062793Y-59719882D01*
X67107646Y-59591699D01*
X67110500Y-59561266D01*
X67110500Y-58252734D01*
X67107646Y-58222301D01*
X67062877Y-58094359D01*
X67062794Y-58094120D01*
X67062793Y-58094118D01*
X67022861Y-58040012D01*
X66984343Y-57955210D01*
X66983646Y-57862069D01*
X67020893Y-57776696D01*
X67022792Y-57774081D01*
X67062793Y-57719882D01*
X67062793Y-57719880D01*
X67072761Y-57706375D01*
X67075697Y-57708542D01*
X67116546Y-57659607D01*
X67200159Y-57618562D01*
X67214525Y-57615439D01*
X67214847Y-57615379D01*
X67214849Y-57615380D01*
X67274765Y-57604399D01*
X67281415Y-57603387D01*
X67341836Y-57596052D01*
X67342912Y-57595644D01*
X67381986Y-57584750D01*
X67383130Y-57584541D01*
X67416443Y-57569547D01*
X67438657Y-57559550D01*
X67444886Y-57556969D01*
X67501802Y-57535385D01*
X67502746Y-57534733D01*
X67538088Y-57514799D01*
X67539141Y-57514326D01*
X67587058Y-57476783D01*
X67592475Y-57472797D01*
X67642601Y-57438199D01*
X67682990Y-57392607D01*
X67687581Y-57387730D01*
X68425730Y-56649581D01*
X68430607Y-56644990D01*
X68476199Y-56604601D01*
X68510796Y-56554477D01*
X68514790Y-56549050D01*
X68552325Y-56501141D01*
X68552798Y-56500090D01*
X68572730Y-56464751D01*
X68573384Y-56463803D01*
X68573383Y-56463803D01*
X68573385Y-56463802D01*
X68594982Y-56406852D01*
X68597547Y-56400659D01*
X68622540Y-56345130D01*
X68622750Y-56343982D01*
X68633639Y-56304925D01*
X68633661Y-56304866D01*
X68634052Y-56303836D01*
X68641390Y-56243394D01*
X68642401Y-56236752D01*
X68653380Y-56176849D01*
X68649703Y-56116073D01*
X68649500Y-56109331D01*
X68649500Y-44220672D01*
X68649703Y-44213933D01*
X68653380Y-44153151D01*
X68642406Y-44093273D01*
X68641388Y-44086584D01*
X68634052Y-44026164D01*
X68633640Y-44025077D01*
X68622751Y-43986017D01*
X68622541Y-43984870D01*
X68597553Y-43929349D01*
X68594969Y-43923111D01*
X68585888Y-43899166D01*
X68573385Y-43866198D01*
X68572724Y-43865240D01*
X68552802Y-43829916D01*
X68552326Y-43828860D01*
X68552326Y-43828859D01*
X68514786Y-43780943D01*
X68510783Y-43775503D01*
X68476199Y-43725399D01*
X68430634Y-43685032D01*
X68425707Y-43680394D01*
X67698604Y-42953291D01*
X67693966Y-42948364D01*
X67653601Y-42902801D01*
X67653600Y-42902800D01*
X67603499Y-42868218D01*
X67598050Y-42864208D01*
X67580713Y-42850626D01*
X67550141Y-42826674D01*
X67550139Y-42826673D01*
X67550138Y-42826672D01*
X67549064Y-42826189D01*
X67513763Y-42806278D01*
X67512805Y-42805617D01*
X67512797Y-42805612D01*
X67466198Y-42787940D01*
X67455896Y-42784033D01*
X67449651Y-42781446D01*
X67394129Y-42756458D01*
X67392959Y-42756244D01*
X67353931Y-42745363D01*
X67352843Y-42744950D01*
X67352838Y-42744948D01*
X67352836Y-42744948D01*
X67352832Y-42744947D01*
X67352830Y-42744947D01*
X67292411Y-42737609D01*
X67285726Y-42736592D01*
X67238760Y-42727986D01*
X67225849Y-42725620D01*
X67225848Y-42725620D01*
X67220743Y-42725928D01*
X67165074Y-42729296D01*
X67158332Y-42729500D01*
X64392597Y-42729500D01*
X64301488Y-42710134D01*
X64234205Y-42663892D01*
X62873108Y-41302795D01*
X62822378Y-41224677D01*
X62807500Y-41144403D01*
X62807500Y-37616655D01*
X62807703Y-37609916D01*
X62811379Y-37549151D01*
X62800406Y-37489276D01*
X62799388Y-37482584D01*
X62792052Y-37422164D01*
X62791638Y-37421072D01*
X62780749Y-37382013D01*
X62780539Y-37380867D01*
X62771096Y-37359887D01*
X62755552Y-37325350D01*
X62752980Y-37319142D01*
X62731385Y-37262198D01*
X62730720Y-37261234D01*
X62710801Y-37225916D01*
X62710326Y-37224861D01*
X62710325Y-37224859D01*
X62698379Y-37209611D01*
X62672780Y-37176936D01*
X62668785Y-37171506D01*
X62634204Y-37121406D01*
X62634203Y-37121405D01*
X62634199Y-37121399D01*
X62588634Y-37081032D01*
X62583707Y-37076394D01*
X61348604Y-35841291D01*
X61343966Y-35836364D01*
X61303601Y-35790801D01*
X61303600Y-35790800D01*
X61253499Y-35756218D01*
X61248050Y-35752208D01*
X61230713Y-35738626D01*
X61200141Y-35714674D01*
X61200139Y-35714673D01*
X61200138Y-35714672D01*
X61199064Y-35714189D01*
X61163763Y-35694278D01*
X61162805Y-35693617D01*
X61162797Y-35693612D01*
X61112580Y-35674568D01*
X61105896Y-35672033D01*
X61099651Y-35669446D01*
X61044129Y-35644458D01*
X61042959Y-35644244D01*
X61003931Y-35633363D01*
X61002843Y-35632950D01*
X61002838Y-35632948D01*
X61002836Y-35632948D01*
X61002832Y-35632947D01*
X61002830Y-35632947D01*
X60942411Y-35625609D01*
X60935726Y-35624592D01*
X60888760Y-35615986D01*
X60875849Y-35613620D01*
X60875848Y-35613620D01*
X60870743Y-35613928D01*
X60815074Y-35617296D01*
X60808332Y-35617500D01*
X57202200Y-35617500D01*
X57111091Y-35598134D01*
X57035736Y-35543385D01*
X56989163Y-35462720D01*
X56978200Y-35393500D01*
X56978200Y-34692944D01*
X56978200Y-34692934D01*
X56975346Y-34662501D01*
X56930493Y-34534318D01*
X56849850Y-34425050D01*
X56740582Y-34344407D01*
X56740579Y-34344406D01*
X56740578Y-34344405D01*
X56612401Y-34299554D01*
X56603703Y-34298738D01*
X56581966Y-34296700D01*
X55178034Y-34296700D01*
X55157745Y-34298602D01*
X55147599Y-34299554D01*
X55147597Y-34299554D01*
X55019421Y-34344405D01*
X55019418Y-34344406D01*
X55019418Y-34344407D01*
X55018815Y-34344852D01*
X54910150Y-34425050D01*
X54829505Y-34534321D01*
X54784654Y-34662497D01*
X54784654Y-34662499D01*
X54784645Y-34662592D01*
X54781800Y-34692934D01*
X54781800Y-37951066D01*
X54784178Y-37976426D01*
X54784654Y-37981500D01*
X54784654Y-37981502D01*
X54829505Y-38109678D01*
X54829506Y-38109679D01*
X54829507Y-38109682D01*
X54910150Y-38218950D01*
X55019418Y-38299593D01*
X55147601Y-38344446D01*
X55178034Y-38347300D01*
X55178044Y-38347300D01*
X56581956Y-38347300D01*
X56581966Y-38347300D01*
X56612399Y-38344446D01*
X56740582Y-38299593D01*
X56849850Y-38218950D01*
X56930493Y-38109682D01*
X56975346Y-37981499D01*
X56978200Y-37951066D01*
X56978200Y-37250500D01*
X56997566Y-37159391D01*
X57052315Y-37084036D01*
X57132980Y-37037463D01*
X57202200Y-37026500D01*
X60448403Y-37026500D01*
X60539512Y-37045866D01*
X60606795Y-37092108D01*
X61332892Y-37818205D01*
X61383622Y-37896323D01*
X61398500Y-37976597D01*
X61398500Y-41489500D01*
X61379134Y-41580609D01*
X61324385Y-41655964D01*
X61243720Y-41702537D01*
X61174500Y-41713500D01*
X57047668Y-41713500D01*
X57040925Y-41713296D01*
X56980151Y-41709620D01*
X56920271Y-41720592D01*
X56913586Y-41721610D01*
X56853166Y-41728947D01*
X56853165Y-41728947D01*
X56852061Y-41729366D01*
X56813031Y-41740246D01*
X56811874Y-41740457D01*
X56811866Y-41740460D01*
X56756355Y-41765443D01*
X56750106Y-41768031D01*
X56693199Y-41789614D01*
X56693195Y-41789616D01*
X56692219Y-41790290D01*
X56656944Y-41810184D01*
X56655867Y-41810668D01*
X56655859Y-41810673D01*
X56607949Y-41848208D01*
X56602502Y-41852216D01*
X56552400Y-41886799D01*
X56552396Y-41886803D01*
X56512033Y-41932363D01*
X56507396Y-41937289D01*
X55479289Y-42965396D01*
X55474363Y-42970033D01*
X55428803Y-43010396D01*
X55428799Y-43010400D01*
X55394216Y-43060502D01*
X55390208Y-43065949D01*
X55352673Y-43113859D01*
X55352668Y-43113867D01*
X55352184Y-43114944D01*
X55332290Y-43150219D01*
X55331616Y-43151195D01*
X55331614Y-43151199D01*
X55310031Y-43208106D01*
X55307443Y-43214355D01*
X55282460Y-43269866D01*
X55282457Y-43269874D01*
X55282246Y-43271031D01*
X55271366Y-43310061D01*
X55270947Y-43311165D01*
X55270947Y-43311166D01*
X55263610Y-43371586D01*
X55262592Y-43378271D01*
X55251620Y-43438151D01*
X55255296Y-43498925D01*
X55255500Y-43505668D01*
X55255500Y-43866559D01*
X55236134Y-43957668D01*
X55189892Y-44024951D01*
X55142029Y-44072813D01*
X55142028Y-44072815D01*
X55098157Y-44145386D01*
X55034452Y-44213334D01*
X54948614Y-44249498D01*
X54906464Y-44253500D01*
X51255091Y-44253500D01*
X51163982Y-44234134D01*
X51088627Y-44179385D01*
X51074860Y-44162514D01*
X51058651Y-44140551D01*
X51058650Y-44140550D01*
X50949382Y-44059907D01*
X50949379Y-44059906D01*
X50949378Y-44059905D01*
X50821201Y-44015054D01*
X50812503Y-44014238D01*
X50790766Y-44012200D01*
X49793234Y-44012200D01*
X49772945Y-44014102D01*
X49762799Y-44015054D01*
X49762797Y-44015054D01*
X49634621Y-44059905D01*
X49634618Y-44059906D01*
X49634618Y-44059907D01*
X49525350Y-44140550D01*
X49465016Y-44222301D01*
X49444705Y-44249821D01*
X49399854Y-44377997D01*
X49399854Y-44377999D01*
X49399854Y-44378001D01*
X49397000Y-44408434D01*
X49397000Y-45507566D01*
X49397634Y-45514325D01*
X49399854Y-45538000D01*
X49399854Y-45538002D01*
X49450251Y-45682027D01*
X49446448Y-45683357D01*
X49463370Y-45743003D01*
X49450148Y-45835204D01*
X49448620Y-45838635D01*
X49399854Y-45977999D01*
X49399854Y-45978001D01*
X49399845Y-45978094D01*
X49397977Y-45998024D01*
X49397000Y-46008440D01*
X49397000Y-46230542D01*
X49377634Y-46321651D01*
X49322885Y-46397006D01*
X49242220Y-46443579D01*
X49152091Y-46453563D01*
X49147168Y-46453102D01*
X47336836Y-46453102D01*
X47331412Y-46453610D01*
X47238896Y-46442835D01*
X47158758Y-46395360D01*
X47104859Y-46319395D01*
X47086503Y-46230589D01*
X47086503Y-46008507D01*
X47086502Y-46008486D01*
X47083653Y-45978097D01*
X47033306Y-45834210D01*
X47037179Y-45832854D01*
X47020350Y-45773595D01*
X47033549Y-45681391D01*
X47035538Y-45676925D01*
X47084149Y-45538002D01*
X47084149Y-45538001D01*
X47084150Y-45537999D01*
X47087004Y-45507566D01*
X47087004Y-44408434D01*
X47084150Y-44378001D01*
X47039297Y-44249818D01*
X46958654Y-44140550D01*
X46849386Y-44059907D01*
X46849383Y-44059906D01*
X46849382Y-44059905D01*
X46721205Y-44015054D01*
X46712507Y-44014238D01*
X46690770Y-44012200D01*
X45693238Y-44012200D01*
X45672949Y-44014102D01*
X45662803Y-44015054D01*
X45662801Y-44015054D01*
X45534625Y-44059905D01*
X45534622Y-44059906D01*
X45534622Y-44059907D01*
X45425354Y-44140550D01*
X45365020Y-44222301D01*
X45344709Y-44249821D01*
X45299858Y-44377997D01*
X45299858Y-44377999D01*
X45299858Y-44378001D01*
X45297004Y-44408434D01*
X45297004Y-45507566D01*
X45297638Y-45514325D01*
X45299858Y-45538000D01*
X45299858Y-45538002D01*
X45350255Y-45682027D01*
X45346571Y-45683315D01*
X45363659Y-45743524D01*
X45350663Y-45834198D01*
X45350702Y-45834212D01*
X45350634Y-45834405D01*
X45350445Y-45835726D01*
X45349168Y-45838593D01*
X45300355Y-45978093D01*
X45300355Y-45978094D01*
X45297504Y-46008503D01*
X45297504Y-46333002D01*
X46193004Y-46333002D01*
X46284113Y-46352368D01*
X46359468Y-46407117D01*
X46406041Y-46487782D01*
X46417004Y-46557002D01*
X46417004Y-47503301D01*
X46690699Y-47503301D01*
X46690719Y-47503300D01*
X46734681Y-47499179D01*
X46734839Y-47500872D01*
X46811898Y-47500436D01*
X46897203Y-47537839D01*
X46959920Y-47606704D01*
X46977997Y-47645817D01*
X46988307Y-47675280D01*
X46988308Y-47675281D01*
X46988309Y-47675284D01*
X47068952Y-47784552D01*
X47178220Y-47865195D01*
X47306403Y-47910048D01*
X47336836Y-47912902D01*
X47336846Y-47912902D01*
X49147158Y-47912902D01*
X49147168Y-47912902D01*
X49177601Y-47910048D01*
X49305784Y-47865195D01*
X49415052Y-47784552D01*
X49495695Y-47675284D01*
X49505835Y-47646304D01*
X49554204Y-47566704D01*
X49630767Y-47513658D01*
X49722288Y-47496339D01*
X49753990Y-47500121D01*
X49762797Y-47500946D01*
X49762801Y-47500948D01*
X49793234Y-47503802D01*
X49793244Y-47503802D01*
X50790756Y-47503802D01*
X50790766Y-47503802D01*
X50821199Y-47500948D01*
X50822617Y-47500452D01*
X50835389Y-47495982D01*
X50949382Y-47456095D01*
X51058650Y-47375452D01*
X51139293Y-47266184D01*
X51184146Y-47138001D01*
X51187000Y-47107568D01*
X51187000Y-46008436D01*
X51184146Y-45978003D01*
X51179553Y-45964876D01*
X51178015Y-45960479D01*
X51166204Y-45868087D01*
X51192994Y-45778878D01*
X51253752Y-45708278D01*
X51337973Y-45668494D01*
X51389446Y-45662500D01*
X54906464Y-45662500D01*
X54997573Y-45681866D01*
X55072928Y-45736615D01*
X55098155Y-45770610D01*
X55142028Y-45843185D01*
X55262315Y-45963472D01*
X55407894Y-46051478D01*
X55570304Y-46102086D01*
X55640884Y-46108500D01*
X55640888Y-46108500D01*
X55986402Y-46108500D01*
X56077511Y-46127866D01*
X56152866Y-46182615D01*
X56199439Y-46263280D01*
X56209175Y-46355914D01*
X56180392Y-46444500D01*
X56144794Y-46490892D01*
X55479289Y-47156396D01*
X55474363Y-47161033D01*
X55428803Y-47201396D01*
X55428799Y-47201400D01*
X55394216Y-47251502D01*
X55390208Y-47256949D01*
X55352673Y-47304859D01*
X55352668Y-47304867D01*
X55352184Y-47305944D01*
X55332290Y-47341219D01*
X55331616Y-47342195D01*
X55331614Y-47342199D01*
X55310031Y-47399106D01*
X55307443Y-47405355D01*
X55282460Y-47460866D01*
X55282457Y-47460874D01*
X55282246Y-47462031D01*
X55271366Y-47501061D01*
X55270947Y-47502165D01*
X55270947Y-47502166D01*
X55263610Y-47562586D01*
X55262592Y-47569271D01*
X55254022Y-47616042D01*
X55251620Y-47629151D01*
X55255296Y-47689925D01*
X55255500Y-47696668D01*
X55255500Y-47803559D01*
X55236134Y-47894668D01*
X55189892Y-47961951D01*
X55142029Y-48009813D01*
X55054021Y-48155395D01*
X55003414Y-48317801D01*
X55003414Y-48317804D01*
X54997000Y-48388384D01*
X54997000Y-49401616D01*
X55001581Y-49452030D01*
X55003414Y-49472198D01*
X55053989Y-49634500D01*
X55054022Y-49634606D01*
X55138279Y-49773984D01*
X55142029Y-49780186D01*
X55189892Y-49828049D01*
X55240622Y-49906167D01*
X55255500Y-49986441D01*
X55255500Y-51097403D01*
X55236134Y-51188512D01*
X55189892Y-51255795D01*
X53240795Y-53204892D01*
X53162677Y-53255622D01*
X53082403Y-53270500D01*
X41469929Y-53270500D01*
X41378820Y-53251134D01*
X41303465Y-53196385D01*
X41286438Y-53174980D01*
X41259047Y-53135861D01*
X41098139Y-52974953D01*
X40974219Y-52888184D01*
X40910696Y-52820065D01*
X40880371Y-52731995D01*
X40888488Y-52639205D01*
X40933645Y-52557739D01*
X40974220Y-52521205D01*
X41097807Y-52434668D01*
X41097816Y-52434660D01*
X41258660Y-52273816D01*
X41258663Y-52273812D01*
X41389135Y-52087481D01*
X41485264Y-51881330D01*
X41485268Y-51881319D01*
X41544141Y-51661603D01*
X41544281Y-51660001D01*
X41544280Y-51660000D01*
X40708753Y-51660000D01*
X40718493Y-51644844D01*
X40759000Y-51506889D01*
X40759000Y-51363111D01*
X40718493Y-51225156D01*
X40708753Y-51210000D01*
X41544280Y-51210000D01*
X41544281Y-51209998D01*
X41544141Y-51208396D01*
X41485268Y-50988680D01*
X41485264Y-50988669D01*
X41389135Y-50782518D01*
X41258663Y-50596187D01*
X41258660Y-50596183D01*
X41097816Y-50435339D01*
X41097812Y-50435336D01*
X40911481Y-50304864D01*
X40705330Y-50208735D01*
X40705317Y-50208730D01*
X40485612Y-50149861D01*
X40485606Y-50149859D01*
X40484000Y-50149718D01*
X40484000Y-50988081D01*
X40401315Y-50950320D01*
X40294763Y-50935000D01*
X40223237Y-50935000D01*
X40116685Y-50950320D01*
X40034000Y-50988081D01*
X40034000Y-50149718D01*
X40032393Y-50149859D01*
X40032387Y-50149861D01*
X39812682Y-50208730D01*
X39812669Y-50208735D01*
X39606518Y-50304864D01*
X39420187Y-50435336D01*
X39420183Y-50435339D01*
X39259339Y-50596183D01*
X39259336Y-50596187D01*
X39128864Y-50782518D01*
X39032735Y-50988669D01*
X39032731Y-50988680D01*
X38973858Y-51208396D01*
X38973718Y-51209998D01*
X38973720Y-51210000D01*
X39809247Y-51210000D01*
X39799507Y-51225156D01*
X39759000Y-51363111D01*
X39759000Y-51506889D01*
X39799507Y-51644844D01*
X39809247Y-51660000D01*
X38973720Y-51660000D01*
X38973718Y-51660001D01*
X38973858Y-51661603D01*
X39032731Y-51881319D01*
X39032735Y-51881330D01*
X39128864Y-52087481D01*
X39259336Y-52273812D01*
X39259339Y-52273816D01*
X39420187Y-52434664D01*
X39543780Y-52521205D01*
X39607304Y-52589327D01*
X39637628Y-52677397D01*
X39629510Y-52770187D01*
X39584352Y-52851653D01*
X39543778Y-52888186D01*
X39419861Y-52974952D01*
X39258953Y-53135860D01*
X39231562Y-53174980D01*
X39163441Y-53238505D01*
X39075371Y-53268830D01*
X39048071Y-53270500D01*
X38124673Y-53270500D01*
X38117932Y-53270296D01*
X38057151Y-53266620D01*
X37997271Y-53277592D01*
X37990586Y-53278610D01*
X37930166Y-53285947D01*
X37930165Y-53285947D01*
X37929061Y-53286366D01*
X37890031Y-53297246D01*
X37888874Y-53297457D01*
X37888866Y-53297460D01*
X37833355Y-53322443D01*
X37827106Y-53325031D01*
X37770199Y-53346614D01*
X37770195Y-53346616D01*
X37769219Y-53347290D01*
X37733944Y-53367184D01*
X37732867Y-53367668D01*
X37732859Y-53367673D01*
X37684949Y-53405208D01*
X37679502Y-53409216D01*
X37629400Y-53443799D01*
X37629396Y-53443803D01*
X37589033Y-53489363D01*
X37584396Y-53494289D01*
X36857289Y-54221396D01*
X36852363Y-54226033D01*
X36806803Y-54266396D01*
X36806799Y-54266400D01*
X36772216Y-54316502D01*
X36768208Y-54321949D01*
X36730673Y-54369859D01*
X36730668Y-54369867D01*
X36730184Y-54370944D01*
X36710290Y-54406219D01*
X36709616Y-54407195D01*
X36709614Y-54407199D01*
X36688031Y-54464106D01*
X36685443Y-54470355D01*
X36660460Y-54525866D01*
X36660457Y-54525874D01*
X36660246Y-54527031D01*
X36649366Y-54566061D01*
X36648947Y-54567165D01*
X36648947Y-54567166D01*
X36641610Y-54627586D01*
X36640592Y-54634271D01*
X36632305Y-54679500D01*
X36629620Y-54694151D01*
X36633296Y-54754925D01*
X36633500Y-54761668D01*
X36633500Y-61824331D01*
X36633296Y-61831073D01*
X36632908Y-61837500D01*
X36629620Y-61891848D01*
X36640592Y-61951726D01*
X36641609Y-61958411D01*
X36648947Y-62018830D01*
X36648950Y-62018843D01*
X36649363Y-62019931D01*
X36660244Y-62058959D01*
X36660458Y-62060128D01*
X36660458Y-62060129D01*
X36685446Y-62115651D01*
X36688036Y-62121903D01*
X36709612Y-62178797D01*
X36709617Y-62178805D01*
X36710278Y-62179763D01*
X36730189Y-62215064D01*
X36730672Y-62216138D01*
X36730673Y-62216139D01*
X36730674Y-62216141D01*
X36754626Y-62246713D01*
X36768208Y-62264050D01*
X36772218Y-62269499D01*
X36806800Y-62319600D01*
X36806801Y-62319601D01*
X36852364Y-62359966D01*
X36857291Y-62364604D01*
X37838394Y-63345707D01*
X37843032Y-63350634D01*
X37883399Y-63396199D01*
X37933503Y-63430783D01*
X37938943Y-63434786D01*
X37986859Y-63472326D01*
X37987490Y-63472610D01*
X37987916Y-63472802D01*
X38023240Y-63492724D01*
X38024196Y-63493384D01*
X38024197Y-63493384D01*
X38024198Y-63493385D01*
X38073968Y-63512260D01*
X38081111Y-63514969D01*
X38087349Y-63517553D01*
X38142870Y-63542541D01*
X38144018Y-63542751D01*
X38183077Y-63553640D01*
X38183389Y-63553758D01*
X38184164Y-63554052D01*
X38244584Y-63561388D01*
X38251273Y-63562406D01*
X38311151Y-63573380D01*
X38371925Y-63569703D01*
X38378668Y-63569500D01*
X43107735Y-63569500D01*
X43198844Y-63588866D01*
X43274199Y-63643615D01*
X43320772Y-63724280D01*
X43330508Y-63816914D01*
X43319165Y-63867482D01*
X43286302Y-63961397D01*
X43286302Y-63961399D01*
X43283448Y-63991838D01*
X43283448Y-66944227D01*
X43264082Y-67035336D01*
X43209333Y-67110691D01*
X43128668Y-67157264D01*
X43036034Y-67167000D01*
X42947448Y-67138217D01*
X42926435Y-67124459D01*
X42907039Y-67110145D01*
X42893033Y-67099808D01*
X42893031Y-67099807D01*
X42764852Y-67054955D01*
X42756154Y-67054139D01*
X42734417Y-67052101D01*
X40924085Y-67052101D01*
X40903796Y-67054003D01*
X40893650Y-67054955D01*
X40893648Y-67054955D01*
X40765472Y-67099806D01*
X40765469Y-67099807D01*
X40765469Y-67099808D01*
X40656201Y-67180451D01*
X40595737Y-67262378D01*
X40575556Y-67289722D01*
X40530705Y-67417898D01*
X40530705Y-67417900D01*
X40527851Y-67448339D01*
X40527851Y-70655662D01*
X40530705Y-70686101D01*
X40530705Y-70686103D01*
X40575556Y-70814279D01*
X40575557Y-70814280D01*
X40575558Y-70814283D01*
X40656201Y-70923551D01*
X40765469Y-71004194D01*
X40893652Y-71049047D01*
X40924085Y-71051901D01*
X40924095Y-71051901D01*
X42346002Y-71051901D01*
X42437111Y-71071267D01*
X42512466Y-71126016D01*
X42559039Y-71206681D01*
X42568775Y-71299315D01*
X42539992Y-71387901D01*
X42504394Y-71434293D01*
X42191795Y-71746892D01*
X42113677Y-71797622D01*
X42033403Y-71812500D01*
X37722598Y-71812500D01*
X37631489Y-71793134D01*
X37564206Y-71746892D01*
X35441108Y-69623794D01*
X35390378Y-69545676D01*
X35375500Y-69465402D01*
X35375500Y-46783002D01*
X45297505Y-46783002D01*
X45297505Y-47107517D01*
X45300354Y-47137906D01*
X45345155Y-47265942D01*
X45345159Y-47265950D01*
X45425711Y-47375092D01*
X45425713Y-47375094D01*
X45534855Y-47455646D01*
X45534861Y-47455649D01*
X45662895Y-47500450D01*
X45662904Y-47500452D01*
X45693292Y-47503301D01*
X45967004Y-47503301D01*
X45967004Y-46783002D01*
X45297505Y-46783002D01*
X35375500Y-46783002D01*
X35375500Y-44453597D01*
X35394866Y-44362488D01*
X35441108Y-44295205D01*
X36802205Y-42934108D01*
X36880323Y-42883378D01*
X36960597Y-42868500D01*
X39048071Y-42868500D01*
X39139180Y-42887866D01*
X39214535Y-42942615D01*
X39231561Y-42964019D01*
X39258953Y-43003139D01*
X39419861Y-43164047D01*
X39606266Y-43294568D01*
X39812504Y-43390739D01*
X39967005Y-43432137D01*
X40032300Y-43449633D01*
X40032304Y-43449634D01*
X40032308Y-43449635D01*
X40259000Y-43469468D01*
X40485692Y-43449635D01*
X40705496Y-43390739D01*
X40911734Y-43294568D01*
X41098139Y-43164047D01*
X41259047Y-43003139D01*
X41389568Y-42816734D01*
X41485739Y-42610496D01*
X41544635Y-42390692D01*
X41564468Y-42164000D01*
X41544635Y-41937308D01*
X41485739Y-41717504D01*
X41389568Y-41511266D01*
X41259047Y-41324861D01*
X41195097Y-41260911D01*
X41144368Y-41182794D01*
X41129797Y-41090797D01*
X41153905Y-41000826D01*
X41212522Y-40928439D01*
X41279511Y-40891089D01*
X41321643Y-40876346D01*
X41321648Y-40876344D01*
X41430790Y-40795792D01*
X41430792Y-40795790D01*
X41511344Y-40686648D01*
X41511347Y-40686642D01*
X41556148Y-40558608D01*
X41556148Y-40558607D01*
X41558999Y-40528198D01*
X41559000Y-40528192D01*
X41559000Y-39849000D01*
X40708753Y-39849000D01*
X40718493Y-39833844D01*
X40759000Y-39695889D01*
X40759000Y-39552111D01*
X40718493Y-39414156D01*
X40708753Y-39399000D01*
X41558999Y-39399000D01*
X41558999Y-38719805D01*
X41558998Y-38719784D01*
X41556149Y-38689395D01*
X41511348Y-38561359D01*
X41511344Y-38561351D01*
X41430792Y-38452209D01*
X41430790Y-38452207D01*
X41321648Y-38371655D01*
X41321642Y-38371652D01*
X41193607Y-38326851D01*
X41163198Y-38324000D01*
X40484000Y-38324000D01*
X40484000Y-39177081D01*
X40401315Y-39139320D01*
X40294763Y-39124000D01*
X40223237Y-39124000D01*
X40116685Y-39139320D01*
X40034000Y-39177081D01*
X40034000Y-38324000D01*
X39354805Y-38324000D01*
X39354784Y-38324001D01*
X39324395Y-38326850D01*
X39196359Y-38371651D01*
X39196351Y-38371655D01*
X39087209Y-38452207D01*
X39087207Y-38452209D01*
X39006655Y-38561351D01*
X39006652Y-38561357D01*
X38961851Y-38689391D01*
X38961851Y-38689392D01*
X38959000Y-38719801D01*
X38959000Y-39399000D01*
X39809247Y-39399000D01*
X39799507Y-39414156D01*
X39759000Y-39552111D01*
X39759000Y-39695889D01*
X39799507Y-39833844D01*
X39809247Y-39849000D01*
X38959001Y-39849000D01*
X38959001Y-40528215D01*
X38961850Y-40558604D01*
X39006651Y-40686640D01*
X39006655Y-40686648D01*
X39087207Y-40795790D01*
X39087209Y-40795792D01*
X39196351Y-40876344D01*
X39196354Y-40876346D01*
X39238489Y-40891089D01*
X39318090Y-40939459D01*
X39371135Y-41016023D01*
X39388453Y-41107543D01*
X39367048Y-41198195D01*
X39322902Y-41260911D01*
X39258953Y-41324860D01*
X39231562Y-41363980D01*
X39163441Y-41427505D01*
X39075371Y-41457830D01*
X39048071Y-41459500D01*
X36600673Y-41459500D01*
X36593932Y-41459296D01*
X36533151Y-41455620D01*
X36473271Y-41466592D01*
X36466586Y-41467610D01*
X36406166Y-41474947D01*
X36406165Y-41474947D01*
X36405061Y-41475366D01*
X36366031Y-41486246D01*
X36364874Y-41486457D01*
X36364866Y-41486460D01*
X36309355Y-41511443D01*
X36303106Y-41514031D01*
X36246199Y-41535614D01*
X36246195Y-41535616D01*
X36245219Y-41536290D01*
X36209944Y-41556184D01*
X36208867Y-41556668D01*
X36208859Y-41556673D01*
X36160949Y-41594208D01*
X36155502Y-41598216D01*
X36105400Y-41632799D01*
X36105396Y-41632803D01*
X36065033Y-41678363D01*
X36060396Y-41683289D01*
X34190289Y-43553396D01*
X34185363Y-43558033D01*
X34139803Y-43598396D01*
X34139799Y-43598400D01*
X34105216Y-43648502D01*
X34101208Y-43653949D01*
X34063673Y-43701859D01*
X34063668Y-43701867D01*
X34063184Y-43702944D01*
X34043290Y-43738219D01*
X34042616Y-43739195D01*
X34042614Y-43739199D01*
X34021031Y-43796106D01*
X34018443Y-43802355D01*
X33993460Y-43857866D01*
X33993457Y-43857874D01*
X33993246Y-43859031D01*
X33982366Y-43898061D01*
X33981947Y-43899165D01*
X33981947Y-43899166D01*
X33974610Y-43959586D01*
X33973592Y-43966271D01*
X33962840Y-44024951D01*
X33962620Y-44026151D01*
X33966296Y-44086925D01*
X33966500Y-44093668D01*
X33966500Y-69825331D01*
X33966296Y-69832073D01*
X33963809Y-69873197D01*
X33962620Y-69892848D01*
X30000500Y-69892848D01*
X30000500Y-36547000D01*
X45460501Y-36547000D01*
X45460501Y-37951015D01*
X45463350Y-37981404D01*
X45508151Y-38109440D01*
X45508155Y-38109448D01*
X45588707Y-38218590D01*
X45588709Y-38218592D01*
X45697851Y-38299144D01*
X45697857Y-38299147D01*
X45825892Y-38343948D01*
X45856304Y-38346799D01*
X46333200Y-38346799D01*
X46333200Y-36547000D01*
X46783200Y-36547000D01*
X46783200Y-38346799D01*
X47260095Y-38346799D01*
X47260115Y-38346798D01*
X47290504Y-38343949D01*
X47418540Y-38299148D01*
X47418548Y-38299144D01*
X47527690Y-38218592D01*
X47527692Y-38218590D01*
X47608244Y-38109448D01*
X47608247Y-38109442D01*
X47653048Y-37981408D01*
X47653048Y-37981407D01*
X47655899Y-37950998D01*
X47655900Y-37950992D01*
X47655900Y-36547000D01*
X46783200Y-36547000D01*
X46333200Y-36547000D01*
X45460501Y-36547000D01*
X30000500Y-36547000D01*
X30000500Y-36097000D01*
X45460500Y-36097000D01*
X46333200Y-36097000D01*
X46333200Y-34297200D01*
X46783200Y-34297200D01*
X46783200Y-36097000D01*
X47655899Y-36097000D01*
X47655899Y-34693005D01*
X47655898Y-34692984D01*
X47653049Y-34662595D01*
X47608248Y-34534559D01*
X47608244Y-34534551D01*
X47527692Y-34425409D01*
X47527690Y-34425407D01*
X47418548Y-34344855D01*
X47418542Y-34344852D01*
X47290507Y-34300051D01*
X47260098Y-34297200D01*
X46783200Y-34297200D01*
X46333200Y-34297200D01*
X45856305Y-34297200D01*
X45856284Y-34297201D01*
X45825895Y-34300050D01*
X45697859Y-34344851D01*
X45697851Y-34344855D01*
X45588709Y-34425407D01*
X45588707Y-34425409D01*
X45508155Y-34534551D01*
X45508152Y-34534557D01*
X45463351Y-34662591D01*
X45463351Y-34662592D01*
X45460500Y-34693001D01*
X45460500Y-36097000D01*
X30000500Y-36097000D01*
X30000500Y-25224500D01*
X30019866Y-25133391D01*
X30074615Y-25058036D01*
X30155280Y-25011463D01*
X30224500Y-25000500D01*
X114775500Y-25000500D01*
X114866609Y-25019866D01*
G37*
%TD.AperFunction*%
%TD*%
M02*
