<svg xmlns="http://www.w3.org/2000/svg" viewBox="0 0 43.434 40.132" width="43.434mm" height="40.132mm">
                    <g stroke-linecap="round">
                        <g><path fill-rule="evenodd" fill="#66cc99" stroke="#555555" stroke-width="0.0" opacity="0.6" d="M 10.933607866857558,6.724608948247283 L 9.817099053660542,7.751133834819779 L 8.794305677592769,8.871062962144926 L 7.8730129355933665,10.075872383011609 L 7.060232449156791,11.356392896575898 L 6.36214959093459,12.70287963473642 L 5.784076776931777,14.105084605120465 L 5.330413696440562,15.55233520550543 L 5.004613459002406,17.033617867458045 L 4.809154792826816,18.537659497409983 L 4.74552612956728,20.05301297570154 L 4.814211679157138,21.56814673956357 L 5.014688457437605,23.071529190067963 L 5.345430248660118,24.55171816799836 L 5.8039205287885665,25.99744849519871 L 6.386670406259999,27.39771659552093 L 7.089243428603381,28.741866816153244 L 7.906293348120749,30.019669002107964 L 8.831601960618853,31.221398146347614 L 9.858127833381042,32.337907945025506 L 10.978056966677919,33.36070132654706 L 12.182867396239907,34.281995073848485 L 13.463388917420417,35.09477656302829 L 14.809876647716402,35.79286041441654 L 14.809876661690772,35.79286042017761 L 13.463389930182158,35.09477657112852 L 12.182868396239817,34.28199507384843 L 10.97805796667792,33.36070132654706 L 9.85812885123226,32.33790796132842 L 8.831603975367814,31.221398165502563 L 7.906295348120749,30.019669002107964 L 7.089245428603381,28.741866816153244 L 6.38667242030479,27.397716622391165 L 5.803923534139693,25.9974485149343 L 5.345433244330347,24.551719151483326 L 5.014691455544427,23.07153117873305 L 4.814214678960547,21.568149735227124 L 4.745529129567281,20.05301597570154 L 4.8091577928268165,18.537662497409986 L 5.004616459002405,17.033620867458044 L 5.330416696440563,15.55233820550543 L 5.784079773187876,14.10508761706406 L 6.362152579412371,12.70288365982309 L 7.060235441056594,11.35639790933761 L 7.873015935593367,10.07587738301161 L 8.79430867887044,8.871067960474074 L 9.817101055208758,7.751139833396345 L 10.933609866857559,6.724614948247284 L 12.135338028789281,5.799306326534331 L 13.413139212341905,4.982256412213206 L 14.757288402836204,4.279683408614755 L 16.157555506258966,3.6969345265108644 L 17.60328386503163,3.238444240000591 L 19.083470832601964,2.9077024536512197 L 20.58685127058333,2.7072256785674096 L 22.101984024408072,2.638540129692078 L 23.617336529533176,2.7021687938379646 L 25.121377153219164,2.897626464179784 L 26.602658808774738,3.223426698951885 L 28.049908431797178,3.6770887904691993 L 29.452112367131143,4.25516059338674 L 30.79859807503849,4.953243432956428 L 32.07911760819143,5.766023928192973 L 33.28392604405889,6.687315683010236 L 34.40385416516501,7.710108053894878 L 35.43037804651314,8.826615860907777 L 36.35568566415483,10.028343015841932 L 37.17273457568177,11.306143191796542 L 37.875306591892716,12.650291401193396 L 38.45805547730353,14.05055751828672 L 38.916545759999394,15.496285865031556 L 39.24728754634878,16.976472832601964 L 39.447764321629165,18.479853272057518 L 39.51644987018314,19.994985024517863 L 39.45282120651716,21.510336523938342 L 39.257363537638454,23.014376142090097 L 38.93156330526823,24.495656792449804 L 38.47790121701878,25.942905410771743 L 37.89982940702328,27.34510836899881 L 37.20174755485818,28.691593095883533 L 36.388968076345265,29.97211159939441 L 35.467676329164746,31.176919030999453 L 34.444884944556655,32.29684616658868 L 33.32837714349842,33.32337004246208 L 32.12665097518301,34.2486766717238 L 30.84885177970815,35.06572559207204 L 29.50470458476174,35.76829759773779 L 28.10443850144896,36.351046469090164 L 26.658711149003924,36.809535757502765 L 25.176468042928636,37.14073720215377 L 25.128286693768203,37.149240067870615 L 25.12828779660368,37.14924012204945 L 25.17646758279702,37.14073808152229 L 26.658710149003923,36.80953675750276 L 28.10443753034979,36.35104745992473 L 29.5047036116322,35.768299583692865 L 30.848850779708147,35.06572759207204 L 32.12664997518301,34.248678671723795 L 33.32837616265333,33.32337202771315 L 34.44488397871095,32.2968491323248 L 35.46767634389466,31.176922011736572 L 36.38896809318748,29.97211457736921 L 37.20174858324393,28.691596046652943 L 37.899831432109686,27.34511131509058 L 38.47790422235638,25.942908390881747 L 38.9315663010481,24.49565880877486 L 39.257366543724984,23.01437711727941 L 39.45282520770583,21.510337492767064 L 39.51645387024551,19.994985025893985 L 39.44776832015499,18.479853239538507 L 39.247292539250225,16.97647280083342 L 38.916550759999396,15.496285865031556 L 38.458060473489134,14.050557506258949 L 37.87531158604771,12.650290390010818 L 37.172739575681774,11.30614219179654 L 36.35569066415483,10.02834201584193 L 35.43038303295285,8.826614843296573 L 34.40385914875248,7.710106038905874 L 33.28393102479586,6.687313665417969 L 32.07912258616632,5.766020914213032 L 30.798603075038493,4.953240432956412 L 29.45211734017697,4.2551575794124 L 28.049913382935912,3.6770847731878757 L 26.60266279449457,3.2234216964405626 L 25.12138012840867,2.8976214580933006 L 23.61733949836141,2.702162792649254 L 22.101986025784463,2.6385341296296714 L 20.586853266246944,2.7072196787639857 L 19.08347182126698,2.907696455544412 L 17.603283848516615,3.2384382443303616 L 16.157554485065816,3.6969285341396483 L 14.757286391653597,4.279677414459795 L 13.413137212341844,4.982250412213251 L 12.13533602878943,5.799300326534227 L 10.933607866857558,6.724608948247283 z" /><path fill-rule="evenodd" fill="#66cc99" stroke="#555555" stroke-width="0.0" opacity="0.6" d="M 16.21208159603894,36.37093321932428 L 17.305837828786494,36.713787788416056 L 16.212081596038907,36.370933219324264 L 15.177527931423635,35.9444282783403 L 16.21208159603894,36.37093321932428 z" /><path fill-rule="evenodd" fill="#66cc99" stroke="#555555" stroke-width="0.0" opacity="0.6" d="M 12.034167673832863,8.655690980975434 L 12.107003121100009,8.709709430229069 L 12.034167673832952,8.655690980975479 L 11.956388215231568,8.609071767575562 L 12.034167673832863,8.655690980975434 z" /><path fill-rule="evenodd" fill="#66cc99" stroke="#555555" stroke-width="0.0" opacity="0.6" d="M 12.235090569770932,8.837796878900006 L 12.17419311185956,8.770606888140424 L 12.17419311185953,8.770606888140396 L 12.235090569770962,8.83779687890005 L 12.28910901902452,8.910632326167091 L 12.335728232424438,8.988411784768433 L 12.28910901902452,8.910632326167063 L 12.235090569770932,8.837796878900006 z" /><path fill-rule="evenodd" fill="#66cc99" stroke="#555555" stroke-width="0.0" opacity="0.6" d="M 12.37449924146098,9.07038619599913 L 12.396782303647191,9.132663182807281 L 12.374499241461068,9.07038619599931 L 12.335728232424438,8.988411784768433 L 12.37449924146098,9.07038619599913 z" /><path fill-rule="evenodd" fill="#66cc99" stroke="#555555" stroke-width="0.0" opacity="0.6" d="M 12.440387907705128,9.333428496459723 L 12.444837400352954,9.424 L 12.440387907705158,9.333428496459872 L 12.433239002435803,9.285234491835787 L 12.440387907705128,9.333428496459723 z" /><path fill-rule="evenodd" fill="#66cc99" stroke="#555555" stroke-width="0.0" opacity="0.6" d="M 12.440387907705128,9.514571503540278 L 12.433239002435803,9.562765508164212 L 12.440387907705158,9.514571503540129 L 12.444837400352954,9.424 L 12.440387907705128,9.514571503540278 z" /><path fill-rule="evenodd" fill="#66cc99" stroke="#555555" stroke-width="0.0" opacity="0.6" d="M 12.37449924146098,9.77761380400087 L 12.335728232424438,9.859588215231568 L 12.374499241461068,9.77761380400069 L 12.396782303647191,9.715336817192718 L 12.37449924146098,9.77761380400087 z" /><path fill-rule="evenodd" fill="#66cc99" stroke="#555555" stroke-width="0.0" opacity="0.6" d="M 12.235090569770932,10.010203121099993 L 12.28910901902452,9.937367673832938 L 12.335728232424438,9.859588215231568 L 12.28910901902452,9.937367673832908 L 12.235090569770962,10.010203121099948 L 12.17419311185953,10.077393111859605 L 12.17419311185956,10.077393111859575 L 12.235090569770932,10.010203121099993 z" /><path fill-rule="evenodd" fill="#66cc99" stroke="#555555" stroke-width="0.0" opacity="0.6" d="M 12.034167673832863,10.192309019024567 L 11.956388215231568,10.238928232424438 L 12.034167673832952,10.19230901902452 L 12.107003121100009,10.138290569770932 L 12.034167673832863,10.192309019024567 z" /><path fill-rule="evenodd" fill="#66cc99" stroke="#555555" stroke-width="0.0" opacity="0.6" d="M 12.036767673832864,29.858290980975433 L 12.109603121100008,29.91230943022907 L 12.036767673832953,29.85829098097548 L 11.958988215231567,29.81167176757556 L 12.036767673832864,29.858290980975433 z" /><path fill-rule="evenodd" fill="#66cc99" stroke="#555555" stroke-width="0.0" opacity="0.6" d="M 12.237690569770932,30.040396878900005 L 12.17679311185956,29.973206888140425 L 12.17679311185953,29.973206888140396 L 12.237690569770962,30.04039687890005 L 12.291709019024522,30.113232326167093 L 12.338328232424438,30.19101178476843 L 12.291709019024522,30.11323232616706 L 12.237690569770932,30.040396878900005 z" /><path fill-rule="evenodd" fill="#66cc99" stroke="#555555" stroke-width="0.0" opacity="0.6" d="M 12.377099241460979,30.27298619599913 L 12.39938230364719,30.33526318280728 L 12.37709924146107,30.27298619599931 L 12.338328232424438,30.19101178476843 L 12.377099241460979,30.27298619599913 z" /><path fill-rule="evenodd" fill="#66cc99" stroke="#555555" stroke-width="0.0" opacity="0.6" d="M 12.442987907705128,30.53602849645972 L 12.447437400352955,30.6266 L 12.442987907705158,30.53602849645987 L 12.435839002435804,30.487834491835788 L 12.442987907705128,30.53602849645972 z" /><path fill-rule="evenodd" fill="#66cc99" stroke="#555555" stroke-width="0.0" opacity="0.6" d="M 12.442987907705128,30.71717150354028 L 12.435839002435804,30.765365508164212 L 12.442987907705158,30.71717150354013 L 12.447437400352955,30.6266 L 12.442987907705128,30.71717150354028 z" /><path fill-rule="evenodd" fill="#66cc99" stroke="#555555" stroke-width="0.0" opacity="0.6" d="M 12.377099241460979,30.98021380400087 L 12.338328232424438,31.06218821523157 L 12.37709924146107,30.98021380400069 L 12.39938230364719,30.917936817192718 L 12.377099241460979,30.98021380400087 z" /><path fill-rule="evenodd" fill="#66cc99" stroke="#555555" stroke-width="0.0" opacity="0.6" d="M 12.237690569770932,31.212803121099995 L 12.291709019024522,31.13996767383294 L 12.338328232424438,31.06218821523157 L 12.291709019024522,31.13996767383291 L 12.237690569770962,31.21280312109995 L 12.17679311185953,31.279993111859604 L 12.17679311185956,31.279993111859575 L 12.237690569770932,31.212803121099995 z" /><path fill-rule="evenodd" fill="#66cc99" stroke="#555555" stroke-width="0.0" opacity="0.6" d="M 12.036767673832864,31.394909019024567 L 11.958988215231567,31.44152823242444 L 12.036767673832953,31.39490901902452 L 12.109603121100008,31.34089056977093 L 12.036767673832864,31.394909019024567 z" /></g>
                    </g>
                    </svg>