%TF.GenerationSoftware,KiCad,Pcbnew,7.0.10*%
%TF.CreationDate,2024-03-26T17:03:31-04:00*%
%TF.ProjectId,robot_application_v2_KiCAD7,726f626f-745f-4617-9070-6c6963617469,rev?*%
%TF.SameCoordinates,Original*%
%TF.FileFunction,Copper,L1,Top*%
%TF.FilePolarity,Positive*%
%FSLAX46Y46*%
G04 Gerber Fmt 4.6, Leading zero omitted, Abs format (unit mm)*
G04 Created by KiCad (PCBNEW 7.0.10) date 2024-03-26 17:03:31*
%MOMM*%
%LPD*%
G01*
G04 APERTURE LIST*
G04 Aperture macros list*
%AMRoundRect*
0 Rectangle with rounded corners*
0 $1 Rounding radius*
0 $2 $3 $4 $5 $6 $7 $8 $9 X,Y pos of 4 corners*
0 Add a 4 corners polygon primitive as box body*
4,1,4,$2,$3,$4,$5,$6,$7,$8,$9,$2,$3,0*
0 Add four circle primitives for the rounded corners*
1,1,$1+$1,$2,$3*
1,1,$1+$1,$4,$5*
1,1,$1+$1,$6,$7*
1,1,$1+$1,$8,$9*
0 Add four rect primitives between the rounded corners*
20,1,$1+$1,$2,$3,$4,$5,0*
20,1,$1+$1,$4,$5,$6,$7,0*
20,1,$1+$1,$6,$7,$8,$9,0*
20,1,$1+$1,$8,$9,$2,$3,0*%
G04 Aperture macros list end*
%TA.AperFunction,SMDPad,CuDef*%
%ADD10R,5.511800X0.990600*%
%TD*%
%TA.AperFunction,SMDPad,CuDef*%
%ADD11R,3.098800X1.701800*%
%TD*%
%TA.AperFunction,SMDPad,CuDef*%
%ADD12RoundRect,0.150000X-0.150000X0.587500X-0.150000X-0.587500X0.150000X-0.587500X0.150000X0.587500X0*%
%TD*%
%TA.AperFunction,SMDPad,CuDef*%
%ADD13RoundRect,0.250000X0.262500X0.450000X-0.262500X0.450000X-0.262500X-0.450000X0.262500X-0.450000X0*%
%TD*%
%TA.AperFunction,SMDPad,CuDef*%
%ADD14RoundRect,0.250000X0.475000X-0.250000X0.475000X0.250000X-0.475000X0.250000X-0.475000X-0.250000X0*%
%TD*%
%TA.AperFunction,SMDPad,CuDef*%
%ADD15R,1.549400X0.533400*%
%TD*%
%TA.AperFunction,Conductor*%
%ADD16C,0.500000*%
%TD*%
G04 APERTURE END LIST*
D10*
%TO.P,J1,1,1*%
%TO.N,/Vin*%
X53937247Y-28815818D03*
%TO.P,J1,2,2*%
%TO.N,GND*%
X53937247Y-26275818D03*
D11*
%TO.P,J1,3*%
%TO.N,N/C*%
X51730246Y-30945816D03*
%TO.P,J1,4*%
X51730246Y-24145820D03*
%TD*%
D12*
%TO.P,Q1,1,G*%
%TO.N,/signal*%
X44130000Y-37162500D03*
%TO.P,Q1,2,S*%
%TO.N,GND*%
X42230000Y-37162500D03*
%TO.P,Q1,3,D*%
%TO.N,Net-(Q1-D)*%
X43180000Y-39037500D03*
%TD*%
D13*
%TO.P,R2,1*%
%TO.N,/signal*%
X44092500Y-34544000D03*
%TO.P,R2,2*%
%TO.N,GND*%
X42267500Y-34544000D03*
%TD*%
D14*
%TO.P,C3,2*%
%TO.N,GND*%
X43180000Y-29657000D03*
%TO.P,C3,1*%
%TO.N,/Vin*%
X43180000Y-31557000D03*
%TD*%
D10*
%TO.P,J2,1,1*%
%TO.N,/Vin*%
X53961866Y-38442408D03*
%TO.P,J2,2,2*%
%TO.N,Net-(Q1-D)*%
X53961866Y-35902408D03*
D11*
%TO.P,J2,3*%
%TO.N,N/C*%
X51754865Y-40572406D03*
%TO.P,J2,4*%
X51754865Y-33772410D03*
%TD*%
D15*
%TO.P,U1,1,PB5*%
%TO.N,unconnected-(U1-PB5-Pad1)*%
X31343600Y-31623000D03*
%TO.P,U1,2,PB3*%
%TO.N,/analog_read*%
X31343600Y-32893000D03*
%TO.P,U1,3,PB4*%
%TO.N,unconnected-(U1-PB4-Pad3)*%
X31343600Y-34163000D03*
%TO.P,U1,4,GND*%
%TO.N,GND*%
X31343600Y-35433000D03*
%TO.P,U1,5,PB0*%
%TO.N,unconnected-(U1-PB0-Pad5)*%
X38760400Y-35433000D03*
%TO.P,U1,6,PB1*%
%TO.N,/buzzer*%
X38760400Y-34163000D03*
%TO.P,U1,7,PB2*%
%TO.N,/signal*%
X38760400Y-32893000D03*
%TO.P,U1,8,VCC*%
%TO.N,/Vin*%
X38760400Y-31623000D03*
%TD*%
D16*
%TO.N,/Vin*%
X45151000Y-31557000D02*
X43180000Y-31557000D01*
X47892182Y-28815818D02*
X45151000Y-31557000D01*
X38826400Y-31557000D02*
X38760400Y-31623000D01*
X43180000Y-31557000D02*
X38826400Y-31557000D01*
X53961866Y-38442408D02*
X56222466Y-38442408D01*
X57404000Y-29972000D02*
X56247818Y-28815818D01*
X57404000Y-37260874D02*
X57404000Y-29972000D01*
X56247818Y-28815818D02*
X53937247Y-28815818D01*
X47892182Y-28815818D02*
X53937247Y-28815818D01*
X56222466Y-38442408D02*
X57404000Y-37260874D01*
%TO.N,/signal*%
X44092500Y-37125000D02*
X44130000Y-37162500D01*
X43053000Y-32893000D02*
X44092500Y-33932500D01*
X38760400Y-32893000D02*
X43053000Y-32893000D01*
X44092500Y-34544000D02*
X44092500Y-37125000D01*
X44092500Y-33932500D02*
X44092500Y-34544000D01*
%TO.N,Net-(Q1-D)*%
X43180000Y-39037500D02*
X46814500Y-39037500D01*
X46814500Y-39037500D02*
X49949592Y-35902408D01*
X49949592Y-35902408D02*
X53961866Y-35902408D01*
%TD*%
%TA.AperFunction,Conductor*%
%TO.N,GND*%
G36*
X58878539Y-22364185D02*
G01*
X58924294Y-22416989D01*
X58935500Y-22468500D01*
X58935500Y-43571500D01*
X58915815Y-43638539D01*
X58863011Y-43684294D01*
X58811500Y-43695500D01*
X27548500Y-43695500D01*
X27481461Y-43675815D01*
X27435706Y-43623011D01*
X27424500Y-43571500D01*
X27424500Y-37412500D01*
X41530000Y-37412500D01*
X41530000Y-37793053D01*
X41540613Y-37881443D01*
X41596079Y-38022095D01*
X41687435Y-38142564D01*
X41807904Y-38233920D01*
X41948557Y-38289386D01*
X41980000Y-38293161D01*
X41980000Y-37412500D01*
X41530000Y-37412500D01*
X27424500Y-37412500D01*
X27424500Y-36912500D01*
X41530000Y-36912500D01*
X41980000Y-36912500D01*
X41980000Y-36031836D01*
X42480000Y-36031836D01*
X42480000Y-36912500D01*
X42930000Y-36912500D01*
X42930000Y-36531946D01*
X42919386Y-36443556D01*
X42863920Y-36302904D01*
X42772564Y-36182435D01*
X42652093Y-36091078D01*
X42652091Y-36091077D01*
X42511447Y-36035614D01*
X42480000Y-36031836D01*
X41980000Y-36031836D01*
X41948552Y-36035614D01*
X41807908Y-36091077D01*
X41807906Y-36091078D01*
X41687435Y-36182435D01*
X41596079Y-36302904D01*
X41540613Y-36443556D01*
X41530000Y-36531946D01*
X41530000Y-36912500D01*
X27424500Y-36912500D01*
X27424500Y-35683000D01*
X30168901Y-35683000D01*
X30168901Y-35731179D01*
X30183735Y-35824849D01*
X30183737Y-35824855D01*
X30241256Y-35937741D01*
X30241263Y-35937750D01*
X30330849Y-36027336D01*
X30330853Y-36027339D01*
X30443755Y-36084866D01*
X30537414Y-36099699D01*
X31093599Y-36099699D01*
X31093600Y-36099698D01*
X31093600Y-35683000D01*
X31593600Y-35683000D01*
X31593600Y-36099699D01*
X32149779Y-36099699D01*
X32243449Y-36084864D01*
X32243455Y-36084862D01*
X32356341Y-36027343D01*
X32356350Y-36027336D01*
X32445936Y-35937750D01*
X32445939Y-35937746D01*
X32503466Y-35824844D01*
X32518295Y-35731217D01*
X37585200Y-35731217D01*
X37595992Y-35799357D01*
X37600054Y-35825004D01*
X37657650Y-35938042D01*
X37657652Y-35938044D01*
X37657654Y-35938047D01*
X37747352Y-36027745D01*
X37747354Y-36027746D01*
X37747358Y-36027750D01*
X37859446Y-36084862D01*
X37860398Y-36085347D01*
X37947816Y-36099191D01*
X37951011Y-36099698D01*
X37954175Y-36100199D01*
X37954181Y-36100200D01*
X39566618Y-36100199D01*
X39660404Y-36085346D01*
X39773442Y-36027750D01*
X39863150Y-35938042D01*
X39920746Y-35825004D01*
X39920746Y-35825002D01*
X39920747Y-35825001D01*
X39935599Y-35731224D01*
X39935600Y-35731219D01*
X39935599Y-35134782D01*
X39920746Y-35040996D01*
X39863150Y-34927958D01*
X39863146Y-34927954D01*
X39863145Y-34927952D01*
X39820874Y-34885681D01*
X39787389Y-34824358D01*
X39789560Y-34794000D01*
X41355000Y-34794000D01*
X41355000Y-35059649D01*
X41357899Y-35096489D01*
X41357900Y-35096495D01*
X41403716Y-35254193D01*
X41403717Y-35254196D01*
X41487314Y-35395552D01*
X41487321Y-35395561D01*
X41603438Y-35511678D01*
X41603447Y-35511685D01*
X41744803Y-35595282D01*
X41744806Y-35595283D01*
X41902504Y-35641099D01*
X41902510Y-35641100D01*
X41939350Y-35643999D01*
X41939366Y-35644000D01*
X42017500Y-35644000D01*
X42017500Y-34794000D01*
X41355000Y-34794000D01*
X39789560Y-34794000D01*
X39792373Y-34754666D01*
X39820874Y-34710319D01*
X39863145Y-34668047D01*
X39863150Y-34668042D01*
X39920746Y-34555004D01*
X39920746Y-34555002D01*
X39920747Y-34555001D01*
X39935599Y-34461224D01*
X39935600Y-34461219D01*
X39935599Y-33864782D01*
X39920746Y-33770996D01*
X39896694Y-33723792D01*
X39883799Y-33655126D01*
X39910075Y-33590385D01*
X39967182Y-33550128D01*
X40007180Y-33543500D01*
X41358007Y-33543500D01*
X41425046Y-33563185D01*
X41470801Y-33615989D01*
X41480745Y-33685147D01*
X41464739Y-33730621D01*
X41403717Y-33833803D01*
X41403716Y-33833806D01*
X41357900Y-33991504D01*
X41357899Y-33991510D01*
X41355000Y-34028350D01*
X41355000Y-34294000D01*
X42393500Y-34294000D01*
X42460539Y-34313685D01*
X42506294Y-34366489D01*
X42517500Y-34418000D01*
X42517500Y-35644000D01*
X42595634Y-35644000D01*
X42595649Y-35643999D01*
X42632489Y-35641100D01*
X42632495Y-35641099D01*
X42790193Y-35595283D01*
X42790196Y-35595282D01*
X42931552Y-35511685D01*
X42931561Y-35511678D01*
X43047678Y-35395561D01*
X43047682Y-35395555D01*
X43072976Y-35352786D01*
X43124045Y-35305102D01*
X43192786Y-35292597D01*
X43257376Y-35319242D01*
X43286441Y-35352784D01*
X43311919Y-35395865D01*
X43311921Y-35395867D01*
X43311923Y-35395870D01*
X43405681Y-35489628D01*
X43439166Y-35550951D01*
X43442000Y-35577309D01*
X43442000Y-36420580D01*
X43440161Y-36435433D01*
X43441071Y-36435543D01*
X43440123Y-36443435D01*
X43440123Y-36443436D01*
X43429500Y-36531898D01*
X43429500Y-36531903D01*
X43429500Y-36531904D01*
X43429500Y-37775500D01*
X43409815Y-37842539D01*
X43357011Y-37888294D01*
X43305500Y-37899500D01*
X43054000Y-37899500D01*
X42986961Y-37879815D01*
X42941206Y-37827011D01*
X42930000Y-37775500D01*
X42930000Y-37412500D01*
X42480000Y-37412500D01*
X42480000Y-38319188D01*
X42480411Y-38319845D01*
X42484150Y-38368169D01*
X42481889Y-38387000D01*
X42479500Y-38406898D01*
X42479500Y-39668102D01*
X42482161Y-39690259D01*
X42490122Y-39756561D01*
X42545639Y-39897343D01*
X42637077Y-40017922D01*
X42757656Y-40109360D01*
X42757657Y-40109360D01*
X42757658Y-40109361D01*
X42898436Y-40164877D01*
X42986898Y-40175500D01*
X42986903Y-40175500D01*
X43373097Y-40175500D01*
X43373102Y-40175500D01*
X43461564Y-40164877D01*
X43602342Y-40109361D01*
X43722922Y-40017922D01*
X43814361Y-39897342D01*
X43865955Y-39766507D01*
X43908860Y-39711366D01*
X43974768Y-39688173D01*
X43981309Y-39688000D01*
X46728995Y-39688000D01*
X46745005Y-39689767D01*
X46745028Y-39689526D01*
X46752789Y-39690258D01*
X46752796Y-39690260D01*
X46822762Y-39688060D01*
X46826657Y-39688000D01*
X46855425Y-39688000D01*
X46859787Y-39687448D01*
X46871439Y-39686530D01*
X46917069Y-39685097D01*
X46937456Y-39679173D01*
X46956496Y-39675231D01*
X46977558Y-39672571D01*
X47020020Y-39655758D01*
X47031057Y-39651980D01*
X47074898Y-39639244D01*
X47093165Y-39628439D01*
X47110636Y-39619880D01*
X47130371Y-39612068D01*
X47167316Y-39585225D01*
X47177058Y-39578826D01*
X47216365Y-39555581D01*
X47231370Y-39540575D01*
X47246168Y-39527936D01*
X47263337Y-39515463D01*
X47292446Y-39480274D01*
X47300290Y-39471654D01*
X50182719Y-36589227D01*
X50244042Y-36555742D01*
X50270400Y-36552908D01*
X50759566Y-36552908D01*
X50826605Y-36572593D01*
X50870049Y-36620611D01*
X50877916Y-36636050D01*
X50877918Y-36636052D01*
X50877920Y-36636055D01*
X50967618Y-36725753D01*
X50967620Y-36725754D01*
X50967624Y-36725758D01*
X51080662Y-36783354D01*
X51080664Y-36783355D01*
X51174441Y-36798207D01*
X51174447Y-36798208D01*
X56629500Y-36798207D01*
X56696539Y-36817892D01*
X56742294Y-36870696D01*
X56753500Y-36922207D01*
X56753500Y-36940065D01*
X56733815Y-37007104D01*
X56717181Y-37027746D01*
X56234638Y-37510289D01*
X56173315Y-37543774D01*
X56146957Y-37546608D01*
X51174448Y-37546608D01*
X51093485Y-37559431D01*
X51080662Y-37561462D01*
X50967624Y-37619058D01*
X50967623Y-37619059D01*
X50967618Y-37619062D01*
X50877920Y-37708760D01*
X50877917Y-37708765D01*
X50877916Y-37708766D01*
X50874719Y-37715041D01*
X50820318Y-37821806D01*
X50805466Y-37915583D01*
X50805466Y-38969225D01*
X50820320Y-39063012D01*
X50859910Y-39140712D01*
X50872806Y-39209381D01*
X50846529Y-39274121D01*
X50789423Y-39314378D01*
X50749425Y-39321006D01*
X50173947Y-39321006D01*
X50092984Y-39333829D01*
X50080161Y-39335860D01*
X49967123Y-39393456D01*
X49967122Y-39393457D01*
X49967117Y-39393460D01*
X49877419Y-39483158D01*
X49877416Y-39483163D01*
X49819817Y-39596204D01*
X49804965Y-39689981D01*
X49804965Y-41454823D01*
X49815757Y-41522963D01*
X49819819Y-41548610D01*
X49877415Y-41661648D01*
X49877417Y-41661650D01*
X49877419Y-41661653D01*
X49967117Y-41751351D01*
X49967119Y-41751352D01*
X49967123Y-41751356D01*
X50080159Y-41808951D01*
X50080163Y-41808953D01*
X50173940Y-41823805D01*
X50173946Y-41823806D01*
X53335783Y-41823805D01*
X53429569Y-41808952D01*
X53542607Y-41751356D01*
X53632315Y-41661648D01*
X53689911Y-41548610D01*
X53689911Y-41548608D01*
X53689912Y-41548607D01*
X53704764Y-41454830D01*
X53704765Y-41454825D01*
X53704764Y-39689988D01*
X53689911Y-39596202D01*
X53650319Y-39518499D01*
X53637424Y-39449833D01*
X53663700Y-39385092D01*
X53720807Y-39344835D01*
X53760805Y-39338207D01*
X56749283Y-39338207D01*
X56749284Y-39338207D01*
X56843070Y-39323354D01*
X56956108Y-39265758D01*
X57045816Y-39176050D01*
X57103412Y-39063012D01*
X57103412Y-39063010D01*
X57103413Y-39063009D01*
X57118265Y-38969232D01*
X57118266Y-38969227D01*
X57118265Y-38517914D01*
X57137949Y-38450876D01*
X57154579Y-38430239D01*
X57803513Y-37781305D01*
X57816079Y-37771239D01*
X57815925Y-37771052D01*
X57821933Y-37766079D01*
X57821940Y-37766076D01*
X57845227Y-37741276D01*
X57869865Y-37715041D01*
X57872578Y-37712241D01*
X57876059Y-37708760D01*
X57892911Y-37691909D01*
X57895606Y-37688434D01*
X57903199Y-37679543D01*
X57934448Y-37646267D01*
X57944674Y-37627664D01*
X57955353Y-37611407D01*
X57968362Y-37594638D01*
X57986491Y-37552740D01*
X57991620Y-37542269D01*
X58013627Y-37502242D01*
X58018905Y-37481680D01*
X58025207Y-37463273D01*
X58033635Y-37443801D01*
X58040777Y-37398699D01*
X58043140Y-37387292D01*
X58054500Y-37343051D01*
X58054500Y-37321823D01*
X58056027Y-37302423D01*
X58059346Y-37281469D01*
X58055050Y-37236021D01*
X58054500Y-37224352D01*
X58054500Y-30057501D01*
X58056268Y-30041488D01*
X58056026Y-30041466D01*
X58056758Y-30033710D01*
X58056760Y-30033703D01*
X58054561Y-29963735D01*
X58054500Y-29959840D01*
X58054500Y-29931077D01*
X58054499Y-29931070D01*
X58053949Y-29926716D01*
X58053030Y-29915054D01*
X58052303Y-29891912D01*
X58051597Y-29869430D01*
X58045676Y-29849052D01*
X58041731Y-29830003D01*
X58039071Y-29808942D01*
X58022261Y-29766487D01*
X58018481Y-29755445D01*
X58007674Y-29718245D01*
X58005744Y-29711601D01*
X58004365Y-29709270D01*
X57995581Y-29694417D01*
X57994939Y-29693332D01*
X57986379Y-29675858D01*
X57984662Y-29671521D01*
X57978568Y-29656129D01*
X57951737Y-29619199D01*
X57945323Y-29609435D01*
X57922082Y-29570137D01*
X57922081Y-29570135D01*
X57907075Y-29555129D01*
X57894435Y-29540330D01*
X57881961Y-29523160D01*
X57846780Y-29494056D01*
X57838140Y-29486194D01*
X57129965Y-28778019D01*
X57096480Y-28716696D01*
X57093646Y-28690338D01*
X57093646Y-28289000D01*
X57090334Y-28268087D01*
X57078793Y-28195214D01*
X57021197Y-28082176D01*
X57021193Y-28082172D01*
X57021192Y-28082170D01*
X56931494Y-27992472D01*
X56931491Y-27992470D01*
X56931489Y-27992468D01*
X56854664Y-27953323D01*
X56818448Y-27934870D01*
X56724671Y-27920018D01*
X51149829Y-27920018D01*
X51068866Y-27932841D01*
X51056043Y-27934872D01*
X50943005Y-27992468D01*
X50943004Y-27992469D01*
X50942999Y-27992472D01*
X50853301Y-28082170D01*
X50853298Y-28082175D01*
X50853297Y-28082176D01*
X50845430Y-28097614D01*
X50797457Y-28148409D01*
X50734947Y-28165318D01*
X47977688Y-28165318D01*
X47961677Y-28163550D01*
X47961655Y-28163792D01*
X47953888Y-28163057D01*
X47883906Y-28165257D01*
X47880011Y-28165318D01*
X47851257Y-28165318D01*
X47851251Y-28165318D01*
X47851245Y-28165319D01*
X47846881Y-28165870D01*
X47835251Y-28166785D01*
X47789615Y-28168219D01*
X47775055Y-28172448D01*
X47769222Y-28174143D01*
X47750178Y-28178087D01*
X47729124Y-28180747D01*
X47729122Y-28180747D01*
X47686678Y-28197551D01*
X47675632Y-28201333D01*
X47631783Y-28214072D01*
X47613507Y-28224881D01*
X47596042Y-28233437D01*
X47576306Y-28241251D01*
X47539369Y-28268087D01*
X47529610Y-28274498D01*
X47490318Y-28297735D01*
X47475306Y-28312747D01*
X47460518Y-28325376D01*
X47443349Y-28337850D01*
X47443347Y-28337852D01*
X47414238Y-28373037D01*
X47406378Y-28381674D01*
X44917873Y-30870181D01*
X44856550Y-30903666D01*
X44830192Y-30906500D01*
X44225809Y-30906500D01*
X44158770Y-30886815D01*
X44138128Y-30870181D01*
X44056870Y-30788923D01*
X44056861Y-30788916D01*
X43929239Y-30713441D01*
X43881555Y-30662372D01*
X43869052Y-30593630D01*
X43895697Y-30529041D01*
X43929240Y-30499977D01*
X44056550Y-30424687D01*
X44056561Y-30424678D01*
X44172678Y-30308561D01*
X44172685Y-30308552D01*
X44256282Y-30167196D01*
X44256283Y-30167193D01*
X44302099Y-30009495D01*
X44302100Y-30009489D01*
X44304999Y-29972649D01*
X44305000Y-29972634D01*
X44305000Y-29907000D01*
X42055000Y-29907000D01*
X42055000Y-29972649D01*
X42057899Y-30009489D01*
X42057900Y-30009495D01*
X42103716Y-30167193D01*
X42103717Y-30167196D01*
X42187314Y-30308552D01*
X42187321Y-30308561D01*
X42303438Y-30424678D01*
X42303446Y-30424684D01*
X42430760Y-30499977D01*
X42478443Y-30551046D01*
X42490947Y-30619787D01*
X42464302Y-30684377D01*
X42430760Y-30713441D01*
X42303138Y-30788916D01*
X42303129Y-30788923D01*
X42221872Y-30870181D01*
X42160549Y-30903666D01*
X42134191Y-30906500D01*
X38911904Y-30906500D01*
X38895893Y-30904732D01*
X38895871Y-30904974D01*
X38888104Y-30904240D01*
X38888103Y-30904240D01*
X38859627Y-30905135D01*
X38818137Y-30906439D01*
X38814242Y-30906500D01*
X38785475Y-30906500D01*
X38785472Y-30906500D01*
X38785457Y-30906501D01*
X38781087Y-30907053D01*
X38769459Y-30907968D01*
X38723835Y-30909402D01*
X38723825Y-30909404D01*
X38703449Y-30915323D01*
X38684408Y-30919266D01*
X38663353Y-30921926D01*
X38663337Y-30921930D01*
X38620891Y-30938735D01*
X38609847Y-30942516D01*
X38581079Y-30950875D01*
X38546480Y-30955800D01*
X37954182Y-30955800D01*
X37873219Y-30968623D01*
X37860396Y-30970654D01*
X37747358Y-31028250D01*
X37747357Y-31028251D01*
X37747352Y-31028254D01*
X37657654Y-31117952D01*
X37657651Y-31117957D01*
X37600052Y-31230998D01*
X37585200Y-31324775D01*
X37585200Y-31921217D01*
X37595992Y-31989357D01*
X37600054Y-32015004D01*
X37657650Y-32128042D01*
X37657652Y-32128044D01*
X37657654Y-32128047D01*
X37699926Y-32170319D01*
X37733411Y-32231642D01*
X37728427Y-32301334D01*
X37699926Y-32345681D01*
X37657654Y-32387952D01*
X37657651Y-32387957D01*
X37657650Y-32387958D01*
X37647059Y-32408744D01*
X37600052Y-32500998D01*
X37585200Y-32594775D01*
X37585200Y-33191217D01*
X37595992Y-33259357D01*
X37600054Y-33285004D01*
X37657650Y-33398042D01*
X37657652Y-33398044D01*
X37657654Y-33398047D01*
X37699926Y-33440319D01*
X37733411Y-33501642D01*
X37728427Y-33571334D01*
X37699926Y-33615681D01*
X37657654Y-33657952D01*
X37657651Y-33657957D01*
X37657650Y-33657958D01*
X37640239Y-33692129D01*
X37600052Y-33770998D01*
X37585200Y-33864775D01*
X37585200Y-34461217D01*
X37595992Y-34529357D01*
X37600054Y-34555004D01*
X37657650Y-34668042D01*
X37657652Y-34668044D01*
X37657654Y-34668047D01*
X37699926Y-34710319D01*
X37733411Y-34771642D01*
X37728427Y-34841334D01*
X37699926Y-34885681D01*
X37657654Y-34927952D01*
X37657651Y-34927957D01*
X37657650Y-34927958D01*
X37654511Y-34934119D01*
X37600052Y-35040998D01*
X37585200Y-35134775D01*
X37585200Y-35731217D01*
X32518295Y-35731217D01*
X32518300Y-35731186D01*
X32518300Y-35683000D01*
X31593600Y-35683000D01*
X31093600Y-35683000D01*
X30168901Y-35683000D01*
X27424500Y-35683000D01*
X27424500Y-34461217D01*
X30168400Y-34461217D01*
X30179192Y-34529357D01*
X30183254Y-34555004D01*
X30240850Y-34668042D01*
X30240852Y-34668044D01*
X30240854Y-34668047D01*
X30283479Y-34710672D01*
X30316964Y-34771995D01*
X30311980Y-34841687D01*
X30283479Y-34886034D01*
X30241263Y-34928249D01*
X30241260Y-34928253D01*
X30183733Y-35041155D01*
X30168900Y-35134813D01*
X30168900Y-35183000D01*
X32518299Y-35183000D01*
X32518299Y-35134820D01*
X32503464Y-35041150D01*
X32503462Y-35041144D01*
X32445943Y-34928258D01*
X32445936Y-34928249D01*
X32403721Y-34886034D01*
X32370236Y-34824711D01*
X32375220Y-34755019D01*
X32403721Y-34710672D01*
X32446345Y-34668047D01*
X32446350Y-34668042D01*
X32503946Y-34555004D01*
X32503946Y-34555002D01*
X32503947Y-34555001D01*
X32518799Y-34461224D01*
X32518800Y-34461219D01*
X32518799Y-33864782D01*
X32503946Y-33770996D01*
X32446350Y-33657958D01*
X32446346Y-33657954D01*
X32446345Y-33657952D01*
X32404074Y-33615681D01*
X32370589Y-33554358D01*
X32375573Y-33484666D01*
X32404074Y-33440319D01*
X32446345Y-33398047D01*
X32446350Y-33398042D01*
X32503946Y-33285004D01*
X32503946Y-33285002D01*
X32503947Y-33285001D01*
X32518799Y-33191224D01*
X32518800Y-33191219D01*
X32518799Y-32594782D01*
X32503946Y-32500996D01*
X32446350Y-32387958D01*
X32446346Y-32387954D01*
X32446345Y-32387952D01*
X32404074Y-32345681D01*
X32370589Y-32284358D01*
X32375573Y-32214666D01*
X32404074Y-32170319D01*
X32446345Y-32128047D01*
X32446350Y-32128042D01*
X32503946Y-32015004D01*
X32503946Y-32015002D01*
X32503947Y-32015001D01*
X32518673Y-31922018D01*
X32518800Y-31921219D01*
X32518799Y-31324782D01*
X32503946Y-31230996D01*
X32446350Y-31117958D01*
X32446346Y-31117954D01*
X32446345Y-31117952D01*
X32356647Y-31028254D01*
X32356644Y-31028252D01*
X32356642Y-31028250D01*
X32279817Y-30989105D01*
X32243601Y-30970652D01*
X32149824Y-30955800D01*
X30537382Y-30955800D01*
X30456419Y-30968623D01*
X30443596Y-30970654D01*
X30330558Y-31028250D01*
X30330557Y-31028251D01*
X30330552Y-31028254D01*
X30240854Y-31117952D01*
X30240851Y-31117957D01*
X30183252Y-31230998D01*
X30168400Y-31324775D01*
X30168400Y-31921217D01*
X30179192Y-31989357D01*
X30183254Y-32015004D01*
X30240850Y-32128042D01*
X30240852Y-32128044D01*
X30240854Y-32128047D01*
X30283126Y-32170319D01*
X30316611Y-32231642D01*
X30311627Y-32301334D01*
X30283126Y-32345681D01*
X30240854Y-32387952D01*
X30240851Y-32387957D01*
X30240850Y-32387958D01*
X30230259Y-32408744D01*
X30183252Y-32500998D01*
X30168400Y-32594775D01*
X30168400Y-33191217D01*
X30179192Y-33259357D01*
X30183254Y-33285004D01*
X30240850Y-33398042D01*
X30240852Y-33398044D01*
X30240854Y-33398047D01*
X30283126Y-33440319D01*
X30316611Y-33501642D01*
X30311627Y-33571334D01*
X30283126Y-33615681D01*
X30240854Y-33657952D01*
X30240851Y-33657957D01*
X30240850Y-33657958D01*
X30223439Y-33692129D01*
X30183252Y-33770998D01*
X30168400Y-33864775D01*
X30168400Y-34461217D01*
X27424500Y-34461217D01*
X27424500Y-29407000D01*
X42055000Y-29407000D01*
X42930000Y-29407000D01*
X42930000Y-28757000D01*
X43430000Y-28757000D01*
X43430000Y-29407000D01*
X44305000Y-29407000D01*
X44305000Y-29341365D01*
X44304999Y-29341350D01*
X44302100Y-29304510D01*
X44302099Y-29304504D01*
X44256283Y-29146806D01*
X44256282Y-29146803D01*
X44172685Y-29005447D01*
X44172678Y-29005438D01*
X44056561Y-28889321D01*
X44056552Y-28889314D01*
X43915196Y-28805717D01*
X43915193Y-28805716D01*
X43757495Y-28759900D01*
X43757489Y-28759899D01*
X43720649Y-28757000D01*
X43430000Y-28757000D01*
X42930000Y-28757000D01*
X42639350Y-28757000D01*
X42602510Y-28759899D01*
X42602504Y-28759900D01*
X42444806Y-28805716D01*
X42444803Y-28805717D01*
X42303447Y-28889314D01*
X42303438Y-28889321D01*
X42187321Y-29005438D01*
X42187314Y-29005447D01*
X42103717Y-29146803D01*
X42103716Y-29146806D01*
X42057900Y-29304504D01*
X42057899Y-29304510D01*
X42055000Y-29341350D01*
X42055000Y-29407000D01*
X27424500Y-29407000D01*
X27424500Y-26525818D01*
X50781348Y-26525818D01*
X50781348Y-26802597D01*
X50796182Y-26896267D01*
X50796184Y-26896273D01*
X50853703Y-27009159D01*
X50853710Y-27009168D01*
X50943296Y-27098754D01*
X50943300Y-27098757D01*
X51056202Y-27156284D01*
X51149861Y-27171117D01*
X53687246Y-27171117D01*
X53687247Y-27171116D01*
X53687247Y-26525818D01*
X54187247Y-26525818D01*
X54187247Y-27171117D01*
X56724626Y-27171117D01*
X56818296Y-27156282D01*
X56818302Y-27156280D01*
X56931188Y-27098761D01*
X56931197Y-27098754D01*
X57020783Y-27009168D01*
X57020786Y-27009164D01*
X57078313Y-26896262D01*
X57093147Y-26802604D01*
X57093147Y-26525818D01*
X54187247Y-26525818D01*
X53687247Y-26525818D01*
X50781348Y-26525818D01*
X27424500Y-26525818D01*
X27424500Y-25028237D01*
X49780346Y-25028237D01*
X49791138Y-25096377D01*
X49795200Y-25122024D01*
X49852796Y-25235062D01*
X49852798Y-25235064D01*
X49852800Y-25235067D01*
X49942498Y-25324765D01*
X49942500Y-25324766D01*
X49942504Y-25324770D01*
X50051915Y-25380518D01*
X50055544Y-25382367D01*
X50149321Y-25397219D01*
X50149327Y-25397220D01*
X50725369Y-25397219D01*
X50792406Y-25416903D01*
X50838161Y-25469707D01*
X50848105Y-25538866D01*
X50835852Y-25577513D01*
X50796181Y-25655370D01*
X50796180Y-25655373D01*
X50781347Y-25749031D01*
X50781347Y-26025818D01*
X53687247Y-26025818D01*
X53687247Y-25380518D01*
X54187247Y-25380518D01*
X54187247Y-26025818D01*
X57093146Y-26025818D01*
X57093146Y-25749038D01*
X57078311Y-25655368D01*
X57078309Y-25655362D01*
X57020790Y-25542476D01*
X57020783Y-25542467D01*
X56931197Y-25452881D01*
X56931193Y-25452878D01*
X56818291Y-25395351D01*
X56724633Y-25380518D01*
X54187247Y-25380518D01*
X53687247Y-25380518D01*
X53650928Y-25344199D01*
X53652830Y-25342296D01*
X53623138Y-25308029D01*
X53613194Y-25238871D01*
X53625447Y-25200223D01*
X53665292Y-25122024D01*
X53665292Y-25122022D01*
X53665293Y-25122021D01*
X53680145Y-25028244D01*
X53680146Y-25028239D01*
X53680145Y-23263402D01*
X53665292Y-23169616D01*
X53607696Y-23056578D01*
X53607692Y-23056574D01*
X53607691Y-23056572D01*
X53517993Y-22966874D01*
X53517990Y-22966872D01*
X53517988Y-22966870D01*
X53441163Y-22927725D01*
X53404947Y-22909272D01*
X53311170Y-22894420D01*
X50149328Y-22894420D01*
X50068365Y-22907243D01*
X50055542Y-22909274D01*
X49942504Y-22966870D01*
X49942503Y-22966871D01*
X49942498Y-22966874D01*
X49852800Y-23056572D01*
X49852797Y-23056577D01*
X49795198Y-23169618D01*
X49780346Y-23263395D01*
X49780346Y-25028237D01*
X27424500Y-25028237D01*
X27424500Y-22468500D01*
X27444185Y-22401461D01*
X27496989Y-22355706D01*
X27548500Y-22344500D01*
X58811500Y-22344500D01*
X58878539Y-22364185D01*
G37*
%TD.AperFunction*%
%TD*%
M02*
