<svg xmlns="http://www.w3.org/2000/svg" viewBox="0 0 23.749 20.768162" width="23.749mm" height="20.768162mm">
                    <g stroke-linecap="round" fill-rule="evenodd">
                        <path fill-rule="evenodd" fill="#66cc99" stroke="#555555" stroke-width="0.0" opacity="1" d="M 17.82083689791499,10.684521112501702 L 17.83065,10.684762 L 18.28815,10.684762 L 18.29796310208501,10.684521112501702 L 18.317565667718828,10.6835581427764 L 18.337097374686493,10.681634522999495 L 18.35651117354788,10.678754886930518 L 18.366182728990406,10.677076788411439 L 18.395362728990406,10.67127278841144 L 18.40494110899222,10.669121968339867 L 18.42398079041846,10.664352911114142 L 18.4427635197206,10.658655327802107 L 18.461244043955162,10.652042945504412 L 18.479377838276715,10.644531695332974 L 18.497121213210985,10.636139674028337 L 18.51443141991514,10.626887100359538 L 18.531266753171877,10.616796266411365 L 18.53956055669403,10.611544198858976 L 18.56429755669403,10.595015198858976 L 18.572323031652495,10.58936294386764 L 18.588086982709466,10.57767146521184 L 18.60325829478602,10.565220597131104 L 18.61780042161934,10.552040332594723 L 18.631678332594753,10.538162421619312 L 18.644858597131133,10.523620294785983 L 18.65730946521181,10.508448982709497 L 18.66900094386761,10.492685031652533 L 18.674653198858977,10.48465955669403 L 18.691182198858975,10.45992255669403 L 18.6944,10.454841165380836 L 18.697617801141025,10.45992255669403 L 18.714146801141023,10.48465955669403 L 18.71979905613239,10.492685031652533 L 18.73149053478819,10.508448982709497 L 18.743941402868867,10.523620294785983 L 18.757121667405247,10.538162421619312 L 18.77099957838066,10.552040332594723 L 18.78554170521398,10.565220597131104 L 18.800713017290533,10.57767146521184 L 18.816476968347505,10.58936294386764 L 18.82450244330597,10.595015198858976 L 18.84923944330597,10.611544198858976 L 18.857533246828122,10.616796266411365 L 18.87436858008486,10.626887100359538 L 18.891678786789015,10.636139674028337 L 18.909422161723285,10.644531695332974 L 18.927555956044838,10.652042945504412 L 18.9460364802794,10.658655327802107 L 18.964819209581538,10.664352911114142 L 18.98385889100778,10.669121968339867 L 18.993437271009594,10.67127278841144 L 19.022617271009594,10.677076788411439 L 19.03228882645212,10.678754886930518 L 19.051702625313506,10.681634522999495 L 19.071234332281172,10.6835581427764 L 19.09083689791499,10.684521112501702 L 19.10065,10.684762 L 19.55815,10.684762 L 19.56796310208501,10.684521112501702 L 19.587565667718827,10.6835581427764 L 19.607097374686493,10.681634522999495 L 19.62651117354788,10.678754886930518 L 19.636182728990406,10.677076788411439 L 19.665362728990406,10.67127278841144 L 19.67494110899222,10.669121968339867 L 19.69398079041846,10.664352911114142 L 19.7127635197206,10.658655327802107 L 19.73124404395516,10.652042945504412 L 19.749377838276715,10.644531695332974 L 19.767121213210984,10.636139674028337 L 19.78443141991514,10.626887100359538 L 19.801266753171877,10.616796266411365 L 19.80956055669403,10.611544198858976 L 19.834297556694032,10.595015198858976 L 19.842323031652494,10.58936294386764 L 19.858086982709466,10.57767146521184 L 19.87325829478602,10.565220597131104 L 19.887800421619342,10.552040332594723 L 19.901678332594752,10.538162421619312 L 19.914858597131133,10.523620294785983 L 19.92730946521181,10.508448982709497 L 19.939000943867608,10.492685031652533 L 19.944653198858976,10.48465955669403 L 19.961182198858975,10.45992255669403 L 19.966434266411348,10.451628753171898 L 19.97652510035953,10.434793419915154 L 19.985777674028366,10.417483213210918 L 19.99416969533299,10.399739838276663 L 20.00168094550441,10.381606043955147 L 20.008293327802107,10.363125519720576 L 20.01399091111411,10.344342790418535 L 20.018759968339847,10.325303108992294 L 20.020910788411438,10.315724728990405 L 20.02671478841144,10.286544728990405 L 20.02839288693051,10.276873173547946 L 20.031272522999494,10.257459374686562 L 20.033196142776415,10.237927667718745 L 20.03415911250171,10.218325102084927 L 20.0344,10.208512 L 20.0344,8.671012 L 20.03415911250171,8.661198897915073 L 20.033196142776415,8.641596332281255 L 20.031272522999494,8.622064625313438 L 20.02839288693051,8.602650826452054 L 20.02671478841144,8.592979271009595 L 20.020910788411438,8.563799271009595 L 20.018759968339847,8.554220891007706 L 20.014368599813803,8.536689069978193 L 21.315047834896,7.236009834895998 L 21.31847589524889,7.2324965876061995 L 21.32524476408258,7.225387022338293 L 21.32858557256338,7.221790704360187 L 21.345325105296133,7.203321476116367 L 21.351736970897658,7.195888341979719 L 21.364188252122776,7.180716411908835 L 21.370227667746367,7.172977615974598 L 21.385076294117077,7.152956560984015 L 21.390728710281522,7.144930746689342 L 21.401632925985485,7.128611434629425 L 21.406884725525007,7.120317936864183 L 21.419699445144637,7.098937868831001 L 21.424537976014243,7.090396667357586 L 21.43379011263883,7.073087137205079 L 21.43820371839382,7.064318808525987 L 21.448861118507207,7.041785629192918 L 21.452839166384802,7.032811296979823 L 21.46035012079674,7.014678248972148 L 21.463883027331082,7.005519533177569 L 21.472280471349194,6.982050249379471 L 21.475359725459025,6.972729214151971 L 21.481057163061323,6.9539472794542165 L 21.483675346553788,6.944486379983962 L 21.48973196250023,6.920307013753422 L 21.49188276794198,6.910729042175949 L 21.495711819296034,6.891479101086333 L 21.497390065208332,6.881807131574191 L 21.501047524560644,6.8571505434258055 L 21.50224916790213,6.847407876600683 L 21.504172957150207,6.827875316575103 L 21.504895103056803,6.8180854233746455 L 21.506118182482062,6.793189069730937 L 21.506298854980276,6.788283780570112 L 21.506539763739244,6.778470245704644 L 21.5066,6.773562 L 21.5066,5.625941560433284 L 21.514104252338022,5.620927406770736 L 21.522130182459502,5.615274935593732 L 21.537895017685845,5.603582983272009 L 21.553067158698813,5.591131561028451 L 21.567610053540765,5.577950666202113 L 21.581488666202112,5.564072053540759 L 21.59466956102845,5.549529158698805 L 21.60712098327203,5.5343570176858154 L 21.618812935593755,5.518592182459466 L 21.624465406770735,5.510566252338007 L 21.678658406770737,5.429460252338007 L 21.68391017159848,5.421166764224857 L 21.694000434241175,5.404332086628668 L 21.70325250655663,5.387022582654394 L 21.711644099613608,5.369279952186153 L 21.719154997439517,5.3511469385420085 L 21.725767105722085,5.3326672255024095 L 21.731464495400072,5.313885332072206 L 21.736233441037445,5.294846505231403 L 21.738384226009966,5.28526855644834 L 21.757414226009963,5.189597556448341 L 21.75909244710821,5.179925656644612 L 21.761972293737607,5.1605111612960695 L 21.763896054454715,5.140978744882606 L 21.764859094820334,5.121375462006979 L 21.7651,5.111562 L 21.7651,4.211562 L 21.764859094820334,4.201748537993021 L 21.763896054454715,4.182145255117394 L 21.761972293737607,4.1626128387039305 L 21.75909244710821,4.143198343355388 L 21.757414226009963,4.133526443551659 L 21.738384226009966,4.03785544355166 L 21.736233441037445,4.028277494768597 L 21.731464495400072,4.009238667927794 L 21.725767105722085,3.990456774497591 L 21.719154997439517,3.9719770614579915 L 21.711644099613608,3.9538440478138477 L 21.70325250655663,3.936101417345606 L 21.694000434241175,3.918791913371332 L 21.68391017159848,3.901957235775143 L 21.678658406770737,3.893663747661993 L 21.624465406770735,3.8125577476619927 L 21.618812935593755,3.804531817540534 L 21.60712098327203,3.7887669823141845 L 21.59466956102845,3.7735948413011955 L 21.581488666202112,3.759051946459241 L 21.567610053540765,3.745173333797887 L 21.553067158698813,3.7319924389715493 L 21.537895017685845,3.7195410167279914 L 21.522130182459502,3.7078490644062683 L 21.514104252338022,3.702196593229264 L 21.43299825233802,3.648003593229264 L 21.424704764224828,3.6427518284014986 L 21.40787008662863,3.632661565758802 L 21.390560582654356,3.6234094934433623 L 21.37281795218612,3.615017900386393 L 21.354684938541993,3.6075070025604816 L 21.336205225502386,3.6008948942779155 L 21.317423332072273,3.5951975045999585 L 21.29838450523147,3.590428558962576 L 21.28880655644834,3.588277773990035 L 21.19313555644834,3.569247773990035 L 21.183463656644612,3.5675695528917983 L 21.16404916129607,3.5646897062624023 L 21.144516744882598,3.5627659455452934 L 21.124913462006973,3.561802905179672 L 21.1151,3.561562 L 20.5901,3.561562 L 20.58028653799303,3.561802905179672 L 20.5606832551174,3.5627659455452934 L 20.54115083870393,3.5646897062624023 L 20.52173634335539,3.5675695528917983 L 20.512064443551658,3.569247773990035 L 20.41639344355166,3.588277773990035 L 20.40681549476853,3.590428558962576 L 20.387776667927728,3.5951975045999585 L 20.36899477449761,3.6008948942779155 L 20.350515061458008,3.6075070025604816 L 20.332382047813876,3.615017900386393 L 20.314639417345642,3.6234094934433623 L 20.29732991337137,3.632661565758802 L 20.280495235775174,3.6427518284014986 L 20.272201747661978,3.648003593229264 L 20.19109574766198,3.702196593229264 L 20.183069817540495,3.7078490644062683 L 20.167304982314153,3.7195410167279914 L 20.15213284130119,3.7319924389715493 L 20.137589946459233,3.745173333797887 L 20.123711333797885,3.759051946459241 L 20.110530438971548,3.7735948413011955 L 20.09807901672797,3.7887669823141845 L 20.086387064406246,3.804531817540534 L 20.080734593229263,3.8125577476619927 L 20.026541593229265,3.893663747661993 L 20.02128982840152,3.901957235775143 L 20.011199565758826,3.918791913371332 L 20.00194749344337,3.936101417345606 L 19.993555900386394,3.9538440478138477 L 19.98604500256048,3.9719770614579915 L 19.979432894277917,3.990456774497591 L 19.97373550459993,4.009238667927794 L 19.968966558962553,4.028277494768597 L 19.966815773990035,4.03785544355166 L 19.947785773990034,4.133526443551659 L 19.946107552891792,4.143198343355388 L 19.943227706262395,4.1626128387039305 L 19.941303945545286,4.182145255117394 L 19.940340905179664,4.201748537993021 L 19.9401,4.211562 L 19.9401,5.111562 L 19.940340905179664,5.121375462006979 L 19.941303945545286,5.140978744882606 L 19.943227706262395,5.1605111612960695 L 19.946107552891792,5.179925656644612 L 19.947785773990034,5.189597556448341 L 19.966815773990035,5.28526855644834 L 19.968966558962553,5.294846505231403 L 19.97373550459993,5.313885332072206 L 19.979432894277917,5.3326672255024095 L 19.98604500256048,5.3511469385420085 L 19.993555900386394,5.369279952186153 L 20.00194749344337,5.387022582654394 L 20.011199565758826,5.404332086628668 L 20.02128982840152,5.421166764224857 L 20.026541593229265,5.429460252338007 L 20.080734593229263,5.510566252338007 L 20.086387064406246,5.518592182459466 L 20.09807901672797,5.5343570176858154 L 20.110530438971548,5.549529158698805 L 20.123711333797885,5.564072053540759 L 20.137589946459233,5.577950666202113 L 20.15213284130119,5.591131561028451 L 20.167304982314153,5.603582983272009 L 20.183069817540495,5.615274935593732 L 20.19109574766198,5.620927406770736 L 20.1986,5.625941560433284 L 20.1986,6.502666330208004 L 18.866952165104003,7.834314165104002 L 18.86352410475111,7.837827412393801 L 18.85675523591742,7.844936977661707 L 18.85341442743662,7.848533295639813 L 18.836674894703865,7.867002523883634 L 18.83026302910234,7.87443565802028 L 18.817811747877226,7.889607588091165 L 18.811772332253636,7.897346384025402 L 18.79692370588292,7.917367439015985 L 18.79127128971848,7.925393253310658 L 18.780367074014514,7.941712565370574 L 18.77511527447499,7.950006063135818 L 18.76230055485536,7.971386131168999 L 18.75746202398576,7.979927332642414 L 18.74820988736117,7.997236862794921 L 18.743796281606183,8.006005191474014 L 18.733138881492792,8.028538370807082 L 18.7291608336152,8.037512703020179 L 18.72164987920326,8.055645751027852 L 18.718116972668916,8.06480446682243 L 18.709719528650805,8.088273750620528 L 18.706640274540977,8.09759478584803 L 18.70094283693868,8.116376720545784 L 18.698324653446214,8.12583762001604 L 18.69226803749977,8.150016986246579 L 18.690117232058018,8.159594957824051 L 18.68628818070397,8.178844898913667 L 18.68460993479167,8.18851686842581 L 18.680952475439355,8.213173456574195 L 18.679750832097874,8.222916123399317 L 18.677827042849795,8.242448683424897 L 18.677104896943195,8.252238576625354 L 18.675881817517936,8.277134930269062 L 18.675701145019726,8.282040219429888 L 18.675460236260758,8.291853754295357 L 18.6754,8.296762 L 18.6754,8.395982092275991 L 18.674653198858977,8.39486444330597 L 18.66900094386761,8.386838968347467 L 18.65730946521181,8.371075017290503 L 18.644858597131133,8.355903705214017 L 18.631678332594753,8.341361578380688 L 18.61780042161934,8.327483667405277 L 18.60325829478602,8.314303402868896 L 18.588086982709466,8.30185253478816 L 18.572323031652495,8.29016105613236 L 18.56429755669403,8.284508801141024 L 18.53956055669403,8.267979801141024 L 18.531266753171877,8.262727733588635 L 18.51443141991514,8.252636899640462 L 18.497121213210985,8.243384325971663 L 18.479377838276715,8.234992304667026 L 18.461244043955162,8.227481054495588 L 18.4427635197206,8.220868672197893 L 18.42398079041846,8.215171088885858 L 18.40494110899222,8.210402031660132 L 18.395362728990406,8.208251211588562 L 18.366182728990406,8.202447211588561 L 18.35651117354788,8.200769113069482 L 18.337097374686493,8.197889477000505 L 18.317565667718828,8.1959658572236 L 18.29796310208501,8.195002887498298 L 18.28815,8.194762 L 17.83065,8.194762 L 17.82083689791499,8.195002887498298 L 17.801234332281172,8.1959658572236 L 17.781702625313507,8.197889477000505 L 17.76228882645212,8.200769113069482 L 17.752617271009594,8.202447211588561 L 17.723437271009594,8.208251211588562 L 17.71385889100778,8.210402031660132 L 17.69481920958154,8.215171088885858 L 17.6760364802794,8.220868672197893 L 17.65755595604484,8.227481054495588 L 17.639422161723285,8.234992304667026 L 17.621678786789015,8.243384325971663 L 17.60436858008486,8.252636899640462 L 17.587533246828123,8.262727733588635 L 17.57923944330597,8.267979801141024 L 17.55450244330597,8.284508801141024 L 17.546476968347505,8.29016105613236 L 17.530713017290534,8.30185253478816 L 17.51554170521398,8.314303402868896 L 17.50099957838066,8.327483667405277 L 17.487121667405248,8.341361578380688 L 17.473941402868867,8.355903705214017 L 17.46149053478819,8.371075017290503 L 17.44979905613239,8.386838968347467 L 17.444146801141024,8.39486444330597 L 17.427617801141025,8.41960144330597 L 17.422365733588652,8.427895246828102 L 17.412274899640472,8.444730580084846 L 17.403022325971634,8.462040786789082 L 17.39463030466701,8.479784161723337 L 17.38711905449559,8.497917956044853 L 17.380506672197892,8.516398480279424 L 17.37480908888589,8.535181209581465 L 17.370040031660153,8.554220891007706 L 17.36788921158856,8.563799271009595 L 17.36208521158856,8.592979271009595 L 17.36040711306949,8.602650826452054 L 17.357527477000506,8.622064625313438 L 17.355603857223585,8.641596332281255 L 17.354640887498288,8.661198897915073 L 17.3544,8.671012 L 17.3544,10.208512 L 17.354640887498288,10.218325102084927 L 17.355603857223585,10.237927667718745 L 17.357527477000506,10.257459374686562 L 17.36040711306949,10.276873173547946 L 17.36208521158856,10.286544728990405 L 17.36788921158856,10.315724728990405 L 17.370040031660153,10.325303108992294 L 17.37480908888589,10.344342790418535 L 17.380506672197892,10.363125519720576 L 17.38711905449559,10.381606043955147 L 17.39463030466701,10.399739838276663 L 17.403022325971634,10.417483213210918 L 17.412274899640472,10.434793419915154 L 17.422365733588652,10.451628753171898 L 17.427617801141025,10.45992255669403 L 17.444146801141024,10.48465955669403 L 17.44979905613239,10.492685031652533 L 17.46149053478819,10.508448982709497 L 17.473941402868867,10.523620294785983 L 17.487121667405248,10.538162421619312 L 17.50099957838066,10.552040332594723 L 17.51554170521398,10.565220597131104 L 17.530713017290534,10.57767146521184 L 17.546476968347505,10.58936294386764 L 17.55450244330597,10.595015198858976 L 17.57923944330597,10.611544198858976 L 17.587533246828123,10.616796266411365 L 17.60436858008486,10.626887100359538 L 17.621678786789015,10.636139674028337 L 17.639422161723285,10.644531695332974 L 17.65755595604484,10.652042945504412 L 17.6760364802794,10.658655327802107 L 17.69481920958154,10.664352911114142 L 17.71385889100778,10.669121968339867 L 17.723437271009594,10.67127278841144 L 17.752617271009594,10.677076788411439 L 17.76228882645212,10.678754886930518 L 17.781702625313507,10.681634522999495 L 17.801234332281172,10.6835581427764 L 17.82083689791499,10.684521112501702 z M 19.030429024697497,8.641925208115607 L 19.032931838668706,8.637749566389516 L 19.041693099429487,8.624637623293177 L 19.051783670923694,8.607802781047605 L 19.060175528559686,8.590059943846896 L 19.06678785213004,8.571579989206418 L 19.0715569597439,8.552540893663808 L 19.074436921133714,8.533126018724568 L 19.0754,8.513522344946153 L 19.0754,8.299216492476098 L 19.075520436237454,8.294310464067518 L 19.076382170666292,8.276769456800006 L 19.077343485619114,8.267009062287816 L 19.079560132583694,8.252065642276495 L 19.08147350450088,8.242446472074084 L 19.08514418900071,8.227792278111183 L 19.087991191064717,8.21840697008621 L 19.093080562401457,8.204183130070344 L 19.096833776426017,8.195122069869758 L 19.10329282117161,8.181465567155756 L 19.107916101654023,8.17281601774235 L 19.1156826156767,8.159858371916771 L 19.121131437898384,8.151703633180045 L 19.130130625422655,8.139569633455373 L 19.136352514247044,8.131988239987038 L 19.148146541176946,8.11897553654068 L 19.151530465852662,8.11542128930457 L 20.540021356237308,6.726930398919925 L 20.553202090672553,6.71238769951535 L 20.564893922460513,6.696623089286536 L 20.574984252869665,6.679788390047818 L 20.583375906502262,6.662045729155637 L 20.589988067146436,6.643565978133507 L 20.59475705608064,6.6245271070858465 L 20.597636945334436,6.605112470748529 L 20.5986,6.5855090426826175 L 20.5986,5.517987406001784 L 20.597722439274207,5.499272327121645 L 20.5950974582251,5.4807214844235626 L 20.590748092655435,5.462497672817357 L 20.58471251088926,5.44476081731642 L 20.577043678821727,5.42766656959863 L 20.567808895111202,5.411364942068316 L 20.557089200592635,5.395998991406358 L 20.54497866709505,5.381703563160904 L 20.531583571904093,5.36860410839583 L 20.51702146511434,5.356815582781434 L 20.501420138055845,5.346441437788665 L 20.490346717562943,5.339804321010642 L 20.41740534614384,5.291066721556641 L 20.413495216636136,5.288166783363849 L 20.41059527844332,5.284256653856098 L 20.361857678989367,5.211315282437064 L 20.359355004969327,5.207139800415672 L 20.35817216991609,5.202417626276553 L 20.341057825573383,5.116377351047337 L 20.340340034300148,5.111538358861707 L 20.3401,5.106652312073268 L 20.3401,4.216471687926732 L 20.340340034300148,4.211585641138293 L 20.341057825573383,4.206746648952663 L 20.35817216991609,4.120706373723447 L 20.359355004969327,4.115984199584328 L 20.361857678989367,4.111808717562936 L 20.41059527844332,4.038867346143902 L 20.413495216636136,4.034957216636151 L 20.41740534614384,4.032057278443359 L 20.490346717562975,3.9833196789893357 L 20.49452219958432,3.9808170049693286 L 20.49924437372337,3.979634169916108 L 20.58528464895281,3.9625198255733474 L 20.5901236411383,3.9618020343001334 L 20.595009687926577,3.961562 L 21.110190312073424,3.961562 L 21.1150763588617,3.9618020343001334 L 21.119915351047187,3.9625198255733474 L 21.205955626276626,3.979634169916108 L 21.21067780041568,3.9808170049693286 L 21.214853282437026,3.9833196789893357 L 21.287794653856157,4.032057278443359 L 21.291704783363866,4.034957216636151 L 21.294604721556677,4.038867346143902 L 21.343342321010635,4.111808717562936 L 21.34584499503067,4.115984199584328 L 21.347027830083906,4.120706373723447 L 21.364142174426615,4.206746648952663 L 21.36485996569985,4.211585641138293 L 21.3651,4.216471687926732 L 21.3651,5.106652312073268 L 21.36485996569985,5.111538358861707 L 21.364142174426615,5.116377351047337 L 21.347027830083906,5.202417626276553 L 21.34584499503067,5.207139800415672 L 21.343342321010635,5.211315282437064 L 21.294604721556677,5.284256653856098 L 21.291704783363866,5.288166783363849 L 21.287794653856157,5.291066721556641 L 21.214853282437055,5.339804321010642 L 21.203779861944152,5.346441437788665 L 21.188178534885658,5.356815582781434 L 21.173616428095908,5.36860410839583 L 21.16022133290495,5.381703563160904 L 21.148110799407362,5.395998991406358 L 21.137391104888795,5.411364942068316 L 21.128156321178274,5.42766656959863 L 21.120487489110737,5.44476081731642 L 21.114451907344566,5.462497672817357 L 21.1101025417749,5.4807214844235626 L 21.107477560725794,5.499272327121645 L 21.1066,5.517987406001784 L 21.1066,6.771107507523902 L 21.106479563762544,6.776013535932481 L 21.105617829333706,6.793554543199994 L 21.10465651438089,6.803314937712185 L 21.102439867416308,6.818258357723504 L 21.100526495499118,6.827877527925916 L 21.09685581099929,6.842531721888818 L 21.094008808935286,6.851917029913791 L 21.08891943759854,6.866140869929656 L 21.08516622357398,6.875201930130244 L 21.078707178828388,6.888858432844244 L 21.07408389834598,6.8975079822576495 L 21.0663173843233,6.910465628083229 L 21.060868562101618,6.9186203668199555 L 21.051869374577343,6.930754366544627 L 21.045647485752955,6.938335760012962 L 21.033853458823057,6.95134846345932 L 21.030469534147336,6.95490271069543 L 19.64197864376269,8.343393601080075 L 19.628797909327446,8.35793630048465 L 19.61710607753949,8.373700910713463 L 19.607015747130333,8.390535609952181 L 19.598624093497737,8.408278270844363 L 19.592011932853566,8.426758021866492 L 19.58724294391936,8.445796892914153 L 19.584363054665566,8.465211529251471 L 19.5834,8.484814957317383 L 19.5834,8.513522344946153 L 19.58436307886629,8.533126018724568 L 19.587243040256098,8.552540893663808 L 19.59201214786996,8.571579989206418 L 19.598624471440313,8.590059943846896 L 19.607016329076306,8.607802781047605 L 19.617106900570512,8.624637623293177 L 19.625868161331297,8.637749566389516 L 19.628370975302502,8.641925208115607 L 19.62955383720626,8.646647590916366 L 19.63344224430211,8.6661968188724 L 19.63415998325339,8.671035638536178 L 19.6344,8.675921507640012 L 19.6344,10.203602492359988 L 19.63415998325339,10.208488361463822 L 19.63344224430211,10.2133271811276 L 19.62955383720626,10.232876409083635 L 19.628370975302502,10.237598791884393 L 19.62586816133125,10.241774433610559 L 19.614794624037177,10.258346887603134 L 19.611894800978376,10.262256800978378 L 19.60798488760312,10.265156624037191 L 19.59141243361059,10.27623016133123 L 19.587236791884408,10.278732975302502 L 19.582514409083604,10.279915837206266 L 19.56296518112759,10.28380424430211 L 19.558126361463813,10.284521983253383 L 19.553240492360025,10.284762 L 19.105559507639974,10.284762 L 19.100673638536186,10.284521983253383 L 19.095834818872408,10.28380424430211 L 19.076285590916395,10.279915837206266 L 19.07156320811559,10.278732975302502 L 19.06738756638941,10.27623016133123 L 19.05081511239688,10.265156624037191 L 19.046905199021623,10.262256800978378 L 19.044005375962822,10.258346887603134 L 19.03293183866875,10.241774433610559 L 19.030429024697497,10.237598791884393 L 19.02924616279374,10.232876409083635 L 19.02535775569789,10.2133271811276 L 19.02464001674661,10.208488361463822 L 19.0244,10.203602492359988 L 19.0244,8.675921507640012 L 19.02464001674661,8.671035638536178 L 19.02535775569789,8.6661968188724 L 19.02924616279374,8.646647590916366 L 19.030429024697497,8.641925208115607 z M 17.760429024697498,8.641925208115607 L 17.76293183866875,8.637749566389441 L 17.774005375962822,8.621177112396866 L 17.776905199021623,8.617267199021622 L 17.78081511239688,8.614367375962809 L 17.79738756638941,8.60329383866877 L 17.801563208115592,8.600791024697498 L 17.806285590916396,8.599608162793734 L 17.82583481887241,8.59571975569789 L 17.830673638536187,8.595002016746617 L 17.835559507639974,8.594762 L 18.283240492360026,8.594762 L 18.288126361463814,8.595002016746617 L 18.29296518112759,8.59571975569789 L 18.312514409083605,8.599608162793734 L 18.317236791884408,8.600791024697498 L 18.32141243361059,8.60329383866877 L 18.33798488760312,8.614367375962809 L 18.341894800978377,8.617267199021622 L 18.344794624037178,8.621177112396866 L 18.35586816133125,8.637749566389441 L 18.358370975302503,8.641925208115607 L 18.35955383720626,8.646647590916366 L 18.36344224430211,8.6661968188724 L 18.36415998325339,8.671035638536178 L 18.3644,8.675921507640012 L 18.3644,10.203602492359988 L 18.36415998325339,10.208488361463822 L 18.36344224430211,10.2133271811276 L 18.35955383720626,10.232876409083635 L 18.358370975302503,10.237598791884393 L 18.35586816133125,10.241774433610559 L 18.344794624037178,10.258346887603134 L 18.341894800978377,10.262256800978378 L 18.33798488760312,10.265156624037191 L 18.32141243361059,10.27623016133123 L 18.317236791884408,10.278732975302502 L 18.312514409083605,10.279915837206266 L 18.29296518112759,10.28380424430211 L 18.288126361463814,10.284521983253383 L 18.283240492360026,10.284762 L 17.835559507639974,10.284762 L 17.830673638536187,10.284521983253383 L 17.82583481887241,10.28380424430211 L 17.806285590916396,10.279915837206266 L 17.801563208115592,10.278732975302502 L 17.79738756638941,10.27623016133123 L 17.78081511239688,10.265156624037191 L 17.776905199021623,10.262256800978378 L 17.774005375962822,10.258346887603134 L 17.76293183866875,10.241774433610559 L 17.760429024697498,10.237598791884393 L 17.75924616279374,10.232876409083635 L 17.75535775569789,10.2133271811276 L 17.75464001674661,10.208488361463822 L 17.7544,10.203602492359988 L 17.7544,8.675921507640012 L 17.75464001674661,8.671035638536178 L 17.75535775569789,8.6661968188724 L 17.75924616279374,8.646647590916366 L 17.760429024697498,8.641925208115607 z" />
                        <rect width="21.0" height="18.0" x="2" y="2" stroke-width="0.1" fill="none" stroke="black"/>
                    </g>
                    </svg>