<svg xmlns="http://www.w3.org/2000/svg" viewBox="0 0 45.208201 24.064963" width="45.208201mm" height="24.064963mm">
                    <g stroke-linecap="round" fill-rule="evenodd">
                        <g><path fill-rule="evenodd" fill="#66cc99" stroke="#555555" stroke-width="0.0" opacity="1" d="M 19.97217480167362,8.578882868118368 L 21.315047834896,7.236009834895998 L 21.31847589524889,7.2324965876061995 L 21.32524476408258,7.225387022338293 L 21.32858557256338,7.221790704360187 L 21.345325105296133,7.203321476116367 L 21.351736970897658,7.195888341979719 L 21.364188252122776,7.180716411908835 L 21.370227667746367,7.172977615974598 L 21.385076294117077,7.152956560984015 L 21.390728710281522,7.144930746689342 L 21.401632925985485,7.128611434629425 L 21.406884725525007,7.120317936864183 L 21.419699445144637,7.098937868831001 L 21.424537976014243,7.090396667357586 L 21.43379011263883,7.073087137205079 L 21.43820371839382,7.064318808525987 L 21.448861118507207,7.041785629192918 L 21.452839166384802,7.032811296979823 L 21.46035012079674,7.014678248972148 L 21.463883027331082,7.005519533177569 L 21.472280471349194,6.982050249379471 L 21.475359725459025,6.972729214151971 L 21.481057163061323,6.9539472794542165 L 21.483675346553788,6.944486379983962 L 21.48973196250023,6.920307013753422 L 21.49188276794198,6.910729042175949 L 21.495711819296034,6.891479101086333 L 21.497390065208332,6.881807131574191 L 21.501047524560644,6.8571505434258055 L 21.50224916790213,6.847407876600683 L 21.504172957150207,6.827875316575103 L 21.504895103056803,6.8180854233746455 L 21.506118182482062,6.793189069730937 L 21.506298854980276,6.788283780570112 L 21.506539763739244,6.778470245704644 L 21.5066,6.773562 L 21.5066,5.655962 L 21.505636945334434,5.636358571934089 L 21.50275705608064,5.616943935596772 L 21.497988067146434,5.597905064549111 L 21.491375906502263,5.579425313526981 L 21.482984252869667,5.5616826526348 L 21.47289392246051,5.544847953396082 L 21.461202090672554,5.529083343167268 L 21.44802135623731,5.514540643762693 L 21.433478656832726,5.501359909327455 L 21.41771404660392,5.489668077539489 L 21.4008793473652,5.479577747130327 L 21.383136686473012,5.471186093497746 L 21.364656935450896,5.464573932853557 L 21.345618064403222,5.4598049439193534 L 21.32620342806591,5.456925054665558 L 21.3066,5.455962 L 21.28699657193409,5.456925054665558 L 21.26758193559678,5.4598049439193534 L 21.248543064549104,5.464573932853557 L 21.230063313526987,5.471186093497746 L 21.212320652634798,5.479577747130327 L 21.195485953396084,5.489668077539489 L 21.179721343167277,5.501359909327455 L 21.165178643762694,5.514540643762693 L 21.15199790932745,5.529083343167268 L 21.14030607753949,5.544847953396082 L 21.130215747130336,5.5616826526348 L 21.12182409349774,5.579425313526981 L 21.115211932853565,5.597905064549111 L 21.11044294391936,5.616943935596772 L 21.107563054665565,5.636358571934089 L 21.1066,5.655962 L 21.1066,6.771107507523902 L 21.106479563762544,6.776013535932481 L 21.105617829333706,6.793554543199994 L 21.10465651438089,6.803314937712185 L 21.102439867416308,6.818258357723504 L 21.100526495499118,6.827877527925916 L 21.09685581099929,6.842531721888818 L 21.094008808935286,6.851917029913791 L 21.08891943759854,6.866140869929656 L 21.08516622357398,6.875201930130244 L 21.078707178828388,6.888858432844244 L 21.07408389834598,6.8975079822576495 L 21.0663173843233,6.910465628083229 L 21.060868562101618,6.9186203668199555 L 21.051869374577343,6.930754366544627 L 21.045647485752955,6.938335760012962 L 21.033853458823057,6.95134846345932 L 21.030469534147336,6.95490271069543 L 19.64197864376269,8.343393601080075 L 19.628797909327446,8.35793630048465 L 19.61710607753949,8.373700910713463 L 19.607015747130333,8.390535609952181 L 19.598624093497737,8.408278270844363 L 19.592011932853566,8.426758021866492 L 19.58724294391936,8.445796892914153 L 19.584363054665566,8.465211529251471 L 19.5834,8.484814957317383 L 19.5834,8.513522344946153 L 19.584363054665566,8.533125773012065 L 19.58724294391936,8.552540409349382 L 19.592011932853566,8.571579280397042 L 19.598624093497737,8.590059031419173 L 19.607015747130333,8.607801692311353 L 19.61710607753949,8.624636391550071 L 19.628797909327446,8.640401001778885 L 19.64197864376269,8.654943701183461 L 19.656521343167274,8.668124435618699 L 19.67228595339608,8.679816267406665 L 19.6891206526348,8.689906597815826 L 19.706863313526988,8.698298251448408 L 19.725343064549104,8.704910412092596 L 19.744381935596778,8.7096794010268 L 19.76379657193409,8.712559290280595 L 19.7834,8.713522344946153 L 19.80300342806591,8.712559290280595 L 19.82241806440322,8.7096794010268 L 19.841456935450896,8.704910412092596 L 19.859936686473013,8.698298251448408 L 19.877679347365202,8.689906597815826 L 19.894514046603916,8.679816267406665 L 19.910278656832723,8.668124435618699 L 19.924821356237306,8.654943701183461 L 19.93800209067255,8.640401001778885 L 19.94969392246051,8.624636391550071 L 19.959784252869667,8.607801692311353 L 19.96817590650226,8.590059031419173 L 19.97217480167362,8.578882868118368 z" /><path fill-rule="evenodd" fill="#66cc99" stroke="#555555" stroke-width="0.0" opacity="1" d="M 17.776905199021623,8.617267199021622 L 17.78081511239688,8.614367375962809 L 17.79738756638941,8.60329383866877 L 17.801563208115592,8.600791024697498 L 17.806285590916396,8.599608162793734 L 17.82583481887241,8.59571975569789 L 17.830673638536187,8.595002016746617 L 17.835559507639974,8.594762 L 18.283240492360026,8.594762 L 18.288126361463814,8.595002016746617 L 18.29296518112759,8.59571975569789 L 18.312514409083605,8.599608162793734 L 18.317236791884408,8.600791024697498 L 18.32141243361059,8.60329383866877 L 18.33798488760312,8.614367375962809 L 18.341894800978377,8.617267199021622 L 18.34479462403722,8.621177112396925 L 18.3471069005705,8.62463762329314 L 18.35879884912728,8.640402146919623 L 18.371979691280544,8.654944748693548 L 18.38652248831497,8.668125375410035 L 18.402287185145244,8.679817090428546 L 18.419121959123,8.689907296142101 L 18.43686468217203,8.698298818353816 L 18.455344482170208,8.704910842117519 L 18.47438338854146,8.709679690029875 L 18.493798046209694,8.712559435478553 L 18.51340148140846,8.71352234494067 L 18.53300490234044,8.712559145071715 L 18.552419517345772,8.709679112012967 L 18.571458353068813,8.704909982057169 L 18.589938055113866,8.698297684532866 L 18.60768065384823,8.689905899479873 L 18.624515278346987,8.679815444375656 L 18.640279801973477,8.668123495818882 L 18.654822403747396,8.654942653665618 L 18.66800303046389,8.640399856631175 L 18.679694745482387,8.62463515980091 L 18.68978495119594,8.607800385823145 L 18.694399995979293,8.598042506455846 L 18.699015747130336,8.607801692311353 L 18.709106077539488,8.624636391550071 L 18.720797909327448,8.640401001778885 L 18.733978643762693,8.654943701183461 L 18.748521343167276,8.668124435618699 L 18.764285953396083,8.679816267406665 L 18.7811206526348,8.689906597815826 L 18.798863313526986,8.698298251448408 L 18.817343064549103,8.704910412092596 L 18.83638193559678,8.7096794010268 L 18.85579657193409,8.712559290280595 L 18.8754,8.713522344946153 L 18.895003428065912,8.712559290280595 L 18.914418064403222,8.7096794010268 L 18.933456935450895,8.704910412092596 L 18.95193668647301,8.698298251448408 L 18.9696793473652,8.689906597815826 L 18.98651404660392,8.679816267406665 L 19.002278656832726,8.668124435618699 L 19.01682135623731,8.654943701183461 L 19.030002090672554,8.640401001778885 L 19.04169392246051,8.624636391550071 L 19.051784252869666,8.607801692311353 L 19.060175906502263,8.590059031419173 L 19.066788067146437,8.571579280397042 L 19.07155705608064,8.552540409349382 L 19.074436945334433,8.533125773012065 L 19.0754,8.513522344946153 L 19.0754,8.299216492476098 L 19.075520436237454,8.294310464067518 L 19.076382170666292,8.276769456800006 L 19.077343485619114,8.267009062287816 L 19.079560132583694,8.252065642276495 L 19.08147350450088,8.242446472074084 L 19.08514418900071,8.227792278111183 L 19.087991191064717,8.21840697008621 L 19.093080562401457,8.204183130070344 L 19.096833776426017,8.195122069869758 L 19.10329282117161,8.181465567155756 L 19.107916101654023,8.17281601774235 L 19.1156826156767,8.159858371916771 L 19.121131437898384,8.151703633180045 L 19.130130625422655,8.139569633455373 L 19.136352514247044,8.131988239987038 L 19.148146541176946,8.11897553654068 L 19.151530465852662,8.11542128930457 L 20.204427965766012,7.062523789391227 L 20.540021356237308,6.726930398919925 L 20.553202090672553,6.71238769951535 L 20.564893922460513,6.696623089286536 L 20.574984252869665,6.679788390047818 L 20.583375906502262,6.662045729155637 L 20.589988067146436,6.643565978133507 L 20.59475705608064,6.6245271070858465 L 20.597636945334436,6.605112470748529 L 20.5986,6.5855090426826175 L 20.5986,5.517987406001784 L 20.597722439274207,5.499272327121645 L 20.5950974582251,5.4807214844235626 L 20.590748092655435,5.462497672817357 L 20.58471251088926,5.44476081731642 L 20.577043678821727,5.42766656959863 L 20.567808895111202,5.411364942068316 L 20.557089200592635,5.395998991406358 L 20.54497866709505,5.381703563160904 L 20.531583571904093,5.36860410839583 L 20.51702146511434,5.356815582781434 L 20.501420138055845,5.346441437788665 L 20.490346717562943,5.339804321010642 L 20.413323,5.288339 L 20.39648827525033,5.278248712153397 L 20.378745593141915,5.269857103378929 L 20.36026582540257,5.263244989456408 L 20.341226942297713,5.258476048657469 L 20.32181229867935,5.255596208488971 L 20.302208868178635,5.254633203386009 L 20.28260544254765,5.255596307614162 L 20.26319081349151,5.258476245953225 L 20.244151954501152,5.263245283022664 L 20.225672220196365,5.269857490388476 L 20.207929580520542,5.2782491888791245 L 20.191094906792863,5.288339561850779 L 20.175330326124115,5.300031433495767 L 20.160787660043926,5.313212204698711 L 20.14760696237649,5.327754937427596 L 20.13591517044562,5.343519577216364 L 20.125824882599012,5.3603543019660265 L 20.117433273824542,5.3780969840744515 L 20.110821159902038,5.396576751813784 L 20.1060522191031,5.415615634918645 L 20.10317237893459,5.435030278537012 L 20.10220937383163,5.454633709037713 L 20.103172478059783,5.474237134668708 L 20.106052416398853,5.4936517637248485 L 20.110821453468294,5.512690622715198 L 20.117433660834102,5.531170357019998 L 20.125825359324754,5.548912996695824 L 20.135915732296407,5.565747670423493 L 20.14760760394138,5.58151225109224 L 20.16078837514433,5.596054917172432 L 20.175331107873216,5.609235614839874 L 20.19109574766198,5.620927406770736 L 20.1986,5.625941560433284 L 20.1986,6.502666330208004 L 19.921585253291397,6.779681076916613 L 18.866952165104003,7.834314165104002 L 18.86352410475111,7.837827412393801 L 18.85675523591742,7.844936977661707 L 18.85341442743662,7.848533295639813 L 18.836674894703865,7.867002523883634 L 18.83026302910234,7.87443565802028 L 18.817811747877226,7.889607588091165 L 18.811772332253636,7.897346384025402 L 18.79692370588292,7.917367439015985 L 18.79127128971848,7.925393253310658 L 18.780367074014514,7.941712565370574 L 18.77511527447499,7.950006063135818 L 18.76230055485536,7.971386131168999 L 18.75746202398576,7.979927332642414 L 18.74820988736117,7.997236862794921 L 18.743796281606183,8.006005191474014 L 18.733138881492792,8.028538370807082 L 18.7291608336152,8.037512703020179 L 18.72164987920326,8.055645751027852 L 18.718116972668916,8.06480446682243 L 18.709719528650805,8.088273750620528 L 18.706640274540977,8.09759478584803 L 18.70094283693868,8.116376720545784 L 18.698324653446214,8.12583762001604 L 18.69226803749977,8.150016986246579 L 18.690117232058018,8.159594957824051 L 18.68628818070397,8.178844898913667 L 18.68460993479167,8.18851686842581 L 18.680952475439355,8.213173456574195 L 18.679750832097874,8.222916123399317 L 18.677827042849795,8.242448683424897 L 18.677104896943195,8.252238576625354 L 18.675881817517936,8.277134930269062 L 18.675701145019726,8.282040219429888 L 18.675460236260758,8.291853754295357 L 18.6754,8.296762 L 18.6754,8.395982092276 L 18.67465319885899,8.394864443305998 L 18.66900094386761,8.386838968347467 L 18.65730946521181,8.371075017290503 L 18.644858597131133,8.355903705214017 L 18.631678332594753,8.341361578380688 L 18.61780042161934,8.327483667405277 L 18.60325829478602,8.314303402868896 L 18.588086982709466,8.30185253478816 L 18.572323031652495,8.29016105613236 L 18.56429755669403,8.284508801141024 L 18.53956055669403,8.267979801141024 L 18.531266753171877,8.262727733588635 L 18.51443141991514,8.252636899640462 L 18.497121213210985,8.243384325971663 L 18.479377838276715,8.234992304667026 L 18.461244043955162,8.227481054495588 L 18.4427635197206,8.220868672197893 L 18.42398079041846,8.215171088885858 L 18.40494110899222,8.210402031660132 L 18.395362728990406,8.208251211588562 L 18.366182728990406,8.202447211588561 L 18.35651117354788,8.200769113069482 L 18.337097374686493,8.197889477000505 L 18.317565667718828,8.1959658572236 L 18.29796310208501,8.195002887498298 L 18.28815,8.194762 L 17.83065,8.194762 L 17.82083689791499,8.195002887498298 L 17.801234332281172,8.1959658572236 L 17.781702625313507,8.197889477000505 L 17.76228882645212,8.200769113069482 L 17.752617271009594,8.202447211588561 L 17.723437271009594,8.208251211588562 L 17.71385889100778,8.210402031660132 L 17.69481920958154,8.215171088885858 L 17.6760364802794,8.220868672197893 L 17.65755595604484,8.227481054495588 L 17.639422161723285,8.234992304667026 L 17.621678786789015,8.243384325971663 L 17.60436858008486,8.252636899640462 L 17.587533246828123,8.262727733588635 L 17.57923944330597,8.267979801141024 L 17.55450244330597,8.284508801141024 L 17.546476968347505,8.29016105613236 L 17.530713017290534,8.30185253478816 L 17.51554170521398,8.314303402868896 L 17.50099957838066,8.327483667405277 L 17.487121667405248,8.341361578380688 L 17.473941402868867,8.355903705214017 L 17.46149053478819,8.371075017290503 L 17.44979905613239,8.386838968347467 L 17.44414680114101,8.394864443305998 L 17.439106900570497,8.402407066599167 L 17.42901644546628,8.419241691097923 L 17.42062466041328,8.43698428983228 L 17.414012362888993,8.455463991877346 L 17.409243232933193,8.47450282760039 L 17.406363199874445,8.493917442605705 L 17.405400000005482,8.51352086353769 L 17.406362909467592,8.533124298736453 L 17.409242654916287,8.552538956404701 L 17.41401150282863,8.571577862775944 L 17.420623526592344,8.590057662774116 L 17.42901504880406,8.607800385823145 L 17.439105254517614,8.62463515980091 L 17.45079696953611,8.640399856631175 L 17.463977596252604,8.654942653665618 L 17.478520198026523,8.668123495818882 L 17.494284721653013,8.679815444375656 L 17.51111934615177,8.689905899479873 L 17.528861944886135,8.698297684532866 L 17.547341646931187,8.704909982057169 L 17.56638048265423,8.709679112012967 L 17.58579509765956,8.712559145071715 L 17.60539851859154,8.71352234494067 L 17.625001953790306,8.712559435478553 L 17.64441661145854,8.709679690029875 L 17.663455517829792,8.704910842117519 L 17.68193531782797,8.698298818353816 L 17.699678040877,8.689907296142101 L 17.716512814854756,8.679817090428546 L 17.73227751168503,8.668125375410035 L 17.746820308719457,8.654944748693548 L 17.76000115087272,8.640402146919623 L 17.771693099429502,8.62463762329314 L 17.77400537596278,8.621177112396925 L 17.776905199021623,8.617267199021622 z" /></g>
                        <rect width="21.0" height="18.0" x="2" y="2" stroke-width="0.1" fill="none" stroke="black"/>
                    </g>
                    </svg>