<svg xmlns="http://www.w3.org/2000/svg" viewBox="0 0 23.749 20.768162" width="23.749mm" height="20.768162mm">
                    <g stroke-linecap="round">
                        <g><path fill-rule="evenodd" fill="#66cc99" stroke="#555555" stroke-width="0.0" opacity="0.6" d="M 21.30641938191697,5.6522854344584275 L 21.306569881869613,5.658416122852318 L 21.3066,5.655962 L 21.30641938191697,5.6522854344584275 z" /><path fill-rule="evenodd" fill="#66cc99" stroke="#555555" stroke-width="0.0" opacity="0.6" d="M 21.30611847266722,5.646160285967045 L 21.305578357869013,5.642519127761483 L 21.30617872708094,5.647386792734959 L 21.30611847266722,5.646160285967045 z" /><path fill-rule="evenodd" fill="#66cc99" stroke="#555555" stroke-width="0.0" opacity="0.6" d="M 21.30467852804032,5.636452967798389 L 21.30378411812772,5.6328822832728775 L 21.304858710998566,5.6376676626356765 L 21.30467852804032,5.636452967798389 z" /><path fill-rule="evenodd" fill="#66cc99" stroke="#555555" stroke-width="0.0" opacity="0.6" d="M 21.302294033573226,5.626933532274552 L 21.301053942202643,5.623467709073 L 21.302592409815595,5.628124717005864 L 21.302294033573226,5.626933532274552 z" /><path fill-rule="evenodd" fill="#66cc99" stroke="#555555" stroke-width="0.0" opacity="0.6" d="M 21.298987953251125,5.617693656763494 L 21.2974141231803,5.614366072657772 L 21.299401649251266,5.61884985962864 L 21.298987953251125,5.617693656763494 z" /><path fill-rule="evenodd" fill="#66cc99" stroke="#555555" stroke-width="0.0" opacity="0.6" d="M 21.29479212643483,5.6088223263174 L 21.29289971450773,5.605665027761571 L 21.295317158074216,5.609932412450969 L 21.29479212643483,5.6088223263174 z" /><path fill-rule="evenodd" fill="#66cc99" stroke="#555555" stroke-width="0.0" opacity="0.6" d="M 21.289746961230247,5.600404976698041 L 21.287554192408233,5.597448370203197 L 21.290378272167043,5.601458255363465 L 21.289746961230247,5.600404976698041 z" /><path fill-rule="evenodd" fill="#66cc99" stroke="#555555" stroke-width="0.0" opacity="0.6" d="M 21.283901045336275,5.592522671583637 L 21.2814290371816,5.589795230886326 L 21.284632555701165,5.5935089991317986 L 21.283901045336275,5.592522671583637 z" /><path fill-rule="evenodd" fill="#66cc99" stroke="#555555" stroke-width="0.0" opacity="0.6" d="M 21.27731067811866,5.585251321881346 L 21.27458323742123,5.582779313726567 L 21.278135343066946,5.5861611994387355 L 21.27731067811866,5.585251321881346 z" /><path fill-rule="evenodd" fill="#66cc99" stroke="#555555" stroke-width="0.0" opacity="0.6" d="M 21.270039328416363,5.578660954663723 L 21.267082721921295,5.576468185841553 L 21.27094920597376,5.579485619612023 L 21.270039328416363,5.578660954663723 z" /><path fill-rule="evenodd" fill="#66cc99" stroke="#555555" stroke-width="0.0" opacity="0.6" d="M 21.26215702330196,5.572815038769744 L 21.25899972474606,5.570922626842596 L 21.26314335085012,5.573546549134642 L 21.26215702330196,5.572815038769744 z" /><path fill-rule="evenodd" fill="#66cc99" stroke="#555555" stroke-width="0.0" opacity="0.6" d="M 21.2537396736826,5.567769873565167 L 21.250412089576884,5.566196043494344 L 21.254792952348083,5.568401184501998 L 21.2537396736826,5.567769873565167 z" /><path fill-rule="evenodd" fill="#66cc99" stroke="#555555" stroke-width="0.0" opacity="0.6" d="M 21.244868343236504,5.563574046748869 L 21.241402520034864,5.562333955378257 L 21.245978429370016,5.564099078388229 L 21.244868343236504,5.563574046748869 z" /><path fill-rule="evenodd" fill="#66cc99" stroke="#555555" stroke-width="0.0" opacity="0.6" d="M 21.23562846772544,5.560267966426783 L 21.232057783199952,5.559373556514188 L 21.236784670590637,5.560681662426949 L 21.23562846772544,5.560267966426783 z" /><path fill-rule="evenodd" fill="#66cc99" stroke="#555555" stroke-width="0.0" opacity="0.6" d="M 21.226109032201617,5.557883471959681 L 21.222467873996063,5.557343357161478 L 21.22730021693294,5.558181848202057 L 21.226109032201617,5.557883471959681 z" /><path fill-rule="evenodd" fill="#66cc99" stroke="#555555" stroke-width="0.0" opacity="0.6" d="M 21.216401714032962,5.556443527332783 L 21.2127251484915,5.55626290924976 L 21.217616408870235,5.556623710291028 L 21.216401714032962,5.556443527332783 z" /><path fill-rule="evenodd" fill="#66cc99" stroke="#555555" stroke-width="0.0" opacity="0.6" d="M 21.2066,5.555962 L 21.202923434458523,5.5561426180830225 L 21.207826506767915,5.556022254413731 L 21.2066,5.555962 z" /><path fill-rule="evenodd" fill="#66cc99" stroke="#555555" stroke-width="0.0" opacity="0.6" d="M 21.196798285967038,5.556443527332783 L 21.193157127761634,5.556983642130963 L 21.19802479273495,5.556383272919051 L 21.196798285967038,5.556443527332783 z" /><path fill-rule="evenodd" fill="#66cc99" stroke="#555555" stroke-width="0.0" opacity="0.6" d="M 21.187090967798383,5.557883471959681 L 21.18352028327289,5.558777881872274 L 21.188305662635624,5.557703289001442 L 21.187090967798383,5.557883471959681 z" /><path fill-rule="evenodd" fill="#66cc99" stroke="#555555" stroke-width="0.0" opacity="0.6" d="M 21.17757153227456,5.560267966426783 L 21.174105709072798,5.561508057797432 L 21.178762717005863,5.559969590184413 L 21.17757153227456,5.560267966426783 z" /><path fill-rule="evenodd" fill="#66cc99" stroke="#555555" stroke-width="0.0" opacity="0.6" d="M 21.168331656763495,5.563574046748869 L 21.16500407265763,5.5651478768197595 L 21.169487859628795,5.5631603507486656 L 21.168331656763495,5.563574046748869 z" /><path fill-rule="evenodd" fill="#66cc99" stroke="#555555" stroke-width="0.0" opacity="0.6" d="M 21.1594603263174,5.567769873565167 L 21.156303027761577,5.569662285492271 L 21.16057041245091,5.567244841925815 L 21.1594603263174,5.567769873565167 z" /><path fill-rule="evenodd" fill="#66cc99" stroke="#555555" stroke-width="0.0" opacity="0.6" d="M 21.15104297669804,5.572815038769744 L 21.14808637020299,5.575007807591915 L 21.15209625536354,5.572183727832906 L 21.15104297669804,5.572815038769744 z" /><path fill-rule="evenodd" fill="#66cc99" stroke="#555555" stroke-width="0.0" opacity="0.6" d="M 21.143160671583637,5.578660954663723 L 21.14043323088628,5.581132962818444 L 21.14414699913186,5.577929444298789 L 21.143160671583637,5.578660954663723 z" /><path fill-rule="evenodd" fill="#66cc99" stroke="#555555" stroke-width="0.0" opacity="0.6" d="M 21.13588932188134,5.585251321881346 L 21.13341731372674,5.587978762578577 L 21.13679919943872,5.584426656933061 L 21.13588932188134,5.585251321881346 z" /><path fill-rule="evenodd" fill="#66cc99" stroke="#555555" stroke-width="0.0" opacity="0.6" d="M 21.129298954663724,5.592522671583637 L 21.12710618584168,5.5954792780785265 L 21.13012361961195,5.5916127940263305 L 21.129298954663724,5.592522671583637 z" /><path fill-rule="evenodd" fill="#66cc99" stroke="#555555" stroke-width="0.0" opacity="0.6" d="M 21.123453038769753,5.600404976698041 L 21.121560626842587,5.603562275253959 L 21.124184549134625,5.59941864914991 L 21.123453038769753,5.600404976698041 z" /><path fill-rule="evenodd" fill="#66cc99" stroke="#555555" stroke-width="0.0" opacity="0.6" d="M 21.118407873565168,5.6088223263174 L 21.11683404349427,5.6121499104232715 L 21.119039184502036,5.60776904765185 L 21.118407873565168,5.6088223263174 z" /><path fill-rule="evenodd" fill="#66cc99" stroke="#555555" stroke-width="0.0" opacity="0.6" d="M 21.114212046748875,5.617693656763494 L 21.112971955378235,5.62115947996521 L 21.114737078388227,5.6165835706299765 L 21.114212046748875,5.617693656763494 z" /><path fill-rule="evenodd" fill="#66cc99" stroke="#555555" stroke-width="0.0" opacity="0.6" d="M 21.110905966426774,5.626933532274552 L 21.110011556514127,5.63050421680025 L 21.11131966242698,5.625777329409257 L 21.110905966426774,5.626933532274552 z" /><path fill-rule="evenodd" fill="#66cc99" stroke="#555555" stroke-width="0.0" opacity="0.6" d="M 21.10852147195968,5.636452967798389 L 21.107981357161506,5.640094126003705 L 21.10881984820205,5.635261783067078 L 21.10852147195968,5.636452967798389 z" /><path fill-rule="evenodd" fill="#66cc99" stroke="#555555" stroke-width="0.0" opacity="0.6" d="M 21.10708152733278,5.646160285967045 L 21.106900909249752,5.64983685150858 L 21.107261710291013,5.644945591129847 L 21.10708152733278,5.646160285967045 z" /><path fill-rule="evenodd" fill="#66cc99" stroke="#555555" stroke-width="0.0" opacity="0.6" d="M 19.619960671583637,8.624371991048626 L 19.621932509722726,8.625834405881644 L 19.618141807227715,8.622723468488813 L 19.619960671583637,8.624371991048626 z" /><path fill-rule="evenodd" fill="#66cc99" stroke="#555555" stroke-width="0.0" opacity="0.6" d="M 19.62784297669804,8.630217906942606 L 19.62994866161746,8.631480005912907 L 19.625871287203967,8.628755602352246 L 19.62784297669804,8.630217906942606 z" /><path fill-rule="evenodd" fill="#66cc99" stroke="#555555" stroke-width="0.0" opacity="0.6" d="M 19.636260326317398,8.635263072147183 L 19.63847957912019,8.636312700551704 L 19.634154800132976,8.634001068318979 L 19.636260326317398,8.635263072147183 z" /><path fill-rule="evenodd" fill="#66cc99" stroke="#555555" stroke-width="0.0" opacity="0.6" d="M 19.645131656763493,8.63945889896348 L 19.647443104832114,8.640285948306955 L 19.642912571256847,8.638409349684142 L 19.645131656763493,8.63945889896348 z" /><path fill-rule="evenodd" fill="#66cc99" stroke="#555555" stroke-width="0.0" opacity="0.6" d="M 19.65437153227456,8.642764979285568 L 19.65675291510038,8.64336148463066 L 19.65206025845219,8.641937992288403 L 19.65437153227456,8.642764979285568 z" /><path fill-rule="evenodd" fill="#66cc99" stroke="#555555" stroke-width="0.0" opacity="0.6" d="M 19.66389096779838,8.64514947375267 L 19.666319351363196,8.645509690426879 L 19.66150976449071,8.64455301337453 L 19.66389096779838,8.64514947375267 z" /><path fill-rule="evenodd" fill="#66cc99" stroke="#555555" stroke-width="0.0" opacity="0.6" d="M 19.67359828596704,8.646589418379568 L 19.676050283609538,8.646709877299383 L 19.671170085463466,8.646229228859932 L 19.67359828596704,8.646589418379568 z" /><path fill-rule="evenodd" fill="#66cc99" stroke="#555555" stroke-width="0.0" opacity="0.6" d="M 19.6834,8.64707094571235 L 19.685851997642487,8.646950486792534 L 19.680948187198908,8.646950495873206 L 19.6834,8.64707094571235 z" /><path fill-rule="evenodd" fill="#66cc99" stroke="#555555" stroke-width="0.0" opacity="0.6" d="M 19.693201714032963,8.646589418379568 L 19.695630097597807,8.646229201705351 L 19.69074990123187,8.646709868218712 L 19.693201714032963,8.646589418379568 z" /><path fill-rule="evenodd" fill="#66cc99" stroke="#555555" stroke-width="0.0" opacity="0.6" d="M 19.702909032201617,8.64514947375267 L 19.705290415027484,8.644552968407563 L 19.70048083169803,8.645509663272314 L 19.702909032201617,8.64514947375267 z" /><path fill-rule="evenodd" fill="#66cc99" stroke="#555555" stroke-width="0.0" opacity="0.6" d="M 19.71242846772544,8.642764979285568 L 19.714739915793984,8.641937929942124 L 19.710047264417767,8.643361439663702 L 19.71242846772544,8.642764979285568 z" /><path fill-rule="evenodd" fill="#66cc99" stroke="#555555" stroke-width="0.0" opacity="0.6" d="M 19.721668343236505,8.63945889896348 L 19.723887596039294,8.638409270558961 L 19.719357069414123,8.640285885960653 L 19.721668343236505,8.63945889896348 z" /><path fill-rule="evenodd" fill="#66cc99" stroke="#555555" stroke-width="0.0" opacity="0.6" d="M 19.7305396736826,8.635263072147183 L 19.732645358601943,8.634000973176933 L 19.728320588175997,8.6363126214265 L 19.7305396736826,8.635263072147183 z" /><path fill-rule="evenodd" fill="#66cc99" stroke="#555555" stroke-width="0.0" opacity="0.6" d="M 19.73895702330196,8.630217906942606 L 19.740928861441077,8.628755492109574 L 19.736851497117534,8.63147991077081 L 19.73895702330196,8.630217906942606 z" /><path fill-rule="evenodd" fill="#66cc99" stroke="#555555" stroke-width="0.0" opacity="0.6" d="M 19.746839328416364,8.624371991048626 L 19.748658329895928,8.622723344207182 L 19.744867638922305,8.62583429563897 L 19.746839328416364,8.624371991048626 z" /><path fill-rule="evenodd" fill="#66cc99" stroke="#555555" stroke-width="0.0" opacity="0.6" d="M 19.75411067811866,8.617781623831004 L 19.755759324960128,8.615962622351423 L 19.752291813762696,8.619430146390854 L 19.75411067811866,8.617781623831004 z" /><path fill-rule="evenodd" fill="#66cc99" stroke="#555555" stroke-width="0.0" opacity="0.6" d="M 19.760701045336276,8.610510274128712 L 19.76216346016924,8.608538435989677 L 19.759052522776425,8.612329138484665 L 19.760701045336276,8.610510274128712 z" /><path fill-rule="evenodd" fill="#66cc99" stroke="#555555" stroke-width="0.0" opacity="0.6" d="M 19.766546961230247,8.602627969014309 L 19.7678090602005,8.600522284094989 L 19.765084656639978,8.604599658508256 L 19.766546961230247,8.602627969014309 z" /><path fill-rule="evenodd" fill="#66cc99" stroke="#555555" stroke-width="0.0" opacity="0.6" d="M 19.771592126434832,8.59421061939495 L 19.77264175483933,8.591991366592191 L 19.770330122606634,8.596316145579346 L 19.771592126434832,8.59421061939495 z" /><path fill-rule="evenodd" fill="#66cc99" stroke="#555555" stroke-width="0.0" opacity="0.6" d="M 19.775787953251122,8.585339288948857 L 19.776615002594575,8.58302784088029 L 19.774738403971835,8.587558374455416 L 19.775787953251122,8.585339288948857 z" /><path fill-rule="evenodd" fill="#66cc99" stroke="#555555" stroke-width="0.0" opacity="0.6" d="M 19.779094033573227,8.576099413437799 L 19.779690538918377,8.573718030611746 L 19.77826704657601,8.578410687260293 L 19.779094033573227,8.576099413437799 z" /><path fill-rule="evenodd" fill="#66cc99" stroke="#555555" stroke-width="0.0" opacity="0.6" d="M 19.78147852804032,8.56657997791396 L 19.781838744714527,8.56415159434911 L 19.780882067662148,8.568961181221775 L 19.78147852804032,8.56657997791396 z" /><path fill-rule="evenodd" fill="#66cc99" stroke="#555555" stroke-width="0.0" opacity="0.6" d="M 19.782918472667216,8.556872659745306 L 19.78303893158704,8.55442066210281 L 19.782558283147573,8.559300860248872 L 19.782918472667216,8.556872659745306 z" /><path fill-rule="evenodd" fill="#66cc99" stroke="#555555" stroke-width="0.0" opacity="0.6" d="M 19.7834,8.54707094571235 L 19.7834,8.513522344946153 L 19.778360099429488,8.505979721652984 L 19.775533971933857,8.501966984173805 L 19.769688232605965,8.49408500864532 L 19.763462798565552,8.48649935260699 L 19.757494988178937,8.479914913021586 L 19.763720642838763,8.487500866528526 L 19.76917276580043,8.495660512462445 L 19.77379885013929,8.50431526897236 L 19.777554344134256,8.513381786021911 L 19.780403080325215,8.522772748095646 L 19.782317623825357,8.532397715095184 L 19.78327953653419,8.542163993326762 L 19.783279550160856,8.549522758513481 L 19.7834,8.54707094571235 z" /><path fill-rule="evenodd" fill="#66cc99" stroke="#555555" stroke-width="0.0" opacity="0.6" d="M 18.8754,8.54707094571235 L 18.875520449839144,8.549522758513481 L 18.87552046346581,8.542163993326762 L 18.876482376174643,8.532397715095184 L 18.878396919674785,8.522772748095646 L 18.881245655865744,8.513381786021911 L 18.88500114986071,8.50431526897236 L 18.88962723419957,8.495660512462445 L 18.89507935716124,8.487500866528526 L 18.901305011821062,8.479914913021586 L 18.895337201434447,8.48649935260699 L 18.889111767394034,8.49408500864532 L 18.883266028066142,8.501966984173805 L 18.88043990057051,8.505979721652984 L 18.8754,8.513522344946153 L 18.8754,8.54707094571235 z" /><path fill-rule="evenodd" fill="#66cc99" stroke="#555555" stroke-width="0.0" opacity="0.6" d="M 18.875881527332783,8.556872659745306 L 18.876241716852427,8.559300860248872 L 18.87576106841296,8.55442066210281 L 18.875881527332783,8.556872659745306 z" /><path fill-rule="evenodd" fill="#66cc99" stroke="#555555" stroke-width="0.0" opacity="0.6" d="M 18.87732147195968,8.56657997791396 L 18.87791793233785,8.568961181221775 L 18.876961255285472,8.56415159434911 L 18.87732147195968,8.56657997791396 z" /><path fill-rule="evenodd" fill="#66cc99" stroke="#555555" stroke-width="0.0" opacity="0.6" d="M 18.879705966426776,8.576099413437799 L 18.88053295342399,8.578410687260293 L 18.879109461081622,8.573718030611746 L 18.879705966426776,8.576099413437799 z" /><path fill-rule="evenodd" fill="#66cc99" stroke="#555555" stroke-width="0.0" opacity="0.6" d="M 18.883012046748878,8.585339288948857 L 18.884061596028165,8.587558374455416 L 18.882184997405425,8.58302784088029 L 18.883012046748878,8.585339288948857 z" /><path fill-rule="evenodd" fill="#66cc99" stroke="#555555" stroke-width="0.0" opacity="0.6" d="M 18.887207873565167,8.59421061939495 L 18.888469877393366,8.596316145579346 L 18.88615824516067,8.591991366592191 L 18.887207873565167,8.59421061939495 z" /><path fill-rule="evenodd" fill="#66cc99" stroke="#555555" stroke-width="0.0" opacity="0.6" d="M 18.892253038769752,8.602627969014309 L 18.89371534336002,8.604599658508256 L 18.8909909397995,8.600522284094989 L 18.892253038769752,8.602627969014309 z" /><path fill-rule="evenodd" fill="#66cc99" stroke="#555555" stroke-width="0.0" opacity="0.6" d="M 18.898098954663723,8.610510274128712 L 18.899747477223574,8.612329138484665 L 18.89663653983076,8.608538435989677 L 18.898098954663723,8.610510274128712 z" /><path fill-rule="evenodd" fill="#66cc99" stroke="#555555" stroke-width="0.0" opacity="0.6" d="M 18.90468932188134,8.617781623831004 L 18.906508186237307,8.619430146390854 L 18.903040675039872,8.615962622351423 L 18.90468932188134,8.617781623831004 z" /><path fill-rule="evenodd" fill="#66cc99" stroke="#555555" stroke-width="0.0" opacity="0.6" d="M 18.91196067158364,8.624371991048626 L 18.913932361077695,8.62583429563897 L 18.91014167010407,8.622723344207182 L 18.91196067158364,8.624371991048626 z" /><path fill-rule="evenodd" fill="#66cc99" stroke="#555555" stroke-width="0.0" opacity="0.6" d="M 18.919842976698042,8.630217906942606 L 18.921948502882465,8.63147991077081 L 18.917871138558922,8.628755492109574 L 18.919842976698042,8.630217906942606 z" /><path fill-rule="evenodd" fill="#66cc99" stroke="#555555" stroke-width="0.0" opacity="0.6" d="M 18.9282603263174,8.635263072147183 L 18.930479411824003,8.6363126214265 L 18.926154641398057,8.634000973176933 L 18.9282603263174,8.635263072147183 z" /><path fill-rule="evenodd" fill="#66cc99" stroke="#555555" stroke-width="0.0" opacity="0.6" d="M 18.937131656763494,8.63945889896348 L 18.939442930585876,8.640285885960653 L 18.934912403960706,8.638409270558961 L 18.937131656763494,8.63945889896348 z" /><path fill-rule="evenodd" fill="#66cc99" stroke="#555555" stroke-width="0.0" opacity="0.6" d="M 18.946371532274558,8.642764979285568 L 18.948752735582232,8.643361439663702 L 18.944060084206015,8.641937929942124 L 18.946371532274558,8.642764979285568 z" /><path fill-rule="evenodd" fill="#66cc99" stroke="#555555" stroke-width="0.0" opacity="0.6" d="M 18.955890967798382,8.64514947375267 L 18.95831916830197,8.645509663272314 L 18.953509584972515,8.644552968407563 L 18.955890967798382,8.64514947375267 z" /><path fill-rule="evenodd" fill="#66cc99" stroke="#555555" stroke-width="0.0" opacity="0.6" d="M 18.965598285967037,8.646589418379568 L 18.96805009876813,8.646709868218712 L 18.963169902402193,8.646229201705351 L 18.965598285967037,8.646589418379568 z" /><path fill-rule="evenodd" fill="#66cc99" stroke="#555555" stroke-width="0.0" opacity="0.6" d="M 18.9754,8.64707094571235 L 18.97785181280109,8.646950495873206 L 18.972948002357512,8.646950486792534 L 18.9754,8.64707094571235 z" /><path fill-rule="evenodd" fill="#66cc99" stroke="#555555" stroke-width="0.0" opacity="0.6" d="M 18.985201714032964,8.646589418379568 L 18.987629914536537,8.646229228859932 L 18.98274971639046,8.646709877299383 L 18.985201714032964,8.646589418379568 z" /><path fill-rule="evenodd" fill="#66cc99" stroke="#555555" stroke-width="0.0" opacity="0.6" d="M 18.99490903220162,8.64514947375267 L 18.99729023550929,8.64455301337453 L 18.992480648636803,8.645509690426879 L 18.99490903220162,8.64514947375267 z" /><path fill-rule="evenodd" fill="#66cc99" stroke="#555555" stroke-width="0.0" opacity="0.6" d="M 19.00442846772544,8.642764979285568 L 19.006739741547808,8.641937992288403 L 19.00204708489962,8.64336148463066 L 19.00442846772544,8.642764979285568 z" /><path fill-rule="evenodd" fill="#66cc99" stroke="#555555" stroke-width="0.0" opacity="0.6" d="M 19.013668343236507,8.63945889896348 L 19.015887428743152,8.638409349684142 L 19.011356895167886,8.640285948306955 L 19.013668343236507,8.63945889896348 z" /><path fill-rule="evenodd" fill="#66cc99" stroke="#555555" stroke-width="0.0" opacity="0.6" d="M 19.0225396736826,8.635263072147183 L 19.024645199867024,8.634001068318979 L 19.020320420879813,8.636312700551704 L 19.0225396736826,8.635263072147183 z" /><path fill-rule="evenodd" fill="#66cc99" stroke="#555555" stroke-width="0.0" opacity="0.6" d="M 19.03095702330196,8.630217906942606 L 19.032928712796032,8.628755602352246 L 19.02885133838254,8.631480005912907 L 19.03095702330196,8.630217906942606 z" /><path fill-rule="evenodd" fill="#66cc99" stroke="#555555" stroke-width="0.0" opacity="0.6" d="M 19.038839328416362,8.624371991048626 L 19.040658192772284,8.622723468488813 L 19.036867490277274,8.625834405881644 L 19.038839328416362,8.624371991048626 z" /><path fill-rule="evenodd" fill="#66cc99" stroke="#555555" stroke-width="0.0" opacity="0.6" d="M 20.508401714032964,5.409811926252701 L 20.4986,5.409330398919917 L 20.50840171403295,5.409811926252701 L 20.518109032201618,5.411251870879598 L 20.508401714032964,5.409811926252701 z" /><path fill-rule="evenodd" fill="#66cc99" stroke="#555555" stroke-width="0.0" opacity="0.6" d="M 17.776809502173336,8.617188217464037 L 17.776819099510774,8.61718109951084 L 17.776826217463956,8.617171502173424 L 17.7794949881787,8.614226978403382 L 17.781162346912684,8.612207966223083 L 17.776110678118663,8.617781623831004 L 17.770658192772284,8.622723468488813 L 17.772555758278294,8.621166182604261 L 17.773864755747184,8.619857189983264 L 17.776809502173336,8.617188217464037 z" /><path fill-rule="evenodd" fill="#66cc99" stroke="#555555" stroke-width="0.0" opacity="0.6" d="M 18.341990497826664,8.617188217464037 L 18.344935244252817,8.619857189983264 L 18.346244241721706,8.621166182604261 L 18.348141807227716,8.622723468488813 L 18.342689321881338,8.617781623831004 L 18.337637653087317,8.612207966223083 L 18.3393050118213,8.614226978403382 L 18.341973782536044,8.617171502173424 L 18.341980900489226,8.61718109951084 L 18.341990497826664,8.617188217464037 z" /><path fill-rule="evenodd" fill="#66cc99" stroke="#555555" stroke-width="0.0" opacity="0.6" d="M 18.353830218285545,8.627391809169435 L 18.355871287203968,8.628755602352246 L 18.351932509722726,8.625834405881644 L 18.353830218285545,8.627391809169435 z" /><path fill-rule="evenodd" fill="#66cc99" stroke="#555555" stroke-width="0.0" opacity="0.6" d="M 18.36198988441144,8.632843901911668 L 18.364154800132976,8.634001068318979 L 18.35994866161746,8.631480005912907 L 18.36198988441144,8.632843901911668 z" /><path fill-rule="evenodd" fill="#66cc99" stroke="#555555" stroke-width="0.0" opacity="0.6" d="M 18.370644658054083,8.637469954197444 L 18.372912571256848,8.638409349684142 L 18.36847957912019,8.636312700551704 L 18.370644658054083,8.637469954197444 z" /><path fill-rule="evenodd" fill="#66cc99" stroke="#555555" stroke-width="0.0" opacity="0.6" d="M 18.37971118901211,8.641225414614372 L 18.382060258452192,8.641937992288403 L 18.377443104832114,8.640285948306955 L 18.37971118901211,8.641225414614372 z" /><path fill-rule="evenodd" fill="#66cc99" stroke="#555555" stroke-width="0.0" opacity="0.6" d="M 18.389102161636128,8.644074116025717 L 18.39150976449071,8.64455301337453 L 18.38675291510038,8.64336148463066 L 18.389102161636128,8.644074116025717 z" /><path fill-rule="evenodd" fill="#66cc99" stroke="#555555" stroke-width="0.0" opacity="0.6" d="M 18.39872713572614,8.645988623879605 L 18.401170085463463,8.646229228859932 L 18.396319351363196,8.645509690426879 L 18.39872713572614,8.645988623879605 z" /><path fill-rule="evenodd" fill="#66cc99" stroke="#555555" stroke-width="0.0" opacity="0.6" d="M 18.40849341752012,8.64695050041885 L 18.41094818719891,8.646950495873206 L 18.406050283609538,8.646709877299383 L 18.40849341752012,8.64695050041885 z" /><path fill-rule="evenodd" fill="#66cc99" stroke="#555555" stroke-width="0.0" opacity="0.6" d="M 18.41830695238559,8.646950482246547 L 18.42074990123187,8.646709868218712 L 18.415851997642488,8.646950486792534 L 18.41830695238559,8.646950482246547 z" /><path fill-rule="evenodd" fill="#66cc99" stroke="#555555" stroke-width="0.0" opacity="0.6" d="M 18.428073230617166,8.645988569537707 L 18.43048083169803,8.645509663272314 L 18.425630097597807,8.646229201705351 L 18.428073230617166,8.645988569537707 z" /><path fill-rule="evenodd" fill="#66cc99" stroke="#555555" stroke-width="0.0" opacity="0.6" d="M 18.437698197616697,8.644074026037567 L 18.440047264417768,8.643361439663702 L 18.435290415027485,8.644552968407563 L 18.437698197616697,8.644074026037567 z" /><path fill-rule="evenodd" fill="#66cc99" stroke="#555555" stroke-width="0.0" opacity="0.6" d="M 18.44708915969044,8.641225289846606 L 18.449357069414123,8.640285885960653 L 18.444739915793985,8.641937929942124 L 18.44708915969044,8.641225289846606 z" /><path fill-rule="evenodd" fill="#66cc99" stroke="#555555" stroke-width="0.0" opacity="0.6" d="M 18.45615567673999,8.63746979585164 L 18.458320588175997,8.6363126214265 L 18.453887596039294,8.638409270558961 L 18.45615567673999,8.63746979585164 z" /><path fill-rule="evenodd" fill="#66cc99" stroke="#555555" stroke-width="0.0" opacity="0.6" d="M 18.464810433249905,8.63284371151279 L 18.466851497117535,8.63147991077081 L 18.462645358601943,8.634000973176933 L 18.464810433249905,8.63284371151279 z" /><path fill-rule="evenodd" fill="#66cc99" stroke="#555555" stroke-width="0.0" opacity="0.6" d="M 18.472970079183817,8.627391588551118 L 18.474867638922305,8.62583429563897 L 18.470928861441077,8.628755492109574 L 18.472970079183817,8.627391588551118 z" /><path fill-rule="evenodd" fill="#66cc99" stroke="#555555" stroke-width="0.0" opacity="0.6" d="M 18.48055603269088,8.621165933891184 L 18.482291813762696,8.619430146390854 L 18.47865832989593,8.622723344207182 L 18.48055603269088,8.621165933891184 z" /><path fill-rule="evenodd" fill="#66cc99" stroke="#555555" stroke-width="0.0" opacity="0.6" d="M 18.48749523689191,8.614226703990639 L 18.489052522776426,8.612329138484665 L 18.485759324960128,8.615962622351423 L 18.48749523689191,8.614226703990639 z" /><path fill-rule="evenodd" fill="#66cc99" stroke="#555555" stroke-width="0.0" opacity="0.6" d="M 18.493720863457085,8.606640727426813 L 18.49508465663998,8.604599658508256 L 18.49216346016924,8.608538435989677 L 18.493720863457085,8.606640727426813 z" /><path fill-rule="evenodd" fill="#66cc99" stroke="#555555" stroke-width="0.0" opacity="0.6" d="M 18.499172956199317,8.59848106130091 L 18.500330122606634,8.596316145579346 L 18.4978090602005,8.600522284094989 L 18.499172956199317,8.59848106130091 z" /><path fill-rule="evenodd" fill="#66cc99" stroke="#555555" stroke-width="0.0" opacity="0.6" d="M 18.503799008485093,8.589826287658267 L 18.504738403971835,8.587558374455416 L 18.50264175483933,8.591991366592191 L 18.503799008485093,8.589826287658267 z" /><path fill-rule="evenodd" fill="#66cc99" stroke="#555555" stroke-width="0.0" opacity="0.6" d="M 18.507554468902022,8.58075975670024 L 18.50826704657601,8.578410687260293 L 18.506615002594575,8.58302784088029 L 18.507554468902022,8.58075975670024 z" /><path fill-rule="evenodd" fill="#66cc99" stroke="#555555" stroke-width="0.0" opacity="0.6" d="M 18.51040317031336,8.57136878407622 L 18.51088206766215,8.568961181221775 L 18.509690538918377,8.573718030611746 L 18.51040317031336,8.57136878407622 z" /><path fill-rule="evenodd" fill="#66cc99" stroke="#555555" stroke-width="0.0" opacity="0.6" d="M 18.512317678167253,8.561743809986204 L 18.512558283147573,8.559300860248872 L 18.511838744714527,8.56415159434911 L 18.512317678167253,8.561743809986204 z" /><path fill-rule="evenodd" fill="#66cc99" stroke="#555555" stroke-width="0.0" opacity="0.6" d="M 18.5132795547065,8.55197752819223 L 18.513279550160856,8.549522758513481 L 18.51303893158704,8.55442066210281 L 18.5132795547065,8.55197752819223 z" /><path fill-rule="evenodd" fill="#66cc99" stroke="#555555" stroke-width="0.0" opacity="0.6" d="M 17.6055204452935,8.55197752819223 L 17.60576106841296,8.55442066210281 L 17.605520449839144,8.549522758513481 L 17.6055204452935,8.55197752819223 z" /><path fill-rule="evenodd" fill="#66cc99" stroke="#555555" stroke-width="0.0" opacity="0.6" d="M 17.606482321832747,8.561743809986204 L 17.606961255285473,8.56415159434911 L 17.606241716852427,8.559300860248872 L 17.606482321832747,8.561743809986204 z" /><path fill-rule="evenodd" fill="#66cc99" stroke="#555555" stroke-width="0.0" opacity="0.6" d="M 17.60839682968664,8.57136878407622 L 17.609109461081623,8.573718030611746 L 17.607917932337852,8.568961181221775 L 17.60839682968664,8.57136878407622 z" /><path fill-rule="evenodd" fill="#66cc99" stroke="#555555" stroke-width="0.0" opacity="0.6" d="M 17.61124553109798,8.58075975670024 L 17.612184997405425,8.58302784088029 L 17.61053295342399,8.578410687260293 L 17.61124553109798,8.58075975670024 z" /><path fill-rule="evenodd" fill="#66cc99" stroke="#555555" stroke-width="0.0" opacity="0.6" d="M 17.615000991514908,8.589826287658267 L 17.61615824516067,8.591991366592191 L 17.614061596028165,8.587558374455416 L 17.615000991514908,8.589826287658267 z" /><path fill-rule="evenodd" fill="#66cc99" stroke="#555555" stroke-width="0.0" opacity="0.6" d="M 17.619627043800683,8.59848106130091 L 17.6209909397995,8.600522284094989 L 17.618469877393366,8.596316145579346 L 17.619627043800683,8.59848106130091 z" /><path fill-rule="evenodd" fill="#66cc99" stroke="#555555" stroke-width="0.0" opacity="0.6" d="M 17.625079136542915,8.606640727426813 L 17.62663653983076,8.608538435989677 L 17.623715343360022,8.604599658508256 L 17.625079136542915,8.606640727426813 z" /><path fill-rule="evenodd" fill="#66cc99" stroke="#555555" stroke-width="0.0" opacity="0.6" d="M 17.63130476310809,8.614226703990639 L 17.633040675039872,8.615962622351423 L 17.629747477223574,8.612329138484665 L 17.63130476310809,8.614226703990639 z" /><path fill-rule="evenodd" fill="#66cc99" stroke="#555555" stroke-width="0.0" opacity="0.6" d="M 17.638243967309116,8.621165933891184 L 17.64014167010407,8.622723344207182 L 17.636508186237304,8.619430146390854 L 17.638243967309116,8.621165933891184 z" /><path fill-rule="evenodd" fill="#66cc99" stroke="#555555" stroke-width="0.0" opacity="0.6" d="M 17.645829920816183,8.627391588551118 L 17.647871138558923,8.628755492109574 L 17.643932361077695,8.62583429563897 L 17.645829920816183,8.627391588551118 z" /><path fill-rule="evenodd" fill="#66cc99" stroke="#555555" stroke-width="0.0" opacity="0.6" d="M 17.653989566750095,8.63284371151279 L 17.656154641398057,8.634000973176933 L 17.651948502882465,8.63147991077081 L 17.653989566750095,8.63284371151279 z" /><path fill-rule="evenodd" fill="#66cc99" stroke="#555555" stroke-width="0.0" opacity="0.6" d="M 17.66264432326001,8.63746979585164 L 17.664912403960706,8.638409270558961 L 17.660479411824003,8.6363126214265 L 17.66264432326001,8.63746979585164 z" /><path fill-rule="evenodd" fill="#66cc99" stroke="#555555" stroke-width="0.0" opacity="0.6" d="M 17.67171084030956,8.641225289846606 L 17.674060084206015,8.641937929942124 L 17.669442930585877,8.640285885960653 L 17.67171084030956,8.641225289846606 z" /><path fill-rule="evenodd" fill="#66cc99" stroke="#555555" stroke-width="0.0" opacity="0.6" d="M 17.681101802383303,8.644074026037567 L 17.683509584972516,8.644552968407563 L 17.678752735582233,8.643361439663702 L 17.681101802383303,8.644074026037567 z" /><path fill-rule="evenodd" fill="#66cc99" stroke="#555555" stroke-width="0.0" opacity="0.6" d="M 17.690726769382835,8.645988569537707 L 17.693169902402193,8.646229201705351 L 17.68831916830197,8.645509663272314 L 17.690726769382835,8.645988569537707 z" /><path fill-rule="evenodd" fill="#66cc99" stroke="#555555" stroke-width="0.0" opacity="0.6" d="M 17.700493047614412,8.646950482246547 L 17.702948002357513,8.646950486792534 L 17.698050098768128,8.646709868218712 L 17.700493047614412,8.646950482246547 z" /><path fill-rule="evenodd" fill="#66cc99" stroke="#555555" stroke-width="0.0" opacity="0.6" d="M 17.71030658247988,8.64695050041885 L 17.712749716390462,8.646709877299383 L 17.707851812801092,8.646950495873206 L 17.71030658247988,8.64695050041885 z" /><path fill-rule="evenodd" fill="#66cc99" stroke="#555555" stroke-width="0.0" opacity="0.6" d="M 17.72007286427386,8.645988623879605 L 17.722480648636804,8.645509690426879 L 17.717629914536534,8.646229228859932 L 17.72007286427386,8.645988623879605 z" /><path fill-rule="evenodd" fill="#66cc99" stroke="#555555" stroke-width="0.0" opacity="0.6" d="M 17.729697838363872,8.644074116025717 L 17.73204708489962,8.64336148463066 L 17.72729023550929,8.64455301337453 L 17.729697838363872,8.644074116025717 z" /><path fill-rule="evenodd" fill="#66cc99" stroke="#555555" stroke-width="0.0" opacity="0.6" d="M 17.73908881098789,8.641225414614372 L 17.741356895167886,8.640285948306955 L 17.736739741547808,8.641937992288403 L 17.73908881098789,8.641225414614372 z" /><path fill-rule="evenodd" fill="#66cc99" stroke="#555555" stroke-width="0.0" opacity="0.6" d="M 17.748155341945917,8.637469954197444 L 17.75032042087981,8.636312700551704 L 17.745887428743153,8.638409349684142 L 17.748155341945917,8.637469954197444 z" /><path fill-rule="evenodd" fill="#66cc99" stroke="#555555" stroke-width="0.0" opacity="0.6" d="M 17.75681011558856,8.632843901911668 L 17.75885133838254,8.631480005912907 L 17.754645199867024,8.634001068318979 L 17.75681011558856,8.632843901911668 z" /><path fill-rule="evenodd" fill="#66cc99" stroke="#555555" stroke-width="0.0" opacity="0.6" d="M 17.764969781714456,8.627391809169435 L 17.766867490277274,8.625834405881644 L 17.762928712796032,8.628755602352246 L 17.764969781714456,8.627391809169435 z" /><path fill-rule="evenodd" fill="#66cc99" stroke="#555555" stroke-width="0.0" opacity="0.6" d="M 17.787028493468075,8.604675385779268 L 17.7839053922119,8.608886400349245 L 17.78535362959334,8.607132723198959 L 17.787028493468075,8.604675385779268 z" /><path fill-rule="evenodd" fill="#66cc99" stroke="#555555" stroke-width="0.0" opacity="0.6" d="M 17.79215824166976,8.596602911597893 L 17.789443814538657,8.60113165966703 L 17.790535446454346,8.599530032218128 L 17.79215824166976,8.596602911597893 z" /><path fill-rule="evenodd" fill="#66cc99" stroke="#555555" stroke-width="0.0" opacity="0.6" d="M 17.79650547074476,8.588050870385215 L 17.794217044253244,8.592889341679834 L 17.794996573575048,8.591483263864077 L 17.79650547074476,8.588050870385215 z" /><path fill-rule="evenodd" fill="#66cc99" stroke="#555555" stroke-width="0.0" opacity="0.6" d="M 17.800031098098295,8.579070119079478 L 17.798183633586483,8.584233436493761 L 17.79869924656145,8.583060535749823 L 17.800031098098295,8.579070119079478 z" /><path fill-rule="evenodd" fill="#66cc99" stroke="#555555" stroke-width="0.0" opacity="0.6" d="M 17.802703429274885,8.569674345640086 L 17.801308875678256,8.57524171567633 L 17.80161212149577,8.574333148068048 L 17.802703429274885,8.569674345640086 z" /><path fill-rule="evenodd" fill="#66cc99" stroke="#555555" stroke-width="0.0" opacity="0.6" d="M 17.80449844174668,8.559704278204896 L 17.803565298738377,8.565995017382882 L 17.803710540269464,8.56537498001977 L 17.80449844174668,8.559704278204896 z" /><path fill-rule="evenodd" fill="#66cc99" stroke="#555555" stroke-width="0.0" opacity="0.6" d="M 17.8054,8.54707094571235 L 17.804933021514447,8.556576511156575 L 17.80497673931934,8.556261864411109 L 17.8054,8.54707094571235 z" /><path fill-rule="evenodd" fill="#66cc99" stroke="#555555" stroke-width="0.0" opacity="0.6" d="M 20.586792126434833,5.556470072602518 L 20.581746961230248,5.564887422221877 L 20.575901045336277,5.57276972733628 L 20.581746961230262,5.564887422221877 L 20.586792126434833,5.556470072602518 z" /><path fill-rule="evenodd" fill="#66cc99" stroke="#555555" stroke-width="0.0" opacity="0.6" d="M 18.313866978485553,8.556576511156575 L 18.3134,8.54707094571235 L 18.31382326068066,8.556261864411109 L 18.313866978485553,8.556576511156575 z" /><path fill-rule="evenodd" fill="#66cc99" stroke="#555555" stroke-width="0.0" opacity="0.6" d="M 18.315234701261623,8.565995017382882 L 18.31430155825332,8.559704278204896 L 18.315089459730537,8.56537498001977 L 18.315234701261623,8.565995017382882 z" /><path fill-rule="evenodd" fill="#66cc99" stroke="#555555" stroke-width="0.0" opacity="0.6" d="M 18.317491124321744,8.57524171567633 L 18.31609657072511,8.569674345640086 L 18.31718787850423,8.574333148068048 L 18.317491124321744,8.57524171567633 z" /><path fill-rule="evenodd" fill="#66cc99" stroke="#555555" stroke-width="0.0" opacity="0.6" d="M 18.320616366413518,8.584233436493761 L 18.318768901901706,8.579070119079478 L 18.32010075343855,8.583060535749823 L 18.320616366413518,8.584233436493761 z" /><path fill-rule="evenodd" fill="#66cc99" stroke="#555555" stroke-width="0.0" opacity="0.6" d="M 18.324582955746756,8.592889341679834 L 18.32229452925524,8.588050870385215 L 18.323803426424952,8.591483263864077 L 18.324582955746756,8.592889341679834 z" /><path fill-rule="evenodd" fill="#66cc99" stroke="#555555" stroke-width="0.0" opacity="0.6" d="M 18.329356185461343,8.60113165966703 L 18.32664175833024,8.596602911597893 L 18.328264553545655,8.599530032218128 L 18.329356185461343,8.60113165966703 z" /><path fill-rule="evenodd" fill="#66cc99" stroke="#555555" stroke-width="0.0" opacity="0.6" d="M 18.3348946077881,8.608886400349245 L 18.331771506531926,8.604675385779268 L 18.33344637040666,8.607132723198959 L 18.3348946077881,8.608886400349245 z" /><polyline fill="none" stroke="#66cc99" stroke-width="0.0" points="20.5986,5.509330398919918 20.598118472667217,5.499528684886962" opacity="0.8" /><polyline fill="none" stroke="#66cc99" stroke-width="0.0" points="20.598118472667217,5.499528684886962 20.596678528040318,5.489821366718307" opacity="0.8" /><polyline fill="none" stroke="#66cc99" stroke-width="0.0" points="20.596678528040318,5.489821366718307 20.594294033573224,5.480301931194469" opacity="0.8" /><polyline fill="none" stroke="#66cc99" stroke-width="0.0" points="20.594294033573224,5.480301931194469 20.590987953251123,5.4710620556834115" opacity="0.8" /><polyline fill="none" stroke="#66cc99" stroke-width="0.0" points="20.590987953251123,5.4710620556834115 20.586792126434833,5.462190725237317" opacity="0.8" /><polyline fill="none" stroke="#66cc99" stroke-width="0.0" points="20.586792126434833,5.462190725237317 20.581746961230248,5.453773375617959" opacity="0.8" /><polyline fill="none" stroke="#66cc99" stroke-width="0.0" points="20.581746961230248,5.453773375617959 20.575901045336277,5.4458910705035555" opacity="0.8" /><polyline fill="none" stroke="#66cc99" stroke-width="0.0" points="20.575901045336277,5.4458910705035555 20.56931067811866,5.438619720801264" opacity="0.8" /><polyline fill="none" stroke="#66cc99" stroke-width="0.0" points="20.56931067811866,5.438619720801264 20.56203932841636,5.4320293535836415" opacity="0.8" /><polyline fill="none" stroke="#66cc99" stroke-width="0.0" points="20.56203932841636,5.4320293535836415 20.554157023301958,5.426183437689662" opacity="0.8" /><polyline fill="none" stroke="#66cc99" stroke-width="0.0" points="20.554157023301958,5.426183437689662 20.5457396736826,5.421138272485085" opacity="0.8" /><polyline fill="none" stroke="#66cc99" stroke-width="0.0" points="20.5457396736826,5.421138272485085 20.536868343236506,5.416942445668787" opacity="0.8" /><polyline fill="none" stroke="#66cc99" stroke-width="0.0" points="20.536868343236506,5.416942445668787 20.527628467725442,5.4136363653467" opacity="0.8" /><polyline fill="none" stroke="#66cc99" stroke-width="0.0" points="20.527628467725442,5.4136363653467 20.518109032201618,5.411251870879598" opacity="0.8" /><polyline fill="none" stroke="#66cc99" stroke-width="0.0" points="20.4986,5.409330398919917 20.488798285967036,5.409811926252701" opacity="0.8" /><polyline fill="none" stroke="#66cc99" stroke-width="0.0" points="20.488798285967036,5.409811926252701 20.47909096779838,5.411251870879598" opacity="0.8" /><polyline fill="none" stroke="#66cc99" stroke-width="0.0" points="20.47909096779838,5.411251870879598 20.46957153227456,5.4136363653467" opacity="0.8" /><polyline fill="none" stroke="#66cc99" stroke-width="0.0" points="20.46957153227456,5.4136363653467 20.460331656763493,5.416942445668787" opacity="0.8" /><polyline fill="none" stroke="#66cc99" stroke-width="0.0" points="20.460331656763493,5.416942445668787 20.4514603263174,5.421138272485085" opacity="0.8" /><polyline fill="none" stroke="#66cc99" stroke-width="0.0" points="20.4514603263174,5.421138272485085 20.44304297669804,5.426183437689662" opacity="0.8" /><polyline fill="none" stroke="#66cc99" stroke-width="0.0" points="20.44304297669804,5.426183437689662 20.43516067158364,5.4320293535836415" opacity="0.8" /><polyline fill="none" stroke="#66cc99" stroke-width="0.0" points="20.43516067158364,5.4320293535836415 20.427889321881338,5.438619720801264" opacity="0.8" /></g> 
                    </g>
                    </svg>