<svg xmlns="http://www.w3.org/2000/svg" viewBox="0 0 23.749 20.768162" width="23.749mm" height="20.768162mm">
                    <g stroke-linecap="round">
                        <g><path fill-rule="evenodd" fill="#66cc99" stroke="#555555" stroke-width="0.0" opacity="0.6" d="M 20.014368599813803,8.536689069978186 L 20.01399091111411,8.535181209581465 L 20.008293327802107,8.516398480279424 L 20.00168094550441,8.497917956044853 L 19.99416969533299,8.479784161723337 L 19.985777674028366,8.462040786789082 L 19.97652510035953,8.444730580084846 L 19.966434266411348,8.427895246828102 L 19.961182198858975,8.41960144330597 L 19.944653198858976,8.39486444330597 L 19.939000943867608,8.386838968347467 L 19.94465319885899,8.394864443305998 L 19.949693099429503,8.402407066599167 L 19.95978355453372,8.419241691097923 L 19.96817533958672,8.43698428983228 L 19.974787637111007,8.455463991877346 L 19.979556767066807,8.47450282760039 L 19.982436800125555,8.493917442605705 L 19.983399999994518,8.51352086353769 L 19.982437090532407,8.533124298736453 L 19.979557345083713,8.552538956404701 L 19.97478849717137,8.571577862775944 L 19.971482236283496,8.580818458716466 L 19.97217480167362,8.578882868118368 L 20.014368599813803,8.536689069978186 z" /><path fill-rule="evenodd" fill="#66cc99" stroke="#555555" stroke-width="0.0" opacity="0.6" d="M 21.506238763833956,5.648608868917078 L 21.506539763739244,5.660870245704643 L 21.5066,5.655962 L 21.506238763833956,5.648608868917078 z" /><path fill-rule="evenodd" fill="#66cc99" stroke="#555555" stroke-width="0.0" opacity="0.6" d="M 21.505636945334434,5.636358571934089 L 21.504556715738072,5.629076255523302 L 21.5057574541619,5.638811585469894 L 21.505636945334434,5.636358571934089 z" /><path fill-rule="evenodd" fill="#66cc99" stroke="#555555" stroke-width="0.0" opacity="0.6" d="M 21.50275705608064,5.616943935596772 L 21.50096823625544,5.609802566545739 L 21.503117421997114,5.6193733252712486 L 21.50275705608064,5.616943935596772 z" /><path fill-rule="evenodd" fill="#66cc99" stroke="#555555" stroke-width="0.0" opacity="0.6" d="M 21.497988067146434,5.597905064549111 L 21.495507884405107,5.59097341814553 L 21.49858481963119,5.600287434011772 L 21.497988067146434,5.597905064549111 z" /><path fill-rule="evenodd" fill="#66cc99" stroke="#555555" stroke-width="0.0" opacity="0.6" d="M 21.491375906502263,5.579425313526981 L 21.48822824636051,5.572770145315312 L 21.49220329850267,5.581737719257593 L 21.491375906502263,5.579425313526981 z" /><path fill-rule="evenodd" fill="#66cc99" stroke="#555555" stroke-width="0.0" opacity="0.6" d="M 21.482984252869667,5.5616826526348 L 21.479199429015473,5.555368055523195 L 21.484034316148357,5.563902824901782 L 21.482984252869667,5.5616826526348 z" /><path fill-rule="evenodd" fill="#66cc99" stroke="#555555" stroke-width="0.0" opacity="0.6" d="M 21.47289392246051,5.544847953396082 L 21.4685083848162,5.538934740405999 L 21.474156544334175,5.546954510727063 L 21.47289392246051,5.544847953396082 z" /><path fill-rule="evenodd" fill="#66cc99" stroke="#555555" stroke-width="0.0" opacity="0.6" d="M 21.461202090672554,5.529083343167268 L 21.456258074363173,5.523628461772629 L 21.462665111402423,5.531055998263694 L 21.461202090672554,5.529083343167268 z" /><path fill-rule="evenodd" fill="#66cc99" stroke="#555555" stroke-width="0.0" opacity="0.6" d="M 21.44802135623731,5.514540643762693 L 21.44256647484301,5.509596627453632 L 21.449670686133803,5.51636039887736 L 21.44802135623731,5.514540643762693 z" /><path fill-rule="evenodd" fill="#66cc99" stroke="#555555" stroke-width="0.0" opacity="0.6" d="M 21.433478656832726,5.501359909327455 L 21.427565443842976,5.496974371683382 L 21.43529841194731,5.503009239223875 L 21.433478656832726,5.501359909327455 z" /><path fill-rule="evenodd" fill="#66cc99" stroke="#555555" stroke-width="0.0" opacity="0.6" d="M 21.41771404660392,5.489668077539489 L 21.41139944949208,5.485883253685154 L 21.41968670170021,5.491131098269261 L 21.41771404660392,5.489668077539489 z" /><path fill-rule="evenodd" fill="#66cc99" stroke="#555555" stroke-width="0.0" opacity="0.6" d="M 21.4008793473652,5.479577747130327 L 21.394224179153547,5.476430086988583 L 21.40298590469624,5.480840369004026 L 21.4008793473652,5.479577747130327 z" /><path fill-rule="evenodd" fill="#66cc99" stroke="#555555" stroke-width="0.0" opacity="0.6" d="M 21.383136686473012,5.471186093497746 L 21.37620504006961,5.468705910756476 L 21.385356858740046,5.472236156776465 L 21.383136686473012,5.471186093497746 z" /><path fill-rule="evenodd" fill="#66cc99" stroke="#555555" stroke-width="0.0" opacity="0.6" d="M 21.364656935450896,5.464573932853557 L 21.35751556639975,5.462785113028333 L 21.3669693411814,5.465401324853934 L 21.364656935450896,5.464573932853557 z" /><path fill-rule="evenodd" fill="#66cc99" stroke="#555555" stroke-width="0.0" opacity="0.6" d="M 21.345618064403222,5.4598049439193534 L 21.338335747992037,5.4587247143229325 L 21.34800043386586,5.4604016964041 L 21.345618064403222,5.4598049439193534 z" /><path fill-rule="evenodd" fill="#66cc99" stroke="#555555" stroke-width="0.0" opacity="0.6" d="M 21.32620342806591,5.456925054665558 L 21.318850296982617,5.4565638184994985 L 21.32863281774056,5.457285420582063 L 21.32620342806591,5.456925054665558 z" /><path fill-rule="evenodd" fill="#66cc99" stroke="#555555" stroke-width="0.0" opacity="0.6" d="M 21.3066,5.455962 L 21.299246868916853,5.456323236166052 L 21.30905301353593,5.456082508827463 L 21.3066,5.455962 z" /><path fill-rule="evenodd" fill="#66cc99" stroke="#555555" stroke-width="0.0" opacity="0.6" d="M 21.28699657193409,5.456925054665558 L 21.279714255522862,5.458005284261986 L 21.289449585469992,5.456804545838096 L 21.28699657193409,5.456925054665558 z" /><path fill-rule="evenodd" fill="#66cc99" stroke="#555555" stroke-width="0.0" opacity="0.6" d="M 21.26758193559678,5.4598049439193534 L 21.260440566545604,5.4615937637445855 L 21.270011325271383,5.459444578002855 L 21.26758193559678,5.4598049439193534 z" /><path fill-rule="evenodd" fill="#66cc99" stroke="#555555" stroke-width="0.0" opacity="0.6" d="M 21.248543064549104,5.464573932853557 L 21.24161141814579,5.46705411559479 L 21.25092543401176,5.463977180368803 L 21.248543064549104,5.464573932853557 z" /><path fill-rule="evenodd" fill="#66cc99" stroke="#555555" stroke-width="0.0" opacity="0.6" d="M 21.230063313526987,5.471186093497746 L 21.223408145315513,5.4743337536394 L 21.232375719257398,5.470358701497406 L 21.230063313526987,5.471186093497746 z" /><path fill-rule="evenodd" fill="#66cc99" stroke="#555555" stroke-width="0.0" opacity="0.6" d="M 21.212320652634798,5.479577747130327 L 21.20600605552286,5.483362570984713 L 21.214540824901878,5.478527683851585 L 21.212320652634798,5.479577747130327 z" /><path fill-rule="evenodd" fill="#66cc99" stroke="#555555" stroke-width="0.0" opacity="0.6" d="M 21.195485953396084,5.489668077539489 L 21.18957274040626,5.494053615183614 L 21.197592510727123,5.488405455665782 L 21.195485953396084,5.489668077539489 z" /><path fill-rule="evenodd" fill="#66cc99" stroke="#555555" stroke-width="0.0" opacity="0.6" d="M 21.179721343167277,5.501359909327455 L 21.174266461772948,5.506303925636537 L 21.18169399826351,5.499896888597735 L 21.179721343167277,5.501359909327455 z" /><path fill-rule="evenodd" fill="#66cc99" stroke="#555555" stroke-width="0.0" opacity="0.6" d="M 21.165178643762694,5.514540643762693 L 21.16023462745334,5.51999552515731 L 21.166998398877368,5.512891313866206 L 21.165178643762694,5.514540643762693 z" /><path fill-rule="evenodd" fill="#66cc99" stroke="#555555" stroke-width="0.0" opacity="0.6" d="M 21.15199790932745,5.529083343167268 L 21.147612371683135,5.534996556157336 L 21.153647239224032,5.527263588052496 L 21.15199790932745,5.529083343167268 z" /><path fill-rule="evenodd" fill="#66cc99" stroke="#555555" stroke-width="0.0" opacity="0.6" d="M 21.14030607753949,5.544847953396082 L 21.13652125368528,5.5511625505077244 L 21.141769098269254,5.542875298299797 L 21.14030607753949,5.544847953396082 z" /><path fill-rule="evenodd" fill="#66cc99" stroke="#555555" stroke-width="0.0" opacity="0.6" d="M 21.130215747130336,5.5616826526348 L 21.127068086988686,5.568337820846237 L 21.131478369003965,5.559576095303878 L 21.130215747130336,5.5616826526348 z" /><path fill-rule="evenodd" fill="#66cc99" stroke="#555555" stroke-width="0.0" opacity="0.6" d="M 21.12182409349774,5.579425313526981 L 21.1193439107565,5.586356959930316 L 21.122874156776472,5.577205141259924 L 21.12182409349774,5.579425313526981 z" /><path fill-rule="evenodd" fill="#66cc99" stroke="#555555" stroke-width="0.0" opacity="0.6" d="M 21.115211932853565,5.597905064549111 L 21.11342311302836,5.605046433600142 L 21.116039324853897,5.595592658818699 L 21.115211932853565,5.597905064549111 z" /><path fill-rule="evenodd" fill="#66cc99" stroke="#555555" stroke-width="0.0" opacity="0.6" d="M 21.11044294391936,5.616943935596772 L 21.10936271432297,5.62422625200779 L 21.111039696404113,5.6145615661341175 L 21.11044294391936,5.616943935596772 z" /><path fill-rule="evenodd" fill="#66cc99" stroke="#555555" stroke-width="0.0" opacity="0.6" d="M 21.107563054665565,5.636358571934089 L 21.10720181849952,5.643711703016981 L 21.107923420582058,5.6339291822595525 L 21.107563054665565,5.636358571934089 z" /><path fill-rule="evenodd" fill="#66cc99" stroke="#555555" stroke-width="0.0" opacity="0.6" d="M 19.628797909327446,8.640401001778885 L 19.62879840735391,8.640401551266402 L 19.622952433445572,8.632519289952114 L 19.628797909327446,8.640401001778885 z" /><path fill-rule="evenodd" fill="#66cc99" stroke="#555555" stroke-width="0.0" opacity="0.6" d="M 19.64197864376269,8.654943701183461 L 19.641979193250133,8.654944199209847 L 19.63538877262309,8.647672898818925 L 19.64197864376269,8.654943701183461 z" /><path fill-rule="evenodd" fill="#66cc99" stroke="#555555" stroke-width="0.0" opacity="0.6" d="M 19.656521343167274,8.668124435618699 L 19.656521938823833,8.668124877387703 L 19.64925054178542,8.661534565369747 L 19.656521343167274,8.668124435618699 z" /><path fill-rule="evenodd" fill="#66cc99" stroke="#555555" stroke-width="0.0" opacity="0.6" d="M 19.67228595339608,8.679816267406665 L 19.672286589485346,8.6798166486639 L 19.664404242915733,8.673970792523361 L 19.67228595339608,8.679816267406665 z" /><path fill-rule="evenodd" fill="#66cc99" stroke="#555555" stroke-width="0.0" opacity="0.6" d="M 19.6891206526348,8.689906597815826 L 19.68912132303086,8.689906914889551 L 19.68070393786609,8.684861813126087 L 19.6891206526348,8.689906597815826 z" /><path fill-rule="evenodd" fill="#66cc99" stroke="#555555" stroke-width="0.0" opacity="0.6" d="M 19.706863313526988,8.698298251448408 L 19.70686401177351,8.69829850128501 L 19.6979926525601,8.694102741272204 L 19.706863313526988,8.698298251448408 z" /><path fill-rule="evenodd" fill="#66cc99" stroke="#555555" stroke-width="0.0" opacity="0.6" d="M 19.725343064549104,8.704910412092596 L 19.725343783921794,8.704910592286073 L 19.71610388573344,8.701604581052102 L 19.725343064549104,8.704910412092596 z" /><path fill-rule="evenodd" fill="#66cc99" stroke="#555555" stroke-width="0.0" opacity="0.6" d="M 19.744381935596778,8.7096794010268 L 19.744382669167475,8.709679509841733 L 19.734863217478125,8.707295086260341 L 19.744381935596778,8.7096794010268 z" /><path fill-rule="evenodd" fill="#66cc99" stroke="#555555" stroke-width="0.0" opacity="0.6" d="M 19.76379657193409,8.712559290280595 L 19.763797312638207,8.712559326669052 L 19.754089985555037,8.711119454204432 L 19.76379657193409,8.712559290280595 z" /><path fill-rule="evenodd" fill="#66cc99" stroke="#555555" stroke-width="0.0" opacity="0.6" d="M 19.7834,8.713522344946153 L 19.783400740704074,8.713522308557696 L 19.773599024882166,8.713040853913949 L 19.7834,8.713522344946153 z" /><path fill-rule="evenodd" fill="#66cc99" stroke="#555555" stroke-width="0.0" opacity="0.6" d="M 19.80300342806591,8.712559290280595 L 19.803004161636622,8.712559181465663 L 19.793202453174874,8.713040781301663 L 19.80300342806591,8.712559290280595 z" /><path fill-rule="evenodd" fill="#66cc99" stroke="#555555" stroke-width="0.0" opacity="0.6" d="M 19.82241806440322,8.7096794010268 L 19.822418783775838,8.709679220833339 L 19.81271147823222,8.711119237072102 L 19.82241806440322,8.7096794010268 z" /><path fill-rule="evenodd" fill="#66cc99" stroke="#555555" stroke-width="0.0" opacity="0.6" d="M 19.841456935450896,8.704910412092596 L 19.84145763369751,8.704910162255965 L 19.831938217802644,8.707294726741225 L 19.841456935450896,8.704910412092596 z" /><path fill-rule="evenodd" fill="#66cc99" stroke="#555555" stroke-width="0.0" opacity="0.6" d="M 19.859936686473013,8.698298251448408 L 19.8599373568691,8.698297934374676 L 19.850697507567048,8.701604082521214 L 19.859936686473013,8.698298251448408 z" /><path fill-rule="evenodd" fill="#66cc99" stroke="#555555" stroke-width="0.0" opacity="0.6" d="M 19.877679347365202,8.689906597815826 L 19.87767998345451,8.68990621655856 L 19.86880868556726,8.694102108385094 L 19.877679347365202,8.689906597815826 z" /><path fill-rule="evenodd" fill="#66cc99" stroke="#555555" stroke-width="0.0" opacity="0.6" d="M 19.894514046603916,8.679816267406665 L 19.894514642260553,8.679815825637593 L 19.886097331131086,8.684861052518443 L 19.894514046603916,8.679816267406665 z" /><path fill-rule="evenodd" fill="#66cc99" stroke="#555555" stroke-width="0.0" opacity="0.6" d="M 19.910278656832723,8.668124435618699 L 19.910279206320077,8.668123937592387 L 19.902396946136193,8.673969910662345 L 19.910278656832723,8.668124435618699 z" /><path fill-rule="evenodd" fill="#66cc99" stroke="#555555" stroke-width="0.0" opacity="0.6" d="M 19.924821356237306,8.654943701183461 L 19.924821854263648,8.654943151696063 L 19.917550555201576,8.661533571118698 L 19.924821356237306,8.654943701183461 z" /><path fill-rule="evenodd" fill="#66cc99" stroke="#555555" stroke-width="0.0" opacity="0.6" d="M 19.93800209067255,8.640401001778885 L 19.938002532441615,8.640400406122252 L 19.931412220196755,8.64767180341103 L 19.93800209067255,8.640401001778885 z" /><path fill-rule="evenodd" fill="#66cc99" stroke="#555555" stroke-width="0.0" opacity="0.6" d="M 19.94969392246051,8.624636391550071 L 19.949694303717777,8.624635755460746 L 19.943848446979686,8.63251810283608 L 19.94969392246051,8.624636391550071 z" /><path fill-rule="evenodd" fill="#66cc99" stroke="#555555" stroke-width="0.0" opacity="0.6" d="M 19.959784252869667,8.607801692311353 L 19.959784569943412,8.607801021915257 L 19.954739467825263,8.616218407671779 L 19.959784252869667,8.607801692311353 z" /><path fill-rule="evenodd" fill="#66cc99" stroke="#555555" stroke-width="0.0" opacity="0.6" d="M 19.96817590650226,8.590059031419173 L 19.96817615633893,8.590058333172456 L 19.96398039566143,8.598929693791256 L 19.96817590650226,8.590059031419173 z" /><path fill-rule="evenodd" fill="#66cc99" stroke="#555555" stroke-width="0.0" opacity="0.6" d="M 18.3471069005705,8.62463762329314 L 18.352952433169946,8.632519289580479 L 18.347106519311293,8.624636987210408 L 18.347106900570424,8.624637623293035 L 18.3471069005705,8.62463762329314 z" /><path fill-rule="evenodd" fill="#66cc99" stroke="#555555" stroke-width="0.0" opacity="0.6" d="M 18.35879884912728,8.640402146919623 L 18.365388772623092,8.647672898818925 L 18.35879840735391,8.640401551266402 L 18.35879884912728,8.640402146919623 z" /><path fill-rule="evenodd" fill="#66cc99" stroke="#555555" stroke-width="0.0" opacity="0.6" d="M 18.371979691280544,8.654944748693548 L 18.379250541785417,8.661534565369747 L 18.371979193250134,8.654944199209847 L 18.371979691280544,8.654944748693548 z" /><path fill-rule="evenodd" fill="#66cc99" stroke="#555555" stroke-width="0.0" opacity="0.6" d="M 18.38652248831497,8.668125375410035 L 18.394404242915734,8.673970792523361 L 18.386521938823833,8.668124877387703 L 18.38652248831497,8.668125375410035 z" /><path fill-rule="evenodd" fill="#66cc99" stroke="#555555" stroke-width="0.0" opacity="0.6" d="M 18.402287185145244,8.679817090428546 L 18.410703937866092,8.684861813126087 L 18.402286589485346,8.6798166486639 L 18.402287185145244,8.679817090428546 z" /><path fill-rule="evenodd" fill="#66cc99" stroke="#555555" stroke-width="0.0" opacity="0.6" d="M 18.419121959123,8.689907296142101 L 18.4279926525601,8.694102741272204 L 18.419121323030858,8.689906914889551 L 18.419121959123,8.689907296142101 z" /><path fill-rule="evenodd" fill="#66cc99" stroke="#555555" stroke-width="0.0" opacity="0.6" d="M 18.43686468217203,8.698298818353816 L 18.44610388573344,8.701604581052102 L 18.436864011773512,8.69829850128501 L 18.43686468217203,8.698298818353816 z" /><path fill-rule="evenodd" fill="#66cc99" stroke="#555555" stroke-width="0.0" opacity="0.6" d="M 18.455344482170208,8.704910842117519 L 18.464863217478126,8.707295086260341 L 18.455343783921794,8.704910592286073 L 18.455344482170208,8.704910842117519 z" /><path fill-rule="evenodd" fill="#66cc99" stroke="#555555" stroke-width="0.0" opacity="0.6" d="M 18.47438338854146,8.709679690029875 L 18.484089985555038,8.711119454204432 L 18.474382669167476,8.709679509841733 L 18.47438338854146,8.709679690029875 z" /><path fill-rule="evenodd" fill="#66cc99" stroke="#555555" stroke-width="0.0" opacity="0.6" d="M 18.493798046209694,8.712559435478553 L 18.503599024882167,8.713040853913949 L 18.493797312638208,8.712559326669052 L 18.493798046209694,8.712559435478553 z" /><path fill-rule="evenodd" fill="#66cc99" stroke="#555555" stroke-width="0.0" opacity="0.6" d="M 18.51340148140846,8.71352234494067 L 18.523202453174875,8.713040781301663 L 18.513400740704075,8.713522308557696 L 18.51340148140846,8.71352234494067 z" /><path fill-rule="evenodd" fill="#66cc99" stroke="#555555" stroke-width="0.0" opacity="0.6" d="M 18.53300490234044,8.712559145071715 L 18.54271147823222,8.711119237072102 L 18.533004161636622,8.712559181465663 L 18.53300490234044,8.712559145071715 z" /><path fill-rule="evenodd" fill="#66cc99" stroke="#555555" stroke-width="0.0" opacity="0.6" d="M 18.552419517345772,8.709679112012967 L 18.561938217802645,8.707294726741225 L 18.552418783775835,8.709679220833339 L 18.552419517345772,8.709679112012967 z" /><path fill-rule="evenodd" fill="#66cc99" stroke="#555555" stroke-width="0.0" opacity="0.6" d="M 18.571458353068813,8.704909982057169 L 18.58069750756705,8.701604082521214 L 18.57145763369751,8.704910162255965 L 18.571458353068813,8.704909982057169 z" /><path fill-rule="evenodd" fill="#66cc99" stroke="#555555" stroke-width="0.0" opacity="0.6" d="M 18.589938055113866,8.698297684532866 L 18.59880868556726,8.694102108385094 L 18.5899373568691,8.698297934374676 L 18.589938055113866,8.698297684532866 z" /><path fill-rule="evenodd" fill="#66cc99" stroke="#555555" stroke-width="0.0" opacity="0.6" d="M 18.60768065384823,8.689905899479873 L 18.616097331131087,8.684861052518443 L 18.60767998345451,8.68990621655856 L 18.60768065384823,8.689905899479873 z" /><path fill-rule="evenodd" fill="#66cc99" stroke="#555555" stroke-width="0.0" opacity="0.6" d="M 18.624515278346987,8.679815444375656 L 18.63239694613619,8.673969910662345 L 18.62451464226055,8.679815825637593 L 18.624515278346987,8.679815444375656 z" /><path fill-rule="evenodd" fill="#66cc99" stroke="#555555" stroke-width="0.0" opacity="0.6" d="M 18.640279801973477,8.668123495818882 L 18.647550555201576,8.661533571118698 L 18.640279206320077,8.668123937592387 L 18.640279801973477,8.668123495818882 z" /><path fill-rule="evenodd" fill="#66cc99" stroke="#555555" stroke-width="0.0" opacity="0.6" d="M 18.654822403747396,8.654942653665618 L 18.661412220196755,8.64767180341103 L 18.65482185426365,8.654943151696063 L 18.654822403747396,8.654942653665618 z" /><path fill-rule="evenodd" fill="#66cc99" stroke="#555555" stroke-width="0.0" opacity="0.6" d="M 18.66800303046389,8.640399856631175 L 18.673848446979687,8.63251810283608 L 18.668002532441616,8.640400406122252 L 18.66800303046389,8.640399856631175 z" /><path fill-rule="evenodd" fill="#66cc99" stroke="#555555" stroke-width="0.0" opacity="0.6" d="M 18.679694745482387,8.62463515980091 L 18.684739467825263,8.616218407671779 L 18.679694303717778,8.624635755460746 L 18.679694745482387,8.62463515980091 z" /><path fill-rule="evenodd" fill="#66cc99" stroke="#555555" stroke-width="0.0" opacity="0.6" d="M 18.68978495119594,8.607800385823145 L 18.693980395486264,8.598929694161638 L 18.689784569943413,8.607801021915257 L 18.68978495119594,8.607800385823145 z" /><path fill-rule="evenodd" fill="#66cc99" stroke="#555555" stroke-width="0.0" opacity="0.6" d="M 18.694819604513736,8.598929694161638 L 18.694400004020707,8.598042506455846 L 18.6944,8.598042514956914 L 18.694819604513736,8.598929694161638 z" /><path fill-rule="evenodd" fill="#66cc99" stroke="#555555" stroke-width="0.0" opacity="0.6" d="M 18.699015747130336,8.607801692311353 L 18.704060532174736,8.616218407671779 L 18.699015430056587,8.607801021915257 L 18.699015747130336,8.607801692311353 z" /><path fill-rule="evenodd" fill="#66cc99" stroke="#555555" stroke-width="0.0" opacity="0.6" d="M 18.709106077539488,8.624636391550071 L 18.714951553020313,8.63251810283608 L 18.709105696282222,8.624635755460746 L 18.709106077539488,8.624636391550071 z" /><path fill-rule="evenodd" fill="#66cc99" stroke="#555555" stroke-width="0.0" opacity="0.6" d="M 18.720797909327448,8.640401001778885 L 18.727387779803248,8.64767180341103 L 18.720797467558384,8.640400406122252 L 18.720797909327448,8.640401001778885 z" /><path fill-rule="evenodd" fill="#66cc99" stroke="#555555" stroke-width="0.0" opacity="0.6" d="M 18.733978643762693,8.654943701183461 L 18.741249444798424,8.661533571118698 L 18.73397814573635,8.654943151696063 L 18.733978643762693,8.654943701183461 z" /><path fill-rule="evenodd" fill="#66cc99" stroke="#555555" stroke-width="0.0" opacity="0.6" d="M 18.748521343167276,8.668124435618699 L 18.75640305386381,8.673969910662345 L 18.748520793679923,8.668123937592387 L 18.748521343167276,8.668124435618699 z" /><path fill-rule="evenodd" fill="#66cc99" stroke="#555555" stroke-width="0.0" opacity="0.6" d="M 18.764285953396083,8.679816267406665 L 18.772702668868913,8.684861052518443 L 18.76428535773945,8.679815825637593 L 18.764285953396083,8.679816267406665 z" /><path fill-rule="evenodd" fill="#66cc99" stroke="#555555" stroke-width="0.0" opacity="0.6" d="M 18.7811206526348,8.689906597815826 L 18.78999131443274,8.694102108385094 L 18.78112001654549,8.68990621655856 L 18.7811206526348,8.689906597815826 z" /><path fill-rule="evenodd" fill="#66cc99" stroke="#555555" stroke-width="0.0" opacity="0.6" d="M 18.798863313526986,8.698298251448408 L 18.80810249243295,8.701604082521214 L 18.7988626431309,8.698297934374676 L 18.798863313526986,8.698298251448408 z" /><path fill-rule="evenodd" fill="#66cc99" stroke="#555555" stroke-width="0.0" opacity="0.6" d="M 18.817343064549103,8.704910412092596 L 18.826861782197355,8.707294726741225 L 18.81734236630249,8.704910162255965 L 18.817343064549103,8.704910412092596 z" /><path fill-rule="evenodd" fill="#66cc99" stroke="#555555" stroke-width="0.0" opacity="0.6" d="M 18.83638193559678,8.7096794010268 L 18.84608852176778,8.711119237072102 L 18.836381216224165,8.709679220833339 L 18.83638193559678,8.7096794010268 z" /><path fill-rule="evenodd" fill="#66cc99" stroke="#555555" stroke-width="0.0" opacity="0.6" d="M 18.85579657193409,8.712559290280595 L 18.865597546825125,8.713040781301663 L 18.855795838363377,8.712559181465663 L 18.85579657193409,8.712559290280595 z" /><path fill-rule="evenodd" fill="#66cc99" stroke="#555555" stroke-width="0.0" opacity="0.6" d="M 18.8754,8.713522344946153 L 18.885200975117833,8.713040853913949 L 18.875399259295925,8.713522308557696 L 18.8754,8.713522344946153 z" /><path fill-rule="evenodd" fill="#66cc99" stroke="#555555" stroke-width="0.0" opacity="0.6" d="M 18.895003428065912,8.712559290280595 L 18.904710014444962,8.711119454204432 L 18.895002687361792,8.712559326669052 L 18.895003428065912,8.712559290280595 z" /><path fill-rule="evenodd" fill="#66cc99" stroke="#555555" stroke-width="0.0" opacity="0.6" d="M 18.914418064403222,8.7096794010268 L 18.923936782521874,8.707295086260341 L 18.914417330832528,8.709679509841733 L 18.914418064403222,8.7096794010268 z" /><path fill-rule="evenodd" fill="#66cc99" stroke="#555555" stroke-width="0.0" opacity="0.6" d="M 18.933456935450895,8.704910412092596 L 18.94269611426656,8.701604581052102 L 18.933456216078206,8.704910592286073 L 18.933456935450895,8.704910412092596 z" /><path fill-rule="evenodd" fill="#66cc99" stroke="#555555" stroke-width="0.0" opacity="0.6" d="M 18.95193668647301,8.698298251448408 L 18.9608073474399,8.694102741272204 L 18.951935988226488,8.69829850128501 L 18.95193668647301,8.698298251448408 z" /><path fill-rule="evenodd" fill="#66cc99" stroke="#555555" stroke-width="0.0" opacity="0.6" d="M 18.9696793473652,8.689906597815826 L 18.978096062133908,8.684861813126087 L 18.969678676969142,8.689906914889551 L 18.9696793473652,8.689906597815826 z" /><path fill-rule="evenodd" fill="#66cc99" stroke="#555555" stroke-width="0.0" opacity="0.6" d="M 18.98651404660392,8.679816267406665 L 18.994395757084266,8.673970792523361 L 18.986513410514654,8.6798166486639 L 18.98651404660392,8.679816267406665 z" /><path fill-rule="evenodd" fill="#66cc99" stroke="#555555" stroke-width="0.0" opacity="0.6" d="M 19.002278656832726,8.668124435618699 L 19.009549458214583,8.661534565369747 L 19.002278061176167,8.668124877387703 L 19.002278656832726,8.668124435618699 z" /><path fill-rule="evenodd" fill="#66cc99" stroke="#555555" stroke-width="0.0" opacity="0.6" d="M 19.01682135623731,8.654943701183461 L 19.023411227376908,8.647672898818925 L 19.016820806749866,8.654944199209847 L 19.01682135623731,8.654943701183461 z" /><path fill-rule="evenodd" fill="#66cc99" stroke="#555555" stroke-width="0.0" opacity="0.6" d="M 19.030002090672554,8.640401001778885 L 19.035847566554427,8.632519289952114 L 19.03000159264609,8.640401551266402 L 19.030002090672554,8.640401001778885 z" /><path fill-rule="evenodd" fill="#66cc99" stroke="#555555" stroke-width="0.0" opacity="0.6" d="M 20.36026582540257,5.263244989456408 L 20.341226942297713,5.258476048657469 L 20.36026582540257,5.263244989456415 L 20.378745593141915,5.269857103378929 L 20.36026582540257,5.263244989456408 z" /><path fill-rule="evenodd" fill="#66cc99" stroke="#555555" stroke-width="0.0" opacity="0.6" d="M 20.302208868178635,5.254633203386009 L 20.28260544254765,5.255596307614162 L 20.30220886817865,5.254633203386009 L 20.302208868178635,5.254633203386009 z" /><path fill-rule="evenodd" fill="#66cc99" stroke="#555555" stroke-width="0.0" opacity="0.6" d="M 20.26319081349151,5.258476245953225 L 20.244151954501152,5.263245283022664 L 20.225672220196365,5.269857490388476 L 20.244151954501167,5.263245283022664 L 20.263190813491523,5.258476245953225 L 20.28260544254765,5.255596307614162 L 20.26319081349151,5.258476245953225 z" /><path fill-rule="evenodd" fill="#66cc99" stroke="#555555" stroke-width="0.0" opacity="0.6" d="M 20.160787660043926,5.313212204698711 L 20.1517173540871,5.32321979599832 L 20.16078766004394,5.313212204698711 L 20.170160185058744,5.304717400023073 L 20.160787660043926,5.313212204698711 z" /><path fill-rule="evenodd" fill="#66cc99" stroke="#555555" stroke-width="0.0" opacity="0.6" d="M 20.125824882599012,5.3603543019660265 L 20.119417660850434,5.373901322774373 L 20.125824882599026,5.360354301966019 L 20.13289120096801,5.348564794417388 L 20.125824882599012,5.3603543019660265 z" /><path fill-rule="evenodd" fill="#66cc99" stroke="#555555" stroke-width="0.0" opacity="0.6" d="M 20.10220937383163,5.454633709037713 L 20.103172478059783,5.474237134668708 L 20.103980700091036,5.479685630116962 L 20.103172478059783,5.474237134668701 L 20.10220937383163,5.454633709037706 L 20.10220937383163,5.454633709037713 z" /><path fill-rule="evenodd" fill="#66cc99" stroke="#555555" stroke-width="0.0" opacity="0.6" d="M 17.406362909467592,8.533124298736453 L 17.40636301827711,8.533125032308087 L 17.405881490984125,8.523323319085181 L 17.406362909467592,8.533124298736453 z" /><path fill-rule="evenodd" fill="#66cc99" stroke="#555555" stroke-width="0.0" opacity="0.6" d="M 17.409242654916287,8.552538956404701 L 17.409242835104422,8.552539675778695 L 17.40780289060657,8.54283235847994 L 17.409242654916287,8.552538956404701 z" /><path fill-rule="evenodd" fill="#66cc99" stroke="#555555" stroke-width="0.0" opacity="0.6" d="M 17.41401150282863,8.571577862775944 L 17.414011752660127,8.57157856102451 L 17.41162725841904,8.562059126402989 L 17.41401150282863,8.571577862775944 z" /><path fill-rule="evenodd" fill="#66cc99" stroke="#555555" stroke-width="0.0" opacity="0.6" d="M 17.420623526592344,8.590057662774116 L 17.42062384366107,8.590058333172456 L 17.417317763951107,8.580818459372193 L 17.420623526592344,8.590057662774116 z" /><path fill-rule="evenodd" fill="#66cc99" stroke="#555555" stroke-width="0.0" opacity="0.6" d="M 17.42901504880406,8.607800385823145 L 17.429015430056587,8.607801021915257 L 17.42481960433857,8.598929693791256 L 17.42901504880406,8.607800385823145 z" /><path fill-rule="evenodd" fill="#66cc99" stroke="#555555" stroke-width="0.0" opacity="0.6" d="M 17.439105254517614,8.62463515980091 L 17.439105696282223,8.624635755460746 L 17.434060532174737,8.616218407671779 L 17.439105254517614,8.62463515980091 z" /><path fill-rule="evenodd" fill="#66cc99" stroke="#555555" stroke-width="0.0" opacity="0.6" d="M 17.45079696953611,8.640399856631175 L 17.450797467558385,8.640400406122252 L 17.444951553020314,8.63251810283608 L 17.45079696953611,8.640399856631175 z" /><path fill-rule="evenodd" fill="#66cc99" stroke="#555555" stroke-width="0.0" opacity="0.6" d="M 17.463977596252604,8.654942653665618 L 17.463978145736352,8.654943151696063 L 17.457387779803245,8.64767180341103 L 17.463977596252604,8.654942653665618 z" /><path fill-rule="evenodd" fill="#66cc99" stroke="#555555" stroke-width="0.0" opacity="0.6" d="M 17.478520198026523,8.668123495818882 L 17.478520793679923,8.668123937592387 L 17.471249444798424,8.661533571118698 L 17.478520198026523,8.668123495818882 z" /><path fill-rule="evenodd" fill="#66cc99" stroke="#555555" stroke-width="0.0" opacity="0.6" d="M 17.494284721653013,8.679815444375656 L 17.49428535773945,8.679815825637593 L 17.486403053863807,8.673969910662345 L 17.494284721653013,8.679815444375656 z" /><path fill-rule="evenodd" fill="#66cc99" stroke="#555555" stroke-width="0.0" opacity="0.6" d="M 17.51111934615177,8.689905899479873 L 17.51112001654549,8.68990621655856 L 17.502702668868913,8.684861052518443 L 17.51111934615177,8.689905899479873 z" /><path fill-rule="evenodd" fill="#66cc99" stroke="#555555" stroke-width="0.0" opacity="0.6" d="M 17.528861944886135,8.698297684532866 L 17.5288626431309,8.698297934374676 L 17.51999131443274,8.694102108385094 L 17.528861944886135,8.698297684532866 z" /><path fill-rule="evenodd" fill="#66cc99" stroke="#555555" stroke-width="0.0" opacity="0.6" d="M 17.547341646931187,8.704909982057169 L 17.54734236630249,8.704910162255965 L 17.53810249243295,8.701604082521214 L 17.547341646931187,8.704909982057169 z" /><path fill-rule="evenodd" fill="#66cc99" stroke="#555555" stroke-width="0.0" opacity="0.6" d="M 17.56638048265423,8.709679112012967 L 17.566381216224165,8.709679220833339 L 17.556861782197355,8.707294726741225 L 17.56638048265423,8.709679112012967 z" /><path fill-rule="evenodd" fill="#66cc99" stroke="#555555" stroke-width="0.0" opacity="0.6" d="M 17.58579509765956,8.712559145071715 L 17.585795838363378,8.712559181465663 L 17.57608852176778,8.711119237072102 L 17.58579509765956,8.712559145071715 z" /><path fill-rule="evenodd" fill="#66cc99" stroke="#555555" stroke-width="0.0" opacity="0.6" d="M 17.60539851859154,8.71352234494067 L 17.605399259295925,8.713522308557696 L 17.595597546825125,8.713040781301663 L 17.60539851859154,8.71352234494067 z" /><path fill-rule="evenodd" fill="#66cc99" stroke="#555555" stroke-width="0.0" opacity="0.6" d="M 17.625001953790306,8.712559435478553 L 17.625002687361793,8.712559326669052 L 17.615200975117833,8.713040853913949 L 17.625001953790306,8.712559435478553 z" /><path fill-rule="evenodd" fill="#66cc99" stroke="#555555" stroke-width="0.0" opacity="0.6" d="M 17.64441661145854,8.709679690029875 L 17.644417330832525,8.709679509841733 L 17.634710014444963,8.711119454204432 L 17.64441661145854,8.709679690029875 z" /><path fill-rule="evenodd" fill="#66cc99" stroke="#555555" stroke-width="0.0" opacity="0.6" d="M 17.663455517829792,8.704910842117519 L 17.663456216078206,8.704910592286073 L 17.653936782521875,8.707295086260341 L 17.663455517829792,8.704910842117519 z" /><path fill-rule="evenodd" fill="#66cc99" stroke="#555555" stroke-width="0.0" opacity="0.6" d="M 17.68193531782797,8.698298818353816 L 17.68193598822649,8.69829850128501 L 17.67269611426656,8.701604581052102 L 17.68193531782797,8.698298818353816 z" /><path fill-rule="evenodd" fill="#66cc99" stroke="#555555" stroke-width="0.0" opacity="0.6" d="M 17.699678040877,8.689907296142101 L 17.699678676969143,8.689906914889551 L 17.6908073474399,8.694102741272204 L 17.699678040877,8.689907296142101 z" /><path fill-rule="evenodd" fill="#66cc99" stroke="#555555" stroke-width="0.0" opacity="0.6" d="M 17.716512814854756,8.679817090428546 L 17.716513410514654,8.6798166486639 L 17.708096062133908,8.684861813126087 L 17.716512814854756,8.679817090428546 z" /><path fill-rule="evenodd" fill="#66cc99" stroke="#555555" stroke-width="0.0" opacity="0.6" d="M 17.73227751168503,8.668125375410035 L 17.732278061176167,8.668124877387703 L 17.724395757084267,8.673970792523361 L 17.73227751168503,8.668125375410035 z" /><path fill-rule="evenodd" fill="#66cc99" stroke="#555555" stroke-width="0.0" opacity="0.6" d="M 17.746820308719457,8.654944748693548 L 17.746820806749867,8.654944199209847 L 17.73954945821458,8.661534565369747 L 17.746820308719457,8.654944748693548 z" /><path fill-rule="evenodd" fill="#66cc99" stroke="#555555" stroke-width="0.0" opacity="0.6" d="M 17.76000115087272,8.640402146919623 L 17.76000159264609,8.640401551266402 L 17.75341122737691,8.647672898818925 L 17.76000115087272,8.640402146919623 z" /><path fill-rule="evenodd" fill="#66cc99" stroke="#555555" stroke-width="0.0" opacity="0.6" d="M 17.771693099429502,8.62463762329314 L 17.771693099429577,8.624637623293035 L 17.771693480688707,8.624636987210408 L 17.765847566830054,8.632519289580479 L 17.771693099429502,8.62463762329314 z" /><path fill-rule="evenodd" fill="#66cc99" stroke="#555555" stroke-width="0.0" opacity="0.6" d="M 18.7134,8.395982092275991 L 18.7134,8.395982092276 L 18.71414680114101,8.394864443305998 L 18.71979905613239,8.386838968347467 L 18.714146801141023,8.39486444330597 L 18.7134,8.395982092275991 z" /><path fill-rule="evenodd" fill="#66cc99" stroke="#555555" stroke-width="0.0" opacity="0.6" d="M 17.781783935153275,8.607802222389132 L 17.777197393140955,8.615454405438856 L 17.781783670923694,8.607802781047605 L 17.781783935153275,8.607802222389132 z" /><path fill-rule="evenodd" fill="#66cc99" stroke="#555555" stroke-width="0.0" opacity="0.6" d="M 17.790175695118428,8.590059478352755 L 17.786446048377933,8.597945153841936 L 17.790175528559686,8.590059943846896 L 17.790175695118428,8.590059478352755 z" /><path fill-rule="evenodd" fill="#66cc99" stroke="#555555" stroke-width="0.0" opacity="0.6" d="M 17.796787942227365,8.57157962952248 L 17.79395414108248,8.579499573156916 L 17.79678785213004,8.571579989206418 L 17.796787942227365,8.57157962952248 z" /><path fill-rule="evenodd" fill="#66cc99" stroke="#555555" stroke-width="0.0" opacity="0.6" d="M 17.8015569960158,8.552540649141669 L 17.79964938763371,8.56015624869477 L 17.801556959743902,8.552540893663808 L 17.8015569960158,8.552540649141669 z" /><path fill-rule="evenodd" fill="#66cc99" stroke="#555555" stroke-width="0.0" opacity="0.6" d="M 17.8044369271985,8.533125895274638 L 17.803476957775622,8.53959748344957 L 17.80443692113371,8.533126018724568 L 17.8044369271985,8.533125895274638 z" /><path fill-rule="evenodd" fill="#66cc99" stroke="#555555" stroke-width="0.0" opacity="0.6" d="M 20.053193074663326,6.72134334191288 L 20.053769262740342,6.721315035607785 L 20.053193074663312,6.72134334191288 L 20.053193074663326,6.72134334191288 z" /><path fill-rule="evenodd" fill="#66cc99" stroke="#555555" stroke-width="0.0" opacity="0.6" d="M 20.038145507524206,6.721962 L 20.04305153593202,6.721841563762561 L 20.04426383319126,6.721782007417231 L 20.043051535932168,6.721841563762553 L 20.038145507524206,6.721962 z" /><path fill-rule="evenodd" fill="#66cc99" stroke="#555555" stroke-width="0.0" opacity="0.6" d="M 18.315323042224378,8.53959748344957 L 18.314363072801502,8.533125895274638 L 18.31436307886629,8.533126018724568 L 18.315323042224378,8.53959748344957 z" /><path fill-rule="evenodd" fill="#66cc99" stroke="#555555" stroke-width="0.0" opacity="0.6" d="M 18.31915061236629,8.56015624869477 L 18.3172430039842,8.552540649141669 L 18.3172430402561,8.552540893663808 L 18.31915061236629,8.56015624869477 z" /><path fill-rule="evenodd" fill="#66cc99" stroke="#555555" stroke-width="0.0" opacity="0.6" d="M 18.32484585891752,8.579499573156916 L 18.322012057772636,8.57157962952248 L 18.32201214786996,8.571579989206418 L 18.32484585891752,8.579499573156916 z" /><path fill-rule="evenodd" fill="#66cc99" stroke="#555555" stroke-width="0.0" opacity="0.6" d="M 18.332353951622068,8.597945153841936 L 18.328624304881572,8.590059478352755 L 18.328624471440314,8.590059943846896 L 18.332353951622068,8.597945153841936 z" /><path fill-rule="evenodd" fill="#66cc99" stroke="#555555" stroke-width="0.0" opacity="0.6" d="M 18.341602606859045,8.615454405438856 L 18.337016064846726,8.607802222389132 L 18.337016329076306,8.607802781047605 L 18.341602606859045,8.615454405438856 z" /><polyline fill="none" stroke="#66cc99" stroke-width="0.0" points="20.413323,5.288339 20.39648827525033,5.278248712153397" opacity="0.8" /><polyline fill="none" stroke="#66cc99" stroke-width="0.0" points="20.39648827525033,5.278248712153397 20.378745593141915,5.269857103378929" opacity="0.8" /><polyline fill="none" stroke="#66cc99" stroke-width="0.0" points="20.341226942297713,5.258476048657469 20.32181229867935,5.255596208488971" opacity="0.8" /><polyline fill="none" stroke="#66cc99" stroke-width="0.0" points="20.32181229867935,5.255596208488971 20.30220886817865,5.254633203386009" opacity="0.8" /><polyline fill="none" stroke="#66cc99" stroke-width="0.0" points="20.225672220196365,5.269857490388476 20.207929580520542,5.2782491888791245" opacity="0.8" /><polyline fill="none" stroke="#66cc99" stroke-width="0.0" points="20.207929580520542,5.2782491888791245 20.191094906792863,5.288339561850779" opacity="0.8" /></g> 
                    </g>
                    </svg>