<svg xmlns="http://www.w3.org/2000/svg" viewBox="0 0 23.749 20.768162" width="23.749mm" height="20.768162mm">
                    <g stroke-linecap="round">
                        <g><polyline fill="none" stroke="#66cc99" stroke-width="0.0" points="19.9401,4.211562 19.9401,5.111562" opacity="0.8" /><polyline fill="none" stroke="#66cc99" stroke-width="0.0" points="17.4054,8.4575925078151 17.403022325971634,8.462040786789082" opacity="0.8" /><polyline fill="none" stroke="#66cc99" stroke-width="0.0" points="17.403022325971634,8.462040786789082 17.39463030466701,8.479784161723337" opacity="0.8" /><polyline fill="none" stroke="#66cc99" stroke-width="0.0" points="17.39463030466701,8.479784161723337 17.38711905449559,8.497917956044853" opacity="0.8" /><polyline fill="none" stroke="#66cc99" stroke-width="0.0" points="17.38711905449559,8.497917956044853 17.380506672197892,8.516398480279424" opacity="0.8" /><polyline fill="none" stroke="#66cc99" stroke-width="0.0" points="17.380506672197892,8.516398480279424 17.37480908888589,8.535181209581465" opacity="0.8" /><polyline fill="none" stroke="#66cc99" stroke-width="0.0" points="17.37480908888589,8.535181209581465 17.370040031660153,8.554220891007706" opacity="0.8" /><polyline fill="none" stroke="#66cc99" stroke-width="0.0" points="17.370040031660153,8.554220891007706 17.36788921158856,8.563799271009595" opacity="0.8" /><polyline fill="none" stroke="#66cc99" stroke-width="0.0" points="17.36788921158856,8.563799271009595 17.36208521158856,8.592979271009595" opacity="0.8" /><polyline fill="none" stroke="#66cc99" stroke-width="0.0" points="17.36208521158856,8.592979271009595 17.36040711306949,8.602650826452054" opacity="0.8" /><polyline fill="none" stroke="#66cc99" stroke-width="0.0" points="17.36040711306949,8.602650826452054 17.357527477000506,8.622064625313438" opacity="0.8" /><polyline fill="none" stroke="#66cc99" stroke-width="0.0" points="17.357527477000506,8.622064625313438 17.355603857223585,8.641596332281255" opacity="0.8" /><polyline fill="none" stroke="#66cc99" stroke-width="0.0" points="17.355603857223585,8.641596332281255 17.354640887498288,8.661198897915073" opacity="0.8" /><polyline fill="none" stroke="#66cc99" stroke-width="0.0" points="17.354640887498288,8.661198897915073 17.3544,8.671012" opacity="0.8" /><polyline fill="none" stroke="#66cc99" stroke-width="0.0" points="17.3544,8.671012 17.3544,10.208512" opacity="0.8" /><polyline fill="none" stroke="#66cc99" stroke-width="0.0" points="17.3544,10.208512 17.354640887498288,10.218325102084927" opacity="0.8" /><polyline fill="none" stroke="#66cc99" stroke-width="0.0" points="17.354640887498288,10.218325102084927 17.355603857223585,10.237927667718745" opacity="0.8" /><polyline fill="none" stroke="#66cc99" stroke-width="0.0" points="17.355603857223585,10.237927667718745 17.357527477000506,10.257459374686562" opacity="0.8" /><polyline fill="none" stroke="#66cc99" stroke-width="0.0" points="17.357527477000506,10.257459374686562 17.36040711306949,10.276873173547946" opacity="0.8" /><polyline fill="none" stroke="#66cc99" stroke-width="0.0" points="17.36040711306949,10.276873173547946 17.36208521158856,10.286544728990405" opacity="0.8" /><polyline fill="none" stroke="#66cc99" stroke-width="0.0" points="17.36208521158856,10.286544728990405 17.36788921158856,10.315724728990405" opacity="0.8" /><polyline fill="none" stroke="#66cc99" stroke-width="0.0" points="17.36788921158856,10.315724728990405 17.370040031660153,10.325303108992294" opacity="0.8" /><polyline fill="none" stroke="#66cc99" stroke-width="0.0" points="17.370040031660153,10.325303108992294 17.37480908888589,10.344342790418535" opacity="0.8" /><polyline fill="none" stroke="#66cc99" stroke-width="0.0" points="17.37480908888589,10.344342790418535 17.380506672197892,10.363125519720576" opacity="0.8" /><polyline fill="none" stroke="#66cc99" stroke-width="0.0" points="17.380506672197892,10.363125519720576 17.38711905449559,10.381606043955147" opacity="0.8" /><polyline fill="none" stroke="#66cc99" stroke-width="0.0" points="17.38711905449559,10.381606043955147 17.39463030466701,10.399739838276663" opacity="0.8" /><polyline fill="none" stroke="#66cc99" stroke-width="0.0" points="17.39463030466701,10.399739838276663 17.403022325971634,10.417483213210918" opacity="0.8" /><polyline fill="none" stroke="#66cc99" stroke-width="0.0" points="17.403022325971634,10.417483213210918 17.412274899640472,10.434793419915154" opacity="0.8" /><polyline fill="none" stroke="#66cc99" stroke-width="0.0" points="17.412274899640472,10.434793419915154 17.422365733588652,10.451628753171898" opacity="0.8" /><polyline fill="none" stroke="#66cc99" stroke-width="0.0" points="17.422365733588652,10.451628753171898 17.427617801141025,10.45992255669403" opacity="0.8" /></g> 
                    </g>
                    </svg>