<svg xmlns="http://www.w3.org/2000/svg" viewBox="0 0 23.749 20.768162" width="23.749mm" height="20.768162mm">
                    <g stroke-linecap="round" fill-rule="nonzero">
                        <path fill-rule="evenodd" fill="#66cc99" stroke="#555555" stroke-width="0.0" opacity="1" d="M 17.4054,8.4575925078151 L 17.403022325971634,8.462040786789082 L 17.39463030466701,8.479784161723337 L 17.38711905449559,8.497917956044853 L 17.380506672197892,8.516398480279424 L 17.37480908888589,8.535181209581465 L 17.370040031660153,8.554220891007706 L 17.36788921158856,8.563799271009595 L 17.36208521158856,8.592979271009595 L 17.36040711306949,8.602650826452054 L 17.357527477000506,8.622064625313438 L 17.355603857223585,8.641596332281255 L 17.354640887498288,8.661198897915073 L 17.3544,8.671012 L 17.3544,10.208512 L 17.354640887498288,10.218325102084927 L 17.355603857223585,10.237927667718745 L 17.357527477000506,10.257459374686562 L 17.36040711306949,10.276873173547946 L 17.36208521158856,10.286544728990405 L 17.36788921158856,10.315724728990405 L 17.370040031660153,10.325303108992294 L 17.37480908888589,10.344342790418535 L 17.380506672197892,10.363125519720576 L 17.38711905449559,10.381606043955147 L 17.39463030466701,10.399739838276663 L 17.403022325971634,10.417483213210918 L 17.412274899640472,10.434793419915154 L 17.422365733588652,10.451628753171898 L 17.427617801141025,10.45992255669403 L 17.444146801141024,10.48465955669403 L 17.44979905613239,10.492685031652533 L 17.46149053478819,10.508448982709497 L 17.473941402868867,10.523620294785983 L 17.487121667405248,10.538162421619312 L 17.50099957838066,10.552040332594723 L 17.51554170521398,10.565220597131104 L 17.530713017290534,10.57767146521184 L 17.546476968347505,10.58936294386764 L 17.55450244330597,10.595015198858976 L 17.57923944330597,10.611544198858976 L 17.587533246828123,10.616796266411365 L 17.60436858008486,10.626887100359538 L 17.621678786789015,10.636139674028337 L 17.639422161723285,10.644531695332974 L 17.65755595604484,10.652042945504412 L 17.6760364802794,10.658655327802107 L 17.69481920958154,10.664352911114142 L 17.71385889100778,10.669121968339867 L 17.723437271009594,10.67127278841144 L 17.752617271009594,10.677076788411439 L 17.76228882645212,10.678754886930518 L 17.781702625313507,10.681634522999495 L 17.801234332281172,10.6835581427764 L 17.82083689791499,10.684521112501702 L 17.83065,10.684762 L 18.28815,10.684762 L 18.29796310208501,10.684521112501702 L 18.317565667718828,10.6835581427764 L 18.337097374686493,10.681634522999495 L 18.35651117354788,10.678754886930518 L 18.366182728990406,10.677076788411439 L 18.395362728990406,10.67127278841144 L 18.40494110899222,10.669121968339867 L 18.42398079041846,10.664352911114142 L 18.4427635197206,10.658655327802107 L 18.461244043955162,10.652042945504412 L 18.479377838276715,10.644531695332974 L 18.497121213210985,10.636139674028337 L 18.51443141991514,10.626887100359538 L 18.531266753171877,10.616796266411365 L 18.53956055669403,10.611544198858976 L 18.56429755669403,10.595015198858976 L 18.572323031652495,10.58936294386764 L 18.588086982709466,10.57767146521184 L 18.60325829478602,10.565220597131104 L 18.61780042161934,10.552040332594723 L 18.631678332594753,10.538162421619312 L 18.644858597131133,10.523620294785983 L 18.65730946521181,10.508448982709497 L 18.66900094386761,10.492685031652533 L 18.674653198858977,10.48465955669403 L 18.691182198858975,10.45992255669403 L 18.6944,10.454841165380836 L 18.697617801141025,10.45992255669403 L 18.714146801141023,10.48465955669403 L 18.71979905613239,10.492685031652533 L 18.73149053478819,10.508448982709497 L 18.743941402868867,10.523620294785983 L 18.757121667405247,10.538162421619312 L 18.77099957838066,10.552040332594723 L 18.78554170521398,10.565220597131104 L 18.800713017290533,10.57767146521184 L 18.816476968347505,10.58936294386764 L 18.82450244330597,10.595015198858976 L 18.84923944330597,10.611544198858976 L 18.857533246828122,10.616796266411365 L 18.87436858008486,10.626887100359538 L 18.891678786789015,10.636139674028337 L 18.909422161723285,10.644531695332974 L 18.927555956044838,10.652042945504412 L 18.9460364802794,10.658655327802107 L 18.964819209581538,10.664352911114142 L 18.98385889100778,10.669121968339867 L 18.993437271009594,10.67127278841144 L 19.022617271009594,10.677076788411439 L 19.03228882645212,10.678754886930518 L 19.051702625313506,10.681634522999495 L 19.071234332281172,10.6835581427764 L 19.09083689791499,10.684521112501702 L 19.10065,10.684762 L 19.55815,10.684762 L 19.56796310208501,10.684521112501702 L 19.587565667718827,10.6835581427764 L 19.607097374686493,10.681634522999495 L 19.62651117354788,10.678754886930518 L 19.636182728990406,10.677076788411439 L 19.665362728990406,10.67127278841144 L 19.67494110899222,10.669121968339867 L 19.69398079041846,10.664352911114142 L 19.7127635197206,10.658655327802107 L 19.73124404395516,10.652042945504412 L 19.749377838276715,10.644531695332974 L 19.767121213210984,10.636139674028337 L 19.78443141991514,10.626887100359538 L 19.801266753171877,10.616796266411365 L 19.80956055669403,10.611544198858976 L 19.834297556694032,10.595015198858976 L 19.842323031652494,10.58936294386764 L 19.858086982709466,10.57767146521184 L 19.87325829478602,10.565220597131104 L 19.887800421619342,10.552040332594723 L 19.901678332594752,10.538162421619312 L 19.914858597131133,10.523620294785983 L 19.92730946521181,10.508448982709497 L 19.939000943867608,10.492685031652533 L 19.944653198858976,10.48465955669403 L 19.961182198858975,10.45992255669403 L 19.966434266411348,10.451628753171898 L 19.97652510035953,10.434793419915154 L 19.985777674028366,10.417483213210918 L 19.99416969533299,10.399739838276663 L 20.00168094550441,10.381606043955147 L 20.008293327802107,10.363125519720576 L 20.01399091111411,10.344342790418535 L 20.018759968339847,10.325303108992294 L 20.020910788411438,10.315724728990405 L 20.02671478841144,10.286544728990405 L 20.02839288693051,10.276873173547946 L 20.031272522999494,10.257459374686562 L 20.033196142776415,10.237927667718745 L 20.03415911250171,10.218325102084927 L 20.0344,10.208512 L 20.0344,8.671012 L 20.03415911250171,8.661198897915073 L 20.033196142776415,8.641596332281255 L 20.031272522999494,8.622064625313438 L 20.02839288693051,8.602650826452054 L 20.02671478841144,8.592979271009595 L 20.020910788411438,8.563799271009595 L 20.018759968339847,8.554220891007706 L 20.01399091111411,8.535181209581465 L 20.008293327802107,8.516398480279424 L 20.00168094550441,8.497917956044853 L 19.99416969533299,8.479784161723337 L 19.985777674028366,8.462040786789082 L 19.97652510035953,8.444730580084846 L 19.966434266411348,8.427895246828102 L 19.961182198858975,8.41960144330597 L 19.944653198858976,8.39486444330597 L 19.939000943867608,8.386838968347467 L 19.92730946521181,8.371075017290503 L 19.914858597131133,8.355903705214017 L 19.901678332594752,8.341361578380688 L 19.887800421619342,8.327483667405277 L 19.87325829478602,8.314303402868896 L 19.858086982709466,8.30185253478816 L 19.842323031652494,8.29016105613236 L 19.834297556694032,8.284508801141024 L 19.80956055669403,8.267979801141024 L 19.801266753171877,8.262727733588635 L 19.78443141991514,8.252636899640462 L 19.767121213210984,8.243384325971663 L 19.749377838276715,8.234992304667026 L 19.73124404395516,8.227481054495588 L 19.7127635197206,8.220868672197893 L 19.69398079041846,8.215171088885858 L 19.67494110899222,8.210402031660132 L 19.665362728990406,8.208251211588562 L 19.636182728990406,8.202447211588561 L 19.62651117354788,8.200769113069482 L 19.607097374686493,8.197889477000505 L 19.587565667718827,8.1959658572236 L 19.56796310208501,8.195002887498298 L 19.55815,8.194762 L 19.10065,8.194762 L 19.09083689791499,8.195002887498298 L 19.071234332281172,8.1959658572236 L 19.051702625313506,8.197889477000505 L 19.03228882645212,8.200769113069482 L 19.022617271009594,8.202447211588561 L 18.993437271009594,8.208251211588562 L 18.98385889100778,8.210402031660132 L 18.964819209581538,8.215171088885858 L 18.9460364802794,8.220868672197893 L 18.927555956044838,8.227481054495588 L 18.909422161723285,8.234992304667026 L 18.891678786789015,8.243384325971663 L 18.87436858008486,8.252636899640462 L 18.857533246828122,8.262727733588635 L 18.84923944330597,8.267979801141024 L 18.82450244330597,8.284508801141024 L 18.816476968347505,8.29016105613236 L 18.800713017290533,8.30185253478816 L 18.78554170521398,8.314303402868896 L 18.77099957838066,8.327483667405277 L 18.757121667405247,8.341361578380688 L 18.743941402868867,8.355903705214017 L 18.73149053478819,8.371075017290503 L 18.71979905613239,8.386838968347467 L 18.714146801141023,8.39486444330597 L 18.7134,8.395982092275991 L 18.7134,7.8310576697919965 L 19.422495669791996,7.121962 L 20.0406,7.121962 L 20.045508245704635,7.121901763739236 L 20.055321780570104,7.121660854980267 L 20.06022706973094,7.121480182482064 L 20.085123423374654,7.120257103056804 L 20.09491331657505,7.119534957150213 L 20.114445876600698,7.117611167902134 L 20.124188543425948,7.116409524560646 L 20.148845131574333,7.112752065208324 L 20.158517101086467,7.11107381929601 L 20.17776704217598,7.107244767941974 L 20.187345013753355,7.105093962500252 L 20.21152437998389,7.099037346553818 L 20.220985279454187,7.096419163061336 L 20.23976721415204,7.09072172545901 L 20.24908824937959,7.087642471349165 L 20.27255753317769,7.079245027331047 L 20.281716248972206,7.075712120796718 L 20.299849296979755,7.068201166384831 L 20.308823629192783,7.0642231185072735 L 20.33135680852586,7.053565718393892 L 20.34012513720502,7.049152112638868 L 20.35743466735767,7.039899976014205 L 20.365975868831157,7.035061445144564 L 20.38735593686433,7.022246725524925 L 20.39564943462959,7.016994925985388 L 20.411968746689364,7.006090710281506 L 20.41999456098388,7.00043829411716 L 20.44001561597447,6.985589667746455 L 20.447754411908747,6.979550252122849 L 20.462926341979728,6.96709897089766 L 20.470359476116435,6.960687105296075 L 20.488828704360248,6.94394757256332 L 20.492425022338303,6.940606764082573 L 20.499534587606178,6.933837895248912 L 20.503047834895998,6.930409834895999 L 21.315047834896,6.118409834895998 L 21.31847589524889,6.114896587606199 L 21.32524476408258,6.107787022338293 L 21.32858557256338,6.104190704360187 L 21.345325105296133,6.085721476116366 L 21.351736970897658,6.07828834197972 L 21.364188252122776,6.063116411908835 L 21.370227667746367,6.055377615974598 L 21.385076294117077,6.035356560984016 L 21.390728710281522,6.0273307466893415 L 21.401632925985485,6.011011434629426 L 21.406884725525007,6.002717936864182 L 21.419699445144637,5.981337868831001 L 21.424537976014243,5.972796667357587 L 21.43379011263883,5.955487137205079 L 21.43820371839382,5.946718808525987 L 21.448861118507207,5.924185629192919 L 21.452839166384802,5.915211296979822 L 21.46035012079674,5.897078248972147 L 21.463883027331082,5.88791953317757 L 21.472280471349194,5.864450249379471 L 21.475359725459025,5.855129214151971 L 21.481057163061323,5.836347279454216 L 21.483675346553788,5.826886379983962 L 21.48973196250023,5.802707013753421 L 21.49188276794198,5.7931290421759485 L 21.495711819296034,5.773879101086333 L 21.497390065208332,5.764207131574191 L 21.501047524560644,5.739550543425806 L 21.50224916790213,5.729807876600683 L 21.504172957150207,5.710275316575102 L 21.504895103056803,5.700485423374645 L 21.506118182482062,5.675589069730938 L 21.506298854980276,5.670683780570112 L 21.506539763739244,5.660870245704643 L 21.5066,5.655962 L 21.5066,5.625941560433284 L 21.514104252338022,5.620927406770736 L 21.522130182459502,5.615274935593732 L 21.537895017685845,5.603582983272009 L 21.553067158698813,5.591131561028451 L 21.567610053540765,5.577950666202113 L 21.581488666202112,5.564072053540759 L 21.59466956102845,5.549529158698805 L 21.60712098327203,5.5343570176858154 L 21.618812935593755,5.518592182459466 L 21.624465406770735,5.510566252338007 L 21.678658406770737,5.429460252338007 L 21.68391017159848,5.421166764224857 L 21.694000434241175,5.404332086628668 L 21.70325250655663,5.387022582654394 L 21.711644099613608,5.369279952186153 L 21.719154997439517,5.3511469385420085 L 21.725767105722085,5.3326672255024095 L 21.731464495400072,5.313885332072206 L 21.736233441037445,5.294846505231403 L 21.738384226009966,5.28526855644834 L 21.757414226009963,5.189597556448341 L 21.75909244710821,5.179925656644612 L 21.761972293737607,5.1605111612960695 L 21.763896054454715,5.140978744882606 L 21.764859094820334,5.121375462006979 L 21.7651,5.111562 L 21.7651,4.211562 L 21.764859094820334,4.201748537993021 L 21.763896054454715,4.182145255117394 L 21.761972293737607,4.1626128387039305 L 21.75909244710821,4.143198343355388 L 21.757414226009963,4.133526443551659 L 21.738384226009966,4.03785544355166 L 21.736233441037445,4.028277494768597 L 21.731464495400072,4.009238667927794 L 21.725767105722085,3.990456774497591 L 21.719154997439517,3.9719770614579915 L 21.711644099613608,3.9538440478138477 L 21.70325250655663,3.936101417345606 L 21.694000434241175,3.918791913371332 L 21.68391017159848,3.901957235775143 L 21.678658406770737,3.893663747661993 L 21.624465406770735,3.8125577476619927 L 21.618812935593755,3.804531817540534 L 21.60712098327203,3.7887669823141845 L 21.59466956102845,3.7735948413011955 L 21.581488666202112,3.759051946459241 L 21.567610053540765,3.745173333797887 L 21.553067158698813,3.7319924389715493 L 21.537895017685845,3.7195410167279914 L 21.522130182459502,3.7078490644062683 L 21.514104252338022,3.702196593229264 L 21.43299825233802,3.648003593229264 L 21.424704764224828,3.6427518284014986 L 21.40787008662863,3.632661565758802 L 21.390560582654356,3.6234094934433623 L 21.37281795218612,3.615017900386393 L 21.354684938541993,3.6075070025604816 L 21.336205225502386,3.6008948942779155 L 21.317423332072273,3.5951975045999585 L 21.29838450523147,3.590428558962576 L 21.28880655644834,3.588277773990035 L 21.19313555644834,3.569247773990035 L 21.183463656644612,3.5675695528917983 L 21.16404916129607,3.5646897062624023 L 21.144516744882598,3.5627659455452934 L 21.124913462006973,3.561802905179672 L 21.1151,3.561562 L 20.5901,3.561562 L 20.58028653799303,3.561802905179672 L 20.5606832551174,3.5627659455452934 L 20.54115083870393,3.5646897062624023 L 20.52173634335539,3.5675695528917983 L 20.512064443551658,3.569247773990035 L 20.41639344355166,3.588277773990035 L 20.40681549476853,3.590428558962576 L 20.387776667927728,3.5951975045999585 L 20.36899477449761,3.6008948942779155 L 20.350515061458008,3.6075070025604816 L 20.332382047813876,3.615017900386393 L 20.314639417345642,3.6234094934433623 L 20.29732991337137,3.632661565758802 L 20.280495235775174,3.6427518284014986 L 20.272201747661978,3.648003593229264 L 20.19109574766198,3.702196593229264 L 20.183069817540495,3.7078490644062683 L 20.167304982314153,3.7195410167279914 L 20.15213284130119,3.7319924389715493 L 20.137589946459233,3.745173333797887 L 20.123711333797885,3.759051946459241 L 20.110530438971548,3.7735948413011955 L 20.09807901672797,3.7887669823141845 L 20.086387064406246,3.804531817540534 L 20.080734593229263,3.8125577476619927 L 20.026541593229265,3.893663747661993 L 20.02128982840152,3.901957235775143 L 20.011199565758826,3.918791913371332 L 20.00194749344337,3.936101417345606 L 19.993555900386394,3.9538440478138477 L 19.98604500256048,3.9719770614579915 L 19.979432894277917,3.990456774497591 L 19.97373550459993,4.009238667927794 L 19.968966558962553,4.028277494768597 L 19.966815773990035,4.03785544355166 L 19.947785773990034,4.133526443551659 L 19.946107552891792,4.143198343355388 L 19.943227706262395,4.1626128387039305 L 19.941303945545286,4.182145255117394 L 19.940340905179664,4.201748537993021 L 19.9401,4.211562 L 19.9401,5.111562 L 19.940340905179664,5.121375462006979 L 19.941303945545286,5.140978744882606 L 19.943227706262395,5.1605111612960695 L 19.946107552891792,5.179925656644612 L 19.947785773990034,5.189597556448341 L 19.966815773990035,5.28526855644834 L 19.968966558962553,5.294846505231403 L 19.97373550459993,5.313885332072206 L 19.979432894277917,5.3326672255024095 L 19.98604500256048,5.3511469385420085 L 19.993555900386394,5.369279952186153 L 20.00194749344337,5.387022582654394 L 20.011199565758826,5.404332086628668 L 20.02128982840152,5.421166764224857 L 20.026541593229265,5.429460252338007 L 20.077676645344464,5.50598968486353 L 19.769704330208004,5.813962 L 19.1516,5.813962 L 19.146691754295365,5.814022236260764 L 19.136878219429896,5.814263145019733 L 19.13197293026906,5.814443817517936 L 19.107076576625346,5.815666896943196 L 19.09728668342495,5.816389042849787 L 19.077754123399302,5.818312832097866 L 19.06801145657405,5.819514475439354 L 19.043354868425666,5.823171934791676 L 19.033682898913533,5.82485018070399 L 19.01443295782402,5.828679232058026 L 19.004854986246645,5.830830037499748 L 18.980675620016115,5.836886653446182 L 18.971214720545813,5.839504836938664 L 18.95243278584796,5.84520227454099 L 18.94311175062041,5.848281528650835 L 18.91964246682231,5.856678972668953 L 18.910483751027794,5.860211879203282 L 18.892350703020245,5.8677228336151686 L 18.883376370807216,5.8717008814927265 L 18.86084319147414,5.882358281606108 L 18.852074862794982,5.886771887361132 L 18.83476533264233,5.896024023985795 L 18.826224131168843,5.900862554855436 L 18.80484406313567,5.913677274475075 L 18.79655056537041,5.918929074014612 L 18.780231253310635,5.929833289718494 L 18.77220543901612,5.93548570588284 L 18.75218438402553,5.950334332253545 L 18.744445588091253,5.956373747877151 L 18.729273658020272,5.96882502910234 L 18.721840523883568,5.975236894703925 L 18.703371295639755,5.99197642743668 L 18.6997749776617,5.995317235917427 L 18.692665412393822,6.002086104751088 L 18.689152165104,6.005514165104001 L 17.596952165104003,7.097714165104001 L 17.59352410475111,7.101227412393801 L 17.58675523591742,7.108336977661707 L 17.58341442743662,7.111933295639813 L 17.566674894703866,7.1304025238836335 L 17.56026302910234,7.13783565802028 L 17.547811747877226,7.153007588091165 L 17.541772332253636,7.160746384025402 L 17.526923705882922,7.180767439015985 L 17.521271289718477,7.188793253310658 L 17.510367074014514,7.205112565370575 L 17.505115274474992,7.2134060631358174 L 17.492300554855362,7.234786131168999 L 17.48746202398576,7.243327332642414 L 17.478209887361167,7.260636862794921 L 17.473796281606184,7.269405191474013 L 17.463138881492792,7.291938370807081 L 17.459160833615197,7.3009127030201775 L 17.45164987920326,7.319045751027852 L 17.448116972668917,7.328204466822431 L 17.439719528650805,7.351673750620529 L 17.436640274540977,7.360994785848029 L 17.43094283693868,7.379776720545784 L 17.42832465344621,7.389237620016038 L 17.42226803749977,7.413416986246578 L 17.42011723205802,7.422994957824051 L 17.41628818070397,7.442244898913667 L 17.41460993479167,7.451916868425809 L 17.410952475439355,7.476573456574194 L 17.409750832097874,7.486316123399317 L 17.407827042849792,7.505848683424897 L 17.407104896943196,7.515638576625355 L 17.405881817517937,7.540534930269063 L 17.405701145019727,7.545440219429888 L 17.405460236260758,7.555253754295356 L 17.4054,7.560162 L 17.4054,8.4575925078151 z M 17.760429024697498,8.641925208115607 L 17.762931838668703,8.637749566389516 L 17.771693099429488,8.624637623293177 L 17.781783670923694,8.607802781047605 L 17.790175528559686,8.590059943846896 L 17.79678785213004,8.571579989206418 L 17.801556959743902,8.552540893663808 L 17.80443692113371,8.533126018724568 L 17.8054,8.513522344946153 L 17.8054,7.562616492476098 L 17.805520436237455,7.557710464067519 L 17.806382170666293,7.540169456800006 L 17.807343485619114,7.530409062287815 L 17.80956013258369,7.515465642276496 L 17.81147350450088,7.505846472074084 L 17.815144189000712,7.491192278111182 L 17.817991191064717,7.481806970086209 L 17.823080562401458,7.467583130070343 L 17.826833776426017,7.4585220698697565 L 17.83329282117161,7.444865567155756 L 17.837916101654024,7.436216017742351 L 17.8456826156767,7.423258371916771 L 17.85113143789838,7.415103633180045 L 17.860130625422656,7.402969633455373 L 17.866352514247044,7.395388239987038 L 17.878146541176946,7.38237553654068 L 17.881530465852663,7.378821289304569 L 18.97025928930454,6.290092465852693 L 18.97381353654073,6.2867085411768855 L 18.98682623998691,6.274914514247157 L 18.994407633455516,6.268692625422545 L 19.006541633179946,6.2596934378984574 L 19.01469637191677,6.2542446156766935 L 19.02765401774241,6.246478101653985 L 19.036303567155688,6.241854821171634 L 19.04996006986989,6.235395776425965 L 19.059021130070196,6.231642562401511 L 19.07324497008626,6.2265531910647 L 19.08263027811113,6.223706189000718 L 19.097284472074286,6.220035504500836 L 19.106903642276226,6.218122132583745 L 19.121847062287912,6.215905485619105 L 19.131607456799998,6.214944170666293 L 19.14914846406783,6.214082436237447 L 19.154054492475794,6.213962 L 19.85254704268262,6.213962 L 19.87215047074853,6.212998945334442 L 19.89156510708584,6.2101190560806465 L 19.910603978133516,6.205350067146443 L 19.92908372915563,6.198737906502254 L 19.946826390047818,6.190346252869673 L 19.963661089286536,6.180255922460511 L 19.979425699515343,6.168564090672545 L 19.993968398919925,6.155383356237307 L 20.509371115053444,5.639980640103779 L 20.52255186730993,5.625437918983951 L 20.534243712490575,5.609673283755437 L 20.54433405141294,5.592838556907408 L 20.552725708319425,5.575095866525732 L 20.55933786673562,5.556616084906481 L 20.564106847779332,5.53757718295756 L 20.566986723424822,5.518162516236686 L 20.56794975881602,5.498559059132099 L 20.566986679369123,5.478955604191833 L 20.564106760092212,5.459540943943076 L 20.559337736261547,5.44050205271174 L 20.55272553631495,5.4220222859523295 L 20.544333839534552,5.404279614429646 L 20.534243462778807,5.387444910258115 L 20.522551582169637,5.3716803013052346 L 20.50937079723069,5.357137609807118 L 20.494828046489207,5.343956890233167 L 20.47906338498515,5.332265080481105 L 20.41740534614384,5.291066721556649 L 20.413495216636136,5.288166783363849 L 20.41059527844332,5.284256653856098 L 20.361857678989367,5.211315282437064 L 20.359355004969327,5.207139800415672 L 20.35817216991609,5.202417626276553 L 20.341057825573383,5.116377351047337 L 20.340340034300148,5.111538358861707 L 20.3401,5.106652312073268 L 20.3401,4.216471687926732 L 20.340340034300148,4.211585641138293 L 20.341057825573383,4.206746648952663 L 20.35817216991609,4.120706373723447 L 20.359355004969327,4.115984199584328 L 20.361857678989367,4.111808717562936 L 20.41059527844332,4.038867346143902 L 20.413495216636136,4.034957216636151 L 20.41740534614384,4.032057278443359 L 20.490346717562975,3.9833196789893357 L 20.49452219958432,3.9808170049693286 L 20.49924437372337,3.979634169916108 L 20.58528464895281,3.9625198255733474 L 20.5901236411383,3.9618020343001334 L 20.595009687926577,3.961562 L 21.110190312073424,3.961562 L 21.1150763588617,3.9618020343001334 L 21.119915351047187,3.9625198255733474 L 21.205955626276626,3.979634169916108 L 21.21067780041568,3.9808170049693286 L 21.214853282437026,3.9833196789893357 L 21.287794653856157,4.032057278443359 L 21.291704783363866,4.034957216636151 L 21.294604721556677,4.038867346143902 L 21.343342321010635,4.111808717562936 L 21.34584499503067,4.115984199584328 L 21.347027830083906,4.120706373723447 L 21.364142174426615,4.206746648952663 L 21.36485996569985,4.211585641138293 L 21.3651,4.216471687926732 L 21.3651,5.106652312073268 L 21.36485996569985,5.111538358861707 L 21.364142174426615,5.116377351047337 L 21.347027830083906,5.202417626276553 L 21.34584499503067,5.207139800415672 L 21.343342321010635,5.211315282437064 L 21.294604721556677,5.284256653856098 L 21.291704783363866,5.288166783363849 L 21.287794653856157,5.291066721556641 L 21.214853282437055,5.339804321010642 L 21.203779861944152,5.346441437788665 L 21.188178534885658,5.356815582781434 L 21.173616428095908,5.36860410839583 L 21.16022133290495,5.381703563160904 L 21.148110799407362,5.395998991406358 L 21.137391104888795,5.411364942068316 L 21.128156321178274,5.42766656959863 L 21.120487489110737,5.44476081731642 L 21.114451907344566,5.462497672817357 L 21.1101025417749,5.4807214844235626 L 21.107477560725794,5.499272327121645 L 21.1066,5.517987406001784 L 21.1066,5.653507507523901 L 21.106479563762544,5.658413535932481 L 21.105617829333706,5.675954543199993 L 21.10465651438089,5.685714937712185 L 21.102439867416308,5.700658357723504 L 21.100526495499118,5.710277527925916 L 21.09685581099929,5.724931721888818 L 21.094008808935286,5.73431702991379 L 21.08891943759854,5.7485408699296565 L 21.08516622357398,5.757601930130243 L 21.078707178828388,5.771258432844244 L 21.07408389834598,5.779907982257649 L 21.0663173843233,5.792865628083229 L 21.060868562101618,5.801020366819955 L 21.051869374577343,5.813154366544627 L 21.045647485752955,5.820735760012962 L 21.033853458823057,5.833748463459321 L 21.030469534147336,5.837302710695431 L 20.22194071069546,6.645831534147307 L 20.218386463459268,6.6492154588231145 L 20.20537376001309,6.661009485752843 L 20.197792366544483,6.667231374577455 L 20.185658366820054,6.6762305621015425 L 20.17750362808323,6.681679384323306 L 20.16454598225759,6.6894458983460146 L 20.15589643284431,6.694069178828366 L 20.14223993013011,6.700528223574035 L 20.133178869929804,6.704281437598489 L 20.11895502991374,6.7093708089353 L 20.10956972188887,6.712217810999282 L 20.094915527925714,6.715888495499164 L 20.085296357723774,6.717801867416255 L 20.070352937712087,6.720018514380895 L 20.060592543200002,6.720979829333707 L 20.043051535932168,6.721841563762553 L 20.038145507524206,6.721962 L 19.339652957317384,6.721962 L 19.32004952925147,6.722925054665558 L 19.30063489291416,6.7258049439193535 L 19.281596021866484,6.730573932853557 L 19.26311627084437,6.737186093497746 L 19.245373609952182,6.745577747130327 L 19.228538910713464,6.755668077539489 L 19.212774300484657,6.767359909327455 L 19.198231601080074,6.780540643762693 L 18.37197864376269,7.606793601080075 L 18.358797909327446,7.62133630048465 L 18.34710607753949,7.637100910713464 L 18.337015747130334,7.653935609952182 L 18.328624093497737,7.671678270844363 L 18.322011932853563,7.690158021866493 L 18.31724294391936,7.709196892914154 L 18.314363054665566,7.728611529251471 L 18.3134,7.748214957317382 L 18.3134,8.513522344946153 L 18.31436307886629,8.533126018724568 L 18.3172430402561,8.552540893663808 L 18.32201214786996,8.571579989206418 L 18.328624471440314,8.590059943846896 L 18.337016329076306,8.607802781047605 L 18.347106900570513,8.624637623293177 L 18.355868161331298,8.637749566389516 L 18.358370975302503,8.641925208115607 L 18.35955383720626,8.646647590916366 L 18.36344224430211,8.6661968188724 L 18.36415998325339,8.671035638536178 L 18.3644,8.675921507640012 L 18.3644,10.203602492359988 L 18.36415998325339,10.208488361463822 L 18.36344224430211,10.2133271811276 L 18.35955383720626,10.232876409083635 L 18.358370975302503,10.237598791884393 L 18.35586816133125,10.241774433610559 L 18.344794624037178,10.258346887603134 L 18.341894800978377,10.262256800978378 L 18.33798488760312,10.265156624037191 L 18.32141243361059,10.27623016133123 L 18.317236791884408,10.278732975302502 L 18.312514409083605,10.279915837206266 L 18.29296518112759,10.28380424430211 L 18.288126361463814,10.284521983253383 L 18.283240492360026,10.284762 L 17.835559507639974,10.284762 L 17.830673638536187,10.284521983253383 L 17.82583481887241,10.28380424430211 L 17.806285590916396,10.279915837206266 L 17.801563208115592,10.278732975302502 L 17.79738756638941,10.27623016133123 L 17.78081511239688,10.265156624037191 L 17.776905199021623,10.262256800978378 L 17.774005375962822,10.258346887603134 L 17.76293183866875,10.241774433610559 L 17.760429024697498,10.237598791884393 L 17.75924616279374,10.232876409083635 L 17.75535775569789,10.2133271811276 L 17.75464001674661,10.208488361463822 L 17.7544,10.203602492359988 L 17.7544,8.675921507640012 L 17.75464001674661,8.671035638536178 L 17.75535775569789,8.6661968188724 L 17.75924616279374,8.646647590916366 L 17.760429024697498,8.641925208115607 z M 19.030429024697497,8.641925208115607 L 19.03293183866875,8.637749566389441 L 19.044005375962822,8.621177112396866 L 19.046905199021623,8.617267199021622 L 19.05081511239688,8.614367375962809 L 19.06738756638941,8.60329383866877 L 19.07156320811559,8.600791024697498 L 19.076285590916395,8.599608162793734 L 19.095834818872408,8.59571975569789 L 19.100673638536186,8.595002016746617 L 19.105559507639974,8.594762 L 19.553240492360025,8.594762 L 19.558126361463813,8.595002016746617 L 19.56296518112759,8.59571975569789 L 19.582514409083604,8.599608162793734 L 19.587236791884408,8.600791024697498 L 19.59141243361059,8.60329383866877 L 19.60798488760312,8.614367375962809 L 19.611894800978376,8.617267199021622 L 19.614794624037177,8.621177112396866 L 19.62586816133125,8.637749566389441 L 19.628370975302502,8.641925208115607 L 19.62955383720626,8.646647590916366 L 19.63344224430211,8.6661968188724 L 19.63415998325339,8.671035638536178 L 19.6344,8.675921507640012 L 19.6344,10.203602492359988 L 19.63415998325339,10.208488361463822 L 19.63344224430211,10.2133271811276 L 19.62955383720626,10.232876409083635 L 19.628370975302502,10.237598791884393 L 19.62586816133125,10.241774433610559 L 19.614794624037177,10.258346887603134 L 19.611894800978376,10.262256800978378 L 19.60798488760312,10.265156624037191 L 19.59141243361059,10.27623016133123 L 19.587236791884408,10.278732975302502 L 19.582514409083604,10.279915837206266 L 19.56296518112759,10.28380424430211 L 19.558126361463813,10.284521983253383 L 19.553240492360025,10.284762 L 19.105559507639974,10.284762 L 19.100673638536186,10.284521983253383 L 19.095834818872408,10.28380424430211 L 19.076285590916395,10.279915837206266 L 19.07156320811559,10.278732975302502 L 19.06738756638941,10.27623016133123 L 19.05081511239688,10.265156624037191 L 19.046905199021623,10.262256800978378 L 19.044005375962822,10.258346887603134 L 19.03293183866875,10.241774433610559 L 19.030429024697497,10.237598791884393 L 19.02924616279374,10.232876409083635 L 19.02535775569789,10.2133271811276 L 19.02464001674661,10.208488361463822 L 19.0244,10.203602492359988 L 19.0244,8.675921507640012 L 19.02464001674661,8.671035638536178 L 19.02535775569789,8.6661968188724 L 19.02924616279374,8.646647590916366 L 19.030429024697497,8.641925208115607 z" />
                        <rect width="21.0" height="18.0" x="2" y="2" stroke-width="0.1" fill="none" stroke="black"/>
                    </g>
                    </svg>