<svg xmlns="http://www.w3.org/2000/svg" viewBox="0 0 23.749 20.768162" width="23.749mm" height="20.768162mm">
                    <g stroke-linecap="round" fill-rule="nonzero">
                        <g><path fill-rule="evenodd" fill="#66cc99" stroke="#555555" stroke-width="0.0" opacity="1" d="M 18.694400004020707,8.598042506455846 L 18.69901504880406,8.607800385823145 L 18.709105254517613,8.62463515980091 L 18.72079696953611,8.640399856631175 L 18.733977596252604,8.654942653665618 L 18.748520198026522,8.668123495818882 L 18.764284721653013,8.679815444375656 L 18.78111934615177,8.689905899479873 L 18.798861944886134,8.698297684532866 L 18.817341646931187,8.704909982057169 L 18.836380482654228,8.709679112012967 L 18.85579509765956,8.712559145071715 L 18.87539851859154,8.71352234494067 L 18.895001953790306,8.712559435478553 L 18.91441661145854,8.709679690029875 L 18.933455517829792,8.704910842117519 L 18.95193531782797,8.698298818353816 L 18.969678040877,8.689907296142101 L 18.986512814854756,8.679817090428546 L 19.00227751168503,8.668125375410035 L 19.016820308719456,8.654944748693548 L 19.03000115087272,8.640402146919623 L 19.0416930994295,8.62463762329314 L 19.04400537596278,8.621177112396925 L 19.046905199021623,8.617267199021622 L 19.05081511239688,8.614367375962809 L 19.06738756638941,8.60329383866877 L 19.07156320811559,8.600791024697498 L 19.076285590916395,8.599608162793734 L 19.095834818872408,8.59571975569789 L 19.100673638536186,8.595002016746617 L 19.105559507639974,8.594762 L 19.553240492360025,8.594762 L 19.558126361463813,8.595002016746617 L 19.56296518112759,8.59571975569789 L 19.582514409083604,8.599608162793734 L 19.587236791884408,8.600791024697498 L 19.59141243361059,8.60329383866877 L 19.60798488760312,8.614367375962809 L 19.611894800978376,8.617267199021622 L 19.61479462403722,8.621177112396925 L 19.617106900570498,8.62463762329314 L 19.62879884912728,8.640402146919623 L 19.641979691280543,8.654944748693548 L 19.65652248831497,8.668125375410035 L 19.672287185145244,8.679817090428546 L 19.689121959123,8.689907296142101 L 19.70686468217203,8.698298818353816 L 19.725344482170208,8.704910842117519 L 19.74438338854146,8.709679690029875 L 19.763798046209693,8.712559435478553 L 19.78340148140846,8.71352234494067 L 19.80300490234044,8.712559145071715 L 19.82241951734577,8.709679112012967 L 19.841458353068813,8.704909982057169 L 19.85993805511387,8.698297684532866 L 19.87768065384823,8.689905899479873 L 19.894515278346987,8.679815444375656 L 19.910279801973477,8.668123495818882 L 19.924822403747395,8.654942653665618 L 19.93800303046389,8.640399856631175 L 19.949694745482386,8.62463515980091 L 19.95978495119594,8.607800385823145 L 19.968176473407656,8.590057662774116 L 19.97478849717137,8.571577862775944 L 19.979557345083713,8.552538956404701 L 19.982437090532407,8.533124298736453 L 19.983399999994518,8.51352086353769 L 19.982436800125555,8.493917442605705 L 19.979556767066807,8.47450282760039 L 19.974787637111007,8.455463991877346 L 19.96817533958672,8.43698428983228 L 19.95978355453372,8.419241691097923 L 19.949693099429503,8.402407066599167 L 19.94465319885899,8.394864443305998 L 19.939000943867608,8.386838968347467 L 19.92730946521181,8.371075017290503 L 19.914858597131133,8.355903705214017 L 19.901678332594752,8.341361578380688 L 19.887800421619342,8.327483667405277 L 19.87325829478602,8.314303402868896 L 19.858086982709466,8.30185253478816 L 19.842323031652494,8.29016105613236 L 19.834297556694032,8.284508801141024 L 19.80956055669403,8.267979801141024 L 19.801266753171877,8.262727733588635 L 19.78443141991514,8.252636899640462 L 19.767121213210984,8.243384325971663 L 19.749377838276715,8.234992304667026 L 19.73124404395516,8.227481054495588 L 19.7127635197206,8.220868672197893 L 19.69398079041846,8.215171088885858 L 19.67494110899222,8.210402031660132 L 19.665362728990406,8.208251211588562 L 19.636182728990406,8.202447211588561 L 19.62651117354788,8.200769113069482 L 19.607097374686493,8.197889477000505 L 19.587565667718827,8.1959658572236 L 19.56796310208501,8.195002887498298 L 19.55815,8.194762 L 19.10065,8.194762 L 19.09083689791499,8.195002887498298 L 19.071234332281172,8.1959658572236 L 19.051702625313506,8.197889477000505 L 19.03228882645212,8.200769113069482 L 19.022617271009594,8.202447211588561 L 18.993437271009594,8.208251211588562 L 18.98385889100778,8.210402031660132 L 18.964819209581538,8.215171088885858 L 18.9460364802794,8.220868672197893 L 18.927555956044838,8.227481054495588 L 18.909422161723285,8.234992304667026 L 18.891678786789015,8.243384325971663 L 18.87436858008486,8.252636899640462 L 18.857533246828122,8.262727733588635 L 18.84923944330597,8.267979801141024 L 18.82450244330597,8.284508801141024 L 18.816476968347505,8.29016105613236 L 18.800713017290533,8.30185253478816 L 18.78554170521398,8.314303402868896 L 18.77099957838066,8.327483667405277 L 18.757121667405247,8.341361578380688 L 18.743941402868867,8.355903705214017 L 18.73149053478819,8.371075017290503 L 18.71979905613239,8.386838968347467 L 18.71414680114101,8.394864443305998 L 18.7134,8.395982092276 L 18.7134,7.8310576697919965 L 19.422495669791996,7.121962 L 20.0406,7.121962 L 20.045508245704635,7.121901763739236 L 20.055321780570104,7.121660854980267 L 20.060227069730878,7.121480182482071 L 20.072820144394115,7.120861524394959 L 20.07282014439419,7.120861524394952 L 20.072820144394235,7.120861524394952 L 20.085123423374714,7.120257103056804 L 20.09491331657505,7.119534957150213 L 20.114445876600698,7.117611167902134 L 20.124188543425948,7.116409524560646 L 20.148845131574333,7.112752065208324 L 20.158517101086467,7.11107381929601 L 20.17776704217598,7.107244767941974 L 20.187345013753355,7.105093962500252 L 20.21152437998389,7.099037346553818 L 20.220985279454187,7.096419163061336 L 20.23976721415204,7.09072172545901 L 20.24908824937959,7.087642471349165 L 20.27255753317769,7.079245027331047 L 20.281716248972206,7.075712120796718 L 20.299849296979755,7.068201166384831 L 20.308823629192783,7.0642231185072735 L 20.33135680852586,7.053565718393892 L 20.34012513720502,7.049152112638868 L 20.35743466735767,7.039899976014205 L 20.365975868831157,7.035061445144564 L 20.38735593686433,7.022246725524925 L 20.39564943462959,7.016994925985388 L 20.411968746689364,7.006090710281506 L 20.41999456098388,7.00043829411716 L 20.44001561597447,6.985589667746455 L 20.447754411908747,6.979550252122849 L 20.462926341979728,6.96709897089766 L 20.470359476116435,6.960687105296075 L 20.488828704360248,6.94394757256332 L 20.492425022338303,6.940606764082573 L 20.499534587606178,6.933837895248912 L 20.503047834895998,6.930409834895999 L 21.315047834896,6.118409834895998 L 21.31847589524889,6.114896587606199 L 21.32524476408258,6.107787022338293 L 21.32858557256338,6.104190704360187 L 21.345325105296133,6.085721476116366 L 21.351736970897658,6.07828834197972 L 21.364188252122776,6.063116411908835 L 21.370227667746367,6.055377615974598 L 21.385076294117077,6.035356560984016 L 21.390728710281522,6.0273307466893415 L 21.401632925985485,6.011011434629426 L 21.406884725525007,6.002717936864182 L 21.419699445144637,5.981337868831001 L 21.424537976014243,5.972796667357587 L 21.43379011263883,5.955487137205079 L 21.43820371839382,5.946718808525987 L 21.448861118507207,5.924185629192919 L 21.452839166384802,5.915211296979822 L 21.46035012079674,5.897078248972147 L 21.463883027331082,5.88791953317757 L 21.472280471349194,5.864450249379471 L 21.475359725459025,5.855129214151971 L 21.481057163061323,5.836347279454216 L 21.483675346553788,5.826886379983962 L 21.48973196250023,5.802707013753421 L 21.49188276794198,5.7931290421759485 L 21.495711819296034,5.773879101086333 L 21.497390065208332,5.764207131574191 L 21.501047524560644,5.739550543425806 L 21.50224916790213,5.729807876600683 L 21.504172957150207,5.710275316575102 L 21.504895103056803,5.700485423374645 L 21.506118182482062,5.675589069730938 L 21.506298854980276,5.670683780570112 L 21.506539763739244,5.660870245704643 L 21.506058091335742,5.641249087280125 L 21.503655528477804,5.621769622248001 L 21.4993552131591,5.602619448505081 L 21.493198559766963,5.583982992693059 L 21.485244860239135,5.566039734069132 L 21.47557071304998,5.548962476022631 L 21.46426928552535,5.532915681883924 L 21.451449416590332,5.5180538910526336 L 21.437234568590807,5.504520230698742 L 21.421761638283627,5.492445037369721 L 21.405179638446004,5.481944601778284 L 21.38764826280105,5.473120048859321 L 21.36933634807983,5.4660563638814095 L 21.350420248031437,5.4608215739923045 L 21.331082135039896,5.457466093080267 L 21.311508245704637,5.456022236260765 L 21.291887087280124,5.456503908664256 L 21.272407622247993,5.458906471522204 L 21.253257448505074,5.463206786840893 L 21.234620992693053,5.469363440233029 L 21.21667773406914,5.477317139760867 L 21.19960047602263,5.48699128695003 L 21.183553681883915,5.4982927144746405 L 21.168691891052635,5.511112583409667 L 21.15515823069875,5.5253274314092025 L 21.143083037369713,5.540800361716382 L 21.132582601778285,5.557382361553989 L 21.12375804885931,5.574913737198949 L 21.116694363881408,5.593225651920162 L 21.111459573992313,5.61214175196857 L 21.108104093080268,5.631479864960097 L 21.10666023626076,5.651053754295357 L 21.106479563762544,5.658413535932481 L 21.105617829333706,5.675954543199993 L 21.10465651438089,5.685714937712185 L 21.102439867416308,5.700658357723504 L 21.100526495499118,5.710277527925916 L 21.09685581099929,5.724931721888818 L 21.094008808935286,5.73431702991379 L 21.08891943759854,5.7485408699296565 L 21.08516622357398,5.757601930130243 L 21.078707178828388,5.771258432844244 L 21.07408389834598,5.779907982257649 L 21.0663173843233,5.792865628083229 L 21.060868562101618,5.801020366819955 L 21.051869374577343,5.813154366544627 L 21.045647485752955,5.820735760012962 L 21.033853458823057,5.833748463459321 L 21.030469534147336,5.837302710695431 L 20.22194071069546,6.645831534147307 L 20.218386463459268,6.6492154588231145 L 20.20537376001309,6.661009485752843 L 20.197792366544483,6.667231374577455 L 20.185658366820054,6.6762305621015425 L 20.17750362808323,6.681679384323306 L 20.16454598225759,6.6894458983460146 L 20.15589643284431,6.694069178828366 L 20.14223993013011,6.700528223574035 L 20.133178869929804,6.704281437598489 L 20.11895502991374,6.7093708089353 L 20.10956972188887,6.712217810999282 L 20.094915527925714,6.715888495499164 L 20.085296357723774,6.717801867416255 L 20.070352937712087,6.720018514380895 L 20.06059254320003,6.7209798293337 L 20.053193074663326,6.72134334191288 L 20.053193074663298,6.72134334191288 L 20.04305153593202,6.721841563762561 L 20.038145507524206,6.721962 L 19.339652957317384,6.721962 L 19.32004952925147,6.722925054665558 L 19.30063489291416,6.7258049439193535 L 19.281596021866484,6.730573932853557 L 19.26311627084437,6.737186093497746 L 19.245373609952182,6.745577747130327 L 19.228538910713464,6.755668077539489 L 19.212774300484657,6.767359909327455 L 19.198231601080074,6.780540643762693 L 18.37197864376269,7.606793601080075 L 18.358797909327446,7.62133630048465 L 18.34710607753949,7.637100910713464 L 18.337015747130334,7.653935609952182 L 18.328624093497737,7.671678270844363 L 18.322011932853563,7.690158021866493 L 18.31724294391936,7.709196892914154 L 18.314363054665566,7.728611529251471 L 18.3134,7.748214957317382 L 18.3134,8.513522344946153 L 18.314363054665566,8.533125773012065 L 18.31724294391936,8.552540409349382 L 18.322011932853563,8.571579280397042 L 18.328624093497737,8.590059031419173 L 18.337015747130334,8.607801692311353 L 18.34710607753949,8.624636391550071 L 18.358797909327446,8.640401001778885 L 18.37197864376269,8.654943701183461 L 18.386521343167274,8.668124435618699 L 18.40228595339608,8.679816267406665 L 18.4191206526348,8.689906597815826 L 18.436863313526988,8.698298251448408 L 18.455343064549105,8.704910412092596 L 18.474381935596778,8.7096794010268 L 18.493796571934087,8.712559290280595 L 18.5134,8.713522344946153 L 18.53300342806591,8.712559290280595 L 18.55241806440322,8.7096794010268 L 18.571456935450897,8.704910412092596 L 18.589936686473013,8.698298251448408 L 18.6076793473652,8.689906597815826 L 18.624514046603917,8.679816267406665 L 18.640278656832724,8.668124435618699 L 18.654821356237306,8.654943701183461 L 18.66800209067255,8.640401001778885 L 18.679693922460512,8.624636391550071 L 18.689784252869664,8.607801692311353 L 18.694400004020707,8.598042506455846 z" /><path fill-rule="evenodd" fill="#66cc99" stroke="#555555" stroke-width="0.0" opacity="1" d="M 20.103980700091036,5.479685630116962 L 19.769704330208004,5.813962 L 19.1516,5.813962 L 19.146691754295365,5.814022236260764 L 19.136878219429896,5.814263145019733 L 19.13197293026906,5.814443817517936 L 19.107076576625346,5.815666896943196 L 19.09728668342495,5.816389042849787 L 19.077754123399302,5.818312832097866 L 19.06801145657405,5.819514475439354 L 19.043354868425666,5.823171934791676 L 19.033682898913533,5.82485018070399 L 19.01443295782402,5.828679232058026 L 19.004854986246645,5.830830037499748 L 18.980675620016115,5.836886653446182 L 18.971214720545813,5.839504836938664 L 18.95243278584796,5.84520227454099 L 18.94311175062041,5.848281528650835 L 18.91964246682231,5.856678972668953 L 18.910483751027794,5.860211879203282 L 18.892350703020245,5.8677228336151686 L 18.883376370807216,5.8717008814927265 L 18.86084319147414,5.882358281606108 L 18.852074862794982,5.886771887361132 L 18.83476533264233,5.896024023985795 L 18.826224131168843,5.900862554855436 L 18.80484406313567,5.913677274475075 L 18.79655056537041,5.918929074014612 L 18.780231253310635,5.929833289718494 L 18.77220543901612,5.93548570588284 L 18.75218438402553,5.950334332253545 L 18.744445588091253,5.956373747877151 L 18.729273658020272,5.96882502910234 L 18.721840523883568,5.975236894703925 L 18.703371295639755,5.99197642743668 L 18.6997749776617,5.995317235917427 L 18.692665412393822,6.002086104751088 L 18.689152165104,6.005514165104001 L 17.596952165104003,7.097714165104001 L 17.59352410475111,7.101227412393801 L 17.58675523591742,7.108336977661707 L 17.58341442743662,7.111933295639813 L 17.566674894703866,7.1304025238836335 L 17.56026302910234,7.13783565802028 L 17.547811747877226,7.153007588091165 L 17.541772332253636,7.160746384025402 L 17.526923705882922,7.180767439015985 L 17.521271289718477,7.188793253310658 L 17.510367074014514,7.205112565370575 L 17.505115274474992,7.2134060631358174 L 17.492300554855362,7.234786131168999 L 17.48746202398576,7.243327332642414 L 17.478209887361167,7.260636862794921 L 17.473796281606184,7.269405191474013 L 17.463138881492792,7.291938370807081 L 17.459160833615197,7.3009127030201775 L 17.45164987920326,7.319045751027852 L 17.448116972668917,7.328204466822431 L 17.439719528650805,7.351673750620529 L 17.436640274540977,7.360994785848029 L 17.43094283693868,7.379776720545784 L 17.42832465344621,7.389237620016038 L 17.42226803749977,7.413416986246578 L 17.42011723205802,7.422994957824051 L 17.41628818070397,7.442244898913667 L 17.41460993479167,7.451916868425809 L 17.410952475439355,7.476573456574194 L 17.409750832097874,7.486316123399317 L 17.407827042849792,7.505848683424897 L 17.407104896943196,7.515638576625355 L 17.405881817517937,7.540534930269063 L 17.405701145019727,7.545440219429888 L 17.405460236260758,7.555253754295356 L 17.4054,7.560162 L 17.4054,8.513522344946153 L 17.406363054665565,8.533125773012065 L 17.40924294391936,8.552540409349382 L 17.414011932853565,8.571579280397042 L 17.42062409349774,8.590059031419173 L 17.429015747130336,8.607801692311353 L 17.43910607753949,8.624636391550071 L 17.45079790932745,8.640401001778885 L 17.463978643762694,8.654943701183461 L 17.478521343167277,8.668124435618699 L 17.494285953396083,8.679816267406665 L 17.511120652634798,8.689906597815826 L 17.528863313526987,8.698298251448408 L 17.547343064549104,8.704910412092596 L 17.56638193559678,8.7096794010268 L 17.58579657193409,8.712559290280595 L 17.6054,8.713522344946153 L 17.62500342806591,8.712559290280595 L 17.644418064403222,8.7096794010268 L 17.663456935450895,8.704910412092596 L 17.681936686473012,8.698298251448408 L 17.6996793473652,8.689906597815826 L 17.71651404660392,8.679816267406665 L 17.732278656832726,8.668124435618699 L 17.74682135623731,8.654943701183461 L 17.760002090672554,8.640401001778885 L 17.77169392246051,8.624636391550071 L 17.781784252869667,8.607801692311353 L 17.790175906502263,8.590059031419173 L 17.796788067146437,8.571579280397042 L 17.80155705608064,8.552540409349382 L 17.804436945334434,8.533125773012065 L 17.8054,8.513522344946153 L 17.8054,7.562616492476098 L 17.805520436237455,7.557710464067519 L 17.806382170666293,7.540169456800006 L 17.807343485619114,7.530409062287815 L 17.80956013258369,7.515465642276496 L 17.81147350450088,7.505846472074084 L 17.815144189000712,7.491192278111182 L 17.817991191064717,7.481806970086209 L 17.823080562401458,7.467583130070343 L 17.826833776426017,7.4585220698697565 L 17.83329282117161,7.444865567155756 L 17.837916101654024,7.436216017742351 L 17.8456826156767,7.423258371916771 L 17.85113143789838,7.415103633180045 L 17.860130625422656,7.402969633455373 L 17.866352514247044,7.395388239987038 L 17.878146541176946,7.38237553654068 L 17.881530465852663,7.378821289304569 L 18.97025928930454,6.290092465852693 L 18.97381353654073,6.2867085411768855 L 18.98682623998691,6.274914514247157 L 18.994407633455516,6.268692625422545 L 19.006541633179946,6.2596934378984574 L 19.01469637191677,6.2542446156766935 L 19.02765401774241,6.246478101653985 L 19.036303567155688,6.241854821171634 L 19.04996006986989,6.235395776425965 L 19.059021130070196,6.231642562401511 L 19.07324497008626,6.2265531910647 L 19.08263027811113,6.223706189000718 L 19.097284472074286,6.220035504500836 L 19.106903642276226,6.218122132583745 L 19.121847062287912,6.215905485619105 L 19.131607456799998,6.214944170666293 L 19.14914846406783,6.214082436237447 L 19.154054492475794,6.213962 L 19.85254704268262,6.213962 L 19.87215047074853,6.212998945334442 L 19.89156510708584,6.2101190560806465 L 19.910603978133516,6.205350067146443 L 19.92908372915563,6.198737906502254 L 19.946826390047818,6.190346252869673 L 19.963661089286536,6.180255922460511 L 19.979425699515343,6.168564090672545 L 19.993968398919925,6.155383356237307 L 20.509371115053444,5.639980640103779 L 20.52255186730993,5.625437918983951 L 20.534243712490575,5.609673283755437 L 20.54433405141294,5.592838556907408 L 20.552725708319425,5.575095866525732 L 20.55933786673562,5.556616084906481 L 20.564106847779332,5.53757718295756 L 20.566986723424822,5.518162516236686 L 20.56794975881602,5.498559059132099 L 20.566986679369123,5.478955604191833 L 20.564106760092212,5.459540943943076 L 20.559337736261547,5.44050205271174 L 20.55272553631495,5.4220222859523295 L 20.544333839534552,5.404279614429646 L 20.534243462778807,5.387444910258115 L 20.522551582169637,5.3716803013052346 L 20.50937079723069,5.357137609807118 L 20.494828046489207,5.343956890233167 L 20.47906338498515,5.332265080481105 L 20.413323,5.288339 L 20.39648827525033,5.278248712153397 L 20.378745593141915,5.269857103378929 L 20.36026582540257,5.263244989456415 L 20.341226942297713,5.258476048657469 L 20.32181229867935,5.255596208488971 L 20.30220886817865,5.254633203386009 L 20.28260544254765,5.255596307614162 L 20.263190813491523,5.258476245953225 L 20.244151954501167,5.263245283022664 L 20.225672220196365,5.269857490388476 L 20.207929580520542,5.2782491888791245 L 20.191094906792863,5.288339561850779 L 20.175330326124115,5.30003143349576 L 20.16078766004394,5.313212204698711 L 20.14760696237649,5.327754937427588 L 20.13591517044562,5.343519577216357 L 20.125824882599026,5.360354301966019 L 20.117433273824542,5.3780969840744435 L 20.110821159902038,5.396576751813777 L 20.1060522191031,5.4156156349186375 L 20.10317237893459,5.435030278537005 L 20.10220937383163,5.454633709037706 L 20.103172478059783,5.474237134668701 L 20.103980700091036,5.479685630116962 z" /></g>
                        <rect width="21.0" height="18.0" x="2" y="2" stroke-width="0.1" fill="none" stroke="black"/>
                    </g>
                    </svg>