<?xml version="1.0" encoding="UTF-8"?>
<svg xmlns="http://www.w3.org/2000/svg" version="1.1" viewBox="0 0 303.1 287.9">
  <defs>
    <style>
      .cls-1 {
        fill: none;
        stroke: red;
        stroke-linecap: round;
        stroke-miterlimit: 11.3;
      }
    </style>
  </defs>
  <!-- Generator: Adobe Illustrator 28.6.0, SVG Export Plug-In . SVG Version: 1.2.0 Build 709)  -->
  <g>
    <g id="Layer_1">
      <g>
        <polygon class="cls-1" points="174.3 101.1 169.5 101.1 169.5 101.1 169.5 101.2 169.5 109.9 169.5 109.9 169.5 109.9 174.3 109.9 174.3 109.9 174.3 109.9 174.3 101.2 174.3 101.1 174.3 101.1"/>
        <polygon class="cls-1" points="90.6 112.1 90.6 111.8 90.6 111.8 90.6 111.8 90.5 111.6 90.4 111.6 90.4 111.6 90.2 111.4 90.2 111.4 90.2 111.4 90 111.4 89.9 111.4 89.9 111.4 88.3 111.4 87.3 111.4 87.2 111.4 87.2 111.4 87 111.4 87 111.4 87 111.4 86.8 111.6 86.7 111.6 86.7 111.6 86.6 111.8 86.6 111.8 86.6 111.8 86.5 112.1 86.5 112.1 86.5 112.1 86.5 113.5 86.5 113.5 86.5 113.5 86.6 113.8 86.6 113.8 86.6 113.8 86.7 114 86.7 114 86.8 114 87 114.1 87 114.1 87 114.2 87.2 114.2 87.2 114.2 87.3 114.2 89.9 114.2 89.9 114.2 90 114.2 90.2 114.2 90.2 114.1 90.2 114.1 90.4 114 90.4 114 90.5 114 90.6 113.8 90.6 113.8 90.6 113.8 90.6 113.6 90.6 113.5 90.7 113.5 90.7 113.5 90.7 112.1 90.7 112.1 90.6 112.1"/>
        <polygon class="cls-1" points="152.7 96.9 152.8 96.9 152.8 96.9 152.8 96.9 152.9 96.9 152.9 96.9 152.9 96.8 153 96.8 153 96.8 153 96.8 153.1 96.8 168 81.8 169.9 80 169.9 79.9 169.9 79.9 169.9 79.9 169.9 79.8 170 79.8 170 79.8 170 79.7 170 79.7 170 79.7 170 79.6 170 79.6 170 69.3 170 69.3 170 69.2 170 69.2 170 69.1 170.1 69 170.1 69 170.1 68.9 170.2 68.9 170.2 68.9 170.2 68.8 170.3 68.8 170.3 68.8 170.4 68.7 170.5 68.7 170.5 68.7 170.6 68.7 170.8 68.7 170.8 68.7 170.8 68.7 171 68.5 171 68.5 171.1 68.5 171.2 68.3 171.2 68.3 171.2 68.3 171.3 68 171.3 68 171.3 68 171.3 66.6 171.3 66.6 171.3 66.6 171.2 66.3 171.2 66.3 171.2 66.3 171.1 66.1 171 66.1 171 66.1 170.8 65.9 170.8 65.9 170.8 65.9 170.6 65.9 170.5 65.9 170.5 65.9 168.7 65.9 167.9 65.9 167.9 65.9 167.8 65.9 167.6 65.9 167.6 65.9 167.6 65.9 167.4 66.1 167.4 66.1 167.3 66.1 167.2 66.3 167.2 66.3 167.2 66.3 167.1 66.6 167.1 66.6 167.1 66.6 167.1 66.8 167.1 68 167.1 68 167.1 68 167.2 68.3 167.2 68.3 167.2 68.3 167.3 68.5 167.4 68.5 167.4 68.5 167.6 68.7 167.6 68.7 167.6 68.7 167.8 68.7 167.9 68.7 167.9 68.7 167.9 68.7 168 68.7 168.1 68.7 168.1 68.7 168.2 68.8 168.2 68.8 168.3 68.8 168.3 68.9 168.4 68.9 168.4 68.9 168.5 69 168.5 69 168.5 69.1 168.5 69.2 168.6 69.2 168.6 69.3 168.6 69.3 168.6 79.1 168.6 79.1 168.6 79.2 168.5 79.2 168.5 79.3 168.5 79.4 168.5 79.4 168.4 79.5 168.4 79.5 152.6 95.3 152.6 95.3 152.5 95.4 152.5 95.4 152.4 95.4 152.3 95.4 152.3 95.4 152.2 95.5 152.2 95.5 136.4 95.5 132.7 95.5 132.6 95.5 114.4 95.5 114.4 95.5 114.4 95.5 114.3 95.5 114.3 95.5 114.3 95.5 114.2 95.5 114.2 95.5 114.2 95.5 114.1 95.5 114.1 95.5 114.1 95.6 114 95.6 114 95.6 114 95.6 113.9 95.6 113.9 95.7 113.9 95.7 112.9 96.7 112.8 96.7 110.6 99 110.6 99 110.4 99.2 110.4 99.2 110.4 99.2 110.3 99.2 110.3 99.3 110.3 99.3 110.3 99.3 110.3 99.4 110.2 99.4 110.2 99.4 110.2 99.5 110.2 99.5 110.2 99.5 110.2 99.6 110.2 99.6 110.2 99.6 110.2 99.6 110.2 99.7 110.2 99.7 110.2 99.8 110.1 99.9 110.1 99.9 110.1 100 110 100 110 100 109.9 100.1 109.9 100.1 109.9 100.1 109.9 100.1 109.9 101.4 109.9 101.5 109.9 104.9 109.9 106.6 109.9 106.6 109.9 106.6 111.9 106.6 111.9 106.6 111.9 106.6 111.9 104.9 111.9 101.6 111.9 101.5 111.9 100.1 111.9 100.1 111.9 100.1 111.9 100.1 111.9 100 111.9 99.9 111.9 99.9 111.9 99.8 111.9 99.8 111.9 99.7 111.9 99.7 112 99.6 112 99.6 112.1 99.5 113.1 98.5 113.1 98.5 114.5 97.1 114.6 97 114.6 97 114.7 97 114.7 96.9 114.8 96.9 114.8 96.9 114.9 96.9 115 96.9 127 96.9 127 96.9 127 96.9 127.1 96.9 127.1 96.9 127.2 96.9 127.2 96.9 127.3 96.8 127.3 96.8 127.3 96.8 129.2 96.8 131.6 96.8 135.2 96.8 135.3 96.8 139.1 96.8 141.7 96.8 141.7 96.8 141.7 96.8 141.7 96.9 141.8 96.9 141.8 96.9 141.9 96.9 141.9 96.9 142 96.9 142 96.9 152.7 96.9 152.7 96.9"/>
        <polygon class="cls-1" points="144.8 99.6 144.9 99.6 144.9 99.6 144.9 99.6 146.7 99.6 146.7 99.6 146.7 99.6 146.8 99.6 146.9 99.6 146.9 99.6 147 99.6 147 99.6 147.1 99.6 147.2 99.7 147.2 99.7 147.3 99.7 147.3 99.8 147.4 99.8 147.4 99.8 147.5 99.9 147.5 99.9 147.6 100 147.6 100 147.6 100 147.6 100 147.6 100 147.7 99.9 147.7 99.9 147.8 99.8 147.8 99.8 147.9 99.8 147.9 99.7 148 99.7 148 99.7 148.1 99.6 148.2 99.6 148.2 99.6 148.3 99.6 148.3 99.6 148.4 99.6 148.5 99.6 148.5 99.6 148.5 99.6 150.3 99.6 150.3 99.6 150.3 99.6 150.4 99.6 150.5 99.6 150.5 99.6 150.6 99.6 150.6 99.6 150.7 99.6 150.7 99.7 150.7 99.6 150.7 99.6 150.8 99.5 150.8 99.5 150.8 99.4 150.8 99.4 150.8 99.3 150.8 99.3 150.9 99.2 150.9 99.2 150.9 99.1 150.9 99.1 151 99 151 99 151 98.9 151 98.9 151.1 98.8 151.1 98.8 151.2 98.7 151.2 98.7 151.2 98.6 151.2 98.6 151.3 98.5 151.3 98.5 151.3 98.5 151.4 98.5 151.7 98.1 143.7 98.1 143.7 98.1 143.8 98.2 143.8 98.2 143.8 98.3 143.9 98.3 143.9 98.4 143.9 98.4 143.9 98.4 144 98.5 144 98.5 144 98.6 144 98.6 144 98.6 144.1 98.7 144.1 98.7 144.1 98.8 144.1 98.8 144.1 98.9 144.1 98.9 144.1 99 144.1 99 144.1 99.1 144.1 99.1 144.1 99.2 144.2 99.2 144.2 99.3 144.2 99.3 144.2 99.3 144.2 99.3 144.2 99.9 144.2 99.8 144.2 99.8 144.3 99.8 144.3 99.7 144.4 99.7 144.4 99.7 144.5 99.6 144.6 99.6 144.6 99.6 144.7 99.6 144.7 99.6 144.8 99.6"/>
        <polygon class="cls-1" points="143 100.8 143 100.8 143 100.8 143 100.7 143 100.7 142.9 100.6 142.9 100.5 142.9 100.5 142.9 100.4 142.9 99.3 142.9 99.3 142.9 99.3 142.9 99.3 142.9 99.2 142.9 99.2 142.9 99.1 142.9 99.1 142.9 99.1 142.8 99.1 142.8 99 142.8 99 142.8 99 142.8 98.9 142.8 98.9 142.7 98.9 142.7 98.8 142.7 98.8 142.2 98.3 142.2 98.3 142.1 98.3 142.1 98.2 142.1 98.2 142 98.2 142 98.2 142 98.2 142 98.2 141.9 98.1 141.9 98.1 141.9 98.1 139.1 98.1 135.3 98.1 135.2 98.1 131.6 98.1 129.2 98.1 127.1 98.1 127.1 98.1 127 98.1 127 98.2 127 98.2 126.9 98.2 126.9 98.2 126.9 98.2 126.9 98.2 126.8 98.3 126.8 98.3 126.8 98.3 125.7 99.4 124.2 100.9 122.6 102.5 122.6 102.5 122.5 102.6 122.5 102.6 122.4 102.6 122.3 102.6 122.3 102.7 122.2 102.7 122.2 102.7 121.5 102.7 121.4 102.7 121 102.7 120.9 102.7 120.9 102.7 120.8 102.6 120.8 102.6 120.7 102.6 120.7 102.6 120.6 102.5 120.6 102.5 120.5 102.4 120.5 102.4 120.5 102.3 120.4 102.3 120.4 102.2 120.4 102.2 120.4 102.1 120.4 102.1 120.4 101.8 120.4 101.6 120.4 100.1 120.4 100.1 120.4 100.1 118.4 100.1 118.4 100.1 118.4 100.1 118.4 101.5 118.4 101.6 118.4 104.9 118.4 105.7 118.4 106.6 118.4 106.6 118.4 106.6 119.3 106.6 120.4 106.6 120.4 106.6 120.4 106.6 120.4 104.7 120.4 104.7 120.4 104.6 120.4 104.5 120.4 104.5 120.5 104.4 120.5 104.4 120.5 104.3 120.6 104.3 120.6 104.2 120.7 104.2 120.7 104.2 120.8 104.1 120.8 104.1 120.9 104.1 120.9 104.1 121 104.1 122.7 104.1 122.7 104.1 122.8 104.1 122.8 104.1 122.8 104.1 122.9 104.1 122.9 104.1 122.9 104.1 123 104 123 104 123 104 123.1 104 123.1 104 123.1 104 123.2 103.9 123.2 103.9 123.2 103.9 123.2 103.9 123.3 103.8 125.2 101.9 127.4 99.7 127.5 99.7 127.5 99.6 127.6 99.6 127.6 99.6 127.7 99.5 127.7 99.5 127.8 99.5 127.8 99.5 128.1 99.5 131.1 99.5 132.7 99.5 135.3 99.5 136.9 99.5 139.6 99.5 140.9 99.5 140.9 99.5 141 99.5 141 99.5 141.1 99.6 141.2 99.6 141.2 99.6 141.3 99.7 141.3 99.7 141.3 99.7 141.4 99.8 141.4 99.8 141.4 99.9 141.5 100 141.5 100 141.5 100.1 141.5 100.1 141.5 100.4 141.5 100.5 141.5 100.5 141.5 100.6 141.5 100.6 141.4 100.7 141.4 100.7 141.4 100.8 141.4 100.8 141.3 100.8 141.3 105.3 141.4 105.3 141.4 105.3 143 105.3 143 105.3 143.1 105.3 143.1 100.8 143 100.8 143 100.8"/>
        <polygon class="cls-1" points="106.9 116 106.9 116 106.9 116 106.9 112.9 106.9 110.6 106.9 110.6 106.9 110.6 103.8 110.6 103.8 110.6 103.8 112.9 103.8 116 103.8 116 106.9 116"/>
        <polygon class="cls-1" points="147.8 121.7 147.8 121.6 147.7 121.6 147.7 121.6 147.6 121.5 147.6 121.5 147.6 121.5 147.6 121.5 147.6 121.5 147.5 121.6 147.5 121.6 147.4 121.6 147.4 121.7 147.3 121.7 147.9 121.7 147.8 121.7"/>
        <polygon class="cls-1" points="159.4 120.7 161 120.7 161 120.7 161.1 120.6 161.1 116.1 161 116.1 161 116.1 159.4 116.1 159.4 116.1 159.3 116.1 159.3 120.6 159.4 120.7 159.4 120.7"/>
        <polygon class="cls-1" points="99.1 111.8 99.1 111.8 99 111.6 99 111.6 99 111.6 98.8 111.4 98.7 111.4 98.7 111.4 98.5 111.4 98.5 111.4 98.5 111.4 95.8 111.4 95.8 111.4 95.8 111.4 95.5 111.4 95.5 111.4 95.5 111.4 95.3 111.6 95.3 111.6 95.3 111.6 95.1 111.8 95.1 111.8 95.1 111.8 95.1 112.1 95.1 112.1 95.1 112.1 95.1 112.1 95.1 113.5 95.1 113.5 95.1 113.5 95.1 113.8 95.1 113.8 95.1 113.8 95.3 114 95.3 114 95.3 114 95.5 114.1 95.5 114.1 95.5 114.2 95.8 114.2 95.8 114.2 95.8 114.2 97.2 114.2 98.5 114.2 98.5 114.2 98.5 114.2 98.7 114.2 98.7 114.1 98.8 114.1 99 114 99 114 99 114 99.1 113.8 99.1 113.8 99.1 113.8 99.2 113.6 99.2 111.9 99.1 111.8 99.1 111.8"/>
        <polygon class="cls-1" points="140.6 121.7 140.6 121.6 140.5 121.6 140.5 121.6 140.4 121.5 140.4 121.5 140.4 121.5 140.4 121.5 140.4 121.5 140.3 121.6 140.3 121.6 140.2 121.6 140.2 121.7 140.1 121.7 140.7 121.7 140.6 121.7"/>
        <polygon class="cls-1" points="129.3 113.9 129.3 114.1 129.3 114.1 129.3 114.1 129.5 114.3 129.5 114.4 129.5 114.4 129.7 114.5 129.7 114.5 129.7 114.5 130 114.6 130 114.6 130 114.6 131.4 114.6 132.4 114.6 132.7 114.6 132.7 114.6 132.7 114.6 132.9 114.5 132.9 114.5 133 114.5 133.2 114.4 133.2 114.4 133.2 114.3 133.3 114.1 133.3 114.1 133.3 114.1 133.4 113.9 133.4 113.9 133.4 113.8 133.4 112.5 133.4 112.4 133.4 112.4 133.3 112.2 133.3 112.2 133.3 112.2 133.2 111.9 133.2 111.9 133.2 111.9 133 111.8 132.9 111.8 132.9 111.8 132.7 111.7 132.7 111.7 132.7 111.7 132.4 111.7 131.4 111.7 130 111.7 130 111.7 130 111.7 129.7 111.8 129.7 111.8 129.7 111.8 129.5 111.9 129.5 111.9 129.5 111.9 129.3 112.2 129.3 112.2 129.3 112.2 129.3 112.4 129.3 112.4 129.3 112.5 129.3 113.8 129.3 113.9 129.3 113.9"/>
        <polygon class="cls-1" points="123.4 116 123.7 116 126.5 116 126.5 116 126.5 116 126.5 110.6 126.5 110.6 126.5 110.6 123.7 110.6 123.4 110.6 123.4 110.6 123.4 110.6 123.4 116 123.4 116 123.4 116"/>
        <polygon class="cls-1" points="137.8 120.7 139.4 120.7 139.4 120.7 139.5 120.6 139.5 116.1 139.4 116.1 139.4 116.1 137.8 116.1 137.8 116.1 137.7 116.1 137.7 117.4 137.7 120.6 137.8 120.7 137.8 120.7"/>
        <polygon class="cls-1" points="82.1 112.1 82.1 111.8 82.1 111.8 82.1 111.8 81.9 111.6 81.9 111.6 81.9 111.6 81.7 111.4 81.7 111.4 81.7 111.4 81.4 111.4 81.4 111.4 81.4 111.4 78.7 111.4 78.7 111.4 78.7 111.4 78.5 111.4 78.4 111.4 78.4 111.4 78.2 111.6 78.2 111.6 78.2 111.6 78.1 111.8 78.1 111.8 78.1 111.8 78 112.1 78 112.1 78 112.1 78 113.5 78 113.5 78 113.5 78.1 113.8 78.1 113.8 78.1 113.8 78.2 114 78.2 114 78.2 114 78.4 114.1 78.4 114.1 78.5 114.2 78.7 114.2 78.7 114.2 78.7 114.2 81.4 114.2 81.4 114.2 81.4 114.2 81.7 114.2 81.7 114.1 81.7 114.1 81.9 114 81.9 114 81.9 114 82.1 113.8 82.1 113.8 82.1 113.8 82.1 113.5 82.1 113.5 82.1 113.5 82.1 112.1 82.1 112.1 82.1 112.1"/>
        <polygon class="cls-1" points="145 120.7 145.9 120.7 146.6 120.7 146.6 120.7 146.7 120.6 146.7 116.1 146.6 116.1 146.6 116.1 145.6 116.1 145 116.1 145 116.1 144.9 116.1 144.9 120.6 145 120.7 145 120.7"/>
        <polygon class="cls-1" points="141.4 120.7 143 120.7 143 120.7 143.1 120.6 143.1 117.4 143.1 116.1 143 116.1 143 116.1 141.4 116.1 141.4 116.1 141.3 116.1 141.3 120.6 141.4 120.7 141.4 120.7"/>
        <polygon class="cls-1" points="144.2 121.7 144.2 121.6 144.1 121.6 144.1 121.6 144 121.5 144 121.5 144 121.5 144 121.5 144 121.5 143.9 121.6 143.9 121.6 143.8 121.6 143.8 121.7 143.7 121.7 144.3 121.7 144.2 121.7"/>
        <polygon class="cls-1" points="163 120.7 164.6 120.7 164.6 120.7 164.7 120.6 164.7 116.1 164.6 116.1 164.6 116.1 163 116.1 163 116.1 162.9 116.1 162.9 120.6 163 120.7 163 120.7"/>
        <polygon class="cls-1" points="120.4 98.9 120.4 98.9 120.5 98.9 120.5 98.9 120.6 98.9 120.7 98.9 120.7 98.9 120.8 98.9 120.8 99 120.9 99 120.9 99 121 99 121.1 99.1 121.1 99.1 121.2 99.1 121.2 99.2 121.2 99.2 121.3 99.3 121.3 99.3 121.4 99.4 121.4 99.4 121.4 99.5 121.5 99.5 121.5 99.6 121.5 99.6 121.5 99.7 121.6 99.7 121.6 99.8 121.6 99.9 121.6 99.9 121.6 100 121.6 100 121.6 100.1 121.6 100.1 121.6 101.4 121.9 101.4 123.3 100.1 124.8 98.5 125.2 98.1 115.2 98.1 114.5 98.9 116.1 98.9 116.2 98.9 116.2 98.9 116.3 98.9 116.3 98.9 116.4 98.9 116.5 98.9 116.5 98.9 116.6 99 116.6 99 116.7 99 116.7 99 116.8 99.1 116.9 99.1 116.9 99.1 116.9 99.2 117 99.2 117 99.3 117.1 99.3 117.1 99.4 117.2 99.4 117.2 99.5 117.2 99.5 117.2 99.6 117.3 99.6 117.3 99.6 117.3 99.5 117.3 99.5 117.4 99.4 117.4 99.4 117.5 99.3 117.5 99.3 117.5 99.2 117.6 99.2 117.6 99.1 117.7 99.1 117.7 99.1 117.8 99 117.8 99 117.9 99 118 99 118 98.9 118.1 98.9 118.1 98.9 118.2 98.9 118.2 98.9 118.3 98.9 118.4 98.9 118.4 98.9 120.4 98.9"/>
        <polygon class="cls-1" points="116.1 100.1 114.2 100.1 114.1 100.1 114.1 100.1 114.1 101.5 114.1 101.6 114.1 104.9 114.1 106.6 114.1 106.6 114.2 106.6 115.2 106.6 116.1 106.6 116.1 106.6 116.1 106.6 116.1 105.7 116.1 104.9 116.1 101.6 116.1 101.5 116.1 100.1 116.1 100.1 116.1 100.1"/>
        <polygon class="cls-1" points="193.6 101.1 189.9 101.1 188.8 101.1 188.8 101.1 188.8 101.2 188.8 102.6 188.8 103.4 188.8 109.9 188.8 109.9 188.8 109.9 189.7 109.9 190.7 109.9 193.6 109.9 193.6 109.9 193.6 109.9 193.6 101.2 193.6 101.1 193.6 101.1"/>
        <path class="cls-1" d="M76.5,36.9v93.5h161.6V36.9H76.5ZM202.1,55.3h0c0,0,0-.1,0-.1h0c0,0,0-.1,0-.1h0c0,0,0-.1,0-.1h0s3.7-3.7,3.7-3.7h0s0,0,0,0h0s0,0,0,0h0s0,0,0,0h0s0,0,0,0h0s0,0,0,0h0s0,0,0,0h0s0,0,0,0h0s0,0,0,0h0s0,0,0,0h0c0,0,0,.1,0,.1h0c0,0,0,.1,0,.1h0c0,0,0,.1,0,.1h0c0,0,0,.1,0,.1h0c0,0,0,.1,0,.1h0c0,0,0,.1,0,.1h0s0,0,0,0l-3.7,3.7h0s0,0,0,0h0s0,0,0,0h0s0,0,0,0h0s0,0,0,0h0s0,0,0,0h0s0,0,0,0h0s0,0,0,0h0s0,0,0,0h0s0,0,0,0h0c0,0,0-.1,0-.1h0c0,0,0-.1,0-.1h0c0,0,0-.1,0-.1h0ZM192.3,76.9h0c0,0,0-.1,0-.1h0c0,0,0-.1,0-.1h0c0,0,0-.1,0-.1h0s0,0,0,0h0s0,0,0,0h0s0,0,0,0h0s0,0,0,0h0s0,0,0,0h0s0,0,0,0h0s0,0,0,0h0s0,0,0,0h0s2,2,2,2h23.9s0,0,0,0h0s.1,0,.1,0h0s0,0,0,0h0s.1,0,.1,0h0s0,0,0,0h0s.1,0,.1,0h0s0,0,0,0h0s0,0,0,0h0s0,0,0,0h0s0,0,0,0h0s0,0,0,0h0s0,0,0,0h0s0,0,0,0h0s0,0,0,0h0c0,0,0,.1,0,.1h0c0,0,0,.1,0,.1h0c0,0,0,.1,0,.1h0c0,0,0,.1,0,.1h0c0,0,0,.1,0,.1h0c0,0,0,.1,0,.1h0c0,0,0,0,0,0h0s0,0,0,0h0s0,0,0,0h0s0,0,0,0h0s0,0,0,0h-.1s0,0,0,0h0s0,0,0,0h0s0,0,0,0h0s0,0,0,0h0s0,0,0,0h0s0,0,0,0h0s0,0,0,0h0s0,0,0,0h0s-24.1,0-24.1,0h0s0,0,0,0h0s0,0,0,0h0s0,0,0,0h0s0,0,0,0l-2.2-2.2h0s0,0,0,0h0c0,0,0-.1,0-.1h0c0,0,0-.1,0-.1h0c0,0,0-.1,0-.1h0ZM165.9,61.2h0s0,0,0,0h0c0,0,0-.1,0-.1h0s0-.3,0-.3h0s0,0,0,0h0c0,0,0-.1,0-.1h0c0,0,0-.1,0-.1h0c0,0,0-.1,0-.1h0s.2-.3.2-.3h0s0,0,0,0h0s0,0,0,0h0s0,0,0,0h0s0,0,0,0h0s.2-.2.2-.2h0s0,0,0,0h0s0,0,0,0h0s0,0,0,0h0s0,0,0,0h0s0,0,0,0h.3c0,0,0,0,0,0h0s0,0,0,0h0s0,0,0,0h.8v-3.2h0c0,0,0-.1,0-.1h0c0,0,0-.1,0-.1h0c0,0,0-.1,0-.1h0s0,0,0,0h0s0,0,0,0h0s0,0,0,0h0s0,0,0,0h0s0,0,0,0h0s0,0,0,0h0s0,0,0,0h0s0,0,0,0h0s0,0,0,0h0s0,0,0,0h0c0,0,0,.1,0,.1h0c0,0,0,.1,0,.1h0c0,0,0,.1,0,.1v3.8h0c0,0,0,.1,0,.1h0c0,0,0,.1,0,.1h0c0,0,0,.1,0,.1h0s0,0,0,0h0s0,0,0,0h0s0,0,0,0h0s0,0,0,0h0s0,0,0,0h-1.4s0,0,0,0h-.2s0,0,0,0h0s-.2.1-.2.1h0s0,0,0,0v.2c-.1,0-.1,0-.1,0h0s0,.3,0,.3h0s0,0,0,0v1.4h0s0,0,0,0v.2s0,0,0,0h0s.1.2.1.2h0s0,0,0,0h.2c0,.1,0,.1,0,.1h0s.2,0,.2,0h0s0,0,0,0h2.7s0,0,0,0h.2s0,0,0,0h0s.2-.1.2-.1h0s0,0,0,0v-.2c.1,0,.1,0,.1,0h0s0-.3,0-.3h0s0,0,0,0v-1.4h0s0,0,0,0h0c0,0,0-.1,0-.1h0c0,0,0-.1,0-.1h0c0,0,0-.1,0-.1h0c0,0,0,0,0,0h0s0,0,0,0h0s0,0,0,0h0s0,0,0,0h0v-4.4h0c0,0,0-.1,0-.1h0c0,0,0-.1,0-.1h0c0,0,0-.1,0-.1h0s0,0,0,0h0s0,0,0,0h0s0,0,0,0h0s0,0,0,0h0s0,0,0,0h0s0,0,0,0h0s0,0,0,0h0s0,0,0,0h0s0,0,0,0h0s0,0,0,0h0c0,0,0,.1,0,.1h0c0,0,0,.1,0,.1h0c0,0,0,.1,0,.1v4.4h0s0,0,0,0h0s0,0,0,0h0s0,0,0,0h0s0,0,0,0h0s0,0,0,0h0s0,0,0,0h0s0,0,0,0h0s0,0,0,0h0c0,0,0,0,0,0v1.4h0s0,0,0,0h0c0,0,0,.1,0,.1h0s0,.3,0,.3h0s0,0,0,0h0c0,0,0,.1,0,.1h0c0,0,0,.1,0,.1h0c0,0,0,.1,0,.1h0s-.2.3-.2.3h0s0,0,0,0h0s0,0,0,0h0s0,0,0,0h0s0,0,0,0h0s-.2.2-.2.2h0s0,0,0,0h0s0,0,0,0h0s0,0,0,0h0s0,0,0,0h0s0,0,0,0h-.3c0,0,0,0,0,0h0s0,0,0,0h0s0,0,0,0h-2.7s0,0,0,0h0s0,0,0,0h0s-.3,0-.3,0h0s0,0,0,0h0s0,0,0,0h0s0,0,0,0h0s0,0,0,0h0s0,0,0,0l-.2-.2h0s0,0,0,0h0s0,0,0,0h0s0,0,0,0h0s0,0,0,0h0s-.2-.3-.2-.3h0s0,0,0,0h0c0,0,0,0,0,0h0s0,0,0,0h0c0,0,0-.1,0-.1h0c0,0,0,0,0,0v-.3c0,0,0,0,0,0h0c0,0,0-.1,0-.1h0c0,0,0,0,0,0v-1.4ZM160.9,53.7h0c0,0,0-.1,0-.1h0c0,0,0-.1,0-.1h0c0,0,0-.1,0-.1h0s0,0,0,0h0s0,0,0,0h0s0,0,0,0h0s0,0,0,0h0s0,0,0,0h0s0,0,0,0h0s0,0,0,0h0s0,0,0,0h0s0,0,0,0h0s0,0,0,0h0c0,0,0,.1,0,.1h0c0,0,0,.1,0,.1h0c0,0,0,.1,0,.1v2.7h0c0,0,0,.1,0,.1h0c0,0,0,.1,0,.1h0c0,0,0,.1,0,.1h0s0,0,0,0h0s0,0,0,0h0s0,0,0,0h0s0,0,0,0h0s0,0,0,0h0s0,0,0,0h0s0,0,0,0h0s0,0,0,0h0s0,0,0,0h0s0,0,0,0h0c0,0,0-.1,0-.1h0c0,0,0-.1,0-.1h0c0,0,0-.1,0-.1v-2.7ZM160.9,59.4h0c0,0,0-.1,0-.1h0c0,0,0-.1,0-.1h0c0,0,0-.1,0-.1h0s0,0,0,0h0s0,0,0,0h0s0,0,0,0h0s0,0,0,0h0s0,0,0,0h0s0,0,0,0h0s0,0,0,0h0s0,0,0,0h0s0,0,0,0h0s0,0,0,0h0c0,0,0,.1,0,.1h0c0,0,0,.1,0,.1h0c0,0,0,.1,0,.1v2.7h0c0,0,0,.1,0,.1h0c0,0,0,.1,0,.1h0c0,0,0,.1,0,.1h0s0,0,0,0h0s0,0,0,0h0s0,0,0,0h0s0,0,0,0h0s0,0,0,0h0s0,0,0,0h0s0,0,0,0h0s0,0,0,0h0s0,0,0,0h0s0,0,0,0h0c0,0,0-.1,0-.1h0c0,0,0-.1,0-.1h0c0,0,0-.1,0-.1v-2.7ZM110.4,79.4h0s0,0,0,0h0s0,0,0,0h0s0,0,0,0h0s0,0,0,0h0s0,.1,0,.1h0c0,0,0,.1,0,.1h0c0,0,0,.1,0,.1h0c0,0,0,.1,0,.1h0c0,0,0,.1,0,.1h0c0,0,0,.1,0,.1h0c0,0,0,.1,0,.1h0s0,0,0,0h0s0,0,0,0h0s0,0,0,0h0s0,0,0,0h0s-.5,0-.5,0h0s0,0,0,0h0s0,0,0,0h0s0,0,0,0h0s0,0,0,0h0s0,0,0,0h0s0,0,0,0h0s0,0,0,0h0s0,0,0,0h0s0,0,0,0h0s0,0,0,0h0c0,0,0-.1,0-.1h0c0,0,0-.1,0-.1h0c0,0,0-.1,0-.1h0c0,0,0-.1,0-.1h0c0,0,0-.1,0-.1h0c0,0,0-.1,0-.1h0s0-1.2,0-1.2h0c0,0,0,0,0,0h0c0,0,0,0,0,0h0c0,0,0,0,0,0h0c0,0,0,0,0,0h0c0,0,0-.1,0-.1h0c0,0,0,0,0,0h0c0,0,0-.1,0-.1h0c0,0,0,0,0,0h0c0,0,0,0,0,0h0c0,0,0,0,0,0h0c0,0,0-.1,0-.1h0c0,0,0-.1,0-.1h0c0,0,0,0,0,0h0s0,0,0,0h0s0,0,0,0h0s0,0,0,0h0s0,0,0,0h.1s0,0,0,0h0s0,0,0,0h0s0,0,0,0h0s0,0,0,0h0s0,0,0,0h0c0,0,0,.1,0,.1h0c0,0,0,.1,0,.1h0c0,.1,0,.2,0,.2h0c0,0,0,.1,0,.1h0s0,0,0,0h0s0,0,0,0h0s0,0,0,0h0s0,0,0,0h0s0,0,0,0h0s0,0,0,0h0s0,0,0,0h0c0,0,0,.1,0,.1v1.3h0s0,0,0,0h.5ZM108.6,59.4h0c0,0,0-.1,0-.1h0c0,0,0-.1,0-.1h0c0,0,0-.1,0-.1h0s0,0,0,0h0s0,0,0,0h0s0,0,0,0h0s0,0,0,0h0s0,0,0,0h0s0,0,0,0h0s0,0,0,0h0s0,0,0,0h0s0,0,0,0h0s0,0,0,0h0c0,0,0,.1,0,.1h0c0,0,0,.1,0,.1h0c0,0,0,.1,0,.1v2.7h0c0,0,0,.1,0,.1h0c0,0,0,.1,0,.1h0c0,0,0,.1,0,.1h0s0,0,0,0h0s0,0,0,0h0s0,0,0,0h0s0,0,0,0h0s0,0,0,0h0s0,0,0,0h0s0,0,0,0h0s0,0,0,0h0s0,0,0,0h0s0,0,0,0h0c0,0,0-.1,0-.1h0c0,0,0-.1,0-.1h0c0,0,0-.1,0-.1v-2.7ZM108.6,65h0c0,0,0-.1,0-.1h0c0,0,0-.1,0-.1h0c0,0,0-.1,0-.1h0s0,0,0,0h0s0,0,0,0h0s0,0,0,0h0s0,0,0,0h0s0,0,0,0h0s0,0,0,0h0s0,0,0,0h0s0,0,0,0h0s0,0,0,0h0s0,0,0,0h0c0,0,0,.1,0,.1h0c0,0,0,.1,0,.1h0c0,0,0,.1,0,.1v2.7h0c0,0,0,.1,0,.1h0c0,0,0,.1,0,.1h0c0,0,0,.1,0,.1h0s0,0,0,0h0s0,0,0,0h0s0,0,0,0h0s0,0,0,0h0s0,0,0,0h0s0,0,0,0h0s0,0,0,0h0s0,0,0,0h0s0,0,0,0h0s0,0,0,0h0c0,0,0-.1,0-.1h0c0,0,0-.1,0-.1h0c0,0,0-.1,0-.1v-2.7ZM101.2,93.9v-3.2h0s0,0,0,0h0c0,0,0-.1,0-.1h0c0,0,0-.1,0-.1h0c0,0,0-.1,0-.1h0c0,0,0-.1,0-.1h0c0,0,0-.1,0-.1h0c0,0,0,0,0,0h0s0,0,0,0h0s0,0,0,0h0s0,0,0,0h0s0,0,0,0h0s0,0,0,0h0s0,0,0,0h0s0,0,0,0h0s0,0,0,0h0s0,0,0,0h0s0,0,0,0h0s1.2,0,1.2,0v-.6h0v-14h0s0,0,0,0h0s0,0,0,0h0s0,0,0,0h0s0,0,0,0h0s0,0,0,0h0s0,0,0,0h0s0,0,0,0h0s0,0,0,0h0s0,0,0,0h0s0,0,0,0h0s0,0,0,0h0s0,0,0,0h0s0,0,0,0h0s0,0,0,0h0s0,0,0,0h0s0,0,0,0h0s0,0,0,0h0s2.9-2.9,2.9-2.9h0s0,0,0,0h0s0,0,0,0h0s0,0,0,0h0s0,0,0,0h0s0,0,0,0h0s0,0,0,0h0s0,0,0,0h0s0,0,0,0h0s0,0,0,0h0s0,0,0,0h0s0,0,0,0h0s0,0,0,0h0s0,0,0,0h0s0,0,0,0h0s0,0,0,0h0s0,0,0,0h0s0,0,0,0h0s.8,0,.8,0h0s0,0,0,0h0s0,0,0,0h0s0,0,0,0h0s0,0,0,0h0s0,0,0,0h0c0,0,0,.1,0,.1h0c0,0,0,.1,0,.1h0c0,0,0,.1,0,.1h0c0,0,0,.1,0,.1h0c0,0,0,.1,0,.1h0c0,0,0,.1,0,.1h0s0,0,0,0h0s0,0,0,0h0s0,0,0,0h0s0,0,0,0h0s0,0,0,0h-.8s0,0,0,0h0s0,0,0,0h0s0,0,0,0h0s0,0,0,0h0s0,0,0,0h0s0,0,0,0h0s0,0,0,0h0s0,0,0,0h0s-2.9,2.9-2.9,2.9h0s0,0,0,0h0s0,0,0,0h0s0,0,0,0h0s0,0,0,0h0s0,0,0,0h0s0,0,0,0h0s0,0,0,0h0s0,0,0,0h0v14h0v1.2h0c0,0,0,.1,0,.1h0c0,0,0,.1,0,.1h0c0,0,0,.1,0,.1h0s0,0,0,0h0s0,0,0,0h0s0,0,0,0h0s0,0,0,0h0s0,0,0,0h-1.8s0,0,0,0v4.4h0s0,0,0,0h6.2s0,0,0,0v-1.1h0v-3.2h0s0,0,0,0h-1.8s0,0,0,0h0s0,0,0,0h0s0,0,0,0h0s0,0,0,0h0s0,0,0,0h0c0,0,0-.1,0-.1h0c0,0,0-.1,0-.1h0c0,0,0-.1,0-.1v-2.3h0v-12.4h0c0,0,0-.1,0-.1h0c0,0,0-.1,0-.1h0c0,0,0-.1,0-.1h0s0,0,0,0l2.1-2.1h0s0,0,0,0h0s0,0,0,0h0s0,0,0,0h0s0,0,0,0h.3s0,0,0,0h0s0,0,0,0h0s0,0,0,0h0s0,0,0,0h0s0,0,0,0h0c0,0,0,.1,0,.1h0c0,0,0,.1,0,.1h0c0,0,0,.1,0,.1v.4h0s0,0,0,0h0s0,0,0,0h0s0,0,0,0h0s0,0,0,0h0c0,0,0,.1,0,.1h0c0,0,0,.1,0,.1h0c0,0,0,.1,0,.1h0c0,0,0,.1,0,.1h0c0,0,0,.1,0,.1h0c0,0,0,.1,0,.1h0c0,0,0,0,0,0h0s0,0,0,0h0s0,0,0,0h0s0,0,0,0h0s0,0,0,0h-.1s0,0,0,0h0s0,0,0,0h0s0,0,0,0h0s0,0,0,0h0s0,0,0,0h0s0,0,0,0h0s0,0,0,0h0s0,0,0,0h0s-1.3,1.3-1.3,1.3v12.1h0v1.7h1.2s0,0,0,0h0s0,0,0,0h0s0,0,0,0h0s0,0,0,0h0s0,0,0,0h0s0,0,0,0h0s0,0,0,0h0s0,0,0,0h0s0,0,0,0h0s0,0,0,0h0c0,0,0,.1,0,.1h0c0,0,0,.1,0,.1h0c0,0,0,.1,0,.1h0c0,0,0,.1,0,.1h0c0,0,0,.1,0,.1h0c0,0,0,.1,0,.1h0v3.3h0v1.2h0s0,0,0,0h0c0,0,0,.1,0,.1h0c0,0,0,.1,0,.1h0c0,0,0,.1,0,.1h0c0,0,0,.1,0,.1h0c0,0,0,.1,0,.1h0c0,0,0,.1,0,.1h0s0,0,0,0h0s0,0,0,0h0s0,0,0,0h0s0,0,0,0h0s0,0,0,0h0s0,0,0,0h0s0,0,0,0h0s0,0,0,0h0s0,0,0,0h0s-1.3,0-1.3,0h-5s0,0,0,0h0s0,0,0,0h0s0,0,0,0h0s0,0,0,0h0s0,0,0,0h0s0,0,0,0h0s0,0,0,0h0s0,0,0,0h0s0,0,0,0h0s0,0,0,0h0c0,0,0-.1,0-.1h0c0,0,0-.1,0-.1h0c0,0,0-.1,0-.1h0c0,0,0-.1,0-.1h0c0,0,0-.1,0-.1h0c0,0,0-.1,0-.1h0v-1.2ZM89.4,84.7h0c0,0,0-.1,0-.1h0c0,0,0-.1,0-.1h0c0,0,0,0,0,0h0c0,0,0,0,0,0h0c0,0,0,0,0,0h0c0,0,0-.1,0-.1h0c0,0,0-.1,0-.1h0c0,0,0-.1,0-.1h0c0,0,0-.1,0-.1h0c0,0,0-.1,0-.1h0c0,0,0-.1,0-.1h0c0,0,0-.1,0-.1h0s0,0,0,0h0s0,0,0,0h0s0,0,0,0h0s0,0,0,0h0s0,0,0,0h0s0,0,0,0h0s0,0,0,0h0s0,0,0,0h0s0,0,0,0h0s0,0,0,0h0c0,0,0,.1,0,.1h0c0,0,0,.1,0,.1h0c0,0,0,.1,0,.1h0s0,0,0,0h0c0,.1,0,.1,0,.1h0c0,0,0,0,0,0h0c0,.1,0,.1,0,.1h0c0,0,0,0,0,0h0c0,.1,0,.1,0,.1h0c0,0,0,0,0,0h0c0,0,1.1,1.2,1.1,1.2h0s0,0,0,0h0s0,0,0,0h0s0,0,0,0h0s0,.1,0,.1h0s0,0,0,0h0s0,.1,0,.1h0s0,0,0,0h0s0,.1,0,.1h0s0,0,0,0h0s0,.1,0,.1h0s0,0,0,0h0s0,.1,0,.1h0s0,0,0,0h0s0,.1,0,.1h0s0,0,0,0h0s0,.1,0,.1h0s0,0,0,0h0v12.5h0s0,0,0,0h0s0,.1,0,.1h0s0,0,0,0h0s0,.1,0,.1h0s0,0,0,0h0s0,.1,0,.1h0s0,0,0,0h0s0,.1,0,.1h0s0,0,0,0h0s0,.1,0,.1h0s0,0,0,0h0s0,.1,0,.1h0s0,0,0,0h0s0,.1,0,.1h0s0,0,0,0h0s0,.1,0,.1h0s0,0,0,0h0s-.5.6-.5.6l-.4.4v2.5h0c0,0,3.7,0,3.7,0h.1c0,0,0,0,0,0h0s0,0,0,0h0s0,0,0,0h0s0,0,0,0h0s0,0,0,0h.3c0,0,0,0,0,0h0s0,0,0,0h0s0,0,0,0h2.7s0,0,0,0h0s0,0,0,0h0s.3,0,.3,0h0s0,0,0,0h0s0,0,0,0h0s0,0,0,0h0s0,0,0,0h0s.2.1.2.1h0s0,0,0,0h.1s0,0,0,0h0s0,0,0,0h0s0,0,0,0h0s0,0,0,0h0s0,0,0,0h0s0,0,0,0h0c0,0,0,0,0,0h0s0,0,0,0h0c0,0,0,0,0,0h0s0,0,0,0h0c0,0,0,0,0,0h0s0,0,0,0l2.3,2.3h0s0,0,0,0h0s0,0,0,0h0s0,0,0,0h0s0,.1,0,.1h0s0,0,0,0h0s0,.1,0,.1h0s0,0,0,0h0s0,.1,0,.1h0s0,0,0,0h0s0,.1,0,.1h0s0,0,0,0h0s0,.1,0,.1h0s0,0,0,0h0s0,0,0,0h0s3.1,0,3.1,0h0s0,0,0,0h0s0,0,0,0h0s0,0,0,0h0s0,0,0,0h0s0,0,0,0h0s0,0,0,0h0s0,0,0,0h0s0,0,0,0h0s0,0,0,0h0s0,0,0,0h0s0,.1,0,.1h0c0,0,0,.1,0,.1h0c0,0,0,.1,0,.1h0c0,0,0,.1,0,.1h0c0,0,0,.1,0,.1h0c0,0,0,.1,0,.1h0c0,0,0,0,0,0v5.4h0s0,0,0,0h0c0,0,0,.1,0,.1h0c0,0,0,.1,0,.1h0c0,0,0,.1,0,.1h0c0,0,0,.1,0,.1h0c0,0,0,.1,0,.1h0c0,0,0,.1,0,.1h0s0,0,0,0h0s0,0,0,0h0s0,0,0,0h0s0,0,0,0h0s0,0,0,0h0s0,0,0,0h0s0,0,0,0h0s0,0,0,0h0s0,0,0,0h0s-3.1,0-3.1,0h0c0,0,4.4,4.5,4.4,4.5h28.9,0s0,0,0,0h0s0,0,0,0h0s0,0,0,0h0s0,0,0,0h0c0,0,0-.1,0-.1h0c0,0,0-.1,0-.1h0c0,0,0-.1,0-.1h0c0,0,0-.1,0-.1h0c0,0,0-.1,0-.1h0c0,0,0-.1,0-.1h0v-4.6h0s0,0,0,0h0c0,0,0-.1,0-.1h0c0,0,0-.1,0-.1h0c0,0,0-.1,0-.1h0c0,0,0-.1,0-.1h0c0,0,0-.1,0-.1h0c0,0,0-.1,0-.1h0s0,0,0,0h0s0,0,0,0h0s0,0,0,0h0s0,0,0,0h0s0,0,0,0h0s0,0,0,0h0s0,0,0,0h0s0,0,0,0h0s0,0,0,0h0s1.7,0,1.7,0h0s0,0,0,0h0s0,0,0,0h0s0,0,0,0h0s0,0,0,0h0s0,0,0,0h0s0,0,0,0h0s0,0,0,0h0s0,0,0,0h0s0,0,0,0h0s0,0,0,0h0s0,0,0,0h0s0,0,0,0h0s0,0,0,0h0s0,0,0,0h0s0,0,0,0h0s0,0,0,0h0s0,0,0,0h0s0,0,0,0h0s0,0,0,0h0s0,0,0,0h1.7s0,0,0,0h0s0,0,0,0h0s0,0,0,0h0s0,0,0,0h0s0,0,0,0h0s0,0,0,0h0s0,0,0,0h0s0,0,0,0h0s0,0,0,0h0s0,0,0,0h0s0,0,0,0h0s0,0,0,0h0s0,0,0,0h0s0,0,0,0h0s0,0,0,0h0s0,0,0,0h0s0,0,0,0h0s0,0,0,0h0s0,0,0,0h0s.6,0,.6,0h1.1s0,0,0,0h0s0,0,0,0h0s0,0,0,0h0s0,0,0,0h0s0,0,0,0h0s0,0,0,0h0s0,0,0,0h0s0,0,0,0h0s0,0,0,0h0s0,0,0,0h0s0,0,0,0h0s0,0,0,0h0s0,0,0,0h0s0,0,0,0h0s0,0,0,0h0s0,0,0,0h0s0,0,0,0h0s0,0,0,0h0s0,0,0,0h0s1.7,0,1.7,0h0s0,0,0,0h0s0,0,0,0h0s0,0,0,0h0s0,0,0,0v-8.4h0s0,0,0,0h0s0,0,0,0h0s0,0,0,0h0s0,0,0,0h-1.7s0,0,0,0h0s0,0,0,0h0s0,0,0,0h0s0,0,0,0h0s0,0,0,0h0s0,0,0,0h0s0,0,0,0h0s0,0,0,0h0s0,0,0,0h0s0,0,0,0h0s0,0,0,0h0s0,0,0,0h0s0,0,0,0h0s0,0,0,0h0s0,0,0,0h0s0,0,0,0h0s0,0,0,0h0s0,0,0,0h0s0,0,0,0h-1.7s0,0,0,0h0s0,0,0,0h0s0,0,0,0h0s0,0,0,0h0s0,0,0,0h0s0,0,0,0h0s0,0,0,0h0s0,0,0,0h0s0,0,0,0h0s0,0,0,0h0s0,0,0,0h0s0,0,0,0h0s0,0,0,0h0s0,0,0,0h0s0,0,0,0h0s0,0,0,0h0s0,0,0,0h0s0,0,0,0h0s0,0,0,0h-1.7s0,0,0,0h0s0,0,0,0h0s0,0,0,0h0s0,0,0,0h0s0,0,0,0h0s0,0,0,0h0s0,0,0,0h0s0,0,0,0h0s0,0,0,0h0s0,0,0,0h0s0,0,0,0h0s0,0,0,0h0s0,0,0,0h0s0,0,0,0h0s0,0,0,0h0s0,0,0,0h0s0,0,0,0h0s0,0,0,0h0s0,0,0,0h0s0,0,0,0h-1.7s0,0,0,0h0s0,0,0,0h0s0,0,0,0h0s0,0,0,0h0s0,0,0,0h0s0,0,0,0h0s0,0,0,0h0s0,0,0,0h0s0,0,0,0h0s0,0,0,0h0c0,0,0-.1,0-.1h0c0,0,0-.1,0-.1h0c0,0,0-.1,0-.1h0c0,0,0-.1,0-.1h0c0,0,0-.1,0-.1h0c0,0,0-.1,0-.1h0v-.3h-3l-.2.2h0s0,0,0,0h0s0,0,0,0h0s0,0,0,0h0s.2.2.2.2h0s0,0,0,0h0s0,0,0,0h0s0,0,0,0h0s0,0,0,0h0s.2.3.2.3h0s0,0,0,0h0c0,0,0,.1,0,.1h0c0,0,0,.1,0,.1h0c0,0,0,.1,0,.1h0s0,.3,0,.3h0s0,0,0,0h0c0,0,0,.1,0,.1h0v1.4h0s0,0,0,0h0c0,0,0,.1,0,.1h0s0,.3,0,.3h0s0,0,0,0h0c0,0,0,.1,0,.1h0c0,0,0,.1,0,.1h0c0,0,0,.1,0,.1h0s-.2.3-.2.3h0s0,0,0,0h0s0,0,0,0h0s0,0,0,0h0s0,0,0,0h0s-.2.2-.2.2h0s0,0,0,0h0s0,0,0,0h0s0,0,0,0h0s0,0,0,0h0s-.3,0-.3,0h0s0,0,0,0h0s0,0,0,0h0s-.3,0-.3,0h-2.4s0,0,0,0h0s0,0,0,0h0s-.3,0-.3,0h0s0,0,0,0h0s0,0,0,0h0s0,0,0,0h0s0,0,0,0h0s-.2-.2-.2-.2h0s0,0,0,0h0s0,0,0,0h0s0,0,0,0h0s0,0,0,0h0s-.2-.3-.2-.3h0s0,0,0,0h0c0,0,0-.1,0-.1h0c0,0,0-.1,0-.1h0c0,0,0-.1,0-.1h0s0-.3,0-.3h0s0,0,0,0h0c0,0,0-.1,0-.1h0v-1.4h0s0,0,0,0h0c0,0,0-.1,0-.1h0s0-.3,0-.3h0s0,0,0,0h0c0,0,0-.1,0-.1h0c0,0,0-.1,0-.1h0c0,0,0-.1,0-.1h0s.2-.3.2-.3h0s0,0,0,0h0s0,0,0,0h0s0,0,0,0h0s0,0,0,0h0s.2-.2.2-.2h0s0,0,0,0h0s0,0,0,0h0s0,0,0,0h0v-.8h0s0,0,0,0h0s0,0,0,0h0s0,0,0,0h0s0,0,0,0h0s0,0,0,0h0s0,0,0,0h0s0,0,0,0h0s0,0,0,0h0s0,0,0,0h0s0,0,0,0h0s0,0,0,0h0s0,0,0,0h0s0,0,0,0h0s0,0,0,0h0s0,0,0,0h0s0,0,0,0h0s0,0,0,0h0s.7-.7.7-.7l.7-.7h0s0,0,0,0h0s0,0,0,0h0s0,0,0,0h0s0,0,0,0h0s0,0,0,0h0s0,0,0,0h0s0,0,0,0h0s0,0,0,0h0s0,0,0,0h0s0,0,0,0h0s0,0,0,0h0s0,0,0,0h0s0,0,0,0h0s0,0,0,0h0s0,0,0,0h0s0,0,0,0h0s0,0,0,0h0s0,0,0,0h0s2.6,0,2.6,0h1.2v-.3h0s0,0,0,0h-8.4l-2.1,2.1-1.9,1.9h0c0,0,0,0,0,0h0s0,0,0,0h0s0,0,0,0h0s0,0,0,0h0s0,0,0,0h0s0,0,0,0h0s0,0,0,0h0s0,0,0,0h0s0,0,0,0h0s0,0,0,0h0s0,0,0,0h0s0,0,0,0h0s0,0,0,0h0s0,0,0,0h0s0,0,0,0h0s0,0,0,0h0s0,0,0,0h0s0,0,0,0h0s-1.1,0-1.1,0v1.3h0s0,0,0,0h0c0,0,0,.1,0,.1h0c0,0,0,.1,0,.1h0c0,0,0,.1,0,.1h0c0,0,0,.1,0,.1h0c0,0,0,.1,0,.1h0c0,0,0,.1,0,.1h0s0,0,0,0h0s0,0,0,0h0s0,0,0,0h0s0,0,0,0h0s0,0,0,0h0s0,0,0,0h0s0,0,0,0h0s0,0,0,0h0s0,0,0,0h0s-1.1,0-1.1,0h-1s0,0,0,0h0s0,0,0,0h0s0,0,0,0h0s0,0,0,0h0s0,0,0,0h0s0,0,0,0h0s0,0,0,0h0s0,0,0,0h0s0,0,0,0h0s0,0,0,0h0c0,0,0-.1,0-.1h0c0,0,0,0,0,0h0s0,0,0,0h0c0,0,0,.1,0,.1h0s0,0,0,0h0s0,0,0,0h0s0,0,0,0h0s0,0,0,0h0s0,0,0,0h0s0,0,0,0h0s0,0,0,0h0s0,0,0,0h0s0,0,0,0h0s0,0,0,0h-2s0,0,0,0h0s0,0,0,0h0s0,0,0,0h0s0,0,0,0h0s0,0,0,0h0s0,0,0,0h0s0,0,0,0h0s0,0,0,0h0s0,0,0,0h0s0,0,0,0h0c0,0,0-.1,0-.1h0c0,0,0,0,0,0h0s0,0,0,0h0c0,0,0,.1,0,.1h0s0,0,0,0h0s0,0,0,0h0s0,0,0,0h0s0,0,0,0h0s0,0,0,0h0s0,0,0,0h0s0,0,0,0h0s0,0,0,0h0s0,0,0,0h0s0,0,0,0h-2s0,0,0,0h0s0,0,0,0h0s0,0,0,0h0s0,0,0,0h0s0,0,0,0h0s0,0,0,0h0s0,0,0,0h0s0,0,0,0h0s0,0,0,0h0s0,0,0,0h0c0,0,0-.1,0-.1h0c0,0,0-.1,0-.1h0c0,0,0-.1,0-.1h0c0,0,0-.1,0-.1h0c0,0,0-.1,0-.1h0c0,0,0-.1,0-.1h0v-6.6h0s0,0,0,0h0c0,0,0-.1,0-.1h0c0,0,0-.1,0-.1h0c0,0,0-.1,0-.1h0c0,0,0-.1,0-.1h0c0,0,0-.1,0-.1h0c0,0,0-.1,0-.1h0s0,0,0,0h0s0,0,0,0h0s0,0,0,0h0s0,0,0,0h0s0,0,0,0h0s0,0,0,0h0s0,0,0,0h0s0,0,0,0h0s0,0,0,0h0s0,0,0,0h0s0,0,0,0h0s0,0,0,0h0s0,0,0,0h0s.2-.2.2-.2h0s2.2-2.3,2.2-2.3h0s1-1.1,1-1.1h0s0,0,0,0h0s0,0,0,0h0s0,0,0,0h0s0,0,0,0h0s0,0,0,0h0s0,0,0,0h0s0,0,0,0h0s0,0,0,0h0s0,0,0,0h0s0,0,0,0h0s0,0,0,0h0s0,0,0,0h0s0,0,0,0h0s0,0,0,0h0s0,0,0,0h0s0,0,0,0h0s0,0,0,0h0s18.2,0,18.2,0h19.3l15.4-15.4v-8.9h0s0,0,0,0h0s0,0,0,0h0s0,0,0,0h0s0,0,0,0h0s-.2-.2-.2-.2h0s0,0,0,0h0s0,0,0,0h0s0,0,0,0h0s0,0,0,0h0s-.2-.3-.2-.3h0s0,0,0,0h0c0,0,0-.1,0-.1h0c0,0,0-.1,0-.1h0c0,0,0-.1,0-.1h0s0-.3,0-.3h0s0,0,0,0h0c0,0,0-.1,0-.1h0v-1.4h0s0,0,0,0h0c0,0,0-.1,0-.1h0s0-.3,0-.3h0s0,0,0,0h0c0,0,0-.1,0-.1h0c0,0,0-.1,0-.1h0c0,0,0-.1,0-.1h0s.2-.3.2-.3h0s0,0,0,0h0s0,0,0,0h0s0,0,0,0h0s0,0,0,0h0s.2-.2.2-.2h0s0,0,0,0h0s0,0,0,0h0s0,0,0,0h0s0,0,0,0h0s.3,0,.3,0h0s0,0,0,0h0s0,0,0,0h0s0,0,0,0h2.7s0,0,0,0h0s0,0,0,0h0s.3,0,.3,0h0s0,0,0,0h0s0,0,0,0h0s0,0,0,0h0s0,0,0,0h0s0,0,0,0l.2.2h0s0,0,0,0h0s0,0,0,0h0s0,0,0,0h0s0,0,0,0h0s.2.3.2.3h0s0,0,0,0h0c0,0,0,.1,0,.1h0c0,0,0,.1,0,.1h0c0,0,0,.1,0,.1h0s0,.3,0,.3h0s0,0,0,0h0c0,0,0,.1,0,.1h0v1.4h0s0,0,0,0h0c0,0,0,.1,0,.1h0s0,.3,0,.3h0s0,0,0,0h0c0,0,0,.1,0,.1h0c0,0,0,.1,0,.1h0c0,0,0,.1,0,.1h0s-.2.3-.2.3h0s0,0,0,0h0s0,0,0,0h0s0,0,0,0h0s0,0,0,0h0s-.2.2-.2.2h0s0,0,0,0h0s0,0,0,0h0s0,0,0,0h0s0,0,0,0v8.8l2.1-2.1,4.2-4.2h0s0,0,0,0h0s0,0,0,0h0s0,0,0,0h0s0,0,0,0h0s0,0,0,0h0s0,0,0,0h0s0,0,0,0h0s0,0,0,0h0s0,0,0,0h0c0,0,0,.1,0,.1h0c0,0,0,.1,0,.1h0c0,0,0,.1,0,.1h0c0,0,0,.1,0,.1h0c0,0,0,.1,0,.1h0c0,0,0,.1,0,.1h0s0,0,0,0l-4.2,4.2-2.6,2.6h0s-.7.7-.7.7h0s0,0,0,0h0s0,0,0,0h0s0,0,0,0h0s0,0,0,0h0s-1.7,1.8-1.7,1.8l-14.8,14.8h0s0,0,0,0h0s0,0,0,0h0s0,0,0,0h0s0,0,0,0h0s-1.6,1.6-1.6,1.6h0s0,0,0,0h0s0,0,0,0h0s0,0,0,0h0s0,0,0,0h0s0,0,0,0h0s0,.1,0,.1h0s0,.1,0,.1h0s0,.1,0,.1h0v1.3h0c0,0,0,.1,0,.1h0c0,0,0,.1,0,.1h0c0,0,0,.1,0,.1h0s0,0,0,0h0s0,0,0,0h0s0,0,0,0h0s0,0,0,0h0s0,0,0,0h-.5s0,0,0,0h0s0,0,0,0h0s0,0,0,0h0s0,0,0,0h0s0,0,0,0h0c0,0,0-.1,0-.1h0c0,0,0-.1,0-.1h0c0,0,0-.1,0-.1v-.5h0s0,0,0,0h-1.7s0,0,0,0v.5h0c0,0,0,.1,0,.1h0c0,0,0,.1,0,.1h0c0,0,0,.1,0,.1h0s0,0,0,0h0s0,0,0,0h0s0,0,0,0h0s0,0,0,0h0s0,0,0,0h-.7s0,0,0,0h0s0,0,0,0h0s0,0,0,0h0s0,0,0,0h0s0,0,0,0h0c0,0,0-.1,0-.1h0c0,0,0-.1,0-.1h0c0,0,0-.1,0-.1v-.5h0s0,0,0,0h-1.7s0,0,0,0v1.4h0c0,0,0,.1,0,.1h0c0,0,0,.1,0,.1h0c0,0,0,0,0,0h0s0,0,0,0h0s0,0,0,0h0s0,.1,0,.1h0s0,.1,0,.1h0s0,.1,0,.1h0s0,.1,0,.1h0s0,.1,0,.1h0s0,.1,0,.1h0s0,.1,0,.1h0s0,0,0,0h0s0,0,0,0h0c0,0,0,.1,0,.1h0c0,0,0,.1,0,.1h0v1.5h0s0,0,0,0h1.7s0,0,0,0v-.5h0c0,0,0-.1,0-.1h0c0,0,0-.1,0-.1h0c0,0,0-.1,0-.1h0s0,0,0,0h0s0,0,0,0h0s0,0,0,0h0s0,0,0,0h0s0,0,0,0h.7s0,0,0,0h0s0,0,0,0h0s0,0,0,0h0s0,0,0,0h0s0,0,0,0h0c0,0,0,.1,0,.1h0c0,0,0,.1,0,.1h0c0,0,0,.1,0,.1v.5h0s0,0,0,0h1.7s0,0,0,0v-.5h0c0,0,0-.1,0-.1h0c0,0,0-.1,0-.1h0c0,0,0-.1,0-.1h0s0,0,0,0h0s0,0,0,0h0s0,0,0,0h0s0,0,0,0h0s0,0,0,0h.5s0,0,0,0h0s0,0,0,0h0s0,0,0,0h0s0,0,0,0h0s0,0,0,0h0c0,0,0,.1,0,.1h0c0,0,0,.1,0,.1h0c0,0,0,.1,0,.1v11.9h0c0,0,0,.1,0,.1h0c0,0,0,.1,0,.1h0c0,0,0,.1,0,.1h0s0,0,0,0h0s0,0,0,0h0s0,0,0,0h0s0,0,0,0h0s0,0,0,0h-.5s0,0,0,0h0s0,0,0,0h0s0,0,0,0h0s0,0,0,0h0s0,0,0,0h0c0,0,0-.1,0-.1h0c0,0,0-.1,0-.1h0c0,0,0-.1,0-.1v-.5h0s0,0,0,0h-1.7s0,0,0,0v1.4h0c0,0,0,.1,0,.1h0c0,0,0,.1,0,.1h0c0,0,0,0,0,0h0s0,0,0,0h0s0,0,0,0h0s0,.1,0,.1h0s0,.1,0,.1h0s0,.1,0,.1h0s0,.1,0,.1h0s0,.1,0,.1h0s0,.1,0,.1h0s0,.1,0,.1h0s0,0,0,0h0s0,0,0,0h0c0,0,0,.1,0,.1h0c0,0,0,.1,0,.1h0v1.5h0s0,0,0,0h1.7s0,0,0,0v-.5h0c0,0,0-.1,0-.1h0c0,0,0-.1,0-.1h0c0,0,0-.1,0-.1h0s0,0,0,0h0s0,0,0,0h0s0,0,0,0h0s0,0,0,0h0s0,0,0,0h.5s0,0,0,0h0s0,0,0,0h0s0,0,0,0h0s0,0,0,0h0s0,0,0,0h0c0,0,0,.1,0,.1h0c0,0,0,.1,0,.1h0c0,0,0,.1,0,.1v1.2h0c0,0,0,.1,0,.1h0c0,0,0,.1,0,.1h0c0,0,0,.1,0,.1h0s0,0,0,0l-1,1h0s0,0,0,0h0s0,0,0,0h0s0,0,0,0h0s0,0,0,0h-42.4s0,0,0,0h0s0,0,0,0h0s0,0,0,0h0s0,0,0,0l-4.8-4.8h0s0,0,0,0h0c0,0,0-.1,0-.1h0c0,0,0-.1,0-.1h0c0,0,0-.1,0-.1v-1.5h0c0,0,0,0,0,0v-5.4h0s0,0,0,0v-.8h0s0,0,0,0h0s0-.1,0-.1h0s0-.1,0-.1h0s0-.1,0-.1h0s0,0,0,0h0s0,0,0,0h0s0,0,0,0h0s0,0,0,0h0s-2.3-2.3-2.3-2.3h0s0,0,0,0h0s0,0,0,0h0s0,0,0,0h0s0,0,0,0h0s0,0,0,0h0s0,0,0,0h0s0,0,0,0h0s0,0,0,0h0s0,0,0,0h0s0,0,0,0h0s-.2-.2-.2-.2h0s0,0,0,0h-.2s0,0,0,0h0s-.1,0-.1,0h-2.6s0,0,0,0h-.2s0,0,0,0h0s-.2.1-.2.1h0s0,0,0,0h0s0,0,0,0h0s0,0,0,0h0s0,0,0,0h-4.1s0,0,0,0h0s0,0,0,0h0s0,0,0,0h0s-.2-.2-.2-.2h0s0,0,0,0h0s0,0,0,0h0s0,0,0,0h0s0,0,0,0h0s0,0,0,0h0s0-.1,0-.1h0c0,0,0-.1,0-.1h0c0,0,0-.1,0-.1h0v-3.2h0c0,0,0-.1,0-.1h0c0,0,0-.1,0-.1h0c0,0,0-.1,0-.1h0s0,0,0,0l.6-.6.5-.5h0s0,0,0,0h0s0,0,0,0h0s0,0,0,0h0s0,0,0,0h0s0,0,0,0h0s0-.1,0-.1h0s0-.1,0-.1h0s0-.1,0-.1h0v-12.5h0s0,0,0,0h0s0-.1,0-.1h0s0-.1,0-.1h0s0-.1,0-.1h0s0,0,0,0h0s0,0,0,0h0s0,0,0,0h0s0,0,0,0h0s-1.1-1.1-1.1-1.1l-.3-.3h0s0,0,0,0h0c0,0,0-.1,0-.1h0c0,0,0-.1,0-.1h0c0,0,0-.1,0-.1h0ZM122.1,116v-5.4h0s0,0,0,0h0c0,0,0,0,0,0h0c0,0,0-.1,0-.1h0c0,0,0-.1,0-.1h0c0,0,0-.1,0-.1h0c0,0,0-.1,0-.1h0c0,0,0-.1,0-.1h0s0,0,0,0h0s0,0,0,0h0s0,0,0,0h0s0,0,0,0h0s0,0,0,0h0s0,0,0,0h0s0,0,0,0h0s0,0,0,0h0s0,0,0,0h0s0,0,0,0h3.1s0,0,0,0h0s0,0,0,0h0s0,0,0,0h0s0,0,0,0h0s0,0,0,0h0s0,0,0,0h0s0,0,0,0h0s0,0,0,0h0s0,0,0,0h0s0,0,0,0h0s0,.1,0,.1h0c0,0,0,.1,0,.1h0c0,0,0,.1,0,.1h0c0,0,0,.1,0,.1h0c0,0,0,.1,0,.1h0c0,0,0,.1,0,.1h0c0,0,0,0,0,0v5.4h0s0,0,0,0h0c0,0,0,.1,0,.1h0c0,0,0,.1,0,.1h0c0,0,0,.1,0,.1h0c0,0,0,.1,0,.1h0c0,0,0,.1,0,.1h0c0,0,0,.1,0,.1h0s0,0,0,0h0s0,0,0,0h0s0,0,0,0h0s0,0,0,0h0s0,0,0,0h0s0,0,0,0h0s0,0,0,0h0s0,0,0,0h0s0,0,0,0h0s0,0,0,0h-3.1s0,0,0,0h0s0,0,0,0h0s0,0,0,0h0s0,0,0,0h0s0,0,0,0h0s0,0,0,0h0s0,0,0,0h0s0,0,0,0h0s0,0,0,0h0s0,0,0,0h0c0,0,0-.1,0-.1h0c0,0,0-.1,0-.1h0c0,0,0-.1,0-.1h0c0,0,0-.1,0-.1h0c0,0,0-.1,0-.1h0s0,0,0,0h0c0,0,0,0,0,0ZM128,113.9v-1.4h0s0,0,0,0h0c0,0,0-.1,0-.1h0s0-.3,0-.3h0s0,0,0,0h0c0,0,0-.1,0-.1h0c0,0,0-.1,0-.1h0c0,0,0-.1,0-.1h0s.2-.3.2-.3h0s0,0,0,0h0s0,0,0,0h0s0,0,0,0h0s0,0,0,0h0s.2-.2.2-.2h0s0,0,0,0h0s0,0,0,0h0s0,0,0,0h0s0,0,0,0h0s.3,0,.3,0h0s0,0,0,0h0s0,0,0,0h0s1.4,0,1.4,0h1.3s0,0,0,0h0s0,0,0,0h0s0,0,0,0h.3c0,0,0,0,0,0h0s0,0,0,0h0s0,0,0,0h0s0,0,0,0h0s0,0,0,0l.2.2h0s0,0,0,0h0s0,0,0,0h0s0,0,0,0h0s0,0,0,0h0s.2.3.2.3h0s0,0,0,0h0c0,0,0,.1,0,.1h0c0,0,0,.1,0,.1h0c0,0,0,.1,0,.1h0s0,.3,0,.3h0s0,0,0,0h0c0,0,0,.1,0,.1h0v1.4h0s0,0,0,0h0c0,0,0,.1,0,.1h0s0,.3,0,.3h0s0,0,0,0h0c0,0,0,.1,0,.1h0c0,0,0,.1,0,.1h0c0,0,0,.1,0,.1h0s-.2.3-.2.3h0s0,0,0,0h0s0,0,0,0h0s0,0,0,0h0s0,0,0,0h0s-.2.2-.2.2h0s0,0,0,0h0s0,0,0,0h0s0,0,0,0h0s0,0,0,0h0s-.3,0-.3,0h0s0,0,0,0h0s0,0,0,0h0s-.3,0-.3,0h-2.4s0,0,0,0h0s0,0,0,0h0s-.3,0-.3,0h0s0,0,0,0h0s0,0,0,0h0s0,0,0,0h0s0,0,0,0h0s-.2-.2-.2-.2h0s0,0,0,0h0s0,0,0,0h0s0,0,0,0h0s0,0,0,0h0s-.2-.3-.2-.3h0s0,0,0,0h0c0,0,0-.1,0-.1h0c0,0,0-.1,0-.1h0c0,0,0-.1,0-.1h0s0-.3,0-.3h0s0,0,0,0h0c0,0,0-.1,0-.1h0ZM85,42.5c1.6,0,2.8,1.3,2.8,2.8s-1.3,2.8-2.8,2.8-2.8-1.3-2.8-2.8,1.3-2.8,2.8-2.8ZM80.1,81.9h0c0,0,0-.1,0-.1h0c0,0,0-.1,0-.1h0c0,0,0-.1,0-.1h0s0,0,0,0h0s0,0,0,0h0s0,0,0,0h0s0,0,0,0h0s0,0,0,0h0s0,0,0,0h0s0,0,0,0h0s0,0,0,0h0s.5.5.5.5h0s0,0,0,0h0s0,0,0,0h0s0,0,0,0h0s0,0,0,0h0s0,0,0,0h0s0,0,0,0h2.7s0,0,0,0h0s0,0,0,0h0s0,0,0,0h0s0,0,0,0h0s0,0,0,0h0c0,0,0,.1,0,.1h0c0,0,0,.1,0,.1h0c0,0,0,.1,0,.1h0c0,0,0,.1,0,.1h0s1.4,0,1.4,0h0s0,0,0,0h0s0,0,0,0h0s0,0,0,0h0s0,0,0,0h0s0,0,0,0h0c0,0,0,.1,0,.1h0c0,0,0,.1,0,.1h0c0,0,0,.1,0,.1h0c0,0,0,.1,0,.1h0c0,0,0,.1,0,.1h0c0,0,0,.1,0,.1h0s0,0,0,0h0s0,0,0,0h0s0,0,0,0h0s0,0,0,0h0s0,0,0,0h-5.1s0,0,0,0h0s0,0,0,0h0s0,0,0,0h0s0,0,0,0l-1.1-1.1h0s0,0,0,0h0c0,0,0-.1,0-.1h0c0,0,0-.1,0-.1h0c0,0,0-.1,0-.1h0ZM82.1,115.3h0s0,0,0,0h0s0,0,0,0h-.3c0,0,0,0,0,0h0s0,0,0,0h0s0,0,0,0h-2.7s0,0,0,0h0s0,0,0,0h0s-.3,0-.3,0h0s0,0,0,0h0s0,0,0,0h0s0,0,0,0h0s0,0,0,0h0s-.2-.2-.2-.2h0s0,0,0,0h0s0,0,0,0h0s0,0,0,0h0s0,0,0,0h0s-.2-.3-.2-.3h0s0,0,0,0h0c0,0,0-.1,0-.1h0c0,0,0-.1,0-.1h0c0,0,0-.1,0-.1h0s0-.3,0-.3h0s0,0,0,0h0c0,0,0-.1,0-.1h0v-1.4h0s0,0,0,0h0c0,0,0-.1,0-.1h0s0-.3,0-.3h0s0,0,0,0h0c0,0,0-.1,0-.1h0c0,0,0-.1,0-.1h0c0,0,0-.1,0-.1h0s.2-.3.2-.3h0s0,0,0,0h0s0,0,0,0h0s0,0,0,0h0s0,0,0,0h0s.2-.2.2-.2h0s0,0,0,0h0s0,0,0,0h0s0,0,0,0h0s0,0,0,0h0s.3,0,.3,0h0s0,0,0,0h0s0,0,0,0h0s2.7,0,2.7,0h0s0,0,0,0h0s0,0,0,0h0s.3,0,.3,0h0s0,0,0,0h0s0,0,0,0h0s0,0,0,0h0s0,0,0,0h0s.2.2.2.2h0s0,0,0,0h0s0,0,0,0h0s0,0,0,0h0s0,0,0,0h0s.2.3.2.3h0s0,0,0,0h0c0,0,0,.1,0,.1h0c0,0,0,.1,0,.1h0c0,0,0,.1,0,.1h0s0,.3,0,.3h0s0,0,0,0h0c0,0,0,.1,0,.1h0v1.4h0s0,0,0,0h0c0,0,0,.1,0,.1h0s0,.3,0,.3h0s0,0,0,0h0c0,0,0,.1,0,.1h0c0,0,0,.1,0,.1h0c0,0,0,.1,0,.1h0s-.2.3-.2.3h0s0,0,0,0h0s0,0,0,0h0s0,0,0,0h0s0,0,0,0h0s-.2.2-.2.2h0s0,0,0,0h0s0,0,0,0h0ZM85,124.7c-1.6,0-2.8-1.3-2.8-2.8s1.3-2.8,2.8-2.8,2.8,1.3,2.8,2.8-1.3,2.8-2.8,2.8ZM91.9,113.5h0s0,0,0,0h0c0,0,0,.1,0,.1h0s0,.1,0,.1v.2s0,0,0,0h0c0,0,0,.1,0,.1h0c0,0,0,.1,0,.1h0c0,0,0,.1,0,.1h0c0,0,0,0,0,0l-.2.2h0s0,0,0,0h0s0,0,0,0h0s0,0,0,0h0s0,0,0,0h0s-.2.2-.2.2h0s0,0,0,0h0s0,0,0,0h0s0,0,0,0h0s0,0,0,0h0s-.3,0-.3,0h0s0,0,0,0h0s0,0,0,0h0s-2.7,0-2.7,0h0s0,0,0,0h0s0,0,0,0h0s0,0,0,0h-.3c0,0,0,0,0,0h0s0,0,0,0h0s0,0,0,0h0s0,0,0,0h0s0,0,0,0l-.2-.2h0s0,0,0,0h0s0,0,0,0h0s0,0,0,0h0s0,0,0,0h0s-.2-.3-.2-.3h0s0,0,0,0h0c0,0,0-.1,0-.1h0c0,0,0-.1,0-.1h0c0,0,0-.1,0-.1h0s0-.3,0-.3h0s0,0,0,0h0c0,0,0-.1,0-.1h0v-1.4h0s0,0,0,0h0c0,0,0-.1,0-.1h0s0-.3,0-.3h0s0,0,0,0h0c0,0,0-.1,0-.1h0c0,0,0-.1,0-.1h0c0,0,0-.1,0-.1h0s.2-.3.2-.3h0s0,0,0,0h0s0,0,0,0h0s0,0,0,0h0s0,0,0,0h0s.2-.2.2-.2h0s0,0,0,0h0s0,0,0,0h0s0,0,0,0h0s0,0,0,0h0s.3,0,.3,0h0s0,0,0,0h0s0,0,0,0h0s1,0,1,0h1.7s0,0,0,0h0s0,0,0,0h0s.3,0,.3,0h0s0,0,0,0h0s0,0,0,0h0s0,0,0,0h0s0,0,0,0h0s.2.2.2.2h0s0,0,0,0h0s0,0,0,0h0s0,0,0,0h0s0,0,0,0h0s.2.3.2.3h0s0,0,0,0h0c0,0,0,.1,0,.1h0c0,0,0,.1,0,.1h0c0,0,0,.1,0,.1h0s0,.3,0,.3h0s0,0,0,0h0c0,0,0,.1,0,.1h0v1.4ZM175.6,109.9h0s0,0,0,0h0c0,0,0,.1,0,.1h0c0,0,0,.1,0,.1h0c0,0,0,.1,0,.1h0c0,0,0,.1,0,.1h0c0,0,0,.1,0,.1h0c0,0,0,.1,0,.1h0s0,0,0,0h0s0,0,0,0h0s0,0,0,0h0s0,0,0,0h0s0,0,0,0h0s0,0,0,0h0s0,0,0,0h0s0,0,0,0h0s0,0,0,0h0s-4.8,0-4.8,0h0s0,0,0,0h0s0,0,0,0h0s0,0,0,0h0s0,0,0,0h0s0,0,0,0h0s0,0,0,0h0s0,0,0,0h0s0,0,0,0h0s0,0,0,0h0s0,0,0,0h0c0,0,0-.1,0-.1h0c0,0,0-.1,0-.1h0c0,0,0-.1,0-.1h0c0,0,0-.1,0-.1h0c0,0,0-.1,0-.1h0c0,0,0-.1,0-.1h0v-8.8h0s0,0,0,0h0c0,0,0-.1,0-.1h0c0,0,0-.1,0-.1h0c0,0,0-.1,0-.1h0c0,0,0-.1,0-.1h0c0,0,0-.1,0-.1h0c0,0,0-.1,0-.1h0s0,0,0,0h0s0,0,0,0h0s0,0,0,0h0s0,0,0,0h0s0,0,0,0h0s0,0,0,0h0s0,0,0,0h0s0,0,0,0h0s0,0,0,0h0s4.8,0,4.8,0h0s0,0,0,0h0s0,0,0,0h0s0,0,0,0h0s0,0,0,0h0s0,0,0,0h0s0,0,0,0h0s0,0,0,0h0s0,0,0,0h0s0,0,0,0h0s0,0,0,0h0c0,0,0,.1,0,.1h0c0,0,0,.1,0,.1h0c0,0,0,.1,0,.1h0c0,0,0,.1,0,.1h0c0,0,0,.1,0,.1h0c0,0,0,.1,0,.1h0v8.8ZM187.1,105.4v14.3h0s0,0,0,0h0c0,0,0,.1,0,.1h0c0,0,0,.1,0,.1h0c0,0,0,.1,0,.1h0c0,0,0,.1,0,.1h0c0,0,0,.1,0,.1h0c0,0,0,.1,0,.1h0s0,0,0,0h0s0,0,0,0h0s0,0,0,0h0s0,0,0,0h0s0,0,0,0h0s0,0,0,0h0s0,0,0,0h0s0,0,0,0h0s0,0,0,0h0s-.8,0-.8,0h-2s0,0,0,0h0s0,0,0,0h0s0,0,0,0h0s0,0,0,0h0s0,0,0,0h0s0,0,0,0h0s0,0,0,0h0s0,0,0,0h0s0,0,0,0h0s0,0,0,0h0c0,0,0-.1,0-.1h0c0,0,0-.1,0-.1h0c0,0,0-.1,0-.1h0c0,0,0-.1,0-.1h0c0,0,0-.1,0-.1h0c0,0,0-.1,0-.1h0v-15.7h0s0,0,0,0h0c0,0,0-.1,0-.1h0c0,0,0-.1,0-.1h0c0,0,0-.1,0-.1h0c0,0,0-.1,0-.1h0c0,0,0-.1,0-.1h0c0,0,0-.1,0-.1h0s0,0,0,0h0s0,0,0,0h0s0,0,0,0h0s0,0,0,0h0s0,0,0,0v-3.1l-1.8-1.8v4.8h0s0,0,0,0h0s0,0,0,0h0s0,0,0,0h0s0,0,0,0h0s0,0,0,0h0s0,.1,0,.1h0c0,0,0,.1,0,.1h0c0,0,0,.1,0,.1h0c0,0,0,.1,0,.1h0c0,0,0,.1,0,.1h0c0,0,0,.1,0,.1h0c0,0,0,0,0,0v15.6h0s0,0,0,0h0c0,0,0,.1,0,.1h0c0,0,0,.1,0,.1h0c0,0,0,.1,0,.1h0c0,0,0,.1,0,.1h0c0,0,0,.1,0,.1h0c0,0,0,.1,0,.1h0s0,0,0,0h0s0,0,0,0h0s0,0,0,0h0s0,0,0,0h0s0,0,0,0h0s0,0,0,0h0s0,0,0,0h0s0,0,0,0h0s0,0,0,0h0s-.6,0-.6,0h-2.2s0,0,0,0h0s0,0,0,0h0s0,0,0,0h0s0,0,0,0h0s0,0,0,0h0s0,0,0,0h0s0,0,0,0h0s0,0,0,0h0s0,0,0,0h0s0,0,0,0h0c0,0,0-.1,0-.1h0c0,0,0-.1,0-.1h0c0,0,0-.1,0-.1h0c0,0,0-.1,0-.1h0c0,0,0-.1,0-.1h0c0,0,0-.1,0-.1h0v-15.7h0s0,0,0,0h0c0,0,0-.1,0-.1h0c0,0,0-.1,0-.1h0c0,0,0-.1,0-.1h0c0,0,0-.1,0-.1h0c0,0,0-.1,0-.1h0c0,0,0-.1,0-.1h0s0,0,0,0h0s0,0,0,0h0s0,0,0,0h0s0,0,0,0h0s0,0,0,0v-5l-.9-.9h-8.2l-1.9,1.9v1.3s0,0,0,0h0c0,0,0,.1,0,.1h0c0,0,0,.1,0,.1h0c0,0,0,.1,0,.1h0c0,0,0,.1,0,.1h0c0,0,0,0,0,0v4.5h0s0,0,0,0h0c0,0,0,.1,0,.1h0c0,0,0,.1,0,.1h0c0,0,0,.1,0,.1h0c0,0,0,.1,0,.1h0c0,0,0,.1,0,.1h0c0,0,0,.1,0,.1h0s0,0,0,0h0s0,0,0,0h0s0,0,0,0h0s0,0,0,0h0s0,0,0,0h0s0,0,0,0h0s0,0,0,0h0s0,0,0,0h0s0,0,0,0h0s-1.7,0-1.7,0h0s0,0,0,0h0s0,0,0,0h0s0,0,0,0h0s0,0,0,0h0s0,0,0,0h0s0,0,0,0h0s0,0,0,0h0s0,0,0,0h0s0,0,0,0h0s0,0,0,0h0s0,0,0,0h0s0,0,0,0h0s0,0,0,0h0s0,0,0,0h0s0,0,0,0h0s0,0,0,0h0s0,0,0,0h0s0,0,0,0h0s0,0,0,0h-1.7s0,0,0,0h0s0,0,0,0h0s0,0,0,0h0s0,0,0,0h0s0,0,0,0h0s0,0,0,0h0s0,0,0,0h0s0,0,0,0h0s0,0,0,0h0s0,0,0,0h0s0,0,0,0h0s0,0,0,0h0s0,0,0,0h0s0,0,0,0h0s0,0,0,0h0s0,0,0,0h0s0,0,0,0h0s0,0,0,0h0s0,0,0,0h-1.7s0,0,0,0h0s0,0,0,0h0s0,0,0,0h0s0,0,0,0v8.4h0s0,0,0,0h0s0,0,0,0h0s0,0,0,0h0s0,0,0,0h1.7s0,0,0,0h0s0,0,0,0h0s0,0,0,0h0s0,0,0,0h0s0,0,0,0h0s0,0,0,0h0s0,0,0,0h0s0,0,0,0h0s0,0,0,0h0s0,0,0,0h0s0,0,0,0h0s0,0,0,0h0s0,0,0,0h0s0,0,0,0h0s0,0,0,0h0s0,0,0,0h0s0,0,0,0h0s0,0,0,0h0s0,0,0,0h1.7s0,0,0,0h0s0,0,0,0h0s0,0,0,0h0s0,0,0,0h0s0,0,0,0h0s0,0,0,0h0s0,0,0,0h0s0,0,0,0h0s0,0,0,0h0s0,0,0,0h0s0,0,0,0h0s0,0,0,0h0s0,0,0,0h0s0,0,0,0h0s0,0,0,0h0s0,0,0,0h0s0,0,0,0h0s0,0,0,0h0s0,0,0,0h1.7s0,0,0,0h0s0,0,0,0h0s0,0,0,0h0s0,0,0,0h0s0,0,0,0h0s0,0,0,0h0s0,0,0,0h0s0,0,0,0h0s0,0,0,0h0s0,0,0,0h0c0,0,0,.1,0,.1h0c0,0,0,.1,0,.1h0c0,0,0,.1,0,.1h0c0,0,0,.1,0,.1h0c0,0,0,.1,0,.1h0c0,0,0,.1,0,.1h0v4.6h0s0,0,0,0h0c0,0,0,.1,0,.1h0c0,0,0,.1,0,.1h0c0,0,0,.1,0,.1h0c0,0,0,.1,0,.1h0c0,0,0,.1,0,.1h0c0,0,0,.1,0,.1h0s0,0,0,0h0s0,0,0,0h0s0,0,0,0h0s0,0,0,0h0s0,0,0,0h0s0,0,0,0h0s0,0,0,0h0s0,0,0,0h0s0,0,0,0h0s-1.7,0-1.7,0h0s0,0,0,0h0s0,0,0,0h0s0,0,0,0h0s0,0,0,0h0s0,0,0,0h0s0,0,0,0h0s0,0,0,0h0s0,0,0,0h0s0,0,0,0h0s0,0,0,0h0s0,0,0,0h0s0,0,0,0h0s0,0,0,0h0s0,0,0,0h0s0,0,0,0h0s0,0,0,0h0s0,0,0,0h0s0,0,0,0h0s0,0,0,0h-1.7s0,0,0,0h0s0,0,0,0h0s0,0,0,0h0s0,0,0,0h0s0,0,0,0h0s0,0,0,0h0s0,0,0,0h0s0,0,0,0h0s0,0,0,0h0s0,0,0,0h0s0,0,0,0h0s0,0,0,0h0s0,0,0,0h0s0,0,0,0h0s0,0,0,0h0s0,0,0,0h0s0,0,0,0h0s0,0,0,0h0s0,0,0,0h-1.7s0,0,0,0h0s0,0,0,0h0s0,0,0,0h0s0,0,0,0v.2h0s0,0,0,0h0s0,.1,0,.1h0s0,0,0,0h0s0,.1,0,.1h0s0,0,0,0h0s0,.1,0,.1h0s0,0,0,0h0s0,.1,0,.1h0s0,0,0,0h0s0,.1,0,.1h0s0,0,0,0h0s0,.1,0,.1h0s0,0,0,0h0s0,.1,0,.1h0s0,0,0,0h0s0,.1,0,.1h0s0,0,0,0h0s-1,1-1,1l-1,1h0s0,0,0,0h0s0,0,0,0h0s0,0,0,0h0s0,0,0,0h0s0,0,0,0h0s0,0,0,0h0s0,0,0,0h0s0,0,0,0h0s0,0,0,0h0s0,0,0,0h0s0,0,0,0h0s-.1,0-.1,0h0s0,0,0,0h0s-.1,0-.1,0h0s0,0,0,0h0s-.1,0-.1,0h0s0,0,0,0h0s-25.2,0-25.2,0h-18.5s0,0,0,0h0s-.1,0-.1,0h0s0,0,0,0h0s-.1,0-.1,0h0s0,0,0,0h0s-.1,0-.1,0h0s0,0,0,0h0s0,0,0,0h0s0,0,0,0h0s0,0,0,0h0s0,0,0,0h0s0,0,0,0h0s0,0,0,0h0s0,0,0,0h0s0,0,0,0h0s0,0,0,0h0s0,0,0,0h0s-5.8-5.8-5.8-5.8h0s0,0,0,0h0s0,0,0,0h0s0,0,0,0h0s0-.1,0-.1h0s0,0,0,0h0s0-.1,0-.1h0s0,0,0,0h0s0-.1,0-.1h0s0,0,0,0h0s0-.1,0-.1h0s0,0,0,0h0s0-.1,0-.1h0s0,0,0,0h0s0-.1,0-.1h0s0,0,0,0h0s0-.1,0-.1h0s0,0,0,0h0v-2.9h0s0,0,0,0h0s0,0,0,0h-.3c0,0,0,0,0,0h0s0,0,0,0h0s0,0,0,0h-2.7s0,0,0,0h0s0,0,0,0h0s0,0,0,0h-.3c0,0,0,0,0,0h0s0,0,0,0h0s0,0,0,0h0s0,0,0,0h0s0,0,0,0l-.2-.2h0s0,0,0,0h0s0,0,0,0h0s0,0,0,0h0s0,0,0,0h0s-.2-.3-.2-.3h0s0,0,0,0h0c0,0,0-.1,0-.1h0c0,0,0-.1,0-.1h0c0,0,0-.1,0-.1h0s0-.3,0-.3h0s0,0,0,0h0c0,0,0-.1,0-.1h0v-1.4h0s0,0,0,0h0c0,0,0-.1,0-.1h0c0,0,0,0,0,0v-.3c0,0,0,0,0,0h0c0,0,0-.1,0-.1h0c0,0,0-.1,0-.1h0c0,0,0-.1,0-.1h0c0,0,0,0,0,0l.2-.2h0s0,0,0,0h0s0,0,0,0h0s0,0,0,0h0s0,0,0,0h0s.2-.2.2-.2h0s0,0,0,0h0s0,0,0,0h0s0,0,0,0h0s0,0,0,0h0s.3,0,.3,0h0s0,0,0,0h0s0,0,0,0h0s2.7,0,2.7,0h0s0,0,0,0h0s0,0,0,0h0s0,0,0,0h-2.7s0,0,0,0h0s0,0,0,0h0s-.3,0-.3,0h0s0,0,0,0h0s0,0,0,0h0s0,0,0,0h0s0,0,0,0h0s-.1,0-.1,0h-3.8c0,0,0,0,0,0h0s0,0,0,0h0s0,0,0,0h0s0,0,0,0h0s0,0,0,0h-.3c0,0,0,0,0,0h0s0,0,0,0h0s0,0,0,0h-2.7s0,0,0,0h0s0,0,0,0h0s-.2,0-.2,0h0s0,0,0,0h0s0,0,0,0h0s0,0,0,0h0s0,0,0,0h0s0,0,0,0h-.1c0,0-3.7,0-3.7,0h-.1c0,0,0,0,0,0h0s0,0,0,0h0s0,0,0,0h0s0,0,0,0h0s0,0,0,0h-.3c0,0,0,0,0,0h0s0,0,0,0h0s0,0,0,0h-2.7s0,0,0,0h0s0,0,0,0h0s-.3,0-.3,0h0s0,0,0,0h0s0,0,0,0h0s0,0,0,0h0s0,0,0,0h0s-.2-.2-.2-.2h0s0,0,0,0h0s0,0,0,0h0s0,0,0,0h0s0,0,0,0h0s-.2-.3-.2-.3h0s0,0,0,0h0c0,0,0-.1,0-.1h0c0,0,0-.1,0-.1h0c0,0,0-.1,0-.1h0s0-.3,0-.3h0s0,0,0,0h0c0,0,0-.1,0-.1h0v-1.4h0s0,0,0,0h0c0,0,0-.1,0-.1h0s0-.3,0-.3h0s0,0,0,0h0c0,0,0-.1,0-.1h0c0,0,0-.1,0-.1h0c0,0,0-.1,0-.1h0s.2-.3.2-.3h0s0,0,0,0h0s0,0,0,0h0s0,0,0,0h0s0,0,0,0h0s.2-.2.2-.2h0s0,0,0,0h0s0,0,0,0h0s0,0,0,0h0s0,0,0,0h0s.3,0,.3,0h0s0,0,0,0h0s0,0,0,0h0s2.7,0,2.7,0h0s0,0,0,0h0s0,0,0,0h0s.3,0,.3,0h0s0,0,0,0h0s0,0,0,0h0s0,0,0,0h0s0,0,0,0h0s.1,0,.1,0h3.8v-3.5h0s0,0,0,0h0s0-.1,0-.1h0s0,0,0,0h0s0-.1,0-.1h0s0,0,0,0h0s0-.1,0-.1h0s0,0,0,0h0s0-.1,0-.1h0s0,0,0,0h0s0-.1,0-.1h0s0,0,0,0h0s0-.1,0-.1h0s0,0,0,0h0s0-.1,0-.1h0s0,0,0,0h0s0-.1,0-.1h0s0,0,0,0h0s.9-.9.9-.9v-10.6l-1.2-1.2h-5.6s0,0,0,0h0s-.1,0-.1,0h0s0,0,0,0h0s-.1,0-.1,0h0s0,0,0,0h0s0,0,0,0h0s0,0,0,0h0s0,0,0,0h0s0,0,0,0h0s0,0,0,0h0s0,0,0,0h0s0,0,0,0h0c0,0,0,0,0,0h0s0,0,0,0h0c0,0,0,0,0,0h0s0,0,0,0h0c0,0,0,0,0,0h0s0,0,0,0l-2.1-2.1h0s0,0,0,0h0s0,0,0,0h0s0,0,0,0h0s0-.1,0-.1h0s0,0,0,0h0s0-.1,0-.1h0s0,0,0,0h0s0-.1,0-.1h0s0,0,0,0h0s0-.1,0-.1h0s0,0,0,0h0s0-.1,0-.1h0s0,0,0,0h0s0-.1,0-.1h0s0,0,0,0h0s0-.1,0-.1h0s0,0,0,0h0c0,0,0-.1,0-.1h0c0,0,0-.1,0-.1h0c0,0,0-.1,0-.1h0s0,0,0,0h0s0,0,0,0h0s0,0,0,0h0s0,0,0,0h0s0,0,0,0h0s0,0,0,0h0s0,0,0,0h0s0,0,0,0h0s0,0,0,0h0s0,0,0,0h0c0,0,0,.1,0,.1h0c0,0,0,.1,0,.1h0c0,0,0,.1,0,.1h0s0,.1,0,.1h0s0,.1,0,.1h0s0,.1,0,.1h0s0,.1,0,.1h0s0,0,0,0h0s0,0,0,0h0s0,0,0,0h0s0,0,0,0h0s2.1,2.1,2.1,2.1h0s0,0,0,0h0s0,0,0,0h0s0,0,0,0h0s0,0,0,0h0s0,0,0,0h0s0,0,0,0h0s0,0,0,0h0s0,0,0,0h0s0,0,0,0h5.9s0,0,0,0h0s0,0,0,0h0s0,0,0,0h0s0,0,0,0l1.6,1.6h0s0,0,0,0h0c0,0,0,.1,0,.1h0c0,0,0,.1,0,.1h0c0,0,0,.1,0,.1v11.1h0c0,0,0,.1,0,.1h0c0,0,0,.1,0,.1h0c0,0,0,.1,0,.1h0s0,0,0,0h0s-1.1,1.1-1.1,1.1h0s0,0,0,0h0s0,0,0,0h0s0,0,0,0h0s0,0,0,0h0s0,0,0,0h0s0,.1,0,.1h0s0,.1,0,.1h0s0,.1,0,.1h0v3.9h0c0,0,0,.1,0,.1h0c0,0,0,.1,0,.1h0c0,0,0,.1,0,.1h0s0,0,0,0h0s0,0,0,0h0s0,0,0,0h0s0,0,0,0h0s0,0,0,0h0s-.2.1-.2.1h0s0,0,0,0h0s0,0,0,0h0s0,0,0,0h0s-3.1,0-3.1,0h-1s0,0,0,0h0s0,0,0,0h0s0,0,0,0h0s-.2-.2-.2-.2h0s0,0,0,0h-.2s0,0,0,0h0s-2.7,0-2.7,0h0s0,0,0,0h-.2s0,0,0,0h0s-.2.1-.2.1h0s0,0,0,0v.2c-.1,0-.1,0-.1,0h0s0,.3,0,.3h0s0,0,0,0v1.4h0s0,0,0,0v.2s0,0,0,0h0s.1.2.1.2h0s0,0,0,0h.2c0,.1,0,.1,0,.1h0s.2,0,.2,0h0s0,0,0,0h2.7s0,0,0,0h.2s0,0,0,0h0s.2-.1.2-.1h0s0,0,0,0h0s0,0,0,0h0s0,0,0,0h0s4.1,0,4.1,0h0s0,0,0,0h0s0,0,0,0h0s0,0,0,0h0s.2.2.2.2h0s0,0,0,0h0s.2,0,.2,0h0s0,0,0,0h2.7s0,0,0,0h.2s0,0,0,0h0s.2-.1.2-.1h0s0,0,0,0h0s0,0,0,0h0s0,0,0,0h0s.6,0,.6,0h3.5s0,0,0,0h0s0,0,0,0h0s0,0,0,0h0s.2.2.2.2h0s0,0,0,0h.2s0,0,0,0h0s2.7,0,2.7,0h0s0,0,0,0h0s.1,0,.1,0h0s0,0,0,0h0s0,0,0,0h0s0,0,0,0h0s0,0,0,0h0s0,0,0,0l1,1h0s0,0,0,0h0c0,0,0,.1,0,.1h0c0,0,0,.1,0,.1h0c0,0,0,.1,0,.1v1.4h0s0,0,0,0h0c0,0,0,.1,0,.1h0c0,0,0,0,0,0v1.4h0s0,0,0,0h0c0,0,0,.1,0,.1h0s0,0,0,0v4.5h0s0,0,0,0h0s0,.1,0,.1h0s0,.1,0,.1h0s0,.1,0,.1h0s0,0,0,0h0s0,0,0,0h0s0,0,0,0h0s0,0,0,0h0s5.8,5.8,5.8,5.8h0s0,0,0,0h0s0,0,0,0h0s0,0,0,0h0s0,0,0,0h0s0,0,0,0h0s0,0,0,0h0s0,0,0,0h0s0,0,0,0h0s9.1,0,9.1,0h34.7s0,0,0,0h0s0,0,0,0h0s0,0,0,0h0s0,0,0,0h0s0,0,0,0h0s0,0,0,0h0s0,0,0,0h0s0,0,0,0h0s1-1,1-1l1-1h0s0,0,0,0h0s0,0,0,0h0s0,0,0,0h0s0,0,0,0h0s0,0,0,0h0s0-.1,0-.1h0s0-.1,0-.1h0s0-.1,0-.1h0v-21.2h0c0,0,0-.1,0-.1h0c0,0,0-.1,0-.1h0c0,0,0-.1,0-.1h0s0,0,0,0l.7-.7h0s0,0,0,0h0s0,0,0,0h0s0,0,0,0h0s0,0,0,0h0s8.4-8.4,8.4-8.4h0s0,0,0,0h0s0,0,0,0h0s0,0,0,0h0s0,0,0,0h0s4.2-4.2,4.2-4.2l2.6-2.6h0s2.6-2.7,2.6-2.7l4.2-4.2h0s0,0,0,0h0s0,0,0,0h0s0,0,0,0h0s0,0,0,0h0s0,0,0,0h0s0,0,0,0h0s0,0,0,0h0s0,0,0,0h0s0,0,0,0h0c0,0,0,.1,0,.1h0c0,0,0,.1,0,.1h0c0,0,0,.1,0,.1h0c0,0,0,.1,0,.1h0c0,0,0,.1,0,.1h0c0,0,0,.1,0,.1h0s0,0,0,0l-4.2,4.2-2.6,2.6h0s-2.6,2.7-2.6,2.7l-3,3h11.8s0,0,0,0h0s0,0,0,0h0s0,0,0,0h0s0,0,0,0h0s0,0,0,0h0s0,0,0,0h0s0,0,0,0h0s0,0,0,0h0s0,0,0,0h0s0,0,0,0h0s0,0,0,0h0s0,0,0,0h0s0,0,0,0h0s0,0,0,0h0s0,0,0,0h0s0,0,0,0h0s0,0,0,0h0s0,0,0,0l2.1,2.1,4.5,4.5h0s0,0,0,0h0s0,0,0,0h0s0,0,0,0h0s0,0,0,0h0s0,0,0,0h0s0,0,0,0h0s0,0,0,0h0s0,0,0,0h0s0,0,0,0h0s0,0,0,0h0s0,0,0,0h0s0,0,0,0h0s0,0,0,0h0s0,0,0,0h0s0,0,0,0h0s0,0,0,0h0s0,0,0,0h0v3.9h0s0,0,0,0h0s0,0,0,0h0s0,0,0,0h0s0,0,0,0h0s0,0,0,0h0s0,.1,0,.1h0c0,0,0,.1,0,.1h0c0,0,0,.1,0,.1h0c0,0,0,.1,0,.1h0c0,0,0,.1,0,.1h0c0,0,0,.1,0,.1h0c0,0,0,0,0,0v1.3ZM79.1,95.1v-4.4h0s0,0,0,0h0c0,0,0-.1,0-.1h0c0,0,0-.1,0-.1h0c0,0,0-.1,0-.1h0c0,0,0-.1,0-.1h0c0,0,0-.1,0-.1h0c0,0,0-.1,0-.1h0s0,0,0,0h0s0,0,0,0h0s0,0,0,0h0s0,0,0,0h0s0,0,0,0h0s0,0,0,0h0s0,0,0,0h0s0,0,0,0h0s0,0,0,0h0s.4,0,.4,0h5.9s0,0,0,0h0s0,0,0,0h0s0,0,0,0h0s0,0,0,0h0s0,0,0,0h0s0,0,0,0h0s0,0,0,0h0s0,0,0,0h0s0,0,0,0h0s0,0,0,0h0s0,.1,0,.1h0c0,0,0,.1,0,.1h0c0,0,0,.1,0,.1h0c0,0,0,.1,0,.1h0c0,0,0,.1,0,.1h0c0,0,0,.1,0,.1h0c0,0,0,0,0,0v4.4h0s0,0,0,0h0c0,0,0,.1,0,.1h0c0,0,0,.1,0,.1h0c0,0,0,.1,0,.1h0c0,0,0,.1,0,.1h0c0,0,0,.1,0,.1h0c0,0,0,.1,0,.1h0s0,0,0,0h0s0,0,0,0h0s0,0,0,0h0s0,0,0,0h0s0,0,0,0h0s0,0,0,0h0s0,0,0,0h0s0,0,0,0h0s0,0,0,0h0s-1.6,0-1.6,0h-4.7s0,0,0,0h0s0,0,0,0h0s0,0,0,0h0s0,0,0,0h0s0,0,0,0h0s0,0,0,0h0s0,0,0,0h0s0,0,0,0h0s0,0,0,0h0s0,0,0,0h0c0,0,0-.1,0-.1h0c0,0,0-.1,0-.1h0c0,0,0-.1,0-.1h0c0,0,0-.1,0-.1h0c0,0,0-.1,0-.1h0c0,0,0-.1,0-.1h0ZM194.9,109.9h0s0,0,0,0h0c0,0,0,.1,0,.1h0c0,0,0,.1,0,.1h0c0,0,0,.1,0,.1h0c0,0,0,.1,0,.1h0c0,0,0,.1,0,.1h0c0,0,0,.1,0,.1h0s0,0,0,0h0s0,0,0,0h0s0,0,0,0h0s0,0,0,0h0s0,0,0,0h0s0,0,0,0h0s0,0,0,0h0s0,0,0,0h0s0,0,0,0h0s0,0,0,0h-4.9s0,0,0,0h0s0,0,0,0h0s0,0,0,0h0s0,0,0,0h0s0,0,0,0h0s0,0,0,0h0s0,0,0,0h0s0,0,0,0h0s0,0,0,0h0s0,0,0,0h0c0,0,0-.1,0-.1h0c0,0,0-.1,0-.1h0c0,0,0-.1,0-.1h0c0,0,0-.1,0-.1h0c0,0,0-.1,0-.1h0c0,0,0-.1,0-.1h0v-8.8h0s0,0,0,0h0c0,0,0-.1,0-.1h0c0,0,0-.1,0-.1h0c0,0,0-.1,0-.1h0c0,0,0-.1,0-.1h0c0,0,0-.1,0-.1h0c0,0,0-.1,0-.1h0s0,0,0,0h0s0,0,0,0h0s0,0,0,0h0s0,0,0,0h0s0,0,0,0h0s0,0,0,0h0s0,0,0,0h0s0,0,0,0h0s0,0,0,0h0s1.1,0,1.1,0h3.8s0,0,0,0h0s0,0,0,0h0s0,0,0,0h0s0,0,0,0h0s0,0,0,0h0s0,0,0,0h0s0,0,0,0h0s0,0,0,0h0s0,0,0,0h0s0,0,0,0h0c0,0,0,.1,0,.1h0c0,0,0,.1,0,.1h0c0,0,0,.1,0,.1h0c0,0,0,.1,0,.1h0c0,0,0,.1,0,.1h0c0,0,0,.1,0,.1h0v8.8ZM210.6,110.2h0s0,0,0,0h0c0,0,0,.1,0,.1h0c0,0,0,.1,0,.1h0c0,0,0,.1,0,.1h0c0,0,0,.1,0,.1h0c0,0,0,.1,0,.1h0c0,0,0,.1,0,.1h0s0,0,0,0h0s0,0,0,0h0s0,0,0,0h0s0,0,0,0h0s0,0,0,0h0s0,0,0,0h0s0,0,0,0h0s0,0,0,0h0s0,0,0,0h0s-6.9,0-6.9,0h-4.5s0,0,0,0h0s0,0,0,0h0s0,0,0,0h0s0,0,0,0h0s0,0,0,0h0s0,0,0,0h0s0,0,0,0h0s0,0,0,0h0s0,0,0,0h0s0,0,0,0h0c0,0,0-.1,0-.1h0c0,0,0-.1,0-.1h0c0,0,0-.1,0-.1h0c0,0,0-.1,0-.1h0c0,0,0-.1,0-.1h0c0,0,0-.1,0-.1h0v-5.7h0s0,0,0,0h0c0,0,0-.1,0-.1h0c0,0,0-.1,0-.1h0c0,0,0-.1,0-.1h0c0,0,0-.1,0-.1h0c0,0,0-.1,0-.1h0c0,0,0-.1,0-.1h0s0,0,0,0h0s0,0,0,0h0s0,0,0,0h0s0,0,0,0h0s0,0,0,0h0s0,0,0,0h0s0,0,0,0h0s0,0,0,0h0s0,0,0,0h0s0,0,0,0h4.2v-13h0c0,0,0-.1,0-.1h0s0,0,0,0l-.4-.4h0s-.1,0-.1,0h-18.1s0,0,0,0h0s-.1,0-.1,0h0s0,0,0,0h0s-.1,0-.1,0h0s0,0,0,0h0s-.1,0-.1,0h0s0,0,0,0h0s0,0,0,0h0s0,0,0,0h0s0,0,0,0h0s0,0,0,0h0s0,0,0,0h0s0,0,0,0h0s0,0,0,0h0s0,0,0,0h0s0,0,0,0h0s0,0,0,0h0s0,0,0,0h0c0,0,0-.1,0-.1h0c0,0,0-.1,0-.1h0c0,0,0-.1,0-.1h0c0,0,0-.1,0-.1h0c0,0,0-.1,0-.1h0c0,0,0-.1,0-.1h0c0,0,0,0,0,0h0s0,0,0,0h0s0,0,0,0h0s0,0,0,0h0s0,0,0,0h0s0,0,0,0h0s0,0,0,0h0s0,0,0,0h0s0,0,0,0h0s0,0,0,0h0s0,0,0,0h0s0,0,0,0h0s0,0,0,0h0s0,0,0,0h0s0,0,0,0h0s0,0,0,0h0s0,0,0,0h0s4.1,0,4.1,0h14.4s0,0,0,0h0s0,0,0,0h0s0,0,0,0h0s0,0,0,0l.2.2.3.3h0s0,0,0,0h0s0,0,0,0l.2.2h0s0,0,0,0h0c0,0,0,.1,0,.1h0c0,0,0,.1,0,.1h0c0,0,0,.1,0,.1v13.9h0c0,0,0,.1,0,.1h0c0,0,0,.1,0,.1h0c0,0,0,.1,0,.1h0s0,0,0,0h0s0,0,0,0h0s0,0,0,0h0s0,0,0,0h0s0,0,0,0h-4.8s0,0,0,0v5.6h0s0,0,0,0h11.3s0,0,0,0v-5.6h0s0,0,0,0h-3.2s0,0,0,0h0s0,0,0,0h0s0,0,0,0h0s0,0,0,0h0s0,0,0,0h0c0,0,0-.1,0-.1h0c0,0,0-.1,0-.1h0c0,0,0-.1,0-.1v-14.6h0s0,0,0,0h0s0-.1,0-.1h0s0-.1,0-.1h0s0-.1,0-.1h0s0,0,0,0h0s0,0,0,0h0s0,0,0,0h0s0,0,0,0h0s-1.9-1.9-1.9-1.9h0s0,0,0,0h0s0,0,0,0h0s0,0,0,0h0s0,0,0,0h0s0,0,0,0h0s0,0,0,0h0s0,0,0,0h0s0,0,0,0h0s-18.4,0-18.4,0h0s0,0,0,0h0s0,0,0,0h0s0,0,0,0h0s0,0,0,0l-2.9-2.9h0s0,0,0,0h0c0,0,0-.1,0-.1h0c0,0,0-.1,0-.1h0c0,0,0-.1,0-.1h0c0,0,0-.1,0-.1h0c0,0,0-.1,0-.1h0c0,0,0-.1,0-.1h0s0,0,0,0h0s0,0,0,0h0s0,0,0,0h0s0,0,0,0h0s0,0,0,0h0s0,0,0,0h0s0,0,0,0h0s0,0,0,0h0s0,0,0,0l2.8,2.8h18.2s0,0,0,0h0s.1,0,.1,0h0s0,0,0,0h0s.1,0,.1,0h0s0,0,0,0h0s.1,0,.1,0h0s0,0,0,0h0s0,0,0,0h0s0,0,0,0h0s0,0,0,0h0s0,0,0,0h0s0,0,0,0h0s0,0,0,0h0s0,0,0,0h0s0,0,0,0h0s0,0,0,0h0s0,0,0,0h0s1.9,1.9,1.9,1.9h0s0,0,0,0h0s0,0,0,0h0s0,0,0,0h0s0,.1,0,.1h0s0,0,0,0h0s0,.1,0,.1h0s0,0,0,0h0s0,.1,0,.1h0s0,0,0,0h0s0,.1,0,.1h0s0,0,0,0h0s0,.1,0,.1h0s0,0,0,0h0s0,.1,0,.1h0s0,0,0,0h0s0,.1,0,.1h0s0,0,0,0h0v14h2.5s0,0,0,0h0s0,0,0,0h0s0,0,0,0h0s0,0,0,0h0s0,0,0,0h0s0,0,0,0h0s0,0,0,0h0s0,0,0,0h0s0,0,0,0h0s0,0,0,0h0c0,0,0,.1,0,.1h0c0,0,0,.1,0,.1h0c0,0,0,.1,0,.1h0c0,0,0,.1,0,.1h0c0,0,0,.1,0,.1h0c0,0,0,.1,0,.1h0v5.7ZM212.2,83.4h0c0,0,0,.1,0,.1h0c0,0,0,.1,0,.1h0c0,0,0,.1,0,.1h0s0,0,0,0h0s0,0,0,0h0s0,0,0,0h0s0,0,0,0h0s0,0,0,0h0s0,0,0,0h0s0,0,0,0h0s0,0,0,0h0s0,0,0,0h0s0,0,0,0h0s0,0,0,0h0s0,0,0,0h0c0,0,0-.1,0-.1h0c0,0,0-.1,0-.1h0c0,0,0-.1,0-.1h0s-16.4,0-16.4,0h0s0,0,0,0h0s-.1,0-.1,0h0s0,0,0,0h0s-.1,0-.1,0h0s0,0,0,0h0s-.1,0-.1,0h0s0,0,0,0h0s0,0,0,0h0s0,0,0,0h0s0,0,0,0h0s0,0,0,0h0s0,0,0,0h0s0,0,0,0h0s0,0,0,0h0s0,0,0,0h0s0,0,0,0h0s0,0,0,0h0s0,0,0,0h0c0,0,0-.1,0-.1h0c0,0,0-.1,0-.1h0c0,0,0-.1,0-.1h0c0,0,0-.1,0-.1h0c0,0,0-.1,0-.1h0c0,0,0-.1,0-.1h0c0,0,0,0,0,0h0s0,0,0,0h0s0,0,0,0h0s0,0,0,0h0s0,0,0,0h0s0,0,0,0h0s0,0,0,0h0s0,0,0,0h0s0,0,0,0h0s0,0,0,0h0s0,0,0,0h0s0,0,0,0h0s0,0,0,0h0s0,0,0,0h0s0,0,0,0h0s0,0,0,0h0s0,0,0,0h0s16.9,0,16.9,0h0s0,0,0,0h0s0,0,0,0h0s0,0,0,0h0s0,0,0,0h0s0,0,0,0h0c0,0,0,.1,0,.1h0c0,0,0,.1,0,.1h0c0,0,0,.1,0,.1v.2h0s0,0,0,0h0s0,0,0,0h0s0,0,0,0h0c0,0,0,.1,0,.1h0c0,0,0,.1,0,.1h0c0,0,0,.1,0,.1h0ZM218.1,111.4h0s0,0,0,0h0s0,0,0,0h0s0,0,0,0h0s0,0,0,0h0s0,0,0,0h0s0,0,0,0h0s0,0,0,0h0s0,0,0,0h0s0,0,0,0h0s0-.1,0-.1h0c0,0,0-.1,0-.1h0c0,0,0-.1,0-.1h0c0,0,0-.1,0-.1h0c0,0,0-.1,0-.1h0c0,0,0-.1,0-.1h0c0,0,0,0,0,0v-5.7h0s0,0,0,0h0c0,0,0-.1,0-.1h0c0,0,0-.1,0-.1h0c0,0,0-.1,0-.1h0c0,0,0-.1,0-.1h0c0,0,0-.1,0-.1h0c0,0,0-.1,0-.1h0s0,0,0,0h0s0,0,0,0h0s0,0,0,0h0s0,0,0,0h0s0,0,0,0h0s0,0,0,0h0s0,0,0,0h0s0,0,0,0h0s0,0,0,0h0s11.3,0,11.3,0h0s0,0,0,0h0s0,0,0,0h0s0,0,0,0h0s0,0,0,0h0s0,0,0,0h0s0,0,0,0h0s0,0,0,0h0s0,0,0,0h0s0,0,0,0h0s0,0,0,0h0c0,0,0,.1,0,.1h0c0,0,0,.1,0,.1h0c0,0,0,.1,0,.1h0c0,0,0,.1,0,.1h0c0,0,0,.1,0,.1h0c0,0,0,.1,0,.1h0v5.7h0s0,0,0,0h0c0,0,0,.1,0,.1h0c0,0,0,.1,0,.1h0c0,0,0,.1,0,.1h0c0,0,0,.1,0,.1h0c0,0,0,.1,0,.1h0c0,0,0,.1,0,.1h0s0,0,0,0h0s0,0,0,0h0s0,0,0,0h0s0,0,0,0h0s0,0,0,0h0s0,0,0,0h0s0,0,0,0h0s0,0,0,0h0s0,0,0,0h0s-11.3,0-11.3,0h0ZM229.6,124.7c-1.6,0-2.8-1.3-2.8-2.8s1.3-2.8,2.8-2.8,2.8,1.3,2.8,2.8-1.3,2.8-2.8,2.8ZM229.6,48.2c-1.6,0-2.8-1.3-2.8-2.8s1.3-2.8,2.8-2.8,2.8,1.3,2.8,2.8-1.3,2.8-2.8,2.8Z"/>
        <polygon class="cls-1" points="229.5 104.5 229.5 104.5 229.5 104.5 218.2 104.5 218.2 104.5 218.2 104.5 218.2 110.1 218.2 110.2 218.2 110.2 229.5 110.2 229.5 110.2 229.5 110.1 229.5 104.5"/>
        <polygon class="cls-1" points="155.8 120.7 157.4 120.7 157.4 120.7 157.5 120.6 157.5 116.1 157.4 116.1 157.4 116.1 155.8 116.1 155.8 116.1 155.7 116.1 155.7 120.6 155.8 120.7 155.8 120.7"/>
        <polygon class="cls-1" points="180.1 104.1 180.1 104.1 180 104.1 179.9 104.1 179.9 104.1 179.8 104 179.8 104 179.7 104 179.7 104 179.6 103.9 179.6 103.9 179.6 103.8 179.5 103.8 179.5 103.7 179.5 103.7 179.5 103.6 179.5 103.5 179.4 103.5 179.4 99.1 179.4 97.1 179.4 97.1 179.4 97.1 179.4 97.1 179.4 97 179.4 97 179.4 96.9 179.4 96.9 179.4 96.9 179.4 96.9 179.4 96.8 179.4 96.8 179.3 96.7 179.3 96.7 177 94.4 177 94.4 176.9 94.4 176.9 94.4 176.9 94.4 176.9 94.4 172.4 94.4 172.4 94.4 168.7 94.4 166.6 94.4 166.6 94.4 166.6 94.4 166.5 94.4 166.5 94.4 166.5 94.4 166.4 94.5 166.4 94.5 166.4 94.5 166.4 94.5 166.3 94.6 166.3 94.6 163.3 97.6 163.3 97.6 163.3 97.6 163.2 97.6 163.2 97.7 163.2 97.7 163.2 97.7 163.2 97.8 163.2 97.8 163.1 97.8 163.1 97.9 163.1 97.9 163.1 97.9 163.1 98 163.1 98 163.1 98 163.1 98.1 163.1 98.1 163.1 100.4 163.1 100.5 163.1 100.5 163.1 100.6 163.1 100.6 163 100.7 163 100.7 163 100.8 163 100.8 162.9 100.8 162.9 105.3 163 105.3 163 105.3 164.6 105.3 164.6 105.3 164.7 105.3 164.7 100.8 164.6 100.8 164.6 100.8 164.6 100.8 164.6 100.8 164.6 100.7 164.6 100.7 164.5 100.6 164.5 100.5 164.5 100.5 164.5 100.4 164.5 98.6 164.5 98.6 164.5 98.5 164.5 98.5 164.6 98.4 164.6 98.3 164.6 98.3 164.7 98.2 164.7 98.2 166.9 96 167 95.9 167 95.9 167.1 95.8 167.1 95.8 167.2 95.8 167.3 95.8 167.3 95.8 167.4 95.8 171.3 95.8 176.1 95.8 176.2 95.8 176.2 95.8 176.3 95.8 176.3 95.8 176.4 95.8 176.5 95.9 176.5 95.9 176.5 96 177.8 97.3 177.9 97.3 177.9 97.3 178 97.4 178 97.5 178 97.5 178 97.6 178 97.6 178 97.7 178 98.9 178 103.5 178 103.5 178 103.6 178 103.7 178 103.7 178 103.8 177.9 103.8 177.9 103.9 177.8 103.9 177.8 104 177.8 104 177.7 104 177.6 104 177.6 104.1 177.5 104.1 177.5 104.1 177.4 104.1 177.4 104.1 177.3 104.1 177.3 104.1 177.3 119.7 177.3 119.7 177.4 119.7 179.5 119.7 180.1 119.7 180.1 119.7 180.1 119.7 180.1 113.6 180.1 104.1 180.1 104.1 180.1 104.1"/>
        <polygon class="cls-1" points="161.1 99.6 161.1 99.6 161.1 99.6 161.2 99.6 161.3 99.6 161.3 99.6 161.4 99.6 161.4 99.6 161.5 99.6 161.6 99.7 161.6 99.7 161.7 99.7 161.7 99.8 161.8 99.8 161.8 99.8 161.8 99.9 161.8 98.3 160.6 99.6 161.1 99.6"/>
        <polygon class="cls-1" points="80.3 95.1 80.7 95.1 85 95.1 86.6 95.1 86.6 95.1 86.6 95.1 86.6 94.2 86.6 92.3 86.6 90.7 86.6 90.7 86.6 90.7 84.9 90.7 82.2 90.7 80.7 90.7 80.3 90.7 80.3 90.7 80.3 90.7 80.3 95.1 80.3 95.1 80.3 95.1"/>
        <polygon class="cls-1" points="139.4 100.8 137.8 100.8 137.8 100.8 137.7 100.8 137.7 101.7 137.7 101.8 137.7 101.9 137.7 101.9 137.7 102 137.7 102 137.6 102.1 137.6 102.1 137.6 102.2 137.5 102.2 137.5 102.3 137.4 102.3 137.4 102.3 137.3 102.3 137.2 102.4 137.2 102.4 137.1 102.4 136.9 102.4 135.3 102.4 132.7 102.4 132.7 102.4 132.6 102.4 132.6 102.4 132.6 102.4 132.5 102.4 132.5 102.4 132.5 102.4 132.4 102.4 132.4 102.4 132.4 102.4 132.3 102.5 132.3 102.5 132.3 102.5 132.3 102.5 132.2 102.5 132.2 102.6 132.2 102.6 131.5 103.3 130.8 103.9 130.8 104 130.8 104 130.8 104 130.7 104 130.7 104.1 130.7 104.1 130.7 104.1 130.7 104.2 130.7 104.2 130.7 104.2 130.6 104.3 130.6 104.3 130.6 104.3 130.6 104.4 130.6 104.4 130.6 104.4 130.6 104.5 130.6 105.7 130.6 105.8 130.6 105.8 130.6 105.9 130.6 106 130.5 106 130.5 106.1 130.5 106.1 130.4 106.2 130.4 106.2 130.3 106.2 130.3 106.3 130.2 106.3 130.2 106.3 130.1 106.3 130.1 106.3 130 106.3 130 106.3 130 106.3 130 106.3 129.7 106.4 129.7 106.4 129.7 106.4 129.5 106.5 129.5 106.6 129.5 106.6 129.3 106.8 129.3 106.8 129.3 106.8 129.3 107 129.3 107.1 129.3 107.1 129.3 108.5 129.3 108.5 129.3 108.5 129.3 108.7 129.3 108.7 129.3 108.8 129.5 109 129.5 109 129.5 109 129.7 109.1 129.7 109.1 129.7 109.1 130 109.2 130 109.2 130 109.2 131.4 109.2 132.4 109.2 132.7 109.2 132.7 109.2 132.7 109.2 132.9 109.1 132.9 109.1 133 109.1 133.2 109 133.2 109 133.2 109 133.3 108.8 133.3 108.7 133.3 108.7 133.4 108.5 133.4 108.5 133.4 108.5 133.4 107.1 133.4 107.1 133.4 107 133.3 106.8 133.3 106.8 133.3 106.8 133.2 106.6 133.2 106.6 133.2 106.5 133 106.4 132.9 106.4 132.9 106.4 132.7 106.3 132.7 106.3 132.6 106.3 132.6 106.3 132.6 106.3 132.5 106.3 132.5 106.3 132.4 106.3 132.4 106.3 132.3 106.2 132.3 106.2 132.2 106.2 132.2 106.1 132.1 106.1 132.1 106 132.1 106 132.1 105.9 132 105.8 132 105.8 132 105.7 132 105 132 104.9 132 104.9 132.1 104.8 132.1 104.8 132.1 104.7 132.1 104.7 132.2 104.6 132.2 104.6 132.2 104.6 132.8 104 132.9 103.9 132.9 103.9 133 103.9 133 103.8 133.1 103.8 133.1 103.8 133.2 103.8 133.2 103.8 135.3 103.8 136.9 103.8 137.1 103.8 137.2 103.8 137.2 103.8 137.3 103.8 137.4 103.8 137.4 103.9 137.5 103.9 137.5 103.9 137.6 104 137.6 104 137.6 104.1 137.7 104.1 137.7 104.2 137.7 104.2 137.7 104.3 137.7 104.4 137.7 104.4 137.7 105.3 137.8 105.3 137.8 105.3 139.4 105.3 139.4 105.3 139.5 105.3 139.5 100.8 139.4 100.8 139.4 100.8"/>
        <polygon class="cls-1" points="185.8 104.1 185.7 104.1 185.7 104.1 185.6 104.1 185.6 104.1 185.5 104 185.4 104 185.4 104 185.3 104 185.3 103.9 185.3 103.9 185.2 103.8 185.2 103.8 185.2 103.7 185.1 103.7 185.1 103.6 185.1 103.5 185.1 103.5 185.1 101 185.1 100.1 185.1 99.1 185.1 99.1 185.1 99 185.1 99 185.1 99 185.1 98.9 185.1 98.9 185.1 98.9 185.1 98.8 185.1 98.8 185 98.8 185 98.7 185 98.7 185 98.7 185 98.6 184.9 98.6 184.9 98.6 184.9 98.6 180.4 94.1 178.3 91.9 178.2 91.9 178.2 91.9 178.2 91.9 178.2 91.8 178.1 91.8 178.1 91.8 178.1 91.8 178 91.8 178 91.8 178 91.8 177.9 91.7 177.9 91.7 177.9 91.7 177.8 91.7 177.8 91.7 177.8 91.7 177.7 91.7 173.8 91.7 171.1 91.7 171.1 91.7 168.5 91.7 165 91.7 165 91.7 164.9 91.7 164.9 91.7 164.8 91.7 164.8 91.7 164.8 91.7 164.7 91.8 164.7 91.8 164.7 91.8 164.6 91.8 164.6 91.8 156 100.4 156 100.5 156 100.5 155.9 100.5 155.9 100.5 155.9 100.6 155.9 100.7 155.8 100.7 155.8 100.8 155.8 100.8 155.8 100.8 155.7 100.8 155.7 105.3 155.8 105.3 155.8 105.3 157.4 105.3 157.4 105.3 157.5 105.3 157.5 101.2 157.5 101.1 157.5 101.1 157.5 101 157.5 101 157.5 100.9 157.6 100.9 157.6 100.8 157.6 100.8 165.1 93.3 165.1 93.3 165.2 93.2 165.2 93.2 165.3 93.2 165.3 93.2 165.4 93.1 165.5 93.1 165.5 93.1 166.5 93.1 166.5 93.1 166.6 93.1 166.6 93.1 166.7 93.1 166.7 93.1 166.8 93.1 166.8 93.1 166.8 93.1 166.8 93.1 168.7 93.1 172.3 93.1 172.4 93.1 176.7 93.1 176.7 93.1 176.7 93.1 176.7 93.1 176.8 93.1 176.8 93.1 176.9 93.1 176.9 93.1 177 93.1 177 93.1 177.2 93.1 177.3 93.1 177.3 93.1 177.4 93.2 177.4 93.2 177.5 93.2 177.5 93.2 177.6 93.3 177.6 93.3 177.8 93.5 177.8 93.5 177.9 93.5 177.9 93.5 177.9 93.5 177.9 93.6 177.9 93.6 178 93.6 178 93.6 178 93.7 178 93.7 180.1 95.8 180.1 95.8 180.2 95.8 180.2 95.8 180.2 95.8 180.2 95.9 180.2 95.9 180.2 95.9 180.3 95.9 180.3 95.9 180.3 96 180.3 96 183.5 99.2 183.6 99.2 183.6 99.3 183.6 99.3 183.7 99.4 183.7 99.5 183.7 99.5 183.7 99.6 183.7 99.6 183.7 102.1 183.7 103.5 183.7 103.5 183.7 103.6 183.7 103.7 183.7 103.7 183.6 103.8 183.6 103.8 183.6 103.9 183.5 103.9 183.5 104 183.4 104 183.4 104 183.3 104 183.3 104.1 183.2 104.1 183.1 104.1 183.1 104.1 183 104.1 183 104.1 183 104.1 183 113.6 183 119.7 183 119.7 183 119.7 185 119.7 185.8 119.7 185.8 119.7 185.8 119.7 185.8 105.4 185.8 104.1 185.8 104.1 185.8 104.1"/>
        <polygon class="cls-1" points="161 100.8 159.4 100.8 159.4 100.8 159.3 100.8 159.3 105.3 159.4 105.3 159.4 105.3 161 105.3 161 105.3 161.1 105.3 161.1 100.8 161 100.8 161 100.8"/>
      </g>
    </g>
  </g>
</svg>