<?xml version="1.0" encoding="UTF-8"?><svg id="Layer_2" xmlns="http://www.w3.org/2000/svg" viewBox="0 0 36 57.6"><defs><style>.cls-1{fill-rule:evenodd;stroke-width:0px;}</style></defs><g id="Layer_1-2"><path class="cls-1" d="m15,32.13l.05.27.15.23.23.15.27.05h2.55l.27-.05.23-.15.15-.23.05-.27v-1.49l-.05-.27-.15-.23-.23-.15-.27-.05h-2.55l-.27.05-.23.15-.15.23-.05.27v.03h-3.12l-2.17-2.17v-12l1.38-1.38h2.89v1.69h4.82v-4.82h-4.82v1.69h-3.19c-.09,0-.19.02-.28.06-.08.03-.15.08-.21.14,0,0-.01,0-.02.01l-1.8,1.8s0,.01-.01.02c-.06.06-.11.13-.14.22-.03.08-.05.17-.05.25,0,0,0,.02,0,.02v12.6c0,.09.02.19.06.28.03.08.08.15.14.21,0,0,0,.01.01.02l2.59,2.59s.01,0,.02.01c.06.06.13.11.21.14.09.04.18.06.28.06h3.42v.02Z"/><path class="cls-1" d="m23.92,28.31s0-.01-.01-.02l-2.59-2.59s-.01,0-.02-.01c-.06-.06-.13-.11-.21-.14-.09-.04-.18-.06-.28-.06h-1.84v-.02l-.05-.27-.15-.23-.23-.15-.27-.05h-2.55l-.27.05-.23.15-.15.23-.05.27v1.49l.05.27.15.23.23.15.27.05h2.55l.27-.05.23-.15.15-.23.05-.27v-.03h1.54l2.17,2.17v10.2l-3.18,3.18h-.69v-1.69h-4.82v4.82h4.82v-1.69h.99c.09,0,.19-.02.28-.06.08-.03.15-.08.21-.14,0,0,.01,0,.02-.01l3.6-3.6s0-.01.01-.02c.06-.06.11-.13.14-.22.03-.08.05-.17.05-.25,0,0,0-.01,0-.02v-10.8c0-.09-.02-.19-.06-.28-.03-.08-.08-.15-.14-.21Z"/><path class="cls-1" d="m35.97.21l-.13-.15-.19-.06H.35l-.14.03L.06.16l-.06.19v56.89l.03.15.13.15.19.06h35.3l.14-.03.15-.13.05-.19V.35l-.03-.15ZM11.76,32.68h0s-.03,0-.03,0h-.11s-.05,0-.05,0h-.2s-.02,0-.02,0l-.1-.03-.06-.02h-.01s-.07-.03-.07-.03l-.09-.03h-.02s-.02-.02-.02-.02l-.13-.1h0s-.14-.1-.14-.1l-.07-.08-.03-.03-2.37-2.37-.03-.03h0s-.02-.02-.02-.02l-.08-.09-.03-.03h0s-.12-.12-.12-.12v-.02s-.03-.02-.03-.02l-.07-.15h0s-.08-.16-.08-.16v-.02s-.01-.03-.01-.03l-.03-.16h0s-.03-.17-.03-.17v-.1s.01-.04.01-.04v-12.34s0,0,0,0v-.03s0-.16,0-.16h0v-.2s0-.02,0-.02l.05-.16h0s.05-.17.05-.17v-.02s.02-.02.02-.02l.1-.13h0s.09-.15.09-.15l.08-.06.03-.03,1.58-1.58.03-.03h0s.02-.02.02-.02l.12-.11h0s.12-.12.12-.12h.02s.02-.03.02-.03l.15-.07h.01s.14-.08.14-.08h.02s.03-.01.03-.01h.02s.14-.03.14-.03h.01s.16-.03.16-.03h.09s0,.01,0,.01h2.21l.15-.03.15-.13.05-.19v-.82l.03-.16.12-.19.19-.12.16-.03h4.93l.16.03.19.12.12.19.03.16v4.97s-.03.12-.03.12l-.12.19-.19.12-.12.03h-.04s-4.93,0-4.93,0h0s-.16-.03-.16-.03l-.19-.12-.12-.19-.03-.16v-.83l-.03-.14-.13-.15-.19-.06h-1.66s-.17.1-.17.1l-.84.84-.05.06-.06.19v11.32s.1.17.1.17l1.62,1.63.06.05.19.06h2.08l.12-.02.16-.12.17-.23.31-.23.36-.13h.09s2.86,0,2.86,0h.09s.36.14.36.14l.31.23.2.27.03.04.13.36v.09s0,1.79,0,1.79v.09s-.07.17-.07.17l-.07.2-.23.31-.31.23-.18.06-.18.07h-.09s-2.86,0-2.86,0h-.09s-.24-.09-.24-.09l-.12-.04-.31-.23-.17-.23-.09-.09-.19-.06h-2.59Zm12.94,6.75h0v.03s0,.16,0,.16h0v.2s0,.02,0,.02l-.05.16h0s-.05.17-.05.17v.02s-.02.02-.02.02l-.1.13h0s-.09.15-.09.15l-.08.06-.03.03-3.38,3.38-.03.03h0s-.02.02-.02.02l-.12.11h0s-.12.12-.12.12h-.02s-.02.03-.02.03l-.15.07h-.01s-.14.08-.14.08h-.02s-.03.01-.03.01l-.16.03h-.01s-.16.03-.16.03h-.08s-.18.02-.18.02l-.15.13-.06.19v.82l-.03.16-.12.19-.19.12-.12.03h-.04s-4.93,0-4.93,0l-.16-.03-.19-.12-.12-.19-.03-.16v-4.93l.03-.16.12-.19.19-.12.16-.03h4.93l.16.03.19.12.12.19.03.16v.24s.07.19.07.19l.16.12h.2s.17-.08.17-.08l2.03-2.03.05-.06.05-.19v-9.52s-.1-.17-.1-.17l-1.62-1.63-.06-.05-.19-.06h-.51l-.12.02-.16.12-.17.23-.31.23-.18.06-.18.07h-.09s-2.86,0-2.86,0h-.09s-.3-.11-.3-.11l-.06-.02-.31-.23-.23-.31-.02-.06-.1-.3v-.09s0-1.79,0-1.79v-.09s.14-.36.14-.36l.23-.31.31-.23.36-.13h.09s2.86,0,2.86,0h.09s.36.13.36.13l.31.23.16.21h.01s.09.1.09.1l.19.06h1.02s0,0,0,0h.03s.16,0,.16,0h.21s.02,0,.02,0l.15.05h.01s.16.05.16.05h.02s.02.02.02.02l.13.1h0s.14.1.14.1l.05.06.02.02.03.03,2.37,2.37.03.03h0s.02.02.02.02l.11.12h0s.12.12.12.12v.02s.03.02.03.02l.07.15h0s.08.16.08.16v.02s.01.03.01.03l.03.16h0s.03.15.03.15v.03s0,.1,0,.1v10.57Z"/></g></svg>