<?xml version="1.0" standalone="no"?>
 <!DOCTYPE svg PUBLIC "-//W3C//DTD SVG 1.1//EN" 
 "http://www.w3.org/Graphics/SVG/1.1/DTD/svg11.dtd"> 
<svg
  xmlns:svg="http://www.w3.org/2000/svg"
  xmlns="http://www.w3.org/2000/svg"
  xmlns:xlink="http://www.w3.org/1999/xlink"
  version="1.1"
  width="297.002mm" height="210.007mm" viewBox="0.000 0.000 297.002 210.007">
<title>SVG Image created as 1stTrial-F_Cu.svg date 2024/01/03 12:30:06 </title>
  <desc>Image generated by PCBNEW </desc>
<g style="fill:#000000; fill-opacity:1.000;stroke:#000000; stroke-opacity:1.000;
stroke-linecap:round; stroke-linejoin:round;"
 transform="translate(0 0) scale(1 1)">
</g>
<g style="fill:#000000; fill-opacity:0.0; 
stroke:#000000; stroke-width:0.000; stroke-opacity:1; 
stroke-linecap:round; stroke-linejoin:round;">
<g >
</g>
<g style="fill:#000000; fill-opacity:0.0; 
stroke:#000000; stroke-width:0.000; stroke-opacity:1; 
stroke-linecap:round; stroke-linejoin:round;">
</g>
<g style="fill:#000000; fill-opacity:1.000; 
stroke:#000000; stroke-width:0.000; stroke-opacity:1; 
stroke-linecap:round; stroke-linejoin:round;">
<path style="fill:#000000; fill-opacity:1.000; 
stroke:#000000; stroke-width:0.000; stroke-opacity:1; 
stroke-linecap:round; stroke-linejoin:round;fill-rule:evenodd;"
d="M 79.203,67.465
79.107,67.446
79.026,67.392
78.972,67.311
78.953,67.215
78.953,66.690
78.972,66.594
79.026,66.513
79.107,66.459
79.203,66.440
80.102,66.440
80.198,66.459
80.279,66.513
80.333,66.594
80.352,66.690
80.352,67.215
80.333,67.311
80.279,67.392
80.198,67.446
80.102,67.465
Z" /> 
<path style="fill:#000000; fill-opacity:1.000; 
stroke:#000000; stroke-width:0.000; stroke-opacity:1; 
stroke-linecap:round; stroke-linejoin:round;fill-rule:evenodd;"
d="M 79.203,65.640
79.107,65.621
79.026,65.567
78.972,65.486
78.953,65.390
78.953,64.865
78.972,64.769
79.026,64.688
79.107,64.634
79.203,64.615
80.102,64.615
80.198,64.634
80.279,64.688
80.333,64.769
80.352,64.865
80.352,65.390
80.333,65.486
80.279,65.567
80.198,65.621
80.102,65.640
Z" /> 
</g>
<g >
</g>
<g style="fill:#000000; fill-opacity:1.000; 
stroke:#000000; stroke-width:0.000; stroke-opacity:1; 
stroke-linecap:round; stroke-linejoin:round;">
<path style="fill:#000000; fill-opacity:1.000; 
stroke:#000000; stroke-width:0.000; stroke-opacity:1; 
stroke-linecap:round; stroke-linejoin:round;fill-rule:evenodd;"
d="M 78.595,71.970
78.595,70.270
80.295,70.270
80.295,71.970
Z" /> 
</g>
<g >
</g>
<g style="fill:#000000; fill-opacity:1.000; 
stroke:#000000; stroke-width:0.000; stroke-opacity:1; 
stroke-linecap:round; stroke-linejoin:round;">
<path style="fill:#000000; fill-opacity:1.000; 
stroke:#000000; stroke-width:0.000; stroke-opacity:1; 
stroke-linecap:round; stroke-linejoin:round;fill-rule:evenodd;"
d="M 78.595,61.810
78.595,60.110
80.295,60.110
80.295,61.810
Z" /> 
</g>
<g >
</g>
<g >
</g>
<g style="fill:#000000; fill-opacity:1.000; 
stroke:#000000; stroke-width:0.000; stroke-opacity:1; 
stroke-linecap:round; stroke-linejoin:round;">
</g>
<g style="fill:#000000; fill-opacity:1.000; 
stroke:#000000; stroke-width:0.508; stroke-opacity:1; 
stroke-linecap:round; stroke-linejoin:round;">
</g>
<g style="fill:#000000; fill-opacity:0.0; 
stroke:#000000; stroke-width:0.508; stroke-opacity:1; 
stroke-linecap:round; stroke-linejoin:round;">
<path d="M80.645 71.120
L79.445 71.120
" />
<path d="M81.915 69.850
L80.645 71.120
" />
<path d="M81.002 65.127
L81.915 66.040
" />
<path d="M81.915 66.040
L81.915 69.850
" />
<path d="M79.653 65.127
L81.002 65.127
" />
<path d="M77.470 60.960
L76.835 61.595
" />
<path d="M76.835 61.595
L76.835 66.040
" />
<path d="M76.835 66.040
L77.748 66.953
" />
<path d="M77.748 66.953
L79.653 66.953
" />
<path d="M79.445 60.960
L77.470 60.960
" />
</g>
<g >
</g>
<g style="fill:#000000; fill-opacity:0.0; 
stroke:#000000; stroke-width:0.508; stroke-opacity:1; 
stroke-linecap:round; stroke-linejoin:round;">
<g >
</g>
<g style="fill:#000000; fill-opacity:1.000; 
stroke:#000000; stroke-width:0.000; stroke-opacity:1; 
stroke-linecap:round; stroke-linejoin:round;">
<path style="fill:#000000; fill-opacity:1.000; 
stroke:#000000; stroke-width:0.000; stroke-opacity:1; 
stroke-linecap:round; stroke-linejoin:round;fill-rule:evenodd;"
d="M 86.303,55.900
86.348,55.953
86.359,56.005
86.359,76.075
86.340,76.143
86.287,76.188
86.236,76.200
73.784,76.200
73.717,76.180
73.672,76.127
73.660,76.075
73.660,71.990
78.394,71.990
78.406,72.048
78.406,72.048
78.450,72.115
78.517,72.159
78.517,72.159
78.575,72.170
78.575,72.170
78.575,72.170
80.315,72.170
80.315,72.170
80.330,72.168
80.373,72.159
80.373,72.159
80.373,72.159
80.440,72.115
80.484,72.048
80.484,72.048
80.484,72.048
80.495,71.990
80.495,71.990
80.495,71.699
80.515,71.632
80.568,71.586
80.633,71.576
80.662,71.579
80.719,71.569
80.723,71.568
80.780,71.559
80.780,71.559
80.789,71.557
80.797,71.554
80.797,71.554
80.797,71.554
80.848,71.527
80.852,71.525
80.904,71.500
80.904,71.500
80.904,71.500
80.911,71.495
80.918,71.490
80.918,71.490
80.959,71.449
80.962,71.446
81.004,71.407
81.004,71.407
81.010,71.399
81.011,71.400
81.020,71.388
82.213,70.194
82.224,70.185
82.252,70.163
82.284,70.115
82.287,70.111
82.321,70.065
82.321,70.065
82.325,70.057
82.329,70.049
82.329,70.049
82.346,69.994
82.348,69.990
82.367,69.935
82.367,69.935
82.367,69.935
82.368,69.927
82.370,69.919
82.370,69.861
82.370,69.856
82.372,69.799
82.371,69.789
82.372,69.789
82.370,69.774
82.370,66.072
82.370,66.059
82.374,66.023
82.373,66.014
82.364,65.966
82.363,65.962
82.354,65.905
82.352,65.896
82.349,65.888
82.322,65.837
82.320,65.833
82.295,65.781
82.290,65.774
82.285,65.767
82.244,65.726
82.241,65.723
82.202,65.681
82.202,65.681
82.202,65.681
82.202,65.681
82.194,65.675
82.195,65.674
82.183,65.665
81.347,64.829
81.338,64.819
81.331,64.811
81.315,64.791
81.267,64.758
81.264,64.755
81.217,64.721
81.210,64.717
81.202,64.713
81.202,64.713
81.202,64.713
81.147,64.696
81.142,64.695
81.088,64.676
81.080,64.674
81.071,64.673
81.071,64.673
81.013,64.673
81.009,64.673
81.007,64.673
80.951,64.671
80.942,64.672
80.942,64.671
80.926,64.673
80.583,64.673
80.516,64.653
80.484,64.623
80.480,64.618
80.425,64.543
80.315,64.462
80.315,64.462
80.187,64.417
80.157,64.415
80.157,64.415
79.148,64.415
79.148,64.415
79.118,64.417
79.118,64.417
78.990,64.462
78.990,64.462
78.880,64.543
78.800,64.652
78.800,64.652
78.755,64.780
78.755,64.780
78.752,64.811
78.752,65.444
78.755,65.475
78.755,65.475
78.792,65.582
78.800,65.603
78.880,65.712
78.990,65.793
79.011,65.800
79.118,65.838
79.148,65.840
79.148,65.840
80.157,65.840
80.187,65.838
80.187,65.838
80.251,65.815
80.315,65.793
80.425,65.712
80.484,65.632
80.539,65.590
80.583,65.582
80.763,65.582
80.830,65.602
80.851,65.618
81.424,66.192
81.458,66.253
81.460,66.280
81.460,69.610
81.441,69.677
81.424,69.698
80.707,70.415
80.646,70.449
80.576,70.444
80.520,70.402
80.496,70.336
80.495,70.327
80.495,70.250
80.495,70.250
80.484,70.192
80.484,70.192
80.440,70.125
80.373,70.081
80.373,70.081
80.315,70.069
80.315,70.069
78.575,70.069
78.575,70.069
78.517,70.081
78.517,70.081
78.450,70.125
78.406,70.192
78.406,70.192
78.394,70.250
78.394,71.990
73.660,71.990
73.660,66.057
76.376,66.057
76.386,66.114
76.387,66.118
76.396,66.175
76.398,66.184
76.401,66.192
76.428,66.243
76.430,66.247
76.455,66.299
76.460,66.306
76.465,66.313
76.465,66.313
76.465,66.313
76.506,66.354
76.509,66.357
76.519,66.368
76.548,66.399
76.556,66.405
76.555,66.406
76.567,66.415
77.403,67.251
77.412,67.261
77.435,67.289
77.435,67.289
77.483,67.322
77.486,67.325
77.533,67.359
77.540,67.363
77.548,67.367
77.578,67.376
77.603,67.384
77.608,67.385
77.628,67.392
77.662,67.404
77.662,67.404
77.662,67.404
77.662,67.404
77.670,67.406
77.679,67.407
77.679,67.407
77.737,67.407
77.741,67.407
77.759,67.408
77.799,67.409
77.799,67.409
77.799,67.409
77.799,67.409
77.808,67.408
77.808,67.409
77.824,67.407
78.722,67.407
78.789,67.427
78.821,67.457
78.880,67.537
78.990,67.618
79.032,67.633
79.118,67.663
79.148,67.665
79.148,67.665
80.157,67.665
80.187,67.663
80.187,67.663
80.251,67.640
80.315,67.618
80.425,67.537
80.505,67.428
80.529,67.359
80.550,67.300
80.550,67.300
80.553,67.269
80.553,66.636
80.550,66.605
80.550,66.605
80.505,66.477
80.505,66.477
80.494,66.462
80.425,66.368
80.315,66.287
80.315,66.287
80.187,66.242
80.157,66.239
80.157,66.239
79.148,66.239
79.148,66.239
79.118,66.242
79.118,66.242
78.990,66.287
78.990,66.287
78.880,66.368
78.821,66.448
78.766,66.490
78.722,66.498
77.987,66.498
77.920,66.478
77.899,66.462
77.326,65.888
77.292,65.827
77.289,65.800
77.289,61.835
77.309,61.768
77.326,61.747
77.622,61.451
77.683,61.417
77.710,61.414
78.270,61.414
78.338,61.434
78.383,61.487
78.394,61.538
78.394,61.830
78.406,61.888
78.406,61.888
78.450,61.955
78.517,61.999
78.517,61.999
78.575,62.010
78.575,62.011
78.575,62.011
80.315,62.011
80.315,62.010
80.330,62.008
80.373,61.999
80.373,61.999
80.373,61.999
80.440,61.955
80.484,61.888
80.484,61.888
80.484,61.888
80.493,61.845
80.495,61.830
80.495,60.090
80.495,60.090
80.495,60.090
80.484,60.032
80.484,60.032
80.440,59.965
80.373,59.921
80.373,59.921
80.315,59.909
80.315,59.909
78.575,59.909
78.575,59.909
78.517,59.921
78.517,59.921
78.450,59.965
78.406,60.032
78.406,60.032
78.394,60.090
78.394,60.381
78.375,60.449
78.322,60.494
78.270,60.505
77.502,60.505
77.489,60.505
77.486,60.504
77.453,60.501
77.396,60.511
77.392,60.512
77.343,60.519
77.335,60.521
77.335,60.521
77.335,60.521
77.326,60.523
77.318,60.526
77.267,60.553
77.263,60.555
77.211,60.580
77.204,60.585
77.197,60.590
77.156,60.631
77.153,60.634
77.111,60.673
77.105,60.681
77.104,60.680
77.095,60.692
76.537,61.251
76.526,61.260
76.498,61.282
76.466,61.330
76.463,61.334
76.429,61.380
76.425,61.388
76.421,61.396
76.404,61.451
76.402,61.455
76.383,61.510
76.382,61.518
76.380,61.526
76.380,61.584
76.380,61.589
76.378,61.646
76.379,61.656
76.378,61.656
76.380,61.671
76.380,66.008
76.380,66.021
76.376,66.057
73.660,66.057
73.660,56.005
73.680,55.937
73.733,55.892
73.784,55.880
86.236,55.880
Z" /> 
</g>
</g>
</g> 
</svg>
