<svg xmlns="http://www.w3.org/2000/svg" viewBox="0 0 106.934 101.56625" width="106.934mm" height="101.56625mm">
                    <g><polyline fill="none" stroke="#66cc99" stroke-width="0.4" points="76.062,17.02109192026123 76.062,17.021091920261235 76.04484192026123,17.03825" opacity="0.8" /><polyline fill="none" stroke="#66cc99" stroke-width="0.4" points="31.733458079738767,29.91285 32.06819959415474,29.57810848558403" opacity="0.8" /><polyline fill="none" stroke="#66cc99" stroke-width="0.4" points="32.06819959415474,29.57810848558403 33.38128203147282,28.26502604826594" opacity="0.8" /><polyline fill="none" stroke="#66cc99" stroke-width="0.4" points="33.38128203147282,28.26502604826594 33.58322903986938,28.063079039869383 33.58999790870308,28.05596947460147 33.615107207802204,28.028265632235744 33.627558489027315,28.013093702164852 33.64983142858338,27.983062119678973 33.66073564428733,27.96674280761911 33.67995772371678,27.93467270556934 33.689209860341414,27.917363175416753 33.70519596051149,27.883563406417146 33.7127069149234,27.865430358409554 33.725303080950574,27.830226432712404 33.73100051855289,27.811444498014584 33.74008544247255,27.77517544866878 33.74391449382658,27.75592550757924 33.74940068285506,27.71894062535666 33.75132447210314,27.699408065331035 33.75315909124103,27.662063534865467 33.7534,27.65225 33.7534,25.851510851019704 33.75708877822417,25.850777113004984 33.77612760506497,25.8460081673676 33.794607318104575,25.839396059085033 33.812349948572816,25.831004466028066 33.829184626169,25.820914203385367 33.84,25.813687641182533" opacity="0.8" /><polyline fill="none" stroke="#66cc99" stroke-width="0.4" points="33.84,25.813687641182533 33.910290626169,25.76672120338537 33.92605546139535,25.755029251063654 33.94059835623731,25.741848356237305 33.95377925106365,25.727305461395353 33.96547120338537,25.711540626169004 34.01966420338537,25.630434626169002 34.029754466028066,25.613599948572816 34.03814605908504,25.595857318104574 34.0447581673676,25.577377605064974 34.049527113004984,25.55833877822417 34.068557113004985,25.46266777822417 34.071436959634376,25.443253282875627 34.0724,25.42365 34.0724,24.89865 34.071436959634376,24.87904671712437 34.068557113004985,24.85963222177583 34.049527113004984,24.76396122177583 34.0447581673676,24.744922394935028 34.03814605908504,24.726442681895428 34.029754466028066,24.708700051427186 34.01966420338537,24.691865373830996 33.96547120338537,24.610759373830998 33.95377925106365,24.59499453860465 33.94059835623731,24.580451643762693 33.92605546139535,24.567270748936348 33.910290626169,24.555578796614633 33.84,24.508612358817466" opacity="0.8" /><polyline fill="none" stroke="#66cc99" stroke-width="0.4" points="33.84,24.508612358817466 33.829184626169,24.50138579661463 33.812349948572816,24.491295533971936 33.794607318104575,24.482903940914966 33.77612760506497,24.4762918326324 33.75708877822417,24.471522886995018 33.66141777822417,24.452492886995017 33.64200328287563,24.449613040365623 33.63249867412455,24.44914611235439" opacity="0.8" /><polyline fill="none" stroke="#66cc99" stroke-width="0.4" points="33.63249867412455,24.44914611235439 33.6224,24.44865 32.7224,24.44865 32.70279671712437,24.449613040365623 32.68338222177583,24.452492886995017 32.58771122177583,24.471522886995018 32.56867239493503,24.4762918326324 32.550192681895425,24.482903940914966 32.53245005142718,24.491295533971936 32.515615373831,24.50138579661463 32.434509373831,24.555578796614633 32.41874453860465,24.567270748936348 32.40420164376269,24.580451643762693 32.39102074893635,24.59499453860465 32.37932879661463,24.610759373830998 32.32513579661463,24.691865373830996 32.31504553397193,24.708700051427186 32.30665394091496,24.726442681895428 32.3000418326324,24.744922394935028 32.295272886995015,24.76396122177583 32.276242886995014,24.85963222177583 32.27336304036562,24.87904671712437 32.2724,24.89865 32.2724,25.42365 32.27336304036562,25.443253282875627 32.276242886995014,25.46266777822417 32.295272886995015,25.55833877822417 32.3000418326324,25.577377605064974 32.30665394091496,25.595857318104574 32.31504553397193,25.613599948572816 32.32513579661463,25.630434626169002 32.37932879661463,25.711540626169004 32.39102074893635,25.727305461395353 32.40420164376269,25.741848356237305 32.41874453860465,25.755029251063654 32.434509373831,25.76672120338537 32.515615373831,25.820914203385367 32.53245005142718,25.831004466028066 32.550192681895425,25.839396059085033 32.56867239493503,25.8460081673676 32.58771122177583,25.850777113004984 32.5914,25.851510851019704 32.5914,27.411591920261234 30.674,29.328991920261235" opacity="0.8" /><polyline fill="none" stroke="#66cc99" stroke-width="0.4" points="31.12958218005214,22.887594727090917 31.110049620026516,22.889518516338995 31.085781324604877,22.89311837790624 31.066531383515358,22.896947429260276 31.04273279470577,22.90290866542803 31.023950860007925,22.908606103030348 31.00085117123027,22.916871303835578 30.98271812322267,22.924382258247487 30.960539797107444,22.934871825288223 30.94323026695483,22.94412396191287 30.922186892906435,22.956736874924324 30.90586758084664,22.96764109062822 30.88616181806062,22.982255880363173 30.870989887989683,22.99470716158832 30.85281151373396,23.011183079632364 30.845701948466054,23.017951948466056 29.145801948466055,24.717851948466055 29.139033079632362,24.724961513733962 29.12255716158832,24.743139887989685 29.110105880363175,24.758311818060623 29.095491090628222,24.778017580846637 29.084586874924323,24.794336892906436 29.07197396191287,24.815380266954833 29.06272182528822,24.83268979710744 29.052232258247486,24.854868123222673 29.04472130383558,24.87300117123027 29.036456103030346,24.896100860007927 29.030758665428028,24.914882794705772 29.024797429260275,24.93868138351536 29.02096837790624,24.957931324604875 29.017368516338998,24.982199620026513 29.015444727090916,25.001732180052137 29.014240908758968,25.02623646513453 29.014,25.03605 29.014,25.82325" opacity="0.8" /><polyline fill="none" stroke="#66cc99" stroke-width="0.4" points="29.914,26.00964610306789 29.914,25.222446103067888 31.35029610306789,23.78615 32.13749610306789,23.78615" opacity="0.8" /><polyline fill="none" stroke="#66cc99" stroke-width="0.4" points="32.13749610306789,23.78615 32.31388680097175,23.78615 32.31504553397193,23.788599948572813 32.32513579661463,23.805434626169003 32.37932879661463,23.886540626169005 32.39102074893635,23.902305461395354 32.40420164376269,23.916848356237306 32.41874453860465,23.93002925106365 32.434509373831,23.941721203385367 32.515615373831,23.995914203385368 32.53245005142718,24.006004466028063 32.550192681895425,24.014396059085033 32.56867239493503,24.0210081673676 32.58771122177583,24.02577711300498 32.68338222177583,24.044807113004982 32.70279671712437,24.04768695963438 32.7224,24.04865 33.6224,24.04865 33.64200328287563,24.04768695963438 33.66141777822417,24.044807113004982 33.75708877822417,24.02577711300498 33.77612760506497,24.0210081673676 33.794607318104575,24.014396059085033 33.812349948572816,24.006004466028063 33.829184626169,23.995914203385368 33.84,23.988687641182533" opacity="0.8" /><polyline fill="none" stroke="#66cc99" stroke-width="0.4" points="33.84,23.988687641182533 33.910290626169,23.941721203385367 33.92605546139535,23.93002925106365 33.94059835623731,23.916848356237306 33.95377925106365,23.902305461395354 33.96547120338537,23.886540626169005 34.01966420338537,23.805434626169003 34.029754466028066,23.788599948572813 34.03091319902825,23.78615 34.0849,23.78615 34.09471353486547,23.78590909124103 34.11921781994786,23.784705272909083 34.13875037997349,23.782781483661005 34.16301867539512,23.77918162209376 34.18226861648464,23.775352570739724 34.20606720529423,23.76939133457197 34.224849139992074,23.763693896969652 34.24794882876973,23.755428696164422 34.26608187677733,23.747917741752513 34.28826020289256,23.737428174711777 34.30556973304517,23.72817603808713 34.326613107093564,23.715563125075676 34.342932419153364,23.70465890937178 34.36263818193938,23.690044119636827 34.377810112010316,23.67759283841168 34.39598848626604,23.661116920367636 34.403098051533945,23.654348051533944 34.74,23.31744610306789" opacity="0.8" /><polyline fill="none" stroke="#66cc99" stroke-width="0.4" points="34.74,23.31744610306789 35.624198051533945,22.433248051533944 35.630966920367634,22.42613848626604 35.647442838411685,22.407960112010315 35.659894119636824,22.392788181939377 35.67450890937178,22.373082419153363 35.68541312507568,22.356763107093567 35.69802603808713,22.335719733045167 35.70727817471178,22.318410202892558 35.71776774175251,22.296231876777327 35.72527869616442,22.27809882876973 35.73354389696966,22.254999139992073 35.73924133457197,22.236217205294228 35.74520257073972,22.21241861648464 35.74903162209376,22.193168675395125 35.752631483661006,22.168900379973486 35.75455527290908,22.149367819947862 35.75575909124103,22.12486353486547 35.756,22.11505 35.756,21.10764610306789" opacity="0.8" /><polyline fill="none" stroke="#66cc99" stroke-width="0.4" points="35.756,21.10764610306789 35.756,19.834853896932106" opacity="0.8" /><polyline fill="none" stroke="#66cc99" stroke-width="0.4" points="35.756,19.834853896932106 35.756,19.606031" opacity="0.8" /><polyline fill="none" stroke="#66cc99" stroke-width="0.4" points="34.856,19.419634896932106 34.856,20.692427103067892" opacity="0.8" /><polyline fill="none" stroke="#66cc99" stroke-width="0.4" points="34.856,20.692427103067892 34.856,20.734853896932112" opacity="0.8" /><polyline fill="none" stroke="#66cc99" stroke-width="0.4" points="34.856,20.734853896932112 34.856,21.92865389693211 33.97885866349487,22.80579523343724 33.96547120338537,22.785759373830995 33.95377925106365,22.769994538604646 33.94059835623731,22.755451643762694 33.92605546139535,22.74227074893635 33.910290626169,22.730578796614633 33.84,22.683612358817467" opacity="0.8" /><polyline fill="none" stroke="#66cc99" stroke-width="0.4" points="33.84,22.683612358817467 33.829184626169,22.676385796614632 33.812349948572816,22.666295533971937 33.794607318104575,22.657903940914967 33.77612760506497,22.6512918326324 33.75708877822417,22.64652288699502 33.66141777822417,22.627492886995018 33.64200328287563,22.62461304036562 33.63249867412455,22.62414611235439" opacity="0.8" /><polyline fill="none" stroke="#66cc99" stroke-width="0.4" points="33.63249867412455,22.62414611235439 33.6224,22.62365 32.7224,22.62365 32.70279671712437,22.62461304036562 32.68338222177583,22.627492886995018 32.58771122177583,22.64652288699502 32.56867239493503,22.6512918326324 32.550192681895425,22.657903940914967 32.53245005142718,22.666295533971937 32.515615373831,22.676385796614632 32.434509373831,22.730578796614633 32.41874453860465,22.74227074893635 32.40420164376269,22.755451643762694 32.39102074893635,22.769994538604646 32.37932879661463,22.785759373830995 32.32513579661463,22.866865373830997 32.31504553397193,22.883700051427187 32.31388680097175,22.88615 31.76470389693211,22.88615" opacity="0.8" /><polyline fill="none" stroke="#66cc99" stroke-width="0.4" points="31.76470389693211,22.88615 31.1639,22.88615 31.15408646513453,22.88639090875897 31.12958218005214,22.887594727090917" opacity="0.8" /><polyline fill="none" stroke="#66cc99" stroke-width="0.4" points="38.552,18.95925 38.552,19.85925" opacity="0.8" /></g>
                    <circle r="1.0" cx="30" cy="16" stroke-width="0.1" fill="none" stroke="black"/><circle r="1.0" cx="81" cy="47" stroke-width="0.1" fill="none" stroke="black"/><circle r="1.0" cx="81" cy="16" stroke-width="0.1" fill="none" stroke="black"/><circle r="1.0" cx="30" cy="47" stroke-width="0.1" fill="none" stroke="black"/><rect width="57.0" height="37.0" x="27" y="13" stroke-width="0.1" fill="none" stroke="black"/>
                    </svg>