<svg xmlns="http://www.w3.org/2000/svg" viewBox="0 0 106.934 101.56625" width="106.934mm" height="101.56625mm">
                    <g stroke-linecap="round" fill-rule="nonzero">
                        <g><path fill-rule="evenodd" fill="#66cc99" stroke="#555555" stroke-width="0.0" opacity="1" d="M 75.90342056402392,16.896828643762706 L 75.89023982958867,16.911371343167286 L 75.87854799780071,16.927135953396096 L 75.86845766739155,16.943970652634817 L 75.86006601375897,16.961713313527003 L 75.85345385311479,16.98019306454913 L 75.84868486418058,16.999231935596793 L 75.84580497492679,17.01864657193411 L 75.84484192026123,17.038250000000023 L 75.84580497492679,17.057853428065933 L 75.8486848641806,17.077268064403246 L 75.8534538531148,17.09630693545091 L 75.86006601375898,17.11478668647304 L 75.86845766739157,17.132529347365217 L 75.87854799780074,17.149364046603935 L 75.8902398295887,17.165128656832746 L 75.90342056402395,17.179671356237325 L 75.91796326342852,17.19285209067256 L 75.93372787365733,17.204543922460523 L 75.95056257289605,17.21463425286968 L 75.96830523378824,17.223025906502265 L 75.98678498481037,17.229638067146446 L 76.00582385585803,17.234407056080652 L 76.02523849219534,17.237286945334443 L 76.04484192026125,17.23825 L 76.06444534832717,17.23728694533444 L 76.08385998466449,17.23440705608064 L 76.10289885571214,17.229638067146436 L 76.12137860673428,17.22302590650225 L 76.13912126762645,17.21463425286966 L 76.15595596686516,17.204543922460495 L 76.17172057709398,17.192852090672535 L 76.18626327649855,17.179671356237293 L 76.20342135623733,17.162513276498526 L 76.21660209067257,17.147970577093943 L 76.22829392246052,17.132205966865133 L 76.23838425286968,17.11537126762641 L 76.24677590650226,17.097628606734226 L 76.25338806714645,17.079148855712102 L 76.25815705608065,17.060109984664436 L 76.26103694533444,17.040695348327123 L 76.262,17.02109192026121 L 76.26103694533444,17.001488492195296 L 76.25815705608063,16.982073855857983 L 76.25338806714643,16.963034984810317 L 76.24677590650225,16.944555233788194 L 76.23838425286966,16.92681257289601 L 76.2282939224605,16.909977873657294 L 76.21660209067254,16.894213263428483 L 76.20342135623729,16.879670564023904 L 76.18887865683271,16.86648982958867 L 76.1731140466039,16.85479799780071 L 76.15627934736519,16.84470766739155 L 76.138536686473,16.836316013758964 L 76.12005693545086,16.829703853114783 L 76.1010180644032,16.82493486418058 L 76.08160342806589,16.82205497492679 L 76.06199999999998,16.82109192026123 L 76.04239657193406,16.822054974926793 L 76.02298193559675,16.824934864180587 L 76.00394306454909,16.829703853114793 L 75.98546331352696,16.836316013758978 L 75.96772065263478,16.844707667391567 L 75.95088595339607,16.854797997800734 L 75.93512134316725,16.866489829588698 L 75.92057864376268,16.879670564023936 L 75.90342056402392,16.896828643762706 z" /><path fill-rule="evenodd" fill="#66cc99" stroke="#555555" stroke-width="0.0" opacity="1" d="M 31.675774329463533,24.53071448607897 L 31.673685773990034,24.54121444355166 L 31.6720075528918,24.550886343355387 L 31.6691277062624,24.57030083870393 L 31.667203945545292,24.589833255117394 L 31.666240905179674,24.60943653799302 L 31.666,24.61925 L 31.666,25.14425 L 31.666240905179674,25.154063462006977 L 31.667203945545292,25.173666744882606 L 31.6691277062624,25.193199161296068 L 31.6720075528918,25.212613656644614 L 31.673685773990034,25.22228555644834 L 31.692715773990034,25.31795655644834 L 31.694866558962577,25.32753450523147 L 31.699635504599957,25.34657333207227 L 31.705332894277923,25.36535522550241 L 31.71194500256049,25.38383493854201 L 31.71945590038638,25.401967952186084 L 31.72784749344335,25.41971058265433 L 31.737099565758825,25.437020086628667 L 31.74718982840152,25.453854764224857 L 31.752441593229264,25.462148252338007 L 31.806634593229266,25.543254252338006 L 31.81228706440621,25.551280182459415 L 31.823979016727925,25.567045017685764 L 31.83643043897158,25.58221715869885 L 31.849611333797924,25.5967600535408 L 31.863489946459197,25.610638666202075 L 31.87803284130115,25.62381956102842 L 31.893204982314238,25.636270983272077 L 31.908969817540587,25.647962935593792 L 31.916995747661993,25.653615406770736 L 31.985,25.699054146777073 L 31.985,26.30344585322293 L 31.916995747661993,26.348884593229265 L 31.908969817540587,26.35453706440621 L 31.906402976998805,26.356440755551784 L 31.90405648692803,26.3569075014468 L 31.89447851535059,26.359058306888535 L 31.85820946600478,26.36814323080819 L 31.848748566534475,26.37076141430068 L 31.82996663183665,26.376458851903 L 31.82064559660914,26.379538106012827 L 31.78544167091199,26.392134272040003 L 31.776282955117413,26.395667178574346 L 31.758149907109818,26.403178132986255 L 31.749175574896807,26.40715618086382 L 31.7153758058972,26.423142281033897 L 31.706607477218054,26.427555886788912 L 31.689297947065466,26.436808023413548 L 31.68075674559202,26.441646554283164 L 31.648686643542252,26.460868633712618 L 31.640393145776958,26.466120433252172 L 31.624073833717095,26.477024648956114 L 31.616048019422525,26.4826770651205 L 31.586016436936646,26.504950004676573 L 31.578277641002476,26.510989420300096 L 31.563105710931584,26.523440701525203 L 31.555672576794862,26.529852567126788 L 31.527968734429137,26.554961866225913 L 31.524372416451023,26.55830267470672 L 31.51726285118311,26.56507154354042 L 31.51374960389331,26.56849960389331 L 30.70274960389331,27.37949960389331 L 30.699321543540417,27.38301285118311 L 30.692552674706718,27.39012241645102 L 30.689211866225914,27.393718734429136 L 30.66410256712679,27.421422576794864 L 30.657690701525205,27.428855710931582 L 30.645239420300097,27.444027641002478 L 30.639200004676574,27.451766436936648 L 30.616927065120503,27.481798019422524 L 30.611274648956112,27.489823833717093 L 30.60037043325217,27.506143145776957 L 30.59511863371262,27.514436643542254 L 30.575896554283165,27.54650674559202 L 30.571058023413546,27.555047947065464 L 30.56180588678891,27.572357477218056 L 30.557392281033895,27.581125805897198 L 30.54140618086382,27.614925574896805 L 30.537428132986253,27.62389990710982 L 30.529917178574348,27.64203295511741 L 30.52638427204,27.65119167091199 L 30.51378810601283,27.686395596609138 L 30.510708851903,27.695716631836653 L 30.50501141430068,27.714498566534473 L 30.50239323080819,27.723959466004782 L 30.493308306888537,27.760228515350587 L 30.4911575014468,27.76980648692803 L 30.48732845009276,27.78905642801757 L 30.485650204180462,27.79872839752967 L 30.480164015151985,27.835713279752248 L 30.478962371810496,27.84545594657746 L 30.477038582562418,27.864988506603083 L 30.47631643665583,27.874778399803496 L 30.474481817517937,27.912122930269064 L 30.474301145019734,27.917028219429888 L 30.474060236260765,27.926841754295356 L 30.474,27.93175 L 30.474,29.328991920261235 L 30.474963054665558,29.348595348327144 L 30.477842943919352,29.36800998466446 L 30.48261193285356,29.387048855712123 L 30.489224093497747,29.405528606734254 L 30.497615747130325,29.423271267626436 L 30.50770607753949,29.44010596686515 L 30.519397909327456,29.455870577093965 L 30.532578643762694,29.47041327649854 L 30.54712134316727,29.48359401093378 L 30.562885953396083,29.495285842721746 L 30.579720652634798,29.50537617313091 L 30.59746331352698,29.513767826763488 L 30.61594306454911,29.520379987407676 L 30.634981935596773,29.52514897634188 L 30.65439657193409,29.528028865595676 L 30.674,29.528991920261234 L 30.69360342806591,29.528028865595676 L 30.71301806440323,29.52514897634188 L 30.73205693545089,29.520379987407676 L 30.75053668647302,29.513767826763488 L 30.7682793473652,29.50537617313091 L 30.78511404660392,29.495285842721746 L 30.800878656832733,29.48359401093378 L 30.81542135623731,29.47041327649854 L 30.828602090672547,29.455870577093965 L 30.84029392246051,29.44010596686515 L 30.850384252869674,29.423271267626436 L 30.858775906502256,29.405528606734254 L 30.865388067146444,29.387048855712123 L 30.870157056080647,29.36800998466446 L 30.87303694533444,29.348595348327144 L 30.874,29.328991920261235 L 30.874,27.934204492475793 L 30.874120436237448,27.929298464067816 L 30.875593710378922,27.899309279978187 L 30.87655502533175,27.889548885465988 L 30.88060040197252,27.86227717138029 L 30.882513773889638,27.85265800117819 L 30.88921276636275,27.825914124099732 L 30.892059768426687,27.816528816075003 L 30.901347861772514,27.790570334160016 L 30.90510107579712,27.781509273959315 L 30.916888820599386,27.756586181578808 L 30.921512101081767,27.747936632165484 L 30.935685974914193,27.724288952323413 L 30.94113479713611,27.716134213586354 L 30.957558297845512,27.69398968636669 L 30.963780186670004,27.686408292898232 L 30.98394397996626,27.664160975329974 L 30.987327904641973,27.660606728093878 L 31.794856728093876,26.85307790464197 L 31.798410975329972,26.84969397996626 L 31.82065829289823,26.829530186670006 L 31.828239686366693,26.823308297845514 L 31.850384213586352,26.806884797136114 L 31.858538952323414,26.80143597491419 L 31.882186632165485,26.787262101081765 L 31.89083618157881,26.782638820599384 L 31.915759273959317,26.77085107579712 L 31.924820334160014,26.767097861772516 L 31.950778816075005,26.757809768426686 L 31.96016412409973,26.75496276636275 L 31.98690800117819,26.74826377388964 L 31.996527171380276,26.746350401972517 L 32.02304162026446,26.742417355013245 L 32.04229157887182,26.738588299271218 L 32.061073530058486,26.7328908538891 L 32.079206593034826,26.725379888481328 L 32.096516136170855,26.71612773788362 L 32.11283545879743,26.70522350552776 L 32.12800739662772,26.692772205325195 L 32.136643816025924,26.684135775789255 L 32.139376018921176,26.681659454575502 L 32.143305346143855,26.678745278443344 L 32.21624671756294,26.630007678989372 L 32.22042219958435,26.627505004969315 L 32.22990694878313,26.62512921502746 L 32.229893253689774,26.625074540780602 L 32.243056676174,26.621777294777335 L 32.26153645540906,26.615165151192212 L 32.27927914517591,26.606773509922245 L 32.29611387331052,26.59668318723163 L 32.31187851183421,26.58499135864994 L 32.326421238338156,26.571810623116665 L 32.33960199811916,26.55726791858957 L 32.351293852985926,26.541503299560205 L 32.361384203745835,26.524668588249675 L 32.36977587459897,26.50692591247461 L 32.376388048996255,26.4884461442643 L 32.38115704794857,26.46940725426621 L 32.384036943291584,26.449992597787663 L 32.385,26.430389148980296 L 32.385,25.5721108510197 L 32.384036943291584,25.55250740221234 L 32.38115704794857,25.53309274573379 L 32.376388048996255,25.514053855735696 L 32.36977587459897,25.49557408752539 L 32.361384203745835,25.477831411750323 L 32.351293852985926,25.460996700439797 L 32.33960199811916,25.44523208141043 L 32.326421238338156,25.430689376883336 L 32.31187851183421,25.41750864135006 L 32.29611387331052,25.40581681276837 L 32.27927914517591,25.395726490077756 L 32.26153645540906,25.38733484880779 L 32.243056676174,25.380722705222666 L 32.229893253689774,25.377425459219396 L 32.22990694878313,25.37737078497254 L 32.22042219958435,25.374994995030686 L 32.21624671756294,25.372492321010625 L 32.143305346143855,25.323754721556657 L 32.13939521663614,25.320854783363863 L 32.13649527844334,25.316944653856144 L 32.08775767898938,25.244003282437063 L 32.08525500496931,25.23982780041565 L 32.084072169916105,25.23510562627662 L 32.06695782557335,25.149065351047188 L 32.06624003430014,25.144226358861708 L 32.066,25.139340312073426 L 32.066,24.624159687926575 L 32.06624003430014,24.619273641138292 L 32.06695782557335,24.614434648952813 L 32.084072169916105,24.52839437372338 L 32.08525500496931,24.52367219958435 L 32.08775767898938,24.519496717562937 L 32.13649527844334,24.446555346143857 L 32.13939521663614,24.442645216636137 L 32.143305346143855,24.439745278443343 L 32.21624671756294,24.39100767898937 L 32.22042219958435,24.388505004969314 L 32.22514437372338,24.387322169916107 L 32.31118464895281,24.37020782557335 L 32.316023641138294,24.369490034300135 L 32.32090968792657,24.36925 L 33.21109031207342,24.36925 L 33.21597635886171,24.369490034300135 L 33.220815351047186,24.37020782557335 L 33.30685562627662,24.387322169916107 L 33.31157780041565,24.388505004969314 L 33.315753282437065,24.39100767898937 L 33.38869465385614,24.439745278443343 L 33.392604783363865,24.442645216636137 L 33.395504721556655,24.446555346143857 L 33.44424232101063,24.519496717562937 L 33.44674499503068,24.523672199584343 L 33.44792783008389,24.52839437372338 L 33.46504217442665,24.614434648952813 L 33.46575996569987,24.619273641138292 L 33.466,24.624159687926575 L 33.466,25.139340312073426 L 33.46575996569987,25.144226358861708 L 33.46504217442665,25.149065351047188 L 33.44792783008389,25.23510562627662 L 33.446744995030684,25.23982780041565 L 33.44424232101063,25.244003282437063 L 33.395504721556655,25.316944653856144 L 33.392604783363865,25.320854783363863 L 33.38869465385614,25.323754721556657 L 33.315753282437065,25.372492321010625 L 33.31157780041565,25.374994995030686 L 33.30209305121687,25.37737078497254 L 33.30210674631023,25.377425459219396 L 33.288943323826,25.380722705222666 L 33.270463544590946,25.38733484880779 L 33.25272085482409,25.395726490077756 L 33.235886126689486,25.40581681276837 L 33.22012148816579,25.41750864135006 L 33.20557876166184,25.430689376883336 L 33.19239800188084,25.44523208141043 L 33.18070614701407,25.460996700439797 L 33.17061579625417,25.477831411750323 L 33.162224125401025,25.49557408752539 L 33.15561195100374,25.514053855735696 L 33.150842952051434,25.53309274573379 L 33.14796305670842,25.55250740221234 L 33.147,25.5721108510197 L 33.147,26.430389148980296 L 33.14796305670842,26.449992597787663 L 33.150842952051434,26.46940725426621 L 33.15561195100374,26.4884461442643 L 33.162224125401025,26.50692591247461 L 33.17061579625417,26.524668588249675 L 33.18070614701407,26.541503299560205 L 33.19239800188084,26.55726791858957 L 33.20557876166184,26.571810623116665 L 33.22012148816579,26.58499135864994 L 33.235886126689486,26.59668318723163 L 33.25272085482409,26.606773509922245 L 33.270463544590946,26.615165151192212 L 33.288943323826,26.621777294777335 L 33.30210674631023,26.625074540780602 L 33.30209305121687,26.62512921502746 L 33.31157780041565,26.627505004969315 L 33.315753282437065,26.630007678989372 L 33.38869465385614,26.678745278443344 L 33.392604783363865,26.681645216636134 L 33.395504721556655,26.685555346143857 L 33.44424232101063,26.758496717562938 L 33.446744995030684,26.76267219958435 L 33.44792783008389,26.76739437372338 L 33.46504217442665,26.853434648952813 L 33.46575996569987,26.858273641138293 L 33.466,26.863159687926576 L 33.466,27.378340312073423 L 33.46575996569987,27.38322635886171 L 33.46504217442665,27.38806535104719 L 33.44792783008389,27.47410562627662 L 33.446744995030684,27.47882780041565 L 33.44424232101063,27.483003282437064 L 33.395504721556655,27.555944653856145 L 33.392604783363865,27.559854783363864 L 33.38869465385614,27.562754721556654 L 33.315753282437065,27.611492321010626 L 33.31157780041565,27.613994995030687 L 33.30685562627662,27.61517783008389 L 33.220815351047186,27.632292174426652 L 33.21597635886171,27.633009965699866 L 33.21109031207342,27.63325 L 32.32090968792657,27.63325 L 32.316023641138294,27.633009965699866 L 32.311184648952874,27.63229217442666 L 32.234274778326906,27.616993966631064 L 32.21486016682612,27.614114108561793 L 32.195256766674255,27.61315107963618 L 32.17565336877043,27.6141141543217 L 32.15623876399211,27.6169940577102 L 32.137199925041145,27.621763054840095 L 32.118720205799825,27.628375217798418 L 32.10097757553796,27.63676686803042 L 32.08414290497664,27.646857189597018 L 32.06837832071466,27.658549007474175 L 32.05383564386541,27.671729723398737 L 31.694578643762693,28.03098672350146 L 31.681397909327455,28.045529422906032 L 31.669706077539487,28.061294033134846 L 31.659615747130328,28.078128732373564 L 31.651224093497746,28.095871393265746 L 31.644611932853557,28.114351144287877 L 31.639842943919355,28.133390015335536 L 31.636963054665557,28.152804651672856 L 31.636,28.172408079738766 L 31.636,29.567195507524207 L 31.635879563762554,29.572101535932184 L 31.634406289621076,29.602090720021813 L 31.63344497466825,29.611851114534012 L 31.629399598027483,29.639122828619712 L 31.62748622611036,29.64874199882181 L 31.62078723363725,29.675485875900268 L 31.617940231573314,29.684871183924994 L 31.608652138227484,29.710829665839984 L 31.60489892420288,29.719890726040685 L 31.593111179400616,29.744813818421193 L 31.588487898918235,29.753463367834517 L 31.57431402508581,29.777111047676584 L 31.568865202863925,29.785265786413596 L 31.566951947278373,29.787845512937317 L 31.555688273074253,29.80476693656946 L 31.546200400590553,29.82274428926801 L 31.538586340720446,29.841591862761945 L 31.53292474764163,29.861114959292077 L 31.529274106309018,29.881111902862923 L 31.52767212829792,29.90137612258062 L 31.528135362238796,29.92169828655572 L 31.530659022867894,29.941868464327477 L 31.535217040459603,29.961678295471348 L 31.541762330129945,29.98092314198792 L 31.55022727822919,29.999404202238672 L 31.560524440799274,30.01693056459143 L 31.572547446880602,30.033321179561085 L 31.586172097337222,30.048406730073072 L 31.592036723501458,30.054271356237308 L 31.606579422906034,30.067452090672546 L 31.622344033134848,30.07914392246051 L 31.639178732373566,30.089234252869673 L 31.656921393265748,30.097625906502255 L 31.67540114428788,30.104238067146444 L 31.694440015335537,30.109007056080646 L 31.713854651672854,30.11188694533444 L 31.733458079738767,30.11285 L 31.753061507804677,30.11188694533444 L 31.772476144141994,30.109007056080646 L 31.791515015189656,30.104238067146444 L 31.809994766211787,30.097625906502255 L 31.827737427103965,30.089234252869673 L 31.844572126342683,30.07914392246051 L 31.860336736571497,30.067452090672546 L 31.874879435976073,30.054271356237308 L 31.88806017041131,30.039728656832732 L 31.89975200219928,30.02396404660392 L 31.909842332608438,30.0071293473652 L 31.91823398624102,29.98938668647302 L 31.92484614688521,29.970906935450888 L 31.92509092053625,29.969929744259574 L 31.934103445716836,29.95489325440798 L 31.938941976586452,29.946352052934536 L 31.948194113211088,29.929042522781945 L 31.952607718966103,29.920274194102802 L 31.96859381913618,29.886474425103195 L 31.972571867013745,29.87750009289018 L 31.980082821425654,29.85936704488259 L 31.983615727959997,29.85020832908801 L 31.996211893987173,29.815004403390862 L 31.999291148097,29.805683368163347 L 32.00498858569932,29.786901433465527 L 32.00752468842181,29.77773713578637 L 32.02322991337133,29.787150434241177 L 32.04053941734567,29.796402506556653 L 32.05828204781391,29.804794099613623 L 32.07641506145799,29.81230499743951 L 32.09489477449759,29.818917105722075 L 32.11367666792773,29.82461449540004 L 32.13271549476853,29.829383441037425 L 32.14229344355166,29.831534226009964 L 32.23796444355166,29.850564226009965 L 32.24763634335539,29.852242447108203 L 32.26705083870393,29.855122293737598 L 32.28658325511739,29.857046054454706 L 32.30618653799302,29.85800909482033 L 32.316,29.85825 L 33.216,29.85825 L 33.225813462006975,29.85800909482033 L 33.245416744882604,29.857046054454706 L 33.26494916129607,29.855122293737598 L 33.284363656644615,29.852242447108203 L 33.29403555644834,29.850564226009965 L 33.38970655644834,29.831534226009964 L 33.39928450523147,29.829383441037425 L 33.418323332072276,29.82461449540004 L 33.43710522550241,29.818917105722075 L 33.45558493854201,29.81230499743951 L 33.473717952186085,29.804794099613623 L 33.49146058265433,29.796402506556653 L 33.508770086628665,29.787150434241177 L 33.52560476422486,29.777060171598478 L 33.533898252338005,29.771808406770734 L 33.615004252338004,29.717615406770737 L 33.623030182459416,29.711962935593792 L 33.638795017685766,29.700270983272077 L 33.65396715869885,29.68781956102842 L 33.66851005354081,29.674638666202075 L 33.68238866620207,29.660760053540802 L 33.69556956102842,29.64621715869885 L 33.70802098327208,29.631045017685764 L 33.71971293559379,29.615280182459415 L 33.725365406770734,29.607254252338006 L 33.73305226035683,29.59575 L 33.974,29.59575 L 33.978908245704645,29.595689763739237 L 33.98872178057011,29.59544885498027 L 33.993627069730934,29.595268182482062 L 34.01813135481333,29.594064364150114 L 34.02792124801374,29.593342218243524 L 34.047453808039364,29.591418428995446 L 34.05719647486458,29.590216785653958 L 34.08146477028622,29.586616924086712 L 34.09113673979836,29.584938678174407 L 34.11038668088788,29.58110962682037 L 34.11996465246526,29.57895882137864 L 34.14376324127484,29.57299758521089 L 34.1532241407451,29.570379401718423 L 34.172006075442944,29.564681964116104 L 34.18132711067053,29.56160271000625 L 34.204426799448186,29.55333750920102 L 34.213585515242734,29.549804602666683 L 34.23171856325033,29.542293648254773 L 34.24069289546338,29.538315600377203 L 34.262871221578614,29.527826033336467 L 34.271639550257774,29.523412427581437 L 34.28894908041038,29.514160290956788 L 34.29749028188384,29.50932176008717 L 34.318533655932235,29.496708847075716 L 34.3268271536975,29.49145704753618 L 34.34314646575729,29.48055283183228 L 34.35117228005183,29.47490041566792 L 34.370878042837845,29.46028562593297 L 34.37861683877206,29.454246210309417 L 34.393788768842995,29.44179492908427 L 34.401221902979714,29.43538306348268 L 34.41940027723544,29.418907145438634 L 34.42299659521355,29.41556633695784 L 34.43010616048145,29.408797468124153 L 34.43361940777125,29.405369407771254 L 34.74961940777125,29.08936940777125 L 34.75304746812415,29.085856160481452 L 34.75981633695784,29.07874659521355 L 34.76315714543863,29.07515027723544 L 34.77963306348268,29.056971902979715 L 34.78604492908427,29.049538768842996 L 34.798496210309416,29.03436683877206 L 34.80453562593297,29.026628042837842 L 34.81915041566792,29.00692228005183 L 34.82480283183228,28.998896465757294 L 34.83570704753618,28.9825771536975 L 34.84095884707572,28.974283655932233 L 34.85357176008717,28.953240281883836 L 34.85841029095679,28.944699080410384 L 34.867662427581436,28.92738955025777 L 34.87207603333647,28.91862122157861 L 34.882565600377205,28.896442895463384 L 34.88654364825477,28.887468563250334 L 34.894054602666685,28.86933551524273 L 34.89758750920102,28.860176799448183 L 34.90585271000625,28.837077110670528 L 34.90893196411611,28.82775607544295 L 34.91462940171842,28.808974140745104 L 34.91724758521089,28.79951324127484 L 34.923208821378644,28.775714652465254 L 34.925359626820374,28.76613668088788 L 34.929188678174405,28.74688673979836 L 34.930866924086715,28.73721477028622 L 34.93446678565395,28.71294647486458 L 34.93566842899545,28.703203808039365 L 34.93759221824352,28.68367124801374 L 34.938314364150116,28.67388135481333 L 34.93951818248206,28.64937706973094 L 34.939698854980264,28.64447178057011 L 34.93993976373923,28.634658245704642 L 34.94,28.62975 L 34.94,23.31744610306789 L 34.94,22.206488815542503 L 35.89742135623731,21.249067459305202 L 37.08723881554251,20.05925 L 38.552,20.05925 L 38.57160342806591,20.058286945334437 L 38.59101806440323,20.055407056080647 L 38.61005693545089,20.050638067146444 L 38.62853668647302,20.04402590650226 L 38.6462793473652,20.03563425286967 L 38.663114046603916,20.025543922460507 L 38.67887865683273,20.01385209067255 L 38.69342135623731,20.000671356237312 L 38.70660209067255,19.98612865683273 L 38.71829392246051,19.970364046603923 L 38.728384252869674,19.9535293473652 L 38.73677590650225,19.93578668647302 L 38.74338806714644,19.917306935450892 L 38.74815705608065,19.898268064403226 L 38.75103694533444,19.87885342806591 L 38.752,19.85925 L 38.75103694533444,19.83964657193409 L 38.74815705608065,19.820231935596777 L 38.74338806714644,19.801193064549107 L 38.73677590650225,19.78271331352698 L 38.728384252869674,19.7649706526348 L 38.71829392246051,19.74813595339608 L 38.70660209067255,19.732371343167273 L 38.69342135623731,19.71782864376269 L 38.67887865683273,19.704647909327452 L 38.663114046603916,19.692956077539492 L 38.6462793473652,19.682865747130332 L 38.62853668647302,19.674474093497743 L 38.61005693545089,19.667861932853558 L 38.59101806440323,19.663092943919352 L 38.57160342806591,19.66021305466556 L 38.552,19.65925 L 37.00439610306789,19.65925 L 36.98479267500198,19.66021305466556 L 36.96537803866466,19.663092943919352 L 36.946339167617,19.667861932853558 L 36.92785941659487,19.674474093497743 L 36.91011675570269,19.682865747130325 L 36.893282056463974,19.69295607753949 L 36.87751744623517,19.704647909327452 L 36.86297474683058,19.71782864376269 L 35.61457864376269,20.96622474683058 L 34.59857864376269,21.982224746830582 L 34.585397909327455,21.996767446235157 L 34.57370607753949,22.01253205646397 L 34.56361574713033,22.02936675570269 L 34.55522409349775,22.04710941659487 L 34.548611932853554,22.065589167617002 L 34.54384294391935,22.08462803866466 L 34.54096305466556,22.104042675001978 L 34.54,22.12364610306789 L 34.54,23.31744610306789 L 34.54,28.627295507524206 L 34.539879563762554,28.632201535932182 L 34.539037090427016,28.64935047463864 L 34.53807577547419,28.65911086915084 L 34.535916726294666,28.673665996435545 L 34.53400335437751,28.683285166637802 L 34.53042804965636,28.69755858317981 L 34.52758104759237,28.70694389120473 L 34.52262391946848,28.720798136200266 L 34.518870705443966,28.72985919640073 L 34.512579493770936,28.743160845897087 L 34.50795621328865,28.751810395310223 L 34.500391505874134,28.76443134715107 L 34.49494268365229,28.77258608588803 L 34.48617733276402,28.7844047934078 L 34.4799554439394,28.791986186876418 L 34.46842503169846,28.804708036334418 L 34.46504110702244,28.80826228357084 L 34.15251228357084,29.120791107022434 L 34.14895803633442,29.124175031698456 L 34.13623618687642,29.135705443939404 L 34.1286547934078,29.141927332764023 L 34.116836085888025,29.150692683652288 L 34.10868134715107,29.156141505874135 L 34.096060395310225,29.16370621328865 L 34.08741084589709,29.168329493770933 L 34.074109196400734,29.174620705443964 L 34.06504813620026,29.178373919468477 L 34.05119389120473,29.18333104759237 L 34.04180858317981,29.186178049656363 L 34.0275351666378,29.18975335437751 L 34.01791599643555,29.191666726294667 L 34.00336086915084,29.193825775474192 L 33.99360047463864,29.19478709042702 L 33.976451535932185,29.19562956376255 L 33.971545507524205,29.19575 L 33.62451319902824,29.19575 L 33.60572408100791,29.19663453338824 L 33.58710115900981,29.19928030955982 L 33.56880915899691,29.20366392574112 L 33.55100987981668,29.20974660738341 L 33.53386076203635,29.21747455113665 L 33.51751349532846,29.226779400758126 L 33.50211267672512,29.237578851746218 L 33.487794531608934,29.249777379351176 L 33.47468570875402,29.263267083523466 L 33.462902160075366,29.27792864332571 L 33.45254811499533,29.29363237236621 L 33.45012282905791,29.298192194204443 L 33.44424232101063,29.308003282437063 L 33.395504721556655,29.380944653856144 L 33.392604783363865,29.384854783363863 L 33.38869465385614,29.387754721556657 L 33.315753282437065,29.436492321010626 L 33.31157780041565,29.438994995030686 L 33.30685562627662,29.440177830083893 L 33.220815351047186,29.45729217442665 L 33.21597635886171,29.458009965699866 L 33.21109031207342,29.45825 L 32.32090968792657,29.45825 L 32.316023641138294,29.458009965699866 L 32.31118464895281,29.45729217442665 L 32.22514437372338,29.440177830083893 L 32.22042219958435,29.438994995030686 L 32.21624671756293,29.436492321010626 L 32.17931322032374,29.41181428219866 L 32.143305346143855,29.387754721556657 L 32.13939521663614,29.384854783363863 L 32.13649527844334,29.380944653856144 L 32.08775767898938,29.308003282437063 L 32.08525500496931,29.30382780041565 L 32.084072169916105,29.29910562627662 L 32.06695782557335,29.213065351047188 L 32.06624003430014,29.208226358861708 L 32.066,29.203340312073426 L 32.066,28.688159687926575 L 32.06624003430014,28.683273641138292 L 32.06695782557335,28.678434648952813 L 32.084072169916105,28.59239437372338 L 32.08525500496931,28.58767219958435 L 32.08775767898938,28.583496717562937 L 32.13649527844334,28.510555346143857 L 32.13939521663614,28.506645216636137 L 32.143305346143855,28.503745278443343 L 32.21624671756294,28.45500767898937 L 32.22042219958435,28.452505004969314 L 32.22514437372338,28.451322169916107 L 32.31118464895281,28.43420782557335 L 32.316023641138294,28.433490034300135 L 32.32090968792657,28.43325 L 33.21109031207342,28.43325 L 33.21597635886171,28.433490034300135 L 33.220815351047186,28.43420782557335 L 33.30685562627662,28.451322169916107 L 33.311577800415655,28.45250500496932 L 33.315753282437065,28.45500767898937 L 33.38869465385614,28.503745278443343 L 33.392604783363865,28.506645216636137 L 33.395504721556655,28.510555346143857 L 33.44424232101063,28.583496717562937 L 33.45012282905791,28.593307805795558 L 33.45254811499533,28.59786762763379 L 33.462902160075366,28.613571356674292 L 33.47468570875402,28.628232916476534 L 33.487794531608934,28.641722620648824 L 33.50211267672512,28.653921148253783 L 33.51751349532846,28.664720599241875 L 33.53386076203635,28.67402544886335 L 33.55100987981668,28.681753392616592 L 33.56880915899691,28.68783607425888 L 33.58710115900981,28.69221969044018 L 33.60572408100791,28.69486546661176 L 33.62451319902824,28.69575 L 33.78760389693211,28.69575 L 33.80720732499802,28.694786945334442 L 33.82662196133534,28.691907056080648 L 33.845660832383,28.687138067146442 L 33.86414058340513,28.680525906502254 L 33.88188324429731,28.67213425286967 L 33.89871794353603,28.662043922460512 L 33.91448255376484,28.650352090672545 L 33.92902525316942,28.637171356237307 L 33.981421356237306,28.58477525316942 L 33.994602090672544,28.570232553764843 L 34.006293922460515,28.55446794353603 L 34.01638425286967,28.53763324429731 L 34.024775906502256,28.51989058340513 L 34.031388067146445,28.501410832382998 L 34.03615705608065,28.48237196133534 L 34.039036945334445,28.462957324998023 L 34.04,28.44335389693211 L 34.04,25.813687641182533 L 34.04,24.508612358817466 L 34.04,23.988687641182533 L 34.04,22.683612358817467 L 34.04,21.939704492475794 L 34.040120436237444,21.934798464067818 L 34.04096290957298,21.91764952536136 L 34.04192422452581,21.90788913084916 L 34.04408327370533,21.893334003564455 L 34.045996645622495,21.8837148333622 L 34.04957195034364,21.86944141682019 L 34.05241895240763,21.86005610879527 L 34.057376080531526,21.846201863799735 L 34.06112929455604,21.83714080359927 L 34.06742050622906,21.823839154102913 L 34.07204378671135,21.815189604689778 L 34.079608494125864,21.80256865284893 L 34.08505731634771,21.79441391411197 L 34.093822667235976,21.7825952065922 L 34.100044556060595,21.775013813123582 L 34.11157496830154,21.762291963665582 L 34.11495889297757,21.75873771642916 L 34.997421356237304,20.87627525316942 L 35.89742135623731,19.97627525316942 L 36.63948771642927,19.23420889297745 L 36.64304196366555,19.230824968301572 L 36.655763813123556,19.219294556060625 L 36.66334520659221,19.213072667235974 L 36.67516391411203,19.204307316347673 L 36.683318652848875,19.198858494125894 L 36.69593960468972,19.19129378671138 L 36.704589154103004,19.186670506229028 L 36.717890803599175,19.180379294556083 L 36.726951863799776,19.176626080531516 L 36.74080610879538,19.171668952407593 L 36.75019141682011,19.168821950343666 L 36.764464833362204,19.16524664562249 L 36.77408400356445,19.163333273705334 L 36.788639130849184,19.1611742245258 L 36.7983995253613,19.160212909572984 L 36.81554846406786,19.15937043623744 L 36.82045449247584,19.15925 L 38.552,19.15925 L 38.57160342806591,19.15828694533444 L 38.59101806440323,19.155407056080648 L 38.61005693545089,19.150638067146442 L 38.62853668647302,19.144025906502257 L 38.6462793473652,19.135634252869668 L 38.663114046603916,19.12554392246051 L 38.67887865683273,19.113852090672548 L 38.69342135623731,19.10067135623731 L 38.70660209067255,19.086128656832727 L 38.71829392246051,19.07036404660392 L 38.728384252869674,19.0535293473652 L 38.73677590650225,19.03578668647302 L 38.74338806714644,19.017306935450893 L 38.74815705608065,18.998268064403224 L 38.75103694533444,18.97885342806591 L 38.752,18.95925 L 38.75103694533444,18.939646571934087 L 38.74815705608065,18.920231935596775 L 38.74338806714644,18.90119306454911 L 38.73677590650225,18.88271331352698 L 38.728384252869674,18.8649706526348 L 38.71829392246051,18.848135953396078 L 38.70660209067255,18.83237134316727 L 38.69342135623731,18.817828643762688 L 38.67887865683273,18.80464790932745 L 38.663114046603916,18.792956077539493 L 38.6462793473652,18.78286574713033 L 38.62853668647302,18.77447409349774 L 38.61005693545089,18.767861932853556 L 38.59101806440323,18.763092943919354 L 38.57160342806591,18.760213054665563 L 38.552,18.75925 L 36.818,18.75925 L 36.81309175429543,18.75931023626076 L 36.80327821942996,18.759551145019724 L 36.80082890213062,18.759731817517928 L 36.79837293026906,18.759731817517928 L 36.77386864518667,18.76093563584988 L 36.76407875198622,18.761657781756476 L 36.744546191960595,18.763581571004558 L 36.73480352513542,18.764783214346043 L 36.710535229713784,18.768383075913288 L 36.70086326020162,18.770061321825597 L 36.681613319112074,18.77389037317964 L 36.67203534753469,18.776041178621373 L 36.6482367587251,18.78200241478913 L 36.63877585925489,18.784620598281585 L 36.6199939245571,18.790318035883885 L 36.610672889329514,18.79339728999373 L 36.58757320055186,18.801662490798957 L 36.57841448475724,18.805195397333325 L 36.56028143674961,18.81270635174525 L 36.55130710453661,18.816684399622805 L 36.52912877842139,18.82717396666354 L 36.520360449742256,18.83158757241855 L 36.50305091958965,18.840839709043195 L 36.49450971811616,18.84567823991283 L 36.473466344067766,18.858291152924284 L 36.4651728463025,18.863542952463824 L 36.4488535342427,18.87444716816772 L 36.440827719948174,18.88009958433208 L 36.42112195716216,18.894714374067032 L 36.41338316122792,18.9007537896906 L 36.398211231156985,18.91320507091575 L 36.39077809702028,18.91961693651733 L 36.37259972276456,18.936092854561373 L 36.36900340478653,18.939433663042088 L 36.36189383951863,18.94620253187577 L 36.35838059222875,18.94963059222874 L 35.86769339066845,19.44031779378904 L 35.85457963844601,19.432013601778287 L 35.83704826280105,19.423189048859317 L 35.81873634807983,19.41612536388141 L 35.79982024803143,19.410890573992308 L 35.780482135039904,19.407535093080263 L 35.76090824570464,19.40609123626076 L 35.74128708728013,19.406572908664256 L 35.721807622247994,19.4089754715222 L 35.70265744850507,19.4132757868409 L 35.68402099269306,19.41943244023303 L 35.666077734069134,19.42738613976087 L 35.64900047602263,19.437060286950025 L 35.632953681883926,19.448361714474643 L 35.61809189105263,19.461181583409665 L 35.60455823069874,19.475396431409198 L 35.59248303736971,19.49086936171638 L 35.581982601778286,19.507451361553994 L 35.57315804885932,19.52498273719895 L 35.56609436388141,19.543294651920167 L 35.5608595739923,19.56221075196857 L 35.55750409308027,19.5815488649601 L 35.556060236260755,19.60112275429536 L 35.55587956376254,19.608482535932474 L 35.55503709042702,19.625631474638606 L 35.55407577547419,19.63539186915088 L 35.551916726294664,19.649946996435556 L 35.55000335437752,19.659566166637763 L 35.546428049656335,19.673839583179944 L 35.54358104759241,19.683224891204627 L 35.53862391946849,19.69707913620022 L 35.53487070544395,19.706140196400757 L 35.52857949377095,19.71944184589705 L 35.52395621328863,19.72809139531027 L 35.51639150587412,19.740712347151103 L 35.5109426836523,19.748867085888005 L 35.50217733276399,19.76068579340783 L 35.4959554439394,19.768267186876415 L 35.48442503169849,19.780989036334375 L 35.4810411070225,19.784543283570773 L 34.71457864376269,20.551005746830583 L 33.07457864376269,22.191005746830584 L 33.061397909327454,22.205548446235156 L 33.04970607753949,22.221313056463973 L 33.03961574713033,22.238147755702688 L 33.03122409349775,22.25589041659487 L 33.02461193285356,22.274370167617 L 33.01984294391935,22.293409038664663 L 33.01696305466556,22.31282367500198 L 33.016,22.33242710306789 L 33.016,22.34425 L 33.01690384933457,22.363242703604474 L 33.01960722790207,22.3820637417838 L 33.024085701233325,22.40054300070964 L 33.03029879067692,22.41851345572315 L 33.03819033926526,22.43581268098629 L 33.04768901928895,22.45228431756662 L 33.0587089769918,22.46777948668652 L 33.07115060855945,22.48215813536301 L 33.084901460387755,22.495290302275702 L 33.09983724549397,22.507057292421354 L 33.11582296688381,22.517352749937825 L 33.13271413772085,22.526083619400865 L 33.1503580872699,22.533170986904935 L 33.16859534081035,22.538550793326 L 33.187261061047444,22.542174413319536 L 33.20618653799302,22.54400909482033 L 33.21597635886171,22.544490034300132 L 33.220815351047186,22.545207825573346 L 33.30685562627662,22.562322169916108 L 33.31157780041565,22.563505004969315 L 33.315753282437065,22.566007678989372 L 33.38869465385614,22.614745278443344 L 33.392604783363865,22.617645216636138 L 33.395504721556655,22.621555346143857 L 33.44424232101063,22.694496717562938 L 33.44674499503068,22.698672199584344 L 33.44792783008389,22.70339437372338 L 33.46504217442665,22.789434648952813 L 33.46575996569987,22.794273641138293 L 33.466,22.799159687926576 L 33.466,23.314340312073423 L 33.46575996569987,23.31922635886171 L 33.46504217442665,23.32406535104719 L 33.44792783008389,23.41010562627662 L 33.446744995030684,23.41482780041565 L 33.44424232101063,23.419003282437064 L 33.395504721556655,23.491944653856144 L 33.392604783363865,23.495854783363864 L 33.38869465385614,23.498754721556654 L 33.315753282437065,23.547492321010626 L 33.31157780041565,23.549994995030687 L 33.30685562627662,23.55117783008389 L 33.220815351047186,23.568292174426652 L 33.21597635886171,23.569009965699866 L 33.21109031207342,23.56925 L 32.32090968792657,23.56925 L 32.316023641138294,23.569009965699866 L 32.31118464895281,23.568292174426652 L 32.220329,23.55022 L 32.220310795826485,23.550311519258237 L 32.20645303101875,23.547590400843994 L 32.18593039985278,23.5457215944964 L 32.16532440889788,23.545974505361624 L 32.144853827234634,23.548346448343008 L 32.12473598633418,23.55281224106585 L 32.10518447269994,23.55932447123292 L 32.08640686026856,23.567813999989934 L 32.068602506645135,23.578190695956902 L 32.05196043656914,23.59034439213234 L 32.03665733508221,23.604146055511066 L 31.996074746830583,23.644728643762694 L 29.772578643762692,25.86822474683058 L 29.759397909327454,25.882767446235157 L 29.74770607753949,25.89853205646397 L 29.737615747130327,25.91536675570269 L 29.729224093497745,25.93310941659487 L 29.722611932853557,25.951589167617 L 29.717842943919354,25.97062803866466 L 29.714963054665557,25.99004267500198 L 29.714,26.00964610306789 L 29.714963054665557,26.0292495311338 L 29.717842943919354,26.048664167471117 L 29.722611932853557,26.06770303851878 L 29.729224093497745,26.08618278954091 L 29.737615747130327,26.103925450433092 L 29.74770607753949,26.120760149671806 L 29.759397909327454,26.13652475990062 L 29.772578643762692,26.151067459305196 L 29.787121343167268,26.164248193740434 L 29.802885953396082,26.1759400255284 L 29.8197206526348,26.186030355937564 L 29.837463313526982,26.194422009570143 L 29.85594306454911,26.20103417021433 L 29.87498193559677,26.205803159148537 L 29.894396571934088,26.20868304840233 L 29.914,26.20964610306789 L 29.93360342806591,26.20868304840233 L 29.953018064403228,26.205803159148537 L 29.97205693545089,26.20103417021433 L 29.99053668647302,26.194422009570143 L 30.0082793473652,26.186030355937564 L 30.025114046603917,26.1759400255284 L 30.04087865683273,26.164248193740434 L 30.055421356237307,26.151067459305196 L 31.675774329463533,24.53071448607897 z M 32.22746448607897,23.979024329463535 L 32.24389546711765,23.962593348424853 L 32.24763634335539,23.9632424471082 L 32.26705083870393,23.966122293737598 L 32.28658325511739,23.968046054454707 L 32.30618653799302,23.96900909482033 L 32.316,23.96925 L 32.30618653799302,23.969490905179672 L 32.28658325511739,23.970453945545295 L 32.26705083870393,23.972377706262403 L 32.24763634335539,23.975257552891797 L 32.23796444355166,23.976935773990036 L 32.22746448607897,23.979024329463535 z M 33.64,22.191269815542505 L 33.64,22.303217917607352 L 33.638795017685766,22.302229016727924 L 33.623030182459416,22.29053706440621 L 33.615004252338004,22.284884593229265 L 33.573870060295285,22.25739975524722 L 33.64,22.191269815542505 z M 33.64,23.810282082392646 L 33.64,23.988687641182533 L 33.64,24.12821791760735 L 33.638795017685766,24.127229016727924 L 33.623030182459416,24.115537064406208 L 33.615004252338004,24.109884593229264 L 33.533898252338005,24.055691593229263 L 33.52560476422486,24.050439828401522 L 33.508770086628665,24.040349565758824 L 33.49146058265433,24.031097493443347 L 33.473717952186085,24.022705900386377 L 33.45558493854201,24.01519500256049 L 33.43710522550241,24.00858289427792 L 33.418323332072276,24.00288550459996 L 33.39928450523147,23.998116558962575 L 33.38970655644834,23.995965773990036 L 33.29403555644834,23.976935773990036 L 33.284363656644615,23.975257552891797 L 33.26494916129607,23.972377706262403 L 33.245416744882604,23.970453945545295 L 33.225813462006975,23.969490905179672 L 33.216,23.96925 L 33.225813462006975,23.96900909482033 L 33.245416744882604,23.968046054454707 L 33.26494916129607,23.966122293737598 L 33.284363656644615,23.9632424471082 L 33.29403555644834,23.961564226009965 L 33.38970655644834,23.942534226009965 L 33.39928450523147,23.940383441037422 L 33.418323332072276,23.935614495400042 L 33.43710522550241,23.929917105722076 L 33.45558493854201,23.923304997439512 L 33.473717952186085,23.91579409961362 L 33.49146058265433,23.907402506556654 L 33.508770086628665,23.898150434241174 L 33.52560476422486,23.88806017159848 L 33.533898252338005,23.882808406770735 L 33.615004252338004,23.828615406770737 L 33.623030182459416,23.822962935593793 L 33.638795017685766,23.811270983272074 L 33.64,23.810282082392646 z M 33.448659651910205,28.07671710991145 L 33.43710522550242,28.07258289427793 L 33.418323332072276,28.06688550459996 L 33.39928450523147,28.062116558962575 L 33.38970655644834,28.059965773990037 L 33.29403555644834,28.040935773990036 L 33.284363656644615,28.039257552891797 L 33.26494916129607,28.036377706262403 L 33.245416744882604,28.034453945545295 L 33.225813462006975,28.033490905179672 L 33.216,28.03325 L 33.225813462006975,28.03300909482033 L 33.245416744882604,28.032046054454707 L 33.26494916129607,28.0301222937376 L 33.284363656644615,28.0272424471082 L 33.29403555644834,28.025564226009966 L 33.38970655644834,28.006534226009965 L 33.39928450523147,28.004383441037422 L 33.418323332072276,27.999614495400042 L 33.43710522550241,27.993917105722076 L 33.45558493854201,27.987304997439512 L 33.473717952186085,27.97979409961362 L 33.49146058265433,27.971402506556654 L 33.508770086628665,27.962150434241174 L 33.52560476422486,27.95206017159848 L 33.533898252338005,27.946808406770735 L 33.615004252338004,27.892615406770737 L 33.623030182459416,27.88696293559379 L 33.638795017685766,27.875270983272074 L 33.64,27.874282082392646 L 33.64,28.19221791760735 L 33.638795017685766,28.191229016727924 L 33.623030182459416,28.179537064406208 L 33.615004252338004,28.173884593229264 L 33.533898252338005,28.119691593229263 L 33.52560476422486,28.114439828401522 L 33.508770086628665,28.104349565758824 L 33.49146058265433,28.095097493443348 L 33.473717952186085,28.086705900386377 L 33.45558493854199,28.079195002560482 L 33.44865965191024,28.076717109911456 L 33.448659651910205,28.07671710991145 z M 33.64,26.367217917607352 L 33.638795017685766,26.366229016727925 L 33.623030182459416,26.35453706440621 L 33.615004252338004,26.348884593229265 L 33.547,26.30344585322293 L 33.547,25.699054146777073 L 33.615004252338004,25.653615406770736 L 33.623030182459416,25.647962935593792 L 33.638795017685766,25.636270983272077 L 33.64,25.63528208239265 L 33.64,25.813687641182533 L 33.64,26.367217917607352 z M 32.316,28.03325 L 32.30618653799302,28.033490905179672 L 32.28658325511739,28.034453945545295 L 32.26705083870393,28.036377706262403 L 32.25275208170015,28.038498710513228 L 32.26189351013484,28.029357282078543 L 32.26705083870393,28.0301222937376 L 32.28658325511739,28.032046054454707 L 32.30618653799302,28.03300909482033 L 32.316,28.03325 z" /><path fill-rule="evenodd" fill="#66cc99" stroke="#555555" stroke-width="0.0" opacity="1" d="M 29.00438059222875,25.36363059222875 L 29.00095253187585,25.367143839518548 L 28.994183663042158,25.37425340478645 L 28.990842854561365,25.37784972276456 L 28.97436693651732,25.396028097020285 L 28.96795507091573,25.403461231157006 L 28.955503789690585,25.41863316122794 L 28.94946437406703,25.426371957162157 L 28.934849584332078,25.44607771994817 L 28.92919716816772,25.454103534242705 L 28.91829295246382,25.4704228463025 L 28.913041152924283,25.478716344067767 L 28.90042823991283,25.499759718116163 L 28.89558970904321,25.508300919589615 L 28.88633757241856,25.525610449742228 L 28.881923966663532,25.534378778421388 L 28.8714343996228,25.556557104536616 L 28.867456351745226,25.565531436749666 L 28.859945397333316,25.583664484757268 L 28.85641249079898,25.592823200551816 L 28.848147289993747,25.61592288932947 L 28.845068035883894,25.625243924557054 L 28.839370598281576,25.644025859254896 L 28.83675241478911,25.65348675872516 L 28.83079117862136,25.677285347534745 L 28.828640373179628,25.68686331911212 L 28.824811321825592,25.70611326020164 L 28.823133075913287,25.715785229713784 L 28.819533214346045,25.74005352513542 L 28.818331571004556,25.749796191960634 L 28.816407781756475,25.769328751986258 L 28.815685635849885,25.77911864518667 L 28.814481817517937,25.803622930269064 L 28.814301145019733,25.80852821942989 L 28.814060236260765,25.818341754295357 L 28.814541908664257,25.837962912719874 L 28.816944471522206,25.857442377751997 L 28.821244786840893,25.87659255149492 L 28.82740144023303,25.89522900730694 L 28.835355139760868,25.913172265930868 L 28.84502928695003,25.93024952397737 L 28.85633071447464,25.946296318116076 L 28.869150583409667,25.961158108947366 L 28.883365431409203,25.97469176930126 L 28.898838361716383,25.98676696263028 L 28.915420361553988,25.997267398221716 L 28.932951737198948,26.00609195114068 L 28.95126365192016,26.01315563611859 L 28.97017975196857,26.018390426007695 L 28.989517864960096,26.021745906919733 L 29.009091754295355,26.023189763739236 L 29.028712912719875,26.022708091335744 L 29.048192377752,26.020305528477795 L 29.067342551494917,26.016005213159108 L 29.08597900730694,26.009848559766972 L 29.10392226593087,26.001894860239133 L 29.120999523977368,25.99222071304997 L 29.137046318116077,25.98091928552536 L 29.151908108947367,25.968099416590334 L 29.165441769301257,25.953884568590798 L 29.17751696263028,25.93841163828362 L 29.188017398221717,25.92182963844601 L 29.19684195114068,25.904298262801053 L 29.20390563611859,25.88598634807984 L 29.209140426007696,25.86707024803143 L 29.21249590691973,25.8477321350399 L 29.213939763739237,25.828158245704643 L 29.214120436237447,25.820798464067817 L 29.214962909572982,25.803649525361358 L 29.21592422452581,25.79388913084916 L 29.218083273705332,25.779334003564454 L 29.21999664562249,25.7697148333622 L 29.22357195034364,25.75544141682019 L 29.226418952407627,25.74605610879527 L 29.231376080531522,25.732201863799737 L 29.235129294556035,25.723140803599268 L 29.241420506229066,25.709839154102912 L 29.24604378671135,25.701189604689777 L 29.253608494125867,25.68856865284893 L 29.25905731634771,25.680413914111973 L 29.26782266723598,25.6685952065922 L 29.2740445560606,25.661013813123585 L 29.285574968301542,25.64829196366558 L 29.288958892977565,25.64473771642916 L 31.906125253169417,23.027571356237306 L 32.00790680198883,22.925789807417893 L 32.02030611910836,22.912193333140433 L 32.03140331662554,22.89751479829961 L 32.041104454772054,22.881878459326863 L 32.049327411672664,22.865416680637455 L 32.05600257852163,22.848268814141974 L 32.06107344883377,22.83058001960741 L 32.06449709678191,22.81250003585367 L 32.06622814285424,22.79435380735916 L 32.06695782557335,22.789434648952813 L 32.084072169916105,22.70339437372338 L 32.08525500496931,22.69867219958435 L 32.08775767898938,22.694496717562938 L 32.13649527844334,22.621555346143857 L 32.13939521663614,22.617645216636138 L 32.143305346143855,22.614745278443344 L 32.21624671756294,22.566007678989372 L 32.22042219958435,22.563505004969315 L 32.22514437372338,22.562322169916108 L 32.31118464895281,22.545207825573346 L 32.316023641138294,22.544490034300132 L 32.32581346200698,22.54400909482033 L 32.34473893895256,22.542174413319536 L 32.36340465918965,22.538550793326 L 32.381641912730096,22.533170986904935 L 32.39928586227915,22.526083619400865 L 32.41617703311619,22.517352749937825 L 32.43216275450603,22.507057292421354 L 32.44709853961225,22.495290302275702 L 32.46084939144055,22.48215813536301 L 32.473291023008194,22.46777948668652 L 32.48431098071105,22.45228431756662 L 32.49380966073473,22.43581268098629 L 32.50170120932308,22.41851345572315 L 32.50791429876667,22.40054300070964 L 32.51239277209793,22.3820637417838 L 32.515096150665435,22.363242703604474 L 32.516,22.34425 L 32.516,22.148485492475793 L 32.51612043623744,22.143579464067816 L 32.51696290957298,22.12643052536136 L 32.51792422452581,22.116670130849162 L 32.52008327370533,22.102115003564453 L 32.521996645622494,22.0924958333622 L 32.52557195034364,22.07822241682019 L 32.52841895240763,22.06883710879527 L 32.533376080531525,22.054982863799736 L 32.53712929455604,22.045921803599267 L 32.54342050622907,22.032620154102915 L 32.54804378671135,22.023970604689776 L 32.55560849412586,22.011349652848928 L 32.561057316347714,22.003194914111972 L 32.569822667235975,21.991376206592204 L 32.576044556060594,21.983794813123584 L 32.587574968301546,21.97107296366558 L 32.59095889297757,21.967518716429158 L 34.997421356237304,19.56105625316942 L 35.01060209067254,19.546513553764836 L 35.02229392246051,19.53074894353603 L 35.032384252869676,19.513914244297307 L 35.040775906502255,19.496171583405125 L 35.04738806714644,19.477691832382998 L 35.052157056080645,19.458652961335332 L 35.05503694533444,19.439238324998016 L 35.056,19.419634896932106 L 35.05503694533444,19.400031468866196 L 35.052157056080645,19.380616832528883 L 35.04738806714644,19.361577961481213 L 35.040775906502255,19.343098210459086 L 35.032384252869676,19.325355549566908 L 35.02229392246051,19.308520850328186 L 35.01060209067254,19.29275624009938 L 34.997421356237304,19.278213540694797 L 34.98287865683273,19.26503280625956 L 34.96711404660392,19.253340974471598 L 34.9502793473652,19.24325064406244 L 34.93253668647302,19.23485899042985 L 34.91405693545089,19.228246829785665 L 34.89501806440323,19.22347784085146 L 34.87560342806591,19.220597951597668 L 34.856,19.219634896932106 L 34.83639657193409,19.220597951597668 L 34.81698193559677,19.22347784085146 L 34.79794306454911,19.228246829785665 L 34.77946331352698,19.23485899042985 L 34.7617206526348,19.24325064406244 L 34.74488595339608,19.253340974471598 L 34.729121343167265,19.26503280625956 L 34.71457864376269,19.278213540694797 L 32.30638059222875,21.686411592228747 L 32.302952531875846,21.689924839518547 L 32.29618366304216,21.697034404786454 L 32.292842854561364,21.700630722764558 L 32.27636693651732,21.718809097020284 L 32.27325224031704,21.722604365321466 L 32.26995507091573,21.726242231157006 L 32.25750378969058,21.74141416122794 L 32.251464374067034,21.749152957162156 L 32.23684958433208,21.768858719948174 L 32.23119716816772,21.776884534242704 L 32.22029295246382,21.7932038463025 L 32.215041152924286,21.801497344067766 L 32.20242823991283,21.822540718116166 L 32.197589709043214,21.831081919589618 L 32.18833757241856,21.848391449742227 L 32.183923966663535,21.857159778421387 L 32.1734343996228,21.879338104536615 L 32.169456351745225,21.88831243674967 L 32.16194539733332,21.906445484757267 L 32.15841249079898,21.915604200551815 L 32.15014728999375,21.93870388932947 L 32.1470680358839,21.948024924557053 L 32.141370598281576,21.9668068592549 L 32.13875241478911,21.976267758725157 L 32.13279117862136,22.000066347534744 L 32.13064037317963,22.009644319112123 L 32.12681132182559,22.02889426020164 L 32.12513307591329,22.038566229713783 L 32.121533214346044,22.062834525135422 L 32.120331571004556,22.072577191960633 L 32.118407781756474,22.092109751986257 L 32.11768563584989,22.10189964518667 L 32.116481817517936,22.126403930269063 L 32.11630114501973,22.131309219429887 L 32.116060236260765,22.141122754295356 L 32.116,22.146031 L 32.116,22.177303544143946 L 32.11367666792773,22.17788550459996 L 32.09489477449759,22.183582894277922 L 32.07641506145799,22.19019500256049 L 32.05828204781391,22.197705900386378 L 32.04053941734567,22.206097493443348 L 32.02322991337133,22.215349565758824 L 32.006395235775145,22.22543982840152 L 31.998101747661995,22.230691593229263 L 31.916995747661993,22.284884593229265 L 31.908969817540587,22.29053706440621 L 31.893204982314238,22.302229016727924 L 31.87803284130115,22.31468043897158 L 31.863489946459197,22.327861333797923 L 31.849611333797924,22.341739946459196 L 31.83643043897158,22.35628284130115 L 31.823979016727925,22.371454982314237 L 31.81228706440621,22.387219817540586 L 31.806634593229266,22.395245747661992 L 31.752441593229264,22.476351747661994 L 31.74718982840152,22.484645235775144 L 31.737099565758825,22.50147991337133 L 31.72784749344335,22.518789417345673 L 31.71945590038638,22.536532047813914 L 31.71194500256049,22.554665061457992 L 31.705332894277923,22.573144774497592 L 31.699635504599957,22.591926667927726 L 31.694866558962577,22.61096549476853 L 31.692715773990034,22.62054344355166 L 31.679120832243353,22.68889035221414 L 31.623282540694802,22.74472864376269 L 29.00438059222875,25.36363059222875 z" /></g>
                        <circle r="1.0" cx="30" cy="16" stroke-width="0.1" fill="none" stroke="black"/><circle r="1.0" cx="81" cy="47" stroke-width="0.1" fill="none" stroke="black"/><circle r="1.0" cx="81" cy="16" stroke-width="0.1" fill="none" stroke="black"/><circle r="1.0" cx="30" cy="47" stroke-width="0.1" fill="none" stroke="black"/><rect width="57.0" height="37.0" x="27" y="13" stroke-width="0.1" fill="none" stroke="black"/>
                    </g>
                    </svg>