<?xml version="1.0" encoding="UTF-8"?>
<svg xmlns="http://www.w3.org/2000/svg" version="1.1" viewBox="0 0 303.1 287.9">
  <defs>
    <style>
      .cls-1 {
        isolation: isolate;
        opacity: .8;
        stroke: #6c9;
        stroke-width: 1.1px;
      }

      .cls-1, .cls-2 {
        fill: none;
        stroke-miterlimit: 11.3;
      }

      .cls-2 {
        stroke: #000;
        stroke-width: .3px;
      }
    </style>
  </defs>
  <!-- Generator: Adobe Illustrator 28.6.0, SVG Export Plug-In . SVG Version: 1.2.0 Build 709)  -->
  <g>
    <g id="Layer_1">
      <line class="cls-1" x1="215.6" y1="48.2" x2="215.6" y2="48.3"/>
      <polyline class="cls-1" points="90 84.8 89.9 84.8 90 84.8 90 84.7 90 84.6 90.1 84.6 90.1 84.5 90.1 84.4 90.2 84.3 90.2 84.3 90.2 84.2 90.2 84.1 90.2 84 90.2 84 90.2 83.8 90.2 83.8 90.2 79.9 91.3 78.8 91.5 78.9 91.5 78.9 91.6 78.9 94.2 78.9 94.2 78.9 94.3 78.9 94.5 78.8 94.6 78.8 94.6 78.8 94.7 78.8 94.7 78.7 95 78.6 95 78.6 95.1 78.5 95.1 78.5 95.1 78.4 95.3 78.2 95.3 78.2 95.3 78.1 95.4 78.1 95.4 78 95.4 77.7 95.4 77.7 95.4 77.6 95.4 76.1 95.4 76.1 95.4 76 95.4 75.8 95.4 75.7 95.3 75.6 95.3 75.6 95.3 75.5 95.1 75.3 95.1 75.3 95.1 75.2 95 75.2 95 75.2 94.7 75 94.7 75 94.6 75 94.6 74.9 94.5 74.9 94.5 74.9 94.5 72.5 94.5 72.5 94.6 72.5 94.6 72.5 94.7 72.4 94.7 72.4 95 72.2 95 72.2 95.1 72.2 95.1 72.1 95.1 72.1 95.3 71.9 95.3 71.8 95.3 71.8 95.4 71.7 95.4 71.7 95.4 71.4 95.4 71.3 95.4 71.3 95.4 69.8 95.4 69.7 95.4 69.7 95.4 69.4 95.4 69.4 95.3 69.3"/>
      <polyline class="cls-1" points="95.3 69.3 95.3 69.3 95.3 69.2 95.3 69.2 95.1 69 95.1 68.9 95.1 68.9 95 68.8 95 68.8 94.7 68.7 94.7 68.6 94.6 68.6 94.6 68.6 94.5 68.6 94.3 68.5 94.2 68.5 94.2 68.5 91.6 68.5 91.5 68.5 91.5 68.5 91.2 68.6 91.2 68.6 91.1 68.6 91.1 68.6 91 68.7 90.8 68.8 90.7 68.8 90.7 68.9 90.7 68.9 90.6 69 90.5 69.2 90.4 69.2 90.4 69.3 90.4 69.4 90.4 69.4 90.3 69.7 90.3 69.7 90.3 69.8 90.3 71.3 90.3 71.3 90.3 71.4 90.4 71.7 90.4 71.7 90.4 71.8 90.4 71.8 90.5 71.9 90.6 72.1 90.7 72.1 90.7 72.2 90.7 72.2 90.8 72.2 91 72.4 91.1 72.4 91.1 72.5 91.2 72.5 91.2 72.5 91.2 72.5 91.2 74.9 91.2 74.9 91.2 74.9 91.1 75 91.1 75 91 75 90.8 75.2 90.7 75.2 90.7 75.2 90.7 75.2 90.6 75.3 90.5 75.3 90.4 75.3 90.4 75.3 90.3 75.3 90.2 75.4 90.1 75.4 90.1 75.4 90 75.5 90 75.5 89.9 75.6 89.8 75.6 89.8 75.7 89.7 75.7 87.4 78 87.4 78 87.3 78.1 87.3 78.2 87.2 78.2 87.2 78.3 87.2 78.4 87.1 78.4 87.1 78.5 87.1 78.6 87 78.7 87 78.7 87 78.8 87 78.9 87 79 87 79 87 79.1 86.9 79.2 86.9 83.1"/>
      <polyline class="cls-1" points="104.3 53.7 104.3 53.7 104.2 53.8 104.1 53.8 104.1 53.8 104 53.8 104 53.8 103.9 53.8 103.9 53.9 103.8 53.9 103.7 53.9 103.7 53.9 103.6 54 103.6 54 103.5 54.1 103.5 54.1 103.5 54.1 101.4 56.2"/>
      <line class="cls-1" x1="101.4" y1="56.2" x2="98.8" y2="58.8"/>
      <polyline class="cls-1" points="98.8 58.8 96.3 61.3 96.3 61.3 96.2 61.4 96.2 61.4 96.2 61.5 96.1 61.5 96.1 61.6 96.1 61.6 96 61.7 96 61.7 96 61.8 96 61.8 96 61.9 95.9 62 95.9 62 95.9 62.1 95.9 62.2 95.9 62.2 95.9 64.3"/>
      <line class="cls-1" x1="95.9" y1="64.3" x2="95.9" y2="68"/>
      <line class="cls-1" x1="95.9" y1="68" x2="95.9" y2="69.5"/>
      <line class="cls-1" x1="95.9" y1="69.5" x2="95.9" y2="73.2"/>
      <polyline class="cls-1" points="95.9 73.2 95.9 80.6 95.8 80.8 95.3 80.8 95.3 80.8 95.3 80.7 95.1 80.5 95.1 80.4 95.1 80.4 95 80.4 95 80.3 94.7 80.2 94.7 80.2 94.6 80.1 94.6 80.1"/>
      <polyline class="cls-1" points="94.6 80.1 94.6 80.1 94.5 80.1 94.3 80 94.2 80 94.2 80 91.6 80 91.5 80 91.5 80 91.2 80.1 91.2 80.1 91.1 80.1 91.1 80.2 91 80.2 90.8 80.3 90.7 80.4 90.7 80.4 90.7 80.4 90.6 80.5 90.5 80.7 90.4 80.8 90.4 80.8 90.4 80.9 90.4 80.9 90.3 81.2 90.3 81.3 90.3 81.3 90.3 82.8 90.3 82.9 90.3 82.9 90.4 83.2 90.4 83.2 90.4 83.3 90.4 83.3 90.5 83.4 90.6 83.6 90.7 83.7 90.7 83.7 90.7 83.7 90.8 83.8 90.9 83.8"/>
      <polyline class="cls-1" points="90.9 83.8 91 83.9 91.1 83.9 91.1 84 91.2 84 91.2 84 91.5 84.1 91.5 84.1 91.6 84.1 94.2 84.1 94.2 84.1 94.3 84.1 94.5 84 94.6 84 94.6 84 94.7 83.9 94.7 83.9 95 83.8 95 83.7 95.1 83.7 95.1 83.7 95.1 83.6 95.3 83.4 95.3 83.3 95.3 83.3 96.3 83.3 96.3 83.3 96.4 83.3 96.5 83.3 96.5 83.3 96.6 83.3 96.6 83.3 96.7 83.3 96.8 83.2 96.8 83.2 96.9 83.2 96.9 83.2 97 83.1 97 83.1 97.1 83.1 97.1 83 97.2 83 97.2 83 98.1 82.1 98.1 82 98.2 82 98.2 81.9 98.2 81.9 98.3 81.8 98.3 81.8 98.3 81.7 98.4 81.7 98.4 81.6 98.4 81.6 98.4 81.5 98.4 81.4 98.5 81.4 98.5 81.3 98.5 81.3 98.5 81.2 98.5 81.2 98.5 66.1"/>
      <polyline class="cls-1" points="98.5 66.1 98.5 62.7 101.4 59.8"/>
      <polyline class="cls-1" points="101.4 59.8 104.9 56.3 104.9 56.3 109.7 56.3"/>
      <polyline class="cls-1" points="109.7 53.7 104.4 53.7 104.3 53.7"/>
      <polyline class="cls-1" points="91.9 61.9 91.9 62 91.8 62 91.8 62.1 91.8 62.2 91.7 62.2 91.7 62.3 91.7 62.3 91.7 62.4 91.7 62.4 91.6 62.5 91.6 62.6 91.6 62.6 91.6 62.7 91.6 62.7 91.6 62.8 91.6 63.3 91.6 63.3 91.5 63.3 91.5 63.3 91.2 63.4 91.2 63.4 91.1 63.4 91.1 63.5 91 63.5 90.8 63.6 90.7 63.7 90.7 63.7 90.7 63.8 90.6 63.8 90.5 64 90.4 64.1 90.4 64.1 90.4 64.2 90.4 64.2 90.3 64.5 90.3 64.6 90.3 64.6 90 64.9"/>
      <polyline class="cls-1" points="90 64.9 82.6 72.3 82.6 72.3 82.6 72.4 82.5 72.4 82.5 72.5 82.4 72.5 82.4 72.6 82.4 72.6 82.4 72.7 82.3 72.7 82.3 72.8 82.3 72.9 82.3 72.9 82.3 73 82.3 73 82.2 73.1 82.2 73.2 82.2 73.2"/>
      <line class="cls-1" x1="84.8" y1="73.7" x2="91.1" y2="67.4"/>
      <polyline class="cls-1" points="91.1 67.4 91.2 67.3 91.2 67.3 91.5 67.4 91.5 67.4 91.6 67.4 94.2 67.4 94.2 67.4 94.3 67.4 94.5 67.3 94.6 67.3 94.6 67.3 94.7 67.3 94.7 67.2 95 67.1 95 67 95.1 67 95.1 67 95.1 66.9 95.3 66.7 95.3 66.6 95.3 66.6 95.4 66.5 95.4 66.5 95.4 66.2 95.4 66.2 95.4 66.1 95.4 64.6 95.4 64.6 95.4 64.5 95.4 64.2 95.4 64.2 95.3 64.1"/>
      <polyline class="cls-1" points="95.3 64.1 95.3 64.1 95.3 64.1 95.3 64 95.1 63.8 95.1 63.8 95.1 63.7 95 63.7 95 63.6 94.7 63.5 94.7 63.5 94.6 63.4 94.6 63.4 94.5 63.4 94.3 63.3 94.2 63.3 94.2 63.3 94.2 63.3 98.8 58.7"/>
      <polyline class="cls-1" points="98.8 58.7 101 56.5 101 56.5 101 56.4 101.1 56.4 101.1 56.3 101.2 56.3 101.2 56.2 101.2 56.2 101.2 56.1 101.3 56 101.3 56 101.3 55.9 101.3 55.9 101.3 55.8 101.3 55.7 101.4 55.7 101.4 55.6 101.4 55.6"/>
      <polyline class="cls-1" points="99.4 54.4 92 61.9 92 61.9 91.9 61.9"/>
      <circle class="cls-2" cx="85" cy="45.4" r="2.8"/>
      <circle class="cls-2" cx="229.6" cy="133.2" r="2.8"/>
      <circle class="cls-2" cx="229.6" cy="45.4" r="2.8"/>
      <circle class="cls-2" cx="85" cy="133.2" r="2.8"/>
      <rect class="cls-2" x="76.5" y="36.9" width="161.6" height="104.9"/>
    </g>
  </g>
</svg>