<svg xmlns="http://www.w3.org/2000/svg" viewBox="0 0 106.934 101.56625" width="106.934mm" height="101.56625mm">
                    <g><polyline fill="none" stroke="#66cc99" stroke-width="0.4" points="76.062,17.02109192026123 76.04484192026123,17.03825" opacity="0.8" /><polyline fill="none" stroke="#66cc99" stroke-width="0.4" points="31.733458079738767,29.91285 31.72759345357453,29.906985373835766 31.732431428583382,29.900462119678973 31.743335644287324,29.88414280761911 31.76255772371678,29.85207270556934 31.771809860341413,29.834763175416754 31.78779596051149,29.800963406417146 31.7953069149234,29.782830358409555 31.807903080950574,29.747626432712405 31.813600518552892,29.728844498014585 31.822685442472547,29.692575448668777 31.826514493826583,29.673325507579236 31.832000682855064,29.63634062535666 31.833924472103142,29.616808065331035 31.83575909124103,29.579463534865468 31.836,29.56965 31.836,28.172408079738766 32.19525700010272,27.813151079636043 32.27698222177583,27.829407113004983 32.296396717124374,27.832286959634377 32.316,27.83325 33.216,27.83325 33.23560328287563,27.832286959634377 33.25501777822417,27.829407113004983 33.35068877822417,27.810377113004982 33.36972760506497,27.8056081673676 33.38820731810457,27.798996059085034 33.40594994857281,27.790604466028064 33.422784626169005,27.78051420338537 33.503890626169,27.726321203385368 33.51965546139535,27.714629251063652 33.534198356237304,27.701448356237307 33.54737925106365,27.68690546139535 33.559071203385365,27.671140626169002 33.61326420338537,27.590034626169004 33.62335446602806,27.573199948572814 33.63174605908503,27.555457318104573 33.6383581673676,27.536977605064973 33.64312711300498,27.51793877822417 33.66215711300498,27.42226777822417 33.66503695963438,27.40285328287563 33.666,27.38325 33.666,26.85825 33.66503695963438,26.838646717124373 33.66215711300498,26.81923222177583 33.64312711300498,26.723561221775828 33.6383581673676,26.704522394935026 33.63174605908503,26.686042681895426 33.62335446602806,26.668300051427185 33.61326420338537,26.651465373830998 33.559071203385365,26.570359373830996 33.54737925106365,26.554594538604647 33.534198356237304,26.54005164376269 33.51965546139535,26.526870748936346 33.503890626169,26.51517879661463 33.422784626169005,26.460985796614633 33.40594994857281,26.450895533971934 33.38820731810457,26.442503940914968 33.36972760506497,26.4358918326324 33.35068877822417,26.431122886995016 33.347,26.430389148980296 33.347,25.5721108510197 33.35068877822417,25.57137711300498 33.36972760506497,25.5666081673676 33.38820731810457,25.559996059085034 33.40594994857281,25.551604466028063 33.422784626169005,25.54151420338537 33.503890626169,25.487321203385367 33.51965546139535,25.47562925106365 33.534198356237304,25.462448356237307 33.54737925106365,25.447905461395354 33.559071203385365,25.432140626169005 33.61326420338537,25.351034626169003 33.62335446602806,25.334199948572813 33.63174605908503,25.316457318104572 33.6383581673676,25.297977605064972 33.64312711300498,25.27893877822417 33.66215711300498,25.18326777822417 33.66503695963438,25.16385328287563 33.666,25.14425 33.666,24.61925 33.66503695963438,24.599646717124372 33.66215711300498,24.58023222177583 33.64312711300498,24.48456122177583 33.6383581673676,24.465522394935025 33.63249867412455,24.44914611235439" opacity="0.8" /><polyline fill="none" stroke="#66cc99" stroke-width="0.4" points="33.63249867412455,24.44914611235439 33.63174605908503,24.44704268189543 33.62335446602806,24.429300051427184 33.61326420338537,24.412465373830997 33.559071203385365,24.331359373830995 33.54737925106365,24.315594538604646 33.534198356237304,24.301051643762694 33.51965546139535,24.28787074893635 33.503890626169,24.276178796614634 33.422784626169005,24.221985796614632 33.40594994857281,24.211895533971937 33.38820731810457,24.203503940914967 33.36972760506497,24.1968918326324 33.35068877822417,24.19212288699502 33.25501777822417,24.17309288699502 33.23560328287563,24.17021304036562 33.216,24.16925 32.316,24.16925 32.296396717124374,24.17021304036562 32.27698222177583,24.17309288699502 32.18131122177583,24.19212288699502 32.16227239493503,24.1968918326324 32.14379268189543,24.203503940914967 32.126050051427185,24.211895533971937 32.109215373831,24.221985796614632 32.02810937383099,24.276178796614634 32.012344538604644,24.28787074893635 31.997801643762692,24.301051643762694 31.984620748936347,24.315594538604646 31.97292879661463,24.331359373830995 31.918735796614634,24.412465373830997 31.908645533971935,24.429300051427184 31.900253940914965,24.44704268189543 31.8936418326324,24.465522394935025 31.888872886995017,24.48456122177583 31.869842886995016,24.58023222177583 31.866963040365622,24.599646717124372 31.866,24.61925 31.866,25.14425 31.866963040365622,25.16385328287563 31.869842886995016,25.18326777822417 31.888872886995017,25.27893877822417 31.8936418326324,25.297977605064972 31.900253940914965,25.316457318104572 31.908645533971935,25.334199948572813 31.918735796614634,25.351034626169003 31.97292879661463,25.432140626169005 31.984620748936347,25.447905461395354 31.997801643762692,25.462448356237307 32.012344538604644,25.47562925106365 32.02810937383099,25.487321203385367 32.109215373831,25.54151420338537 32.126050051427185,25.551604466028063 32.14379268189543,25.559996059085034 32.16227239493503,25.5666081673676 32.18131122177583,25.57137711300498 32.185,25.5721108510197 32.185,26.430389148980296 32.18131122177583,26.431122886995016 32.16227239493503,26.4358918326324 32.14379268189543,26.442503940914968 32.126050051427185,26.450895533971934 32.109215373831,26.460985796614633 32.02810937383099,26.51517879661463 32.012344538604644,26.526870748936346 31.997801643762692,26.54005164376269 31.993695525373354,26.544582053020292 31.962324492420763,26.549235506173417 31.94307455133122,26.553064557527453 31.906805501985417,26.562149481447108 31.888023567287593,26.567846919049426 31.852819641590447,26.5804430850766 31.834686593582855,26.58795403948851 31.800886824583248,26.603940139658587 31.783577294430657,26.61319227628322 31.751507192380892,26.632414355712676 31.735187880321025,26.643318571416618 31.70515629783515,26.665591510972686 31.689984367764257,26.678042792197793 31.66228052539853,26.703152091296918 31.65517096013062,26.709920960130617 30.84417096013062,27.520920960130617 30.83740209129692,27.52803052539853 30.812292792197795,27.555734367764256 30.799841510972687,27.570906297835148 30.777568571416616,27.600937880321027 30.766664355712674,27.61725719238089 30.74744227628322,27.64932729443066 30.738190139658585,27.666636824583247 30.72220403948851,27.700436593582854 30.7146930850766,27.718569641590445 30.702096919049428,27.753773567287595 30.69639948144711,27.772555501985416 30.687314557527454,27.808824551331224 30.683485506173415,27.82807449242076 30.677999317144938,27.86505937464334 30.67607552789686,27.884591934668965 30.674240908758968,27.921936465134532 30.674,27.93175 30.674,29.328991920261235" opacity="0.8" /><polyline fill="none" stroke="#66cc99" stroke-width="0.4" points="36.80818646513453,18.959490908758966 36.78368218005214,18.960694727090914 36.764149620026515,18.962618516338996 36.73988132460487,18.96621837790624 36.720631383515325,18.970047429260283 36.69683279470574,18.97600866542804 36.67805086000795,18.981706103030337 36.654951171230294,18.989971303835567 36.636818123222675,18.99748225824749 36.61463979710744,19.007971825288227 36.597330266954835,19.01722396191287 36.57628689290644,19.029836874924325 36.55996758084664,19.04074109062822 36.54026181806062,19.055355880363173 36.52508988798969,19.067807161588323 36.50691151373396,19.084283079632367 36.49980194846606,19.091051948466053 35.756,19.834853896932106" opacity="0.8" /><polyline fill="none" stroke="#66cc99" stroke-width="0.4" points="35.756,19.834853896932106 34.856,20.734853896932112" opacity="0.8" /><polyline fill="none" stroke="#66cc99" stroke-width="0.4" points="34.856,20.734853896932112 33.97180194846605,21.619051948466055 33.96503307963236,21.626161513733962 33.94855716158832,21.644339887989684 33.93610588036317,21.659511818060622 33.92149109062822,21.679217580846636 33.91058687492433,21.695536892906436 33.89797396191287,21.716580266954832 33.88872182528822,21.733889797107445 33.878232258247486,21.756068123222672 33.87072130383558,21.77420117123027 33.86245610303035,21.797300860007926 33.856758665428025,21.81608279470577 33.850797429260275,21.83988138351536 33.846968377906244,21.859131324604878 33.843368516339,21.883399620026513 33.841444727090916,21.90293218005214 33.840240908758965,21.92743646513453 33.84,21.93725 33.84,22.683612358817467" opacity="0.8" /><polyline fill="none" stroke="#66cc99" stroke-width="0.4" points="33.84,22.683612358817467 33.84,23.988687641182533" opacity="0.8" /><polyline fill="none" stroke="#66cc99" stroke-width="0.4" points="33.84,23.988687641182533 33.84,24.508612358817466" opacity="0.8" /><polyline fill="none" stroke="#66cc99" stroke-width="0.4" points="33.84,24.508612358817466 33.84,25.813687641182533" opacity="0.8" /><polyline fill="none" stroke="#66cc99" stroke-width="0.4" points="33.84,25.813687641182533 33.84,28.44335389693211 33.78760389693211,28.49575 33.62451319902824,28.49575 33.62335446602806,28.493300051427184 33.61326420338537,28.476465373830997 33.559071203385365,28.395359373830996 33.54737925106365,28.379594538604646 33.534198356237304,28.365051643762694 33.51965546139535,28.35187074893635 33.503890626169,28.340178796614634 33.422784626169005,28.285985796614632 33.40594994857281,28.275895533971937 33.38820731810457,28.267503940914967 33.38128203147282,28.26502604826594" opacity="0.8" /><polyline fill="none" stroke="#66cc99" stroke-width="0.4" points="33.38128203147282,28.26502604826594 33.36972760506497,28.2608918326324 33.35068877822417,28.25612288699502 33.25501777822417,28.23709288699502 33.23560328287563,28.23421304036562 33.216,28.23325 32.316,28.23325 32.296396717124374,28.23421304036562 32.27698222177583,28.23709288699502 32.18131122177583,28.25612288699502 32.16227239493503,28.2608918326324 32.14379268189543,28.267503940914967 32.126050051427185,28.275895533971937 32.109215373831,28.285985796614632 32.02810937383099,28.340178796614634 32.012344538604644,28.35187074893635 31.997801643762692,28.365051643762694 31.984620748936347,28.379594538604646 31.97292879661463,28.395359373830996 31.918735796614634,28.476465373830997 31.908645533971935,28.493300051427184 31.900253940914965,28.51104268189543 31.8936418326324,28.529522394935025 31.888872886995017,28.54856122177583 31.869842886995016,28.64423222177583 31.866963040365622,28.663646717124372 31.866,28.68325 31.866,29.20825 31.866963040365622,29.22785328287563 31.869842886995016,29.24726777822417 31.888872886995017,29.34293877822417 31.8936418326324,29.361977605064972 31.900253940914965,29.380457318104572 31.908645533971935,29.398199948572813 31.918735796614634,29.415034626169003 31.97292879661463,29.496140626169005 31.984620748936347,29.511905461395354 31.997801643762692,29.526448356237307 32.012344538604644,29.53962925106365 32.02810937383099,29.551321203385367 32.06819959415474,29.57810848558403" opacity="0.8" /><polyline fill="none" stroke="#66cc99" stroke-width="0.4" points="32.06819959415474,29.57810848558403 32.109215373831,29.60551420338537 32.126050051427185,29.615604466028064 32.14379268189543,29.623996059085034 32.16227239493503,29.6306081673676 32.18131122177583,29.63537711300498 32.27698222177583,29.654407113004982 32.296396717124374,29.65728695963438 32.316,29.65825 33.216,29.65825 33.23560328287563,29.65728695963438 33.25501777822417,29.654407113004982 33.35068877822417,29.63537711300498 33.36972760506497,29.6306081673676 33.38820731810457,29.623996059085034 33.40594994857281,29.615604466028064 33.422784626169005,29.60551420338537 33.503890626169,29.551321203385367 33.51965546139535,29.53962925106365 33.534198356237304,29.526448356237307 33.54737925106365,29.511905461395354 33.559071203385365,29.496140626169005 33.61326420338537,29.415034626169003 33.62335446602806,29.398199948572813 33.62451319902824,29.39575 33.974,29.39575 33.98381353486547,29.39550909124103 34.00831781994786,29.394305272909083 34.027850379973486,29.392381483661005 34.05211867539512,29.38878162209376 34.07136861648464,29.384952570739724 34.09516720529423,29.37899133457197 34.11394913999207,29.373293896969653 34.13704882876973,29.365028696164423 34.15518187677733,29.357517741752513 34.17736020289256,29.347028174711777 34.19466973304517,29.337776038087128 34.21571310709356,29.325163125075676 34.23203241915336,29.314258909371777 34.25173818193938,29.299644119636827 34.266910112010315,29.28719283841168 34.28508848626604,29.270716920367637 34.292198051533944,29.263948051533944 34.60819805153395,28.947948051533945 34.614966920367635,28.94083848626604 34.63144283841168,28.922660112010316 34.643894119636826,28.907488181939378 34.658508909371776,28.887782419153364 34.66941312507568,28.871463107093565 34.68202603808713,28.850419733045168 34.691278174711776,28.833110202892556 34.70176774175251,28.810931876777328 34.709278696164425,28.79279882876973 34.71754389696965,28.769699139992074 34.72324133457197,28.75091720529423 34.72920257073972,28.727118616484642 34.73303162209376,28.707868675395122 34.736631483661,28.683600379973488 34.73855527290908,28.66406781994786 34.739759091241034,28.63956353486547 34.74,28.62975 34.74,23.31744610306789" opacity="0.8" /><polyline fill="none" stroke="#66cc99" stroke-width="0.4" points="34.74,23.31744610306789 34.74,22.12364610306789 35.756,21.10764610306789" opacity="0.8" /><polyline fill="none" stroke="#66cc99" stroke-width="0.4" points="35.756,21.10764610306789 37.00439610306789,19.85925 38.552,19.85925" opacity="0.8" /><polyline fill="none" stroke="#66cc99" stroke-width="0.4" points="38.552,18.95925 36.818,18.95925 36.80818646513453,18.959490908758966" opacity="0.8" /><polyline fill="none" stroke="#66cc99" stroke-width="0.4" points="32.42455716158832,21.853120887989686 32.41210588036317,21.86829281806062 32.39749109062822,21.887998580846638 32.386586874924326,21.904317892906434 32.37397396191287,21.92536126695483 32.36472182528822,21.942670797107443 32.354232258247485,21.96484912322267 32.34672130383558,21.982982171230272 32.338456103030346,22.006081860007928 32.33275866542803,22.02486379470577 32.326797429260274,22.048662383515357 32.32296837790624,22.067912324604876 32.319368516339,22.092180620026515 32.317444727090916,22.11171318005214 32.31624090875897,22.136217465134532 32.316,22.146031 32.316,22.31825 32.316,22.34425 32.296396717124374,22.34521304036562 32.27698222177583,22.34809288699502 32.18131122177583,22.367122886995016 32.16227239493503,22.3718918326324 32.14379268189543,22.378503940914968 32.126050051427185,22.386895533971934 32.109215373831,22.396985796614633 32.02810937383099,22.45117879661463 32.012344538604644,22.462870748936346 31.997801643762692,22.47605164376269 31.984620748936347,22.490594538604647 31.97292879661463,22.506359373830996 31.918735796614634,22.587465373830998 31.908645533971935,22.604300051427185 31.900253940914965,22.622042681895426 31.8936418326324,22.640522394935026 31.888872886995017,22.65956122177583 31.869842886995016,22.75523222177583 31.866963040365622,22.774646717124373 31.866485445751525,22.784368451180583 31.76470389693211,22.88615" opacity="0.8" /><polyline fill="none" stroke="#66cc99" stroke-width="0.4" points="31.76470389693211,22.88615 29.145801948466055,25.505051948466054 29.139033079632362,25.51216151373396 29.12255716158832,25.530339887989683 29.110105880363175,25.54551181806062 29.095491090628222,25.56521758084664 29.084586874924323,25.581536892906435 29.07197396191287,25.60258026695483 29.06272182528822,25.619889797107444 29.052232258247486,25.64206812322267 29.04472130383558,25.66020117123027 29.036456103030346,25.683300860007925 29.030758665428028,25.70208279470577 29.024797429260275,25.725881383515357 29.02096837790624,25.745131324604877 29.017368516338998,25.769399620026515 29.015444727090916,25.78893218005214 29.014240908758968,25.813436465134533 29.014,25.82325" opacity="0.8" /><polyline fill="none" stroke="#66cc99" stroke-width="0.4" points="29.914,26.00964610306789 32.13749610306789,23.78615" opacity="0.8" /><polyline fill="none" stroke="#66cc99" stroke-width="0.4" points="32.13749610306789,23.78615 32.17807869131952,23.74556741174837 32.18131122177583,23.746377113004982 32.27698222177583,23.765407113004983 32.296396717124374,23.768286959634377 32.316,23.76925 33.216,23.76925 33.23560328287563,23.768286959634377 33.25501777822417,23.765407113004983 33.35068877822417,23.746377113004982 33.36972760506497,23.7416081673676 33.38820731810457,23.734996059085034 33.40594994857281,23.726604466028064 33.422784626169005,23.71651420338537 33.503890626169,23.662321203385368 33.51965546139535,23.650629251063652 33.534198356237304,23.637448356237307 33.54737925106365,23.62290546139535 33.559071203385365,23.607140626169002 33.61326420338537,23.526034626169004 33.62335446602806,23.509199948572814 33.63174605908503,23.491457318104572 33.6383581673676,23.472977605064973 33.64312711300498,23.45393877822417 33.66215711300498,23.35826777822417 33.66503695963438,23.33885328287563 33.666,23.31925 33.666,22.79425 33.66503695963438,22.774646717124373 33.66215711300498,22.75523222177583 33.64312711300498,22.65956122177583 33.6383581673676,22.640522394935026 33.63249867412455,22.62414611235439" opacity="0.8" /><polyline fill="none" stroke="#66cc99" stroke-width="0.4" points="33.63249867412455,22.62414611235439 33.63174605908503,22.622042681895426 33.62335446602806,22.604300051427185 33.61326420338537,22.587465373830998 33.559071203385365,22.506359373830996 33.54737925106365,22.490594538604647 33.534198356237304,22.47605164376269 33.51965546139535,22.462870748936346 33.503890626169,22.45117879661463 33.422784626169005,22.396985796614633 33.40594994857281,22.386895533971934 33.38820731810457,22.378503940914968 33.36972760506497,22.3718918326324 33.35068877822417,22.367122886995016 33.25501777822417,22.34809288699502 33.23560328287563,22.34521304036562 33.216,22.34425 33.216,22.33242710306789 34.856,20.692427103067892" opacity="0.8" /><polyline fill="none" stroke="#66cc99" stroke-width="0.4" points="34.856,20.692427103067892 35.624198051533945,19.92422905153395 35.63096692036764,19.917119486266024 35.64744283841169,19.898941112010295 35.6598941196368,19.883769181939403 35.67450890937176,19.864063419153396 35.685413125075684,19.847744107093558 35.698026038087136,19.826700733045158 35.70727817471178,19.80939120289256 35.71776774175251,19.787212876777332 35.72527869616442,19.76907982876973 35.73354389696966,19.745980139992074 35.73924133457197,19.72719820529424 35.74520257073972,19.703399616484656 35.74903162209376,19.68414967539512 35.752631483661006,19.659881379973474 35.75455527290908,19.64034881994786 35.75575909124103,19.615844534865474 35.756,19.606031" opacity="0.8" /><polyline fill="none" stroke="#66cc99" stroke-width="0.4" points="34.856,19.419634896932106 32.44780194846606,21.827832948466057 32.44103307963236,21.83494251373396 32.42455716158832,21.853120887989686" opacity="0.8" /></g>
                    <circle r="1.0" cx="30" cy="16" stroke-width="0.1" fill="none" stroke="black"/><circle r="1.0" cx="81" cy="47" stroke-width="0.1" fill="none" stroke="black"/><circle r="1.0" cx="81" cy="16" stroke-width="0.1" fill="none" stroke="black"/><circle r="1.0" cx="30" cy="47" stroke-width="0.1" fill="none" stroke="black"/><rect width="57.0" height="37.0" x="27" y="13" stroke-width="0.1" fill="none" stroke="black"/>
                    </svg>