M48
; DRILL file {KiCad 7.0.10} date Mon Dec  2 13:20:55 2024
; FORMAT={-:-/ absolute / metric / decimal}
; #@! TF.CreationDate,2024-12-02T13:20:55-05:00
; #@! TF.GenerationSoftware,Kicad,Pcbnew,7.0.10
; #@! TF.FileFunction,Plated,1,2,PTH
FMAT,2
METRIC
; #@! TA.AperFunction,Plated,PTH,ViaDrill
T1C40.000
%
G90
G05
T1
X12782.5Y-7180.0
X12817.5Y-7867.5
X12870.0Y-7290.0
X13072.5Y-8295.0
X13349.8Y-6557.4
X13375.2Y-6968.56
X13387.5Y-8417.5
X13450.5Y-7699.5
X13603.8Y-7421.0
X13680.0Y-6379.6
X13705.4Y-7548.0
X13807.0Y-7548.0
X13838.44Y-6859.001
X13857.8Y-6659.0
X13857.8Y-6759.0
X13908.6Y-7548.0
X13934.0Y-6303.4
X14010.2Y-7548.0
X14035.6Y-7014.6
X14108.96Y-6836.8
X14213.4Y-6709.8
X14289.6Y-7522.6
X14365.8Y-6303.4
X14393.224Y-7518.197
X14715.36Y-7116.2
X14715.36Y-7218.4
X14721.4Y-7370.2
X14746.8Y-8538.6
X14765.0Y-8025.0
X14845.0Y-7817.5
X14848.4Y-8183.0
X14975.4Y-8106.8
X15077.0Y-6684.4
X15305.6Y-7116.2
X15407.2Y-7217.8
X15686.6Y-7827.4
M30
