M48
; DRILL file {KiCad 7.0.10} date Thu Dec  5 18:17:57 2024
; FORMAT={-:-/ absolute / metric / decimal}
; #@! TF.CreationDate,2024-12-05T18:17:57-05:00
; #@! TF.GenerationSoftware,Kicad,Pcbnew,7.0.10
; #@! TF.FileFunction,Plated,1,2,PTH
FMAT,2
METRIC
; #@! TA.AperFunction,Plated,PTH,ViaDrill
T1C40.000
; #@! TA.AperFunction,Plated,PTH,ViaDrill
T2C50.000
%
G90
G05
T1
X13691.765Y-8636.655
X13717.165Y-9047.815
X13945.765Y-9500.255
X14021.965Y-8458.855
X14047.365Y-9627.255
X14148.965Y-9627.255
X14180.405Y-8938.256
X14199.765Y-8738.255
X14199.765Y-8838.255
X14250.565Y-9627.255
X14275.965Y-8382.655
X14352.165Y-9627.255
X14377.565Y-9093.855
X14450.925Y-8916.055
X14555.365Y-8789.055
X14631.565Y-9601.855
X14707.765Y-8382.655
X14735.189Y-9597.452
X15057.325Y-9195.455
X15057.325Y-9297.655
X15063.365Y-9449.455
X15088.765Y-10617.855
X15190.365Y-10262.255
X15317.365Y-10186.055
X15418.965Y-8763.655
X15647.565Y-9195.455
X15749.165Y-9297.055
X16028.565Y-9906.655
T2
X13041.965Y-9256.755
X13159.465Y-9946.755
X13211.965Y-9369.255
X13414.465Y-10374.255
X13702.365Y-9737.415
X13705.84Y-10513.06
X15119.245Y-10012.48
X15264.465Y-9813.555
M30
