%TF.GenerationSoftware,KiCad,Pcbnew,7.0.10*%
%TF.CreationDate,2024-12-03T16:47:28-05:00*%
%TF.ProjectId,comparison,636f6d70-6172-4697-936f-6e2e6b696361,rev?*%
%TF.SameCoordinates,Original*%
%TF.FileFunction,Profile,NP*%
%FSLAX46Y46*%
G04 Gerber Fmt 4.6, Leading zero omitted, Abs format (unit mm)*
G04 Created by KiCad (PCBNEW 7.0.10) date 2024-12-03 16:47:28*
%MOMM*%
%LPD*%
G01*
G04 APERTURE LIST*
%TA.AperFunction,Profile*%
%ADD10C,0.100000*%
%TD*%
G04 APERTURE END LIST*
D10*
X142913431Y-67660762D02*
X142930729Y-67663039D01*
X142947763Y-67666815D01*
X142964404Y-67672062D01*
X142980523Y-67678739D01*
X142996000Y-67686795D01*
X143010715Y-67696170D01*
X143024557Y-67706792D01*
X143037421Y-67718579D01*
X143049208Y-67731443D01*
X143059830Y-67745285D01*
X143069205Y-67760000D01*
X143077261Y-67775477D01*
X143083938Y-67791596D01*
X143089185Y-67808237D01*
X143092961Y-67825271D01*
X143095238Y-67842569D01*
X143096000Y-67860000D01*
X143095238Y-67877431D01*
X143092961Y-67894729D01*
X143089185Y-67911763D01*
X143083938Y-67928404D01*
X143077261Y-67944523D01*
X143069205Y-67959999D01*
X143059830Y-67974715D01*
X143049208Y-67988557D01*
X143037421Y-68001421D01*
X143024557Y-68013208D01*
X143010715Y-68023830D01*
X142996000Y-68033205D01*
X142980523Y-68041261D01*
X142964404Y-68047938D01*
X142947763Y-68053185D01*
X142930729Y-68056961D01*
X142913431Y-68059238D01*
X142896000Y-68060000D01*
X142878569Y-68059238D01*
X142861271Y-68056961D01*
X142844237Y-68053185D01*
X142827596Y-68047938D01*
X142811477Y-68041261D01*
X142796001Y-68033205D01*
X142781285Y-68023830D01*
X142767443Y-68013208D01*
X142754579Y-68001421D01*
X142742792Y-67988557D01*
X142732170Y-67974715D01*
X142722795Y-67959999D01*
X142714739Y-67944523D01*
X142708062Y-67928404D01*
X142702815Y-67911763D01*
X142699039Y-67894729D01*
X142696762Y-67877431D01*
X142696000Y-67860000D01*
X142696762Y-67842569D01*
X142699039Y-67825271D01*
X142702815Y-67808237D01*
X142708062Y-67791596D01*
X142714739Y-67775477D01*
X142722795Y-67760000D01*
X142732170Y-67745285D01*
X142742792Y-67731443D01*
X142754579Y-67718579D01*
X142767443Y-67706792D01*
X142781285Y-67696170D01*
X142796000Y-67686795D01*
X142811477Y-67678739D01*
X142827596Y-67672062D01*
X142844237Y-67666815D01*
X142861271Y-67663039D01*
X142878569Y-67660762D01*
X142896000Y-67660000D01*
X142913431Y-67660762D01*
X152311431Y-69692762D02*
X152328729Y-69695039D01*
X152345763Y-69698815D01*
X152362404Y-69704062D01*
X152378523Y-69710739D01*
X152394000Y-69718795D01*
X152408715Y-69728170D01*
X152422557Y-69738792D01*
X152435421Y-69750579D01*
X152447208Y-69763443D01*
X152457830Y-69777285D01*
X152467205Y-69792000D01*
X152475261Y-69807477D01*
X152481938Y-69823596D01*
X152487185Y-69840237D01*
X152490961Y-69857271D01*
X152493238Y-69874569D01*
X152494000Y-69892000D01*
X152493238Y-69909431D01*
X152490961Y-69926729D01*
X152487185Y-69943763D01*
X152481938Y-69960404D01*
X152475261Y-69976523D01*
X152467205Y-69991999D01*
X152457830Y-70006715D01*
X152447208Y-70020557D01*
X152435421Y-70033421D01*
X152422557Y-70045208D01*
X152408715Y-70055830D01*
X152394000Y-70065205D01*
X152378523Y-70073261D01*
X152362404Y-70079938D01*
X152345763Y-70085185D01*
X152328729Y-70088961D01*
X152311431Y-70091238D01*
X152294000Y-70092000D01*
X152276569Y-70091238D01*
X152259271Y-70088961D01*
X152242237Y-70085185D01*
X152225596Y-70079938D01*
X152209477Y-70073261D01*
X152194001Y-70065205D01*
X152179285Y-70055830D01*
X152165443Y-70045208D01*
X152152579Y-70033421D01*
X152140792Y-70020557D01*
X152130170Y-70006715D01*
X152120795Y-69991999D01*
X152112739Y-69976523D01*
X152106062Y-69960404D01*
X152100815Y-69943763D01*
X152097039Y-69926729D01*
X152094762Y-69909431D01*
X152094000Y-69892000D01*
X152094762Y-69874569D01*
X152097039Y-69857271D01*
X152100815Y-69840237D01*
X152106062Y-69823596D01*
X152112739Y-69807477D01*
X152120795Y-69792000D01*
X152130170Y-69777285D01*
X152140792Y-69763443D01*
X152152579Y-69750579D01*
X152165443Y-69738792D01*
X152179285Y-69728170D01*
X152194000Y-69718795D01*
X152209477Y-69710739D01*
X152225596Y-69704062D01*
X152242237Y-69698815D01*
X152259271Y-69695039D01*
X152276569Y-69692762D01*
X152294000Y-69692000D01*
X152311431Y-69692762D01*
X145199431Y-75026762D02*
X145216729Y-75029039D01*
X145233763Y-75032815D01*
X145250404Y-75038062D01*
X145266523Y-75044739D01*
X145282000Y-75052795D01*
X145296715Y-75062170D01*
X145310557Y-75072792D01*
X145323421Y-75084579D01*
X145335208Y-75097443D01*
X145345830Y-75111285D01*
X145355205Y-75126000D01*
X145363261Y-75141477D01*
X145369938Y-75157596D01*
X145375185Y-75174237D01*
X145378961Y-75191271D01*
X145381238Y-75208569D01*
X145382000Y-75226000D01*
X145381238Y-75243431D01*
X145378961Y-75260729D01*
X145375185Y-75277763D01*
X145369938Y-75294404D01*
X145363261Y-75310523D01*
X145355205Y-75325999D01*
X145345830Y-75340715D01*
X145335208Y-75354557D01*
X145323421Y-75367421D01*
X145310557Y-75379208D01*
X145296715Y-75389830D01*
X145282000Y-75399205D01*
X145266523Y-75407261D01*
X145250404Y-75413938D01*
X145233763Y-75419185D01*
X145216729Y-75422961D01*
X145199431Y-75425238D01*
X145182000Y-75426000D01*
X145164569Y-75425238D01*
X145147271Y-75422961D01*
X145130237Y-75419185D01*
X145113596Y-75413938D01*
X145097477Y-75407261D01*
X145082001Y-75399205D01*
X145067285Y-75389830D01*
X145053443Y-75379208D01*
X145040579Y-75367421D01*
X145028792Y-75354557D01*
X145018170Y-75340715D01*
X145008795Y-75325999D01*
X145000739Y-75310523D01*
X144994062Y-75294404D01*
X144988815Y-75277763D01*
X144985039Y-75260729D01*
X144982762Y-75243431D01*
X144982000Y-75226000D01*
X144982762Y-75208569D01*
X144985039Y-75191271D01*
X144988815Y-75174237D01*
X144994062Y-75157596D01*
X145000739Y-75141477D01*
X145008795Y-75126000D01*
X145018170Y-75111285D01*
X145028792Y-75097443D01*
X145040579Y-75084579D01*
X145053443Y-75072792D01*
X145067285Y-75062170D01*
X145082000Y-75052795D01*
X145097477Y-75044739D01*
X145113596Y-75038062D01*
X145130237Y-75032815D01*
X145147271Y-75029039D01*
X145164569Y-75026762D01*
X145182000Y-75026000D01*
X145199431Y-75026762D01*
X146469431Y-69946762D02*
X146486729Y-69949039D01*
X146503763Y-69952815D01*
X146520404Y-69958062D01*
X146536523Y-69964739D01*
X146552000Y-69972795D01*
X146566715Y-69982170D01*
X146580557Y-69992792D01*
X146593421Y-70004579D01*
X146605208Y-70017443D01*
X146615830Y-70031285D01*
X146625205Y-70046000D01*
X146633261Y-70061477D01*
X146639938Y-70077596D01*
X146645185Y-70094237D01*
X146648961Y-70111271D01*
X146651238Y-70128569D01*
X146652000Y-70146000D01*
X146651238Y-70163431D01*
X146648961Y-70180729D01*
X146645185Y-70197763D01*
X146639938Y-70214404D01*
X146633261Y-70230523D01*
X146625205Y-70245999D01*
X146615830Y-70260715D01*
X146605208Y-70274557D01*
X146593421Y-70287421D01*
X146580557Y-70299208D01*
X146566715Y-70309830D01*
X146552000Y-70319205D01*
X146536523Y-70327261D01*
X146520404Y-70333938D01*
X146503763Y-70339185D01*
X146486729Y-70342961D01*
X146469431Y-70345238D01*
X146452000Y-70346000D01*
X146434569Y-70345238D01*
X146417271Y-70342961D01*
X146400237Y-70339185D01*
X146383596Y-70333938D01*
X146367477Y-70327261D01*
X146352001Y-70319205D01*
X146337285Y-70309830D01*
X146323443Y-70299208D01*
X146310579Y-70287421D01*
X146298792Y-70274557D01*
X146288170Y-70260715D01*
X146278795Y-70245999D01*
X146270739Y-70230523D01*
X146264062Y-70214404D01*
X146258815Y-70197763D01*
X146255039Y-70180729D01*
X146252762Y-70163431D01*
X146252000Y-70146000D01*
X146252762Y-70128569D01*
X146255039Y-70111271D01*
X146258815Y-70094237D01*
X146264062Y-70077596D01*
X146270739Y-70061477D01*
X146278795Y-70046000D01*
X146288170Y-70031285D01*
X146298792Y-70017443D01*
X146310579Y-70004579D01*
X146323443Y-69992792D01*
X146337285Y-69982170D01*
X146352000Y-69972795D01*
X146367477Y-69964739D01*
X146383596Y-69958062D01*
X146400237Y-69952815D01*
X146417271Y-69949039D01*
X146434569Y-69946762D01*
X146452000Y-69946000D01*
X146469431Y-69946762D01*
X152516158Y-86292000D02*
G75*
G03*
X150467842Y-86292000I-1024158J0D01*
G01*
X150467842Y-86292000D02*
G75*
G03*
X152516158Y-86292000I1024158J0D01*
G01*
X131313558Y-86294600D02*
G75*
G03*
X129265242Y-86294600I-1024158J0D01*
G01*
X129265242Y-86294600D02*
G75*
G03*
X131313558Y-86294600I1024158J0D01*
G01*
X131310958Y-65092000D02*
G75*
G03*
X129262642Y-65092000I-1024158J0D01*
G01*
X129262642Y-65092000D02*
G75*
G03*
X131310958Y-65092000I1024158J0D01*
G01*
X143889846Y-92919569D02*
G75*
G03*
X137889400Y-92917000I-2992846J17227569D01*
G01*
X137889400Y-92917000D02*
X143889400Y-92917000D01*
X152513558Y-65089400D02*
G75*
G03*
X150465242Y-65089400I-1024158J0D01*
G01*
X150465242Y-65089400D02*
G75*
G03*
X152513558Y-65089400I1024158J0D01*
G01*
M02*
