<svg xmlns="http://www.w3.org/2000/svg" viewBox="0 0 58.590274 42.4134" width="58.590274mm" height="42.4134mm">
                    <g stroke-linecap="round">
                        <g><path fill-rule="evenodd" fill="#ff3333" stroke="#555555" stroke-width="0.0" opacity="0.6" d="M 16.81630867887044,4.8444679604740735 L 15.895015935593367,6.049277383011609 L 16.81630867887041,4.844467960474119 L 17.55783315171568,4.03252006834276 L 16.81630867887044,4.8444679604740735 z" /><path fill-rule="evenodd" fill="#ff3333" stroke="#555555" stroke-width="0.0" opacity="0.6" d="M 20.157338028789265,1.7727063265343308 L 19.556473947823374,2.2353606373908295 L 20.157338028789223,1.7727063265343757 L 21.43513921234192,0.9556564122131989 L 20.157338028789265,1.7727063265343308 z" /><path fill-rule="evenodd" fill="#ff3333" stroke="#555555" stroke-width="0.0" opacity="0.6" d="M 28.608851270583333,-1.319374321432598 L 27.105470832601963,-1.1188975463487878 L 25.62528386503163,-0.7881557599994093 L 27.105470832601934,-1.1188975463487805 L 28.60885127058336,-1.319374321432598 L 30.123984024408074,-1.3880598703079299 L 28.608851270583333,-1.319374321432598 z" /><path fill-rule="evenodd" fill="#ff3333" stroke="#555555" stroke-width="0.0" opacity="0.6" d="M 42.425854165165006,3.6835080538948772 L 41.305926044058886,2.6607156830102356 L 41.19007907907167,2.5721299373547586 L 41.30592604405877,2.660715683010146 L 42.42585416516507,3.6835080538949594 L 43.02396989441818,4.3340539333841726 L 42.425854165165006,3.6835080538948772 z" /><path fill-rule="evenodd" fill="#ff3333" stroke="#555555" stroke-width="0.0" opacity="0.6" d="M 45.19473457568178,7.279543191796542 L 44.377685664154825,6.001743015841931 L 43.865137817127824,5.3360804251186025 L 44.377685664154825,6.001743015841939 L 45.19473457568178,7.279543191796578 L 45.89730659189272,8.623691401193396 L 45.19473457568178,7.279543191796542 z" /><path fill-rule="evenodd" fill="#ff3333" stroke="#555555" stroke-width="0.0" opacity="0.6" d="M 27.1562885034613,33.12240465258274 L 33.13711108105824,33.124965251111895 L 33.19846804292864,33.11413720215377 L 33.15028669376817,33.12264006787062 L 33.1454,33.1224 L 27.156267350024404,33.1224 L 27.1562885034613,33.12240465258274 z" /><path fill-rule="evenodd" fill="#ff3333" stroke="#555555" stroke-width="0.0" opacity="0.6" d="M 25.681333189180286,32.79799629933928 L 27.150290879877804,33.12108550808306 L 25.681333189180194,32.797996299339246 L 25.327837828786492,32.68718778841606 L 25.681333189180286,32.79799629933928 z" /></g>
                    </g>
                    </svg>