<svg xmlns="http://www.w3.org/2000/svg" viewBox="0 0 58.590274 42.4134" width="58.590274mm" height="42.4134mm">
                    <g stroke-linecap="round" fill-rule="evenodd">
                        <g><path fill-rule="evenodd" fill="#66cc99" stroke="#555555" stroke-width="0.0" opacity="1" d="M 34.15097135290104,16.0038 L 34.14629770592076,15.997976700015426 L 34.13507970195922,15.984607622477055 L 34.129324806453226,15.978045503084868 L 34.105749806453225,15.952318503084868 L 34.09971725946394,15.946016895305126 L 34.08738310469487,15.933682740536064 L 34.081081496915104,15.927650193546743 L 34.0553544969151,15.904075193546742 L 34.04879237752301,15.898320298040822 L 34.035423299984664,15.887102294079304 L 34.02861634183842,15.881639185623705 L 34.00093134183842,15.860396185623705 L 33.99389714831236,15.855238517293557 L 33.97961056644455,15.845234790306657 L 33.972358178102795,15.840388731649906 L 33.94292817810279,15.821638731649905 L 33.93546598230871,15.817110378154487 L 33.92035111123592,15.808383582981065 L 33.912698435957196,15.804185141303062 L 33.88174543595719,15.788072141303063 L 33.87392001793221,15.784213082073837 L 33.85810831300491,15.776839947302149 L 33.8501220261026,15.773325871759683 L 33.8178830261026,15.759971871759683 L 33.80974878329062,15.756808635679976 L 33.79335003737286,15.750840055230348 L 33.78508553426707,15.74803471086043 L 33.751804534267066,15.737541710860432 L 33.74342919204008,15.735100587249786 L 33.726580020628006,15.730585901283607 L 33.71810619144291,15.728512338928073 L 33.68403819144291,15.720959338928074 L 33.67547688847342,15.71925638209772 L 33.65828812863508,15.716225660800502 L 33.64966067176622,15.714897896333635 L 33.61506367176622,15.710343896333635 L 33.60639431727448,15.709394537668631 L 33.58902246276957,15.707874668092057 L 33.5803199627564,15.707304157180488 L 33.545457962756394,15.705781157180487 L 33.5367289813782,15.705590578590243 L 33.5192710186218,15.705590578590243 L 33.5105420372436,15.705781157180487 L 33.475680037243606,15.707304157180488 L 33.466977537230434,15.707874668092057 L 33.44960568272552,15.709394537668631 L 33.440936328233775,15.710343896333635 L 33.40633932823378,15.714897896333635 L 33.39771187136492,15.716225660800502 L 33.38052311152658,15.71925638209772 L 33.371961808557096,15.720959338928074 L 33.33789380855709,15.728512338928073 L 33.32941997937199,15.730585901283607 L 33.312570807959915,15.735100587249786 L 33.30419546573293,15.737541710860432 L 33.27091446573293,15.74803471086043 L 33.262649962627144,15.750840055230348 L 33.246251216709375,15.756808635679976 L 33.2381169738974,15.759971871759683 L 33.2058779738974,15.773325871759683 L 33.19789168699509,15.776839947302149 L 33.18207998206779,15.784213082073837 L 33.174254564042805,15.788072141303063 L 33.14330156404281,15.804185141303062 L 33.13564888876408,15.808383582981065 L 33.120534017691284,15.817110378154487 L 33.11307182189721,15.821638731649905 L 33.08364182189721,15.840388731649906 L 33.076389433555455,15.845234790306657 L 33.06210285168764,15.855238517293557 L 33.05506865816158,15.860396185623705 L 33.02738365816158,15.881639185623705 L 33.02057670001533,15.887102294079304 L 33.007207622477,15.898320298040822 L 33.0006455030849,15.904075193546742 L 32.9749185030849,15.927650193546743 L 32.968616895305125,15.933682740536064 L 32.95628274053606,15.946016895305126 L 32.95025019354677,15.952318503084868 L 32.92667519354677,15.978045503084868 L 32.92092029804078,15.984607622477055 L 32.909702294079246,15.997976700015426 L 32.90423918562371,16.00478365816161 L 32.8829961856237,16.032468658161612 L 32.87783851729363,16.03950285168752 L 32.867834790306716,16.053789433555334 L 32.86298873164988,16.061041821897238 L 32.844238731649874,16.09047182189724 L 32.839710378154486,16.097934017691284 L 32.83098358298108,16.113048888764055 L 32.82678514130306,16.120701564042776 L 32.810672141303066,16.151654564042776 L 32.80681308207384,16.159479982067765 L 32.79943994730213,16.175291686995088 L 32.79592587175965,16.18327797389743 L 32.78257187175965,16.215516973897426 L 32.7794086356799,16.223651216709538 L 32.77344005523029,16.240049962627307 L 32.77063471086043,16.24831446573296 L 32.76014171086043,16.281595465732963 L 32.757700587249815,16.28997080795978 L 32.75318590128362,16.30681997937186 L 32.751112338928046,16.315293808557122 L 32.743559338928044,16.349361808557124 L 32.741856382097694,16.357923111526684 L 32.73882566080049,16.375111871364997 L 32.737497896333636,16.383739328233748 L 32.73294389633364,16.41833632823375 L 32.73199453766865,16.427005682725518 L 32.73047466809207,16.444377537230434 L 32.729904157180485,16.453080037243573 L 32.728381157180486,16.487942037243574 L 32.728190578590244,16.496671018621786 L 32.728190578590244,16.514128981378214 L 32.728381157180486,16.522857962756426 L 32.729904157180485,16.557719962756426 L 32.73047466809207,16.56642246276957 L 32.73199453766865,16.58379431727448 L 32.73294389633364,16.59246367176625 L 32.737497896333636,16.62706067176625 L 32.73882566080049,16.635688128635003 L 32.741856382097694,16.652876888473315 L 32.743559338928044,16.661438191442876 L 32.751112338928046,16.695506191442878 L 32.75318590128362,16.70398002062814 L 32.757700587249815,16.72082919204022 L 32.76014171086043,16.729204534267037 L 32.77063471086043,16.76248553426704 L 32.77344005523029,16.770750037372693 L 32.7794086356799,16.787148783290462 L 32.78257187175965,16.795283026102574 L 32.79592587175965,16.827522026102574 L 32.799440506535646,16.835509512272164 L 32.80681486333162,16.851323564664632 L 32.810674585351585,16.859150130887507 L 32.82678758535159,16.89010213088751 L 32.83098469674373,16.89775227119097 L 32.839708615216466,16.912862197574377 L 32.84423542229706,16.920321983654322 L 32.86298542229706,16.94975298365432 L 32.86783225245202,16.957006707920268 L 32.87783763411534,16.971295887012303 L 32.8829961856237,16.97833134183839 L 32.90423918562371,17.00601634183839 L 32.909702294079246,17.012823299984575 L 32.92092029804078,17.026192377522946 L 32.92667519354677,17.032754496915132 L 32.95025019354677,17.05848149691513 L 32.95628274053606,17.06478310469487 L 32.968616895305125,17.077117259463936 L 32.9749185030849,17.083149806453257 L 33.0006455030849,17.106724806453258 L 33.007207622477,17.112479701959177 L 33.02057670001533,17.123697705920698 L 33.02738365816158,17.129160814376295 L 33.05506865816158,17.150403814376293 L 33.062104112987754,17.15556236588472 L 33.07639329207981,17.165567747548042 L 33.08364701634568,17.17041457770294 L 33.11307801634568,17.18916457770294 L 33.12053780242562,17.193691384783538 L 33.135647728809026,17.202415303256274 L 33.143297869112494,17.206612414648415 L 33.174249869112494,17.222725414648412 L 33.182076435335425,17.226585136668398 L 33.19789048772788,17.23395949346435 L 33.2058779738974,17.23747412824032 L 33.2381169738974,17.250828128240318 L 33.246251216709375,17.253991364320026 L 33.262649962627144,17.25995994476965 L 33.27091446573293,17.26276528913957 L 33.30419546573293,17.27325828913957 L 33.312570807959915,17.275699412750214 L 33.32941997937199,17.280214098716392 L 33.33789380855709,17.282287661071926 L 33.371961808557096,17.289840661071928 L 33.38052311152658,17.291543617902278 L 33.39771187136492,17.2945743391995 L 33.40633932823378,17.295902103666364 L 33.440936328233775,17.300456103666367 L 33.44960568272552,17.30140546233137 L 33.466977537230434,17.302925331907943 L 33.475680037243606,17.303495842819512 L 33.5105420372436,17.30501884281951 L 33.5192710186218,17.305209421409756 L 33.5367289813782,17.305209421409756 L 33.545457962756394,17.30501884281951 L 33.5803199627564,17.303495842819512 L 33.58902246276957,17.302925331907943 L 33.60639431727448,17.30140546233137 L 33.61506367176622,17.300456103666367 L 33.64966067176622,17.295902103666364 L 33.65828812863508,17.2945743391995 L 33.67547688847342,17.291543617902278 L 33.68403819144291,17.289840661071928 L 33.71810619144291,17.282287661071926 L 33.726580020628006,17.280214098716392 L 33.74342919204008,17.275699412750214 L 33.751804534267066,17.27325828913957 L 33.78508553426707,17.26276528913957 L 33.79335003737286,17.25995994476965 L 33.80974878329062,17.253991364320026 L 33.8178830261026,17.250828128240318 L 33.8501220261026,17.23747412824032 L 33.85810831300491,17.233960052697853 L 33.87392001793221,17.226586917926163 L 33.88174543595719,17.22272785869694 L 33.912698435957196,17.206614858696938 L 33.92035111123592,17.202416417018934 L 33.93546598230871,17.193689621845515 L 33.94292817810279,17.189161268350095 L 33.972358178102795,17.170411268350094 L 33.97961056644455,17.16556520969334 L 33.99389714831236,17.155561482706442 L 34.00093134183842,17.150403814376293 L 34.02861634183842,17.129160814376295 L 34.035423299984664,17.123697705920698 L 34.04879237752301,17.112479701959177 L 34.0553544969151,17.106724806453258 L 34.081081496915104,17.083149806453257 L 34.08738310469487,17.077117259463936 L 34.09971725946394,17.06478310469487 L 34.105749806453225,17.05848149691513 L 34.129324806453226,17.032754496915132 L 34.13507970195922,17.026192377522946 L 34.14629770592076,17.012823299984575 L 34.15097135290104,17.007 L 34.91755747711363,17.007 L 36.2030782385568,18.292520761443168 L 36.20659148584688,18.295948821796312 L 36.21370105111489,18.30271769063008 L 36.21729736909282,18.306058499110698 L 36.22468506039036,18.312754312203793 L 36.232118194527,18.319166177805318 L 36.24729012459776,18.331617459030316 L 36.25502892053187,18.337656874653785 L 36.26303734252811,18.34359632520208 L 36.27106315682271,18.349248741366505 L 36.28738246888265,18.3601529570705 L 36.295675966647984,18.365404756610065 L 36.30422799386126,18.370530644457922 L 36.312769195334674,18.375369175327524 L 36.33007872548723,18.384621311952145 L 36.33884705416638,18.38903491770716 L 36.3478603258996,18.393297877752513 L 36.356834658112554,18.397275925630062 L 36.37496770612013,18.40478688004197 L 36.38412642191476,18.40831978657633 L 36.393514135434,18.41167876418358 L 36.40283517066169,18.414758018293455 L 36.421617105359736,18.420455455895826 L 36.43107800483009,18.423073639388324 L 36.4407497513223,18.425496285766883 L 36.45032772289941,18.42764709120855 L 36.4695776639885,18.43147614256251 L 36.47924963350049,18.433154388474808 L 36.48911226875985,18.434617372215747 L 36.4988549355852,18.43581901555726 L 36.518387495611194,18.43774280480538 L 36.52817738881183,18.438464950711996 L 36.5381359302693,18.438954182482092 L 36.54794946513465,18.439195091241046 L 36.56757653486535,18.439195091241046 L 36.5773900697307,18.438954182482092 L 36.587348611188176,18.438464950711996 L 36.59713850438881,18.43774280480538 L 36.6166710644148,18.43581901555726 L 36.626413731240156,18.434617372215747 L 36.636276366499516,18.433154388474808 L 36.6459483360115,18.43147614256251 L 36.66519827710059,18.42764709120855 L 36.6747762486777,18.425496285766883 L 36.684447995169904,18.423073639388324 L 36.693908894640266,18.420455455895826 L 36.712690829338314,18.414758018293455 L 36.722011864566,18.41167876418358 L 36.731399578085245,18.40831978657633 L 36.740558293879864,18.40478688004197 L 36.75869134188744,18.397275925630062 L 36.7676656741004,18.393297877752513 L 36.77667894583362,18.38903491770716 L 36.78544727451277,18.384621311952145 L 36.80275680466533,18.375369175327524 L 36.81129800613874,18.370530644457922 L 36.81985003335202,18.365404756610065 L 36.82814353111735,18.3601529570705 L 36.84446284317729,18.349248741366505 L 36.852488657471895,18.34359632520208 L 36.86049707946813,18.337656874653785 L 36.86823587540224,18.331617459030316 L 36.883407805473,18.319166177805318 L 36.890840939609646,18.312754312203793 L 36.89822863090718,18.306058499110698 L 36.90533819617519,18.299289630276935 L 36.91921663027695,18.285411196175172 L 36.9259854991107,18.278301630907176 L 36.9326813122038,18.270913939609645 L 36.939093177805276,18.263480805473073 L 36.95154445903027,18.24830887540233 L 36.957583874653785,18.24057007946816 L 36.963523325202075,18.232561657471926 L 36.969175741366534,18.22453584317723 L 36.980079957070586,18.208216531117184 L 36.98533175661019,18.199923033351837 L 36.990457644458026,18.191371006138578 L 36.99529617532751,18.18282980466537 L 37.00454831195202,18.165520274513035 L 37.008961917707055,18.156751945833907 L 37.01322487775242,18.14773867410067 L 37.01720292563,18.13876434188758 L 37.02471388004193,18.12063129387997 L 37.02824678657627,18.11147257808545 L 37.031605764183524,18.102084864566223 L 37.03468501829344,18.092763829338445 L 37.04038245589578,18.073981894640504 L 37.043000639388204,18.06452099517034 L 37.04542328576678,18.054849248678117 L 37.04757409120852,18.045271277100756 L 37.05140314256257,18.026021336011187 L 37.05308138847488,18.01634936649898 L 37.05454437221581,18.006486731239633 L 37.05574601555732,17.99674406441435 L 37.0576698048054,17.97721150438863 L 37.058391950711965,17.96742161118819 L 37.05888118248206,17.9574630697307 L 37.05912209124103,17.94764953486535 L 37.05912209124103,17.92802246513465 L 37.05888118248206,17.9182089302693 L 37.058391950711965,17.908250388811812 L 37.0576698048054,17.89846049561137 L 37.05574601555732,17.878927935585647 L 37.05454437221581,17.86918526876037 L 37.05308138847488,17.859322633501023 L 37.05140314256257,17.849650663988815 L 37.04757409120852,17.830400722899242 L 37.04542328576678,17.82082275132188 L 37.043000639388204,17.81115100482966 L 37.04038245589578,17.801690105359494 L 37.03468501829344,17.782908170661553 L 37.031605764183524,17.77358713543378 L 37.02824678657627,17.764199421914547 L 37.02471388004193,17.755040706120027 L 37.01720292563,17.736907658112422 L 37.01322487775242,17.727933325899333 L 37.008961917707055,17.718920054166095 L 37.00454831195202,17.710151725486963 L 36.99529617532751,17.692842195334627 L 36.990457644458026,17.68430099386142 L 36.98533175661019,17.67574896664816 L 36.980079957070586,17.667455468882814 L 36.969175741366534,17.65113615682277 L 36.963523325202075,17.643110342528075 L 36.957583874653785,17.635101920531838 L 36.95154445903027,17.627363124597668 L 36.939093177805276,17.612191194526925 L 36.9326813122038,17.604758060390353 L 36.9259854991107,17.597370369092822 L 36.92264469063008,17.593774051114902 L 36.91587582179633,17.586664485846907 L 36.9124477614432,17.583151238556834 L 35.4800117614432,16.15071523855683 L 35.47649851415312,16.147287178203687 L 35.46938894888511,16.14051830936992 L 35.46579263090718,16.1371775008893 L 35.45840493960965,16.130481687796205 L 35.450971805473,16.12406982219468 L 35.43579987540224,16.111618540969683 L 35.42806107946813,16.105579125346214 L 35.42005265747189,16.099639674797924 L 35.41202684317729,16.093987258633494 L 35.39570753111735,16.083083042929502 L 35.387414033352016,16.077831243389934 L 35.37886200613874,16.07270535554208 L 35.370320804665326,16.067866824672475 L 35.35301127451277,16.058614688047857 L 35.34424294583362,16.05420108229284 L 35.3352296741004,16.049938122247486 L 35.326255341887446,16.045960074369937 L 35.30812229387987,16.038449119958027 L 35.29896357808524,16.03491621342367 L 35.289575864566,16.03155723581642 L 35.28025482933831,16.028477981706544 L 35.261472894640264,16.022780544104172 L 35.25201199516991,16.02016236061168 L 35.2423402486777,16.017739714233116 L 35.23276227710059,16.015588908791454 L 35.2135123360115,16.011759857437493 L 35.20384036649951,16.010081611525194 L 35.19397773124015,16.00861862778425 L 35.1842350644148,16.00741698444274 L 35.164702504388806,16.005493195194617 L 35.15491261118817,16.004771049288003 L 35.1449540697307,16.004281817517906 L 35.140048780569764,16.00410114501971 L 35.13023524570441,16.003860236260756 L 35.125327,16.0038 L 34.15097135290104,16.0038 z M 33.87206438469544,16.301718322217987 L 33.87326736536282,16.303801893257408 L 33.88355731544277,16.319813000805826 L 33.8953226094982,16.334773498570428 L 33.908456701426864,16.34854790479301 L 33.922840649339584,16.361011478919984 L 33.93834419269404,16.372051351248594 L 33.95482693192962,16.381567545071036 L 33.972139599921285,16.389473882060184 L 33.990125413737324,16.395698762697577 L 34.008621494460435,16.400185814676167 L 34.0274603422136,16.40289440340607 L 34.04647135303325,16.4038 L 35.12287250752425,16.4038 L 35.127778535931945,16.403920436237424 L 35.13038173101374,16.40404832301113 L 35.14014212552592,16.405009637963964 L 35.14029159264866,16.405031809317215 L 35.149910762850375,16.40694518123427 L 35.15005733707538,16.40698189616634 L 35.1594426451,16.40982889823024 L 35.15958491483706,16.409879803156123 L 35.16864597503799,16.413633017180832 L 35.16878257015198,16.413697621858315 L 35.17743211956534,16.41832090234071 L 35.17756172457075,16.418398584591433 L 35.1857164633081,16.423847406813547 L 35.18583783003792,16.423937418515013 L 35.19341922350651,16.430159307339608 L 35.19535039000633,16.431909614629625 L 35.19890463724253,16.435293539305434 L 36.62786946069488,17.864258362757774 L 36.63125338537007,17.867812609993354 L 36.63300369266024,17.869743776493326 L 36.639225581485064,17.877325169962184 L 36.63931559318674,17.877446536692275 L 36.644764415408346,17.885601275428876 L 36.64484209765935,17.885730880434767 L 36.64946537814155,17.894380429847747 L 36.64952998281941,17.894517024962514 L 36.65328319684372,17.90357808516249 L 36.65333410176966,17.903720354899704 L 36.65618110383377,17.91310566292502 L 36.65621781876564,17.913252237149223 L 36.65813119068286,17.922871407351778 L 36.65815336203599,17.923020874473693 L 36.6591146769889,17.93278126898666 L 36.65912209124103,17.93293218955618 L 36.65912209124103,17.94273981044382 L 36.6591146769889,17.942890731013343 L 36.65815336203599,17.95265112552631 L 36.65813119068286,17.952800592648224 L 36.65621781876564,17.962419762850775 L 36.65618110383377,17.96256633707498 L 36.65333410176966,17.971951645100294 L 36.65328319684372,17.972093914837508 L 36.64952998281941,17.981154975037484 L 36.64946537814155,17.98129157015225 L 36.64484209765935,17.989941119565234 L 36.644764415408346,17.990070724571122 L 36.63931559318674,17.998225463307723 L 36.639225581485064,17.998346830037818 L 36.63300369266024,18.005928223506675 L 36.63290221836999,18.00604018313287 L 36.62596718313286,18.01297521836999 L 36.62585522350651,18.01307669266039 L 36.61827383003792,18.01929858148499 L 36.61815246330809,18.019388593186452 L 36.60999772457075,18.024837415408566 L 36.60986811956534,18.02491509765929 L 36.601218570151985,18.029538378141687 L 36.60108197503799,18.02960298281917 L 36.592020914837065,18.033356196843876 L 36.591878645099996,18.03340710176976 L 36.582493337075384,18.03625410383366 L 36.58234676285037,18.03629081876573 L 36.572727592648654,18.038204190682784 L 36.57257812552592,18.038226362036035 L 36.562817731013745,18.03918767698887 L 36.562666810443524,18.039195091241048 L 36.55285918955648,18.039195091241048 L 36.55270826898626,18.03918767698887 L 36.54294787447408,18.038226362036035 L 36.54279840735134,18.038204190682784 L 36.533179237149625,18.03629081876573 L 36.53303266292462,18.03625410383366 L 36.5236473549,18.03340710176976 L 36.52350508516294,18.033356196843876 L 36.51444402496201,18.02960298281917 L 36.51430742984802,18.029538378141687 L 36.50565788043466,18.02491509765929 L 36.50552827542925,18.024837415408566 L 36.4973735366919,18.019388593186452 L 36.49725216996208,18.01929858148499 L 36.48967077649349,18.01307669266039 L 36.48773960999367,18.011326385370374 L 36.48418536275747,18.007942460694565 L 35.14182154582557,16.665578643762693 L 35.12727884642097,16.652397909327462 L 35.111514236192164,16.640706077539487 L 35.09467953695345,16.630615747130335 L 35.07693687606126,16.62222409349774 L 35.05845712503913,16.615611932853565 L 35.039418253991485,16.610842943919362 L 35.020003617654176,16.607963054665564 L 35.00040018958825,16.607 L 34.04647092233935,16.607 L 34.027459891925275,16.607905598464967 L 34.008621025110784,16.610614192774058 L 33.990124926384595,16.61510125393878 L 33.97213909613284,16.621326147202133 L 33.95482641375819,16.62923250002624 L 33.938343662646474,16.638748712601334 L 33.92284011033875,16.649788606252372 L 33.90845615676671,16.66225220387195 L 33.895322062793134,16.67602663531132 L 33.88355677057138,16.690987159530817 L 33.87326682640728,16.706998294252767 L 33.87206521091077,16.709079506009893 L 33.85800429434094,16.73115027057341 L 33.8530039843055,16.73829145998694 L 33.83707427153206,16.759051903339206 L 33.83146794141754,16.765733257906707 L 33.81378954095486,16.785025398254692 L 33.80762539825469,16.791189540954857 L 33.78833325790668,16.808867941417574 L 33.781651903339295,16.814474271531985 L 33.76089084890181,16.830404453197733 L 33.75375095628241,16.835403937128945 L 33.731681677782056,16.849464384695427 L 33.724127842733026,16.853825703487306 L 33.70091761005849,16.865908101932853 L 33.69301552106449,16.869592914380252 L 33.668840603645386,16.87960661974378 L 33.66064513606077,16.882589488546447 L 33.635688044805434,16.890458084999143 L 33.627267468236354,16.892714353745774 L 33.601721065606476,16.898378084492027 L 33.593130780494334,16.899892723144458 L 33.56718632537481,16.903307789439634 L 33.55850452910384,16.904067362806916 L 33.53236241025153,16.905209421409754 L 33.523637589748475,16.905209421409754 L 33.497495470896155,16.904067362806916 L 33.48881367462519,16.903307789439634 L 33.46286921950567,16.899892723144458 L 33.45427893439353,16.898378084492027 L 33.42873253176364,16.892714353745774 L 33.42031195519456,16.890458084999143 L 33.395354863939225,16.882589488546447 L 33.38715939635462,16.87960661974378 L 33.36298509048605,16.869593167695985 L 33.355081829460296,16.865907745059893 L 33.331871860233484,16.853825093400808 L 33.32432049399024,16.849465210910843 L 33.302249729426656,16.835404294340997 L 33.295108540013075,16.8304039843055 L 33.2743480966607,16.814474271531985 L 33.267666742093326,16.808867941417574 L 33.248374601745304,16.791189540954857 L 33.24221045904514,16.785025398254692 L 33.224532058582454,16.765733257906707 L 33.218925728467944,16.759051903339206 L 33.2029960156945,16.73829145998694 L 33.19799570565906,16.73115027057341 L 33.18393478908914,16.709079506009758 L 33.17957490659919,16.70152813976653 L 33.167492254940214,16.6783181705399 L 33.16380683230397,16.670414909513816 L 33.153793380256204,16.64624060364537 L 33.15081051145351,16.638045136060626 L 33.14294191500092,16.61308804480566 L 33.14068564625421,16.604667468236297 L 33.13502191550791,16.579121065606238 L 33.13350727685556,16.570530780494465 L 33.13009221056032,16.54458632537441 L 33.12933263719308,16.535904529104247 L 33.12819057859024,16.50976241025153 L 33.12819057859024,16.50103758974847 L 33.12933263719308,16.474895470895753 L 33.13009221056032,16.46621367462559 L 33.13350727685556,16.440269219505534 L 33.13502191550791,16.431678934393762 L 33.14068564625421,16.406132531763703 L 33.14294191500092,16.39771195519434 L 33.15081051145351,16.372754863939374 L 33.153793380256204,16.36455939635463 L 33.163807085619744,16.340384478935494 L 33.16749189806715,16.332482389941514 L 33.17957429651281,16.309272157266722 L 33.18393561530444,16.301718322218164 L 33.19799606287086,16.279649043717875 L 33.20299554680258,16.272509151097804 L 33.218925728467944,16.251748096660794 L 33.224532058582454,16.245066742093297 L 33.24221045904514,16.225774601745307 L 33.248374601745304,16.219610459045143 L 33.267666742093326,16.201932058582425 L 33.2743480966607,16.196325728468015 L 33.29510915109819,16.180395546802266 L 33.302249043717595,16.175396062871055 L 33.32431832221794,16.161335615304573 L 33.33187215726697,16.156974296512693 L 33.355082389941515,16.144891898067147 L 33.36298447893551,16.141207085619747 L 33.38715939635462,16.13119338025622 L 33.395354863939225,16.128210511453553 L 33.42031195519456,16.120341915000857 L 33.42873253176364,16.118085646254226 L 33.45427893439353,16.112421915507973 L 33.46286921950567,16.110907276855542 L 33.48881367462519,16.107492210560366 L 33.497495470896155,16.106732637193083 L 33.523637589748475,16.105590578590245 L 33.53236241025153,16.105590578590245 L 33.55850452910384,16.106732637193083 L 33.56718632537481,16.107492210560366 L 33.593130780494334,16.110907276855542 L 33.601721065606476,16.112421915507973 L 33.627267468236354,16.118085646254226 L 33.635688044805434,16.120341915000857 L 33.66064513606077,16.128210511453553 L 33.668840603645386,16.13119338025622 L 33.69301552106449,16.141207085619747 L 33.70091761005849,16.144891898067147 L 33.724127842733026,16.156974296512693 L 33.731681677782056,16.161335615304573 L 33.75375095628241,16.175396062871055 L 33.76089084890181,16.180395546802266 L 33.781651903339295,16.196325728468015 L 33.78833325790668,16.201932058582425 L 33.80762539825469,16.219610459045143 L 33.81378954095486,16.225774601745307 L 33.83146794141754,16.245066742093297 L 33.83707427153206,16.251748096660794 L 33.85300445319742,16.272509151097804 L 33.85800393712914,16.279649043717875 L 33.87206438469544,16.301718322217987 z" /><path fill-rule="evenodd" fill="#66cc99" stroke="#555555" stroke-width="0.0" opacity="1" d="M 23.6544,15.116356124099017 L 23.6544,20.613417477113636 L 23.0737152385568,21.194102238556834 L 23.07028717820367,21.197615485846907 L 23.063518309369922,21.204725051114902 L 23.060177500889303,21.208321369092822 L 23.053481687796204,21.215709060390353 L 23.047069822194725,21.223142194526925 L 23.034618540969728,21.238314124597668 L 23.028579125346212,21.246052920531838 L 23.022639674797922,21.254061342528075 L 23.016987258633463,21.26208715682277 L 23.00608304292941,21.278406468882814 L 23.000831243389815,21.28669996664816 L 22.995705355541975,21.29525199386142 L 22.99086682467249,21.303793195334627 L 22.981614688047976,21.321102725486963 L 22.977201082292943,21.329871054166095 L 22.972938122247577,21.338884325899333 L 22.968960074369996,21.347858658112422 L 22.961449119958072,21.365991706120028 L 22.95791621342373,21.375150421914547 L 22.95455723581648,21.38453813543378 L 22.95147798170656,21.393859170661553 L 22.945780544104217,21.412641105359494 L 22.943162360611797,21.42210200482966 L 22.94073971423322,21.43177375132188 L 22.938588908791484,21.441351722899242 L 22.93475985743743,21.460601663988815 L 22.933081611525118,21.470273633501023 L 22.931618627784193,21.48013626876037 L 22.93041698444268,21.489878935585647 L 22.9284931951946,21.50941149561137 L 22.927771049288033,21.519201388811812 L 22.927281817517937,21.5291599302693 L 22.92710114501974,21.534065219429955 L 22.926860236260772,21.543878754295303 L 22.9268,21.548787 L 22.9268,24.1858 L 22.926860236260772,24.190708245704695 L 22.92710114501974,24.200521780570046 L 22.927281817517937,24.2054270697307 L 22.927771049288033,24.21538561118819 L 22.9284931951946,24.22517550438863 L 22.93041698444268,24.24470806441435 L 22.931618627784193,24.254450731239633 L 22.933081611525118,24.26431336649898 L 22.93475985743743,24.273985336011187 L 22.938588908791484,24.293235277100756 L 22.94073971423322,24.302813248678117 L 22.943162360611797,24.31248499517034 L 22.945780544104217,24.321945894640507 L 22.95147798170656,24.340727829338448 L 22.95455723581648,24.350048864566222 L 22.95791621342373,24.359436578085454 L 22.961449119958072,24.36859529387997 L 22.968960074369996,24.38672834188758 L 22.972938122247577,24.39570267410067 L 22.977201082292943,24.404715945833907 L 22.981614688047976,24.413484274513035 L 22.99086682467249,24.43079380466537 L 22.995705355541975,24.439335006138577 L 23.000831243389815,24.44788703335184 L 23.00608304292941,24.456180531117187 L 23.016987258633463,24.47249984317723 L 23.022639674797922,24.480525657471926 L 23.028579125346212,24.48853407946816 L 23.034618540969728,24.496272875402333 L 23.047069822194725,24.511444805473076 L 23.053481687796204,24.51887793960965 L 23.060177500889303,24.52626563090718 L 23.063518309369922,24.5298619488851 L 23.07028717820367,24.536971514153095 L 23.0737152385568,24.540484761443167 L 24.193315238556803,25.66008476144317 L 24.196828485846876,25.663512821796314 L 24.203938051114886,25.670281690630077 L 24.207534369092823,25.6736224991107 L 24.214922060390354,25.680318312203795 L 24.222355194527,25.68673017780532 L 24.237527124597758,25.699181459030314 L 24.245265920531867,25.705220874653786 L 24.253274342528105,25.711160325202076 L 24.26130015682271,25.716812741366507 L 24.27761946888265,25.7277169570705 L 24.28591296664798,25.732968756610067 L 24.294464993861258,25.73809464445792 L 24.303006195334675,25.742933175327526 L 24.320315725487234,25.752185311952143 L 24.329084054166376,25.75659891770716 L 24.3380973258996,25.760861877752514 L 24.347071658112554,25.764839925630064 L 24.365204706120135,25.772350880041973 L 24.374363421914758,25.77588378657633 L 24.383751135434,25.779242764183582 L 24.39307217066169,25.782322018293456 L 24.411854105359733,25.788019455895824 L 24.42131500483009,25.790637639388322 L 24.430986751322298,25.793060285766884 L 24.440564722899406,25.795211091208547 L 24.4598146639885,25.799040142562507 L 24.469486633500487,25.800718388474806 L 24.479349268759847,25.80218137221575 L 24.4890919355852,25.80338301555726 L 24.50862449561119,25.805306804805383 L 24.518414388811827,25.806028950711994 L 24.528372930269303,25.806518182482094 L 24.533278219430237,25.80669885498029 L 24.543091754295588,25.806939763739244 L 24.548,25.807 L 34.69527047711363,25.807 L 36.1412842385568,27.253013761443167 L 36.14479748584688,27.25644182179631 L 36.15190705111489,27.26321069063008 L 36.15550336909282,27.266551499110697 L 36.16289106039035,27.273247312203793 L 36.170324194527,27.279659177805318 L 36.185496124597755,27.292110459030315 L 36.19323492053187,27.298149874653788 L 36.2012433425281,27.304089325202078 L 36.209269156822714,27.309741741366505 L 36.22558846888265,27.3206459570705 L 36.233881966647985,27.325897756610065 L 36.242433993861255,27.33102364445792 L 36.250975195334675,27.335862175327524 L 36.268284725487234,27.345114311952145 L 36.27705305416637,27.34952791770716 L 36.286066325899604,27.353790877752513 L 36.295040658112555,27.35776892563006 L 36.31317370612013,27.36527988004197 L 36.32233242191476,27.36881278657633 L 36.331720135434004,27.37217176418358 L 36.34104117066169,27.375251018293454 L 36.35982310535973,27.380948455895826 L 36.36928400483009,27.383566639388324 L 36.3789557513223,27.385989285766886 L 36.38853372289941,27.388140091208548 L 36.4077836639885,27.39196914256251 L 36.41745563350049,27.393647388474808 L 36.42731826875985,27.395110372215747 L 36.4370609355852,27.39631201555726 L 36.45659349561119,27.398235804805385 L 36.46638338881183,27.398957950711996 L 36.4763419302693,27.399447182482092 L 36.48615546513465,27.399688091241046 L 36.50578253486535,27.399688091241046 L 36.5155960697307,27.399447182482092 L 36.52555461118817,27.398957950711996 L 36.53534450438881,27.398235804805385 L 36.5548770644148,27.39631201555726 L 36.56461973124016,27.395110372215747 L 36.57448236649952,27.393647388474808 L 36.5841543360115,27.39196914256251 L 36.603404277100594,27.388140091208548 L 36.6129822486777,27.385989285766886 L 36.622653995169905,27.383566639388324 L 36.63211489464027,27.380948455895826 L 36.650896829338315,27.375251018293454 L 36.660217864566,27.37217176418358 L 36.669605578085246,27.36881278657633 L 36.678764293879865,27.36527988004197 L 36.69689734188744,27.35776892563006 L 36.7058716741004,27.353790877752513 L 36.714884945833624,27.34952791770716 L 36.72365327451277,27.345114311952145 L 36.74096280466533,27.335862175327524 L 36.74950400613874,27.33102364445792 L 36.75805603335202,27.325897756610065 L 36.76634953111735,27.3206459570705 L 36.78266884317729,27.309741741366505 L 36.790694657471896,27.304089325202078 L 36.79870307946813,27.298149874653788 L 36.80644187540224,27.292110459030315 L 36.821613805473,27.279659177805318 L 36.82904693960965,27.273247312203793 L 36.83643463090718,27.266551499110697 L 36.84354419617519,27.259782630276934 L 36.85742263027695,27.24590419617517 L 36.864191499110696,27.23879463090718 L 36.87088731220379,27.23140693960965 L 36.87729917780528,27.223973805473076 L 36.88975045903027,27.208801875402333 L 36.89578987465379,27.20106307946816 L 36.901729325202076,27.193054657471926 L 36.907381741366535,27.18502884317723 L 36.91828595707059,27.168709531117187 L 36.92353775661019,27.16041603335184 L 36.92866364445803,27.151864006138577 L 36.93350217532751,27.14332280466537 L 36.94275431195202,27.126013274513035 L 36.947167917707056,27.117244945833907 L 36.95143087775242,27.10823167410067 L 36.95540892563,27.09925734188758 L 36.96291988004193,27.08112429387997 L 36.96645278657627,27.071965578085454 L 36.96981176418352,27.062577864566222 L 36.97289101829344,27.053256829338448 L 36.97858845589578,27.034474894640507 L 36.981206639388205,27.02501399517034 L 36.98362928576678,27.015342248678117 L 36.98578009120852,27.005764277100756 L 36.98960914256257,26.986514336011187 L 36.99128738847488,26.97684236649898 L 36.99275037221581,26.966979731239633 L 36.99395201555732,26.95723706441435 L 36.9958758048054,26.93770450438863 L 36.996597950711966,26.92791461118819 L 36.99708718248206,26.9179560697307 L 36.99732809124103,26.90814253486535 L 36.99732809124103,26.88851546513465 L 36.99708718248206,26.8787019302693 L 36.996597950711966,26.86874338881181 L 36.9958758048054,26.85895349561137 L 36.99395201555732,26.839420935585647 L 36.99275037221581,26.829678268760368 L 36.99128738847488,26.819815633501022 L 36.98960914256257,26.810143663988814 L 36.98578009120852,26.790893722899245 L 36.98362928576678,26.78131575132188 L 36.981206639388205,26.77164400482966 L 36.97858845589578,26.762183105359494 L 36.97289101829344,26.743401170661553 L 36.96981176418352,26.73408013543378 L 36.96645278657627,26.724692421914547 L 36.96291988004193,26.71553370612003 L 36.95540892563,26.69740065811242 L 36.95143087775242,26.688426325899332 L 36.947167917707056,26.679413054166094 L 36.94275431195202,26.670644725486962 L 36.93350217532751,26.653335195334627 L 36.92866364445803,26.644793993861423 L 36.92353775661019,26.63624196664816 L 36.91828595707059,26.627948468882813 L 36.907381741366535,26.611629156822772 L 36.901729325202076,26.603603342528075 L 36.89578987465379,26.595594920531838 L 36.88975045903027,26.587856124597668 L 36.87729917780528,26.572684194526925 L 36.87088731220379,26.565251060390352 L 36.864191499110696,26.55786336909282 L 36.86085069063008,26.554267051114902 L 36.85408182179633,26.547157485846906 L 36.8506537614432,26.543644238556833 L 35.2577247614432,24.950715238556832 L 35.25421151415312,24.947287178203688 L 35.24710194888511,24.94051830936992 L 35.24350563090718,24.9371775008893 L 35.23611793960965,24.930481687796206 L 35.228684805473,24.92406982219468 L 35.213512875402245,24.911618540969684 L 35.20577407946813,24.905579125346215 L 35.1977656574719,24.89963967479792 L 35.189739843177286,24.893987258633494 L 35.17342053111735,24.8830830429295 L 35.165127033352015,24.877831243389934 L 35.156575006138745,24.872705355542077 L 35.148033804665324,24.867866824672475 L 35.130724274512765,24.858614688047854 L 35.121955945833626,24.85420108229284 L 35.1129426741004,24.849938122247487 L 35.103968341887445,24.845960074369938 L 35.08583529387987,24.838449119958028 L 35.07667657808524,24.834916213423668 L 35.067288864565995,24.83155723581642 L 35.05796782933831,24.828477981706545 L 35.03918589464027,24.822780544104173 L 35.02972499516991,24.820162360611675 L 35.0200532486777,24.817739714233117 L 35.010475277100596,24.81558890879145 L 34.991225336011496,24.81175985743749 L 34.98155336649951,24.81008161152519 L 34.97169073124015,24.808618627784252 L 34.9619480644148,24.807416984442742 L 34.94241550438881,24.805493195194618 L 34.93262561118817,24.804771049288004 L 34.9226670697307,24.804281817517907 L 34.91776178056976,24.80410114501971 L 34.90794824570441,24.803860236260757 L 34.90304,24.8038 L 30.243801556994857,24.8038 L 25.043742815885274,24.8038 L 24.755769522886364,24.8038 L 23.93,23.978030477113634 L 23.93,21.756556522886367 L 24.510684761443198,21.17587176144317 L 24.514112821796328,21.172358514153093 L 24.520881690630077,21.165248948885097 L 24.5242224991107,21.161652630907177 L 24.530918312203795,21.154264939609646 L 24.537330177805273,21.146831805473074 L 24.54978145903027,21.13165987540233 L 24.555820874653786,21.12392107946816 L 24.561760325202076,21.115912657471924 L 24.567412741366535,21.10788684317723 L 24.57831695707059,21.091567531117185 L 24.583568756610184,21.083274033351838 L 24.588694644458027,21.07472200613858 L 24.593533175327508,21.066180804665372 L 24.602785311952026,21.048871274513036 L 24.607198917707056,21.040102945833908 L 24.611461877752422,21.031089674100667 L 24.615439925630003,21.022115341887577 L 24.622950880041927,21.00398229387997 L 24.62648378657627,20.99482357808545 L 24.629842764183522,20.98543586456622 L 24.632922018293442,20.976114829338446 L 24.638619455895782,20.957332894640505 L 24.641237639388205,20.94787199517034 L 24.64366028576678,20.93820024867812 L 24.645811091208518,20.928622277100757 L 24.649640142562568,20.909372336011185 L 24.65131838847488,20.899700366498976 L 24.652781372215806,20.88983773123963 L 24.65398301555732,20.880095064414352 L 24.655906804805397,20.860562504388632 L 24.656628950711966,20.850772611188187 L 24.657118182482062,20.840814069730698 L 24.65729885498026,20.835908780570044 L 24.65753976373923,20.826095245704696 L 24.6576,20.821187 L 24.6576,15.074499839094981 L 24.6830814969151,15.051149806453259 L 24.689383104694873,15.045117259463936 L 24.701717259463937,15.032783104694873 L 24.70774980645323,15.026481496915132 L 24.731324806453227,15.000754496915132 L 24.73707970195922,14.994192377522946 L 24.748297705920756,14.980823299984575 L 24.753760814376296,14.97401634183839 L 24.775003814376294,14.94633134183839 L 24.78016236588466,14.939295887012303 L 24.790167747547983,14.925006707920268 L 24.79501457770294,14.91775298365432 L 24.81376457770294,14.88832198365432 L 24.818291384783535,14.880862197574377 L 24.827015303256275,14.86575227119097 L 24.831212414648412,14.858102130887508 L 24.847325414648413,14.827150130887508 L 24.851185136668384,14.819323564664632 L 24.85855949346435,14.803509512272164 L 24.862074128240348,14.795522026102573 L 24.875428128240348,14.763283026102572 L 24.878591364320098,14.75514878329046 L 24.88455994476971,14.738750037372693 L 24.88736528913957,14.730485534267038 L 24.89785828913957,14.697204534267039 L 24.900299412750183,14.68882919204022 L 24.90481409871638,14.671980020628139 L 24.906887661071956,14.663506191442877 L 24.914440661071957,14.629438191442878 L 24.916143617902307,14.620876888473317 L 24.919174339199515,14.603688128635005 L 24.920502103666365,14.595060671766252 L 24.925056103666364,14.560463671766252 L 24.926005462331354,14.551794317274481 L 24.92752533190793,14.534422462769568 L 24.928095842819513,14.525719962756424 L 24.92961884281951,14.490857962756426 L 24.929809421409757,14.482128981378212 L 24.929809421409757,14.464671018621788 L 24.92961884281951,14.455942037243576 L 24.928095842819513,14.421080037243575 L 24.92752533190793,14.412377537230432 L 24.926005462331354,14.395005682725518 L 24.925056103666364,14.38633632823375 L 24.920502103666365,14.351739328233748 L 24.919720586776286,14.347443703757301 L 24.919174339199515,14.343111871364997 L 24.916143617902307,14.325923111526683 L 24.914440661071957,14.317361808557123 L 24.906887661071956,14.283293808557122 L 24.90481409871638,14.27481997937186 L 24.900299412750183,14.25797080795978 L 24.89785828913957,14.249595465732963 L 24.88736528913957,14.216314465732962 L 24.88455994476971,14.208049962627307 L 24.878591364320098,14.19165121670954 L 24.875428128240348,14.183516973897428 L 24.862074128240348,14.151277973897427 L 24.858560052697868,14.14329168699509 L 24.851186917926164,14.127479982067763 L 24.84732785869694,14.119654564042778 L 24.83121485869694,14.088701564042777 L 24.82701641701892,14.081048888764053 L 24.818289621845512,14.065934017691285 L 24.813761268350124,14.058471821897239 L 24.795011268350123,14.029041821897238 L 24.79016520969328,14.021789433555336 L 24.78016148270637,14.007502851687521 L 24.775003814376294,14.00046865816161 L 24.753760814376296,13.97278365816161 L 24.748297705920756,13.965976700015426 L 24.73707970195922,13.952607622477055 L 24.731324806453227,13.946045503084868 L 24.70774980645323,13.920318503084868 L 24.701717259463937,13.914016895305126 L 24.689383104694873,13.901682740536064 L 24.6830814969151,13.895650193546743 L 24.6573544969151,13.872075193546742 L 24.650792377523004,13.866320298040822 L 24.637423299984665,13.855102294079304 L 24.63061634183842,13.849639185623705 L 24.60293134183842,13.828396185623705 L 24.59589714831236,13.823238517293557 L 24.581610566444546,13.813234790306657 L 24.57435817810279,13.808388731649906 L 24.54492817810279,13.789638731649905 L 24.537465982308717,13.785110378154487 L 24.522351111235917,13.776383582981065 L 24.514698435957193,13.772185141303062 L 24.483745435957193,13.756072141303063 L 24.475920017932207,13.752213082073837 L 24.460108313004913,13.744839947302149 L 24.452122026102604,13.741325871759683 L 24.419883026102603,13.727971871759683 L 24.411748783290626,13.724808635679976 L 24.395350037372857,13.718840055230348 L 24.38708553426707,13.71603471086043 L 24.353804534267066,13.705541710860432 L 24.345429192040086,13.703100587249786 L 24.328580020628007,13.698585901283607 L 24.320106191442907,13.696512338928066 L 24.286038191442906,13.688959338928067 L 24.277476888473423,13.68725638209772 L 24.26028812863508,13.684225660800502 L 24.25166067176622,13.682897896333643 L 24.217063671766223,13.678343896333642 L 24.208394317274482,13.677394537668638 L 24.191022462769567,13.675874668092064 L 24.182319962756395,13.675304157180495 L 24.147457962756395,13.673781157180496 L 24.138728981378197,13.673590578590243 L 24.1212710186218,13.673590578590243 L 24.112542037243603,13.673781157180496 L 24.077680037243606,13.675304157180495 L 24.06897753723043,13.675874668092064 L 24.05160568272552,13.677394537668638 L 24.04293632823378,13.678343896333642 L 24.008339328233777,13.682897896333643 L 23.999711871364923,13.684225660800502 L 23.98252311152658,13.68725638209772 L 23.973961808557092,13.688959338928067 L 23.939893808557095,13.696512338928066 L 23.931419979371995,13.698585901283607 L 23.914570807959915,13.703100587249786 L 23.90619546573293,13.705541710860432 L 23.872914465732933,13.71603471086043 L 23.864649962627144,13.718840055230348 L 23.848251216709375,13.724808635679976 L 23.8401169738974,13.727971871759683 L 23.807877973897398,13.741325871759683 L 23.79989168699509,13.744839947302149 L 23.784079982067794,13.752213082073837 L 23.776254564042805,13.756072141303063 L 23.745301564042805,13.772185141303062 L 23.737648888764085,13.776383582981065 L 23.722534017691284,13.785110378154487 L 23.715071821897208,13.789638731649905 L 23.68564182189721,13.808388731649906 L 23.678389433555456,13.813234790306657 L 23.66410285168764,13.823238517293557 L 23.65706865816158,13.828396185623705 L 23.62938365816158,13.849639185623705 L 23.622576700015337,13.855102294079304 L 23.609207622476994,13.866320298040822 L 23.602645503084897,13.872075193546742 L 23.576918503084897,13.895650193546743 L 23.570616895305125,13.901682740536064 L 23.558282740536065,13.914016895305126 L 23.552250193546772,13.920318503084868 L 23.52867519354677,13.946045503084868 L 23.522920298040777,13.952607622477055 L 23.511702294079242,13.965976700015426 L 23.506239185623706,13.97278365816161 L 23.484996185623704,14.00046865816161 L 23.479838517293633,14.007502851687521 L 23.469834790306717,14.021789433555336 L 23.464988731649875,14.029041821897238 L 23.446238731649874,14.058471821897239 L 23.441710378154486,14.065934017691285 L 23.43298358298108,14.081048888764053 L 23.428785141303063,14.088701564042777 L 23.412672141303062,14.119654564042778 L 23.408813082073838,14.127479982067763 L 23.401439947302134,14.14329168699509 L 23.397925871759654,14.151277973897427 L 23.384571871759654,14.183516973897428 L 23.3814086356799,14.19165121670954 L 23.37544005523029,14.208049962627307 L 23.37263471086043,14.216314465732962 L 23.36214171086043,14.249595465732963 L 23.359700587249815,14.25797080795978 L 23.355185901283622,14.27481997937186 L 23.353112338928042,14.283293808557122 L 23.345559338928044,14.317361808557123 L 23.34385638209769,14.325923111526683 L 23.340825660800487,14.343111871364997 L 23.339497896333636,14.351739328233748 L 23.334943896333634,14.38633632823375 L 23.333994537668644,14.395005682725518 L 23.332474668092072,14.412377537230432 L 23.33190415718049,14.421080037243575 L 23.330381157180486,14.455942037243576 L 23.330190578590244,14.464671018621788 L 23.330190578590244,14.482128981378212 L 23.330381157180486,14.490857962756426 L 23.33190415718049,14.525719962756424 L 23.332474668092072,14.534422462769568 L 23.333994537668644,14.551794317274481 L 23.334943896333634,14.560463671766252 L 23.339497896333636,14.595060671766252 L 23.340825660800487,14.603688128635005 L 23.34385638209769,14.620876888473317 L 23.345559338928044,14.629438191442878 L 23.353112338928042,14.663506191442877 L 23.355185901283622,14.671980020628139 L 23.359700587249815,14.68882919204022 L 23.36214171086043,14.697204534267039 L 23.37263471086043,14.730485534267038 L 23.37544005523029,14.738750037372693 L 23.3814086356799,14.75514878329046 L 23.384571871759654,14.763283026102572 L 23.397925871759654,14.795522026102573 L 23.40144050653565,14.803509512272164 L 23.408814863331617,14.819323564664632 L 23.412674585351585,14.827150130887508 L 23.428787585351586,14.858102130887508 L 23.432984696743727,14.86575227119097 L 23.441708615216463,14.880862197574377 L 23.44623542229706,14.88832198365432 L 23.46498542229706,14.91775298365432 L 23.469832252452015,14.925006707920268 L 23.479837634115338,14.939295887012303 L 23.484996185623704,14.94633134183839 L 23.506239185623706,14.97401634183839 L 23.511702294079242,14.980823299984575 L 23.522920298040777,14.994192377522946 L 23.52867519354677,15.000754496915132 L 23.552250193546772,15.026481496915132 L 23.558282740536065,15.032783104694873 L 23.570616895305125,15.045117259463936 L 23.576918503084897,15.051149806453259 L 23.602645503084897,15.074724806453258 L 23.609207622476994,15.080479701959177 L 23.622576700015337,15.091697705920696 L 23.62938365816158,15.097160814376295 L 23.6544,15.116356124099017 z M 24.524492723144412,14.408269219505414 L 24.527907789439677,14.43421367462559 L 24.528667362806917,14.442895470895753 L 24.529809421409755,14.469037589748472 L 24.529809421409755,14.477762410251527 L 24.528667362806917,14.503904529104247 L 24.527907789439677,14.512586325374409 L 24.52449272314444,14.538530780494467 L 24.522978084492088,14.547121065606236 L 24.51731435374579,14.572667468236297 L 24.515058084999083,14.58108804480566 L 24.50718948854649,14.606045136060626 L 24.504206619743794,14.614240603645369 L 24.49419316769603,14.638414909513816 L 24.490507745059787,14.646318170539901 L 24.478425093400805,14.669528139766529 L 24.474065210910858,14.677079506009758 L 24.460004294340937,14.699150270573407 L 24.455003984305502,14.70629145998694 L 24.439074271532057,14.727051903339207 L 24.433467941417547,14.733733257906705 L 24.415789540954858,14.753025398254692 L 24.409625398254693,14.759189540954859 L 24.390333257906676,14.776867941417574 L 24.383651903339295,14.782474271531985 L 24.36289084890181,14.798404453197733 L 24.35575095628223,14.80340393712908 L 24.350135910948573,14.806981310557752 L 24.333777717760324,14.818596311788172 L 24.31866548238042,14.831791730682209 L 24.304951271200537,14.84643478875357 L 24.292773083038032,14.862378140692398 L 24.282253460527034,14.879461357022851 L 24.27349825703716,14.897512538419575 L 24.266595571527272,14.916350045439318 L 24.26161486205253,14.935784326262013 L 24.258606246844916,14.955619824050054 L 24.2576,14.975656944732771 L 24.2576,20.81873250752443 L 24.257479563762576,20.82363853593208 L 24.2573516769889,20.826241731013344 L 24.25639036203599,20.83600212552631 L 24.25636819068286,20.836151592648225 L 24.25445481876564,20.845770762850776 L 24.254418103833764,20.84591733707498 L 24.251571101769656,20.855302645100295 L 24.251520196843714,20.85544491483751 L 24.247766982819407,20.864505975037485 L 24.247702378141554,20.864642570152252 L 24.24307909765935,20.873292119565235 L 24.243001415408344,20.873421724571124 L 24.237552593186734,20.881576463307724 L 24.23746258148506,20.88169783003782 L 24.231240692660243,20.889279223506673 L 24.229490385370077,20.891210390006645 L 24.22610646069488,20.89476463724223 L 23.588578643762677,21.532292454174428 L 23.575397909327446,21.54683515357901 L 23.563706077539475,21.562599763807818 L 23.553615747130333,21.579434463046535 L 23.545224093497755,21.597177123938724 L 23.53861193285355,21.615656874960855 L 23.53384294391936,21.634695746008514 L 23.530963054665566,21.654110382345827 L 23.53,21.673713810411737 L 23.53,24.060873189588264 L 23.530963054665566,24.080476617654174 L 23.53384294391936,24.099891253991483 L 23.53861193285355,24.118930125039146 L 23.545224093497755,24.137409876061277 L 23.553615747130333,24.155152536953466 L 23.563706077539475,24.17198723619218 L 23.575397909327446,24.187751846420987 L 23.588578643762677,24.20229454582557 L 24.5315054541744,25.145221356237307 L 24.546048153578997,25.15840209067254 L 24.561812763807804,25.170093922460513 L 24.578647463046522,25.180184252869665 L 24.59639012393871,25.188575906502262 L 24.61486987496084,25.195188067146436 L 24.633908746008487,25.19995705608064 L 24.653323382345796,25.202836945334436 L 24.67292681041172,25.2038 L 25.043742815885274,25.2038 L 30.243801556994857,25.2038 L 34.900585507524255,25.2038 L 34.905491535931944,25.203920436237425 L 34.90809473101375,25.20404832301113 L 34.917855125525925,25.205009637963965 L 34.91800459264866,25.205031809317216 L 34.927623762850374,25.20694518123427 L 34.92777033707538,25.20698189616634 L 34.9371556451,25.20982889823024 L 34.93729791483706,25.209879803156124 L 34.946358975037995,25.21363301718083 L 34.94649557015198,25.213697621858312 L 34.95514511956534,25.21832090234071 L 34.95527472457075,25.218398584591434 L 34.963429463308096,25.223847406813547 L 34.963550830037924,25.22393741851501 L 34.97113222350651,25.23015930733961 L 34.97306339000633,25.231909614629625 L 34.976617637242526,25.235293539305435 L 36.56607546069488,26.824751362757773 L 36.569459385370074,26.828305609993354 L 36.57120969266024,26.830236776493326 L 36.577431581485065,26.837818169962183 L 36.57752159318674,26.837939536692275 L 36.58297041540834,26.846094275428875 L 36.58304809765935,26.846223880434767 L 36.58767137814155,26.854873429847746 L 36.58773598281941,26.855010024962514 L 36.59148919684371,26.86407108516249 L 36.59154010176965,26.864213354899704 L 36.59438710383377,26.87359866292502 L 36.59442381876564,26.873745237149222 L 36.59633719068286,26.883364407351777 L 36.59635936203599,26.883513874473692 L 36.5973206769889,26.89327426898666 L 36.59732809124103,26.893425189556183 L 36.59732809124103,26.903232810443818 L 36.5973206769889,26.903383731013342 L 36.59635936203599,26.91314412552631 L 36.59633719068286,26.913293592648223 L 36.59442381876564,26.922912762850775 L 36.59438710383377,26.92305933707498 L 36.59154010176965,26.932444645100297 L 36.59148919684371,26.932586914837508 L 36.58773598281941,26.941647975037487 L 36.58767137814155,26.941784570152254 L 36.58304809765935,26.950434119565234 L 36.58297041540834,26.950563724571122 L 36.57752159318674,26.958718463307722 L 36.577431581485065,26.958839830037817 L 36.57120969266024,26.966421223506675 L 36.57110821836999,26.96653318313287 L 36.56417318313286,26.97346821836999 L 36.56406122350651,26.97356969266039 L 36.55647983003792,26.97979158148499 L 36.556358463308094,26.97988159318645 L 36.548203724570755,26.985330415408566 L 36.548074119565335,26.98540809765929 L 36.539424570151986,26.990031378141687 L 36.53928797503799,26.99009598281917 L 36.530226914837066,26.99384919684388 L 36.5300846451,26.99390010176976 L 36.520699337075385,26.99674710383366 L 36.52055276285037,26.99678381876573 L 36.510933592648655,26.998697190682783 L 36.51078412552592,26.998719362036034 L 36.501023731013746,26.99968067698887 L 36.50087281044352,26.999688091241048 L 36.49106518955648,26.999688091241048 L 36.49091426898625,26.99968067698887 L 36.48115387447408,26.998719362036034 L 36.48100440735134,26.998697190682783 L 36.471385237149626,26.99678381876573 L 36.47123866292462,26.99674710383366 L 36.4618533549,26.99390010176976 L 36.46171108516294,26.99384919684388 L 36.45265002496201,26.99009598281917 L 36.45251342984802,26.990031378141687 L 36.44386388043466,26.98540809765929 L 36.44373427542925,26.985330415408566 L 36.435579536691904,26.97988159318645 L 36.435458169962075,26.97979158148499 L 36.42787677649349,26.97356969266039 L 36.42594560999367,26.971819385370374 L 36.42239136275747,26.968435460694565 L 34.9195345458256,25.465578643762694 L 34.904991846421005,25.452397909327463 L 34.8892272361922,25.440706077539488 L 34.87239253695348,25.430615747130336 L 34.85464987606129,25.42222409349774 L 34.83617012503916,25.415611932853565 L 34.81713125399151,25.41084294391936 L 34.7977166176542,25.407963054665565 L 34.778113189588275,25.407 L 24.550454492475748,25.407 L 24.545548464068055,25.406879563762576 L 24.542945268986255,25.40675167698887 L 24.533184874474077,25.405790362036033 L 24.533035407351345,25.405768190682785 L 24.523416237149625,25.40385481876573 L 24.52326966292462,25.40381810383366 L 24.513884354900004,25.40097110176976 L 24.51374208516294,25.400920196843877 L 24.504681024962007,25.39716698281917 L 24.504544429848014,25.397102378141685 L 24.495894880434662,25.39247909765929 L 24.49576527542925,25.392401415408568 L 24.487610536691903,25.386952593186454 L 24.48748916996208,25.386862581484987 L 24.47990777649349,25.380640692660393 L 24.477976609993668,25.378890385370372 L 24.474422362757473,25.375506460694567 L 23.35829353930512,24.259377637242228 L 23.354909614629925,24.255823390006647 L 23.35315930733976,24.253892223506675 L 23.346937418514937,24.246310830037817 L 23.346847406813264,24.246189463307722 L 23.34139858459166,24.238034724571122 L 23.34132090234065,24.237905119565234 L 23.33669762185845,24.229255570152255 L 23.336633017180592,24.229118975037487 L 23.332879803156285,24.220057914837508 L 23.332828898230343,24.219915645100297 L 23.329981896166235,24.21053033707498 L 23.32994518123436,24.210383762850775 L 23.328031809317142,24.200764592648223 L 23.32800963796401,24.20061512552631 L 23.327048323011102,24.190854731013342 L 23.326920436237426,24.18825153593208 L 23.3268,24.183345507524432 L 23.3268,21.55124149247557 L 23.326920436237426,21.546335464067923 L 23.327048323011102,21.543732268986655 L 23.32800963796401,21.53397187447369 L 23.328031809317142,21.533822407351778 L 23.32994518123436,21.524203237149223 L 23.329981896166235,21.52405666292502 L 23.332828898230343,21.514671354899704 L 23.332879803156285,21.51452908516249 L 23.336633017180592,21.505468024962514 L 23.33669762185845,21.505331429847747 L 23.34132090234065,21.496681880434767 L 23.34139858459166,21.496552275428876 L 23.346847406813264,21.488397536692275 L 23.346937418514937,21.488276169962184 L 23.35315930733976,21.480694776493326 L 23.354909614629925,21.478763609993354 L 23.35829353930512,21.475209362757774 L 23.99582135623732,20.83768154582557 L 24.009002090672553,20.82313884642099 L 24.020693922460527,20.80737423619218 L 24.030784252869665,20.790539536953464 L 24.039175906502248,20.772796876061275 L 24.04578806714645,20.754317125039144 L 24.05055705608064,20.735278253991485 L 24.053436945334436,20.715863617654175 L 24.0544,20.696260189588262 L 24.0544,15.005931220925763 L 24.05341742614919,14.986130612628132 L 24.050479359110444,14.966524559929937 L 24.045614667562216,14.947305706778168 L 24.038871150691598,14.92866289259833 L 24.03031506853199,14.910779296807602 L 24.02003049090931,14.89383063894181 L 24.008118471393974,14.877983452081203 L 23.994696054374845,14.863393446539984 L 23.979895125011684,14.85020397989741 L 23.96386111336613,14.838544648403794 L 23.946751565443783,14.828530013601572 L 23.933871860233484,14.821825093400822 L 23.926320493990243,14.817465210910841 L 23.904249729426652,14.803404294340998 L 23.897108540013075,14.798403984305502 L 23.876348096660703,14.782474271531985 L 23.869666742093326,14.776867941417574 L 23.850374601745308,14.759189540954859 L 23.844210459045144,14.753025398254692 L 23.826532058582455,14.733733257906705 L 23.82092572846794,14.727051903339207 L 23.8049960156945,14.70629145998694 L 23.79999570565906,14.699150270573407 L 23.785934789089143,14.677079506009758 L 23.781574906599193,14.669528139766529 L 23.76949225494021,14.646318170539901 L 23.76580683230397,14.638414909513816 L 23.755793380256208,14.614240603645369 L 23.75281051145351,14.606045136060626 L 23.744941915000915,14.58108804480566 L 23.742685646254213,14.572667468236297 L 23.737021915507913,14.547121065606236 L 23.735507276855557,14.538530780494467 L 23.73209221056032,14.512586325374409 L 23.731332637193084,14.503904529104247 L 23.730190578590243,14.477762410251527 L 23.730190578590243,14.469037589748472 L 23.731332637193084,14.442895470895753 L 23.73209221056032,14.43421367462559 L 23.735507276855557,14.408269219505534 L 23.737021915507913,14.399678934393764 L 23.742685646254213,14.374132531763703 L 23.744941915000915,14.365711955194339 L 23.75281051145351,14.340754863939374 L 23.755793380256208,14.33255939635463 L 23.76580708561975,14.308384478935494 L 23.769491898067148,14.300482389941514 L 23.78157429651281,14.27727215726672 L 23.78593561530444,14.269718322218164 L 23.79999606287086,14.247649043717876 L 23.80499554680258,14.240509151097804 L 23.82092572846794,14.219748096660792 L 23.826532058582455,14.213066742093295 L 23.844210459045144,14.193774601745307 L 23.850374601745308,14.187610459045143 L 23.869666742093326,14.169932058582425 L 23.876348096660703,14.164325728468016 L 23.897109151098192,14.148395546802268 L 23.90424904371759,14.143396062871053 L 23.92631832221794,14.129335615304575 L 23.933872157266975,14.124974296512693 L 23.957082389941515,14.112891898067147 L 23.96498447893551,14.109207085619747 L 23.989159396354616,14.09919338025622 L 23.997354863939226,14.096210511453554 L 24.022311955194564,14.088341915000855 L 24.030732531763643,14.086085646254226 L 24.056278934393525,14.080421915507973 L 24.064869219505667,14.078907276855544 L 24.09081367462519,14.075492210560366 L 24.099495470896155,14.074732637193083 L 24.12563758974847,14.073590578590244 L 24.134362410251526,14.073590578590244 L 24.160504529103846,14.074732637193083 L 24.169186325374813,14.075492210560366 L 24.19513078049433,14.078907276855544 L 24.203721065606477,14.080421915507973 L 24.22926746823636,14.086085646254226 L 24.237688044805438,14.088341915000855 L 24.262645136060776,14.096210511453554 L 24.270840603645386,14.09919338025622 L 24.29501552106449,14.109207085619747 L 24.302917610058486,14.112891898067147 L 24.326127842733026,14.124974296512693 L 24.33368167778206,14.129335615304575 L 24.355750956282407,14.143396062871053 L 24.36289084890181,14.148395546802268 L 24.383651903339295,14.164325728468016 L 24.390333257906676,14.169932058582425 L 24.409625398254693,14.187610459045143 L 24.415789540954858,14.193774601745307 L 24.433467941417547,14.213066742093295 L 24.439074271532057,14.219748096660792 L 24.455004453197418,14.240509151097804 L 24.46000393712914,14.247649043717876 L 24.47406438469556,14.269718322218164 L 24.478425703487186,14.27727215726672 L 24.490508101932853,14.300482389941514 L 24.494192914380253,14.308384478935494 L 24.504206619743794,14.33255939635463 L 24.50718948854649,14.340754863939374 L 24.515058084999083,14.365711955194339 L 24.51731435374579,14.374132531763703 L 24.522978084492088,14.399678934393764 L 24.524492723144412,14.408269219505414 z" /><path fill-rule="evenodd" fill="#66cc99" stroke="#555555" stroke-width="0.0" opacity="1" d="M 27.03897135290104,21.3378 L 27.034297705920757,21.331976700015424 L 27.023079701959222,21.318607622477053 L 27.017324806453228,21.312045503084867 L 26.993749806453227,21.286318503084868 L 26.987717259463935,21.280016895305128 L 26.975383104694874,21.267682740536063 L 26.969081496915102,21.261650193546743 L 26.943354496915102,21.23807519354674 L 26.936792377523005,21.232320298040822 L 26.923423299984663,21.221102294079305 L 26.91661634183842,21.215639185623704 L 26.88893134183842,21.194396185623706 L 26.88189714831236,21.189238517293557 L 26.867610566444547,21.17923479030666 L 26.860358178102793,21.174388731649906 L 26.83092817810279,21.155638731649905 L 26.823465982308715,21.151110378154485 L 26.80835111123592,21.142383582981065 L 26.800698435957194,21.13818514130306 L 26.769745435957194,21.12207214130306 L 26.761920017932205,21.118213082073837 L 26.74610831300491,21.110839947302146 L 26.7381220261026,21.107325871759684 L 26.7058830261026,21.09397187175968 L 26.697748783290624,21.090808635679974 L 26.68135003737286,21.084840055230348 L 26.673085534267067,21.08203471086043 L 26.639804534267068,21.07154171086043 L 26.631429192040084,21.069100587249785 L 26.614580020628004,21.064585901283607 L 26.60610619144291,21.062512338928073 L 26.572038191442907,21.054959338928075 L 26.56347688847342,21.05325638209772 L 26.54628812863508,21.050225660800503 L 26.537660671766222,21.048897896333635 L 26.50306367176622,21.044343896333636 L 26.49439431727448,21.04339453766863 L 26.47702246276957,21.041874668092056 L 26.468319962756397,21.041304157180488 L 26.433457962756396,21.03978115718049 L 26.4247289813782,21.039590578590243 L 26.407271018621802,21.039590578590243 L 26.398542037243605,21.03978115718049 L 26.363680037243604,21.041304157180488 L 26.354977537230432,21.041874668092056 L 26.33760568272552,21.04339453766863 L 26.328936328233777,21.044343896333636 L 26.29433932823378,21.048897896333635 L 26.28571187136492,21.050225660800503 L 26.26852311152658,21.05325638209772 L 26.259961808557094,21.054959338928075 L 26.225893808557093,21.062512338928073 L 26.217419979371996,21.064585901283607 L 26.200570807959913,21.069100587249785 L 26.192195465732933,21.07154171086043 L 26.15891446573293,21.08203471086043 L 26.150649962627142,21.084840055230348 L 26.134251216709377,21.090808635679974 L 26.126116973897396,21.09397187175968 L 26.0938779738974,21.107325871759684 L 26.08589168699509,21.110839947302146 L 26.070079982067792,21.118213082073837 L 26.062254564042806,21.12207214130306 L 26.031301564042806,21.13818514130306 L 26.023648888764082,21.142383582981065 L 26.008534017691286,21.151110378154485 L 26.00107182189721,21.155638731649905 L 25.971641821897208,21.174388731649906 L 25.964389433555453,21.17923479030666 L 25.95010285168764,21.189238517293557 L 25.94306865816158,21.194396185623706 L 25.91538365816158,21.215639185623704 L 25.908576700015335,21.221102294079305 L 25.895207622476995,21.232320298040822 L 25.8886455030849,21.23807519354674 L 25.8629185030849,21.261650193546743 L 25.856616895305127,21.267682740536063 L 25.844282740536062,21.280016895305128 L 25.838250193546774,21.286318503084868 L 25.814675193546773,21.312045503084867 L 25.80892029804078,21.318607622477053 L 25.797702294079244,21.331976700015424 L 25.792239185623707,21.33878365816161 L 25.770996185623705,21.36646865816161 L 25.76583851729363,21.373502851687523 L 25.755834790306718,21.387789433555334 L 25.750988731649876,21.395041821897237 L 25.732238731649876,21.42447182189724 L 25.727710378154487,21.431934017691283 L 25.71898358298108,21.447048888764055 L 25.71478514130306,21.454701564042775 L 25.698672141303064,21.485654564042775 L 25.69481308207384,21.493479982067765 L 25.68743994730213,21.509291686995088 L 25.68392587175965,21.51727797389743 L 25.670571871759652,21.54951697389743 L 25.6674086356799,21.55765121670954 L 25.66144005523029,21.574049962627306 L 25.658634710860433,21.582314465732964 L 25.648141710860433,21.615595465732962 L 25.645700587249816,21.62397080795978 L 25.64118590128362,21.640819979371862 L 25.639112338928044,21.649293808557122 L 25.631559338928042,21.683361808557123 L 25.629856382097692,21.691923111526684 L 25.62682566080049,21.709111871364996 L 25.625497896333634,21.717739328233748 L 25.620943896333635,21.75233632823375 L 25.619994537668646,21.761005682725518 L 25.618474668092073,21.778377537230433 L 25.617904157180487,21.787080037243573 L 25.616381157180488,21.821942037243574 L 25.616190578590246,21.83067101862179 L 25.616190578590246,21.848128981378213 L 25.616381157180488,21.856857962756425 L 25.617904157180487,21.891719962756426 L 25.618474668092073,21.90042246276957 L 25.619994537668646,21.91779431727448 L 25.620943896333635,21.92646367176625 L 25.625497896333634,21.96106067176625 L 25.62682566080049,21.969688128635003 L 25.629856382097692,21.98687688847332 L 25.631559338928042,21.995438191442876 L 25.639112338928044,22.029506191442877 L 25.64118590128362,22.03798002062814 L 25.645700587249816,22.05482919204022 L 25.648141710860433,22.063204534267037 L 25.658634710860433,22.09648553426704 L 25.66144005523029,22.104750037372693 L 25.6674086356799,22.12114878329046 L 25.670571871759652,22.129283026102573 L 25.68392587175965,22.161522026102574 L 25.687440506535648,22.169509512272164 L 25.694814863331615,22.185323564664632 L 25.698674585351586,22.19315013088751 L 25.714787585351587,22.22410213088751 L 25.71898469674373,22.23175227119097 L 25.727708615216464,22.246862197574377 L 25.73223542229706,22.25432198365432 L 25.75098542229706,22.28375298365432 L 25.755832252452016,22.291006707920268 L 25.76583763411534,22.305295887012303 L 25.770996185623705,22.31233134183839 L 25.792239185623707,22.34001634183839 L 25.797702294079244,22.346823299984575 L 25.80892029804078,22.360192377522946 L 25.814675193546773,22.36675449691513 L 25.838250193546774,22.39248149691513 L 25.844282740536062,22.39878310469487 L 25.856616895305127,22.411117259463936 L 25.8629185030849,22.417149806453256 L 25.8886455030849,22.440724806453257 L 25.895207622476995,22.446479701959177 L 25.908576700015335,22.457697705920697 L 25.91538365816158,22.463160814376295 L 25.94306865816158,22.484403814376293 L 25.950104112987756,22.489562365884723 L 25.964393292079805,22.499567747548042 L 25.97164701634568,22.50441457770294 L 26.00107801634568,22.52316457770294 L 26.00853780242562,22.527691384783537 L 26.023647728809028,22.536415303256273 L 26.031297869112493,22.540612414648415 L 26.06224986911249,22.556725414648415 L 26.070076435335427,22.5605851366684 L 26.08589048772788,22.56795949346435 L 26.0938779738974,22.571474128240318 L 26.126116973897396,22.584828128240318 L 26.134251216709377,22.587991364320025 L 26.150649962627142,22.59395994476965 L 26.15891446573293,22.59676528913957 L 26.192195465732933,22.60725828913957 L 26.200570807959913,22.609699412750214 L 26.217419979371996,22.614214098716392 L 26.225893808557093,22.616287661071926 L 26.259961808557094,22.623840661071927 L 26.26852311152658,22.625543617902277 L 26.28571187136492,22.6285743391995 L 26.29433932823378,22.629902103666364 L 26.328936328233777,22.634456103666366 L 26.33760568272552,22.63540546233137 L 26.354977537230432,22.636925331907943 L 26.363680037243604,22.63749584281951 L 26.398542037243605,22.63901884281951 L 26.407271018621802,22.639209421409756 L 26.4247289813782,22.639209421409756 L 26.433457962756396,22.63901884281951 L 26.468319962756397,22.63749584281951 L 26.47702246276957,22.636925331907943 L 26.49439431727448,22.63540546233137 L 26.50306367176622,22.634456103666366 L 26.537660671766222,22.629902103666364 L 26.54628812863508,22.6285743391995 L 26.56347688847342,22.625543617902277 L 26.572038191442907,22.623840661071927 L 26.60610619144291,22.616287661071926 L 26.614580020628004,22.614214098716392 L 26.631429192040084,22.609699412750214 L 26.639804534267068,22.60725828913957 L 26.673085534267067,22.59676528913957 L 26.68135003737286,22.59395994476965 L 26.697748783290624,22.587991364320025 L 26.7058830261026,22.584828128240318 L 26.7381220261026,22.571474128240318 L 26.74610831300491,22.567960052697853 L 26.761920017932205,22.560586917926162 L 26.769745435957194,22.556727858696938 L 26.800698435957194,22.540614858696937 L 26.80835111123592,22.536416417018934 L 26.823465982308715,22.527689621845514 L 26.83092817810279,22.523161268350094 L 26.860358178102793,22.504411268350093 L 26.867610566444547,22.499565209693344 L 26.88189714831236,22.489561482706442 L 26.88893134183842,22.484403814376293 L 26.91661634183842,22.463160814376295 L 26.923423299984663,22.457697705920697 L 26.936792377523005,22.446479701959177 L 26.943354496915102,22.440724806453257 L 26.969081496915102,22.417149806453256 L 26.975383104694874,22.411117259463936 L 26.987717259463935,22.39878310469487 L 26.993749806453227,22.39248149691513 L 27.017324806453228,22.36675449691513 L 27.023079701959222,22.360192377522946 L 27.034297705920757,22.346823299984575 L 27.03897135290104,22.341 L 27.432,22.341 L 27.436908245704412,22.340939763739243 L 27.446721780569764,22.34069885498029 L 27.451627069730698,22.340518182482093 L 27.461585611188173,22.340028950711996 L 27.47137550438881,22.339306804805382 L 27.4909080644148,22.337383015557258 L 27.500650731240153,22.336181372215748 L 27.510513366499513,22.33471838847481 L 27.520185336011497,22.33304014256251 L 27.539435277100594,22.32921109120855 L 27.5490132486777,22.327060285766883 L 27.55868499516991,22.324637639388325 L 27.568145894640267,22.322019455895827 L 27.58692782933831,22.316322018293455 L 27.596248864565997,22.31324276418358 L 27.605636578085242,22.309883786576332 L 27.614795293879865,22.306350880041972 L 27.632928341887443,22.298839925630062 L 27.6419026741004,22.294861877752513 L 27.650915945833624,22.29059891770716 L 27.659684274512767,22.286185311952146 L 27.676993804665326,22.276933175327525 L 27.685535006138743,22.272094644457923 L 27.694087033352016,22.266968756610066 L 27.70238053111735,22.2617169570705 L 27.718699843177287,22.250812741366506 L 27.726725657471896,22.24516032520208 L 27.73473407946813,22.239220874653785 L 27.742472875402242,22.233181459030316 L 27.757644805473,22.22073017780532 L 27.765077939609647,22.214318312203794 L 27.772465630907178,22.2076224991107 L 27.77606194888511,22.20428169063008 L 27.78317151415312,22.197512821796312 L 27.786684761443198,22.194084761443168 L 28.0406847614432,21.940084761443167 L 28.04411282179633,21.936571514153094 L 28.050881690630078,21.9294619488851 L 28.054222499110697,21.92586563090718 L 28.060918312203796,21.918477939609648 L 28.067330177805275,21.911044805473075 L 28.079781459030272,21.895872875402333 L 28.085820874653788,21.88813407946816 L 28.091760325202078,21.880125657471925 L 28.097412741366536,21.872099843177228 L 28.10831695707059,21.855780531117187 L 28.113568756610185,21.84748703335184 L 28.118694644458024,21.838935006138577 L 28.12353317532751,21.830393804665373 L 28.132785311952023,21.813084274513034 L 28.137198917707057,21.804315945833906 L 28.141461877752423,21.795302674100668 L 28.145439925630004,21.78632834188758 L 28.152950880041928,21.76819529387997 L 28.15648378657627,21.759036578085453 L 28.159842764183523,21.749648864566222 L 28.16292201829344,21.740327829338447 L 28.168619455895783,21.721545894640506 L 28.171237639388202,21.71208499517034 L 28.17366028576678,21.702413248678116 L 28.175811091208516,21.692835277100755 L 28.17964014256257,21.673585336011186 L 28.18131838847488,21.663913366498978 L 28.182781372215807,21.654050731239632 L 28.18398301555732,21.644308064414354 L 28.1859068048054,21.62477550438863 L 28.186628950711967,21.61498561118819 L 28.187118182482063,21.6050270697307 L 28.18729885498026,21.600121780570046 L 28.187539763739228,21.590308245704694 L 28.1876,21.5854 L 28.1876,17.38237135290107 L 28.193423299984662,17.377697705920696 L 28.206792377523005,17.36647970195918 L 28.213354496915102,17.36072480645326 L 28.2390814969151,17.337149806453258 L 28.245383104694874,17.331117259463937 L 28.257717259463938,17.318783104694873 L 28.263749806453227,17.312481496915133 L 28.287324806453228,17.286754496915133 L 28.293079701959222,17.280192377522944 L 28.304297705920757,17.266823299984573 L 28.309760814376293,17.26001634183839 L 28.331003814376295,17.23233134183839 L 28.33616236588466,17.225295887012305 L 28.346167747547984,17.21100670792027 L 28.35101457770294,17.20375298365432 L 28.369764577702938,17.17432198365432 L 28.374291384783536,17.16686219757438 L 28.383015303256272,17.151752271190972 L 28.387212414648413,17.144102130887507 L 28.403325414648414,17.113150130887508 L 28.407185136668385,17.105323564664634 L 28.41455949346435,17.089509512272166 L 28.418074128240345,17.081522026102572 L 28.43142812824035,17.04928302610257 L 28.4345913643201,17.04114878329046 L 28.44055994476971,17.024750037372694 L 28.443365289139567,17.016485534267037 L 28.453858289139568,16.98320453426704 L 28.456299412750184,16.97482919204022 L 28.460814098716376,16.95798002062814 L 28.462887661071957,16.949506191442875 L 28.470440661071954,16.915438191442878 L 28.472143617902308,16.906876888473317 L 28.475174339199512,16.889688128635004 L 28.476502103666366,16.881060671766253 L 28.481056103666365,16.84646367176625 L 28.482005462331355,16.83779431727448 L 28.483525331907927,16.820422462769567 L 28.48409584281951,16.811719962756424 L 28.485618842819513,16.776857962756424 L 28.485809421409755,16.76812898137821 L 28.485809421409755,16.750671018621787 L 28.485618842819513,16.741942037243575 L 28.48409584281951,16.707080037243575 L 28.483525331907927,16.69837753723043 L 28.482005462331355,16.68100568272552 L 28.481056103666365,16.672336328233747 L 28.476502103666366,16.63773932823375 L 28.475174339199512,16.629111871364994 L 28.472143617902308,16.611923111526682 L 28.470440661071954,16.60336180855712 L 28.462887661071957,16.569293808557124 L 28.460814098716376,16.56081997937186 L 28.456299412750184,16.54397080795978 L 28.453858289139568,16.53559546573296 L 28.443365289139567,16.50231446573296 L 28.44055994476971,16.494049962627308 L 28.4345913643201,16.47765121670954 L 28.43142812824035,16.469516973897427 L 28.418074128240345,16.437277973897427 L 28.414560052697865,16.42929168699509 L 28.40718691792616,16.413479982067763 L 28.403327858696937,16.405654564042777 L 28.387214858696936,16.374701564042777 L 28.38301641701892,16.367048888764053 L 28.374289621845513,16.351934017691285 L 28.369761268350125,16.344471821897237 L 28.351011268350124,16.31504182189724 L 28.346165209693282,16.307789433555335 L 28.33616148270637,16.29350285168752 L 28.331003814376295,16.28646865816161 L 28.309760814376293,16.25878365816161 L 28.304297705920757,16.251976700015426 L 28.293079701959222,16.238607622477055 L 28.287324806453228,16.23204550308487 L 28.263749806453227,16.20631850308487 L 28.257717259463938,16.200016895305126 L 28.245383104694874,16.187682740536065 L 28.2390814969151,16.18165019354674 L 28.213354496915102,16.158075193546743 L 28.206792377523005,16.152320298040824 L 28.193423299984662,16.141102294079303 L 28.18661634183842,16.135639185623706 L 28.158931341838418,16.114396185623704 L 28.15189714831236,16.10923851729356 L 28.137610566444547,16.099234790306657 L 28.130358178102792,16.094388731649904 L 28.10092817810279,16.075638731649907 L 28.093465982308715,16.071110378154486 L 28.078351111235918,16.062383582981067 L 28.070698435957194,16.058185141303063 L 28.039745435957194,16.042072141303063 L 28.031920017932208,16.038213082073838 L 28.01610831300491,16.030839947302148 L 28.0081220261026,16.027325871759682 L 27.975883026102604,16.013971871759683 L 27.967748783290624,16.010808635679975 L 27.95135003737286,16.00484005523035 L 27.94308553426707,16.002034710860432 L 27.909804534267067,15.991541710860432 L 27.901429192040087,15.989100587249785 L 27.884580020628004,15.984585901283607 L 27.876106191442908,15.982512338928073 L 27.842038191442906,15.974959338928073 L 27.83347688847342,15.973256382097722 L 27.81628812863508,15.970225660800502 L 27.80766067176622,15.968897896333635 L 27.77306367176622,15.964343896333634 L 27.76439431727448,15.96339453766863 L 27.747022462769568,15.961874668092056 L 27.738319962756396,15.961304157180487 L 27.703457962756396,15.959781157180489 L 27.694728981378198,15.959590578590245 L 27.677271018621802,15.959590578590245 L 27.668542037243604,15.959781157180489 L 27.633680037243604,15.961304157180487 L 27.624977537230432,15.961874668092056 L 27.60760568272552,15.96339453766863 L 27.59893632823378,15.964343896333634 L 27.56433932823378,15.968897896333635 L 27.55571187136492,15.970225660800502 L 27.53852311152658,15.973256382097722 L 27.529961808557093,15.974959338928073 L 27.495893808557092,15.982512338928073 L 27.487419979371996,15.984585901283607 L 27.470570807959913,15.989100587249785 L 27.462195465732933,15.991541710860432 L 27.428914465732934,16.002034710860432 L 27.42064996262714,16.00484005523035 L 27.404251216709376,16.010808635679975 L 27.396116973897396,16.013971871759683 L 27.3638779738974,16.027325871759682 L 27.35589168699509,16.030839947302148 L 27.340079982067795,16.038213082073838 L 27.332254564042806,16.042072141303063 L 27.301301564042806,16.058185141303063 L 27.293648888764082,16.062383582981067 L 27.278534017691285,16.071110378154486 L 27.27107182189721,16.075638731649907 L 27.241641821897208,16.094388731649904 L 27.234389433555453,16.099234790306657 L 27.22010285168764,16.10923851729356 L 27.213068658161582,16.114396185623704 L 27.18538365816158,16.135639185623706 L 27.178576700015338,16.141102294079303 L 27.165207622476995,16.152320298040824 L 27.158645503084898,16.158075193546743 L 27.1329185030849,16.18165019354674 L 27.126616895305126,16.187682740536065 L 27.114282740536066,16.200016895305126 L 27.108250193546773,16.20631850308487 L 27.084675193546772,16.23204550308487 L 27.078920298040778,16.238607622477055 L 27.067702294079243,16.251976700015426 L 27.062239185623707,16.25878365816161 L 27.040996185623705,16.28646865816161 L 27.035838517293634,16.29350285168752 L 27.025834790306718,16.307789433555335 L 27.020988731649876,16.31504182189724 L 27.002238731649875,16.344471821897237 L 26.997710378154487,16.351934017691285 L 26.98898358298108,16.367048888764053 L 26.984785141303064,16.374701564042777 L 26.968672141303063,16.405654564042777 L 26.96481308207384,16.413479982067763 L 26.957439947302134,16.42929168699509 L 26.953925871759655,16.437277973897427 L 26.94057187175965,16.469516973897427 L 26.9374086356799,16.47765121670954 L 26.93144005523029,16.494049962627308 L 26.928634710860432,16.50231446573296 L 26.918141710860432,16.53559546573296 L 26.915700587249816,16.54397080795978 L 26.911185901283623,16.56081997937186 L 26.909112338928043,16.569293808557124 L 26.901559338928045,16.60336180855712 L 26.899856382097692,16.611923111526682 L 26.896825660800488,16.629111871364994 L 26.895497896333634,16.63773932823375 L 26.890943896333635,16.672336328233747 L 26.889994537668645,16.68100568272552 L 26.888474668092073,16.69837753723043 L 26.88790415718049,16.707080037243575 L 26.886381157180487,16.741942037243575 L 26.886190578590245,16.750671018621787 L 26.886190578590245,16.76812898137821 L 26.886381157180487,16.776857962756424 L 26.88790415718049,16.811719962756424 L 26.888474668092073,16.820422462769567 L 26.889994537668645,16.83779431727448 L 26.890943896333635,16.84646367176625 L 26.895497896333634,16.881060671766253 L 26.896825660800488,16.889688128635004 L 26.899856382097692,16.906876888473317 L 26.901559338928045,16.915438191442878 L 26.909112338928043,16.949506191442875 L 26.911185901283623,16.95798002062814 L 26.915700587249816,16.97482919204022 L 26.918141710860432,16.98320453426704 L 26.928634710860432,17.016485534267037 L 26.93144005523029,17.024750037372694 L 26.9374086356799,17.04114878329046 L 26.94057187175965,17.04928302610257 L 26.953925871759655,17.081522026102572 L 26.95744050653565,17.089509512272166 L 26.964814863331615,17.105323564664634 L 26.968674585351586,17.113150130887508 L 26.984787585351587,17.144102130887507 L 26.988984696743728,17.151752271190972 L 26.997708615216464,17.16686219757438 L 27.002235422297062,17.17432198365432 L 27.02098542229706,17.20375298365432 L 27.025832252452016,17.21100670792027 L 27.03583763411534,17.225295887012305 L 27.040996185623705,17.23233134183839 L 27.062239185623707,17.26001634183839 L 27.067702294079243,17.266823299984573 L 27.078920298040778,17.280192377522944 L 27.084675193546772,17.286754496915133 L 27.108250193546773,17.312481496915133 L 27.114282740536066,17.318783104694873 L 27.126616895305126,17.331117259463937 L 27.1329185030849,17.337149806453258 L 27.158645503084898,17.36072480645326 L 27.165207622476995,17.36647970195918 L 27.178576700015338,17.377697705920696 L 27.1844,17.38237135290107 L 27.1844,21.3378 L 27.03897135290104,21.3378 z M 28.083907789439678,16.72021367462559 L 28.084667362806915,16.728895470895754 L 28.085809421409756,16.755037589748472 L 28.085809421409756,16.763762410251527 L 28.084667362806915,16.78990452910425 L 28.083907789439678,16.79858632537441 L 28.08049272314444,16.824530780494467 L 28.07897808449209,16.833121065606235 L 28.07331435374579,16.8586674682363 L 28.071058084999084,16.867088044805662 L 28.06318948854649,16.892045136060624 L 28.060206619743795,16.90024060364537 L 28.05019316769603,16.924414909513818 L 28.046507745059788,16.9323181705399 L 28.034425093400806,16.95552813976653 L 28.030065210910855,16.96307950600976 L 28.016004294340938,16.985150270573406 L 28.0110039843055,16.99229145998694 L 27.995074271532058,17.013051903339207 L 27.989467941417544,17.019733257906704 L 27.97178954095486,17.039025398254694 L 27.965625398254694,17.04518954095486 L 27.946333257906677,17.062867941417576 L 27.939651903339296,17.068474271531983 L 27.918890848901807,17.08440445319773 L 27.911750956282408,17.089403937128946 L 27.88968167778224,17.103464384695307 L 27.887598106742768,17.104667365362705 L 27.871586999194324,17.114957315442652 L 27.856626501429705,17.126722609498067 L 27.842852095207096,17.13985670142673 L 27.830388521080106,17.154240649339467 L 27.81934864875147,17.16974419269392 L 27.809832454928994,17.18622693192953 L 27.80192611793983,17.203539599921182 L 27.795701237302453,17.221525413737254 L 27.791214185323835,17.24002149446039 L 27.788505596593946,17.258860342213588 L 27.7876,17.27787135303323 L 27.7876,21.582945507524432 L 27.787479563762574,21.587851535932078 L 27.787351676988898,21.59045473101334 L 27.78639036203599,21.600215125526308 L 27.786368190682857,21.600364592648223 L 27.78445481876564,21.609983762850778 L 27.784418103833765,21.61013033707498 L 27.781571101769657,21.619515645100297 L 27.781520196843715,21.61965791483751 L 27.777766982819408,21.628718975037486 L 27.77770237814155,21.628855570152254 L 27.77307909765935,21.637505119565233 L 27.77300141540834,21.637634724571125 L 27.767552593186736,21.64578946330772 L 27.767462581485063,21.645910830037817 L 27.76124069266024,21.653492223506674 L 27.759490385370075,21.655423390006646 L 27.75610646069488,21.658977637242227 L 27.505577637242524,21.909506460694566 L 27.502023390006332,21.912890385370375 L 27.50009222350651,21.91464069266039 L 27.492510830037922,21.92086258148499 L 27.492389463308097,21.920952593186453 L 27.48423472457075,21.926401415408566 L 27.48410511956534,21.92647909765929 L 27.475455570151986,21.931102378141688 L 27.475318975037993,21.93116698281917 L 27.466257914837062,21.934920196843876 L 27.466115645099997,21.93497110176976 L 27.45673033707538,21.93781810383366 L 27.456583762850375,21.93785481876573 L 27.446964592648655,21.939768190682784 L 27.446815125525923,21.939790362036035 L 27.437054731013745,21.94075167698887 L 27.434451535931945,21.940879563762575 L 27.429545507524253,21.941 L 26.93447092233935,21.941 L 26.915459891925277,21.941905598464967 L 26.896621025110782,21.944614192774058 L 26.878124926384597,21.949101253938778 L 26.860139096132844,21.955326147202133 L 26.84282641375819,21.96323250002624 L 26.826343662646472,21.972748712601334 L 26.81084011033875,21.98378860625237 L 26.796456156766713,21.99625220387195 L 26.783322062793136,22.01002663531132 L 26.77155677057138,22.02498715953082 L 26.761266826407283,22.04099829425277 L 26.760065210910767,22.043079506009892 L 26.74600429434094,22.065150270573408 L 26.7410039843055,22.07229145998694 L 26.72507427153206,22.09305190333921 L 26.719467941417545,22.099733257906706 L 26.70178954095486,22.119025398254692 L 26.69562539825469,22.125189540954857 L 26.676333257906677,22.142867941417574 L 26.669651903339297,22.148474271531985 L 26.648890848901807,22.164404453197733 L 26.641750956282408,22.169403937128948 L 26.619681677782058,22.183464384695426 L 26.612127842733024,22.187825703487306 L 26.588917610058488,22.199908101932852 L 26.58101552106449,22.203592914380252 L 26.556840603645384,22.21360661974378 L 26.548645136060774,22.216589488546447 L 26.523688044805436,22.224458084999146 L 26.515267468236356,22.226714353745773 L 26.489721065606474,22.232378084492026 L 26.481130780494333,22.233892723144457 L 26.45518632537481,22.237307789439633 L 26.446504529103844,22.238067362806916 L 26.420362410251528,22.239209421409758 L 26.411637589748473,22.239209421409758 L 26.385495470896153,22.238067362806916 L 26.37681367462519,22.237307789439633 L 26.350869219505668,22.233892723144457 L 26.342278934393526,22.232378084492026 L 26.316732531763645,22.226714353745773 L 26.30831195519456,22.224458084999146 L 26.283354863939227,22.216589488546447 L 26.275159396354617,22.21360661974378 L 26.25098509048605,22.203593167695985 L 26.243081829460294,22.199907745059893 L 26.219871860233486,22.187825093400807 L 26.21232049399024,22.183465210910843 L 26.190249729426654,22.169404294341 L 26.183108540013073,22.1644039843055 L 26.162348096660704,22.148474271531985 L 26.155666742093324,22.142867941417574 L 26.136374601745306,22.125189540954857 L 26.13021045904514,22.119025398254692 L 26.112532058582456,22.099733257906706 L 26.106925728467942,22.09305190333921 L 26.0909960156945,22.07229145998694 L 26.085995705659062,22.065150270573408 L 26.071934789089145,22.043079506009757 L 26.067574906599194,22.03552813976653 L 26.055492254940212,22.0123181705399 L 26.05180683230397,22.004414909513816 L 26.041793380256205,21.98024060364537 L 26.03881051145351,21.972045136060625 L 26.030941915000916,21.94708804480566 L 26.02868564625421,21.938667468236297 L 26.02302191550791,21.913121065606237 L 26.02150727685556,21.904530780494465 L 26.018092210560322,21.87858632537441 L 26.017332637193086,21.869904529104247 L 26.016190578590244,21.84376241025153 L 26.016190578590244,21.83503758974847 L 26.017332637193086,21.808895470895752 L 26.018092210560322,21.800213674625592 L 26.02150727685556,21.774269219505534 L 26.02302191550791,21.765678934393762 L 26.02868564625421,21.740132531763702 L 26.030941915000916,21.73171195519434 L 26.03881051145351,21.706754863939373 L 26.041793380256205,21.698559396354632 L 26.051807085619746,21.674384478935494 L 26.055491898067146,21.666482389941514 L 26.067574296512813,21.643272157266722 L 26.07193561530444,21.635718322218164 L 26.08599606287086,21.613649043717874 L 26.09099554680258,21.606509151097804 L 26.106925728467942,21.585748096660794 L 26.112532058582456,21.579066742093296 L 26.13021045904514,21.559774601745307 L 26.136374601745306,21.553610459045142 L 26.155666742093324,21.535932058582425 L 26.162348096660704,21.530325728468014 L 26.183109151098193,21.514395546802266 L 26.190249043717593,21.509396062871055 L 26.212318322217943,21.495335615304576 L 26.219872157266973,21.490974296512693 L 26.243082389941513,21.478891898067147 L 26.25098447893551,21.475207085619747 L 26.275159396354617,21.46519338025622 L 26.283354863939227,21.462210511453556 L 26.30831195519456,21.454341915000857 L 26.316732531763645,21.452085646254226 L 26.342278934393526,21.446421915507972 L 26.350869219505668,21.44490727685554 L 26.37681367462519,21.441492210560366 L 26.385495470896153,21.440732637193083 L 26.411637589748473,21.439590578590245 L 26.420362410251528,21.439590578590245 L 26.446504529103844,21.440732637193083 L 26.45518632537481,21.441492210560366 L 26.481130780494333,21.44490727685554 L 26.489721065606474,21.446421915507972 L 26.515267468236356,21.452085646254226 L 26.523688044805436,21.454341915000857 L 26.548645136060774,21.462210511453556 L 26.556840603645384,21.46519338025622 L 26.58101552106449,21.475207085619747 L 26.588917610058488,21.478891898067147 L 26.612127842733024,21.490974296512693 L 26.619681677782058,21.495335615304576 L 26.641750956282408,21.509396062871055 L 26.648890848901807,21.514395546802266 L 26.669651903339297,21.530325728468014 L 26.676333257906677,21.535932058582425 L 26.69562539825469,21.553610459045142 L 26.70178954095486,21.559774601745307 L 26.719467941417545,21.579066742093296 L 26.72507427153206,21.585748096660794 L 26.74100445319742,21.606509151097804 L 26.74600393712914,21.613649043717874 L 26.76006438469544,21.635718322217986 L 26.761267365362823,21.63780189325741 L 26.77155731544277,21.653813000805826 L 26.783322609498203,21.668773498570427 L 26.796456701426862,21.682547904793008 L 26.810840649339585,21.695011478919984 L 26.826344192694037,21.706051351248593 L 26.84282693192962,21.715567545071035 L 26.860139599921286,21.723473882060183 L 26.878125413737326,21.729698762697577 L 26.896621494460433,21.734185814676167 L 26.9154603422136,21.73689440340607 L 26.934471353033246,21.7378 L 27.30707318958828,21.7378 L 27.326676617654204,21.736836945334435 L 27.346091253991514,21.73395705608064 L 27.365130125039162,21.729188067146435 L 27.38360987606129,21.72257590650226 L 27.40135253695348,21.714184252869664 L 27.418187236192196,21.704093922460512 L 27.433951846421003,21.692402090672537 L 27.4484945458256,21.679221356237306 L 27.525821356237323,21.601894545825587 L 27.539002090672554,21.587351846421004 L 27.550693922460525,21.571587236192197 L 27.560784252869666,21.55475253695348 L 27.569175906502245,21.53700987606129 L 27.57578806714645,21.51853012503916 L 27.58055705608064,21.4994912539915 L 27.583436945334434,21.480076617654188 L 27.5844,21.460473189588278 L 27.5844,17.27787092233935 L 27.583494401535035,17.258859891925262 L 27.580785807225944,17.24002102511078 L 27.576298746061205,17.2215249263846 L 27.570073852797865,17.203539096132843 L 27.562167499973743,17.186226413758202 L 27.552651287398668,17.169743662646486 L 27.541611393747626,17.154240110338748 L 27.529147796128065,17.13985615676671 L 27.515373364688696,17.126722062793135 L 27.50041284046918,17.114956770571396 L 27.484401705747246,17.104666826407282 L 27.482320493989974,17.103465210910663 L 27.460249729426653,17.089404294340998 L 27.453108540013076,17.0844039843055 L 27.432348096660704,17.068474271531983 L 27.425666742093323,17.062867941417576 L 27.40637460174531,17.04518954095486 L 27.40021045904514,17.039025398254694 L 27.382532058582456,17.019733257906704 L 27.376925728467942,17.013051903339207 L 27.3609960156945,16.99229145998694 L 27.355995705659062,16.985150270573406 L 27.341934789089144,16.96307950600976 L 27.337574906599194,16.95552813976653 L 27.32549225494021,16.9323181705399 L 27.32180683230397,16.924414909513818 L 27.311793380256205,16.90024060364537 L 27.30881051145351,16.892045136060624 L 27.300941915000916,16.867088044805662 L 27.29868564625421,16.8586674682363 L 27.293021915507914,16.833121065606235 L 27.291507276855558,16.824530780494467 L 27.288092210560322,16.79858632537441 L 27.287332637193085,16.78990452910425 L 27.286190578590244,16.763762410251527 L 27.286190578590244,16.755037589748472 L 27.287332637193085,16.728895470895754 L 27.288092210560322,16.72021367462559 L 27.291507276855558,16.694269219505532 L 27.293021915507914,16.685678934393763 L 27.29868564625421,16.660132531763704 L 27.300941915000916,16.65171195519434 L 27.30881051145351,16.626754863939375 L 27.311793380256205,16.61855939635463 L 27.32180708561975,16.594384478935496 L 27.325491898067146,16.586482389941512 L 27.337574296512813,16.56327215726672 L 27.34193561530444,16.555718322218166 L 27.35599606287086,16.533649043717876 L 27.36099554680258,16.526509151097805 L 27.376925728467942,16.505748096660792 L 27.382532058582456,16.499066742093294 L 27.40021045904514,16.47977460174531 L 27.40637460174531,16.47361045904514 L 27.425666742093323,16.455932058582427 L 27.432348096660704,16.450325728468016 L 27.453109151098193,16.434395546802268 L 27.460249043717592,16.429396062871053 L 27.482318322217942,16.415335615304574 L 27.489872157266973,16.410974296512695 L 27.513082389941513,16.398891898067145 L 27.52098447893551,16.39520708561975 L 27.545159396354617,16.385193380256222 L 27.553354863939227,16.382210511453554 L 27.57831195519456,16.374341915000855 L 27.586732531763644,16.372085646254227 L 27.612278934393526,16.36642191550797 L 27.620869219505668,16.364907276855543 L 27.64681367462519,16.361492210560368 L 27.655495470896156,16.360732637193085 L 27.681637589748473,16.359590578590243 L 27.690362410251527,16.359590578590243 L 27.716504529103844,16.360732637193085 L 27.72518632537481,16.361492210560368 L 27.751130780494332,16.364907276855543 L 27.759721065606474,16.36642191550797 L 27.785267468236356,16.372085646254227 L 27.79368804480544,16.374341915000855 L 27.818645136060773,16.382210511453554 L 27.826840603645383,16.385193380256222 L 27.85101552106449,16.39520708561975 L 27.858917610058487,16.398891898067145 L 27.882127842733027,16.410974296512695 L 27.889681677782058,16.415335615304574 L 27.911750956282408,16.429396062871053 L 27.918890848901807,16.434395546802268 L 27.939651903339296,16.450325728468016 L 27.946333257906677,16.455932058582427 L 27.965625398254694,16.47361045904514 L 27.97178954095486,16.47977460174531 L 27.989467941417544,16.499066742093294 L 27.995074271532058,16.505748096660792 L 28.01100445319742,16.526509151097805 L 28.01600393712914,16.533649043717876 L 28.03006438469556,16.555718322218166 L 28.034425703487187,16.56327215726672 L 28.046508101932854,16.586482389941512 L 28.05019291438025,16.594384478935496 L 28.060206619743795,16.61855939635463 L 28.06318948854649,16.626754863939375 L 28.071058084999084,16.65171195519434 L 28.07331435374579,16.660132531763704 L 28.07897808449209,16.685678934393763 L 28.08049272314444,16.694269219505532 L 28.083907789439678,16.72021367462559 z" /><path fill-rule="evenodd" fill="#66cc99" stroke="#555555" stroke-width="0.0" opacity="1" d="M 16.522348166648747,23.68237864376241 L 14.28394816664903,21.443978643762694 L 14.269405467244447,21.43079790932745 L 14.25364085701564,21.41910607753949 L 14.236806157776922,21.409015747130333 L 14.219063496884733,21.40062409349774 L 14.200583745862618,21.394011932853566 L 14.181544874814943,21.38924294391936 L 14.162130238477632,21.386363054665566 L 14.142526810411722,21.3854 L 14.12292338234581,21.386363054665566 L 14.103508746008501,21.38924294391936 L 14.084469874960824,21.394011932853566 L 14.06599012393871,21.40062409349774 L 14.04824746304652,21.409015747130333 L 14.031412763807804,21.41910607753949 L 14.015648153578997,21.43079790932745 L 14.001105454174414,21.443978643762694 L 13.98792471973917,21.458521343167273 L 13.97623288795121,21.47428595339608 L 13.966142557542057,21.491120652634798 L 13.95775090390946,21.508863313526987 L 13.951138743265286,21.527343064549104 L 13.946369754331082,21.54638193559678 L 13.943489865077288,21.56579657193409 L 13.94252681041172,21.5854 L 13.943489865077288,21.60500342806591 L 13.946369754331082,21.624418064403223 L 13.951138743265286,21.643456935450896 L 13.95775090390946,21.661936686473013 L 13.966142557542057,21.6796793473652 L 13.97623288795121,21.69651404660392 L 13.98792471973917,21.712278656832726 L 14.001105454174414,21.726821356237306 L 16.2395054541744,23.965221356237308 L 16.254048153578996,23.97840209067254 L 16.269812763807803,23.99009392246051 L 16.28664746304652,24.000184252869666 L 16.30439012393871,24.008575906502262 L 16.32286987496084,24.015188067146436 L 16.341908746008485,24.01995705608064 L 16.361323382345795,24.022836945334433 L 16.380926810411722,24.0238 L 16.40053023847768,24.022836945334433 L 16.419944874814988,24.01995705608064 L 16.438983745862632,24.015188067146436 L 16.457463496884763,24.008575906502262 L 16.475206157776952,24.000184252869666 L 16.49204085701567,23.99009392246051 L 16.507805467244477,23.978402090672553 L 16.522348166649074,23.965221356237308 L 16.535528901084305,23.950678656832725 L 16.547220732872248,23.934914046603918 L 16.557311063281418,23.9180793473652 L 16.565702716913997,23.90033668647301 L 16.572314877558203,23.881856935450898 L 16.57708386649239,23.86281806440322 L 16.579963755746185,23.843403428065912 L 16.58092681041175,23.8238 L 16.579963755746185,23.80419657193409 L 16.57708386649239,23.78478193559678 L 16.572314877558203,23.765743064549103 L 16.565702716913997,23.74726331352699 L 16.557311063281418,23.7295206526348 L 16.547220732872248,23.712685953396083 L 16.535528901084305,23.696921343167276 L 16.522348166649074,23.682378643762693 L 16.522348166648747,23.68237864376241 z" /><path fill-rule="evenodd" fill="#66cc99" stroke="#555555" stroke-width="0.0" opacity="1" d="M 15.812978643762678,24.391748166649045 L 15.827521343167275,24.40492890108429 L 15.843285953396082,24.416620732872246 L 15.8601206526348,24.426711063281402 L 15.877863313526989,24.435102716914 L 15.896343064549118,24.441714877558173 L 15.915381935596765,24.446483866492375 L 15.934796571934074,24.44936375574617 L 15.9544,24.450326810411735 L 15.974003428065926,24.44936375574617 L 15.993418064403237,24.446483866492375 L 16.01245693545088,24.441714877558173 L 16.030936686473012,24.435102716914 L 16.0486793473652,24.426711063281402 L 16.06551404660392,24.416620732872246 L 16.081278656832726,24.40492890108429 L 16.095821356237323,24.391748166649045 L 16.109002090672554,24.377205467244462 L 16.120693922460497,24.361440857015655 L 16.130784252869667,24.344606157776937 L 16.139175906502246,24.326863496884748 L 16.14578806714645,24.30838374586263 L 16.15055705608064,24.289344874814958 L 16.153436945334434,24.26993023847765 L 16.1544,24.250326810411735 L 16.153436945334434,24.230723382345825 L 16.15055705608064,24.211308746008516 L 16.14578806714645,24.19226987496084 L 16.139175906502246,24.173790123938723 L 16.130784252869667,24.156047463046537 L 16.120693922460497,24.13921276380782 L 16.109002090672554,24.123448153579012 L 16.095821356237323,24.10890545417443 L 13.732494545825586,21.74557864376269 L 13.717951846421004,21.732397909327446 L 13.702187236192197,21.72070607753949 L 13.685352536953479,21.710615747130333 L 13.66760987606129,21.702224093497737 L 13.649130125039175,21.695611932853566 L 13.6300912539915,21.69084294391936 L 13.610676617654189,21.687963054665566 L 13.591073189588279,21.687 L 13.571469761522367,21.687963054665566 L 13.552055125185058,21.69084294391936 L 13.533016254137381,21.695611932853566 L 13.514536503115266,21.702224093497737 L 13.496793842223077,21.710615747130333 L 13.479959142984361,21.72070607753949 L 13.464194532755554,21.732397909327446 L 13.449651833350972,21.74557864376269 L 13.436471098915726,21.760121343167274 L 13.424779267127768,21.77588595339608 L 13.414688936718614,21.7927206526348 L 13.406297283086017,21.810463313526988 L 13.399685122441843,21.828943064549104 L 13.394916133507639,21.847981935596778 L 13.392036244253845,21.86739657193409 L 13.391073189588278,21.887 L 13.392036244253845,21.90660342806591 L 13.394916133507639,21.92601806440322 L 13.399685122441843,21.945056935450896 L 13.406297283086017,21.963536686473013 L 13.414688936718614,21.981279347365202 L 13.424779267127768,21.998114046603916 L 13.436471098915726,22.013878656832723 L 13.449651833350972,22.028421356237306 L 15.812978643762678,24.391748166649045 z" /></g>
                        <circle r="1.0" cx="12" cy="33" stroke-width="0.1" fill="none" stroke="black"/><circle r="1.0" cx="12" cy="12" stroke-width="0.1" fill="none" stroke="black"/><circle r="1.0" cx="33" cy="33" stroke-width="0.1" fill="none" stroke="black"/><line x1="19" y1="40" x2="25" y2="40" stroke-width="0.1" fill="none" stroke="black"/><circle r="1.0" cx="33" cy="12" stroke-width="0.1" fill="none" stroke="black"/><path d="M 19 40 A 17.485602 17.485602 0 1 1 25 40" stroke-width="0.1" fill="none" stroke="black"/>
                    </g>
                    </svg>