<svg xmlns="http://www.w3.org/2000/svg" viewBox="0 0 58.590274 50.455152" width="58.590274mm" height="50.455152mm">
                    <g stroke-linecap="round">
                        <g><path fill-rule="evenodd" fill="#66cc99" stroke="#555555" stroke-width="0.0" opacity="0.6" d="M 29.100983189180283,51.30914729933928 L 30.569940879877805,51.63223650808306 L 29.100983189180194,51.30914729933925 L 28.747487828786493,51.19833878841606 L 29.100983189180283,51.30914729933928 z" /><path fill-rule="evenodd" fill="#66cc99" stroke="#555555" stroke-width="0.0" opacity="0.6" d="M 30.575938503461302,51.633555652582736 L 36.556761081058234,51.63611625111189 L 36.569936693768206,51.63379106787062 L 36.56505,51.633551 L 30.5759173500244,51.633551 L 30.575938503461302,51.633555652582736 z" /><path fill-rule="evenodd" fill="#66cc99" stroke="#555555" stroke-width="0.0" opacity="0.6" d="M 23.61584311185953,23.255157888140396 L 23.6158431118595,23.255157888140367 L 23.54865312110001,23.19426043022907 L 23.61584311185953,23.255157888140396 z" /><path fill-rule="evenodd" fill="#66cc99" stroke="#555555" stroke-width="0.0" opacity="0.6" d="M 23.846698660122872,23.640317101467474 L 23.86873228080824,23.728280246010154 L 23.874889002435804,23.769785491835787 L 23.86873228080824,23.728280246010108 L 23.84669866012296,23.640317101467698 L 23.838432303647192,23.61721418280728 L 23.846698660122872,23.640317101467474 z" /><path fill-rule="evenodd" fill="#66cc99" stroke="#555555" stroke-width="0.0" opacity="0.6" d="M 23.86873228080824,24.088821753989844 L 23.846698660122872,24.176784898532524 L 23.838432303647192,24.199887817192717 L 23.84669866012296,24.1767848985323 L 23.86873228080824,24.08882175398989 L 23.874889002435804,24.04731650816421 L 23.86873228080824,24.088821753989844 z" /><path fill-rule="evenodd" fill="#66cc99" stroke="#555555" stroke-width="0.0" opacity="0.6" d="M 23.54865312110001,24.622841569770934 L 23.6158431118595,24.561944111859635 L 23.61584311185953,24.561944111859606 L 23.54865312110001,24.622841569770934 z" /><path fill-rule="evenodd" fill="#66cc99" stroke="#555555" stroke-width="0.0" opacity="0.6" d="M 23.61844311185953,44.45775788814039 L 23.618443111859502,44.457757888140364 L 23.551253121100007,44.39686043022907 L 23.61844311185953,44.45775788814039 z" /><path fill-rule="evenodd" fill="#66cc99" stroke="#555555" stroke-width="0.0" opacity="0.6" d="M 23.849298660122873,44.84291710146748 L 23.87133228080824,44.930880246010155 L 23.877489002435805,44.97238549183579 L 23.87133228080824,44.93088024601011 L 23.84929866012296,44.8429171014677 L 23.84103230364719,44.819814182807285 L 23.849298660122873,44.84291710146748 z" /><path fill-rule="evenodd" fill="#66cc99" stroke="#555555" stroke-width="0.0" opacity="0.6" d="M 23.87133228080824,45.291421753989844 L 23.849298660122873,45.37938489853252 L 23.84103230364719,45.40248781719272 L 23.84929866012296,45.3793848985323 L 23.87133228080824,45.29142175398989 L 23.877489002435805,45.24991650816421 L 23.87133228080824,45.291421753989844 z" /><path fill-rule="evenodd" fill="#66cc99" stroke="#555555" stroke-width="0.0" opacity="0.6" d="M 23.551253121100007,45.82544156977093 L 23.618443111859502,45.764544111859635 L 23.61844311185953,45.76454411185961 L 23.551253121100007,45.82544156977093 z" /><path fill-rule="evenodd" fill="#66cc99" stroke="#555555" stroke-width="0.0" opacity="0.6" d="M 26.030602,35.376363 L 26.02965,35.398151 L 26.030602,35.419939 L 26.033449,35.441563 L 26.038169,35.462855 L 26.044727,35.483656 L 26.053074,35.503805 L 26.063144,35.52315 L 26.074862,35.541545 L 26.088139,35.558847 L 26.102874,35.574927 L 26.118954,35.589662 L 26.136256,35.602939 L 26.154651,35.614657 L 26.173996,35.624727 L 26.194145,35.633074 L 26.214946,35.639632 L 26.236238,35.644352 L 26.257862,35.647199 L 26.27965,35.648151 L 26.301438,35.647199 L 26.323062,35.644352 L 26.344354,35.639632 L 26.365155,35.633074 L 26.385304,35.624727 L 26.40465,35.614657 L 26.423044,35.602939 L 26.440346,35.589662 L 26.456426,35.574927 L 26.471161,35.558847 L 26.484438,35.541545 L 26.496156,35.52315 L 26.506226,35.503805 L 26.514573,35.483656 L 26.521131,35.462855 L 26.525851,35.441563 L 26.528698,35.419939 L 26.52965,35.398151 L 26.528698,35.376363 L 26.525851,35.354739 L 26.521131,35.333447 L 26.514573,35.312646 L 26.506226,35.292497 L 26.496156,35.273151 L 26.484438,35.254757 L 26.471161,35.237455 L 26.456426,35.221375 L 26.440346,35.20664 L 26.423044,35.193363 L 26.40465,35.181645 L 26.385304,35.171575 L 26.365155,35.163228 L 26.344354,35.15667 L 26.323062,35.15195 L 26.301438,35.149103 L 26.27965,35.148151 L 26.257862,35.149103 L 26.236238,35.15195 L 26.214946,35.15667 L 26.194145,35.163228 L 26.173996,35.171575 L 26.15465,35.181645 L 26.136256,35.193363 L 26.118954,35.20664 L 26.102874,35.221375 L 26.088139,35.237455 L 26.074862,35.254757 L 26.063144,35.273151 L 26.053074,35.292497 L 26.044727,35.312646 L 26.038169,35.333447 L 26.033449,35.354739 L 26.030602,35.376363 z" /><path fill-rule="evenodd" fill="#66cc99" stroke="#555555" stroke-width="0.0" opacity="0.6" d="M 20.624074,37.597205 L 20.634144,37.61655 L 20.645862,37.634945 L 20.659139,37.652247 L 20.673874,37.668327 L 20.689954,37.683062 L 20.707256,37.696339 L 20.725651,37.708057 L 20.744996,37.718127 L 20.765145,37.726474 L 20.785946,37.733032 L 20.807238,37.737752 L 20.828862,37.740599 L 20.85065,37.741551 L 20.872438,37.740599 L 20.894062,37.737752 L 20.915354,37.733032 L 20.936155,37.726474 L 20.956304,37.718127 L 20.97565,37.708057 L 20.994044,37.696339 L 21.011346,37.683062 L 21.027426,37.668327 L 21.042161,37.652247 L 21.055438,37.634945 L 21.067156,37.61655 L 21.077226,37.597205 L 21.085573,37.577056 L 21.092131,37.556255 L 21.096851,37.534963 L 21.099698,37.513339 L 21.10065,37.491551 L 21.099698,37.469763 L 21.096851,37.448139 L 21.092131,37.426847 L 21.085573,37.406046 L 21.077226,37.385897 L 21.067156,37.366551 L 21.055438,37.348157 L 21.042161,37.330855 L 21.027426,37.314775 L 21.011346,37.30004 L 20.994044,37.286763 L 20.97565,37.275045 L 20.956304,37.264975 L 20.936155,37.256628 L 20.915354,37.25007 L 20.894062,37.24535 L 20.872438,37.242503 L 20.85065,37.241551 L 20.828862,37.242503 L 20.807238,37.24535 L 20.785946,37.25007 L 20.765145,37.256628 L 20.744996,37.264975 L 20.72565,37.275045 L 20.707256,37.286763 L 20.689954,37.30004 L 20.673874,37.314775 L 20.659139,37.330855 L 20.645862,37.348157 L 20.634144,37.366551 L 20.624074,37.385897 L 20.615727,37.406046 L 20.609169,37.426847 L 20.604449,37.448139 L 20.601602,37.469763 L 20.60065,37.491551 L 20.601602,37.513339 L 20.604449,37.534963 L 20.609169,37.556255 L 20.615727,37.577056 L 20.624074,37.597205 z" /><path fill-rule="evenodd" fill="#66cc99" stroke="#555555" stroke-width="0.0" opacity="0.6" d="M 19.852426,30.768327 L 19.867161,30.752247 L 19.880438,30.734945 L 19.892156,30.71655 L 19.902226,30.697205 L 19.910573,30.677056 L 19.917131,30.656255 L 19.921851,30.634963 L 19.924698,30.613339 L 19.92565,30.591551 L 19.924698,30.569763 L 19.921851,30.548139 L 19.917131,30.526847 L 19.910573,30.506046 L 19.902226,30.485897 L 19.892156,30.466551 L 19.880438,30.448157 L 19.867161,30.430855 L 19.852426,30.414775 L 19.836346,30.40004 L 19.819044,30.386763 L 19.80065,30.375045 L 19.781304,30.364975 L 19.761155,30.356628 L 19.740354,30.35007 L 19.719062,30.34535 L 19.697438,30.342503 L 19.67565,30.341551 L 19.653862,30.342503 L 19.632238,30.34535 L 19.610946,30.35007 L 19.590145,30.356628 L 19.569996,30.364975 L 19.55065,30.375045 L 19.532256,30.386763 L 19.514954,30.40004 L 19.498874,30.414775 L 19.484139,30.430855 L 19.470862,30.448157 L 19.459144,30.466551 L 19.449074,30.485897 L 19.440727,30.506046 L 19.434169,30.526847 L 19.429449,30.548139 L 19.426602,30.569763 L 19.42565,30.591551 L 19.426602,30.613339 L 19.429449,30.634963 L 19.434169,30.656255 L 19.440727,30.677056 L 19.449074,30.697205 L 19.459144,30.71655 L 19.470862,30.734945 L 19.484139,30.752247 L 19.498874,30.768327 L 19.514954,30.783062 L 19.532256,30.796339 L 19.550651,30.808057 L 19.569996,30.818127 L 19.590145,30.826474 L 19.610946,30.833032 L 19.632238,30.837752 L 19.653862,30.840599 L 19.67565,30.841551 L 19.697438,30.840599 L 19.719062,30.837752 L 19.740354,30.833032 L 19.761155,30.826474 L 19.781304,30.818127 L 19.80065,30.808057 L 19.819044,30.796339 L 19.836346,30.783062 L 19.852426,30.768327 z" /><path fill-rule="evenodd" fill="#66cc99" stroke="#555555" stroke-width="0.0" opacity="0.6" d="M 23.592161,41.927247 L 23.605438,41.909945 L 23.617156,41.89155 L 23.627226,41.872205 L 23.635573,41.852056 L 23.642131,41.831255 L 23.646851,41.809963 L 23.649698,41.788339 L 23.65065,41.766551 L 23.649698,41.744763 L 23.646851,41.723139 L 23.642131,41.701847 L 23.635573,41.681046 L 23.627226,41.660897 L 23.617156,41.641551 L 23.605438,41.623157 L 23.592161,41.605855 L 23.577426,41.589775 L 23.561346,41.57504 L 23.544044,41.561763 L 23.52565,41.550045 L 23.506304,41.539975 L 23.486155,41.531628 L 23.465354,41.52507 L 23.444062,41.52035 L 23.422438,41.517503 L 23.40065,41.516551 L 23.378862,41.517503 L 23.357238,41.52035 L 23.335946,41.52507 L 23.315145,41.531628 L 23.294996,41.539975 L 23.27565,41.550045 L 23.257256,41.561763 L 23.239954,41.57504 L 23.223874,41.589775 L 23.209139,41.605855 L 23.195862,41.623157 L 23.184144,41.641551 L 23.174074,41.660897 L 23.165727,41.681046 L 23.159169,41.701847 L 23.154449,41.723139 L 23.151602,41.744763 L 23.15065,41.766551 L 23.151602,41.788339 L 23.154449,41.809963 L 23.159169,41.831255 L 23.165727,41.852056 L 23.174074,41.872205 L 23.184144,41.89155 L 23.195862,41.909945 L 23.209139,41.927247 L 23.223874,41.943327 L 23.239954,41.958062 L 23.257256,41.971339 L 23.275651,41.983057 L 23.294996,41.993127 L 23.315145,42.001474 L 23.335946,42.008032 L 23.357238,42.012752 L 23.378862,42.015599 L 23.40065,42.016551 L 23.422438,42.015599 L 23.444062,42.012752 L 23.465354,42.008032 L 23.486155,42.001474 L 23.506304,41.993127 L 23.52565,41.983057 L 23.544044,41.971339 L 23.561346,41.958062 L 23.577426,41.943327 L 23.592161,41.927247 z" /><path fill-rule="evenodd" fill="#66cc99" stroke="#555555" stroke-width="0.0" opacity="0.6" d="M 21.580438,31.859945 L 21.592156,31.84155 L 21.602226,31.822205 L 21.610573,31.802056 L 21.617131,31.781255 L 21.621851,31.759963 L 21.624698,31.738339 L 21.62565,31.716551 L 21.624698,31.694763 L 21.621851,31.673139 L 21.617131,31.651847 L 21.610573,31.631046 L 21.602226,31.610897 L 21.592156,31.591551 L 21.580438,31.573157 L 21.567161,31.555855 L 21.552426,31.539775 L 21.536346,31.52504 L 21.519044,31.511763 L 21.50065,31.500045 L 21.481304,31.489975 L 21.461155,31.481628 L 21.440354,31.47507 L 21.419062,31.47035 L 21.397438,31.467503 L 21.37565,31.466551 L 21.353862,31.467503 L 21.332238,31.47035 L 21.310946,31.47507 L 21.290145,31.481628 L 21.269996,31.489975 L 21.25065,31.500045 L 21.232256,31.511763 L 21.214954,31.52504 L 21.198874,31.539775 L 21.184139,31.555855 L 21.170862,31.573157 L 21.159144,31.591551 L 21.149074,31.610897 L 21.140727,31.631046 L 21.134169,31.651847 L 21.129449,31.673139 L 21.126602,31.694763 L 21.12565,31.716551 L 21.126602,31.738339 L 21.129449,31.759963 L 21.134169,31.781255 L 21.140727,31.802056 L 21.149074,31.822205 L 21.159144,31.84155 L 21.170862,31.859945 L 21.184139,31.877247 L 21.198874,31.893327 L 21.214954,31.908062 L 21.232256,31.921339 L 21.250651,31.933057 L 21.269996,31.943127 L 21.290145,31.951474 L 21.310946,31.958032 L 21.332238,31.962752 L 21.353862,31.965599 L 21.37565,31.966551 L 21.397438,31.965599 L 21.419062,31.962752 L 21.440354,31.958032 L 21.461155,31.951474 L 21.481304,31.943127 L 21.50065,31.933057 L 21.519044,31.921339 L 21.536346,31.908062 L 21.552426,31.893327 L 21.567161,31.877247 L 21.580438,31.859945 z" /><path fill-rule="evenodd" fill="#66cc99" stroke="#555555" stroke-width="0.0" opacity="0.6" d="M 26.530906,43.279599 L 26.540976,43.260254 L 26.549323,43.240105 L 26.555881,43.219304 L 26.560601,43.198012 L 26.563448,43.176388 L 26.5644,43.1546 L 26.563448,43.132812 L 26.560601,43.111188 L 26.555881,43.089896 L 26.549323,43.069095 L 26.540976,43.048946 L 26.530906,43.0296 L 26.519188,43.011206 L 26.505911,42.993904 L 26.491176,42.977824 L 26.475096,42.963089 L 26.457794,42.949812 L 26.4394,42.938094 L 26.420054,42.928024 L 26.399905,42.919677 L 26.379104,42.913119 L 26.357812,42.908399 L 26.336188,42.905552 L 26.3144,42.9046 L 26.292612,42.905552 L 26.270988,42.908399 L 26.249696,42.913119 L 26.228895,42.919677 L 26.208746,42.928024 L 26.1894,42.938094 L 26.171006,42.949812 L 26.153704,42.963089 L 26.137624,42.977824 L 26.122889,42.993904 L 26.109612,43.011206 L 26.097894,43.0296 L 26.087824,43.048946 L 26.079477,43.069095 L 26.072919,43.089896 L 26.068199,43.111188 L 26.065352,43.132812 L 26.0644,43.1546 L 26.065352,43.176388 L 26.068199,43.198012 L 26.072919,43.219304 L 26.079477,43.240105 L 26.087824,43.260254 L 26.097894,43.279599 L 26.109612,43.297994 L 26.122889,43.315296 L 26.137624,43.331376 L 26.153704,43.346111 L 26.171006,43.359388 L 26.189401,43.371106 L 26.208746,43.381176 L 26.228895,43.389523 L 26.249696,43.396081 L 26.270988,43.400801 L 26.292612,43.403648 L 26.3144,43.4046 L 26.336188,43.403648 L 26.357812,43.400801 L 26.379104,43.396081 L 26.399905,43.389523 L 26.420054,43.381176 L 26.4394,43.371106 L 26.457794,43.359388 L 26.475096,43.346111 L 26.491176,43.331376 L 26.505911,43.315296 L 26.519188,43.297994 L 26.530906,43.279599 z" /><path fill-rule="evenodd" fill="#66cc99" stroke="#555555" stroke-width="0.0" opacity="0.6" d="M 40.675026,38.254453 L 40.683373,38.234304 L 40.689931,38.213503 L 40.694651,38.192211 L 40.697498,38.170587 L 40.69845,38.148799 L 40.697498,38.127011 L 40.694651,38.105387 L 40.689931,38.084095 L 40.683373,38.063294 L 40.675026,38.043145 L 40.664956,38.023799 L 40.653238,38.005405 L 40.639961,37.988103 L 40.625226,37.972023 L 40.609146,37.957288 L 40.591844,37.944011 L 40.57345,37.932293 L 40.554104,37.922223 L 40.533955,37.913876 L 40.513154,37.907318 L 40.491862,37.902598 L 40.470238,37.899751 L 40.44845,37.898799 L 40.426662,37.899751 L 40.405038,37.902598 L 40.383746,37.907318 L 40.362945,37.913876 L 40.342796,37.922223 L 40.32345,37.932293 L 40.305056,37.944011 L 40.287754,37.957288 L 40.271674,37.972023 L 40.256939,37.988103 L 40.243662,38.005405 L 40.231944,38.023799 L 40.221874,38.043145 L 40.213527,38.063294 L 40.206969,38.084095 L 40.202249,38.105387 L 40.199402,38.127011 L 40.19845,38.148799 L 40.199402,38.170587 L 40.202249,38.192211 L 40.206969,38.213503 L 40.213527,38.234304 L 40.221874,38.254453 L 40.231944,38.273798 L 40.243662,38.292193 L 40.256939,38.309495 L 40.271674,38.325575 L 40.287754,38.34031 L 40.305056,38.353587 L 40.323451,38.365305 L 40.342796,38.375375 L 40.362945,38.383722 L 40.383746,38.39028 L 40.405038,38.395 L 40.426662,38.397847 L 40.44845,38.398799 L 40.470238,38.397847 L 40.491862,38.395 L 40.513154,38.39028 L 40.533955,38.383722 L 40.554104,38.375375 L 40.57345,38.365305 L 40.591844,38.353587 L 40.609146,38.34031 L 40.625226,38.325575 L 40.639961,38.309495 L 40.653238,38.292193 L 40.664956,38.273798 L 40.675026,38.254453 z" /><path fill-rule="evenodd" fill="#66cc99" stroke="#555555" stroke-width="0.0" opacity="0.6" d="M 42.135573,36.245056 L 42.142131,36.224255 L 42.146851,36.202963 L 42.149698,36.181339 L 42.15065,36.159551 L 42.149698,36.137763 L 42.146851,36.116139 L 42.142131,36.094847 L 42.135573,36.074046 L 42.127226,36.053897 L 42.117156,36.034551 L 42.105438,36.016157 L 42.092161,35.998855 L 42.077426,35.982775 L 42.061346,35.96804 L 42.044044,35.954763 L 42.02565,35.943045 L 42.006304,35.932975 L 41.986155,35.924628 L 41.965354,35.91807 L 41.944062,35.91335 L 41.922438,35.910503 L 41.90065,35.909551 L 41.878862,35.910503 L 41.857238,35.91335 L 41.835946,35.91807 L 41.815145,35.924628 L 41.794996,35.932975 L 41.77565,35.943045 L 41.757256,35.954763 L 41.739954,35.96804 L 41.723874,35.982775 L 41.709139,35.998855 L 41.695862,36.016157 L 41.684144,36.034551 L 41.674074,36.053897 L 41.665727,36.074046 L 41.659169,36.094847 L 41.654449,36.116139 L 41.651602,36.137763 L 41.65065,36.159551 L 41.651602,36.181339 L 41.654449,36.202963 L 41.659169,36.224255 L 41.665727,36.245056 L 41.674074,36.265205 L 41.684144,36.28455 L 41.695862,36.302945 L 41.709139,36.320247 L 41.723874,36.336327 L 41.739954,36.351062 L 41.757256,36.364339 L 41.775651,36.376057 L 41.794996,36.386127 L 41.815145,36.394474 L 41.835946,36.401032 L 41.857238,36.405752 L 41.878862,36.408599 L 41.90065,36.409551 L 41.922438,36.408599 L 41.944062,36.405752 L 41.965354,36.401032 L 41.986155,36.394474 L 42.006304,36.386127 L 42.02565,36.376057 L 42.044044,36.364339 L 42.061346,36.351062 L 42.077426,36.336327 L 42.092161,36.320247 L 42.105438,36.302945 L 42.117156,36.28455 L 42.127226,36.265205 L 42.135573,36.245056 z" /><path fill-rule="evenodd" fill="#66cc99" stroke="#555555" stroke-width="0.0" opacity="0.6" d="M 39.369131,29.027255 L 39.373851,29.005963 L 39.376698,28.984339 L 39.37765,28.962551 L 39.376698,28.940763 L 39.373851,28.919139 L 39.369131,28.897847 L 39.362573,28.877046 L 39.354226,28.856897 L 39.344156,28.837551 L 39.332438,28.819157 L 39.319161,28.801855 L 39.304426,28.785775 L 39.288346,28.77104 L 39.271044,28.757763 L 39.25265,28.746045 L 39.233304,28.735975 L 39.213155,28.727628 L 39.192354,28.72107 L 39.171062,28.71635 L 39.149438,28.713503 L 39.12765,28.712551 L 39.105862,28.713503 L 39.084238,28.71635 L 39.062946,28.72107 L 39.042145,28.727628 L 39.021996,28.735975 L 39.00265,28.746045 L 38.984256,28.757763 L 38.966954,28.77104 L 38.950874,28.785775 L 38.936139,28.801855 L 38.922862,28.819157 L 38.911144,28.837551 L 38.901074,28.856897 L 38.892727,28.877046 L 38.886169,28.897847 L 38.881449,28.919139 L 38.878602,28.940763 L 38.87765,28.962551 L 38.878602,28.984339 L 38.881449,29.005963 L 38.886169,29.027255 L 38.892727,29.048056 L 38.901074,29.068205 L 38.911144,29.08755 L 38.922862,29.105945 L 38.936139,29.123247 L 38.950874,29.139327 L 38.966954,29.154062 L 38.984256,29.167339 L 39.002651,29.179057 L 39.021996,29.189127 L 39.042145,29.197474 L 39.062946,29.204032 L 39.084238,29.208752 L 39.105862,29.211599 L 39.12765,29.212551 L 39.149438,29.211599 L 39.171062,29.208752 L 39.192354,29.204032 L 39.213155,29.197474 L 39.233304,29.189127 L 39.25265,29.179057 L 39.271044,29.167339 L 39.288346,29.154062 L 39.304426,29.139327 L 39.319161,29.123247 L 39.332438,29.105945 L 39.344156,29.08755 L 39.354226,29.068205 L 39.362573,29.048056 L 39.369131,29.027255 z M 39.308911,29.047074 L 39.300855,29.06255 L 39.29148,29.077266 L 39.280858,29.091108 L 39.269071,29.103972 L 39.256207,29.115759 L 39.242365,29.126381 L 39.22765,29.135756 L 39.212173,29.143812 L 39.196054,29.150489 L 39.179413,29.155736 L 39.162379,29.159512 L 39.145081,29.161789 L 39.12765,29.162551 L 39.110219,29.161789 L 39.092921,29.159512 L 39.075887,29.155736 L 39.059246,29.150489 L 39.043127,29.143812 L 39.027651,29.135756 L 39.012935,29.126381 L 38.999093,29.115759 L 38.986229,29.103972 L 38.974442,29.091108 L 38.96382,29.077266 L 38.954445,29.06255 L 38.946389,29.047074 L 38.939712,29.030955 L 38.934465,29.014314 L 38.930689,28.99728 L 38.928412,28.979982 L 38.92765,28.962551 L 38.928412,28.94512 L 38.930689,28.927822 L 38.934465,28.910788 L 38.939712,28.894147 L 38.946389,28.878028 L 38.954445,28.862551 L 38.96382,28.847836 L 38.974442,28.833994 L 38.986229,28.82113 L 38.999093,28.809343 L 39.012935,28.798721 L 39.02765,28.789346 L 39.043127,28.78129 L 39.059246,28.774613 L 39.075887,28.769366 L 39.092921,28.76559 L 39.110219,28.763313 L 39.12765,28.762551 L 39.145081,28.763313 L 39.162379,28.76559 L 39.179413,28.769366 L 39.196054,28.774613 L 39.212173,28.78129 L 39.22765,28.789346 L 39.242365,28.798721 L 39.256207,28.809343 L 39.269071,28.82113 L 39.280858,28.833994 L 39.29148,28.847836 L 39.300855,28.862551 L 39.308911,28.878028 L 39.315588,28.894147 L 39.320835,28.910788 L 39.324611,28.927822 L 39.326888,28.94512 L 39.32765,28.962551 L 39.326888,28.979982 L 39.324611,28.99728 L 39.320835,29.014314 L 39.315588,29.030955 L 39.308911,29.047074 z" /><path fill-rule="evenodd" fill="#66cc99" stroke="#555555" stroke-width="0.0" opacity="0.6" d="M 38.103851,34.085963 L 38.106698,34.064339 L 38.10765,34.042551 L 38.106698,34.020763 L 38.103851,33.999139 L 38.099131,33.977847 L 38.092573,33.957046 L 38.084226,33.936897 L 38.074156,33.917551 L 38.062438,33.899157 L 38.049161,33.881855 L 38.034426,33.865775 L 38.018346,33.85104 L 38.001044,33.837763 L 37.98265,33.826045 L 37.963304,33.815975 L 37.943155,33.807628 L 37.922354,33.80107 L 37.901062,33.79635 L 37.879438,33.793503 L 37.85765,33.792551 L 37.835862,33.793503 L 37.814238,33.79635 L 37.792946,33.80107 L 37.772145,33.807628 L 37.751996,33.815975 L 37.73265,33.826045 L 37.714256,33.837763 L 37.696954,33.85104 L 37.680874,33.865775 L 37.666139,33.881855 L 37.652862,33.899157 L 37.641144,33.917551 L 37.631074,33.936897 L 37.622727,33.957046 L 37.616169,33.977847 L 37.611449,33.999139 L 37.608602,34.020763 L 37.60765,34.042551 L 37.608602,34.064339 L 37.611449,34.085963 L 37.616169,34.107255 L 37.622727,34.128056 L 37.631074,34.148205 L 37.641144,34.16755 L 37.652862,34.185945 L 37.666139,34.203247 L 37.680874,34.219327 L 37.696954,34.234062 L 37.714256,34.247339 L 37.732651,34.259057 L 37.751996,34.269127 L 37.772145,34.277474 L 37.792946,34.284032 L 37.814238,34.288752 L 37.835862,34.291599 L 37.85765,34.292551 L 37.879438,34.291599 L 37.901062,34.288752 L 37.922354,34.284032 L 37.943155,34.277474 L 37.963304,34.269127 L 37.98265,34.259057 L 38.001044,34.247339 L 38.018346,34.234062 L 38.034426,34.219327 L 38.049161,34.203247 L 38.062438,34.185945 L 38.074156,34.16755 L 38.084226,34.148205 L 38.092573,34.128056 L 38.099131,34.107255 L 38.103851,34.085963 z M 38.045588,34.110955 L 38.038911,34.127074 L 38.030855,34.14255 L 38.02148,34.157266 L 38.010858,34.171108 L 37.999071,34.183972 L 37.986207,34.195759 L 37.972365,34.206381 L 37.95765,34.215756 L 37.942173,34.223812 L 37.926054,34.230489 L 37.909413,34.235736 L 37.892379,34.239512 L 37.875081,34.241789 L 37.85765,34.242551 L 37.840219,34.241789 L 37.822921,34.239512 L 37.805887,34.235736 L 37.789246,34.230489 L 37.773127,34.223812 L 37.757651,34.215756 L 37.742935,34.206381 L 37.729093,34.195759 L 37.716229,34.183972 L 37.704442,34.171108 L 37.69382,34.157266 L 37.684445,34.14255 L 37.676389,34.127074 L 37.669712,34.110955 L 37.664465,34.094314 L 37.660689,34.07728 L 37.658412,34.059982 L 37.65765,34.042551 L 37.658412,34.02512 L 37.660689,34.007822 L 37.664465,33.990788 L 37.669712,33.974147 L 37.676389,33.958028 L 37.684445,33.942551 L 37.69382,33.927836 L 37.704442,33.913994 L 37.716229,33.90113 L 37.729093,33.889343 L 37.742935,33.878721 L 37.75765,33.869346 L 37.773127,33.86129 L 37.789246,33.854613 L 37.805887,33.849366 L 37.822921,33.84559 L 37.840219,33.843313 L 37.85765,33.842551 L 37.875081,33.843313 L 37.892379,33.84559 L 37.909413,33.849366 L 37.926054,33.854613 L 37.942173,33.86129 L 37.95765,33.869346 L 37.972365,33.878721 L 37.986207,33.889343 L 37.999071,33.90113 L 38.010858,33.913994 L 38.02148,33.927836 L 38.030855,33.942551 L 38.038911,33.958028 L 38.045588,33.974147 L 38.050835,33.990788 L 38.054611,34.007822 L 38.056888,34.02512 L 38.05765,34.042551 L 38.056888,34.059982 L 38.054611,34.07728 L 38.050835,34.094314 L 38.045588,34.110955 z" /><path fill-rule="evenodd" fill="#66cc99" stroke="#555555" stroke-width="0.0" opacity="0.6" d="M 45.218698,28.730339 L 45.21965,28.708551 L 45.218698,28.686763 L 45.215851,28.665139 L 45.211131,28.643847 L 45.204573,28.623046 L 45.196226,28.602897 L 45.186156,28.583551 L 45.174438,28.565157 L 45.161161,28.547855 L 45.146426,28.531775 L 45.130346,28.51704 L 45.113044,28.503763 L 45.09465,28.492045 L 45.075304,28.481975 L 45.055155,28.473628 L 45.034354,28.46707 L 45.013062,28.46235 L 44.991438,28.459503 L 44.96965,28.458551 L 44.947862,28.459503 L 44.926238,28.46235 L 44.904946,28.46707 L 44.884145,28.473628 L 44.863996,28.481975 L 44.84465,28.492045 L 44.826256,28.503763 L 44.808954,28.51704 L 44.792874,28.531775 L 44.778139,28.547855 L 44.764862,28.565157 L 44.753144,28.583551 L 44.743074,28.602897 L 44.734727,28.623046 L 44.728169,28.643847 L 44.723449,28.665139 L 44.720602,28.686763 L 44.71965,28.708551 L 44.720602,28.730339 L 44.723449,28.751963 L 44.728169,28.773255 L 44.734727,28.794056 L 44.743074,28.814205 L 44.753144,28.83355 L 44.764862,28.851945 L 44.778139,28.869247 L 44.792874,28.885327 L 44.808954,28.900062 L 44.826256,28.913339 L 44.844651,28.925057 L 44.863996,28.935127 L 44.884145,28.943474 L 44.904946,28.950032 L 44.926238,28.954752 L 44.947862,28.957599 L 44.96965,28.958551 L 44.991438,28.957599 L 45.013062,28.954752 L 45.034354,28.950032 L 45.055155,28.943474 L 45.075304,28.935127 L 45.09465,28.925057 L 45.113044,28.913339 L 45.130346,28.900062 L 45.146426,28.885327 L 45.161161,28.869247 L 45.174438,28.851945 L 45.186156,28.83355 L 45.196226,28.814205 L 45.204573,28.794056 L 45.211131,28.773255 L 45.215851,28.751963 L 45.218698,28.730339 z M 45.162835,28.760314 L 45.157588,28.776955 L 45.150911,28.793074 L 45.142855,28.80855 L 45.13348,28.823266 L 45.122858,28.837108 L 45.111071,28.849972 L 45.098207,28.861759 L 45.084365,28.872381 L 45.06965,28.881756 L 45.054173,28.889812 L 45.038054,28.896489 L 45.021413,28.901736 L 45.004379,28.905512 L 44.987081,28.907789 L 44.96965,28.908551 L 44.952219,28.907789 L 44.934921,28.905512 L 44.917887,28.901736 L 44.901246,28.896489 L 44.885127,28.889812 L 44.869651,28.881756 L 44.854935,28.872381 L 44.841093,28.861759 L 44.828229,28.849972 L 44.816442,28.837108 L 44.80582,28.823266 L 44.796445,28.80855 L 44.788389,28.793074 L 44.781712,28.776955 L 44.776465,28.760314 L 44.772689,28.74328 L 44.770412,28.725982 L 44.76965,28.708551 L 44.770412,28.69112 L 44.772689,28.673822 L 44.776465,28.656788 L 44.781712,28.640147 L 44.788389,28.624028 L 44.796445,28.608551 L 44.80582,28.593836 L 44.816442,28.579994 L 44.828229,28.56713 L 44.841093,28.555343 L 44.854935,28.544721 L 44.86965,28.535346 L 44.885127,28.52729 L 44.901246,28.520613 L 44.917887,28.515366 L 44.934921,28.51159 L 44.952219,28.509313 L 44.96965,28.508551 L 44.987081,28.509313 L 45.004379,28.51159 L 45.021413,28.515366 L 45.038054,28.520613 L 45.054173,28.52729 L 45.06965,28.535346 L 45.084365,28.544721 L 45.098207,28.555343 L 45.111071,28.56713 L 45.122858,28.579994 L 45.13348,28.593836 L 45.142855,28.608551 L 45.150911,28.624028 L 45.157588,28.640147 L 45.162835,28.656788 L 45.166611,28.673822 L 45.168888,28.69112 L 45.16965,28.708551 L 45.168888,28.725982 L 45.166611,28.74328 L 45.162835,28.760314 z" /><path fill-rule="evenodd" fill="#66cc99" stroke="#555555" stroke-width="0.0" opacity="0.6" d="M 35.82165,26.676551 L 35.820698,26.654763 L 35.817851,26.633139 L 35.813131,26.611847 L 35.806573,26.591046 L 35.798226,26.570897 L 35.788156,26.551551 L 35.776438,26.533157 L 35.763161,26.515855 L 35.748426,26.499775 L 35.732346,26.48504 L 35.715044,26.471763 L 35.69665,26.460045 L 35.677304,26.449975 L 35.657155,26.441628 L 35.636354,26.43507 L 35.615062,26.43035 L 35.593438,26.427503 L 35.57165,26.426551 L 35.549862,26.427503 L 35.528238,26.43035 L 35.506946,26.43507 L 35.486145,26.441628 L 35.465996,26.449975 L 35.44665,26.460045 L 35.428256,26.471763 L 35.410954,26.48504 L 35.394874,26.499775 L 35.380139,26.515855 L 35.366862,26.533157 L 35.355144,26.551551 L 35.345074,26.570897 L 35.336727,26.591046 L 35.330169,26.611847 L 35.325449,26.633139 L 35.322602,26.654763 L 35.32165,26.676551 L 35.322602,26.698339 L 35.325449,26.719963 L 35.330169,26.741255 L 35.336727,26.762056 L 35.345074,26.782205 L 35.355144,26.80155 L 35.366862,26.819945 L 35.380139,26.837247 L 35.394874,26.853327 L 35.410954,26.868062 L 35.428256,26.881339 L 35.446651,26.893057 L 35.465996,26.903127 L 35.486145,26.911474 L 35.506946,26.918032 L 35.528238,26.922752 L 35.549862,26.925599 L 35.57165,26.926551 L 35.593438,26.925599 L 35.615062,26.922752 L 35.636354,26.918032 L 35.657155,26.911474 L 35.677304,26.903127 L 35.69665,26.893057 L 35.715044,26.881339 L 35.732346,26.868062 L 35.748426,26.853327 L 35.763161,26.837247 L 35.776438,26.819945 L 35.788156,26.80155 L 35.798226,26.782205 L 35.806573,26.762056 L 35.813131,26.741255 L 35.817851,26.719963 L 35.820698,26.698339 L 35.82165,26.676551 z M 35.768611,26.71128 L 35.764835,26.728314 L 35.759588,26.744955 L 35.752911,26.761074 L 35.744855,26.77655 L 35.73548,26.791266 L 35.724858,26.805108 L 35.713071,26.817972 L 35.700207,26.829759 L 35.686365,26.840381 L 35.67165,26.849756 L 35.656173,26.857812 L 35.640054,26.864489 L 35.623413,26.869736 L 35.606379,26.873512 L 35.589081,26.875789 L 35.57165,26.876551 L 35.554219,26.875789 L 35.536921,26.873512 L 35.519887,26.869736 L 35.503246,26.864489 L 35.487127,26.857812 L 35.471651,26.849756 L 35.456935,26.840381 L 35.443093,26.829759 L 35.430229,26.817972 L 35.418442,26.805108 L 35.40782,26.791266 L 35.398445,26.77655 L 35.390389,26.761074 L 35.383712,26.744955 L 35.378465,26.728314 L 35.374689,26.71128 L 35.372412,26.693982 L 35.37165,26.676551 L 35.372412,26.65912 L 35.374689,26.641822 L 35.378465,26.624788 L 35.383712,26.608147 L 35.390389,26.592028 L 35.398445,26.576551 L 35.40782,26.561836 L 35.418442,26.547994 L 35.430229,26.53513 L 35.443093,26.523343 L 35.456935,26.512721 L 35.47165,26.503346 L 35.487127,26.49529 L 35.503246,26.488613 L 35.519887,26.483366 L 35.536921,26.47959 L 35.554219,26.477313 L 35.57165,26.476551 L 35.589081,26.477313 L 35.606379,26.47959 L 35.623413,26.483366 L 35.640054,26.488613 L 35.656173,26.49529 L 35.67165,26.503346 L 35.686365,26.512721 L 35.700207,26.523343 L 35.713071,26.53513 L 35.724858,26.547994 L 35.73548,26.561836 L 35.744855,26.576551 L 35.752911,26.592028 L 35.759588,26.608147 L 35.764835,26.624788 L 35.768611,26.641822 L 35.770888,26.65912 L 35.77165,26.676551 L 35.770888,26.693982 L 35.768611,26.71128 z" /></g>
                    </g>
                    </svg>