<svg xmlns="http://www.w3.org/2000/svg" viewBox="0 0 43.434 40.132" width="43.434mm" height="40.132mm">
                    <g stroke-linecap="round">
                        <g><path fill-rule="evenodd" fill="#66cc99" stroke="#555555" stroke-width="0.0" opacity="0.6" d="M 10.715867685299798,26.781329805849015 L 10.582895504999994,26.648357625 L 10.422328939630733,26.487791059630737 L 10.422328939186425,26.487791059814782 L 10.715867685089961,26.781329805989234 L 10.715867685299798,26.781329805849015 z" /><path fill-rule="evenodd" fill="#66cc99" stroke="#555555" stroke-width="0.0" opacity="0.6" d="M 13.608130758186162,26.863668637457057 L 13.260483649828718,26.51602152922921 L 13.260483649138331,26.516021529138342 L 13.303229238999993,26.558767119000002 L 13.6081307578796,26.863668637584045 L 13.608130758186162,26.863668637457057 z" /><path fill-rule="evenodd" fill="#66cc99" stroke="#555555" stroke-width="0.0" opacity="0.6" d="M 16.133148307191284,17.59622121498567 L 16.052135217000007,17.677234305000006 L 15.312514803372949,18.41685471949382 L 15.312514803356558,18.416854719643442 L 16.133148307314634,17.596221215685354 L 16.133148307191284,17.59622121498567 z" /><path fill-rule="evenodd" fill="#66cc99" stroke="#555555" stroke-width="0.0" opacity="0.6" d="M 14.68619340854454,18.19012249345547 L 14.97931550687246,17.89700039512755 L 14.97931550687246,17.897000395127534 L 14.896127023000002,17.980188878999993 L 14.68619340854454,18.190122493455455 L 14.68619340854454,18.19012249345547 z" /><path fill-rule="evenodd" fill="#66cc99" stroke="#555555" stroke-width="0.0" opacity="0.6" d="M 14.821689630441501,18.341994467558504 L 14.915978643999994,18.247705453999995 L 14.821689630441501,18.34199446755849 L 14.821689630441501,18.341994467558504 z" /><path fill-rule="evenodd" fill="#66cc99" stroke="#555555" stroke-width="0.0" opacity="0.6" d="M 14.789331551296309,18.37435254670368 L 14.501773805121408,18.661910292878584 L 14.501773805121422,18.661910292878584 L 14.647241804000005,18.516442294 L 14.789331551296309,18.374352546703697 L 14.789331551296309,18.37435254670368 z" /><path fill-rule="evenodd" fill="#66cc99" stroke="#555555" stroke-width="0.0" opacity="0.6" d="M 14.067124310887664,18.243506166112333 L 13.727743725999996,18.582886751000004 L 13.727281111000002,18.581908634000005 L 13.727743725999996,18.582886752000004 L 14.029189716000005,18.281440761999995 L 14.067124312348128,18.243506165651873 L 14.067124310887664,18.243506166112333 z" /><path fill-rule="evenodd" fill="#66cc99" stroke="#555555" stroke-width="0.0" opacity="0.6" d="M 9.898208940369264,25.96367106036927 L 9.741537879999996,25.807 L 9.898208940326914,25.96367106047152 L 9.898208940369264,25.96367106036927 z" /><path fill-rule="evenodd" fill="#66cc99" stroke="#555555" stroke-width="0.0" opacity="0.6" d="M 13.07074905430381,26.32628693377505 L 12.570331362429618,25.82586924208741 L 12.570331362329394,25.82586924232939 L 12.875232880999997,26.130770761000008 L 12.980965478,26.236503357999997 L 13.070749054192081,26.326286934192076 L 13.07074905430381,26.32628693377505 z" /><path fill-rule="evenodd" fill="#66cc99" stroke="#555555" stroke-width="0.0" opacity="0.6" d="M 15.2574,18.471969522931353 L 15.198821356000007,18.530548166999996 L 15.2574,18.471969523000002 L 15.2574,18.471969522931353 z" /><path fill-rule="evenodd" fill="#66cc99" stroke="#555555" stroke-width="0.0" opacity="0.6" d="M 14.361296365178868,19.805612267178862 L 14.290411057999998,19.734726959999993 L 14.001105453999996,19.445421356000008 L 14.361296365178854,19.805612267178862 L 14.361296365178868,19.805612267178862 z" /><path fill-rule="evenodd" fill="#66cc99" stroke="#555555" stroke-width="0.0" opacity="0.6" d="M 12.091713065807923,25.347250945807918 L 12.181496574,25.437034453999996 L 12.286494465000004,25.542032345 L 12.482007388427853,25.737545268427848 L 12.482007388692617,25.737545268383325 L 12.091713065937101,25.347250945773318 L 12.091713065807923,25.347250945807918 z" /><path fill-rule="evenodd" fill="#66cc99" stroke="#555555" stroke-width="0.0" opacity="0.6" d="M 11.7328381655,25.55406147049999 L 12.003651753000007,25.824875058 L 11.898653862000003,25.719877165999993 L 11.732838165742145,25.55406147025785 L 11.7328381655,25.55406147049999 z" /><path fill-rule="evenodd" fill="#66cc99" stroke="#555555" stroke-width="0.0" opacity="0.6" d="M 11.718546298719927,25.539769603280067 L 11.577124942000001,25.398348246999994 L 11.718546298500002,25.539769603499995 L 11.718546298719927,25.539769603280067 z" /><path fill-rule="evenodd" fill="#66cc99" stroke="#555555" stroke-width="0.0" opacity="0.6" d="M 12.001389011065067,25.256926890934945 L 11.652360120000004,24.907898 L 11.778494465000003,25.034032345 L 11.859967655000002,25.115505534999997 L 12.001389011000008,25.256926891000003 L 12.001389011065067,25.256926890934945 z" /><path fill-rule="evenodd" fill="#66cc99" stroke="#555555" stroke-width="0.0" opacity="0.6" d="M 26.698424748973846,18.714944773026154 L 26.605881236000002,18.807488285999998 L 26.525018522000014,18.888351 L 26.525018523000004,18.888351 L 26.698424749195187,18.714944773590922 L 26.698424748973846,18.714944773026154 z" /><path fill-rule="evenodd" fill="#66cc99" stroke="#555555" stroke-width="0.0" opacity="0.6" d="M 6.1100129439908715,16.74281436100912 L 6.394087431539103,16.45873987346089 L 6.394087431188911,16.458739873004482 L 6.288978709000006,16.563848595 L 6.110012943586051,16.742814360567348 L 6.1100129439908715,16.74281436100912 z" /><path fill-rule="evenodd" fill="#66cc99" stroke="#555555" stroke-width="0.0" opacity="0.6" d="M 30.350756655999987,20.480078076000005 L 30.36311840799999,20.478996541999997 L 30.345740877000004,20.480516908000006 L 30.350756655999987,20.480078076000005 z" /><path fill-rule="evenodd" fill="#66cc99" stroke="#555555" stroke-width="0.0" opacity="0.6" d="M 25.05595916499999,20.305971899000003 L 25.04458032800001,20.304474104 L 25.07917732800001,20.309028104000003 L 25.05595916499999,20.305971899000003 z" /><path fill-rule="evenodd" fill="#66cc99" stroke="#555555" stroke-width="0.0" opacity="0.6" d="M 16.489668014999985,18.707549427 L 16.487559338999986,18.698038191 L 16.495112338999988,18.732106191 L 16.489668014999985,18.707549427 z" /><path fill-rule="evenodd" fill="#66cc99" stroke="#555555" stroke-width="0.0" opacity="0.6" d="M 8.177673878999993,17.304921385000004 L 8.146823758000002,17.303574092999995 L 8.216547758,17.306619092999995 L 8.177673878999993,17.304921385000004 z" /><path fill-rule="evenodd" fill="#66cc99" stroke="#555555" stroke-width="0.0" opacity="0.6" d="M 16.894810511000006,18.409354863999994 L 16.886941918999998,18.434311939999997 L 16.884685645999998,18.442732532000004 L 16.88694191499999,18.434311955 L 16.894810511000006,18.409354863999994 z" /><path fill-rule="evenodd" fill="#66cc99" stroke="#555555" stroke-width="0.0" opacity="0.6" d="M 15.734639018000006,20.527190453999996 L 15.673634897000015,20.529854636999996 L 15.664950268000007,20.530614458000006 L 15.673634898999989,20.529854636999996 L 15.734639018000006,20.527190453999996 z" /><path fill-rule="evenodd" fill="#66cc99" stroke="#555555" stroke-width="0.0" opacity="0.6" d="M 15.873590647000015,20.538584327999995 L 15.813049724999994,20.530614457000002 L 15.80436510100001,20.529854636999996 L 15.813049731999993,20.530614458000006 L 15.873590647000015,20.538584327999995 z" /><path fill-rule="evenodd" fill="#66cc99" stroke="#555555" stroke-width="0.0" opacity="0.6" d="M 16.30048167899999,20.757463350999995 L 16.25644760800001,20.717113405000003 L 16.30146765599999,20.758366835999997 L 16.30048167899999,20.757463350999995 z" /><path fill-rule="evenodd" fill="#66cc99" stroke="#555555" stroke-width="0.0" opacity="0.6" d="M 20.88096403,24.547279931999995 L 20.80442152953422,24.470737431534232 L 21.10230890460178,24.76862480660178 L 20.88096403,24.547279931999995 z" /><path fill-rule="evenodd" fill="#66cc99" stroke="#555555" stroke-width="0.0" opacity="0.6" d="M 15.80436510100001,22.124145363000004 L 15.813049724999994,22.123385542999998 L 15.873590647000015,22.115415672000005 L 15.813049731999993,22.123385541999994 L 15.80436510100001,22.124145363000004 z" /><path fill-rule="evenodd" fill="#66cc99" stroke="#555555" stroke-width="0.0" opacity="0.6" d="M 15.664950268000007,22.123385541999994 L 15.673634897000015,22.124145363000004 L 15.734639018000006,22.126809546000004 L 15.673634898999989,22.124145363000004 L 15.664950268000007,22.123385541999994 z" /><path fill-rule="evenodd" fill="#66cc99" stroke="#555555" stroke-width="0.0" opacity="0.6" d="M 8.257844393999994,23.344078120000006 L 8.254772229000002,23.334334178000002 L 8.275758229000003,23.400895178000003 L 8.257844393999994,23.344078120000006 z" /><path fill-rule="evenodd" fill="#66cc99" stroke="#555555" stroke-width="0.0" opacity="0.6" d="M 15.734838220999986,29.004283821999998 L 15.7544,28.978790338 L 15.724491740999996,29.017767657000004 L 15.734838220999986,29.004283821999998 z" /><path fill-rule="evenodd" fill="#66cc99" stroke="#555555" stroke-width="0.0" opacity="0.6" d="M 25.448759643000006,19.796868297000007 L 25.45203054100001,19.793597398000003 L 25.445866398000003,19.799761540999995 L 25.448759643000006,19.796868297000007 z" /><path fill-rule="evenodd" fill="#66cc99" stroke="#555555" stroke-width="0.0" opacity="0.6" d="M 30.385619597,20.878555898000002 L 30.384950268000008,20.878614458000005 L 30.393634898999988,20.877854636999995 L 30.385619597,20.878555898000002 z" /><path fill-rule="evenodd" fill="#66cc99" stroke="#555555" stroke-width="0.0" opacity="0.6" d="M 8.911352055000007,22.381441180000007 L 8.898232342999995,22.391508259000002 L 8.946677042999998,22.354335444999993 L 8.911352055000007,22.381441180000007 z" /><path fill-rule="evenodd" fill="#66cc99" stroke="#555555" stroke-width="0.0" opacity="0.6" d="M 27.432806280999987,30.250171107999996 L 27.48037564199999,30.2196 L 27.396312992000013,30.273624025000007 L 27.432806280999987,30.250171107999996 z" /><path fill-rule="evenodd" fill="#66cc99" stroke="#555555" stroke-width="0.0" opacity="0.6" d="M 29.19137094600001,30.350389527999997 L 29.174931342000008,30.363003813999995 L 29.202616342000006,30.341760813999997 L 29.19137094600001,30.350389527999997 z" /><path fill-rule="evenodd" fill="#66cc99" stroke="#555555" stroke-width="0.0" opacity="0.6" d="M 19.54082889500001,29.216881818000005 L 19.543278219000012,29.216701144999995 L 19.53837293000001,29.216881818000005 L 19.54082889500001,29.216881818000005 z" /><path fill-rule="evenodd" fill="#66cc99" stroke="#555555" stroke-width="0.0" opacity="0.6" d="M 28.94786960499999,30.033045714 L 28.955651902999996,30.027074272 L 28.934890849000006,30.043004452999995 L 28.94786960499999,30.033045714 z" /><path fill-rule="evenodd" fill="#66cc99" stroke="#555555" stroke-width="0.0" opacity="0.6" d="M 17.918250782000005,19.103003125 L 17.93425456400001,19.094672141000004 L 17.90330156400001,19.110785141 L 17.918250782000005,19.103003125 z" /><path fill-rule="evenodd" fill="#66cc99" stroke="#555555" stroke-width="0.0" opacity="0.6" d="M 17.918248435000002,20.520995384000003 L 17.90329786899999,20.513212415000005 L 17.934249868999988,20.529325415000006 L 17.918248435000002,20.520995384000003 z" /><path fill-rule="evenodd" fill="#66cc99" stroke="#555555" stroke-width="0.0" opacity="0.6" d="M 20.016896558,20.551951982999995 L 19.99787797400001,20.544074128000005 L 20.030116974000006,20.557428128000005 L 20.016896558,20.551951982999995 z" /><path fill-rule="evenodd" fill="#66cc99" stroke="#555555" stroke-width="0.0" opacity="0.6" d="M 23.76895335499999,18.084574439999997 L 23.762330178000003,18.092644805000006 L 23.774781458999993,18.077472875 L 23.76895335499999,18.084574439999997 z" /><path fill-rule="evenodd" fill="#66cc99" stroke="#555555" stroke-width="0.0" opacity="0.6" d="M 19.41299920199999,20.196644696999996 L 19.436645136000006,20.189189488999993 L 19.411688044999988,20.197058084999995 L 19.41299920199999,20.196644696999996 z" /><path fill-rule="evenodd" fill="#66cc99" stroke="#555555" stroke-width="0.0" opacity="0.6" d="M 19.237003201999993,20.206163707 L 19.238869219999998,20.206492723000004 L 19.230278933999987,20.204978084000007 L 19.237003201999993,20.206163707 z" /><path fill-rule="evenodd" fill="#66cc99" stroke="#555555" stroke-width="0.0" opacity="0.6" d="M 18.102951564999998,20.166192968999997 L 18.115081828999998,20.172507745000004 L 18.091871860000015,20.160425092999994 L 18.102951564999998,20.166192968999997 z" /><polyline fill="none" stroke="#66cc99" stroke-width="0.0" points="14.915978643999994,20.360294546000002 14.8574,20.30171590200001" opacity="0.8" /><polyline fill="none" stroke="#66cc99" stroke-width="0.0" points="20.29726256846577,23.96357847046578 20.220720067999988,23.88703597" opacity="0.8" /><polyline fill="none" stroke="#66cc99" stroke-width="0.0" points="15.588188879000008,17.288127023 15.505000394642948,17.371315507357046" opacity="0.8" /><polyline fill="none" stroke="#66cc99" stroke-width="0.0" points="14.607223874550357,18.269092027449652 14.312032428000004,18.564283474000007" opacity="0.8" /></g> 
                    </g>
                    </svg>