<svg xmlns="http://www.w3.org/2000/svg" viewBox="0 0 43.434 40.132" width="43.434mm" height="40.132mm">
                    <g stroke-linecap="round">
                        <g><path fill-rule="evenodd" fill="#66cc99" stroke="#555555" stroke-width="0.0" opacity="0.6" d="M 33.312570808,14.994299413000002 L 33.329419979,14.998814099000008 L 33.337893808999986,15.000887660999998 L 33.371961808999984,15.008440660999998 L 33.38052311199999,15.010143618 L 33.39771187099999,15.013174339 L 33.40633932800001,15.014502104000002 L 33.44093632800001,15.019056104000002 L 33.449605683,15.020005461999997 L 33.466977537,15.021525332000003 L 33.475680037000004,15.022095842999995 L 33.510542037,15.023618842999994 L 33.519271018999994,15.023809421000005 L 33.536728981,15.023809421000005 L 33.545457963,15.023618842999994 L 33.580319963,15.022095842999995 L 33.589022463,15.021525332000003 L 33.606394317,15.020005461999997 L 33.61506367199999,15.019056104000002 L 33.64966067199999,15.014502104000002 L 33.658288129000006,15.013174339 L 33.67547688800001,15.010143618 L 33.68403819100001,15.008440660999998 L 33.71810619100001,15.000887660999998 L 33.726580021,14.998814099000008 L 33.743429192,14.994299413000002 L 33.75180453400001,14.991858289000005 L 33.78508553400001,14.981365289000005 L 33.793350037,14.978559944999994 L 33.80974878299999,14.972591363999992 L 33.81788302599999,14.969428128000006 L 33.850122025999994,14.956074128000006 L 33.858108312999995,14.952560053000003 L 33.87392001800001,14.945186917999997 L 33.88174543599999,14.941327858999998 L 33.91269843599999,14.925214858999997 L 33.920351111,14.921016416999995 L 33.935465982,14.912289621999994 L 33.942928178,14.907761268000007 L 33.972358178,14.889011268000006 L 33.97961056600001,14.884165209999994 L 33.993897148,14.874161482999995 L 34.00093134200001,14.869003813999996 L 34.02861634200001,14.847760813999995 L 34.03542330000001,14.842297706 L 34.048792377999995,14.831079702000007 L 34.05535449700001,14.825324805999994 L 34.08108149700001,14.801749805999995 L 34.08738310499999,14.795717259000003 L 34.099717259,14.783383105000004 L 34.10574980599999,14.777081496999994 L 34.12932480599999,14.751354496999994 L 34.13507970199999,14.744792378000007 L 34.146297706,14.731423299999998 L 34.15097135299999,14.7256 L 34.51194595783177,14.7256 L 34.505429192,14.723700586999998 L 34.488580021,14.719185900999992 L 34.48010619100001,14.717112339000002 L 34.446038191000014,14.709559339000002 L 34.43747688800001,14.707856382 L 34.42028812900001,14.704825661 L 34.41166067199999,14.703497895999998 L 34.37706367199999,14.698943895999998 L 34.368394317,14.697994538000003 L 34.351022463,14.696474667999997 L 34.342319963,14.695904157000005 L 34.307457963,14.694381157000006 L 34.298728981000004,14.694190578999995 L 34.281271018999995,14.694190578999995 L 34.272542037,14.694381157000006 L 34.237680037,14.695904157000005 L 34.228977537,14.696474667999997 L 34.211605682999995,14.697994538000003 L 34.20293632800001,14.698943895999998 L 34.16833932800001,14.703497895999998 L 34.15971187099999,14.704825661 L 34.142523111999985,14.707856382 L 34.133961808999985,14.709559339000002 L 34.09989380899999,14.717112339000002 L 34.091419979,14.719185900999992 L 34.074570808,14.723700586999998 L 34.06619546599999,14.726141710999995 L 34.032914465999994,14.736634710999995 L 34.024649963,14.739440055000006 L 34.00825121700001,14.745408636000008 L 34.00011697400001,14.748571871999994 L 33.967877974000004,14.761925871999994 L 33.95989168700001,14.765439946999997 L 33.94407998199999,14.772813082000003 L 33.93625456400001,14.776672141000002 L 33.90530156400001,14.792785141000003 L 33.897648888999996,14.796983583000005 L 33.88253401800001,14.805710378000006 L 33.875071821999995,14.810238731999993 L 33.845641822,14.828988731999994 L 33.838389433999986,14.833834790000006 L 33.824102851999996,14.843838517000005 L 33.81706865799999,14.848996186000004 L 33.78938365799999,14.870239186000004 L 33.782576699999986,14.875702294 L 33.76920762200001,14.886920297999993 L 33.762645502999995,14.892675194000006 L 33.73691850299999,14.916250194000005 L 33.73061689500001,14.922282740999997 L 33.718282740999996,14.934616894999996 L 33.712250194000006,14.940918503000006 L 33.688675194000005,14.966645503000006 L 33.682920298000006,14.973207621999993 L 33.671702294,14.986576700000002 L 33.667028647000016,14.9924 L 33.30605404216823,14.9924 L 33.312570808,14.994299413000002 z" /><path fill-rule="evenodd" fill="#66cc99" stroke="#555555" stroke-width="0.0" opacity="0.6" d="M 35.95194963100001,16.645685604 L 35.95575465799999,16.654734650000005 L 35.963804143999994,16.672635136999993 L 35.972722268999995,16.690119092999996 L 35.98248754800001,16.707144397 L 35.99307645699999,16.723670034999998 L 36.00446348500002,16.739656193000005 L 36.01662120100001,16.75506436 L 36.029520315,16.769857416999997 L 36.043129752000006,16.783999725999998 L 36.053724090906414,16.79397897072248 L 36.05459136399999,16.791748783000006 L 36.060559944999994,16.775350037 L 36.063365289000004,16.767085533999996 L 36.07385828900001,16.733804533999994 L 36.07629941299999,16.725429192 L 36.08081409900001,16.708580021 L 36.082887661000015,16.700106191 L 36.09044066100002,16.666038191 L 36.092143618,16.657476887999998 L 36.09517433899999,16.640288128999995 L 36.096502104,16.631660672000006 L 36.101056104,16.597063672000004 L 36.102005462000015,16.588394317000002 L 36.10352533199999,16.571022463 L 36.104095842999996,16.562319963 L 36.105618842999995,16.527457963 L 36.105809421000004,16.518728981000006 L 36.105809421000004,16.501271018999994 L 36.105618842999995,16.492542037 L 36.104095842999996,16.457680037 L 36.10352533199999,16.448977537 L 36.102005462000015,16.431605682999997 L 36.101056104,16.422936327999995 L 36.096502104,16.388339327999994 L 36.09517433899999,16.37971187100001 L 36.092143618,16.362523112000005 L 36.09044066100002,16.353961809 L 36.082887661000015,16.319893809 L 36.08081409900001,16.311419979000004 L 36.07629941299999,16.294570808 L 36.07385828900001,16.286195466000006 L 36.063365289000004,16.252914466000007 L 36.060559944999994,16.244649963 L 36.05459136399999,16.228251216999993 L 36.05142812799999,16.220116974000007 L 36.03807412799999,16.187877974000006 L 36.034560053,16.179891687000005 L 36.02718691800001,16.164079981999993 L 36.023327859,16.156254563999994 L 36.007214858999994,16.125301563999997 L 36.003016417,16.117648888999998 L 35.99428962200001,16.102534018000007 L 35.98976126800001,16.095071821999998 L 35.971011268000005,16.065641821999996 L 35.96616521000001,16.058389434 L 35.95616148300001,16.044102851999998 L 35.95100381400001,16.037068658000006 L 35.92976081400001,16.009383658000008 L 35.924297706,16.002576700000002 L 35.91307970199999,15.989207621999993 L 35.90732480599999,15.982645503000006 L 35.883749806,15.956918503000006 L 35.877717259,15.950616894999996 L 35.86538310499999,15.938282740999997 L 35.859081497000005,15.932250194000005 L 35.83335449700001,15.908675194000006 L 35.82679237799999,15.902920297999993 L 35.81342330000001,15.891702294 L 35.806616342000005,15.886239186000005 L 35.77893134200001,15.864996186000004 L 35.771897148,15.859838517000005 L 35.75761056600002,15.849834790000006 L 35.750358178000006,15.844988731999994 L 35.720928178,15.826238731999993 L 35.713465981999995,15.821710378000006 L 35.698351111,15.812983583000005 L 35.69069843599999,15.808785141000003 L 35.65974543599999,15.792672141000002 L 35.651920018000006,15.788813082000003 L 35.636108312999994,15.781439946999997 L 35.62812202599999,15.777925871999994 L 35.60873082273072,15.76989367098701 L 35.95194963100001,16.645685604 z" /><path fill-rule="evenodd" fill="#66cc99" stroke="#555555" stroke-width="0.0" opacity="0.6" d="M 29.788376694999993,22.5224 L 29.68487593599999,22.625900759000004 L 29.729798051999985,22.580978643999995 L 29.788376695607365,22.5224 L 29.788376694999993,22.5224 z" /><path fill-rule="evenodd" fill="#66cc99" stroke="#555555" stroke-width="0.0" opacity="0.6" d="M 23.93,19.904189622924715 L 23.926320493999988,19.902065210999996 L 23.904249729000004,19.888004293999998 L 23.89710853999999,19.883003984 L 23.876348097000005,19.867074272 L 23.869666742000014,19.861467941 L 23.850374602,19.843789540999992 L 23.844210458999992,19.837625398 L 23.826532058999984,19.818333258000003 L 23.820925727999985,19.811651902999998 L 23.804996016000004,19.790891459999994 L 23.799995706,19.783750271 L 23.785934789000006,19.761679505999997 L 23.781574907000007,19.75412814 L 23.769492254999996,19.730918171000003 L 23.76580683199999,19.723014909999996 L 23.755793379999997,19.698840604 L 23.752810511000007,19.690645136000008 L 23.74494191499999,19.665688045000003 L 23.742685645999998,19.657267467999993 L 23.737021916000007,19.631721066 L 23.73550727700001,19.62313078 L 23.732092210999994,19.597186325000003 L 23.731332636999994,19.588504528999998 L 23.730190578999995,19.562362409999995 L 23.730190578999995,19.553637590000005 L 23.731332636999994,19.527495471 L 23.732092210999994,19.518813674999997 L 23.73550727700001,19.49286922 L 23.737021916000007,19.484278934 L 23.742685645999998,19.458732532000006 L 23.74494191499999,19.450311954999997 L 23.752810511000007,19.425354863999992 L 23.755793379999997,19.417159396 L 23.765807085999995,19.392984479000003 L 23.769491898000002,19.38508239 L 23.78157429699999,19.361872157000004 L 23.78593561500001,19.354318321999997 L 23.799996062999995,19.332249044 L 23.80499554699999,19.325109150999992 L 23.820925727999985,19.304348097000002 L 23.826532058999984,19.297666741999997 L 23.844210458999992,19.278374602 L 23.850374602,19.272210459000007 L 23.869666742000014,19.254532059 L 23.876348097000005,19.248925728 L 23.89710915099999,19.232995547000005 L 23.904249044,19.227996062999992 L 23.926318321999997,19.213935614999993 L 23.933872157000007,19.209574297000007 L 23.957082389999986,19.197491898000003 L 23.964984479,19.193807085999996 L 23.989159395999998,19.183793379999994 L 23.99735486399999,19.180810511000008 L 24.022311955000013,19.172941915000006 L 24.030732532000005,19.170685646 L 24.056278933999984,19.165021915999993 L 24.06486922,19.163507276999994 L 24.09081367500001,19.160092210999995 L 24.099495470999987,19.159332636999995 L 24.125637590000004,19.158190578999996 L 24.134362409999998,19.158190578999996 L 24.160504529000015,19.159332636999995 L 24.169186324999988,19.160092210999995 L 24.19513078,19.163507276999994 L 24.203721066000014,19.165021915999993 L 24.229267467999996,19.170685646 L 24.231587689999998,19.171307342999995 L 24.233445123325467,19.17171139915198 L 24.510684761000007,18.89447176100001 L 24.514112821999998,18.890958513999998 L 24.520881691000014,18.883848949 L 24.524222499000015,18.880252630999998 L 24.530918312000008,18.872864939999996 L 24.537330178000005,18.865431805000007 L 24.54978145899999,18.850259875 L 24.555820875,18.842521078999997 L 24.561760324999987,18.834512657000005 L 24.567412741,18.826486842999994 L 24.578316956999988,18.810167531000005 L 24.583568757,18.801874033000008 L 24.588694643999993,18.793322005999997 L 24.59353317500001,18.784780805000008 L 24.602785312000005,18.767471275000005 L 24.607198918000012,18.758702945999996 L 24.61146187799999,18.749689673999995 L 24.615439926,18.740715341999994 L 24.622950879999994,18.722582294 L 24.626483787,18.713423577999993 L 24.629842764,18.704035864999994 L 24.632922018000006,18.694714828999995 L 24.638619456,18.675932894999995 L 24.641237639,18.666471995000006 L 24.643660286000014,18.656800248999996 L 24.64581109099999,18.647222276999994 L 24.649640143000006,18.627972335999996 L 24.65131838800001,18.618300365999996 L 24.65278137200001,18.608437731000006 L 24.653983016,18.598695063999994 L 24.655906805000008,18.579162503999992 L 24.656628951000005,18.569372611000002 L 24.657118182000012,18.559414069999992 L 24.65729885499999,18.554508781000003 L 24.657539764,18.544695246000007 L 24.6576,18.539787 L 24.6576,18.32103047700001 L 24.215822499000012,18.762807978 L 24.208394317000003,18.761994538000003 L 24.191022463,18.760474667999997 L 24.182319963,18.759904157000005 L 24.147457963,18.758381157000006 L 24.138728981000007,18.758190578999997 L 24.121271018999995,18.758190578999997 L 24.112542037,18.758381157000006 L 24.079653138990075,18.7598179590099 L 23.588578643999995,19.250892453999995 L 23.57539790900001,19.265435154 L 23.56370607800001,19.281199764 L 23.55361574700001,19.298034463 L 23.545224092999995,19.315777123999997 L 23.538611933,19.334256875 L 23.533842944000007,19.353295746000008 L 23.530963055000008,19.372710381999998 L 23.53,19.39231381 L 23.53,20.08680023545012 L 23.552250194000006,20.111081496999994 L 23.558282740999996,20.117383105000005 L 23.57061689500001,20.129717259000003 L 23.57691850299999,20.135749805999993 L 23.60264550299999,20.159324805999994 L 23.60920762200001,20.165079702000007 L 23.62257669999999,20.176297706 L 23.62938365799999,20.181760813999997 L 23.657068657999993,20.203003813999995 L 23.664104113000004,20.208162365999996 L 23.678393291999996,20.218167747999995 L 23.685647016000004,20.223014577999994 L 23.715078016000003,20.241764577999994 L 23.722537801999987,20.246291385000006 L 23.737647729000003,20.255015303000004 L 23.745297868999987,20.259212415000007 L 23.776249868999987,20.275325415000008 L 23.784076435000003,20.279185136999995 L 23.799890488000006,20.286559493000002 L 23.807877974000007,20.290074128000008 L 23.840116974000008,20.303428128000007 L 23.84825121700001,20.306591363999992 L 23.864649962999998,20.312559944999993 L 23.87291446599999,20.315365289000006 L 23.90619546599999,20.325858289000003 L 23.914570807999997,20.328299413000003 L 23.93,20.332433619787604 L 23.93,19.904189622924715 z" /><path fill-rule="evenodd" fill="#66cc99" stroke="#555555" stroke-width="0.0" opacity="0.6" d="M 24.147457963,11.392381156999997 L 24.138728981000007,11.392190579000003 L 24.121271018999995,11.392190579000003 L 24.112542037,11.392381156999997 L 24.077680037,11.393904156999998 L 24.068977537000002,11.394474667999997 L 24.051605683,11.395994538000002 L 24.04293632800001,11.396943895999998 L 24.00833932800001,11.401497895999999 L 23.99971187099999,11.402825660999998 L 23.98252311199999,11.405856382 L 23.973961808999984,11.407559339000002 L 23.939893808999987,11.415112339000002 L 23.931419979,11.417185901 L 23.914570807999997,11.421700586999998 L 23.90619546599999,11.424141711000003 L 23.87291446599999,11.434634711000003 L 23.864649962999998,11.437440055 L 23.84825121700001,11.443408636000008 L 23.840116974000008,11.446571871999994 L 23.807877974000007,11.459925871999994 L 23.799891687000006,11.463439946999998 L 23.784079981999994,11.470813082000003 L 23.77625456400001,11.474672141000003 L 23.764371439554928,11.48085806107831 L 23.76249272299999,11.495130780000002 L 23.76097808399999,11.503721065999999 L 23.755314354000003,11.529267467999995 L 23.75305808500001,11.537688045000001 L 23.745189488999994,11.562645136000008 L 23.742206620000005,11.570840604000002 L 23.732193168000013,11.595014909999996 L 23.728507745000005,11.602918171000004 L 23.716425092999994,11.62612814 L 23.712065210999995,11.633679505999996 L 23.698004294,11.655750270999999 L 23.693003983999997,11.662891459999994 L 23.677074272000016,11.683651902999998 L 23.671467941000014,11.690333258 L 23.65378954100001,11.709625398000002 L 23.647625398000002,11.715789540999994 L 23.628333257999987,11.733467940999999 L 23.621651902999997,11.739074272 L 23.600890849000006,11.755004452999994 L 23.593750956,11.760003937000006 L 23.575135911000014,11.771863674999997 L 23.558777717999995,11.783478677000002 L 23.543665481999994,11.796674096 L 23.529951270999998,11.811317154 L 23.517773083000005,11.827260505999996 L 23.507253460999994,11.844343722000003 L 23.498498256999998,11.862394902999997 L 23.491595571999998,11.881232409999997 L 23.48661486199999,11.900666691 L 23.483606247000008,11.920502188999995 L 23.4826,11.940539310000002 L 23.4826,12.661663320513622 L 23.48499618599999,12.664931341999992 L 23.506239185999988,12.692616341999992 L 23.511702294,12.699423299999998 L 23.52292029800001,12.712792378000007 L 23.528675194000005,12.719354496999994 L 23.552250194000006,12.745081496999994 L 23.558282740999996,12.751383105000004 L 23.57061689500001,12.763717259000003 L 23.57691850299999,12.769749805999995 L 23.60264550299999,12.793324805999994 L 23.60920762200001,12.799079702000007 L 23.62257669999999,12.810297706 L 23.62938365799999,12.815760813999995 L 23.6544,12.834956123999998 L 23.6544,18.20296952205068 L 23.73568476100001,18.121684761000008 L 23.739112821999996,18.118171514 L 23.745881691000015,18.111061949 L 23.749222499000012,18.107465630999997 L 23.755918312000006,18.10007794 L 23.762330178000003,18.092644805000006 L 23.774781458999993,18.077472875 L 23.780820875,18.069734078999996 L 23.78676032499999,18.061725657000004 L 23.792412740999996,18.053699842999993 L 23.803316956999986,18.037380531000004 L 23.808568757,18.029087033000007 L 23.813694643999995,18.020535005999996 L 23.818533175000013,18.011993805000007 L 23.827785312000007,17.994684275000004 L 23.832198918000014,17.985915945999995 L 23.83646187799999,17.976902673999994 L 23.840439926,17.967928341999993 L 23.847950879999996,17.949795294 L 23.851483787,17.940636577999996 L 23.854842763999997,17.931248864999993 L 23.857922018000007,17.921927828999998 L 23.863619456,17.903145894999994 L 23.866237638999998,17.893684995000005 L 23.868660286000015,17.884013249 L 23.87081109099999,17.874435276999996 L 23.874640143000008,17.855185335999995 L 23.876318388000012,17.845513365999995 L 23.87778137200001,17.835650731000005 L 23.878983016000003,17.825908063999997 L 23.880906805000006,17.806375503999995 L 23.881628951000003,17.796585611 L 23.88211818200001,17.786627069999994 L 23.882298854999988,17.781721781 L 23.882539763999997,17.771908246000006 L 23.8826,17.767 L 23.8826,12.505871424654305 L 23.876348097000005,12.501074272 L 23.869666742000014,12.495467941 L 23.850374602,12.477789540999993 L 23.844210458999992,12.471625398000002 L 23.826532058999984,12.452333258000001 L 23.820925727999985,12.445651902999996 L 23.804996016000004,12.424891459999994 L 23.799995706,12.417750270999997 L 23.785934789000006,12.395679505999997 L 23.781574907000007,12.388128140000001 L 23.769492254999996,12.364918171000005 L 23.76580683199999,12.357014909999997 L 23.755793379999997,12.332840604000003 L 23.752810511000007,12.324645136000008 L 23.74494191499999,12.299688045000002 L 23.742685645999998,12.291267467999996 L 23.737021916000007,12.265721066 L 23.73550727700001,12.25713078 L 23.732092210999994,12.231186325000003 L 23.731332636999994,12.222504528999998 L 23.730190578999995,12.196362409999997 L 23.730190578999995,12.187637590000003 L 23.731332636999994,12.161495471 L 23.732092210999994,12.152813674999997 L 23.73550727700001,12.12686922 L 23.737021916000007,12.118278934000001 L 23.742685645999998,12.092732532000005 L 23.74494191499999,12.084311954999999 L 23.752810511000007,12.059354863999992 L 23.755793379999997,12.051159395999997 L 23.765807085999995,12.026984479000003 L 23.769491898000002,12.019082390000001 L 23.78157429699999,11.995872157000004 L 23.78593561500001,11.988318321999996 L 23.799996062999995,11.966249044 L 23.80499554699999,11.959109150999993 L 23.820925727999985,11.938348097000002 L 23.826532058999984,11.931666741999999 L 23.844210458999992,11.912374601999998 L 23.850374602,11.906210459000006 L 23.869666742000014,11.888532059000001 L 23.876348097000005,11.882925728 L 23.89710915099999,11.866995547000005 L 23.904249044,11.861996062999994 L 23.926318321999997,11.847935614999995 L 23.933872157000007,11.843574297000005 L 23.957082389999986,11.831491898000001 L 23.964984479,11.827807085999995 L 23.989159395999998,11.817793379999996 L 23.99735486399999,11.814810511000008 L 24.022311955000013,11.806941915000007 L 24.030732532000005,11.804685645999998 L 24.056278933999984,11.799021915999994 L 24.06486922,11.797507276999996 L 24.07914172449753,11.795628588669702 L 24.085325414999993,11.783750130999998 L 24.089185136999994,11.775923564999998 L 24.096559493,11.760109511999994 L 24.100074127999992,11.752122025999993 L 24.113428127999992,11.719883025999993 L 24.116591363999994,11.711748783000008 L 24.122559944999992,11.695350037 L 24.125365289000005,11.687085533999994 L 24.135858289000005,11.653804533999994 L 24.138299412999988,11.645429192000002 L 24.142814099000006,11.628580020999998 L 24.144887661000013,11.620106191 L 24.152440661000014,11.586038191 L 24.154143618,11.577476887999996 L 24.157174338999987,11.560288128999993 L 24.158502104000004,11.551660672000006 L 24.163056104000002,11.517063672000006 L 24.164005462000013,11.508394317000002 L 24.165525331999987,11.491022463 L 24.166095842999994,11.482319963 L 24.167618842999996,11.447457963 L 24.167809421000005,11.438728980999999 L 24.167809421000005,11.421271019 L 24.167618842999996,11.412542037 L 24.166774950730115,11.393225049269892 L 24.147457963,11.392381156999997 z" /><path fill-rule="evenodd" fill="#66cc99" stroke="#555555" stroke-width="0.0" opacity="0.6" d="M 34.76519565002176,17.099 L 34.77864550299999,17.111324805999995 L 34.78520762200001,17.11707970200001 L 34.79857669999999,17.128297706 L 34.80538365799999,17.133760813999995 L 34.833068657999995,17.155003813999997 L 34.840104113,17.160162365999998 L 34.854393292,17.170167747999997 L 34.861647016,17.175014577999995 L 34.891078016,17.193764577999993 L 34.898537801999986,17.198291385000005 L 34.913647729000004,17.207015303000002 L 34.921297868999986,17.211212415000006 L 34.952249868999985,17.227325415000006 L 34.960076435000005,17.231185136999994 L 34.975890488000005,17.238559493 L 34.98387797400001,17.242074128000006 L 35.016116974000006,17.255428128000005 L 35.02425121700001,17.258591363999994 L 35.040649963,17.26455994499999 L 35.04891446599999,17.267365289000004 L 35.08219546599999,17.277858289000005 L 35.090570807999995,17.280299413 L 35.107419979,17.284814099000005 L 35.115893808999985,17.286887660999998 L 35.14996180899998,17.294440661 L 35.15852311199999,17.296143618000002 L 35.17571187099999,17.299174339 L 35.18433932800001,17.300502104000003 L 35.21893632800001,17.305056104000002 L 35.227605683,17.306005461999998 L 35.244977537000004,17.307525332 L 35.253680037,17.308095842999993 L 35.288542037,17.309618842999996 L 35.29727101899999,17.309809421000004 L 35.31472898100001,17.309809421000004 L 35.323457963,17.309618842999996 L 35.358319963,17.308095842999993 L 35.367022463,17.307525332 L 35.384394317,17.306005461999998 L 35.39306367199999,17.305056104000002 L 35.42766067199999,17.300502104000003 L 35.436288129000005,17.299174339 L 35.45347688800001,17.296143618000002 L 35.46203819100001,17.294440661 L 35.49610619100002,17.286887660999998 L 35.504580020999995,17.284814099000005 L 35.521429192,17.280299413 L 35.52980453400001,17.277858289000005 L 35.56308553400001,17.267365289000004 L 35.571350037,17.26455994499999 L 35.587748782999995,17.258591363999994 L 35.595883025999996,17.255428128000005 L 35.62812202599999,17.242074128000006 L 35.636108312999994,17.238560053000004 L 35.651920018000006,17.231186918 L 35.65974543599999,17.227327859 L 35.69069843599999,17.211214859 L 35.698351111,17.207016416999995 L 35.713465981999995,17.198289621999994 L 35.720928178,17.193761268000006 L 35.750358178000006,17.175011268000006 L 35.75761056600002,17.170165209999993 L 35.771897148,17.160161482999996 L 35.77893134200001,17.155003813999997 L 35.806616342000005,17.133760813999995 L 35.81342330000001,17.128297706 L 35.82679237799999,17.11707970200001 L 35.83335449700001,17.111324805999995 L 35.846804349978235,17.099 L 34.76519565002176,17.099 z" /><path fill-rule="evenodd" fill="#66cc99" stroke="#555555" stroke-width="0.0" opacity="0.6" d="M 28.1876,18.33740678180392 L 28.168374601999997,18.319789540999995 L 28.16221045899999,18.313625398000003 L 28.144532058999985,18.294333258 L 28.138925727999986,18.287651902999997 L 28.122996016000002,18.266891459999993 L 28.117995706,18.259750270999998 L 28.103934789000004,18.237679505999996 L 28.099574907000004,18.23012814 L 28.087492254999994,18.206918171000005 L 28.083806831999986,18.199014909999995 L 28.073793379999994,18.174840604000003 L 28.07081051100001,18.166645136000007 L 28.062941914999993,18.141688045000002 L 28.060685646,18.133267467999996 L 28.05502191600001,18.107721066 L 28.05350727700001,18.09913078 L 28.050092210999996,18.073186325 L 28.049332636999996,18.064504529 L 28.048190578999996,18.038362409999998 L 28.048190578999996,18.029637590000004 L 28.049332636999996,18.003495471 L 28.050092210999996,17.994813674999996 L 28.05350727700001,17.96886922 L 28.05502191600001,17.960278934 L 28.060685646,17.934732532000005 L 28.062941914999993,17.926311955 L 28.07081051100001,17.90135486399999 L 28.073793379999994,17.893159395999998 L 28.083807085999997,17.868984479 L 28.087491898000003,17.86108239 L 28.09957429699999,17.837872157000007 L 28.103935615000008,17.830318321999997 L 28.117996062999993,17.808249044 L 28.12299554699999,17.80110915099999 L 28.138925727999986,17.780348097000005 L 28.144532058999985,17.773666742 L 28.16221045899999,17.754374602 L 28.168374601999997,17.748210459000006 L 28.1876,17.73059321819608 L 28.1876,16.862189622924717 L 28.183920493999988,16.860065210999995 L 28.161849729000004,16.846004294 L 28.15470853999999,16.841003983999997 L 28.133948097,16.825074272 L 28.127266742000014,16.819467941 L 28.107974602,16.801789540999994 L 28.101810458999992,16.795625398000002 L 28.084132058999984,16.776333258 L 28.078525727999985,16.769651902999996 L 28.062596016000004,16.748891459999992 L 28.057595706,16.741750270999997 L 28.043534789000006,16.719679506 L 28.039174907000007,16.71212814 L 28.027092254999996,16.688918171000005 L 28.02340683199999,16.681014909999995 L 28.013393379999997,16.656840604000003 L 28.010410511000007,16.648645136000006 L 28.00254191499999,16.623688045 L 28.000285646,16.615267467999995 L 27.994621916000007,16.589721066 L 27.99310727700001,16.581130780000002 L 27.989692210999994,16.555186325000005 L 27.988932636999994,16.546504529 L 27.987790578999995,16.520362409999997 L 27.987790578999995,16.511637590000003 L 27.988932636999994,16.485495471 L 27.989692210999994,16.476813674999995 L 27.99310727700001,16.450869219999998 L 27.994621916000007,16.442278934 L 28.000285646,16.416732532000005 L 28.00254191499999,16.408311955 L 28.010410511000007,16.383354863999994 L 28.013393379999997,16.375159395999997 L 28.023407085999995,16.350984479 L 28.027091898000002,16.34308239 L 28.03917429699999,16.319872157000006 L 28.04353561500001,16.312318321999996 L 28.057596062999995,16.290249044 L 28.06259554699999,16.283109150999994 L 28.078525727999985,16.262348097000004 L 28.084132058999984,16.255666742 L 28.098672022000013,16.23979952599999 L 28.10585121700001,16.242591363999992 L 28.122249962999998,16.248559944999993 L 28.13051446599999,16.251365289000006 L 28.16379546599999,16.261858289000006 L 28.172170807999997,16.264299413000003 L 28.1876,16.268433619787604 L 28.1876,15.741566380212396 L 28.172170807999997,15.745700586999998 L 28.16379546599999,15.748141710999995 L 28.13051446599999,15.758634710999996 L 28.122249962999998,15.761440055000007 L 28.10585121700001,15.767408636000008 L 28.098672022000013,15.770200474000006 L 28.084132058999984,15.754333258 L 28.078525727999985,15.747651902999998 L 28.062596016000004,15.726891459999994 L 28.057595706,15.719750270999997 L 28.043534789000006,15.697679505999997 L 28.039174907000007,15.69012814 L 28.027092254999996,15.666918171000004 L 28.02340683199999,15.659014909999996 L 28.013393379999997,15.634840604000003 L 28.010410511000007,15.626645136000008 L 28.00254191499999,15.601688045000001 L 28.000285646,15.593267467999995 L 27.994621916000007,15.567721065999999 L 27.99310727700001,15.559130780000002 L 27.989692210999994,15.533186325000003 L 27.988932636999994,15.524504529 L 27.987790578999995,15.498362409999997 L 27.987790578999995,15.489637590000003 L 27.988932636999994,15.463495471000002 L 27.989692210999994,15.454813674999997 L 27.99310727700001,15.42886922 L 27.994621916000007,15.420278934 L 28.000285646,15.394732532000006 L 28.00254191499999,15.386311954999998 L 28.010410511000007,15.361354863999992 L 28.013393379999997,15.353159395999997 L 28.023407085999995,15.328984479000002 L 28.027091898000002,15.32108239 L 28.03917429699999,15.297872157000006 L 28.04353561500001,15.290318321999997 L 28.057596062999995,15.268249044 L 28.06259554699999,15.261109150999992 L 28.078525727999985,15.240348097000004 L 28.084132058999984,15.233666741999999 L 28.101810458999992,15.214374601999998 L 28.107974602,15.208210459000007 L 28.127266742000014,15.190532059 L 28.133948097,15.184925728 L 28.15470915099999,15.168995547000005 L 28.161849044,15.163996062999994 L 28.183918321999997,15.149935614999995 L 28.1876,15.147809943929404 L 28.1876,15.100971353 L 28.193423300000013,15.096297706 L 28.206792377999992,15.085079702000007 L 28.213354497000008,15.079324805999994 L 28.239081497000008,15.055749805999994 L 28.245383104999988,15.049717259000003 L 28.257717259000003,15.037383105000004 L 28.263749805999993,15.031081496999994 L 28.287324805999994,15.005354496999994 L 28.293079701999993,14.998792378000006 L 28.304297706,14.985423299999997 L 28.30976081400001,14.978616341999993 L 28.33100381400001,14.950931341999993 L 28.336162365999996,14.943895886999995 L 28.346167747999996,14.929606708000005 L 28.351014578000008,14.922352983999998 L 28.36976457800001,14.892921983999997 L 28.37429138499999,14.885462197999999 L 28.383015303000004,14.870352270999998 L 28.387212414999993,14.862702130999997 L 28.40332541499999,14.831750130999998 L 28.407185136999995,14.823923564999998 L 28.414559493000002,14.808109511999994 L 28.41807412799999,14.800122025999993 L 28.43142812799999,14.767883025999993 L 28.434591363999992,14.759748783000008 L 28.440559944999993,14.743350037 L 28.443365289000006,14.735085533999994 L 28.453858289000003,14.701804533999994 L 28.455242936593653,14.697053895709425 L 28.448622463,14.696474667999997 L 28.439919963,14.695904157000005 L 28.405057963,14.694381157000006 L 28.396328981000007,14.694190578999995 L 28.378871018999995,14.694190578999995 L 28.370142037,14.694381157000006 L 28.335280037,14.695904157000005 L 28.326577537000002,14.696474667999997 L 28.309205683,14.697994538000003 L 28.30053632800001,14.698943895999998 L 28.26593932800001,14.703497895999998 L 28.25731187099999,14.704825661 L 28.24012311199999,14.707856382 L 28.231561808999984,14.709559339000002 L 28.197493808999987,14.717112339000002 L 28.189019979,14.719185900999992 L 28.172170807999997,14.723700586999998 L 28.16379546599999,14.726141710999995 L 28.13051446599999,14.736634710999995 L 28.122249962999998,14.739440055000006 L 28.10585121700001,14.745408636000008 L 28.097716974000008,14.748571871999994 L 28.065477974000007,14.761925871999994 L 28.057491687000006,14.765439946999997 L 28.041679981999994,14.772813082000003 L 28.03385456400001,14.776672141000002 L 28.00290156400001,14.792785141000003 L 27.995248889,14.796983583000005 L 27.980134018000008,14.805710378000006 L 27.972671821999995,14.810238731999993 L 27.943241821999997,14.828988731999994 L 27.935989433999985,14.833834790000006 L 27.921702852,14.843838517000005 L 27.914668657999993,14.848996186000004 L 27.88698365799999,14.870239186000004 L 27.88017669999999,14.875702294 L 27.86680762200001,14.886920297999993 L 27.86024550299999,14.892675194000006 L 27.83451850299999,14.916250194000005 L 27.82821689500001,14.922282740999997 L 27.815882740999996,14.934616894999996 L 27.809850194000006,14.940918503000006 L 27.79076497012651,14.961745886015624 L 27.788505597000004,14.977460341999993 L 27.7876,14.996471353 L 27.7876,17.04480023545012 L 27.809850194000006,17.069081496999996 L 27.815882740999996,17.075383105000004 L 27.82821689500001,17.087717259000005 L 27.83451850299999,17.093749805999995 L 27.86024550299999,17.117324805999996 L 27.86680762200001,17.123079702000005 L 27.88017669999999,17.134297706 L 27.88698365799999,17.139760813999995 L 27.914668657999993,17.161003813999997 L 27.921704113000004,17.166162366 L 27.935993291999996,17.176167747999997 L 27.943247016000004,17.181014577999996 L 27.972678016000003,17.199764577999993 L 27.980137801999987,17.204291385000005 L 27.995247729000003,17.213015303000002 L 28.002897868999987,17.217212415000006 L 28.033849868999987,17.233325415000007 L 28.041676435000003,17.237185136999994 L 28.057490488000006,17.244559493 L 28.065477974000007,17.248074128000006 L 28.097716974000008,17.261428128000006 L 28.10585121700001,17.264591363999994 L 28.122249962999998,17.27055994499999 L 28.13051446599999,17.273365289000004 L 28.16379546599999,17.283858289000005 L 28.167524546999992,17.284945187999995 L 28.166251217000006,17.285408636000007 L 28.158116974000006,17.288571871999995 L 28.12587797400001,17.301925871999995 L 28.117891687000007,17.305439946999996 L 28.102079981999992,17.312813082 L 28.09425456400001,17.316672141 L 28.06330156400001,17.332785141000002 L 28.055648888999997,17.336983583000006 L 28.040534018000006,17.345710378000007 L 28.033071821999997,17.350238731999994 L 28.003641821999995,17.368988731999995 L 27.996389433999987,17.373834790000007 L 27.982102851999997,17.383838517000004 L 27.97506865799999,17.388996186000004 L 27.947383657999993,17.410239186000005 L 27.940576699999987,17.415702294 L 27.927207622000008,17.42692029799999 L 27.920645502999992,17.432675194000005 L 27.894918502999992,17.456250194000006 L 27.88861689500001,17.462282740999996 L 27.876282740999997,17.474616894999997 L 27.870250194000004,17.480918503000005 L 27.846675194000007,17.506645503000005 L 27.840920298000007,17.513207621999992 L 27.829702294,17.526576700000003 L 27.82423918599999,17.53338365800001 L 27.80299618599999,17.561068658000007 L 27.797838516999988,17.568102852 L 27.78783478999999,17.582389434 L 27.7876,17.582740809938638 L 27.7876,18.48525912165873 L 27.787832252000005,18.485606708000006 L 27.797837634000004,18.499895886999994 L 27.80299618599999,18.506931341999994 L 27.82423918599999,18.534616341999993 L 27.829702294,18.541423299999998 L 27.840920298000007,18.554792378000005 L 27.846675194000007,18.561354496999993 L 27.870250194000004,18.587081496999993 L 27.876282740999997,18.593383105000004 L 27.88861689500001,18.605717259000002 L 27.894918502999992,18.611749805999995 L 27.920645502999992,18.635324805999993 L 27.927207622000008,18.641079702000006 L 27.940576699999987,18.652297706 L 27.947383657999993,18.657760813999996 L 27.97506865799999,18.679003813999994 L 27.982104113000005,18.684162365999995 L 27.996393291999997,18.694167747999995 L 28.003647016000002,18.699014577999993 L 28.033078016,18.717764577999993 L 28.040537801999985,18.722291385000005 L 28.055647729000004,18.731015303000003 L 28.06329786899999,18.735212415000007 L 28.094249868999988,18.751325415000007 L 28.102076435,18.755185136999994 L 28.117890488000004,18.762559493 L 28.12587797400001,18.766074128000007 L 28.158116974000006,18.779428128000006 L 28.166251217000006,18.78259136399999 L 28.182649963,18.788559944999992 L 28.1876,18.7902402101772 L 28.1876,18.33740678180392 z" /><path fill-rule="evenodd" fill="#66cc99" stroke="#555555" stroke-width="0.0" opacity="0.6" d="M 28.07069843599999,13.776785141000003 L 28.03974543599999,13.760672141000002 L 28.031920018000008,13.756813082000003 L 28.016108312999993,13.749439946999997 L 28.00812202599999,13.745925871999994 L 27.975883025999995,13.732571871999994 L 27.967748782999994,13.729408636000008 L 27.951350037,13.723440055000006 L 27.94308553400001,13.720634710999995 L 27.90980453400001,13.710141710999995 L 27.901429192000002,13.707700586999998 L 27.884580020999998,13.703185900999992 L 27.876106191000016,13.701112339000002 L 27.842038191000015,13.693559339000002 L 27.83347688800001,13.691856382 L 27.816288129000007,13.688825661 L 27.80766067199999,13.687497895999998 L 27.773063671999992,13.682943895999998 L 27.764394317,13.681994538000003 L 27.747022463,13.680474667999997 L 27.738319963,13.679904157000005 L 27.703457962999998,13.678381157000006 L 27.694728981000008,13.678190578999995 L 27.677271018999996,13.678190578999995 L 27.668542037,13.678381157000006 L 27.633680037,13.679904157000005 L 27.624977537,13.680474667999997 L 27.60988935973081,13.681794738269195 L 27.141178643999993,14.150505453999996 L 27.12799790900001,14.165048153999999 L 27.116306078000008,14.180812763999999 L 27.106215747000007,14.197647463 L 27.097824092999996,14.215390123999997 L 27.091211932999997,14.233869875 L 27.086442944000005,14.252908746000006 L 27.083563055000006,14.272323382 L 27.0826,14.291926810000003 L 27.0826,15.002988221401601 L 27.084675194000006,15.005354496999994 L 27.108250194000007,15.031081496999994 L 27.114282740999997,15.037383105000004 L 27.126616895000012,15.049717259000003 L 27.132918502999992,15.055749805999994 L 27.158645502999992,15.079324805999994 L 27.165207622000008,15.085079702000007 L 27.178576699999986,15.096297706 L 27.1844,15.100971353 L 27.1844,18.228969522186638 L 27.335684761000007,18.077684761000008 L 27.339112821999997,18.074171514 L 27.345881691000013,18.067061949 L 27.349222499000014,18.063465630999996 L 27.355918312000007,18.056077939999998 L 27.362330178000004,18.048644805000006 L 27.37478145899999,18.033472875 L 27.380820875,18.025734078999996 L 27.386760324999987,18.017725657000007 L 27.392412740999998,18.009699842999996 L 27.403316956999987,17.993380531000003 L 27.408568756999998,17.985087033000006 L 27.413694643999992,17.976535006 L 27.41853317500001,17.967993805000006 L 27.427785312000008,17.950684275000008 L 27.43219891800001,17.941915945999995 L 27.436461877999992,17.932902673999994 L 27.440439926,17.923928341999993 L 27.447950879999997,17.905795294 L 27.451483787,17.896636577999995 L 27.454842764,17.887248864999993 L 27.457922018000005,17.877927828999997 L 27.463619456,17.859145894999997 L 27.466237639,17.849684995000004 L 27.468660286000013,17.840013249 L 27.47081109099999,17.830435276999996 L 27.474640143000006,17.811185335999994 L 27.47631838800001,17.801513366 L 27.47778137200001,17.791650731000008 L 27.478983016000004,17.781908063999996 L 27.480906805000007,17.762375503999994 L 27.481628951000005,17.752585611 L 27.48211818200001,17.742627069999994 L 27.48229885499999,17.737721781000005 L 27.482539764,17.727908246000005 L 27.4826,17.723 L 27.4826,14.822226587449014 L 27.48232049399999,14.822065210999995 L 27.460249729,14.808004294 L 27.45310853999999,14.803003983999997 L 27.432348097000002,14.787074272 L 27.425666742000015,14.781467940999999 L 27.406374602,14.763789540999994 L 27.400210458999993,14.757625398000002 L 27.382532058999985,14.738333258 L 27.376925727999986,14.731651902999998 L 27.360996016,14.710891459999994 L 27.355995706,14.703750270999997 L 27.341934789000003,14.681679505999996 L 27.337574907000004,14.67412814 L 27.325492254999997,14.650918171000004 L 27.321806831999986,14.643014909999996 L 27.311793379999994,14.618840604000003 L 27.308810511000008,14.610645136000008 L 27.300941914999992,14.585688045000001 L 27.298685646,14.577267467999995 L 27.293021916000008,14.551721065999999 L 27.29150727700001,14.543130780000002 L 27.288092210999995,14.517186325000003 L 27.287332636999995,14.508504529 L 27.286190578999996,14.482362409999997 L 27.286190578999996,14.473637590000003 L 27.287332636999995,14.447495471000002 L 27.288092210999995,14.438813674999997 L 27.29150727700001,14.41286922 L 27.293021916000008,14.404278934 L 27.298685646,14.378732532000006 L 27.300941914999992,14.370311954999998 L 27.308810511000008,14.345354863999992 L 27.311793379999994,14.337159395999997 L 27.321807085999996,14.312984479000002 L 27.325491898000003,14.30508239 L 27.337574296999993,14.281872157000006 L 27.34193561500001,14.274318321999997 L 27.355996062999992,14.252249044 L 27.36099554699999,14.245109150999992 L 27.376925727999986,14.224348097000004 L 27.382532058999985,14.217666741999999 L 27.400210458999993,14.198374601999998 L 27.406374602,14.192210459000007 L 27.425666742000015,14.174532059 L 27.432348097000002,14.168925728 L 27.453109150999992,14.152995547000005 L 27.460249044,14.147996062999994 L 27.482318321999998,14.133935614999995 L 27.489872157000004,14.129574297000007 L 27.513082389999987,14.117491898000003 L 27.520984479000003,14.113807085999996 L 27.545159396,14.103793379999995 L 27.553354863999992,14.100810511000008 L 27.578311955000014,14.092941915000006 L 27.586732532000006,14.090685645999997 L 27.612278933999985,14.085021915999993 L 27.62086922,14.083507276999995 L 27.64681367500001,14.080092210999995 L 27.655495470999988,14.079332636999995 L 27.681637590000005,14.078190578999996 L 27.690362409999995,14.078190578999996 L 27.716504529000016,14.079332636999995 L 27.72518632499999,14.080092210999995 L 27.75113078,14.083507276999995 L 27.759721066000015,14.085021915999993 L 27.77005625754151,14.087313265458494 L 28.077082132305204,13.780287390694797 L 28.07069843599999,13.776785141000003 z" /><path fill-rule="evenodd" fill="#66cc99" stroke="#555555" stroke-width="0.0" opacity="0.6" d="M 26.614580021,18.783185900999992 L 26.606106191000016,18.781112339 L 26.572038191000015,18.773559339000002 L 26.56347688800001,18.771856382 L 26.546288129000008,18.768825660999997 L 26.53766067199999,18.767497896 L 26.503063671999993,18.762943896 L 26.494394317,18.761994538000003 L 26.477022463,18.760474667999997 L 26.468319963,18.759904157000005 L 26.433457963,18.758381157000006 L 26.424728981000005,18.758190578999997 L 26.407271018999992,18.758190578999997 L 26.398542037000002,18.758381157000006 L 26.363680037,18.759904157000005 L 26.354977537,18.760474667999997 L 26.337605683,18.761994538000003 L 26.328936328000008,18.762943896 L 26.29433932800001,18.767497896 L 26.285711870999993,18.768825660999997 L 26.26852311199999,18.771856382 L 26.259961808999986,18.773559339000002 L 26.225893808999984,18.781112339 L 26.217419979000002,18.783185900999992 L 26.200570808,18.787700586999996 L 26.19219546599999,18.790141710999997 L 26.15891446599999,18.800634710999997 L 26.150649963,18.803440055000006 L 26.134251217000006,18.809408636000008 L 26.126116974000006,18.812571871999992 L 26.09387797400001,18.825925871999996 L 26.085891687000007,18.829439946999997 L 26.070079981999992,18.836813082000003 L 26.06225456400001,18.840672141000002 L 26.03130156400001,18.856785141000003 L 26.023648888999997,18.860983583000003 L 26.008534018000006,18.869710378000008 L 26.001071821999997,18.874238731999995 L 25.97591572608584,18.89026580635917 L 25.983133037,18.889554963 L 26.002736465000005,18.888591908999995 L 26.01255,18.888351 L 26.04307728299999,18.888351 L 26.525018523000004,18.888351 L 26.626886213619976,18.786483309254365 L 26.614580021,18.783185900999992 z" /><path fill-rule="evenodd" fill="#66cc99" stroke="#555555" stroke-width="0.0" opacity="0.6" d="M 26.106925727999986,19.304348097000002 L 26.112532058999985,19.297666741999997 L 26.121068562123686,19.288351 L 26.04307728299999,19.288351 L 26.017459724000005,19.288351 L 26.012779905000002,19.288580905 L 26.01255,19.293260724000007 L 26.01255,19.400819523000003 L 26.1000150001747,19.313354522825314 L 26.106925727999986,19.304348097000002 z" /><path fill-rule="evenodd" fill="#66cc99" stroke="#555555" stroke-width="0.0" opacity="0.6" d="M 15.184368520999998,20.263736805000008 L 15.176885935875102,20.26822169354351 L 15.185355806009143,20.263269853949307 L 15.184368520999998,20.263736805000008 z" /><path fill-rule="evenodd" fill="#66cc99" stroke="#555555" stroke-width="0.0" opacity="0.6" d="M 15.167533820999996,20.273827135000005 L 15.160526838445023,20.279023867609293 L 15.168470594298109,20.273265654741184 L 15.167533820999996,20.273827135000005 z" /><path fill-rule="evenodd" fill="#66cc99" stroke="#555555" stroke-width="0.0" opacity="0.6" d="M 15.151769210999996,20.285518966999994 L 15.145305372190073,20.291377448975904 L 15.152646433238433,20.284868374626413 L 15.151769210999996,20.285518966999994 z" /><path fill-rule="evenodd" fill="#66cc99" stroke="#555555" stroke-width="0.0" opacity="0.6" d="M 15.137226511999994,20.298699701000004 L 15.13136802311641,20.305163547385455 L 15.138035738232926,20.297966261098505 L 15.137226511999994,20.298699701000004 z" /><path fill-rule="evenodd" fill="#66cc99" stroke="#555555" stroke-width="0.0" opacity="0.6" d="M 15.124045776999996,20.313242400999993 L 15.118849053422435,20.32024937197639 L 15.124779220969126,20.312433170284866 L 15.124045776999996,20.313242400999993 z" /><path fill-rule="evenodd" fill="#66cc99" stroke="#555555" stroke-width="0.0" opacity="0.6" d="M 15.112353945999995,20.32900701100001 L 15.107869041621209,20.336489621358453 L 15.113004538906575,20.328129787967875 L 15.112353945999995,20.32900701100001 z" /><path fill-rule="evenodd" fill="#66cc99" stroke="#555555" stroke-width="0.0" opacity="0.6" d="M 15.102263614999995,20.345841709999995 L 15.098533744337782,20.353727859574274 L 15.102825095361263,20.344904936679438 L 15.102263614999995,20.345841709999995 z" /><path fill-rule="evenodd" fill="#66cc99" stroke="#555555" stroke-width="0.0" opacity="0.6" d="M 15.093871961999998,20.363584371000005 L 15.090933040526226,20.37179810582043 L 15.094338912513138,20.36259708700977 L 15.093871961999998,20.363584371000005 z" /><path fill-rule="evenodd" fill="#66cc99" stroke="#555555" stroke-width="0.0" opacity="0.6" d="M 15.087259800999998,20.382064121999996 L 15.085140109089405,20.390526406321808 L 15.087627734713376,20.381035816214993 L 15.087259800999998,20.382064121999996 z" /><path fill-rule="evenodd" fill="#66cc99" stroke="#555555" stroke-width="0.0" opacity="0.6" d="M 15.082490812000007,20.401102993000002 L 15.081210780691295,20.409732264200045 L 15.082756182621717,20.400043574109777 L 15.082490812000007,20.401102993000002 z" /><path fill-rule="evenodd" fill="#66cc99" stroke="#555555" stroke-width="0.0" opacity="0.6" d="M 15.079610922999994,20.420517629999996 L 15.079182872171462,20.429230801727073 L 15.079771173486174,20.419437308842376 L 15.079610922999994,20.420517629999996 z" /><path fill-rule="evenodd" fill="#66cc99" stroke="#555555" stroke-width="0.0" opacity="0.6" d="M 15.078647868000001,20.440121058 L 15.079075920509935,20.448834263952687 L 15.078701457145796,20.439030226260066 L 15.078647868000001,20.440121058 z" /><path fill-rule="evenodd" fill="#66cc99" stroke="#555555" stroke-width="0.0" opacity="0.6" d="M 15.079610922999994,20.459724486000002 L 15.080890959868283,20.4683537942352 L 15.079557333764567,20.45863365243575 L 15.079610922999994,20.459724486000002 z" /><path fill-rule="evenodd" fill="#66cc99" stroke="#555555" stroke-width="0.0" opacity="0.6" d="M 15.082490812000007,20.479139121999992 L 15.0846105058731,20.48760141415651 L 15.082330560092494,20.478058791316183 L 15.082490812000007,20.479139121999992 z" /><path fill-rule="evenodd" fill="#66cc99" stroke="#555555" stroke-width="0.0" opacity="0.6" d="M 15.087259800999998,20.498177993000002 L 15.090198734418824,20.5063917612046 L 15.086994430357457,20.497118574026583 L 15.087259800999998,20.498177993000002 z" /><path fill-rule="evenodd" fill="#66cc99" stroke="#555555" stroke-width="0.0" opacity="0.6" d="M 15.093871961999998,20.516657744000003 L 15.097601835678562,20.524543899951844 L 15.093504028300643,20.51562943825419 L 15.093871961999998,20.516657744000003 z" /><path fill-rule="evenodd" fill="#66cc99" stroke="#555555" stroke-width="0.0" opacity="0.6" d="M 15.102263614999995,20.534400405 L 15.106748493418232,20.541882972045897 L 15.101796660241142,20.533413112032964 L 15.102263614999995,20.534400405 z" /><path fill-rule="evenodd" fill="#66cc99" stroke="#555555" stroke-width="0.0" opacity="0.6" d="M 15.112353945999995,20.551235104000003 L 15.117550639365748,20.5582420342405 L 15.111792473272532,20.550298343415694 L 15.112353945999995,20.551235104000003 z" /><path fill-rule="evenodd" fill="#66cc99" stroke="#555555" stroke-width="0.0" opacity="0.6" d="M 15.124045776999996,20.566999714 L 15.129904282684297,20.573463578922198 L 15.123395184682131,20.566122491761654 L 15.124045776999996,20.566999714 z" /><path fill-rule="evenodd" fill="#66cc99" stroke="#555555" stroke-width="0.0" opacity="0.6" d="M 15.137226511999994,20.581542414000005 L 15.143946345306366,20.587638054574608 L 15.136493067019224,20.580733182168707 L 15.137226511999994,20.581542414000005 z" /><path fill-rule="evenodd" fill="#66cc99" stroke="#555555" stroke-width="0.0" opacity="0.6" d="M 16.72237071647519,21.742025424564584 L 16.712582151828705,21.7422923790461 L 16.71474606099999,21.7424 L 16.72237071647519,21.742025424564584 z" /><path fill-rule="evenodd" fill="#66cc99" stroke="#555555" stroke-width="0.0" opacity="0.6" d="M 16.734349488999992,21.741436944999993 L 16.74190073222029,21.740316824016706 L 16.732168368648797,21.741544096609385 L 16.734349488999992,21.741436944999993 z" /><path fill-rule="evenodd" fill="#66cc99" stroke="#555555" stroke-width="0.0" opacity="0.6" d="M 16.753764125999986,21.738557055999994 L 16.76116921955478,21.736702176595287 L 16.75160400125879,21.738877480197505 L 16.753764125999986,21.738557055999994 z" /><path fill-rule="evenodd" fill="#66cc99" stroke="#555555" stroke-width="0.0" opacity="0.6" d="M 16.77280299700001,21.733788067000003 L 16.779990628901512,21.731216291430414 L 16.770684687258868,21.734318675976454 L 16.77280299700001,21.733788067000003 z" /><path fill-rule="evenodd" fill="#66cc99" stroke="#555555" stroke-width="0.0" opacity="0.6" d="M 16.791282747999997,21.727175907000007 L 16.798183695666253,21.72391200171052 L 16.789226638852924,21.727911594545677 L 16.791282747999997,21.727175907000007 z" /><path fill-rule="evenodd" fill="#66cc99" stroke="#555555" stroke-width="0.0" opacity="0.6" d="M 16.80902540900001,21.718784253000006 L 16.815573184168397,21.714859667311682 L 16.807051316366284,21.719717929315312 L 16.80902540900001,21.718784253000006 z" /><path fill-rule="evenodd" fill="#66cc99" stroke="#555555" stroke-width="0.0" opacity="0.6" d="M 16.82586010800001,21.708693922000005 L 16.831991670005113,21.7041464459299 L 16.823987045269103,21.70981659267792 L 16.82586010800001,21.708693922000005 z" /><path fill-rule="evenodd" fill="#66cc99" stroke="#555555" stroke-width="0.0" opacity="0.6" d="M 16.841624717999995,21.697002091000005 L 16.847281044200212,21.69187549575162 L 16.83987071118787,21.698302951041594 L 16.841624717999995,21.697002091000005 z" /><path fill-rule="evenodd" fill="#66cc99" stroke="#555555" stroke-width="0.0" opacity="0.6" d="M 16.856167418000013,21.683821356000006 L 16.861294009550036,21.678165033840106 L 16.854549359494893,21.68528787874821 L 16.856167418000013,21.683821356000006 z" /><path fill-rule="evenodd" fill="#66cc99" stroke="#555555" stroke-width="0.0" opacity="0.6" d="M 16.86934815200001,21.669278657000007 L 16.873895644320278,21.66314707360855 L 16.867881632907242,21.670896711483465 L 16.86934815200001,21.669278657000007 z" /><path fill-rule="evenodd" fill="#66cc99" stroke="#555555" stroke-width="0.0" opacity="0.6" d="M 16.881039983999997,21.653514047000005 L 16.884964583039196,21.646966248519153 L 16.879739119001687,21.655268060345502 L 16.881039983999997,21.653514047000005 z" /><path fill-rule="evenodd" fill="#66cc99" stroke="#555555" stroke-width="0.0" opacity="0.6" d="M 16.891130314000012,21.636679347 L 16.894394207455605,21.629778424354374 L 16.89000763950831,21.638552416390763 L 16.891130314000012,21.636679347 z" /><path fill-rule="evenodd" fill="#66cc99" stroke="#555555" stroke-width="0.0" opacity="0.6" d="M 16.899521967999995,21.618936686000005 L 16.902093734253764,21.61174908013445 L 16.898588293625416,21.620910774530426 L 16.899521967999995,21.618936686000005 z" /><path fill-rule="evenodd" fill="#66cc99" stroke="#555555" stroke-width="0.0" opacity="0.6" d="M 16.90613412799999,21.600456935000004 L 16.90798900121811,21.593051866143437 L 16.905398445502133,21.6025130300394 L 16.90613412799999,21.600456935000004 z" /><path fill-rule="evenodd" fill="#66cc99" stroke="#555555" stroke-width="0.0" opacity="0.6" d="M 16.012456935000003,22.494134128000006 L 16.014513030039577,22.493398445502073 L 16.005051866143255,22.49598900121817 L 16.012456935000003,22.494134128000006 z" /><path fill-rule="evenodd" fill="#66cc99" stroke="#555555" stroke-width="0.0" opacity="0.6" d="M 16.03093668599999,22.487521967999996 L 16.03291077453041,22.486588293625413 L 16.023749080134124,22.490093734253882 L 16.03093668599999,22.487521967999996 z" /><path fill-rule="evenodd" fill="#66cc99" stroke="#555555" stroke-width="0.0" opacity="0.6" d="M 16.048679347000004,22.479130313999995 L 16.050552416390687,22.478007639508323 L 16.041778424354522,22.482394207455517 L 16.048679347000004,22.479130313999995 z" /><path fill-rule="evenodd" fill="#66cc99" stroke="#555555" stroke-width="0.0" opacity="0.6" d="M 16.06551404699999,22.469039984 L 16.067268060345413,22.46773911900173 L 16.058966248519422,22.47296458303903 L 16.06551404699999,22.469039984 z" /><path fill-rule="evenodd" fill="#66cc99" stroke="#555555" stroke-width="0.0" opacity="0.6" d="M 16.081278657000006,22.457348151999994 L 16.082896711483418,22.455881632907257 L 16.075147073608814,22.461895644320055 L 16.081278657000006,22.457348151999994 z" /><path fill-rule="evenodd" fill="#66cc99" stroke="#555555" stroke-width="0.0" opacity="0.6" d="M 16.095821356000005,22.444167418 L 16.09728787874797,22.442549359495164 L 16.090165033840538,22.449294009549632 L 16.095821356000005,22.444167418 z" /><path fill-rule="evenodd" fill="#66cc99" stroke="#555555" stroke-width="0.0" opacity="0.6" d="M 16.10900209099999,22.429624717999996 L 16.11030295104146,22.427870711188017 L 16.103875495752334,22.43528104419944 L 16.10900209099999,22.429624717999996 z" /><path fill-rule="evenodd" fill="#66cc99" stroke="#555555" stroke-width="0.0" opacity="0.6" d="M 16.12069392199999,22.413860107999994 L 16.121816592677714,22.411987045269385 L 16.11614644593039,22.419991670004414 L 16.12069392199999,22.413860107999994 z" /><path fill-rule="evenodd" fill="#66cc99" stroke="#555555" stroke-width="0.0" opacity="0.6" d="M 16.13078425299999,22.397025408999994 L 16.13171792931527,22.39505131636636 L 16.126859667312146,22.403573184167595 L 16.13078425299999,22.397025408999994 z" /><path fill-rule="evenodd" fill="#66cc99" stroke="#555555" stroke-width="0.0" opacity="0.6" d="M 16.139175907000006,22.379282747999994 L 16.13991159454569,22.37722663885291 L 16.135912001710505,22.386183695666283 L 16.139175907000006,22.379282747999994 z" /><path fill-rule="evenodd" fill="#66cc99" stroke="#555555" stroke-width="0.0" opacity="0.6" d="M 16.145788067,22.360802996999993 L 16.146318675976456,22.3586846872589 L 16.143216291430473,22.367990628901378 L 16.145788067,22.360802996999993 z" /><path fill-rule="evenodd" fill="#66cc99" stroke="#555555" stroke-width="0.0" opacity="0.6" d="M 16.150557055999993,22.341764126 L 16.15087748019749,22.339604001258923 L 16.14870217659536,22.34916921955457 L 16.150557055999993,22.341764126 z" /><path fill-rule="evenodd" fill="#66cc99" stroke="#555555" stroke-width="0.0" opacity="0.6" d="M 16.153436944999992,22.322349488999993 L 16.153544096609384,22.32016836864881 L 16.15231682401678,22.329900732219933 L 16.153436944999992,22.322349488999993 z" /><path fill-rule="evenodd" fill="#66cc99" stroke="#555555" stroke-width="0.0" opacity="0.6" d="M 16.1544,22.302746061000004 L 16.154292379046083,22.300582151828753 L 16.15402542456457,22.310370716475486 L 16.1544,22.302746061000004 z" /><path fill-rule="evenodd" fill="#66cc99" stroke="#555555" stroke-width="0.0" opacity="0.6" d="M 14.992733182168708,20.724493067019225 L 14.999638054574609,20.731946345306365 L 14.993542414000004,20.725226511999995 L 14.992733182168708,20.724493067019225 z" /><path fill-rule="evenodd" fill="#66cc99" stroke="#555555" stroke-width="0.0" opacity="0.6" d="M 14.978999714000002,20.712045776999997 L 14.978122491761654,20.711395184682132 L 14.985463578922197,20.717904282684298 L 14.978999714000002,20.712045776999997 z" /><path fill-rule="evenodd" fill="#66cc99" stroke="#555555" stroke-width="0.0" opacity="0.6" d="M 14.963235104000002,20.700353945999996 L 14.962298343415693,20.69979247327253 L 14.9702420342405,20.705550639365747 L 14.963235104000002,20.700353945999996 z" /><path fill-rule="evenodd" fill="#66cc99" stroke="#555555" stroke-width="0.0" opacity="0.6" d="M 14.946400405,20.690263614999996 L 14.945413112032965,20.689796660241143 L 14.953882972045898,20.69474849341823 L 14.946400405,20.690263614999996 z" /><path fill-rule="evenodd" fill="#66cc99" stroke="#555555" stroke-width="0.0" opacity="0.6" d="M 14.928657744000002,20.681871962 L 14.927629438254192,20.681504028300644 L 14.936543899951845,20.68560183567856 L 14.928657744000002,20.681871962 z" /><path fill-rule="evenodd" fill="#66cc99" stroke="#555555" stroke-width="0.0" opacity="0.6" d="M 14.910177993000001,20.675259801 L 14.909118574026584,20.674994430357454 L 14.9183917612046,20.678198734418825 L 14.910177993000001,20.675259801 z" /><path fill-rule="evenodd" fill="#66cc99" stroke="#555555" stroke-width="0.0" opacity="0.6" d="M 14.891139121999993,20.670490812000008 L 14.890058791316182,20.670330560092495 L 14.899601414156512,20.6726105058731 L 14.891139121999993,20.670490812000008 z" /><path fill-rule="evenodd" fill="#66cc99" stroke="#555555" stroke-width="0.0" opacity="0.6" d="M 14.871724486000002,20.667610922999994 L 14.87063365243575,20.667557333764567 L 14.8803537942352,20.668890959868282 L 14.871724486000002,20.667610922999994 z" /><path fill-rule="evenodd" fill="#66cc99" stroke="#555555" stroke-width="0.0" opacity="0.6" d="M 14.852121057999998,20.666647868000002 L 14.851030226260066,20.666701457145795 L 14.860834263952688,20.667075920509934 L 14.852121057999998,20.666647868000002 z" /><path fill-rule="evenodd" fill="#66cc99" stroke="#555555" stroke-width="0.0" opacity="0.6" d="M 14.832517629999995,20.667610922999994 L 14.831437308842375,20.667771173486173 L 14.841230801727072,20.667182872171463 L 14.832517629999995,20.667610922999994 z" /><path fill-rule="evenodd" fill="#66cc99" stroke="#555555" stroke-width="0.0" opacity="0.6" d="M 14.813102993000001,20.670490812000008 L 14.812043574109778,20.670756182621716 L 14.821732264200048,20.669210780691294 L 14.813102993000001,20.670490812000008 z" /><path fill-rule="evenodd" fill="#66cc99" stroke="#555555" stroke-width="0.0" opacity="0.6" d="M 14.794064121999995,20.675259801 L 14.793035816214994,20.675627734713377 L 14.802526406321808,20.673140109089406 L 14.794064121999995,20.675259801 z" /><path fill-rule="evenodd" fill="#66cc99" stroke="#555555" stroke-width="0.0" opacity="0.6" d="M 14.775584371000006,20.681871962 L 14.774597087009772,20.68233891251314 L 14.783798105820432,20.678933040526225 L 14.775584371000006,20.681871962 z" /><path fill-rule="evenodd" fill="#66cc99" stroke="#555555" stroke-width="0.0" opacity="0.6" d="M 14.757841709999994,20.690263614999996 L 14.756904936679438,20.690825095361262 L 14.765727859574273,20.686533744337783 L 14.757841709999994,20.690263614999996 z" /><path fill-rule="evenodd" fill="#66cc99" stroke="#555555" stroke-width="0.0" opacity="0.6" d="M 14.741007011000008,20.700353945999996 L 14.740129787967875,20.701004538906574 L 14.748489621358454,20.695869041621208 L 14.741007011000008,20.700353945999996 z" /><path fill-rule="evenodd" fill="#66cc99" stroke="#555555" stroke-width="0.0" opacity="0.6" d="M 14.725242400999994,20.712045776999997 L 14.724433170284867,20.712779220969125 L 14.73224937197639,20.706849053422435 L 14.725242400999994,20.712045776999997 z" /><path fill-rule="evenodd" fill="#66cc99" stroke="#555555" stroke-width="0.0" opacity="0.6" d="M 14.710699701000005,20.725226511999995 L 14.709966261098504,20.726035738232927 L 14.717163547385454,20.71936802311641 L 14.710699701000005,20.725226511999995 z" /><path fill-rule="evenodd" fill="#66cc99" stroke="#555555" stroke-width="0.0" opacity="0.6" d="M 14.697518966999993,20.739769210999995 L 14.696868374626414,20.74064643323843 L 14.703377448975905,20.733305372190074 L 14.697518966999993,20.739769210999995 z" /><path fill-rule="evenodd" fill="#66cc99" stroke="#555555" stroke-width="0.0" opacity="0.6" d="M 14.685827135000006,20.755533820999993 L 14.685265654741183,20.756470594298108 L 14.691023867609292,20.748526838445024 L 14.685827135000006,20.755533820999993 z" /><path fill-rule="evenodd" fill="#66cc99" stroke="#555555" stroke-width="0.0" opacity="0.6" d="M 14.675736805000007,20.772368520999997 L 14.675269853949308,20.773355806009143 L 14.680221693543508,20.764885935875103 L 14.675736805000007,20.772368520999997 z" /><path fill-rule="evenodd" fill="#66cc99" stroke="#555555" stroke-width="0.0" opacity="0.6" d="M 30.067473522000014,22.808988598000006 L 30.012640763999997,22.863821356000006 L 29.989765110000015,22.886697010000006 L 30.067473522760302,22.80898859823972 L 30.067473522000014,22.808988598000006 z" /><path fill-rule="evenodd" fill="#66cc99" stroke="#555555" stroke-width="0.0" opacity="0.6" d="M 15.15901444683425,20.600100644592317 L 15.150889222858936,20.593936021233098 L 15.151639495000005,20.594616602 L 15.15901444683425,20.600100644592317 z" /><path fill-rule="evenodd" fill="#66cc99" stroke="#555555" stroke-width="0.0" opacity="0.6" d="M 15.175234304968193,20.61103372548294 L 15.166509723560468,20.605674161237808 L 15.167254831000001,20.606228225999995 L 15.175234304968193,20.61103372548294 z" /><path fill-rule="evenodd" fill="#66cc99" stroke="#555555" stroke-width="0.0" opacity="0.6" d="M 15.192453280240148,20.620331782651917 L 15.183201599427536,20.615831890068396 L 15.183924692000001,20.61626736 L 15.192453280240148,20.620331782651917 z" /><path fill-rule="evenodd" fill="#66cc99" stroke="#555555" stroke-width="0.0" opacity="0.6" d="M 15.210510213382229,20.62790447503595 L 15.200805495685145,20.6243121522855 L 15.201491269999996,20.624638967999996 L 15.210510213382229,20.62790447503595 z" /><path fill-rule="evenodd" fill="#66cc99" stroke="#555555" stroke-width="0.0" opacity="0.6" d="M 15.229237375754401,20.633677087738516 L 15.219153356578753,20.63103391534008 L 15.219788268000007,20.631263798999996 L 15.229237375754401,20.633677087738516 z" /><path fill-rule="evenodd" fill="#66cc99" stroke="#555555" stroke-width="0.0" opacity="0.6" d="M 15.24846336925061,20.637590730890796 L 15.238070018053815,20.635932932072862 L 15.238642472000002,20.636079136000006 L 15.24846336925061,20.637590730890796 z" /><path fill-rule="evenodd" fill="#66cc99" stroke="#555555" stroke-width="0.0" opacity="0.6" d="M 15.268016888373404,20.639601627680673 L 15.257374869444131,20.63896235486953 L 15.257875395999998,20.639039393999994 L 15.268016888373404,20.639601627680673 z" /><path fill-rule="evenodd" fill="#66cc99" stroke="#555555" stroke-width="0.0" opacity="0.6" d="M 15.287734010953471,20.63967876084463 L 15.27688360884206,20.640093189346477 L 15.277304966999992,20.640116548999995 L 15.287734010953471,20.63967876084463 z" /><path fill-rule="evenodd" fill="#66cc99" stroke="#555555" stroke-width="0.0" opacity="0.6" d="M 15.307474564991862,20.637796473469123 L 15.296409952930212,20.63931456402555 L 15.296747251000003,20.639300405 L 15.307474564991862,20.637796473469123 z" /><path fill-rule="evenodd" fill="#66cc99" stroke="#555555" stroke-width="0.0" opacity="0.6" d="M 15.327172819494411,20.63390884320314 L 15.315767454969183,20.636633839586274 L 15.316018193000003,20.636598687000006 L 15.327172819494411,20.63390884320314 z" /><path fill-rule="evenodd" fill="#66cc99" stroke="#555555" stroke-width="0.0" opacity="0.6" d="M 15.347086060995013,20.627821226294994 L 15.334771275905833,20.632076539732097 L 15.334935361000001,20.632036972 L 15.347086060995013,20.627821226294994 z" /><path fill-rule="evenodd" fill="#66cc99" stroke="#555555" stroke-width="0.0" opacity="0.6" d="M 15.370997085999996,20.617523487000003 L 15.353239936877504,20.625686108496726 L 15.353319672000007,20.625658444000006 L 15.370997085999996,20.617523487000003 z" /><path fill-rule="evenodd" fill="#66cc99" stroke="#555555" stroke-width="0.0" opacity="0.6" d="M 16.51570927963254,21.525145344824033 L 16.516175606280477,21.51858000429593 L 16.516155379000008,21.518698924999995 L 16.51570927963254,21.525145344824033 z" /><path fill-rule="evenodd" fill="#66cc99" stroke="#555555" stroke-width="0.0" opacity="0.6" d="M 16.515015632553787,21.546174399784476 L 16.51480033931166,21.538280111045705 L 16.51478368599999,21.538520761999994 L 16.515015632553787,21.546174399784476 z" /><path fill-rule="evenodd" fill="#66cc99" stroke="#555555" stroke-width="0.0" opacity="0.6" d="M 16.516433082975684,21.5664131402718 L 16.515374595681102,21.558019256754637 L 16.51538555500001,21.55838088600001 L 16.516433082975684,21.5664131402718 z" /><path fill-rule="evenodd" fill="#66cc99" stroke="#555555" stroke-width="0.0" opacity="0.6" d="M 16.519838084334285,21.586159339846894 L 16.5178926703946,21.577604991518378 L 16.51795504699999,21.578083283999995 L 16.519838084334285,21.586159339846894 z" /><path fill-rule="evenodd" fill="#66cc99" stroke="#555555" stroke-width="0.0" opacity="0.6" d="M 16.525167155303656,21.605357021495806 L 16.52232990841168,21.596846387864037 L 16.522466801,21.597433498999997 L 16.525167155303656,21.605357021495806 z" /><path fill-rule="evenodd" fill="#66cc99" stroke="#555555" stroke-width="0.0" opacity="0.6" d="M 16.532356567868174,21.623872498381495 L 16.52864294867322,21.615555878333687 L 16.528876287,21.616240552 L 16.532356567868174,21.623872498381495 z" /><path fill-rule="evenodd" fill="#66cc99" stroke="#555555" stroke-width="0.0" opacity="0.6" d="M 16.54133063888401,21.64155063379641 L 16.53677014502546,21.63355108051053 L 16.537120247000008,21.634318822999997 L 16.54133063888401,21.64155063379641 z" /><path fill-rule="evenodd" fill="#66cc99" stroke="#555555" stroke-width="0.0" opacity="0.6" d="M 16.551998880392492,21.658232856796964 L 16.54663217336893,21.650656601930052 L 16.547117314999998,21.651489886000007 L 16.551998880392492,21.658232856796964 z" /><path fill-rule="evenodd" fill="#66cc99" stroke="#555555" stroke-width="0.0" opacity="0.6" d="M 16.564255597744705,21.673764807246133 L 16.558132793751508,21.66670571239257 L 16.558768823000015,21.667584268000006 L 16.564255597744705,21.673764807246133 z" /><path fill-rule="evenodd" fill="#66cc99" stroke="#555555" stroke-width="0.0" opacity="0.6" d="M 16.577980164232432,21.688000225967794 L 16.57115979255566,21.68154198946655 L 16.57195977399999,21.682443122999995 L 16.577980164232432,21.688000225967794 z" /><path fill-rule="evenodd" fill="#66cc99" stroke="#555555" stroke-width="0.0" opacity="0.6" d="M 16.593037984135,21.700803807730257 L 16.58558611130673,21.695020872375654 L 16.586559979,21.69591979799999 L 16.593037984135,21.700803807730257 z" /><path fill-rule="evenodd" fill="#66cc99" stroke="#555555" stroke-width="0.0" opacity="0.6" d="M 16.609281864852814,21.71205332095587 L 16.60127103266141,21.7070110101444 L 16.602425338,21.707881283999996 L 16.609281864852814,21.71205332095587 z" /><path fill-rule="evenodd" fill="#66cc99" stroke="#555555" stroke-width="0.0" opacity="0.6" d="M 16.626553101875604,21.72164091852832 L 16.618061569945127,21.717395567094936 L 16.619399266000002,21.718209524000002 L 16.626553101875604,21.72164091852832 z" /><path fill-rule="evenodd" fill="#66cc99" stroke="#555555" stroke-width="0.0" opacity="0.6" d="M 16.644683125198156,21.72947453759867 L 16.635793983038216,21.726073381001534 L 16.637314235000016,21.726802582 L 16.644683125198156,21.72947453759867 z" /><path fill-rule="evenodd" fill="#66cc99" stroke="#555555" stroke-width="0.0" opacity="0.6" d="M 16.663494984361172,21.735478870324567 L 16.65429533040014,21.732959918003903 L 16.655993430000006,21.733575648000002 L 16.663494984361172,21.735478870324567 z" /><path fill-rule="evenodd" fill="#66cc99" stroke="#555555" stroke-width="0.0" opacity="0.6" d="M 16.682805179191202,21.739596248603387 L 16.67338523879087,21.73798813068849 L 16.675252495000006,21.738461872999995 L 16.682805179191202,21.739596248603387 z" /><path fill-rule="evenodd" fill="#66cc99" stroke="#555555" stroke-width="0.0" opacity="0.6" d="M 16.702425454859256,21.741787240738585 L 16.69287752791819,21.741109065288885 L 16.69490134799999,21.741413033000008 L 16.702425454859256,21.741787240738585 z" /><path fill-rule="evenodd" fill="#66cc99" stroke="#555555" stroke-width="0.0" opacity="0.6" d="M 16.153109065288902,22.2808775279184 L 16.15378724073854,22.290425454858795 L 16.153413032999993,22.282901348000006 L 16.153109065288902,22.2808775279184 z" /><path fill-rule="evenodd" fill="#66cc99" stroke="#555555" stroke-width="0.0" opacity="0.6" d="M 16.149988130688488,22.261385238790886 L 16.151596248603315,22.27080517919083 L 16.150461872999998,22.263252495000003 L 16.149988130688488,22.261385238790886 z" /><path fill-rule="evenodd" fill="#66cc99" stroke="#555555" stroke-width="0.0" opacity="0.6" d="M 16.144959918003916,22.242295330400154 L 16.14747887032455,22.251494984361052 L 16.145575648,22.243993430000007 L 16.144959918003916,22.242295330400154 z" /><path fill-rule="evenodd" fill="#66cc99" stroke="#555555" stroke-width="0.0" opacity="0.6" d="M 16.138073381001533,22.223793983038263 L 16.14147453759861,22.23268312519799 L 16.138802581999986,22.225314235 L 16.138073381001533,22.223793983038263 z" /><path fill-rule="evenodd" fill="#66cc99" stroke="#555555" stroke-width="0.0" opacity="0.6" d="M 16.12939556709504,22.206061569945305 L 16.13364091852805,22.214553101875065 L 16.13020952399999,22.207399266000003 L 16.12939556709504,22.206061569945305 z" /><path fill-rule="evenodd" fill="#66cc99" stroke="#555555" stroke-width="0.0" opacity="0.6" d="M 16.119011010144295,22.189271032661228 L 16.124053320955934,22.197281864852904 L 16.11988128400001,22.190425338 L 16.119011010144295,22.189271032661228 z" /><path fill-rule="evenodd" fill="#66cc99" stroke="#555555" stroke-width="0.0" opacity="0.6" d="M 16.10702087237543,22.173586111306474 L 16.11280380773142,22.18103798413649 L 16.107919798000008,22.174559979 L 16.10702087237543,22.173586111306474 z" /><path fill-rule="evenodd" fill="#66cc99" stroke="#555555" stroke-width="0.0" opacity="0.6" d="M 16.093541989466786,22.15915979255587 L 16.100000225967793,22.16598016423246 L 16.094443122999994,22.159959774000004 L 16.093541989466786,22.15915979255587 z" /><path fill-rule="evenodd" fill="#66cc99" stroke="#555555" stroke-width="0.0" opacity="0.6" d="M 16.07870571239257,22.14613279375151 L 16.085764807245226,22.152255597743913 L 16.079584268000005,22.146768823 L 16.07870571239257,22.14613279375151 z" /><path fill-rule="evenodd" fill="#66cc99" stroke="#555555" stroke-width="0.0" opacity="0.6" d="M 16.06265660193005,22.134632173368946 L 16.07023285679701,22.139998880392508 L 16.063489886000006,22.135117315 L 16.06265660193005,22.134632173368946 z" /><path fill-rule="evenodd" fill="#66cc99" stroke="#555555" stroke-width="0.0" opacity="0.6" d="M 16.04555108051023,22.1247701450253 L 16.05355063379812,22.12933063888499 L 16.046318823000014,22.125120246999995 L 16.04555108051023,22.1247701450253 z" /><path fill-rule="evenodd" fill="#66cc99" stroke="#555555" stroke-width="0.0" opacity="0.6" d="M 16.027555878333537,22.11664294867316 L 16.03587249838397,22.120356567869305 L 16.028240551999986,22.116876287 L 16.027555878333537,22.11664294867316 z" /><path fill-rule="evenodd" fill="#66cc99" stroke="#555555" stroke-width="0.0" opacity="0.6" d="M 16.008846387864143,22.110329908411696 L 16.017357021496178,22.113167155303778 L 16.009433499000014,22.110466800999998 L 16.008846387864143,22.110329908411696 z" /><path fill-rule="evenodd" fill="#66cc99" stroke="#555555" stroke-width="0.0" opacity="0.6" d="M 15.989604991518616,22.10589267039466 L 15.99815933984372,22.10783808433354 L 15.99008328400001,22.105955047000005 L 15.989604991518616,22.10589267039466 z" /><path fill-rule="evenodd" fill="#66cc99" stroke="#555555" stroke-width="0.0" opacity="0.6" d="M 15.970019256754517,22.1033745956811 L 15.978413140270888,22.104433082975582 L 15.970380886000008,22.103385555000006 L 15.970019256754517,22.1033745956811 z" /><path fill-rule="evenodd" fill="#66cc99" stroke="#555555" stroke-width="0.0" opacity="0.6" d="M 15.950280111045837,22.10280033931166 L 15.958174399783433,22.10301563255377 L 15.950520761999995,22.102783686000006 L 15.950280111045837,22.10280033931166 z" /><path fill-rule="evenodd" fill="#66cc99" stroke="#555555" stroke-width="0.0" opacity="0.6" d="M 15.930580004295827,22.104175606280474 L 15.937145344826131,22.10370927963239 L 15.930698925000012,22.104155378999994 L 15.930580004295827,22.104175606280474 z" /><path fill-rule="evenodd" fill="#66cc99" stroke="#555555" stroke-width="0.0" opacity="0.6" d="M 15.037686108496725,20.941239936877505 L 15.029523487000004,20.958997085999997 L 15.037658444000005,20.941319672000006 L 15.037686108496725,20.941239936877505 z" /><path fill-rule="evenodd" fill="#66cc99" stroke="#555555" stroke-width="0.0" opacity="0.6" d="M 15.0440765397321,20.922771275905834 L 15.039821226294995,20.935086060995012 L 15.044036972000002,20.922935361 L 15.0440765397321,20.922771275905834 z" /><path fill-rule="evenodd" fill="#66cc99" stroke="#555555" stroke-width="0.0" opacity="0.6" d="M 15.048633839586273,20.903767454969184 L 15.045908843203142,20.915172819494412 L 15.048598687000007,20.904018193000002 L 15.048633839586273,20.903767454969184 z" /><path fill-rule="evenodd" fill="#66cc99" stroke="#555555" stroke-width="0.0" opacity="0.6" d="M 15.051314564025551,20.884409952930213 L 15.049796473469124,20.89547456499186 L 15.051300405000001,20.884747251 L 15.051314564025551,20.884409952930213 z" /><path fill-rule="evenodd" fill="#66cc99" stroke="#555555" stroke-width="0.0" opacity="0.6" d="M 15.052093189346477,20.86488360884206 L 15.051678760844633,20.875734010953472 L 15.052116548999996,20.865304966999993 L 15.052093189346477,20.86488360884206 z" /><path fill-rule="evenodd" fill="#66cc99" stroke="#555555" stroke-width="0.0" opacity="0.6" d="M 15.05096235486953,20.845374869444132 L 15.051601627680673,20.856016888373404 L 15.051039393999995,20.845875395999997 L 15.05096235486953,20.845374869444132 z" /><path fill-rule="evenodd" fill="#66cc99" stroke="#555555" stroke-width="0.0" opacity="0.6" d="M 15.047932932072863,20.826070018053816 L 15.049590730890795,20.83646336925061 L 15.048079136000007,20.826642472000003 L 15.047932932072863,20.826070018053816 z" /><path fill-rule="evenodd" fill="#66cc99" stroke="#555555" stroke-width="0.0" opacity="0.6" d="M 15.04303391534008,20.807153356578752 L 15.045677087738515,20.817237375754402 L 15.043263798999995,20.807788268000007 L 15.04303391534008,20.807153356578752 z" /><path fill-rule="evenodd" fill="#66cc99" stroke="#555555" stroke-width="0.0" opacity="0.6" d="M 15.036312152285502,20.788805495685146 L 15.03990447503595,20.79851021338223 L 15.036638967999995,20.789491269999996 L 15.036312152285502,20.788805495685146 z" /><path fill-rule="evenodd" fill="#66cc99" stroke="#555555" stroke-width="0.0" opacity="0.6" d="M 15.027831890068397,20.771201599427535 L 15.032331782651916,20.78045328024015 L 15.02826736,20.771924692000002 L 15.027831890068397,20.771201599427535 z" /><path fill-rule="evenodd" fill="#66cc99" stroke="#555555" stroke-width="0.0" opacity="0.6" d="M 15.017674161237807,20.754509723560467 L 15.023033725482941,20.763234304968194 L 15.018228225999996,20.755254831000002 L 15.017674161237807,20.754509723560467 z" /><path fill-rule="evenodd" fill="#66cc99" stroke="#555555" stroke-width="0.0" opacity="0.6" d="M 15.005936021233097,20.738889222858937 L 15.012100644592316,20.74701444683425 L 15.006616601999998,20.739639495000006 L 15.005936021233097,20.738889222858937 z" /><path fill-rule="evenodd" fill="#66cc99" stroke="#555555" stroke-width="0.0" opacity="0.6" d="M 28.67633436500001,23.435671298999996 L 28.64352501100001,23.48717111 L 28.67633436696887,23.435671296188204 L 28.67633436500001,23.435671298999996 z" /><path fill-rule="evenodd" fill="#66cc99" stroke="#555555" stroke-width="0.0" opacity="0.6" d="M 29.99166563499999,23.435671298999996 L 29.99166563303113,23.435671296188204 L 30.02447498899999,23.48717111 L 29.99166563499999,23.435671298999996 z" /><polyline fill="none" stroke="#66cc99" stroke-width="0.0" points="13.770099,19.6056 13.769135944999993,19.585996571999996" opacity="0.8" /><polyline fill="none" stroke="#66cc99" stroke-width="0.0" points="13.769135944999993,19.585996571999996 13.766256055999994,19.566581936000006" opacity="0.8" /><polyline fill="none" stroke="#66cc99" stroke-width="0.0" points="13.766256055999994,19.566581936000006 13.761487067000001,19.547543065" opacity="0.8" /><polyline fill="none" stroke="#66cc99" stroke-width="0.0" points="13.761487067000001,19.547543065 13.754874907000005,19.529063313999995" opacity="0.8" /><polyline fill="none" stroke="#66cc99" stroke-width="0.0" points="13.754874907000005,19.529063313999995 13.746483253000006,19.511320653" opacity="0.8" /><polyline fill="none" stroke="#66cc99" stroke-width="0.0" points="13.746483253000006,19.511320653 13.736392922000006,19.494485952999995" opacity="0.8" /><polyline fill="none" stroke="#66cc99" stroke-width="0.0" points="13.736392922000006,19.494485952999995 13.724701091000005,19.478721342999993" opacity="0.8" /><polyline fill="none" stroke="#66cc99" stroke-width="0.0" points="13.724701091000005,19.478721342999993 13.711520356000007,19.464178643999993" opacity="0.8" /><polyline fill="none" stroke="#66cc99" stroke-width="0.0" points="13.711520356000007,19.464178643999993 13.696977657000005,19.450997908999994" opacity="0.8" /><polyline fill="none" stroke="#66cc99" stroke-width="0.0" points="13.696977657000005,19.450997908999994 13.681213047000005,19.439306077999994" opacity="0.8" /><polyline fill="none" stroke="#66cc99" stroke-width="0.0" points="13.681213047000005,19.439306077999994 13.664378347000003,19.429215746999994" opacity="0.8" /><polyline fill="none" stroke="#66cc99" stroke-width="0.0" points="13.664378347000003,19.429215746999994 13.646635686000005,19.420824092999993" opacity="0.8" /><polyline fill="none" stroke="#66cc99" stroke-width="0.0" points="13.646635686000005,19.420824092999993 13.628155935000002,19.414211932999997" opacity="0.8" /><polyline fill="none" stroke="#66cc99" stroke-width="0.0" points="13.628155935000002,19.414211932999997 13.609117063999996,19.409442944000006" opacity="0.8" /><polyline fill="none" stroke="#66cc99" stroke-width="0.0" points="13.609117063999996,19.409442944000006 13.589702428000002,19.406563055000007" opacity="0.8" /><polyline fill="none" stroke="#66cc99" stroke-width="0.0" points="13.589702428000002,19.406563055000007 13.570099,19.4056" opacity="0.8" /><polyline fill="none" stroke="#66cc99" stroke-width="0.0" points="13.570099,19.2024 13.589702428000002,19.201436944999994" opacity="0.8" /><polyline fill="none" stroke="#66cc99" stroke-width="0.0" points="13.589702428000002,19.201436944999994 13.609117063999996,19.198557055999995" opacity="0.8" /><polyline fill="none" stroke="#66cc99" stroke-width="0.0" points="13.609117063999996,19.198557055999995 13.628155935000002,19.193788067000003" opacity="0.8" /><polyline fill="none" stroke="#66cc99" stroke-width="0.0" points="13.628155935000002,19.193788067000003 13.646635686000005,19.187175907000004" opacity="0.8" /><polyline fill="none" stroke="#66cc99" stroke-width="0.0" points="13.646635686000005,19.187175907000004 13.664378347000003,19.178784253000007" opacity="0.8" /><polyline fill="none" stroke="#66cc99" stroke-width="0.0" points="13.664378347000003,19.178784253000007 13.681213047000005,19.168693922000006" opacity="0.8" /><polyline fill="none" stroke="#66cc99" stroke-width="0.0" points="13.681213047000005,19.168693922000006 13.696977657000005,19.157002091000006" opacity="0.8" /><polyline fill="none" stroke="#66cc99" stroke-width="0.0" points="13.696977657000005,19.157002091000006 13.711520356000007,19.143821356000007" opacity="0.8" /><polyline fill="none" stroke="#66cc99" stroke-width="0.0" points="13.711520356000007,19.143821356000007 13.724701091000005,19.129278657000004" opacity="0.8" /><polyline fill="none" stroke="#66cc99" stroke-width="0.0" points="13.724701091000005,19.129278657000004 13.736392922000006,19.113514047000006" opacity="0.8" /><polyline fill="none" stroke="#66cc99" stroke-width="0.0" points="13.736392922000006,19.113514047000006 13.746483253000006,19.096679347000002" opacity="0.8" /><polyline fill="none" stroke="#66cc99" stroke-width="0.0" points="13.746483253000006,19.096679347000002 13.754874907000005,19.078936686000006" opacity="0.8" /><polyline fill="none" stroke="#66cc99" stroke-width="0.0" points="13.754874907000005,19.078936686000006 13.761487067000001,19.060456935" opacity="0.8" /><polyline fill="none" stroke="#66cc99" stroke-width="0.0" points="13.761487067000001,19.060456935 13.766256055999994,19.041418063999995" opacity="0.8" /><polyline fill="none" stroke="#66cc99" stroke-width="0.0" points="13.766256055999994,19.041418063999995 13.769135944999993,19.022003428" opacity="0.8" /><polyline fill="none" stroke="#66cc99" stroke-width="0.0" points="13.769135944999993,19.022003428 13.770099,19.0024" opacity="0.8" /></g> 
                    </g>
                    </svg>