<svg xmlns="http://www.w3.org/2000/svg" viewBox="0 0 43.434 40.132" width="43.434mm" height="40.132mm">
                    <g stroke-linecap="round">
                        <g><path fill-rule="evenodd" fill="#66cc99" stroke="#555555" stroke-width="0.0" opacity="0.6" d="M 33.312570808,14.994299413000002 L 33.329419979,14.998814099000008 L 33.337893808999986,15.000887660999998 L 33.371961808999984,15.008440660999998 L 33.38052311199999,15.010143618 L 33.39771187099999,15.013174339 L 33.40633932800001,15.014502104000002 L 33.44093632800001,15.019056104000002 L 33.449605683,15.020005461999997 L 33.466977537,15.021525332000003 L 33.475680037000004,15.022095842999995 L 33.510542037,15.023618842999994 L 33.519271018999994,15.023809421000005 L 33.536728981,15.023809421000005 L 33.545457963,15.023618842999994 L 33.580319963,15.022095842999995 L 33.589022463,15.021525332000003 L 33.606394317,15.020005461999997 L 33.61506367199999,15.019056104000002 L 33.64966067199999,15.014502104000002 L 33.658288129000006,15.013174339 L 33.67547688800001,15.010143618 L 33.68403819100001,15.008440660999998 L 33.71810619100001,15.000887660999998 L 33.726580021,14.998814099000008 L 33.743429192,14.994299413000002 L 33.75180453400001,14.991858289000005 L 33.78508553400001,14.981365289000005 L 33.793350037,14.978559944999994 L 33.80974878299999,14.972591363999992 L 33.81788302599999,14.969428128000006 L 33.850122025999994,14.956074128000006 L 33.858108312999995,14.952560053000003 L 33.87392001800001,14.945186917999997 L 33.88174543599999,14.941327858999998 L 33.91269843599999,14.925214858999997 L 33.920351111,14.921016416999995 L 33.935465982,14.912289621999994 L 33.942928178,14.907761268000007 L 33.972358178,14.889011268000006 L 33.97961056600001,14.884165209999994 L 33.993897148,14.874161482999995 L 34.00093134200001,14.869003813999996 L 34.02861634200001,14.847760813999995 L 34.03542330000001,14.842297706 L 34.048792377999995,14.831079702000007 L 34.05535449700001,14.825324805999994 L 34.08108149700001,14.801749805999995 L 34.08738310499999,14.795717259000003 L 34.099717259,14.783383105000004 L 34.10574980599999,14.777081496999994 L 34.12932480599999,14.751354496999994 L 34.13507970199999,14.744792378000007 L 34.146297706,14.731423299999998 L 34.15097135299999,14.7256 L 34.51194595783177,14.7256 L 34.505429192,14.723700586999998 L 34.488580021,14.719185900999992 L 34.48010619100001,14.717112339000002 L 34.446038191000014,14.709559339000002 L 34.43747688800001,14.707856382 L 34.42028812900001,14.704825661 L 34.41166067199999,14.703497895999998 L 34.37706367199999,14.698943895999998 L 34.368394317,14.697994538000003 L 34.351022463,14.696474667999997 L 34.342319963,14.695904157000005 L 34.307457963,14.694381157000006 L 34.298728981000004,14.694190578999995 L 34.281271018999995,14.694190578999995 L 34.272542037,14.694381157000006 L 34.237680037,14.695904157000005 L 34.228977537,14.696474667999997 L 34.211605682999995,14.697994538000003 L 34.20293632800001,14.698943895999998 L 34.16833932800001,14.703497895999998 L 34.15971187099999,14.704825661 L 34.142523111999985,14.707856382 L 34.133961808999985,14.709559339000002 L 34.09989380899999,14.717112339000002 L 34.091419979,14.719185900999992 L 34.074570808,14.723700586999998 L 34.06619546599999,14.726141710999995 L 34.032914465999994,14.736634710999995 L 34.024649963,14.739440055000006 L 34.00825121700001,14.745408636000008 L 34.00011697400001,14.748571871999994 L 33.967877974000004,14.761925871999994 L 33.95989168700001,14.765439946999997 L 33.94407998199999,14.772813082000003 L 33.93625456400001,14.776672141000002 L 33.90530156400001,14.792785141000003 L 33.897648888999996,14.796983583000005 L 33.88253401800001,14.805710378000006 L 33.875071821999995,14.810238731999993 L 33.845641822,14.828988731999994 L 33.838389433999986,14.833834790000006 L 33.824102851999996,14.843838517000005 L 33.81706865799999,14.848996186000004 L 33.78938365799999,14.870239186000004 L 33.782576699999986,14.875702294 L 33.76920762200001,14.886920297999993 L 33.762645502999995,14.892675194000006 L 33.73691850299999,14.916250194000005 L 33.73061689500001,14.922282740999997 L 33.718282740999996,14.934616894999996 L 33.712250194000006,14.940918503000006 L 33.688675194000005,14.966645503000006 L 33.682920298000006,14.973207621999993 L 33.671702294,14.986576700000002 L 33.667028647000016,14.9924 L 33.30605404216823,14.9924 L 33.312570808,14.994299413000002 z" /><path fill-rule="evenodd" fill="#66cc99" stroke="#555555" stroke-width="0.0" opacity="0.6" d="M 35.95194963100001,16.645685604 L 35.95575465799999,16.654734650000005 L 35.963804143999994,16.672635136999993 L 35.972722268999995,16.690119092999996 L 35.98248754800001,16.707144397 L 35.99307645699999,16.723670034999998 L 36.00446348500002,16.739656193000005 L 36.01662120100001,16.75506436 L 36.029520315,16.769857416999997 L 36.043129752000006,16.783999725999998 L 36.053724090906414,16.79397897072248 L 36.05459136399999,16.791748783000006 L 36.060559944999994,16.775350037 L 36.063365289000004,16.767085533999996 L 36.07385828900001,16.733804533999994 L 36.07629941299999,16.725429192 L 36.08081409900001,16.708580021 L 36.082887661000015,16.700106191 L 36.09044066100002,16.666038191 L 36.092143618,16.657476887999998 L 36.09517433899999,16.640288128999995 L 36.096502104,16.631660672000006 L 36.101056104,16.597063672000004 L 36.102005462000015,16.588394317000002 L 36.10352533199999,16.571022463 L 36.104095842999996,16.562319963 L 36.105618842999995,16.527457963 L 36.105809421000004,16.518728981000006 L 36.105809421000004,16.501271018999994 L 36.105618842999995,16.492542037 L 36.104095842999996,16.457680037 L 36.10352533199999,16.448977537 L 36.102005462000015,16.431605682999997 L 36.101056104,16.422936327999995 L 36.096502104,16.388339327999994 L 36.09517433899999,16.37971187100001 L 36.092143618,16.362523112000005 L 36.09044066100002,16.353961809 L 36.082887661000015,16.319893809 L 36.08081409900001,16.311419979000004 L 36.07629941299999,16.294570808 L 36.07385828900001,16.286195466000006 L 36.063365289000004,16.252914466000007 L 36.060559944999994,16.244649963 L 36.05459136399999,16.228251216999993 L 36.05142812799999,16.220116974000007 L 36.03807412799999,16.187877974000006 L 36.034560053,16.179891687000005 L 36.02718691800001,16.164079981999993 L 36.023327859,16.156254563999994 L 36.007214858999994,16.125301563999997 L 36.003016417,16.117648888999998 L 35.99428962200001,16.102534018000007 L 35.98976126800001,16.095071821999998 L 35.971011268000005,16.065641821999996 L 35.96616521000001,16.058389434 L 35.95616148300001,16.044102851999998 L 35.95100381400001,16.037068658000006 L 35.92976081400001,16.009383658000008 L 35.924297706,16.002576700000002 L 35.91307970199999,15.989207621999993 L 35.90732480599999,15.982645503000006 L 35.883749806,15.956918503000006 L 35.877717259,15.950616894999996 L 35.86538310499999,15.938282740999997 L 35.859081497000005,15.932250194000005 L 35.83335449700001,15.908675194000006 L 35.82679237799999,15.902920297999993 L 35.81342330000001,15.891702294 L 35.806616342000005,15.886239186000005 L 35.77893134200001,15.864996186000004 L 35.771897148,15.859838517000005 L 35.75761056600002,15.849834790000006 L 35.750358178000006,15.844988731999994 L 35.720928178,15.826238731999993 L 35.713465981999995,15.821710378000006 L 35.698351111,15.812983583000005 L 35.69069843599999,15.808785141000003 L 35.65974543599999,15.792672141000002 L 35.651920018000006,15.788813082000003 L 35.636108312999994,15.781439946999997 L 35.62812202599999,15.777925871999994 L 35.60873082273072,15.76989367098701 L 35.95194963100001,16.645685604 z" /><path fill-rule="evenodd" fill="#66cc99" stroke="#555555" stroke-width="0.0" opacity="0.6" d="M 29.882032786858886,22.5224 L 29.867202536000015,22.523128563999997 L 29.877128981999995,22.522640908999996 L 29.882032789409966,22.5224 L 29.882032786858886,22.5224 z" /><path fill-rule="evenodd" fill="#66cc99" stroke="#555555" stroke-width="0.0" opacity="0.6" d="M 23.93,19.904189622924715 L 23.926320493999988,19.902065210999996 L 23.904249729000004,19.888004293999998 L 23.89710853999999,19.883003984 L 23.876348097000005,19.867074272 L 23.869666742000014,19.861467941 L 23.850374602,19.843789540999992 L 23.844210458999992,19.837625398 L 23.826532058999984,19.818333258000003 L 23.820925727999985,19.811651902999998 L 23.804996016000004,19.790891459999994 L 23.799995706,19.783750271 L 23.785934789000006,19.761679505999997 L 23.781574907000007,19.75412814 L 23.769492254999996,19.730918171000003 L 23.76580683199999,19.723014909999996 L 23.755793379999997,19.698840604 L 23.752810511000007,19.690645136000008 L 23.74494191499999,19.665688045000003 L 23.742685645999998,19.657267467999993 L 23.737021916000007,19.631721066 L 23.73550727700001,19.62313078 L 23.732092210999994,19.597186325000003 L 23.731332636999994,19.588504528999998 L 23.730190578999995,19.562362409999995 L 23.730190578999995,19.553637590000005 L 23.731332636999994,19.527495471 L 23.732092210999994,19.518813674999997 L 23.73550727700001,19.49286922 L 23.737021916000007,19.484278934 L 23.742685645999998,19.458732532000006 L 23.74494191499999,19.450311954999997 L 23.752810511000007,19.425354863999992 L 23.755793379999997,19.417159396 L 23.765807085999995,19.392984479000003 L 23.769491898000002,19.38508239 L 23.78157429699999,19.361872157000004 L 23.78593561500001,19.354318321999997 L 23.799996062999995,19.332249044 L 23.80499554699999,19.325109150999992 L 23.820925727999985,19.304348097000002 L 23.826532058999984,19.297666741999997 L 23.844210458999992,19.278374602 L 23.850374602,19.272210459000007 L 23.869666742000014,19.254532059 L 23.876348097000005,19.248925728 L 23.89710915099999,19.232995547000005 L 23.904249044,19.227996062999992 L 23.926318321999997,19.213935614999993 L 23.933872157000007,19.209574297000007 L 23.957082389999986,19.197491898000003 L 23.964984479,19.193807085999996 L 23.989159395999998,19.183793379999994 L 23.99735486399999,19.180810511000008 L 24.022311955000013,19.172941915000006 L 24.030732532000005,19.170685646 L 24.056278933999984,19.165021915999993 L 24.06486922,19.163507276999994 L 24.09081367500001,19.160092210999995 L 24.099495470999987,19.159332636999995 L 24.125637590000004,19.158190578999996 L 24.134362409999998,19.158190578999996 L 24.160504529000015,19.159332636999995 L 24.169186324999988,19.160092210999995 L 24.19513078,19.163507276999994 L 24.203721066000014,19.165021915999993 L 24.229267467999996,19.170685646 L 24.231587689999998,19.171307342999995 L 24.233445123325467,19.17171139915198 L 24.510684761000007,18.89447176100001 L 24.514112821999998,18.890958513999998 L 24.520881691000014,18.883848949 L 24.524222499000015,18.880252630999998 L 24.530918312000008,18.872864939999996 L 24.537330178000005,18.865431805000007 L 24.54978145899999,18.850259875 L 24.555820875,18.842521078999997 L 24.561760324999987,18.834512657000005 L 24.567412741,18.826486842999994 L 24.578316956999988,18.810167531000005 L 24.583568757,18.801874033000008 L 24.588694643999993,18.793322005999997 L 24.59353317500001,18.784780805000008 L 24.602785312000005,18.767471275000005 L 24.607198918000012,18.758702945999996 L 24.61146187799999,18.749689673999995 L 24.615439926,18.740715341999994 L 24.622950879999994,18.722582294 L 24.626483787,18.713423577999993 L 24.629842764,18.704035864999994 L 24.632922018000006,18.694714828999995 L 24.638619456,18.675932894999995 L 24.641237639,18.666471995000006 L 24.643660286000014,18.656800248999996 L 24.64581109099999,18.647222276999994 L 24.649640143000006,18.627972335999996 L 24.65131838800001,18.618300365999996 L 24.65278137200001,18.608437731000006 L 24.653983016,18.598695063999994 L 24.655906805000008,18.579162503999992 L 24.656628951000005,18.569372611000002 L 24.657118182000012,18.559414069999992 L 24.65729885499999,18.554508781000003 L 24.657539764,18.544695246000007 L 24.6576,18.539787 L 24.6576,18.32103047700001 L 24.215822499000012,18.762807978 L 24.208394317000003,18.761994538000003 L 24.191022463,18.760474667999997 L 24.182319963,18.759904157000005 L 24.147457963,18.758381157000006 L 24.138728981000007,18.758190578999997 L 24.121271018999995,18.758190578999997 L 24.112542037,18.758381157000006 L 24.079653138990075,18.7598179590099 L 23.588578643999995,19.250892453999995 L 23.57539790900001,19.265435154 L 23.56370607800001,19.281199764 L 23.55361574700001,19.298034463 L 23.545224092999995,19.315777123999997 L 23.538611933,19.334256875 L 23.533842944000007,19.353295746000008 L 23.530963055000008,19.372710381999998 L 23.53,19.39231381 L 23.53,20.08680023545012 L 23.552250194000006,20.111081496999994 L 23.558282740999996,20.117383105000005 L 23.57061689500001,20.129717259000003 L 23.57691850299999,20.135749805999993 L 23.60264550299999,20.159324805999994 L 23.60920762200001,20.165079702000007 L 23.62257669999999,20.176297706 L 23.62938365799999,20.181760813999997 L 23.657068657999993,20.203003813999995 L 23.664104113000004,20.208162365999996 L 23.678393291999996,20.218167747999995 L 23.685647016000004,20.223014577999994 L 23.715078016000003,20.241764577999994 L 23.722537801999987,20.246291385000006 L 23.737647729000003,20.255015303000004 L 23.745297868999987,20.259212415000007 L 23.776249868999987,20.275325415000008 L 23.784076435000003,20.279185136999995 L 23.799890488000006,20.286559493000002 L 23.807877974000007,20.290074128000008 L 23.840116974000008,20.303428128000007 L 23.84825121700001,20.306591363999992 L 23.864649962999998,20.312559944999993 L 23.87291446599999,20.315365289000006 L 23.90619546599999,20.325858289000003 L 23.914570807999997,20.328299413000003 L 23.93,20.332433619787604 L 23.93,19.904189622924715 z" /><path fill-rule="evenodd" fill="#66cc99" stroke="#555555" stroke-width="0.0" opacity="0.6" d="M 24.147457963,11.392381157000004 L 24.138728981000007,11.392190578999996 L 24.121271018999995,11.392190578999996 L 24.112542037,11.392381157000004 L 24.077680037,11.393904157000005 L 24.068977537000002,11.394474667999997 L 24.051605683,11.395994538000002 L 24.04293632800001,11.396943895999998 L 24.00833932800001,11.401497895999999 L 23.99971187099999,11.402825660999998 L 23.98252311199999,11.405856382 L 23.973961808999984,11.407559339000002 L 23.939893808999987,11.415112339000002 L 23.931419979,11.417185900999993 L 23.914570807999997,11.421700586999998 L 23.90619546599999,11.424141710999995 L 23.87291446599999,11.434634710999996 L 23.864649962999998,11.437440055000007 L 23.84825121700001,11.443408636000008 L 23.840116974000008,11.446571871999994 L 23.807877974000007,11.459925871999994 L 23.799891687000006,11.463439946999998 L 23.784079981999994,11.470813082000003 L 23.77625456400001,11.474672141000003 L 23.764371439554928,11.48085806107831 L 23.76249272299999,11.495130780000002 L 23.76097808399999,11.503721065999999 L 23.755314354000003,11.529267467999995 L 23.75305808500001,11.537688045000001 L 23.745189488999994,11.562645136000008 L 23.742206620000005,11.570840604000002 L 23.732193168000013,11.595014909999996 L 23.728507745000005,11.602918171000004 L 23.716425092999994,11.62612814 L 23.712065210999995,11.633679505999996 L 23.698004294,11.655750270999999 L 23.693003983999997,11.662891459999994 L 23.677074272000016,11.683651902999998 L 23.671467941000014,11.690333258 L 23.65378954100001,11.709625398000002 L 23.647625398000002,11.715789540999994 L 23.628333257999987,11.733467940999999 L 23.621651902999997,11.739074272 L 23.600890849000006,11.755004452999994 L 23.593750956,11.760003937000006 L 23.575135911000014,11.771863674999997 L 23.558777717999995,11.783478677000002 L 23.543665481999994,11.796674096 L 23.529951270999998,11.811317154 L 23.517773083000005,11.827260505999996 L 23.507253460999994,11.844343722000003 L 23.498498256999998,11.862394902999997 L 23.491595571999998,11.881232409999997 L 23.48661486199999,11.900666691 L 23.483606247000008,11.920502188999995 L 23.4826,11.940539310000002 L 23.4826,12.661663320513622 L 23.48499618599999,12.664931341999992 L 23.506239185999988,12.692616341999992 L 23.511702294,12.699423299999998 L 23.52292029800001,12.712792378000007 L 23.528675194000005,12.719354496999994 L 23.552250194000006,12.745081496999994 L 23.558282740999996,12.751383105000004 L 23.57061689500001,12.763717259000003 L 23.57691850299999,12.769749805999995 L 23.60264550299999,12.793324805999994 L 23.60920762200001,12.799079702000007 L 23.62257669999999,12.810297706 L 23.62938365799999,12.815760813999995 L 23.6544,12.834956123999998 L 23.6544,18.20296952205068 L 23.73568476100001,18.121684761000008 L 23.739112821999996,18.118171514 L 23.745881691000015,18.111061949 L 23.749222499000012,18.107465630999997 L 23.755918312000006,18.10007794 L 23.762330178000003,18.092644805000006 L 23.774781458999993,18.077472875 L 23.780820875,18.069734078999996 L 23.78676032499999,18.061725657000004 L 23.792412740999996,18.053699842999993 L 23.803316956999986,18.037380531000004 L 23.808568757,18.029087033000007 L 23.813694643999995,18.020535005999996 L 23.818533175000013,18.011993805000007 L 23.827785312000007,17.994684275000004 L 23.832198918000014,17.985915945999995 L 23.83646187799999,17.976902673999994 L 23.840439926,17.967928341999993 L 23.847950879999996,17.949795294 L 23.851483787,17.940636577999996 L 23.854842763999997,17.931248864999993 L 23.857922018000007,17.921927828999998 L 23.863619456,17.903145894999994 L 23.866237638999998,17.893684995000005 L 23.868660286000015,17.884013249 L 23.87081109099999,17.874435276999996 L 23.874640143000008,17.855185335999995 L 23.876318388000012,17.845513365999995 L 23.87778137200001,17.835650731000005 L 23.878983016000003,17.825908063999997 L 23.880906805000006,17.806375503999995 L 23.881628951000003,17.796585611 L 23.88211818200001,17.786627069999994 L 23.882298854999988,17.781721781 L 23.882539763999997,17.771908246000006 L 23.8826,17.767 L 23.8826,12.505871424654305 L 23.876348097000005,12.501074272 L 23.869666742000014,12.495467941 L 23.850374602,12.477789540999993 L 23.844210458999992,12.471625398000002 L 23.826532058999984,12.452333258000001 L 23.820925727999985,12.445651902999996 L 23.804996016000004,12.424891459999994 L 23.799995706,12.417750270999997 L 23.785934789000006,12.395679505999997 L 23.781574907000007,12.388128140000001 L 23.769492254999996,12.364918171000005 L 23.76580683199999,12.357014909999997 L 23.755793379999997,12.332840604000003 L 23.752810511000007,12.324645136000008 L 23.74494191499999,12.299688045000002 L 23.742685645999998,12.291267467999996 L 23.737021916000007,12.265721066 L 23.73550727700001,12.25713078 L 23.732092210999994,12.231186325000003 L 23.731332636999994,12.222504528999998 L 23.730190578999995,12.196362409999997 L 23.730190578999995,12.187637590000003 L 23.731332636999994,12.161495471 L 23.732092210999994,12.152813674999997 L 23.73550727700001,12.12686922 L 23.737021916000007,12.118278934000001 L 23.742685645999998,12.092732532000005 L 23.74494191499999,12.084311954999999 L 23.752810511000007,12.059354863999992 L 23.755793379999997,12.051159395999997 L 23.765807085999995,12.026984479000003 L 23.769491898000002,12.019082390000001 L 23.78157429699999,11.995872157000004 L 23.78593561500001,11.988318321999996 L 23.799996062999995,11.966249044 L 23.80499554699999,11.959109150999993 L 23.820925727999985,11.938348097000002 L 23.826532058999984,11.931666741999999 L 23.844210458999992,11.912374601999998 L 23.850374602,11.906210459000006 L 23.869666742000014,11.888532059000001 L 23.876348097000005,11.882925728 L 23.89710915099999,11.866995547000005 L 23.904249044,11.861996062999994 L 23.926318321999997,11.847935614999995 L 23.933872157000007,11.843574297000005 L 23.957082389999986,11.831491898000001 L 23.964984479,11.827807085999995 L 23.989159395999998,11.817793379999996 L 23.99735486399999,11.814810511000008 L 24.022311955000013,11.806941915000007 L 24.030732532000005,11.804685645999998 L 24.056278933999984,11.799021915999994 L 24.06486922,11.797507276999996 L 24.07914172449753,11.795628588669702 L 24.085325414999993,11.783750130999998 L 24.089185136999994,11.775923564999998 L 24.096559493,11.760109511999994 L 24.100074127999992,11.752122025999993 L 24.113428127999992,11.719883025999993 L 24.116591363999994,11.711748783000008 L 24.122559944999992,11.695350037 L 24.125365289000005,11.687085533999994 L 24.135858289000005,11.653804533999994 L 24.138299412999988,11.645429192000002 L 24.142814099000006,11.628580020999998 L 24.144887661000013,11.620106191 L 24.152440661000014,11.586038191 L 24.154143618,11.577476887999996 L 24.157174338999987,11.560288128999993 L 24.158502104000004,11.551660672000006 L 24.163056104000002,11.517063672000006 L 24.164005462000013,11.508394317000002 L 24.165525331999987,11.491022463 L 24.166095842999994,11.482319963 L 24.167618842999996,11.447457963 L 24.167809421000005,11.438728981000006 L 24.167809421000005,11.421271018999994 L 24.167618842999996,11.412542037 L 24.166774950730115,11.3932250492699 L 24.147457963,11.392381157000004 z" /><path fill-rule="evenodd" fill="#66cc99" stroke="#555555" stroke-width="0.0" opacity="0.6" d="M 34.76519565002176,17.099 L 34.77864550299999,17.111324805999995 L 34.78520762200001,17.11707970200001 L 34.79857669999999,17.128297706 L 34.80538365799999,17.133760813999995 L 34.833068657999995,17.155003813999997 L 34.840104113,17.160162365999998 L 34.854393292,17.170167747999997 L 34.861647016,17.175014577999995 L 34.891078016,17.193764577999993 L 34.898537801999986,17.198291385000005 L 34.913647729000004,17.207015303000002 L 34.921297868999986,17.211212415000006 L 34.952249868999985,17.227325415000006 L 34.960076435000005,17.231185136999994 L 34.975890488000005,17.238559493 L 34.98387797400001,17.242074128000006 L 35.016116974000006,17.255428128000005 L 35.02425121700001,17.258591363999994 L 35.040649963,17.26455994499999 L 35.04891446599999,17.267365289000004 L 35.08219546599999,17.277858289000005 L 35.090570807999995,17.280299413 L 35.107419979,17.284814099000005 L 35.115893808999985,17.286887660999998 L 35.14996180899998,17.294440661 L 35.15852311199999,17.296143618000002 L 35.17571187099999,17.299174339 L 35.18433932800001,17.300502104000003 L 35.21893632800001,17.305056104000002 L 35.227605683,17.306005461999998 L 35.244977537000004,17.307525332 L 35.253680037,17.308095842999993 L 35.288542037,17.309618842999996 L 35.29727101899999,17.309809421000004 L 35.31472898100001,17.309809421000004 L 35.323457963,17.309618842999996 L 35.358319963,17.308095842999993 L 35.367022463,17.307525332 L 35.384394317,17.306005461999998 L 35.39306367199999,17.305056104000002 L 35.42766067199999,17.300502104000003 L 35.436288129000005,17.299174339 L 35.45347688800001,17.296143618000002 L 35.46203819100001,17.294440661 L 35.49610619100002,17.286887660999998 L 35.504580020999995,17.284814099000005 L 35.521429192,17.280299413 L 35.52980453400001,17.277858289000005 L 35.56308553400001,17.267365289000004 L 35.571350037,17.26455994499999 L 35.587748782999995,17.258591363999994 L 35.595883025999996,17.255428128000005 L 35.62812202599999,17.242074128000006 L 35.636108312999994,17.238560053000004 L 35.651920018000006,17.231186918 L 35.65974543599999,17.227327859 L 35.69069843599999,17.211214859 L 35.698351111,17.207016416999995 L 35.713465981999995,17.198289621999994 L 35.720928178,17.193761268000006 L 35.750358178000006,17.175011268000006 L 35.75761056600002,17.170165209999993 L 35.771897148,17.160161482999996 L 35.77893134200001,17.155003813999997 L 35.806616342000005,17.133760813999995 L 35.81342330000001,17.128297706 L 35.82679237799999,17.11707970200001 L 35.83335449700001,17.111324805999995 L 35.846804349978235,17.099 L 34.76519565002176,17.099 z" /><path fill-rule="evenodd" fill="#66cc99" stroke="#555555" stroke-width="0.0" opacity="0.6" d="M 28.1876,18.33740678180392 L 28.168374601999997,18.319789540999995 L 28.16221045899999,18.313625398000003 L 28.144532058999985,18.294333258 L 28.138925727999986,18.287651902999997 L 28.122996016000002,18.266891459999993 L 28.117995706,18.259750270999998 L 28.103934789000004,18.237679505999996 L 28.099574907000004,18.23012814 L 28.087492254999994,18.206918171000005 L 28.083806831999986,18.199014909999995 L 28.073793379999994,18.174840604000003 L 28.07081051100001,18.166645136000007 L 28.062941914999993,18.141688045000002 L 28.060685646,18.133267467999996 L 28.05502191600001,18.107721066 L 28.05350727700001,18.09913078 L 28.050092210999996,18.073186325 L 28.049332636999996,18.064504529 L 28.048190578999996,18.038362409999998 L 28.048190578999996,18.029637590000004 L 28.049332636999996,18.003495471 L 28.050092210999996,17.994813674999996 L 28.05350727700001,17.96886922 L 28.05502191600001,17.960278934 L 28.060685646,17.934732532000005 L 28.062941914999993,17.926311955 L 28.07081051100001,17.90135486399999 L 28.073793379999994,17.893159395999998 L 28.083807085999997,17.868984479 L 28.087491898000003,17.86108239 L 28.09957429699999,17.837872157000007 L 28.103935615000008,17.830318321999997 L 28.117996062999993,17.808249044 L 28.12299554699999,17.80110915099999 L 28.138925727999986,17.780348097000005 L 28.144532058999985,17.773666742 L 28.16221045899999,17.754374602 L 28.168374601999997,17.748210459000006 L 28.1876,17.73059321819608 L 28.1876,16.862189622924717 L 28.183920493999988,16.860065210999995 L 28.161849729000004,16.846004294 L 28.15470853999999,16.841003983999997 L 28.133948097,16.825074272 L 28.127266742000014,16.819467941 L 28.107974602,16.801789540999994 L 28.101810458999992,16.795625398000002 L 28.084132058999984,16.776333258 L 28.078525727999985,16.769651902999996 L 28.062596016000004,16.748891459999992 L 28.057595706,16.741750270999997 L 28.043534789000006,16.719679506 L 28.039174907000007,16.71212814 L 28.027092254999996,16.688918171000005 L 28.02340683199999,16.681014909999995 L 28.013393379999997,16.656840604000003 L 28.010410511000007,16.648645136000006 L 28.00254191499999,16.623688045 L 28.000285646,16.615267467999995 L 27.994621916000007,16.589721066 L 27.99310727700001,16.581130780000002 L 27.989692210999994,16.555186325000005 L 27.988932636999994,16.546504529 L 27.987790578999995,16.520362409999997 L 27.987790578999995,16.511637590000003 L 27.988932636999994,16.485495471 L 27.989692210999994,16.476813674999995 L 27.99310727700001,16.450869219999998 L 27.994621916000007,16.442278934 L 28.000285646,16.416732532000005 L 28.00254191499999,16.408311955 L 28.010410511000007,16.383354863999994 L 28.013393379999997,16.375159395999997 L 28.023407085999995,16.350984479 L 28.027091898000002,16.34308239 L 28.03917429699999,16.319872157000006 L 28.04353561500001,16.312318321999996 L 28.057596062999995,16.290249044 L 28.06259554699999,16.283109150999994 L 28.078525727999985,16.262348097000004 L 28.084132058999984,16.255666742 L 28.098672022000013,16.23979952599999 L 28.10585121700001,16.242591363999992 L 28.122249962999998,16.248559944999993 L 28.13051446599999,16.251365289000006 L 28.16379546599999,16.261858289000006 L 28.172170807999997,16.264299413000003 L 28.1876,16.268433619787604 L 28.1876,15.741566380212396 L 28.172170807999997,15.745700586999998 L 28.16379546599999,15.748141710999995 L 28.13051446599999,15.758634710999996 L 28.122249962999998,15.761440055000007 L 28.10585121700001,15.767408636000008 L 28.098672022000013,15.770200474000006 L 28.084132058999984,15.754333258 L 28.078525727999985,15.747651902999998 L 28.062596016000004,15.726891459999994 L 28.057595706,15.719750270999997 L 28.043534789000006,15.697679505999997 L 28.039174907000007,15.69012814 L 28.027092254999996,15.666918171000004 L 28.02340683199999,15.659014909999996 L 28.013393379999997,15.634840604000003 L 28.010410511000007,15.626645136000008 L 28.00254191499999,15.601688045000001 L 28.000285646,15.593267467999995 L 27.994621916000007,15.567721065999999 L 27.99310727700001,15.559130780000002 L 27.989692210999994,15.533186325000003 L 27.988932636999994,15.524504529 L 27.987790578999995,15.498362409999997 L 27.987790578999995,15.489637590000003 L 27.988932636999994,15.463495471000002 L 27.989692210999994,15.454813674999997 L 27.99310727700001,15.42886922 L 27.994621916000007,15.420278934 L 28.000285646,15.394732532000006 L 28.00254191499999,15.386311954999998 L 28.010410511000007,15.361354863999992 L 28.013393379999997,15.353159395999997 L 28.023407085999995,15.328984479000002 L 28.027091898000002,15.32108239 L 28.03917429699999,15.297872157000006 L 28.04353561500001,15.290318321999997 L 28.057596062999995,15.268249044 L 28.06259554699999,15.261109150999992 L 28.078525727999985,15.240348097000004 L 28.084132058999984,15.233666741999999 L 28.101810458999992,15.214374601999998 L 28.107974602,15.208210459000007 L 28.127266742000014,15.190532059 L 28.133948097,15.184925728 L 28.15470915099999,15.168995547000005 L 28.161849044,15.163996062999994 L 28.183918321999997,15.149935614999995 L 28.1876,15.147809943929404 L 28.1876,15.100971353 L 28.193423300000013,15.096297706 L 28.206792377999992,15.085079702000007 L 28.213354497000008,15.079324805999994 L 28.239081497000008,15.055749805999994 L 28.245383104999988,15.049717259000003 L 28.257717259000003,15.037383105000004 L 28.263749805999993,15.031081496999994 L 28.287324805999994,15.005354496999994 L 28.293079701999993,14.998792378000006 L 28.304297706,14.985423299999997 L 28.30976081400001,14.978616341999993 L 28.33100381400001,14.950931341999993 L 28.336162365999996,14.943895886999995 L 28.346167747999996,14.929606708000005 L 28.351014578000008,14.922352983999998 L 28.36976457800001,14.892921983999997 L 28.37429138499999,14.885462197999999 L 28.383015303000004,14.870352270999998 L 28.387212414999993,14.862702130999997 L 28.40332541499999,14.831750130999998 L 28.407185136999995,14.823923564999998 L 28.414559493000002,14.808109511999994 L 28.41807412799999,14.800122025999993 L 28.43142812799999,14.767883025999993 L 28.434591363999992,14.759748783000008 L 28.440559944999993,14.743350037 L 28.443365289000006,14.735085533999994 L 28.453858289000003,14.701804533999994 L 28.455242936593653,14.697053895709425 L 28.448622463,14.696474667999997 L 28.439919963,14.695904157000005 L 28.405057963,14.694381157000006 L 28.396328981000007,14.694190578999995 L 28.378871018999995,14.694190578999995 L 28.370142037,14.694381157000006 L 28.335280037,14.695904157000005 L 28.326577537000002,14.696474667999997 L 28.309205683,14.697994538000003 L 28.30053632800001,14.698943895999998 L 28.26593932800001,14.703497895999998 L 28.25731187099999,14.704825661 L 28.24012311199999,14.707856382 L 28.231561808999984,14.709559339000002 L 28.197493808999987,14.717112339000002 L 28.189019979,14.719185900999992 L 28.172170807999997,14.723700586999998 L 28.16379546599999,14.726141710999995 L 28.13051446599999,14.736634710999995 L 28.122249962999998,14.739440055000006 L 28.10585121700001,14.745408636000008 L 28.097716974000008,14.748571871999994 L 28.065477974000007,14.761925871999994 L 28.057491687000006,14.765439946999997 L 28.041679981999994,14.772813082000003 L 28.03385456400001,14.776672141000002 L 28.00290156400001,14.792785141000003 L 27.995248889,14.796983583000005 L 27.980134018000008,14.805710378000006 L 27.972671821999995,14.810238731999993 L 27.943241821999997,14.828988731999994 L 27.935989433999985,14.833834790000006 L 27.921702852,14.843838517000005 L 27.914668657999993,14.848996186000004 L 27.88698365799999,14.870239186000004 L 27.88017669999999,14.875702294 L 27.86680762200001,14.886920297999993 L 27.86024550299999,14.892675194000006 L 27.83451850299999,14.916250194000005 L 27.82821689500001,14.922282740999997 L 27.815882740999996,14.934616894999996 L 27.809850194000006,14.940918503000006 L 27.79076497012651,14.961745886015624 L 27.788505597000004,14.977460341999993 L 27.7876,14.996471353 L 27.7876,17.04480023545012 L 27.809850194000006,17.069081496999996 L 27.815882740999996,17.075383105000004 L 27.82821689500001,17.087717259000005 L 27.83451850299999,17.093749805999995 L 27.86024550299999,17.117324805999996 L 27.86680762200001,17.123079702000005 L 27.88017669999999,17.134297706 L 27.88698365799999,17.139760813999995 L 27.914668657999993,17.161003813999997 L 27.921704113000004,17.166162366 L 27.935993291999996,17.176167747999997 L 27.943247016000004,17.181014577999996 L 27.972678016000003,17.199764577999993 L 27.980137801999987,17.204291385000005 L 27.995247729000003,17.213015303000002 L 28.002897868999987,17.217212415000006 L 28.033849868999987,17.233325415000007 L 28.041676435000003,17.237185136999994 L 28.057490488000006,17.244559493 L 28.065477974000007,17.248074128000006 L 28.097716974000008,17.261428128000006 L 28.10585121700001,17.264591363999994 L 28.122249962999998,17.27055994499999 L 28.13051446599999,17.273365289000004 L 28.16379546599999,17.283858289000005 L 28.167524546999992,17.284945187999995 L 28.166251217000006,17.285408636000007 L 28.158116974000006,17.288571871999995 L 28.12587797400001,17.301925871999995 L 28.117891687000007,17.305439946999996 L 28.102079981999992,17.312813082 L 28.09425456400001,17.316672141 L 28.06330156400001,17.332785141000002 L 28.055648888999997,17.336983583000006 L 28.040534018000006,17.345710378000007 L 28.033071821999997,17.350238731999994 L 28.003641821999995,17.368988731999995 L 27.996389433999987,17.373834790000007 L 27.982102851999997,17.383838517000004 L 27.97506865799999,17.388996186000004 L 27.947383657999993,17.410239186000005 L 27.940576699999987,17.415702294 L 27.927207622000008,17.42692029799999 L 27.920645502999992,17.432675194000005 L 27.894918502999992,17.456250194000006 L 27.88861689500001,17.462282740999996 L 27.876282740999997,17.474616894999997 L 27.870250194000004,17.480918503000005 L 27.846675194000007,17.506645503000005 L 27.840920298000007,17.513207621999992 L 27.829702294,17.526576700000003 L 27.82423918599999,17.53338365800001 L 27.80299618599999,17.561068658000007 L 27.797838516999988,17.568102852 L 27.78783478999999,17.582389434 L 27.7876,17.582740809938638 L 27.7876,18.48525912165873 L 27.787832252000005,18.485606708000006 L 27.797837634000004,18.499895886999994 L 27.80299618599999,18.506931341999994 L 27.82423918599999,18.534616341999993 L 27.829702294,18.541423299999998 L 27.840920298000007,18.554792378000005 L 27.846675194000007,18.561354496999993 L 27.870250194000004,18.587081496999993 L 27.876282740999997,18.593383105000004 L 27.88861689500001,18.605717259000002 L 27.894918502999992,18.611749805999995 L 27.920645502999992,18.635324805999993 L 27.927207622000008,18.641079702000006 L 27.940576699999987,18.652297706 L 27.947383657999993,18.657760813999996 L 27.97506865799999,18.679003813999994 L 27.982104113000005,18.684162365999995 L 27.996393291999997,18.694167747999995 L 28.003647016000002,18.699014577999993 L 28.033078016,18.717764577999993 L 28.040537801999985,18.722291385000005 L 28.055647729000004,18.731015303000003 L 28.06329786899999,18.735212415000007 L 28.094249868999988,18.751325415000007 L 28.102076435,18.755185136999994 L 28.117890488000004,18.762559493 L 28.12587797400001,18.766074128000007 L 28.158116974000006,18.779428128000006 L 28.166251217000006,18.78259136399999 L 28.182649963,18.788559944999992 L 28.1876,18.7902402101772 L 28.1876,18.33740678180392 z" /><path fill-rule="evenodd" fill="#66cc99" stroke="#555555" stroke-width="0.0" opacity="0.6" d="M 28.07069843599999,13.776785141000003 L 28.03974543599999,13.760672141000002 L 28.031920018000008,13.756813082000003 L 28.016108312999993,13.749439946999997 L 28.00812202599999,13.745925871999994 L 27.975883025999995,13.732571871999994 L 27.967748782999994,13.729408636000008 L 27.951350037,13.723440055000006 L 27.94308553400001,13.720634710999995 L 27.90980453400001,13.710141710999995 L 27.901429192000002,13.707700586999998 L 27.884580020999998,13.703185900999992 L 27.876106191000016,13.701112339000002 L 27.842038191000015,13.693559339000002 L 27.83347688800001,13.691856382 L 27.816288129000007,13.688825661 L 27.80766067199999,13.687497895999998 L 27.773063671999992,13.682943895999998 L 27.764394317,13.681994538000003 L 27.747022463,13.680474667999997 L 27.738319963,13.679904157000005 L 27.703457962999998,13.678381157000006 L 27.694728981000008,13.678190578999995 L 27.677271018999996,13.678190578999995 L 27.668542037,13.678381157000006 L 27.633680037,13.679904157000005 L 27.624977537,13.680474667999997 L 27.60988935973081,13.681794738269195 L 27.141178643999993,14.150505453999996 L 27.12799790900001,14.165048153999999 L 27.116306078000008,14.180812763999999 L 27.106215747000007,14.197647463 L 27.097824092999996,14.215390123999997 L 27.091211932999997,14.233869875 L 27.086442944000005,14.252908746000006 L 27.083563055000006,14.272323382 L 27.0826,14.291926810000003 L 27.0826,15.002988221401601 L 27.084675194000006,15.005354496999994 L 27.108250194000007,15.031081496999994 L 27.114282740999997,15.037383105000004 L 27.126616895000012,15.049717259000003 L 27.132918502999992,15.055749805999994 L 27.158645502999992,15.079324805999994 L 27.165207622000008,15.085079702000007 L 27.178576699999986,15.096297706 L 27.1844,15.100971353 L 27.1844,18.228969522186638 L 27.335684761000007,18.077684761000008 L 27.339112821999997,18.074171514 L 27.345881691000013,18.067061949 L 27.349222499000014,18.063465630999996 L 27.355918312000007,18.056077939999998 L 27.362330178000004,18.048644805000006 L 27.37478145899999,18.033472875 L 27.380820875,18.025734078999996 L 27.386760324999987,18.017725657000007 L 27.392412740999998,18.009699842999996 L 27.403316956999987,17.993380531000003 L 27.408568756999998,17.985087033000006 L 27.413694643999992,17.976535006 L 27.41853317500001,17.967993805000006 L 27.427785312000008,17.950684275000008 L 27.43219891800001,17.941915945999995 L 27.436461877999992,17.932902673999994 L 27.440439926,17.923928341999993 L 27.447950879999997,17.905795294 L 27.451483787,17.896636577999995 L 27.454842764,17.887248864999993 L 27.457922018000005,17.877927828999997 L 27.463619456,17.859145894999997 L 27.466237639,17.849684995000004 L 27.468660286000013,17.840013249 L 27.47081109099999,17.830435276999996 L 27.474640143000006,17.811185335999994 L 27.47631838800001,17.801513366 L 27.47778137200001,17.791650731000008 L 27.478983016000004,17.781908063999996 L 27.480906805000007,17.762375503999994 L 27.481628951000005,17.752585611 L 27.48211818200001,17.742627069999994 L 27.48229885499999,17.737721781000005 L 27.482539764,17.727908246000005 L 27.4826,17.723 L 27.4826,14.822226587449014 L 27.48232049399999,14.822065210999995 L 27.460249729,14.808004294 L 27.45310853999999,14.803003983999997 L 27.432348097000002,14.787074272 L 27.425666742000015,14.781467940999999 L 27.406374602,14.763789540999994 L 27.400210458999993,14.757625398000002 L 27.382532058999985,14.738333258 L 27.376925727999986,14.731651902999998 L 27.360996016,14.710891459999994 L 27.355995706,14.703750270999997 L 27.341934789000003,14.681679505999996 L 27.337574907000004,14.67412814 L 27.325492254999997,14.650918171000004 L 27.321806831999986,14.643014909999996 L 27.311793379999994,14.618840604000003 L 27.308810511000008,14.610645136000008 L 27.300941914999992,14.585688045000001 L 27.298685646,14.577267467999995 L 27.293021916000008,14.551721065999999 L 27.29150727700001,14.543130780000002 L 27.288092210999995,14.517186325000003 L 27.287332636999995,14.508504529 L 27.286190578999996,14.482362409999997 L 27.286190578999996,14.473637590000003 L 27.287332636999995,14.447495471000002 L 27.288092210999995,14.438813674999997 L 27.29150727700001,14.41286922 L 27.293021916000008,14.404278934 L 27.298685646,14.378732532000006 L 27.300941914999992,14.370311954999998 L 27.308810511000008,14.345354863999992 L 27.311793379999994,14.337159395999997 L 27.321807085999996,14.312984479000002 L 27.325491898000003,14.30508239 L 27.337574296999993,14.281872157000006 L 27.34193561500001,14.274318321999997 L 27.355996062999992,14.252249044 L 27.36099554699999,14.245109150999992 L 27.376925727999986,14.224348097000004 L 27.382532058999985,14.217666741999999 L 27.400210458999993,14.198374601999998 L 27.406374602,14.192210459000007 L 27.425666742000015,14.174532059 L 27.432348097000002,14.168925728 L 27.453109150999992,14.152995547000005 L 27.460249044,14.147996062999994 L 27.482318321999998,14.133935614999995 L 27.489872157000004,14.129574297000007 L 27.513082389999987,14.117491898000003 L 27.520984479000003,14.113807085999996 L 27.545159396,14.103793379999995 L 27.553354863999992,14.100810511000008 L 27.578311955000014,14.092941915000006 L 27.586732532000006,14.090685645999997 L 27.612278933999985,14.085021915999993 L 27.62086922,14.083507276999995 L 27.64681367500001,14.080092210999995 L 27.655495470999988,14.079332636999995 L 27.681637590000005,14.078190578999996 L 27.690362409999995,14.078190578999996 L 27.716504529000016,14.079332636999995 L 27.72518632499999,14.080092210999995 L 27.75113078,14.083507276999995 L 27.759721066000015,14.085021915999993 L 27.77005625754151,14.087313265458494 L 28.077082132305204,13.780287390694797 L 28.07069843599999,13.776785141000003 z" /><path fill-rule="evenodd" fill="#66cc99" stroke="#555555" stroke-width="0.0" opacity="0.6" d="M 26.614580021,18.783185900999992 L 26.606106191000016,18.781112339 L 26.572038191000015,18.773559339000002 L 26.56347688800001,18.771856382 L 26.546288129000008,18.768825660999997 L 26.53766067199999,18.767497896 L 26.503063671999993,18.762943896 L 26.494394317,18.761994538000003 L 26.477022463,18.760474667999997 L 26.468319963,18.759904157000005 L 26.433457963,18.758381157000006 L 26.424728981000005,18.758190578999997 L 26.407271018999992,18.758190578999997 L 26.398542037000002,18.758381157000006 L 26.363680037,18.759904157000005 L 26.354977537,18.760474667999997 L 26.337605683,18.761994538000003 L 26.328936328000008,18.762943896 L 26.29433932800001,18.767497896 L 26.285711870999993,18.768825660999997 L 26.26852311199999,18.771856382 L 26.259961808999986,18.773559339000002 L 26.225893808999984,18.781112339 L 26.217419979000002,18.783185900999992 L 26.200570808,18.787700586999996 L 26.19219546599999,18.790141710999997 L 26.15891446599999,18.800634710999997 L 26.150649963,18.803440055000006 L 26.134251217000006,18.809408636000008 L 26.126116974000006,18.812571871999992 L 26.09387797400001,18.825925871999996 L 26.085891687000007,18.829439946999997 L 26.070079981999992,18.836813082000003 L 26.06225456400001,18.840672141000002 L 26.03130156400001,18.856785141000003 L 26.023648888999997,18.860983583000003 L 26.008534018000006,18.869710378000008 L 26.001071821999997,18.874238731999995 L 25.97591572608584,18.89026580635917 L 25.983133037,18.889554963 L 26.002736465000005,18.888591908999995 L 26.01255,18.888351 L 26.04307728299999,18.888351 L 26.525018523000004,18.888351 L 26.626886213619976,18.786483309254365 L 26.614580021,18.783185900999992 z" /><path fill-rule="evenodd" fill="#66cc99" stroke="#555555" stroke-width="0.0" opacity="0.6" d="M 26.106925727999986,19.304348097000002 L 26.112532058999985,19.297666741999997 L 26.121068562123686,19.288351 L 26.04307728299999,19.288351 L 26.017459724000005,19.288351 L 26.012779905000002,19.288580905 L 26.01255,19.293260724000007 L 26.01255,19.400819523000003 L 26.1000150001747,19.313354522825314 L 26.106925727999986,19.304348097000002 z" /><path fill-rule="evenodd" fill="#66cc99" stroke="#555555" stroke-width="0.0" opacity="0.6" d="M 14.736095736000001,19.718135408000006 L 14.72746599430266,19.7194155096108 L 14.737186125651895,19.718081840628223 L 14.736095736000001,19.718135408000006 z" /><path fill-rule="evenodd" fill="#66cc99" stroke="#555555" stroke-width="0.0" opacity="0.6" d="M 14.716681099999994,19.721015297999994 L 14.70821843281138,19.723135085813745 L 14.717760983756154,19.720855112332313 L 14.716681099999994,19.721015297999994 z" /><path fill-rule="evenodd" fill="#66cc99" stroke="#555555" stroke-width="0.0" opacity="0.6" d="M 14.697642229000001,19.725784287 L 14.689428054156572,19.728723365472035 L 14.698701206579656,19.72551902692084 L 14.697642229000001,19.725784287 z" /><path fill-rule="evenodd" fill="#66cc99" stroke="#555555" stroke-width="0.0" opacity="0.6" d="M 14.679162477999986,19.732396446999996 L 14.671275925130308,19.7361265088512 L 14.680190368225455,19.73202866203183 L 14.679162477999986,19.732396446999996 z" /><path fill-rule="evenodd" fill="#66cc99" stroke="#555555" stroke-width="0.0" opacity="0.6" d="M 14.661419817000002,19.740788100999996 L 14.653936876639724,19.745273202729805 L 14.662406700412571,19.740321339890333 L 14.661419817000002,19.740788100999996 z" /><path fill-rule="evenodd" fill="#66cc99" stroke="#555555" stroke-width="0.0" opacity="0.6" d="M 14.644585118,19.750878430999993 L 14.637577807375997,19.756075406592206 L 14.645521499845415,19.750317185335533 L 14.644585118,19.750878430999993 z" /><path fill-rule="evenodd" fill="#66cc99" stroke="#555555" stroke-width="0.0" opacity="0.6" d="M 14.628820506999999,19.762570262999997 L 14.622356335222692,19.768429047204435 L 14.629697372429192,19.76191993529545 L 14.628820506999999,19.762570262999997 z" /><path fill-rule="evenodd" fill="#66cc99" stroke="#555555" stroke-width="0.0" opacity="0.6" d="M 14.614277807999999,19.775750997999996 L 14.608419046735465,19.782215144957437 L 14.615086702513784,19.775017858695595 L 14.614277807999999,19.775750997999996 z" /><path fill-rule="evenodd" fill="#66cc99" stroke="#555555" stroke-width="0.0" opacity="0.6" d="M 14.601097074,19.790293696999996 L 14.595900119243831,19.797300979085357 L 14.601830212707132,19.789484803083823 L 14.601097074,19.790293696999996 z" /><path fill-rule="evenodd" fill="#66cc99" stroke="#555555" stroke-width="0.0" opacity="0.6" d="M 14.589405242000014,19.806058306999997 L 14.58492011722529,19.81354128506683 L 14.59005556599465,19.805181446628676 L 14.589405242000014,19.806058306999997 z" /><path fill-rule="evenodd" fill="#66cc99" stroke="#555555" stroke-width="0.0" opacity="0.6" d="M 14.579314911000013,19.822893005999997 L 14.575584836780816,19.830779585959405 L 14.579876162218035,19.821956614981843 L 14.579314911000013,19.822893005999997 z" /><path fill-rule="evenodd" fill="#66cc99" stroke="#555555" stroke-width="0.0" opacity="0.6" d="M 14.570923257999986,19.840635666999997 L 14.56798417369166,19.84884985691248 L 14.571390020261287,19.839648781034885 L 14.570923257999986,19.840635666999997 z" /><path fill-rule="evenodd" fill="#66cc99" stroke="#555555" stroke-width="0.0" opacity="0.6" d="M 14.564311097000003,19.859115418 L 14.562191287017077,19.867578173692927 L 14.564678881551355,19.858087529094874 L 14.564311097000003,19.859115418 z" /><path fill-rule="evenodd" fill="#66cc99" stroke="#555555" stroke-width="0.0" opacity="0.6" d="M 14.55954210800001,19.878154289000005 L 14.558262006807745,19.886784031316832 L 14.559807371678085,19.87709529705274 L 14.55954210800001,19.878154289000005 z" /><path fill-rule="evenodd" fill="#66cc99" stroke="#555555" stroke-width="0.0" opacity="0.6" d="M 14.556662219000012,19.897568925999998 L 14.556234144078164,19.906282588157236 L 14.556822404275865,19.896489044454693 L 14.556662219000012,19.897568925999998 z" /><path fill-rule="evenodd" fill="#66cc99" stroke="#555555" stroke-width="0.0" opacity="0.6" d="M 14.555699164000005,19.917172354 L 14.556127240353405,19.925886045297386 L 14.55575273162067,19.916081960414232 L 14.555699164000005,19.917172354 z" /><path fill-rule="evenodd" fill="#66cc99" stroke="#555555" stroke-width="0.0" opacity="0.6" d="M 14.556662219000012,19.936775782000005 L 14.557942318686456,19.945405513720914 L 14.556608651572615,19.935685392348276 L 14.556662219000012,19.936775782000005 z" /><path fill-rule="evenodd" fill="#66cc99" stroke="#555555" stroke-width="0.0" opacity="0.6" d="M 14.55954210800001,19.956190418 L 14.561661907850414,19.964653133241683 L 14.559381922387987,19.95511053424418 L 14.55954210800001,19.956190418 z" /><path fill-rule="evenodd" fill="#66cc99" stroke="#555555" stroke-width="0.0" opacity="0.6" d="M 14.564311097000003,19.975229289000005 L 14.567250175916762,19.98344346384409 L 14.564045834432424,19.97417030148606 L 14.564311097000003,19.975229289000005 z" /><path fill-rule="evenodd" fill="#66cc99" stroke="#555555" stroke-width="0.0" opacity="0.6" d="M 14.570923257999986,19.993709040000006 L 14.574653319406927,20.001595592870117 L 14.570555476097494,19.992681158497973 L 14.570923257999986,19.993709040000006 z" /><path fill-rule="evenodd" fill="#66cc99" stroke="#555555" stroke-width="0.0" opacity="0.6" d="M 14.579314911000013,20.011451701000006 L 14.583800035779088,20.018934679074107 L 14.578848145946623,20.010464809131534 L 14.579314911000013,20.011451701000006 z" /><path fill-rule="evenodd" fill="#66cc99" stroke="#555555" stroke-width="0.0" opacity="0.6" d="M 14.589405242000014,20.028286400000006 L 14.59460221759212,20.035293710623876 L 14.588843996014356,20.02735001771152 L 14.589405242000014,20.028286400000006 z" /><path fill-rule="evenodd" fill="#66cc99" stroke="#555555" stroke-width="0.0" opacity="0.6" d="M 14.601097074,20.044051011000008 L 14.606955878238708,20.050515205372125 L 14.600446746295393,20.043174145570724 L 14.601097074,20.044051011000008 z" /><path fill-rule="evenodd" fill="#66cc99" stroke="#555555" stroke-width="0.0" opacity="0.6" d="M 14.614277807999999,20.058593709999993 L 14.62111849632603,20.064801302959292 L 14.61354466380614,20.057784810030164 L 14.614277807999999,20.058593709999993 z" /><path fill-rule="evenodd" fill="#66cc99" stroke="#555555" stroke-width="0.0" opacity="0.6" d="M 16.25676496908054,21.135395446566505 L 16.037809546000005,20.916440024000003 L 16.522348166999997,21.400978643999995 L 16.25676496908054,21.135395446566505 z" /><path fill-rule="evenodd" fill="#66cc99" stroke="#555555" stroke-width="0.0" opacity="0.6" d="M 15.72904656099999,21.715849937999995 L 15.73164643886292,21.712344408622144 L 15.725383231555998,21.719891799207538 L 15.72904656099999,21.715849937999995 z" /><path fill-rule="evenodd" fill="#66cc99" stroke="#555555" stroke-width="0.0" opacity="0.6" d="M 15.740738393000006,21.700085327999993 L 15.742982151239277,21.696341843808337 L 15.737488870583832,21.704466801628516 L 15.740738393000006,21.700085327999993 z" /><path fill-rule="evenodd" fill="#66cc99" stroke="#555555" stroke-width="0.0" opacity="0.6" d="M 15.750828724000007,21.683250628999993 L 15.75269475571853,21.679305236096234 L 15.748024304165511,21.687929520483674 L 15.750828724000007,21.683250628999993 z" /><path fill-rule="evenodd" fill="#66cc99" stroke="#555555" stroke-width="0.0" opacity="0.6" d="M 15.759220377000004,21.665507967999996 L 15.760690704303146,21.66139867869945 L 15.756888074721545,21.67043920725359 L 15.759220377000004,21.665507967999996 z" /><path fill-rule="evenodd" fill="#66cc99" stroke="#555555" stroke-width="0.0" opacity="0.6" d="M 15.765832537999987,21.647028216999992 L 15.766893003811031,21.642794600236357 L 15.763994813520432,21.65216431256521 L 15.765832537999987,21.647028216999992 z" /><path fill-rule="evenodd" fill="#66cc99" stroke="#555555" stroke-width="0.0" opacity="0.6" d="M 15.77060152700001,21.627989346 L 15.771241919656337,21.623672168858768 L 15.769276077877283,21.6332808354256 L 15.77060152700001,21.627989346 z" /><path fill-rule="evenodd" fill="#66cc99" stroke="#555555" stroke-width="0.0" opacity="0.6" d="M 15.773481416000008,21.608574709000006 L 15.773695567462564,21.604215557365702 L 15.772681006147653,21.61397063458425 L 15.773481416000008,21.608574709000006 z" /><path fill-rule="evenodd" fill="#66cc99" stroke="#555555" stroke-width="0.0" opacity="0.6" d="M 15.774444470999986,21.588971281000003 L 15.774230319606126,21.584612130763592 L 15.774176808495671,21.594419674530865 L 15.774444470999986,21.588971281000003 z" /><path fill-rule="evenodd" fill="#66cc99" stroke="#555555" stroke-width="0.0" opacity="0.6" d="M 15.773481416000008,21.569367853 L 15.77284102415061,21.565050681520923 L 15.77374907832691,21.574816242919265 L 15.773481416000008,21.569367853 z" /><path fill-rule="evenodd" fill="#66cc99" stroke="#555555" stroke-width="0.0" opacity="0.6" d="M 15.77060152700001,21.54995321699999 L 15.769541061776012,21.54571960257989 L 15.771401936890483,21.555349142563283 L 15.77060152700001,21.54995321699999 z" /><path fill-rule="evenodd" fill="#66cc99" stroke="#555555" stroke-width="0.0" opacity="0.6" d="M 15.765832537999987,21.530914346 L 15.764362213660746,21.52680506498301 L 15.767157985847325,21.53620583033405 L 15.765832537999987,21.530914346 z" /><path fill-rule="evenodd" fill="#66cc99" stroke="#555555" stroke-width="0.0" opacity="0.6" d="M 15.759220377000004,21.512434595 L 15.757354351872056,21.508489216030867 L 15.76105809751603,21.517570679487914 L 15.759220377000004,21.512434595 z" /><path fill-rule="evenodd" fill="#66cc99" stroke="#555555" stroke-width="0.0" opacity="0.6" d="M 15.750828724000007,21.494691934 L 15.748584969637156,21.490948456275778 L 15.753161022906273,21.49962316612372 L 15.750828724000007,21.494691934 z" /><path fill-rule="evenodd" fill="#66cc99" stroke="#555555" stroke-width="0.0" opacity="0.6" d="M 15.740738393000006,21.477857235 L 15.7381385240722,21.474351717447416 L 15.743542799304693,21.48253610391055 L 15.740738393000006,21.477857235 z" /><path fill-rule="evenodd" fill="#66cc99" stroke="#555555" stroke-width="0.0" opacity="0.6" d="M 15.72904656099999,21.462092623999997 L 15.726115599337577,21.458858806123303 L 15.732296076169611,21.4664740881356 L 15.72904656099999,21.462092623999997 z" /><path fill-rule="evenodd" fill="#66cc99" stroke="#555555" stroke-width="0.0" opacity="0.6" d="M 15.715865826999993,21.447549924999997 L 15.712706904287458,21.44469467992121 L 15.71952916252929,21.45159179292166 L 15.715865826999993,21.447549924999997 z" /><path fill-rule="evenodd" fill="#66cc99" stroke="#555555" stroke-width="0.0" opacity="0.6" d="M 14.636201224465937,20.07725472154455 L 14.627909650208414,20.070963945812853 L 14.628633245000005,20.071620573 L 14.636201224465937,20.07725472154455 z" /><path fill-rule="evenodd" fill="#66cc99" stroke="#555555" stroke-width="0.0" opacity="0.6" d="M 14.652449536547989,20.088185719663052 L 14.6434966508511,20.082685961961477 L 14.644182395999998,20.083196480000005 L 14.652449536547989,20.088185719663052 z" /><path fill-rule="evenodd" fill="#66cc99" stroke="#555555" stroke-width="0.0" opacity="0.6" d="M 14.669722775759846,20.097489200237735 L 14.660151839402168,20.092834078388034 L 14.660779185000003,20.093212682999997 L 14.669722775759846,20.097489200237735 z" /><path fill-rule="evenodd" fill="#66cc99" stroke="#555555" stroke-width="0.0" opacity="0.6" d="M 14.687882206602216,20.105074473363192 L 14.677716849681287,20.10131169120839 L 14.678267694000006,20.101575085999997 L 14.687882206602216,20.105074473363192 z" /><path fill-rule="evenodd" fill="#66cc99" stroke="#555555" stroke-width="0.0" opacity="0.6" d="M 14.706808837357253,20.11086471808456 L 14.696024649435998,20.108038072532178 L 14.696483629000008,20.108205127000005 L 14.706808837357253,20.11086471808456 z" /><path fill-rule="evenodd" fill="#66cc99" stroke="#555555" stroke-width="0.0" opacity="0.6" d="M 14.726460129697829,20.114792823985383 L 14.714901130376756,20.112949149664416 L 14.715255861000001,20.113040522 L 14.726460129697829,20.114792823985383 z" /><path fill-rule="evenodd" fill="#66cc99" stroke="#555555" stroke-width="0.0" opacity="0.6" d="M 14.747148444636583,20.116777871355133 L 14.734166783671887,20.115998113274976 L 14.734408034999996,20.116035843999995 L 14.747148444636583,20.116777871355133 z" /><path fill-rule="evenodd" fill="#66cc99" stroke="#555555" stroke-width="0.0" opacity="0.6" d="M 14.768274023000002,20.116599731000004 L 14.768276,20.116645 L 14.76827389500001,20.116596789000006 L 14.75363834047523,20.117155856081038 L 14.753760226999997,20.117162954999998 L 14.768274023000002,20.116599731000004 z" /><path fill-rule="evenodd" fill="#66cc99" stroke="#555555" stroke-width="0.0" opacity="0.6" d="M 15.634830541520923,20.987699707535207 L 15.634855722000003,20.987187147 L 15.635003210999995,20.983326105000003 L 15.634955,20.983324 L 15.635000268999994,20.983325977 L 15.634830541520923,20.987699707535207 z" /><path fill-rule="evenodd" fill="#66cc99" stroke="#555555" stroke-width="0.0" opacity="0.6" d="M 15.63444414394626,20.997961659993575 L 15.634481213999987,20.996991230000003 L 15.634474934165448,20.996863401932686 L 15.634437044999986,20.997839773000003 L 15.63444414394626,20.997961659993575 z" /><path fill-rule="evenodd" fill="#66cc99" stroke="#555555" stroke-width="0.0" opacity="0.6" d="M 15.634962625999988,21.006790599000006 L 15.634822127105922,21.004451528940603 L 15.63498562167245,21.007258686569767 L 15.634962625999988,21.006790599000006 z" /><path fill-rule="evenodd" fill="#66cc99" stroke="#555555" stroke-width="0.0" opacity="0.6" d="M 15.635601886595964,21.017433215503143 L 15.635550886000008,21.016584146 L 15.635514448801578,21.016338505804583 L 15.635564155999989,21.017191965000002 L 15.635601886595964,21.017433215503143 z" /><path fill-rule="evenodd" fill="#66cc99" stroke="#555555" stroke-width="0.0" opacity="0.6" d="M 15.636990488999993,21.026289158000008 L 15.636807166734487,21.02513981096481 L 15.637056174264849,21.026731972191065 L 15.636990488999993,21.026289158000008 z" /><path fill-rule="evenodd" fill="#66cc99" stroke="#555555" stroke-width="0.0" opacity="0.6" d="M 15.638650850146979,21.036698868891104 L 15.638535852999984,21.03597789 L 15.638446257732362,21.035620205390856 L 15.638559477999985,21.036344138999997 L 15.638650850146979,21.036698868891104 z" /><path fill-rule="evenodd" fill="#66cc99" stroke="#555555" stroke-width="0.0" opacity="0.6" d="M 15.640919772000014,21.045495027999998 L 15.640735292261184,21.044791202807634 L 15.641032276416391,21.04594417075792 L 15.640919772000014,21.045495027999998 z" /><path fill-rule="evenodd" fill="#66cc99" stroke="#555555" stroke-width="0.0" opacity="0.6" d="M 15.64356192658162,21.055575348129167 L 15.643407363000005,21.054985659999996 L 15.643242571522206,21.054525097965435 L 15.643394872999997,21.055116371000008 L 15.64356192658162,21.055575348129167 z" /><path fill-rule="evenodd" fill="#66cc99" stroke="#555555" stroke-width="0.0" opacity="0.6" d="M 15.646712659999997,21.064223345 L 15.646525543565899,21.063717839910165 L 15.646894253378749,21.064730864412574 L 15.646712659999997,21.064223345 z" /><path fill-rule="evenodd" fill="#66cc99" stroke="#555555" stroke-width="0.0" opacity="0.6" d="M 15.650288309245706,21.07388315126836 L 15.650118500999987,21.073424405 L 15.649857857325733,21.072873320373848 L 15.650024914000005,21.073332305999994 L 15.650288309245706,21.07388315126836 z" /><path fill-rule="evenodd" fill="#66cc99" stroke="#555555" stroke-width="0.0" opacity="0.6" d="M 15.65431332800001,21.082293622999995 L 15.654110811803431,21.081877249422163 L 15.65462440697366,21.082951344243586 L 15.65431332800001,21.082293622999995 z" /><path fill-rule="evenodd" fill="#66cc99" stroke="#555555" stroke-width="0.0" opacity="0.6" d="M 15.658765920990348,21.09144815956782 L 15.658604643999993,21.091116574 L 15.65822930049473,21.090490351008444 L 15.658387317000003,21.090820814999997 L 15.658765920990348,21.09144815956782 z" /><path fill-rule="evenodd" fill="#66cc99" stroke="#555555" stroke-width="0.0" opacity="0.6" d="M 15.663648599000007,21.099531904 L 15.663414294459493,21.099150486853002 L 15.664246945322871,21.10053018439804 L 15.663648599000007,21.099531904 z" /><path fill-rule="evenodd" fill="#66cc99" stroke="#555555" stroke-width="0.0" opacity="0.6" d="M 15.668914036355913,21.108103346888736 L 15.668784048000008,21.107891743 L 15.668277344543874,21.10720853201711 L 15.66840352000001,21.107417604000002 L 15.668914036355913,21.108103346888736 z" /><path fill-rule="evenodd" fill="#66cc99" stroke="#555555" stroke-width="0.0" opacity="0.6" d="M 15.674628583000004,21.115772186000004 L 15.674345283404321,21.115398782181547 L 15.676024630526186,21.117654538208217 L 15.674628583000004,21.115772186000004 z" /><path fill-rule="evenodd" fill="#66cc99" stroke="#555555" stroke-width="0.0" opacity="0.6" d="M 15.680636052448303,21.123690347875403 L 15.680558699,21.123588392000006 L 15.679906516676903,21.12286881938052 L 15.679979426999987,21.122966754999997 L 15.680636052448303,21.123690347875403 z" /><path fill-rule="evenodd" fill="#66cc99" stroke="#555555" stroke-width="0.0" opacity="0.6" d="M 15.687147486999988,21.130857998999996 L 15.686798697377027,21.130481504044592 L 15.693006289999992,21.137322192000003 L 15.687147486999988,21.130857998999996 z" /><path fill-rule="evenodd" fill="#66cc99" stroke="#555555" stroke-width="0.0" opacity="0.6" d="M 15.697681101171018,21.43165604063265 L 15.705013080914974,21.437740489103557 L 15.700901062999993,21.434023773000003 L 15.697681101171018,21.43165604063265 z" /><path fill-rule="evenodd" fill="#66cc99" stroke="#555555" stroke-width="0.0" opacity="0.6" d="M 15.681433742820502,21.420175810079947 L 15.689317089322538,21.42550573742214 L 15.684649916000009,21.422073827999995 L 15.681433742820502,21.420175810079947 z" /><path fill-rule="evenodd" fill="#66cc99" stroke="#555555" stroke-width="0.0" opacity="0.6" d="M 15.664125705766379,21.4103675178314 L 15.672479584137827,21.414891531936316 L 15.667277701999993,21.411821651999997 L 15.664125705766379,21.4103675178314 z" /><path fill-rule="evenodd" fill="#66cc99" stroke="#555555" stroke-width="0.0" opacity="0.6" d="M 15.645928344544947,21.402328182310118 L 15.654666413155944,21.4060035911081 L 15.648961138999999,21.403371533999994 L 15.645928344544947,21.402328182310118 z" /><path fill-rule="evenodd" fill="#66cc99" stroke="#555555" stroke-width="0.0" opacity="0.6" d="M 15.627021801997572,21.39613734563987 L 15.636052824080616,21.39893077403943 L 15.62988655399999,21.396809434 L 15.627021801997572,21.39613734563987 z" /><path fill-rule="evenodd" fill="#66cc99" stroke="#555555" stroke-width="0.0" opacity="0.6" d="M 15.607593210404366,21.391856277534394 L 15.616821682129503,21.39374433506535 L 15.61024798300001,21.392202105000003 L 15.607593210404366,21.391856277534394 z" /><path fill-rule="evenodd" fill="#66cc99" stroke="#555555" stroke-width="0.0" opacity="0.6" d="M 15.58783489529252,21.389527377596526 L 15.597161474699169,21.390497373676972 L 15.590245199999988,21.389596415999993 L 15.58783489529252,21.389527377596526 z" /><path fill-rule="evenodd" fill="#66cc99" stroke="#555555" stroke-width="0.0" opacity="0.6" d="M 15.567942397778243,21.38917374035929 L 15.577264210071712,21.389224601259187 L 15.570081682999998,21.389018871999994 L 15.567942397778243,21.38917374035929 z" /><path fill-rule="evenodd" fill="#66cc99" stroke="#555555" stroke-width="0.0" opacity="0.6" d="M 15.548112604372173,21.39079894036782 L 15.557323124130399,21.389942496890665 L 15.549962546999991,21.390475348000006 L 15.548112604372173,21.39079894036782 z" /><path fill-rule="evenodd" fill="#66cc99" stroke="#555555" stroke-width="0.0" opacity="0.6" d="M 15.528541823829501,21.394386980716096 L 15.537529732410402,21.392650098638846 L 15.530092453999996,21.393951029 L 15.528541823829501,21.394386980716096 z" /><path fill-rule="evenodd" fill="#66cc99" stroke="#555555" stroke-width="0.0" opacity="0.6" d="M 15.50942377932474,21.39990245443879 L 15.518070152742505,21.3973310373117 L 15.510673532999993,21.399410559 L 15.50942377932474,21.39990245443879 z" /><path fill-rule="evenodd" fill="#66cc99" stroke="#555555" stroke-width="0.0" opacity="0.6" d="M 15.490947705694168,21.407290902738765 L 15.499119252559721,21.40395825344537 L 15.491903324,21.406798399000003 L 15.490947705694168,21.407290902738765 z" /><path fill-rule="evenodd" fill="#66cc99" stroke="#555555" stroke-width="0.0" opacity="0.6" d="M 15.473296548095881,21.41647932346603 L 15.480827255319625,21.412506750548424 L 15.473972766000003,21.416039397 L 15.473296548095881,21.41647932346603 z" /><path fill-rule="evenodd" fill="#66cc99" stroke="#555555" stroke-width="0.0" opacity="0.6" d="M 15.456645071614743,21.42737692203577 L 15.463279750698149,21.422995942226528 L 15.457064259000003,21.427039548999996 L 15.456645071614743,21.42737692203577 z" /><path fill-rule="evenodd" fill="#66cc99" stroke="#555555" stroke-width="0.0" opacity="0.6" d="M 15.441158173832536,21.439875990170762 L 15.446305115776717,21.435698790521027 L 15.441349805000007,21.439686955 L 15.441158173832536,21.439875990170762 z" /><polyline fill="none" stroke="#66cc99" stroke-width="0.0" points="16.380926810000002,21.7424 16.400530238000005,21.741436944999993" opacity="0.8" /><polyline fill="none" stroke="#66cc99" stroke-width="0.0" points="16.400530238000005,21.741436944999993 16.419944875,21.738557055999994" opacity="0.8" /><polyline fill="none" stroke="#66cc99" stroke-width="0.0" points="16.419944875,21.738557055999994 16.43898374599999,21.733788067000003" opacity="0.8" /><polyline fill="none" stroke="#66cc99" stroke-width="0.0" points="16.43898374599999,21.733788067000003 16.45746349700001,21.727175907000007" opacity="0.8" /><polyline fill="none" stroke="#66cc99" stroke-width="0.0" points="16.45746349700001,21.727175907000007 16.47520615799999,21.718784253000006" opacity="0.8" /><polyline fill="none" stroke="#66cc99" stroke-width="0.0" points="16.47520615799999,21.718784253000006 16.492040856999992,21.708693922000005" opacity="0.8" /><polyline fill="none" stroke="#66cc99" stroke-width="0.0" points="16.492040856999992,21.708693922000005 16.507805467000008,21.697002091000005" opacity="0.8" /><polyline fill="none" stroke="#66cc99" stroke-width="0.0" points="16.507805467000008,21.697002091000005 16.522348166999997,21.683821356000006" opacity="0.8" /><polyline fill="none" stroke="#66cc99" stroke-width="0.0" points="16.522348166999997,21.683821356000006 16.535528900999992,21.669278657000007" opacity="0.8" /><polyline fill="none" stroke="#66cc99" stroke-width="0.0" points="16.535528900999992,21.669278657000007 16.54722073300001,21.653514047000005" opacity="0.8" /><polyline fill="none" stroke="#66cc99" stroke-width="0.0" points="16.54722073300001,21.653514047000005 16.557311062999993,21.636679347" opacity="0.8" /><polyline fill="none" stroke="#66cc99" stroke-width="0.0" points="16.557311062999993,21.636679347 16.565702717000008,21.618936686000005" opacity="0.8" /><polyline fill="none" stroke="#66cc99" stroke-width="0.0" points="16.565702717000008,21.618936686000005 16.57231487799999,21.600456935000004" opacity="0.8" /><polyline fill="none" stroke="#66cc99" stroke-width="0.0" points="16.57231487799999,21.600456935000004 16.577083865999995,21.581418063999994" opacity="0.8" /><polyline fill="none" stroke="#66cc99" stroke-width="0.0" points="16.577083865999995,21.581418063999994 16.579963756000012,21.562003428000004" opacity="0.8" /><polyline fill="none" stroke="#66cc99" stroke-width="0.0" points="16.579963756000012,21.562003428000004 16.58092681,21.5424" opacity="0.8" /><polyline fill="none" stroke="#66cc99" stroke-width="0.0" points="16.58092681,21.5424 16.579963756000012,21.522796571999997" opacity="0.8" /><polyline fill="none" stroke="#66cc99" stroke-width="0.0" points="16.579963756000012,21.522796571999997 16.577083865999995,21.503381936000004" opacity="0.8" /><polyline fill="none" stroke="#66cc99" stroke-width="0.0" points="16.577083865999995,21.503381936000004 16.57231487799999,21.484343064999997" opacity="0.8" /><polyline fill="none" stroke="#66cc99" stroke-width="0.0" points="16.57231487799999,21.484343064999997 16.565702717000008,21.465863313999996" opacity="0.8" /><polyline fill="none" stroke="#66cc99" stroke-width="0.0" points="16.565702717000008,21.465863313999996 16.557311062999993,21.448120652999997" opacity="0.8" /><polyline fill="none" stroke="#66cc99" stroke-width="0.0" points="16.557311062999993,21.448120652999997 16.54722073300001,21.431285952999993" opacity="0.8" /><polyline fill="none" stroke="#66cc99" stroke-width="0.0" points="16.54722073300001,21.431285952999993 16.535528900999992,21.415521342999995" opacity="0.8" /><polyline fill="none" stroke="#66cc99" stroke-width="0.0" points="16.535528900999992,21.415521342999995 16.522348166999997,21.400978643999995" opacity="0.8" /><polyline fill="none" stroke="#66cc99" stroke-width="0.0" points="13.591073189999998,19.4056 13.580586095,19.406115198" opacity="0.8" /><polyline fill="none" stroke="#66cc99" stroke-width="0.0" points="13.580586095,19.406115198 13.570099,19.4056" opacity="0.8" /><polyline fill="none" stroke="#66cc99" stroke-width="0.0" points="13.570099,19.2024 13.589702428000002,19.201436944999994" opacity="0.8" /><polyline fill="none" stroke="#66cc99" stroke-width="0.0" points="13.589702428000002,19.201436944999994 13.60911706400001,19.198557055999995" opacity="0.8" /><polyline fill="none" stroke="#66cc99" stroke-width="0.0" points="13.60911706400001,19.198557055999995 13.628155935000002,19.193788067000003" opacity="0.8" /><polyline fill="none" stroke="#66cc99" stroke-width="0.0" points="13.628155935000002,19.193788067000003 13.646635685999989,19.187175907000004" opacity="0.8" /><polyline fill="none" stroke="#66cc99" stroke-width="0.0" points="13.646635685999989,19.187175907000004 13.664378347000003,19.178784253000007" opacity="0.8" /><polyline fill="none" stroke="#66cc99" stroke-width="0.0" points="13.664378347000003,19.178784253000007 13.681213046999991,19.168693922000006" opacity="0.8" /><polyline fill="none" stroke="#66cc99" stroke-width="0.0" points="13.681213046999991,19.168693922000006 13.696977657000005,19.157002091000006" opacity="0.8" /><polyline fill="none" stroke="#66cc99" stroke-width="0.0" points="13.696977657000005,19.157002091000006 13.711520356000007,19.143821356000007" opacity="0.8" /><polyline fill="none" stroke="#66cc99" stroke-width="0.0" points="13.711520356000007,19.143821356000007 13.724701090999991,19.129278657000004" opacity="0.8" /><polyline fill="none" stroke="#66cc99" stroke-width="0.0" points="13.724701090999991,19.129278657000004 13.736392921999991,19.113514047000006" opacity="0.8" /><polyline fill="none" stroke="#66cc99" stroke-width="0.0" points="13.736392921999991,19.113514047000006 13.74648325299999,19.096679347000002" opacity="0.8" /><polyline fill="none" stroke="#66cc99" stroke-width="0.0" points="13.74648325299999,19.096679347000002 13.754874907000005,19.078936686000006" opacity="0.8" /><polyline fill="none" stroke="#66cc99" stroke-width="0.0" points="13.754874907000005,19.078936686000006 13.761487067000001,19.060456935" opacity="0.8" /><polyline fill="none" stroke="#66cc99" stroke-width="0.0" points="13.761487067000001,19.060456935 13.766256055999994,19.041418063999995" opacity="0.8" /><polyline fill="none" stroke="#66cc99" stroke-width="0.0" points="13.766256055999994,19.041418063999995 13.769135944999993,19.022003428" opacity="0.8" /><polyline fill="none" stroke="#66cc99" stroke-width="0.0" points="13.769135944999993,19.022003428 13.770099,19.0024" opacity="0.8" /></g> 
                    </g>
                    </svg>