<svg xmlns="http://www.w3.org/2000/svg" viewBox="0 0 43.434 40.132" width="43.434mm" height="40.132mm">
                    <g stroke-linecap="round">
                        <g><path fill-rule="evenodd" fill="#66cc99" stroke="#555555" stroke-width="0.0" opacity="0.6" d="M 33.312570807959915,14.994299412750214 L 33.32941997937199,14.998814098716393 L 33.33789380855709,15.000887661071927 L 33.371961808557096,15.008440661071926 L 33.38052311152658,15.010143617902278 L 33.39771187136492,15.013174339199498 L 33.40633932823378,15.014502103666365 L 33.440936328233775,15.019056103666365 L 33.44960568272552,15.020005462331369 L 33.466977537230434,15.021525331907943 L 33.475680037243606,15.022095842819512 L 33.5105420372436,15.023618842819513 L 33.5192710186218,15.023809421409755 L 33.5367289813782,15.023809421409755 L 33.545457962756394,15.023618842819513 L 33.5803199627564,15.022095842819512 L 33.58902246276957,15.021525331907943 L 33.60639431727448,15.020005462331369 L 33.61506367176622,15.019056103666365 L 33.64966067176622,15.014502103666365 L 33.65828812863508,15.013174339199498 L 33.67547688847342,15.010143617902278 L 33.68403819144291,15.008440661071926 L 33.71810619144291,15.000887661071927 L 33.726580020628006,14.998814098716393 L 33.74342919204008,14.994299412750214 L 33.751804534267066,14.991858289139568 L 33.78508553426707,14.98136528913957 L 33.79335003737286,14.978559944769652 L 33.80974878329062,14.972591364320024 L 33.8178830261026,14.969428128240317 L 33.8501220261026,14.956074128240317 L 33.85810831300491,14.952560052697851 L 33.87392001793221,14.945186917926163 L 33.88174543595719,14.941327858696937 L 33.912698435957196,14.925214858696938 L 33.92035111123592,14.921016417018935 L 33.93546598230871,14.912289621845513 L 33.94292817810279,14.907761268350095 L 33.972358178102795,14.889011268350094 L 33.97961056644455,14.884165209693343 L 33.99389714831236,14.874161482706443 L 34.00093134183842,14.869003814376295 L 34.02861634183842,14.847760814376295 L 34.035423299984664,14.842297705920696 L 34.04879237752301,14.831079701959178 L 34.0553544969151,14.825324806453258 L 34.081081496915104,14.801749806453257 L 34.08738310469487,14.795717259463936 L 34.09971725946394,14.783383104694874 L 34.105749806453225,14.777081496915132 L 34.129324806453226,14.751354496915132 L 34.13507970195922,14.744792377522945 L 34.14629770592076,14.731423299984574 L 34.15097135290104,14.7256 L 34.51194595783177,14.7256 L 34.505429192,14.723700586999998 L 34.488580021,14.719185900999992 L 34.48010619100001,14.717112339000002 L 34.446038191000014,14.709559339000002 L 34.43747688800001,14.707856382 L 34.42028812900001,14.704825661 L 34.41166067199999,14.703497895999998 L 34.37706367199999,14.698943895999998 L 34.368394317,14.697994538000003 L 34.351022463,14.696474667999997 L 34.342319963,14.695904157000005 L 34.307457963,14.694381157000006 L 34.298728981000004,14.694190578999995 L 34.281271018999995,14.694190578999995 L 34.272542037,14.694381157000006 L 34.237680037,14.695904157000005 L 34.228977537,14.696474667999997 L 34.211605682999995,14.697994538000003 L 34.20293632800001,14.698943895999998 L 34.16833932800001,14.703497895999998 L 34.15971187099999,14.704825661 L 34.142523111999985,14.707856382 L 34.133961808999985,14.709559339000002 L 34.09989380899999,14.717112339000002 L 34.091419979,14.719185900999992 L 34.074570808,14.723700586999998 L 34.06619546599999,14.726141710999995 L 34.032914465999994,14.736634710999995 L 34.024649963,14.739440055000006 L 34.00825121700001,14.745408636000008 L 34.00011697400001,14.748571871999994 L 33.967877974000004,14.761925871999994 L 33.95989168700001,14.765439946999997 L 33.94407998199999,14.772813082000003 L 33.93625456400001,14.776672141000002 L 33.90530156400001,14.792785141000003 L 33.897648888999996,14.796983583000005 L 33.88253401800001,14.805710378000006 L 33.875071821999995,14.810238731999993 L 33.845641822,14.828988731999994 L 33.838389433999986,14.833834790000006 L 33.824102851999996,14.843838517000005 L 33.81706865799999,14.848996186000004 L 33.78938365799999,14.870239186000004 L 33.782576699999986,14.875702294 L 33.76920762200001,14.886920297999993 L 33.762645502999995,14.892675194000006 L 33.73691850299999,14.916250194000005 L 33.73061689500001,14.922282740999997 L 33.718282740999996,14.934616894999996 L 33.712250194000006,14.940918503000006 L 33.688675194000005,14.966645503000006 L 33.682920298000006,14.973207621999993 L 33.671702294,14.986576700000002 L 33.667028647000016,14.9924 L 33.306054041769144,14.9924 L 33.312570807959915,14.994299412750214 z" /><path fill-rule="evenodd" fill="#66cc99" stroke="#555555" stroke-width="0.0" opacity="0.6" d="M 23.6544,18.20296952205068 L 23.73568476100001,18.121684761000008 L 23.739112821999996,18.118171514 L 23.745881691000015,18.111061949 L 23.749222499000012,18.107465630999997 L 23.755918312000006,18.10007794 L 23.762330178000003,18.092644805000006 L 23.774781458999993,18.077472875 L 23.780820875,18.069734078999996 L 23.78676032499999,18.061725657000004 L 23.792412740999996,18.053699842999993 L 23.803316956999986,18.037380531000004 L 23.808568757,18.029087033000007 L 23.813694643999995,18.020535005999996 L 23.818533175000013,18.011993805000007 L 23.827785312000007,17.994684275000004 L 23.832198918000014,17.985915945999995 L 23.83646187799999,17.976902673999994 L 23.840439926,17.967928341999993 L 23.847950879999996,17.949795294 L 23.851483787,17.940636577999996 L 23.854842763999997,17.931248864999993 L 23.857922018000007,17.921927828999998 L 23.863619456,17.903145894999994 L 23.866237638999998,17.893684995000005 L 23.868660286000015,17.884013249 L 23.87081109099999,17.874435276999996 L 23.874640143000008,17.855185335999995 L 23.876318388000012,17.845513365999995 L 23.87778137200001,17.835650731000005 L 23.878983016000003,17.825908063999997 L 23.880906805000006,17.806375503999995 L 23.881628951000003,17.796585611 L 23.88211818200001,17.786627069999994 L 23.882298854999988,17.781721781 L 23.882539763999997,17.771908246000006 L 23.8826,17.767 L 23.8826,12.505871424598142 L 23.876348096660703,12.501074271531984 L 23.869666742093326,12.495467941417575 L 23.850374601745308,12.477789540954857 L 23.844210459045144,12.471625398254693 L 23.826532058582455,12.452333257906705 L 23.82092572846794,12.445651903339208 L 23.8049960156945,12.42489145998694 L 23.79999570565906,12.417750270573407 L 23.785934789089143,12.395679506009758 L 23.781574906599193,12.388128139766529 L 23.76949225494021,12.3649181705399 L 23.76580683230397,12.357014909513817 L 23.755793380256208,12.33284060364537 L 23.75281051145351,12.324645136060626 L 23.744941915000915,12.299688044805661 L 23.742685646254213,12.291267468236297 L 23.737021915507913,12.265721065606236 L 23.735507276855557,12.257130780494466 L 23.73209221056032,12.23118632537441 L 23.731332637193084,12.222504529104247 L 23.730190578590243,12.196362410251528 L 23.730190578590243,12.187637589748473 L 23.731332637193084,12.161495470895753 L 23.73209221056032,12.152813674625591 L 23.735507276855557,12.126869219505533 L 23.737021915507913,12.118278934393764 L 23.742685646254213,12.092732531763703 L 23.744941915000915,12.08431195519434 L 23.75281051145351,12.059354863939374 L 23.755793380256208,12.051159396354631 L 23.76580708561975,12.026984478935494 L 23.769491898067148,12.019082389941513 L 23.78157429651281,11.99587215726672 L 23.78593561530444,11.988318322218165 L 23.79999606287086,11.966249043717877 L 23.80499554680258,11.959109151097804 L 23.82092572846794,11.938348096660793 L 23.826532058582455,11.931666742093295 L 23.844210459045144,11.912374601745308 L 23.850374601745308,11.906210459045141 L 23.869666742093326,11.888532058582426 L 23.876348096660703,11.882925728468015 L 23.897109151098192,11.866995546802267 L 23.90424904371759,11.861996062871054 L 23.92631832221794,11.847935615304575 L 23.933872157266975,11.843574296512694 L 23.957082389941515,11.831491898067146 L 23.96498447893551,11.827807085619748 L 23.989159396354616,11.817793380256221 L 23.997354863939226,11.814810511453555 L 24.022311955194564,11.806941915000856 L 24.030732531763643,11.804685646254226 L 24.056278934393525,11.799021915507971 L 24.064869219505667,11.797507276855542 L 24.07914172470054,11.795628588279724 L 24.085325414999993,11.783750130999998 L 24.089185136999994,11.775923564999998 L 24.096559493,11.760109511999994 L 24.100074127999992,11.752122025999993 L 24.113428127999992,11.719883025999993 L 24.116591363999994,11.711748783000008 L 24.122559944999992,11.695350037 L 24.125365289000005,11.687085533999994 L 24.135858289000005,11.653804533999994 L 24.138299412999988,11.645429192000002 L 24.142814099000006,11.628580020999998 L 24.144887661000013,11.620106191 L 24.152440661000014,11.586038191 L 24.154143618,11.577476887999996 L 24.157174338999987,11.560288128999993 L 24.158502104000004,11.551660672000006 L 24.163056104000002,11.517063672000006 L 24.164005462000013,11.508394317000002 L 24.165525331999987,11.491022463 L 24.166095842999994,11.482319963 L 24.167618842999996,11.447457963 L 24.167809421000005,11.438728980999999 L 24.167809421000005,11.421271019 L 24.167618842999996,11.412542037 L 24.16677495073846,11.393225049461394 L 24.147457962756395,11.392381157180495 L 24.138728981378197,11.392190578590244 L 24.1212710186218,11.392190578590244 L 24.112542037243603,11.392381157180495 L 24.077680037243606,11.393904157180495 L 24.06897753723043,11.394474668092064 L 24.05160568272552,11.395994537668638 L 24.04293632823378,11.396943896333642 L 24.008339328233777,11.401497896333643 L 23.999711871364923,11.402825660800502 L 23.98252311152658,11.40585638209772 L 23.973961808557092,11.407559338928067 L 23.939893808557095,11.415112338928067 L 23.931419979371995,11.417185901283608 L 23.914570807959915,11.421700587249786 L 23.90619546573293,11.42414171086043 L 23.872914465732933,11.434634710860431 L 23.864649962627144,11.437440055230349 L 23.848251216709375,11.443408635679976 L 23.8401169738974,11.446571871759684 L 23.807877973897398,11.459925871759683 L 23.79989168699509,11.463439947302147 L 23.784079982067794,11.470813082073837 L 23.776254564042805,11.474672141303062 L 23.764371439508945,11.480858061427579 L 23.76249272299999,11.495130780000002 L 23.76097808399999,11.503721065999999 L 23.755314354000003,11.529267467999995 L 23.75305808500001,11.537688045000001 L 23.745189488999994,11.562645136000008 L 23.742206620000005,11.570840604000002 L 23.732193168000013,11.595014909999996 L 23.728507745000005,11.602918171000004 L 23.716425092999994,11.62612814 L 23.712065210999995,11.633679505999996 L 23.698004294,11.655750270999999 L 23.693003983999997,11.662891459999994 L 23.677074272000016,11.683651902999998 L 23.671467941000014,11.690333258 L 23.65378954100001,11.709625398000002 L 23.647625398000002,11.715789540999994 L 23.628333257999987,11.733467940999999 L 23.621651902999997,11.739074272 L 23.600890849000006,11.755004452999994 L 23.593750956,11.760003937000006 L 23.575135911000014,11.771863674999997 L 23.558777717999995,11.783478677000002 L 23.543665481999994,11.796674096 L 23.529951270999998,11.811317154 L 23.517773083000005,11.827260505999996 L 23.507253460999994,11.844343722000003 L 23.498498256999998,11.862394902999997 L 23.491595571999998,11.881232409999997 L 23.48661486199999,11.900666691 L 23.483606247000008,11.920502188999995 L 23.4826,11.940539310000002 L 23.4826,12.661663320634544 L 23.484996185623704,12.66493134183839 L 23.506239185623706,12.69261634183839 L 23.511702294079242,12.699423299984574 L 23.522920298040777,12.712792377522945 L 23.52867519354677,12.719354496915132 L 23.552250193546772,12.745081496915132 L 23.558282740536065,12.751383104694874 L 23.570616895305125,12.763717259463936 L 23.576918503084897,12.769749806453257 L 23.602645503084897,12.793324806453258 L 23.609207622476994,12.799079701959178 L 23.622576700015337,12.810297705920696 L 23.62938365816158,12.815760814376295 L 23.6544,12.834956124099016 L 23.6544,18.20296952205068 z" /><path fill-rule="evenodd" fill="#66cc99" stroke="#555555" stroke-width="0.0" opacity="0.6" d="M 23.93,19.904189622924715 L 23.926320493999988,19.902065210999996 L 23.904249729000004,19.888004293999998 L 23.89710853999999,19.883003984 L 23.876348097000005,19.867074272 L 23.869666742000014,19.861467941 L 23.850374602,19.843789540999992 L 23.844210458999992,19.837625398 L 23.826532058999984,19.818333258000003 L 23.820925727999985,19.811651902999998 L 23.804996016000004,19.790891459999994 L 23.799995706,19.783750271 L 23.785934789000006,19.761679505999997 L 23.781574907000007,19.75412814 L 23.769492254999996,19.730918171000003 L 23.76580683199999,19.723014909999996 L 23.755793379999997,19.698840604 L 23.752810511000007,19.690645136000008 L 23.74494191499999,19.665688045000003 L 23.742685645999998,19.657267467999993 L 23.737021916000007,19.631721066 L 23.73550727700001,19.62313078 L 23.732092210999994,19.597186325000003 L 23.731332636999994,19.588504528999998 L 23.730190578999995,19.562362409999995 L 23.730190578999995,19.553637590000005 L 23.731332636999994,19.527495471 L 23.732092210999994,19.518813674999997 L 23.73550727700001,19.49286922 L 23.737021916000007,19.484278934 L 23.742685645999998,19.458732532000006 L 23.74494191499999,19.450311954999997 L 23.752810511000007,19.425354863999992 L 23.755793379999997,19.417159396 L 23.765807085999995,19.392984479000003 L 23.769491898000002,19.38508239 L 23.78157429699999,19.361872157000004 L 23.78593561500001,19.354318321999997 L 23.799996062999995,19.332249044 L 23.80499554699999,19.325109150999992 L 23.820925727999985,19.304348097000002 L 23.826532058999984,19.297666741999997 L 23.844210458999992,19.278374602 L 23.850374602,19.272210459000007 L 23.869666742000014,19.254532059 L 23.876348097000005,19.248925728 L 23.89710915099999,19.232995547000005 L 23.904249044,19.227996062999992 L 23.926318321999997,19.213935614999993 L 23.933872157000007,19.209574297000007 L 23.957082389999986,19.197491898000003 L 23.964984479,19.193807085999996 L 23.989159395999998,19.183793379999994 L 23.99735486399999,19.180810511000008 L 24.022311955000013,19.172941915000006 L 24.030732532000005,19.170685646 L 24.056278933999984,19.165021915999993 L 24.06486922,19.163507276999994 L 24.09081367500001,19.160092210999995 L 24.099495470999987,19.159332636999995 L 24.125637590000004,19.158190578999996 L 24.134362409999998,19.158190578999996 L 24.160504529000015,19.159332636999995 L 24.169186324999988,19.160092210999995 L 24.19513078,19.163507276999994 L 24.203721066000014,19.165021915999993 L 24.229267467999996,19.170685646 L 24.231587689999998,19.171307342999995 L 24.23344512366131,19.171711399225043 L 24.510684761443198,18.894471761443167 L 24.514112821796328,18.890958514153095 L 24.520881690630077,18.8838489488851 L 24.5242224991107,18.88025263090718 L 24.530918312203795,18.872864939609645 L 24.537330177805273,18.865431805473076 L 24.54978145903027,18.85025987540233 L 24.555820874653786,18.84252107946816 L 24.561760325202076,18.834512657471926 L 24.567412741366535,18.82648684317723 L 24.57831695707059,18.810167531117187 L 24.583568756610184,18.80187403335184 L 24.588694644458027,18.793322006138578 L 24.593533175327508,18.78478080466537 L 24.602785311952026,18.767471274513035 L 24.607198917707056,18.758702945833907 L 24.611461877752422,18.74968967410067 L 24.615439925630003,18.74071534188758 L 24.622950880041927,18.72258229387997 L 24.62648378657627,18.713423578085454 L 24.629842764183522,18.704035864566222 L 24.632922018293442,18.694714829338448 L 24.638619455895782,18.675932894640507 L 24.641237639388205,18.66647199517034 L 24.64366028576678,18.656800248678117 L 24.645811091208518,18.647222277100756 L 24.649640142562568,18.627972336011187 L 24.65131838847488,18.61830036649898 L 24.652781372215806,18.608437731239633 L 24.65398301555732,18.59869506441435 L 24.655906804805397,18.57916250438863 L 24.656628950711966,18.56937261118819 L 24.657118182482062,18.5594140697307 L 24.65729885498026,18.554508780570046 L 24.65753976373923,18.544695245704695 L 24.6576,18.539787 L 24.6576,18.32103047700001 L 24.215822499000012,18.762807978 L 24.208394317000003,18.761994538000003 L 24.191022463,18.760474667999997 L 24.182319963,18.759904157000005 L 24.147457963,18.758381157000006 L 24.138728981000007,18.758190578999997 L 24.121271018999995,18.758190578999997 L 24.112542037,18.758381157000006 L 24.079653138924332,18.759817959012775 L 23.588578643762677,19.25089245417443 L 23.575397909327446,19.265435153579013 L 23.563706077539475,19.28119976380782 L 23.553615747130333,19.298034463046537 L 23.545224093497755,19.315777123938723 L 23.53861193285355,19.334256874960854 L 23.53384294391936,19.353295746008516 L 23.530963054665566,19.372710382345826 L 23.53,19.392313810411736 L 23.53,20.08680023545012 L 23.552250194000006,20.111081496999994 L 23.558282740999996,20.117383105000005 L 23.57061689500001,20.129717259000003 L 23.57691850299999,20.135749805999993 L 23.60264550299999,20.159324805999994 L 23.60920762200001,20.165079702000007 L 23.62257669999999,20.176297706 L 23.62938365799999,20.181760813999997 L 23.657068657999993,20.203003813999995 L 23.664104113000004,20.208162365999996 L 23.678393291999996,20.218167747999995 L 23.685647016000004,20.223014577999994 L 23.715078016000003,20.241764577999994 L 23.722537801999987,20.246291385000006 L 23.737647729000003,20.255015303000004 L 23.745297868999987,20.259212415000007 L 23.776249868999987,20.275325415000008 L 23.784076435000003,20.279185136999995 L 23.799890488000006,20.286559493000002 L 23.807877974000007,20.290074128000008 L 23.840116974000008,20.303428128000007 L 23.84825121700001,20.306591363999992 L 23.864649962999998,20.312559944999993 L 23.87291446599999,20.315365289000006 L 23.90619546599999,20.325858289000003 L 23.914570807999997,20.328299413000003 L 23.93,20.332433619787604 L 23.93,19.904189622924715 z" /><path fill-rule="evenodd" fill="#66cc99" stroke="#555555" stroke-width="0.0" opacity="0.6" d="M 26.614580020628004,18.783185901283606 L 26.60610619144291,18.781112338928075 L 26.572038191442907,18.773559338928074 L 26.56347688847342,18.77185638209772 L 26.54628812863508,18.768825660800502 L 26.537660671766222,18.767497896333634 L 26.50306367176622,18.762943896333635 L 26.49439431727448,18.76199453766863 L 26.47702246276957,18.76047466809206 L 26.468319962756397,18.75990415718049 L 26.433457962756396,18.758381157180487 L 26.4247289813782,18.758190578590245 L 26.407271018621802,18.758190578590245 L 26.398542037243605,18.758381157180487 L 26.363680037243604,18.75990415718049 L 26.354977537230432,18.76047466809206 L 26.33760568272552,18.76199453766863 L 26.328936328233777,18.762943896333635 L 26.29433932823378,18.767497896333634 L 26.28571187136492,18.768825660800502 L 26.26852311152658,18.77185638209772 L 26.259961808557094,18.773559338928074 L 26.225893808557093,18.781112338928075 L 26.217419979371996,18.783185901283606 L 26.200570807959913,18.787700587249784 L 26.192195465732933,18.790141710860432 L 26.15891446573293,18.800634710860432 L 26.150649962627142,18.80344005523035 L 26.134251216709377,18.809408635679976 L 26.126116973897396,18.812571871759683 L 26.0938779738974,18.825925871759683 L 26.08589168699509,18.82943994730215 L 26.070079982067792,18.83681308207384 L 26.062254564042806,18.840672141303063 L 26.031301564042806,18.856785141303064 L 26.023648888764082,18.860983582981063 L 26.008534017691286,18.869710378154487 L 26.00107182189721,18.874238731649907 L 25.971641821897208,18.892988731649904 L 25.964389433555453,18.897834790306657 L 25.95010285168764,18.90783851729356 L 25.94306865816158,18.912996185623705 L 25.91538365816158,18.934239185623706 L 25.908576700015335,18.939702294079304 L 25.904879377849163,18.942804720150814 L 25.80080472015089,19.046879377849102 L 25.797702294079244,19.050576700015426 L 25.792239185623707,19.057383658161612 L 25.770996185623705,19.08506865816161 L 25.76583851729363,19.09210285168752 L 25.755834790306718,19.106389433555336 L 25.750988731649876,19.11364182189724 L 25.732238731649876,19.143071821897237 L 25.727710378154487,19.150534017691285 L 25.71898358298108,19.165648888764053 L 25.71478514130306,19.173301564042777 L 25.698672141303064,19.204254564042778 L 25.69481308207384,19.212079982067763 L 25.68743994730213,19.22789168699509 L 25.68392587175965,19.235877973897427 L 25.670571871759652,19.268116973897428 L 25.6674086356799,19.27625121670954 L 25.66144005523029,19.292649962627305 L 25.658634710860433,19.300914465732962 L 25.648141710860433,19.33419546573296 L 25.645700587249816,19.34257080795978 L 25.64118590128362,19.35941997937186 L 25.639112338928044,19.367893808557124 L 25.631559338928042,19.40196180855712 L 25.629856382097692,19.410523111526683 L 25.62682566080049,19.427711871364995 L 25.625497896333634,19.43633932823375 L 25.620943896333635,19.470936328233748 L 25.619994537668646,19.47960568272552 L 25.618474668092073,19.496977537230432 L 25.617904157180487,19.505680037243575 L 25.616381157180488,19.540542037243576 L 25.616190578590246,19.549271018621788 L 25.616190578590246,19.566728981378212 L 25.616381157180488,19.575457962756424 L 25.617904157180487,19.610319962756424 L 25.618474668092073,19.619022462769568 L 25.619994537668646,19.63639431727448 L 25.620943896333635,19.645063671766252 L 25.625497896333634,19.67966067176625 L 25.62682566080049,19.688288128635005 L 25.629856382097692,19.705476888473317 L 25.631559338928042,19.714038191442878 L 25.639112338928044,19.748106191442876 L 25.64118590128362,19.75658002062814 L 25.645700587249816,19.77342919204022 L 25.648141710860433,19.78180453426704 L 25.658634710860433,19.815085534267038 L 25.66144005523029,19.823350037372695 L 25.6674086356799,19.83974878329046 L 25.670571871759652,19.847883026102572 L 25.68392587175965,19.880122026102573 L 25.687440506535648,19.888109512272163 L 25.694814863331615,19.90392356466463 L 25.698674585351586,19.91175013088751 L 25.714787585351587,19.942702130887508 L 25.71898469674373,19.950352271190972 L 25.727708615216464,19.96546219757438 L 25.73223542229706,19.97292198365432 L 25.75098542229706,20.00235298365432 L 25.755832252452016,20.00960670792027 L 25.76583763411534,20.0238958870123 L 25.770996185623705,20.03093134183839 L 25.77364278699553,20.03438053258258 L 25.784538706,20.0213953 L 25.79000181400001,20.014588341999993 L 25.81124481400001,19.986903341999994 L 25.816403365999996,19.979867886999994 L 25.826408747999995,19.965578708000006 L 25.831255578000007,19.958324983999997 L 25.850005578000008,19.928893984 L 25.85453238499999,19.921434198 L 25.863256303000004,19.906324271 L 25.867453414999993,19.898674130999996 L 25.88356641499999,19.867722130999997 L 25.887426136999995,19.859895565 L 25.894800493,19.844081511999995 L 25.89831512799999,19.836094025999994 L 25.911669127999993,19.803855025999994 L 25.91483236399999,19.795720783000007 L 25.920800944999993,19.779322037 L 25.923606289000006,19.771057533999993 L 25.934099289000006,19.737776533999995 L 25.93654041299999,19.729401192 L 25.941055099000007,19.712552020999997 L 25.943128661000014,19.704078191 L 25.950681661000015,19.670010191 L 25.952384618,19.661448887999995 L 25.955415338999988,19.644260128999992 L 25.956743104,19.635632672000007 L 25.961297104000003,19.601035672000005 L 25.962246462000014,19.592366317000003 L 25.963766331999988,19.574994463 L 25.964336842999995,19.566291963 L 25.965859842999993,19.531429963 L 25.966050421000002,19.522700981000007 L 25.966050421000002,19.505243018999995 L 25.965859842999993,19.496514037 L 25.964336842999995,19.461652037 L 25.963766331999988,19.452949537000002 L 25.963497113000006,19.449872409999998 L 26.10001500077996,19.31335452212055 L 26.106925728467942,19.304348096660792 L 26.112532058582456,19.297666742093295 L 26.13021045904514,19.27837460174531 L 26.136374601745306,19.27221045904514 L 26.155666742093324,19.254532058582424 L 26.162348096660704,19.248925728468016 L 26.171354521897136,19.24201500095138 L 26.62688621311858,18.786483309397966 L 26.614580020628004,18.783185901283606 z" /><path fill-rule="evenodd" fill="#66cc99" stroke="#555555" stroke-width="0.0" opacity="0.6" d="M 28.1876,18.33740678180392 L 28.168374601999997,18.319789540999995 L 28.16221045899999,18.313625398000003 L 28.144532058999985,18.294333258 L 28.138925727999986,18.287651902999997 L 28.122996016000002,18.266891459999993 L 28.117995706,18.259750270999998 L 28.103934789000004,18.237679505999996 L 28.099574907000004,18.23012814 L 28.087492254999994,18.206918171000005 L 28.083806831999986,18.199014909999995 L 28.073793379999994,18.174840604000003 L 28.07081051100001,18.166645136000007 L 28.062941914999993,18.141688045000002 L 28.060685646,18.133267467999996 L 28.05502191600001,18.107721066 L 28.05350727700001,18.09913078 L 28.050092210999996,18.073186325 L 28.049332636999996,18.064504529 L 28.048190578999996,18.038362409999998 L 28.048190578999996,18.029637590000004 L 28.049332636999996,18.003495471 L 28.050092210999996,17.994813674999996 L 28.05350727700001,17.96886922 L 28.05502191600001,17.960278934 L 28.060685646,17.934732532000005 L 28.062941914999993,17.926311955 L 28.07081051100001,17.90135486399999 L 28.073793379999994,17.893159395999998 L 28.083807085999997,17.868984479 L 28.087491898000003,17.86108239 L 28.09957429699999,17.837872157000007 L 28.103935615000008,17.830318321999997 L 28.117996062999993,17.808249044 L 28.12299554699999,17.80110915099999 L 28.138925727999986,17.780348097000005 L 28.144532058999985,17.773666742 L 28.16221045899999,17.754374602 L 28.168374601999997,17.748210459000006 L 28.1876,17.73059321819608 L 28.1876,16.862189622924717 L 28.183920493999988,16.860065210999995 L 28.161849729000004,16.846004294 L 28.15470853999999,16.841003983999997 L 28.133948097,16.825074272 L 28.127266742000014,16.819467941 L 28.107974602,16.801789540999994 L 28.101810458999992,16.795625398000002 L 28.084132058999984,16.776333258 L 28.078525727999985,16.769651902999996 L 28.062596016000004,16.748891459999992 L 28.057595706,16.741750270999997 L 28.043534789000006,16.719679506 L 28.039174907000007,16.71212814 L 28.027092254999996,16.688918171000005 L 28.02340683199999,16.681014909999995 L 28.013393379999997,16.656840604000003 L 28.010410511000007,16.648645136000006 L 28.00254191499999,16.623688045 L 28.000285646,16.615267467999995 L 27.994621916000007,16.589721066 L 27.99310727700001,16.581130780000002 L 27.989692210999994,16.555186325000005 L 27.988932636999994,16.546504529 L 27.987790578999995,16.520362409999997 L 27.987790578999995,16.511637590000003 L 27.988932636999994,16.485495471 L 27.989692210999994,16.476813674999995 L 27.99310727700001,16.450869219999998 L 27.994621916000007,16.442278934 L 28.000285646,16.416732532000005 L 28.00254191499999,16.408311955 L 28.010410511000007,16.383354863999994 L 28.013393379999997,16.375159395999997 L 28.023407085999995,16.350984479 L 28.027091898000002,16.34308239 L 28.03917429699999,16.319872157000006 L 28.04353561500001,16.312318321999996 L 28.057596062999995,16.290249044 L 28.06259554699999,16.283109150999994 L 28.078525727999985,16.262348097000004 L 28.084132058999984,16.255666742 L 28.098672022000013,16.23979952599999 L 28.10585121700001,16.242591363999992 L 28.122249962999998,16.248559944999993 L 28.13051446599999,16.251365289000006 L 28.16379546599999,16.261858289000006 L 28.172170807999997,16.264299413000003 L 28.1876,16.268433619787604 L 28.1876,15.741566380212396 L 28.172170807999997,15.745700586999998 L 28.16379546599999,15.748141710999995 L 28.13051446599999,15.758634710999996 L 28.122249962999998,15.761440055000007 L 28.10585121700001,15.767408636000008 L 28.098672022000013,15.770200474000006 L 28.084132058999984,15.754333258 L 28.078525727999985,15.747651902999998 L 28.062596016000004,15.726891459999994 L 28.057595706,15.719750270999997 L 28.043534789000006,15.697679505999997 L 28.039174907000007,15.69012814 L 28.027092254999996,15.666918171000004 L 28.02340683199999,15.659014909999996 L 28.013393379999997,15.634840604000003 L 28.010410511000007,15.626645136000008 L 28.00254191499999,15.601688045000001 L 28.000285646,15.593267467999995 L 27.994621916000007,15.567721065999999 L 27.99310727700001,15.559130780000002 L 27.989692210999994,15.533186325000003 L 27.988932636999994,15.524504529 L 27.987790578999995,15.498362409999997 L 27.987790578999995,15.489637590000003 L 27.988932636999994,15.463495471000002 L 27.989692210999994,15.454813674999997 L 27.99310727700001,15.42886922 L 27.994621916000007,15.420278934 L 28.000285646,15.394732532000006 L 28.00254191499999,15.386311954999998 L 28.010410511000007,15.361354863999992 L 28.013393379999997,15.353159395999997 L 28.023407085999995,15.328984479000002 L 28.027091898000002,15.32108239 L 28.03917429699999,15.297872157000006 L 28.04353561500001,15.290318321999997 L 28.057596062999995,15.268249044 L 28.06259554699999,15.261109150999992 L 28.078525727999985,15.240348097000004 L 28.084132058999984,15.233666741999999 L 28.101810458999992,15.214374601999998 L 28.107974602,15.208210459000007 L 28.127266742000014,15.190532059 L 28.133948097,15.184925728 L 28.15470915099999,15.168995547000005 L 28.161849044,15.163996062999994 L 28.183918321999997,15.149935614999995 L 28.1876,15.147809943929404 L 28.1876,15.100971352901071 L 28.193423299984662,15.096297705920696 L 28.206792377523005,15.085079701959177 L 28.213354496915102,15.079324806453258 L 28.2390814969151,15.055749806453258 L 28.245383104694874,15.049717259463936 L 28.257717259463938,15.037383104694873 L 28.263749806453227,15.031081496915132 L 28.287324806453228,15.005354496915132 L 28.293079701959222,14.998792377522946 L 28.304297705920757,14.985423299984575 L 28.309760814376293,14.97861634183839 L 28.331003814376295,14.95093134183839 L 28.33616236588466,14.943895887012303 L 28.346167747547984,14.929606707920268 L 28.35101457770294,14.92235298365432 L 28.369764577702938,14.89292198365432 L 28.374291384783536,14.885462197574377 L 28.383015303256272,14.87035227119097 L 28.387212414648413,14.862702130887508 L 28.403325414648414,14.831750130887508 L 28.407185136668385,14.823923564664632 L 28.41455949346435,14.808109512272164 L 28.418074128240345,14.800122026102573 L 28.43142812824035,14.767883026102572 L 28.4345913643201,14.75974878329046 L 28.44055994476971,14.743350037372693 L 28.443365289139567,14.735085534267037 L 28.453858289139568,14.701804534267039 L 28.455242936553717,14.697053895705924 L 28.448622463,14.696474667999997 L 28.439919963,14.695904157000005 L 28.405057963,14.694381157000006 L 28.396328981000007,14.694190578999995 L 28.378871018999995,14.694190578999995 L 28.370142037,14.694381157000006 L 28.335280037,14.695904157000005 L 28.326577537000002,14.696474667999997 L 28.309205683,14.697994538000003 L 28.30053632800001,14.698943895999998 L 28.26593932800001,14.703497895999998 L 28.25731187099999,14.704825661 L 28.24012311199999,14.707856382 L 28.231561808999984,14.709559339000002 L 28.197493808999987,14.717112339000002 L 28.189019979,14.719185900999992 L 28.172170807999997,14.723700586999998 L 28.16379546599999,14.726141710999995 L 28.13051446599999,14.736634710999995 L 28.122249962999998,14.739440055000006 L 28.10585121700001,14.745408636000008 L 28.097716974000008,14.748571871999994 L 28.065477974000007,14.761925871999994 L 28.057491687000006,14.765439946999997 L 28.041679981999994,14.772813082000003 L 28.03385456400001,14.776672141000002 L 28.00290156400001,14.792785141000003 L 27.995248889,14.796983583000005 L 27.980134018000008,14.805710378000006 L 27.972671821999995,14.810238731999993 L 27.943241821999997,14.828988731999994 L 27.935989433999985,14.833834790000006 L 27.921702852,14.843838517000005 L 27.914668657999993,14.848996186000004 L 27.88698365799999,14.870239186000004 L 27.88017669999999,14.875702294 L 27.86680762200001,14.886920297999993 L 27.86024550299999,14.892675194000006 L 27.83451850299999,14.916250194000005 L 27.82821689500001,14.922282740999997 L 27.815882740999996,14.934616894999996 L 27.809850194000006,14.940918503000006 L 27.79076497043857,14.961745885675088 L 27.788505596593946,14.977460342213586 L 27.7876,14.996471353033229 L 27.7876,17.04480023545012 L 27.809850194000006,17.069081496999996 L 27.815882740999996,17.075383105000004 L 27.82821689500001,17.087717259000005 L 27.83451850299999,17.093749805999995 L 27.86024550299999,17.117324805999996 L 27.86680762200001,17.123079702000005 L 27.88017669999999,17.134297706 L 27.88698365799999,17.139760813999995 L 27.914668657999993,17.161003813999997 L 27.921704113000004,17.166162366 L 27.935993291999996,17.176167747999997 L 27.943247016000004,17.181014577999996 L 27.972678016000003,17.199764577999993 L 27.980137801999987,17.204291385000005 L 27.995247729000003,17.213015303000002 L 28.002897868999987,17.217212415000006 L 28.033849868999987,17.233325415000007 L 28.041676435000003,17.237185136999994 L 28.057490488000006,17.244559493 L 28.065477974000007,17.248074128000006 L 28.097716974000008,17.261428128000006 L 28.10585121700001,17.264591363999994 L 28.122249962999998,17.27055994499999 L 28.13051446599999,17.273365289000004 L 28.16379546599999,17.283858289000005 L 28.167524546999992,17.284945187999995 L 28.166251217000006,17.285408636000007 L 28.158116974000006,17.288571871999995 L 28.12587797400001,17.301925871999995 L 28.117891687000007,17.305439946999996 L 28.102079981999992,17.312813082 L 28.09425456400001,17.316672141 L 28.06330156400001,17.332785141000002 L 28.055648888999997,17.336983583000006 L 28.040534018000006,17.345710378000007 L 28.033071821999997,17.350238731999994 L 28.003641821999995,17.368988731999995 L 27.996389433999987,17.373834790000007 L 27.982102851999997,17.383838517000004 L 27.97506865799999,17.388996186000004 L 27.947383657999993,17.410239186000005 L 27.940576699999987,17.415702294 L 27.927207622000008,17.42692029799999 L 27.920645502999992,17.432675194000005 L 27.894918502999992,17.456250194000006 L 27.88861689500001,17.462282740999996 L 27.876282740999997,17.474616894999997 L 27.870250194000004,17.480918503000005 L 27.846675194000007,17.506645503000005 L 27.840920298000007,17.513207621999992 L 27.829702294,17.526576700000003 L 27.82423918599999,17.53338365800001 L 27.80299618599999,17.561068658000007 L 27.797838516999988,17.568102852 L 27.78783478999999,17.582389434 L 27.7876,17.582740809938638 L 27.7876,18.48525912165873 L 27.787832252000005,18.485606708000006 L 27.797837634000004,18.499895886999994 L 27.80299618599999,18.506931341999994 L 27.82423918599999,18.534616341999993 L 27.829702294,18.541423299999998 L 27.840920298000007,18.554792378000005 L 27.846675194000007,18.561354496999993 L 27.870250194000004,18.587081496999993 L 27.876282740999997,18.593383105000004 L 27.88861689500001,18.605717259000002 L 27.894918502999992,18.611749805999995 L 27.920645502999992,18.635324805999993 L 27.927207622000008,18.641079702000006 L 27.940576699999987,18.652297706 L 27.947383657999993,18.657760813999996 L 27.97506865799999,18.679003813999994 L 27.982104113000005,18.684162365999995 L 27.996393291999997,18.694167747999995 L 28.003647016000002,18.699014577999993 L 28.033078016,18.717764577999993 L 28.040537801999985,18.722291385000005 L 28.055647729000004,18.731015303000003 L 28.06329786899999,18.735212415000007 L 28.094249868999988,18.751325415000007 L 28.102076435,18.755185136999994 L 28.117890488000004,18.762559493 L 28.12587797400001,18.766074128000007 L 28.158116974000006,18.779428128000006 L 28.166251217000006,18.78259136399999 L 28.182649963,18.788559944999992 L 28.1876,18.7902402101772 L 28.1876,18.33740678180392 z" /><path fill-rule="evenodd" fill="#66cc99" stroke="#555555" stroke-width="0.0" opacity="0.6" d="M 28.070698435957194,13.776785141303062 L 28.039745435957194,13.760672141303063 L 28.031920017932208,13.756813082073837 L 28.01610831300491,13.749439947302148 L 28.0081220261026,13.745925871759683 L 27.975883026102604,13.732571871759683 L 27.967748783290624,13.729408635679976 L 27.95135003737286,13.72344005523035 L 27.94308553426707,13.72063471086043 L 27.909804534267067,13.710141710860432 L 27.901429192040087,13.707700587249786 L 27.884580020628004,13.703185901283607 L 27.876106191442908,13.701112338928073 L 27.842038191442906,13.693559338928074 L 27.83347688847342,13.691856382097722 L 27.81628812863508,13.688825660800502 L 27.80766067176622,13.687497896333635 L 27.77306367176622,13.682943896333635 L 27.76439431727448,13.681994537668631 L 27.747022462769568,13.680474668092057 L 27.738319962756396,13.679904157180488 L 27.703457962756396,13.678381157180489 L 27.694728981378198,13.678190578590245 L 27.677271018621802,13.678190578590245 L 27.668542037243604,13.678381157180489 L 27.633680037243604,13.679904157180488 L 27.624977537230432,13.680474668092057 L 27.609889360052883,13.681794737947092 L 27.141178643999993,14.150505453999996 L 27.12799790900001,14.165048153999999 L 27.116306078000008,14.180812763999999 L 27.106215747000007,14.197647463 L 27.097824092999996,14.215390123999997 L 27.091211932999997,14.233869875 L 27.086442944000005,14.252908746000006 L 27.083563055000006,14.272323382 L 27.0826,14.291926810000003 L 27.0826,15.002988221488998 L 27.084675193546772,15.005354496915132 L 27.108250193546773,15.031081496915132 L 27.114282740536066,15.037383104694873 L 27.126616895305126,15.049717259463936 L 27.1329185030849,15.055749806453258 L 27.158645503084898,15.079324806453258 L 27.165207622476995,15.085079701959177 L 27.178576700015338,15.096297705920696 L 27.1844,15.100971352901071 L 27.1844,18.22896952211027 L 27.335684761000007,18.077684761000008 L 27.339112821999997,18.074171514 L 27.345881691000013,18.067061949 L 27.349222499000014,18.063465630999996 L 27.355918312000007,18.056077939999998 L 27.362330178000004,18.048644805000006 L 27.37478145899999,18.033472875 L 27.380820875,18.025734078999996 L 27.386760324999987,18.017725657000007 L 27.392412740999998,18.009699842999996 L 27.403316956999987,17.993380531000003 L 27.408568756999998,17.985087033000006 L 27.413694643999992,17.976535006 L 27.41853317500001,17.967993805000006 L 27.427785312000008,17.950684275000008 L 27.43219891800001,17.941915945999995 L 27.436461877999992,17.932902673999994 L 27.440439926,17.923928341999993 L 27.447950879999997,17.905795294 L 27.451483787,17.896636577999995 L 27.454842764,17.887248864999993 L 27.457922018000005,17.877927828999997 L 27.463619456,17.859145894999997 L 27.466237639,17.849684995000004 L 27.468660286000013,17.840013249 L 27.47081109099999,17.830435276999996 L 27.474640143000006,17.811185335999994 L 27.47631838800001,17.801513366 L 27.47778137200001,17.791650731000008 L 27.478983016000004,17.781908063999996 L 27.480906805000007,17.762375503999994 L 27.481628951000005,17.752585611 L 27.48211818200001,17.742627069999994 L 27.48229885499999,17.737721781000005 L 27.482539764,17.727908246000005 L 27.4826,17.723 L 27.4826,14.82222658745098 L 27.482320493989974,14.822065210910663 L 27.460249729426653,14.808004294340998 L 27.453108540013076,14.803003984305501 L 27.432348096660704,14.787074271531985 L 27.425666742093323,14.781467941417574 L 27.40637460174531,14.763789540954859 L 27.40021045904514,14.757625398254692 L 27.382532058582456,14.738333257906705 L 27.376925728467942,14.731651903339207 L 27.3609960156945,14.71089145998694 L 27.355995705659062,14.703750270573407 L 27.341934789089144,14.681679506009758 L 27.337574906599194,14.674128139766529 L 27.32549225494021,14.650918170539901 L 27.32180683230397,14.643014909513816 L 27.311793380256205,14.618840603645369 L 27.30881051145351,14.610645136060626 L 27.300941915000916,14.58568804480566 L 27.29868564625421,14.577267468236297 L 27.293021915507914,14.551721065606236 L 27.291507276855558,14.543130780494467 L 27.288092210560322,14.517186325374409 L 27.287332637193085,14.508504529104247 L 27.286190578590244,14.482362410251527 L 27.286190578590244,14.473637589748472 L 27.287332637193085,14.447495470895753 L 27.288092210560322,14.43881367462559 L 27.291507276855558,14.412869219505534 L 27.293021915507914,14.404278934393764 L 27.29868564625421,14.378732531763703 L 27.300941915000916,14.370311955194339 L 27.30881051145351,14.345354863939376 L 27.311793380256205,14.33715939635463 L 27.32180708561975,14.312984478935496 L 27.325491898067146,14.305082389941514 L 27.337574296512813,14.28187215726672 L 27.34193561530444,14.274318322218164 L 27.35599606287086,14.252249043717876 L 27.36099554680258,14.245109151097804 L 27.376925728467942,14.224348096660792 L 27.382532058582456,14.217666742093295 L 27.40021045904514,14.198374601745307 L 27.40637460174531,14.192210459045143 L 27.425666742093323,14.174532058582425 L 27.432348096660704,14.168925728468016 L 27.453109151098193,14.152995546802268 L 27.460249043717592,14.147996062871053 L 27.482318322217942,14.133935615304575 L 27.489872157266973,14.129574296512693 L 27.513082389941513,14.117491898067147 L 27.52098447893551,14.113807085619747 L 27.545159396354617,14.10379338025622 L 27.553354863939227,14.100810511453554 L 27.57831195519456,14.092941915000855 L 27.586732531763644,14.090685646254226 L 27.612278934393526,14.085021915507973 L 27.620869219505668,14.083507276855544 L 27.64681367462519,14.080092210560366 L 27.655495470896156,14.079332637193083 L 27.681637589748473,14.078190578590243 L 27.690362410251527,14.078190578590243 L 27.716504529103844,14.079332637193083 L 27.72518632537481,14.080092210560366 L 27.751130780494332,14.083507276855544 L 27.759721065606474,14.085021915507973 L 27.770056257671953,14.08731326532805 L 28.077082132350178,13.78028739064984 L 28.070698435957194,13.776785141303062 z" /><path fill-rule="evenodd" fill="#66cc99" stroke="#555555" stroke-width="0.0" opacity="0.6" d="M 14.25364085701564,19.137706077539487 L 14.242862879501075,19.131246006425513 L 14.253640856999994,19.137706077999994 L 14.265678804069788,19.146634027548195 L 14.25364085701564,19.137706077539487 z" /><path fill-rule="evenodd" fill="#66cc99" stroke="#555555" stroke-width="0.0" opacity="0.6" d="M 14.200583745862618,19.112611932853564 L 14.181544874814943,19.107842943919362 L 14.162130238477632,19.104963054665564 L 14.142526810411722,19.104 L 14.142526810205862,19.104000000010117 L 14.162130238000005,19.104963055000006 L 14.181544875,19.107842944000005 L 14.200583746000007,19.112611932999997 L 14.203409043010696,19.11362284033756 L 14.200583745862618,19.112611932853564 z" /><path fill-rule="evenodd" fill="#66cc99" stroke="#555555" stroke-width="0.0" opacity="0.6" d="M 14.12292338234581,19.104963054665564 L 14.103508746008501,19.107842943919362 L 14.084469874960824,19.112611932853564 L 14.079809723528669,19.11427936169818 L 14.084469875,19.112611932999997 L 14.103508746000006,19.107842944000005 L 14.122923382,19.104963055000006 L 14.141352596056969,19.104057685452208 L 14.12292338234581,19.104963054665564 z" /><path fill-rule="evenodd" fill="#66cc99" stroke="#555555" stroke-width="0.0" opacity="0.6" d="M 14.031412763807804,19.137706077539487 L 14.016036141835675,19.14911015762493 L 14.031412763999999,19.137706077999994 L 14.044618139771506,19.129791079786255 L 14.031412763807804,19.137706077539487 z" /><path fill-rule="evenodd" fill="#66cc99" stroke="#555555" stroke-width="0.0" opacity="0.6" d="M 14.015648153578997,19.149397909327448 L 14.001105454845861,19.16257864315413 L 14.001105453999996,19.162578643999993 L 14.015648153907613,19.14939790908374 L 14.015648153578997,19.149397909327448 z" /><path fill-rule="evenodd" fill="#66cc99" stroke="#555555" stroke-width="0.0" opacity="0.6" d="M 16.380926810411722,21.7424 L 16.40053023847768,21.741436945334435 L 16.419944874814988,21.73855705608064 L 16.438983745862632,21.733788067146435 L 16.441809329042346,21.73277705731869 L 16.43898374599999,21.733788067000003 L 16.419944875,21.738557055999994 L 16.400530238000005,21.741436944999993 L 16.380926810205846,21.742399999989882 L 16.380926810411722,21.7424 z" /><path fill-rule="evenodd" fill="#66cc99" stroke="#555555" stroke-width="0.0" opacity="0.6" d="M 16.49204085701567,21.70869392246051 L 16.50407915247497,21.699765714056937 L 16.492040856999992,21.708693922000005 L 16.481262338623374,21.715154317764117 L 16.49204085701567,21.70869392246051 z" /><path fill-rule="evenodd" fill="#66cc99" stroke="#555555" stroke-width="0.0" opacity="0.6" d="M 16.557311063281418,21.6366793473652 L 16.565702716913997,21.618936686473013 L 16.567215988283785,21.614707376320467 L 16.565702717000008,21.618936686000005 L 16.557311062999993,21.636679347 L 16.55147809072581,21.64641107414317 L 16.557311063281418,21.6366793473652 z" /><path fill-rule="evenodd" fill="#66cc99" stroke="#555555" stroke-width="0.0" opacity="0.6" d="M 16.57708386649239,21.58141806440322 L 16.57908107983756,21.567953945693343 L 16.577083865999995,21.581418063999994 L 16.574015367682488,21.593668198332683 L 16.57708386649239,21.58141806440322 z" /><path fill-rule="evenodd" fill="#66cc99" stroke="#555555" stroke-width="0.0" opacity="0.6" d="M 16.58092681041175,21.5424 L 16.580328117552817,21.530213326892717 L 16.58092681,21.5424 L 16.580328117552817,21.55458667310728 L 16.58092681041175,21.5424 z" /><path fill-rule="evenodd" fill="#66cc99" stroke="#555555" stroke-width="0.0" opacity="0.6" d="M 16.57708386649239,21.503381935596778 L 16.574015367682488,21.49113180166732 L 16.577083865999995,21.503381936000004 L 16.57908107983756,21.516846054306654 L 16.57708386649239,21.503381935596778 z" /><path fill-rule="evenodd" fill="#66cc99" stroke="#555555" stroke-width="0.0" opacity="0.6" d="M 16.565702716913997,21.465863313526988 L 16.557311063281418,21.4481206526348 L 16.55147809072581,21.438388925856827 L 16.557311062999993,21.448120652999997 L 16.565702717000008,21.465863313999996 L 16.567215988283785,21.470092623679534 L 16.565702716913997,21.465863313526988 z" /><path fill-rule="evenodd" fill="#66cc99" stroke="#555555" stroke-width="0.0" opacity="0.6" d="M 15.8601206526348,22.1453110632814 L 15.877863313526989,22.153702716913998 L 15.882092834573983,22.155216063743026 L 15.87786331400001,22.153702716999994 L 15.860120652999997,22.145311062999994 L 15.850388780168533,22.13947800340359 L 15.8601206526348,22.1453110632814 z" /><path fill-rule="evenodd" fill="#66cc99" stroke="#555555" stroke-width="0.0" opacity="0.6" d="M 15.915381935596765,22.165083866492377 L 15.928845980325073,22.167081068863407 L 15.915381935999989,22.165083865999996 L 15.903132554700495,22.16201555630745 L 15.915381935596765,22.165083866492377 z" /><path fill-rule="evenodd" fill="#66cc99" stroke="#555555" stroke-width="0.0" opacity="0.6" d="M 15.9544,22.168926810411737 L 15.966586519712717,22.16832812508859 L 15.9544,22.168926810000002 L 15.942213480287284,22.16832812508859 L 15.9544,22.168926810411737 z" /><path fill-rule="evenodd" fill="#66cc99" stroke="#555555" stroke-width="0.0" opacity="0.6" d="M 15.993418064403237,22.165083866492377 L 16.005667445299505,22.16201555630745 L 15.99341806400001,22.165083865999996 L 15.979954019674928,22.167081068863407 L 15.993418064403237,22.165083866492377 z" /><path fill-rule="evenodd" fill="#66cc99" stroke="#555555" stroke-width="0.0" opacity="0.6" d="M 16.030936686473012,22.153702716913998 L 16.0486793473652,22.1453110632814 L 16.058411219831466,22.13947800340359 L 16.048679347000004,22.145311062999994 L 16.03093668599999,22.153702716999994 L 16.026707165426014,22.155216063743026 L 16.030936686473012,22.153702716913998 z" /><path fill-rule="evenodd" fill="#66cc99" stroke="#555555" stroke-width="0.0" opacity="0.6" d="M 16.120693922460497,22.080040857015653 L 16.127154247524114,22.06926245581171 L 16.12069392199999,22.080040856999993 L 16.111765548276782,22.092079376003607 L 16.120693922460497,22.080040857015653 z" /><path fill-rule="evenodd" fill="#66cc99" stroke="#555555" stroke-width="0.0" opacity="0.6" d="M 16.14578806714645,22.026983745862633 L 16.15055705608064,22.007944874814957 L 16.153436945334434,21.988530238477647 L 16.1544,21.968926810411737 L 16.1543999999899,21.96892681020586 L 16.153436944999992,21.988530238000006 L 16.150557055999993,22.007944875 L 16.145788067,22.026983746000006 L 16.144776996756672,22.029809498301862 L 16.14578806714645,22.026983745862633 z" /><path fill-rule="evenodd" fill="#66cc99" stroke="#555555" stroke-width="0.0" opacity="0.6" d="M 13.591073189588279,19.4056 L 13.571469761522367,19.406563054665565 L 13.552055125185058,19.40944294391936 L 13.533016254137381,19.414211932853565 L 13.530190956989303,19.41522284033756 L 13.533016253999993,19.414211932999997 L 13.552055125,19.409442944000006 L 13.571469761999994,19.406563055000007 L 13.591073189794137,19.405600000010118 L 13.591073189588279,19.4056 z" /><path fill-rule="evenodd" fill="#66cc99" stroke="#555555" stroke-width="0.0" opacity="0.6" d="M 13.479959142984361,19.439306077539488 L 13.467921195930213,19.448234027548192 L 13.479959143000007,19.439306077999994 L 13.490737120498926,19.432846006425514 L 13.479959142984361,19.439306077539488 z" /><path fill-rule="evenodd" fill="#66cc99" stroke="#555555" stroke-width="0.0" opacity="0.6" d="M 13.414688936718614,19.5113206526348 L 13.406297283086017,19.529063313526986 L 13.40478425968583,19.53329193065092 L 13.406297283000008,19.529063313999995 L 13.414688937000006,19.511320653 L 13.42052176266566,19.501589170458452 L 13.414688936718614,19.5113206526348 z" /><path fill-rule="evenodd" fill="#66cc99" stroke="#555555" stroke-width="0.0" opacity="0.6" d="M 13.394916133507639,19.56658193559678 L 13.392918990576357,19.580045579614833 L 13.394916134000002,19.566581936000006 L 13.397984379057348,19.55433281273876 L 13.394916133507639,19.56658193559678 z" /><path fill-rule="evenodd" fill="#66cc99" stroke="#555555" stroke-width="0.0" opacity="0.6" d="M 13.391073189588278,19.6056 L 13.39167185258253,19.617786065197752 L 13.391073189999998,19.6056 L 13.39167185258253,19.59341393480225 L 13.391073189588278,19.6056 z" /><path fill-rule="evenodd" fill="#66cc99" stroke="#555555" stroke-width="0.0" opacity="0.6" d="M 13.394916133507639,19.644618064403222 L 13.397984379057348,19.656867187261238 L 13.394916134000002,19.644618063999996 L 13.392918990576357,19.631154420385165 L 13.394916133507639,19.644618064403222 z" /><path fill-rule="evenodd" fill="#66cc99" stroke="#555555" stroke-width="0.0" opacity="0.6" d="M 13.406297283086017,19.68213668647301 L 13.414688936718614,19.6998793473652 L 13.42052176266566,19.70961082954155 L 13.414688937000006,19.699879347000003 L 13.406297283000008,19.682136686000003 L 13.40478425968583,19.67790806934908 L 13.406297283086017,19.68213668647301 z" /><path fill-rule="evenodd" fill="#66cc99" stroke="#555555" stroke-width="0.0" opacity="0.6" d="M 25.210036738000007,22.611285952999996 L 25.210940018000006,22.612637806999995 L 25.20549119600001,22.604483068000004 L 25.210036738000007,22.611285952999996 z" /></g> 
                    </g>
                    </svg>