<svg xmlns="http://www.w3.org/2000/svg" viewBox="0 0 43.434 40.132" width="43.434mm" height="40.132mm">
                    <g stroke-linecap="round">
                        <g><path fill-rule="evenodd" fill="#66cc99" stroke="#555555" stroke-width="0.0" opacity="0.6" d="M 27.886,14.478 L 27.885238,14.495431 L 27.882961,14.512729 L 27.879185,14.529763 L 27.873938,14.546404 L 27.867261,14.562523 L 27.859205,14.577999 L 27.84983,14.592715 L 27.839208,14.606557 L 27.827421,14.619421 L 27.814557,14.631208 L 27.800715,14.64183 L 27.786,14.651205 L 27.770523,14.659261 L 27.754404,14.665938 L 27.737763,14.671185 L 27.720729,14.674961 L 27.703431,14.677238 L 27.686,14.678 L 27.668569,14.677238 L 27.651271,14.674961 L 27.634237,14.671185 L 27.617596,14.665938 L 27.601477,14.659261 L 27.586001,14.651205 L 27.571285,14.64183 L 27.557443,14.631208 L 27.544579,14.619421 L 27.532792,14.606557 L 27.52217,14.592715 L 27.512795,14.577999 L 27.504739,14.562523 L 27.498062,14.546404 L 27.492815,14.529763 L 27.489039,14.512729 L 27.486762,14.495431 L 27.486,14.478 L 27.486762,14.460569 L 27.489039,14.443271 L 27.492815,14.426237 L 27.498062,14.409596 L 27.504739,14.393477 L 27.512795,14.378 L 27.52217,14.363285 L 27.532792,14.349443 L 27.544579,14.336579 L 27.557443,14.324792 L 27.571285,14.31417 L 27.586,14.304795 L 27.601477,14.296739 L 27.617596,14.290062 L 27.634237,14.284815 L 27.651271,14.281039 L 27.668569,14.278762 L 27.686,14.278 L 27.703431,14.278762 L 27.720729,14.281039 L 27.737763,14.284815 L 27.754404,14.290062 L 27.770523,14.296739 L 27.786,14.304795 L 27.800715,14.31417 L 27.814557,14.324792 L 27.827421,14.336579 L 27.839208,14.349443 L 27.84983,14.363285 L 27.859205,14.378 L 27.867261,14.393477 L 27.873938,14.409596 L 27.879185,14.426237 L 27.882961,14.443271 L 27.885238,14.460569 L 27.886,14.478 z" /><path fill-rule="evenodd" fill="#66cc99" stroke="#555555" stroke-width="0.0" opacity="0.6" d="M 26.616,19.558 L 26.615238,19.575431 L 26.612961,19.592729 L 26.609185,19.609763 L 26.603938,19.626404 L 26.597261,19.642523 L 26.589205,19.657999 L 26.57983,19.672715 L 26.569208,19.686557 L 26.557421,19.699421 L 26.544557,19.711208 L 26.530715,19.72183 L 26.516,19.731205 L 26.500523,19.739261 L 26.484404,19.745938 L 26.467763,19.751185 L 26.450729,19.754961 L 26.433431,19.757238 L 26.416,19.758 L 26.398569,19.757238 L 26.381271,19.754961 L 26.364237,19.751185 L 26.347596,19.745938 L 26.331477,19.739261 L 26.316001,19.731205 L 26.301285,19.72183 L 26.287443,19.711208 L 26.274579,19.699421 L 26.262792,19.686557 L 26.25217,19.672715 L 26.242795,19.657999 L 26.234739,19.642523 L 26.228062,19.626404 L 26.222815,19.609763 L 26.219039,19.592729 L 26.216762,19.575431 L 26.216,19.558 L 26.216762,19.540569 L 26.219039,19.523271 L 26.222815,19.506237 L 26.228062,19.489596 L 26.234739,19.473477 L 26.242795,19.458 L 26.25217,19.443285 L 26.262792,19.429443 L 26.274579,19.416579 L 26.287443,19.404792 L 26.301285,19.39417 L 26.316,19.384795 L 26.331477,19.376739 L 26.347596,19.370062 L 26.364237,19.364815 L 26.381271,19.361039 L 26.398569,19.358762 L 26.416,19.358 L 26.433431,19.358762 L 26.450729,19.361039 L 26.467763,19.364815 L 26.484404,19.370062 L 26.500523,19.376739 L 26.516,19.384795 L 26.530715,19.39417 L 26.544557,19.404792 L 26.557421,19.416579 L 26.569208,19.429443 L 26.57983,19.443285 L 26.589205,19.458 L 26.597261,19.473477 L 26.603938,19.489596 L 26.609185,19.506237 L 26.612961,19.523271 L 26.615238,19.540569 L 26.616,19.558 z" /><path fill-rule="evenodd" fill="#66cc99" stroke="#555555" stroke-width="0.0" opacity="0.6" d="M 33.728,14.224 L 33.727238,14.241431 L 33.724961,14.258729 L 33.721185,14.275763 L 33.715938,14.292404 L 33.709261,14.308523 L 33.701205,14.323999 L 33.69183,14.338715 L 33.681208,14.352557 L 33.669421,14.365421 L 33.656557,14.377208 L 33.642715,14.38783 L 33.628,14.397205 L 33.612523,14.405261 L 33.596404,14.411938 L 33.579763,14.417185 L 33.562729,14.420961 L 33.545431,14.423238 L 33.528,14.424 L 33.510569,14.423238 L 33.493271,14.420961 L 33.476237,14.417185 L 33.459596,14.411938 L 33.443477,14.405261 L 33.428001,14.397205 L 33.413285,14.38783 L 33.399443,14.377208 L 33.386579,14.365421 L 33.374792,14.352557 L 33.36417,14.338715 L 33.354795,14.323999 L 33.346739,14.308523 L 33.340062,14.292404 L 33.334815,14.275763 L 33.331039,14.258729 L 33.328762,14.241431 L 33.328,14.224 L 33.328762,14.206569 L 33.331039,14.189271 L 33.334815,14.172237 L 33.340062,14.155596 L 33.346739,14.139477 L 33.354795,14.124 L 33.36417,14.109285 L 33.374792,14.095443 L 33.386579,14.082579 L 33.399443,14.070792 L 33.413285,14.06017 L 33.428,14.050795 L 33.443477,14.042739 L 33.459596,14.036062 L 33.476237,14.030815 L 33.493271,14.027039 L 33.510569,14.024762 L 33.528,14.024 L 33.545431,14.024762 L 33.562729,14.027039 L 33.579763,14.030815 L 33.596404,14.036062 L 33.612523,14.042739 L 33.628,14.050795 L 33.642715,14.06017 L 33.656557,14.070792 L 33.669421,14.082579 L 33.681208,14.095443 L 33.69183,14.109285 L 33.701205,14.124 L 33.709261,14.139477 L 33.715938,14.155596 L 33.721185,14.172237 L 33.724961,14.189271 L 33.727238,14.206569 L 33.728,14.224 z" /><path fill-rule="evenodd" fill="#66cc99" stroke="#555555" stroke-width="0.0" opacity="0.6" d="M 24.33,12.192 L 24.329238,12.209431 L 24.326961,12.226729 L 24.323185,12.243763 L 24.317938,12.260404 L 24.311261,12.276523 L 24.303205,12.291999 L 24.29383,12.306715 L 24.283208,12.320557 L 24.271421,12.333421 L 24.258557,12.345208 L 24.244715,12.35583 L 24.23,12.365205 L 24.214523,12.373261 L 24.198404,12.379938 L 24.181763,12.385185 L 24.164729,12.388961 L 24.147431,12.391238 L 24.13,12.392 L 24.112569,12.391238 L 24.095271,12.388961 L 24.078237,12.385185 L 24.061596,12.379938 L 24.045477,12.373261 L 24.030001,12.365205 L 24.015285,12.35583 L 24.001443,12.345208 L 23.988579,12.333421 L 23.976792,12.320557 L 23.96617,12.306715 L 23.956795,12.291999 L 23.948739,12.276523 L 23.942062,12.260404 L 23.936815,12.243763 L 23.933039,12.226729 L 23.930762,12.209431 L 23.93,12.192 L 23.930762,12.174569 L 23.933039,12.157271 L 23.936815,12.140237 L 23.942062,12.123596 L 23.948739,12.107477 L 23.956795,12.092 L 23.96617,12.077285 L 23.976792,12.063443 L 23.988579,12.050579 L 24.001443,12.038792 L 24.015285,12.02817 L 24.03,12.018795 L 24.045477,12.010739 L 24.061596,12.004062 L 24.078237,11.998815 L 24.095271,11.995039 L 24.112569,11.992762 L 24.13,11.992 L 24.147431,11.992762 L 24.164729,11.995039 L 24.181763,11.998815 L 24.198404,12.004062 L 24.214523,12.010739 L 24.23,12.018795 L 24.244715,12.02817 L 24.258557,12.038792 L 24.271421,12.050579 L 24.283208,12.063443 L 24.29383,12.077285 L 24.303205,12.092 L 24.311261,12.107477 L 24.317938,12.123596 L 24.323185,12.140237 L 24.326961,12.157271 L 24.329238,12.174569 L 24.33,12.192 z" /></g>
                    </g>
                    </svg>