<svg xmlns="http://www.w3.org/2000/svg" viewBox="0 0 43.434 40.132" width="43.434mm" height="40.132mm">
                    <g stroke-linecap="round">
                        <g><path fill-rule="evenodd" fill="#66cc99" stroke="#555555" stroke-width="0.0" opacity="0.6" d="M 11.701070753989756,8.517717719191737 L 11.789033898532525,8.539751339877121 L 11.874413804000765,8.570300758538954 L 11.956388215231627,8.609071767575584 L 12.034167673832968,8.655690980975494 L 12.107003121099934,8.709709430229008 L 12.17419311185956,8.770606888140424 L 12.235090569770902,8.837796878899976 L 12.289109019024567,8.910632326167136 L 12.335728232424422,8.988411784768402 L 12.361251340949059,9.042375863756172 L 12.564851270583347,9.015225678567402 L 14.079984024408072,8.946540129692071 L 15.595336529533178,9.010168793837964 L 17.099377153219162,9.205626464179785 L 18.58065880877474,9.531426698951885 L 20.027908431797176,9.985088790469192 L 21.430112367131144,10.563160593386748 L 22.776598075038493,11.26124343295642 L 23.19221817881763,11.525048790886506 L 23.186739,11.514523 L 23.180062,11.498404 L 23.174815,11.481763 L 23.171039,11.464729 L 23.168762,11.447431 L 23.168,11.43 L 23.168762,11.412569 L 23.171039,11.395271 L 23.174815,11.378237 L 23.180062,11.361596 L 23.186739,11.345477 L 23.194795,11.33 L 23.20417,11.315285 L 23.214792,11.301443 L 23.226579,11.288579 L 23.239443,11.276792 L 23.253285,11.26617 L 23.268,11.256795 L 23.283477,11.248739 L 23.299596,11.242062 L 23.316237,11.236815 L 23.333271,11.233039 L 23.350569,11.230762 L 23.368,11.23 L 23.385431,11.230762 L 23.402729,11.233039 L 23.419763,11.236815 L 23.436404,11.242062 L 23.452523,11.248739 L 23.468,11.256795 L 23.482715,11.26617 L 23.496557,11.276792 L 23.509421,11.288579 L 23.521208,11.301443 L 23.53183,11.315285 L 23.541205,11.33 L 23.549261,11.345477 L 23.555938,11.361596 L 23.561185,11.378237 L 23.564961,11.395271 L 23.567238,11.412569 L 23.568,11.43 L 23.567238,11.447431 L 23.564961,11.464729 L 23.561185,11.481763 L 23.555938,11.498404 L 23.549261,11.514523 L 23.541205,11.529999 L 23.53183,11.544715 L 23.521208,11.558557 L 23.509421,11.571421 L 23.496557,11.583208 L 23.482715,11.59383 L 23.468,11.603205 L 23.452523,11.611261 L 23.436404,11.617938 L 23.419763,11.623185 L 23.402729,11.626961 L 23.385431,11.629238 L 23.368,11.63 L 23.356795009802937,11.629510171388327 L 24.05711760819143,12.074023928192974 L 25.26192604405889,12.995315683010235 L 26.381854165165006,14.018108053894878 L 27.40837804651314,15.134615860907779 L 28.325724459758966,16.3260035402707 L 28.335837,16.322815 L 28.352871,16.319039 L 28.370169,16.316762 L 28.3876,16.316 L 28.405031,16.316762 L 28.422329,16.319039 L 28.439363,16.322815 L 28.456004,16.328062 L 28.472123,16.334739 L 28.4876,16.342795 L 28.502315,16.35217 L 28.516157,16.362792 L 28.529021,16.374579 L 28.540808,16.387443 L 28.55143,16.401285 L 28.560805,16.416 L 28.568861,16.431477 L 28.575538,16.447596 L 28.580785,16.464237 L 28.584561,16.481271 L 28.586838,16.498569 L 28.5876,16.516 L 28.586838,16.533431 L 28.584561,16.550729 L 28.580785,16.567763 L 28.575538,16.584404 L 28.568861,16.600523 L 28.560805,16.615999 L 28.55143,16.630715 L 28.540808,16.644557 L 28.534891875948905,16.651013691252484 L 29.150734575681774,17.61414319179654 L 29.853306591892718,18.958291401193396 L 30.436055477303533,20.35855751828672 L 30.894545759999396,21.804285865031556 L 31.22528754634878,23.284472832601963 L 31.425764321629167,24.787853272057518 L 31.49444987018314,26.302985024517863 L 31.43082120651716,27.818336523938342 L 31.235363537638456,29.322376142090096 L 30.90956330526823,30.803656792449804 L 30.455901217018784,32.25090541077174 L 29.87782940702328,33.65310836899881 L 29.179747554858178,34.99959309588353 L 28.400024000983507,36.22803262315427 L 29.50470458476174,35.76829759773779 L 30.84885177970815,35.06572559207204 L 32.12665097518301,34.2486766717238 L 33.32837714349842,33.32337004246208 L 34.444884944556655,32.29684616658868 L 35.467676329164746,31.176919030999453 L 36.388968076345265,29.97211159939441 L 37.20174755485818,28.691593095883533 L 37.89982940702328,27.34510836899881 L 38.47790121701878,25.942905410771743 L 38.93156330526823,24.495656792449804 L 39.257363537638454,23.014376142090097 L 39.45282120651716,21.510336523938342 L 39.51644987018314,19.994985024517863 L 39.447764321629165,18.479853272057518 L 39.24728754634878,16.976472832601964 L 38.916545759999394,15.496285865031556 L 38.45805547730353,14.05055751828672 L 37.875306591892716,12.650291401193396 L 37.17273457568177,11.30614319179658 L 36.35568566415483,10.028343015841939 L 35.43037804651311,8.826615860907733 L 34.403854165165065,7.71010805389496 L 33.28392604405877,6.687315683010146 L 32.07911760819155,5.766023928193047 L 30.79859807503849,4.95324343295642 L 29.452112367131143,4.255160593386747 L 28.049908431797178,3.677088790469192 L 26.602658808774738,3.223426698951885 L 25.121377153219164,2.897626464179784 L 23.617336529533176,2.7021687938379646 L 22.101984024408072,2.6385401296920703 L 20.586851270583363,2.707225678567402 L 19.083470832601936,2.9077024536512197 L 17.60328386503163,3.238444240000591 L 16.157555506258966,3.696934526510872 L 14.757288402836204,4.279683408614762 L 13.41313921234192,4.982256412213199 L 12.135338028789223,5.799306326534375 L 10.933609866857603,6.724614948247239 L 9.817101055208788,7.751139833396308 L 8.79430867887041,8.871067960474118 L 7.873015935593367,10.07587738301161 L 7.839963402089641,10.127951033748918 L 8.13555550625895,10.004934526510873 L 9.58128386503163,9.546444240000591 L 10.603495473025694,9.318035193939343 L 10.61451771919176,9.243729246010178 L 10.6365513398771,9.155766101467572 L 10.667100758538977,9.07038619599919 L 10.705871767575577,8.988411784768402 L 10.752490980975434,8.910632326167136 L 10.806509430229097,8.837796878899976 L 10.86740688814044,8.770606888140424 L 10.934596878900066,8.709709430229008 L 11.007432326167033,8.655690980975494 L 11.085211784768372,8.609071767575584 L 11.167186195999236,8.570300758538954 L 11.252566101467476,8.539751339877121 L 11.340529246010243,8.517717719191737 L 11.430228496459842,8.50441209229485 L 11.5208,8.499962599647038 L 11.611371503540159,8.50441209229485 L 11.701070753989756,8.517717719191737 z M 33.23676767383284,10.189709019024596 L 33.15898821523163,10.236328232424423 L 33.07701380400083,10.275099241461024 L 32.99163389853254,10.305648660122879 L 32.90367075398976,10.327682280808263 L 32.81397150354016,10.34098790770515 L 32.7234,10.345437400352962 L 32.632828496459815,10.34098790770515 L 32.543129246010245,10.327682280808263 L 32.45516610146746,10.305648660122879 L 32.369786195999176,10.275099241461024 L 32.28781178476837,10.236328232424423 L 32.210032326167166,10.189709019024596 L 32.137196878899964,10.135690569770903 L 32.0700068881405,10.07479311185965 L 32.009109430229095,10.007603121100008 L 31.95509098097545,9.934767673832871 L 31.908471767575563,9.856988215231553 L 31.86970075853899,9.775013804000848 L 31.83915133987707,9.689633898532346 L 31.81711771919176,9.601670753989868 L 31.803812092294873,9.5119715035403 L 31.799362599647043,9.4214 L 31.803812092294873,9.3308284964597 L 31.81711771919176,9.241129246010132 L 31.83915133987707,9.153166101467654 L 31.86970075853899,9.067786195999153 L 31.908471767575563,8.985811784768448 L 31.95509098097545,8.90803232616713 L 32.009109430229095,8.83519687889999 L 32.0700068881405,8.76800688814035 L 32.137196878899964,8.707109430229098 L 32.210032326167166,8.653090980975405 L 32.28781178476837,8.606471767575577 L 32.369786195999176,8.567700758538976 L 32.45516610146746,8.537151339877122 L 32.543129246010245,8.515117719191737 L 32.632828496459815,8.50181209229485 L 32.7234,8.497362599647039 L 32.81397150354019,8.50181209229485 L 32.90367075398976,8.515117719191737 L 32.99163389853254,8.537151339877122 L 33.07701380400083,8.567700758538976 L 33.15898821523163,8.606471767575577 L 33.23676767383284,8.653090980975405 L 33.30960312110004,8.707109430229098 L 33.3767931118595,8.76800688814035 L 33.4376905697709,8.83519687889999 L 33.49170901902455,8.90803232616713 L 33.53832823242444,8.985811784768448 L 33.577099241461006,9.067786195999153 L 33.60764866012293,9.153166101467654 L 33.62968228080824,9.241129246010132 L 33.64298790770513,9.3308284964597 L 33.647437400352956,9.4214 L 33.64298790770513,9.5119715035403 L 33.62968228080824,9.601670753989868 L 33.60764866012293,9.689633898532346 L 33.577099241461006,9.775013804000848 L 33.53832823242444,9.856988215231553 L 33.49170901902455,9.934767673832871 L 33.4376905697709,10.007603121100017 L 33.3767931118595,10.07479311185965 L 33.30960312110004,10.135690569770903 L 33.23676767383284,10.189709019024596 z M 33.3793931118595,31.277393111859634 L 33.31220312110001,31.338290569770933 L 33.23936767383287,31.392309019024566 L 33.161588215231625,31.43892823242441 L 33.07961380400086,31.477699241461007 L 32.99423389853239,31.508248660122916 L 32.906270753989816,31.53028228080824 L 32.81657150354016,31.54358790770514 L 32.726,31.548037400352953 L 32.63542849645981,31.54358790770514 L 32.54572924601018,31.53028228080824 L 32.45776610146761,31.508248660122916 L 32.37238619599915,31.477699241461007 L 32.290411784768374,31.43892823242441 L 32.21263232616714,31.392309019024566 L 32.13979687889999,31.338290569770933 L 32.0726068881405,31.277393111859634 L 32.01170943022904,31.210203121099948 L 31.957690980975478,31.13736767383291 L 31.911071767575564,31.059588215231567 L 31.872300758539023,30.97761380400087 L 31.84175133987704,30.8922338985323 L 31.81971771919176,30.80427075398989 L 31.80641209229487,30.714571503540277 L 31.801962599647045,30.624 L 31.80641209229487,30.533428496459724 L 31.81971771919176,30.44372924601011 L 31.84175133987704,30.355766101467697 L 31.872300758539023,30.27038619599913 L 31.911071767575564,30.188411784768434 L 31.957690980975478,30.110632326167092 L 32.01170943022904,30.03779687890005 L 32.0726068881405,29.970606888140367 L 32.13979687889999,29.909709430229068 L 32.21263232616714,29.855690980975435 L 32.290411784768374,29.809071767575592 L 32.37238619599915,29.77030075853899 L 32.45776610146761,29.739751339877085 L 32.54572924601018,29.71771771919176 L 32.63542849645981,29.704412092294856 L 32.726,29.699962599647044 L 32.81657150354019,29.704412092294856 L 32.906270753989816,29.71771771919176 L 32.99423389853239,29.739751339877085 L 33.07961380400086,29.77030075853899 L 33.161588215231625,29.809071767575592 L 33.23936767383287,29.855690980975435 L 33.31220312110001,29.909709430229068 L 33.3793931118595,29.970606888140367 L 33.44029056977096,30.03779687890005 L 33.49430901902452,30.110632326167092 L 33.54092823242444,30.188411784768434 L 33.57969924146098,30.27038619599913 L 33.61024866012296,30.355766101467697 L 33.63228228080824,30.44372924601011 L 33.64558790770513,30.533428496459724 L 33.65003740035296,30.624 L 33.64558790770513,30.714571503540277 L 33.63228228080824,30.80427075398989 L 33.61024866012296,30.8922338985323 L 33.57969924146098,30.97761380400087 L 33.54092823242444,31.059588215231567 L 33.49430901902452,31.13736767383291 L 33.44029056977096,31.210203121099948 L 33.3793931118595,31.277393111859634 z M 18.227185,8.076237 L 18.230961,8.093271 L 18.233238,8.110569 L 18.234,8.128 L 18.233238,8.145431 L 18.230961,8.162729 L 18.227185,8.179763 L 18.221938,8.196404 L 18.215261,8.212523 L 18.207205,8.227999 L 18.19783,8.242715 L 18.187208,8.256557 L 18.175421,8.269421 L 18.162557,8.281208 L 18.148715,8.29183 L 18.134,8.301205 L 18.118523,8.309261 L 18.102404,8.315938 L 18.085763,8.321185 L 18.068729,8.324961 L 18.051431,8.327238 L 18.034,8.328 L 18.016569,8.327238 L 17.999271,8.324961 L 17.982237,8.321185 L 17.965596,8.315938 L 17.949477,8.309261 L 17.934001,8.301205 L 17.919285,8.29183 L 17.905443,8.281208 L 17.892579,8.269421 L 17.880792,8.256557 L 17.87017,8.242715 L 17.860795,8.227999 L 17.852739,8.212523 L 17.846062,8.196404 L 17.840815,8.179763 L 17.837039,8.162729 L 17.834762,8.145431 L 17.834,8.128 L 17.834762,8.110569 L 17.837039,8.093271 L 17.840815,8.076237 L 17.846062,8.059596 L 17.852739,8.043477 L 17.860795,8.028 L 17.87017,8.013285 L 17.880792,7.999443 L 17.892579,7.986579 L 17.905443,7.974792 L 17.919285,7.96417 L 17.934,7.954795 L 17.949477,7.946739 L 17.965596,7.940062 L 17.982237,7.934815 L 17.999271,7.931039 L 18.016569,7.928762 L 18.034,7.928 L 18.051431,7.928762 L 18.068729,7.931039 L 18.085763,7.934815 L 18.102404,7.940062 L 18.118523,7.946739 L 18.134,7.954795 L 18.148715,7.96417 L 18.162557,7.974792 L 18.175421,7.986579 L 18.187208,7.999443 L 18.19783,8.013285 L 18.207205,8.028 L 18.215261,8.043477 L 18.221938,8.059596 L 18.227185,8.076237 z M 38.253208,22.477443 L 38.26383,22.491285 L 38.273205,22.506 L 38.281261,22.521477 L 38.287938,22.537596 L 38.293185,22.554237 L 38.296961,22.571271 L 38.299238,22.588569 L 38.3,22.606 L 38.299238,22.623431 L 38.296961,22.640729 L 38.293185,22.657763 L 38.287938,22.674404 L 38.281261,22.690523 L 38.273205,22.705999 L 38.26383,22.720715 L 38.253208,22.734557 L 38.241421,22.747421 L 38.228557,22.759208 L 38.214715,22.76983 L 38.2,22.779205 L 38.184523,22.787261 L 38.168404,22.793938 L 38.151763,22.799185 L 38.134729,22.802961 L 38.117431,22.805238 L 38.1,22.806 L 38.082569,22.805238 L 38.065271,22.802961 L 38.048237,22.799185 L 38.031596,22.793938 L 38.015477,22.787261 L 38.000001,22.779205 L 37.985285,22.76983 L 37.971443,22.759208 L 37.958579,22.747421 L 37.946792,22.734557 L 37.93617,22.720715 L 37.926795,22.705999 L 37.918739,22.690523 L 37.912062,22.674404 L 37.906815,22.657763 L 37.903039,22.640729 L 37.900762,22.623431 L 37.9,22.606 L 37.900762,22.588569 L 37.903039,22.571271 L 37.906815,22.554237 L 37.912062,22.537596 L 37.918739,22.521477 L 37.926795,22.506 L 37.93617,22.491285 L 37.946792,22.477443 L 37.958579,22.464579 L 37.971443,22.452792 L 37.985285,22.44217 L 38.0,22.432795 L 38.015477,22.424739 L 38.031596,22.418062 L 38.048237,22.412815 L 38.065271,22.409039 L 38.082569,22.406762 L 38.1,22.406 L 38.117431,22.406762 L 38.134729,22.409039 L 38.151763,22.412815 L 38.168404,22.418062 L 38.184523,22.424739 L 38.2,22.432795 L 38.214715,22.44217 L 38.228557,22.452792 L 38.241421,22.464579 L 38.253208,22.477443 z M 24.960404,7.178062 L 24.976523,7.184739 L 24.992,7.192795 L 25.006715,7.20217 L 25.020557,7.212792 L 25.033421,7.224579 L 25.045208,7.237443 L 25.05583,7.251285 L 25.065205,7.266 L 25.073261,7.281477 L 25.079938,7.297596 L 25.085185,7.314237 L 25.088961,7.331271 L 25.091238,7.348569 L 25.092,7.366 L 25.091238,7.383431 L 25.088961,7.400729 L 25.085185,7.417763 L 25.079938,7.434404 L 25.073261,7.450523 L 25.065205,7.465999 L 25.05583,7.480715 L 25.045208,7.494557 L 25.033421,7.507421 L 25.020557,7.519208 L 25.006715,7.52983 L 24.992,7.539205 L 24.976523,7.547261 L 24.960404,7.553938 L 24.943763,7.559185 L 24.926729,7.562961 L 24.909431,7.565238 L 24.892,7.566 L 24.874569,7.565238 L 24.857271,7.562961 L 24.840237,7.559185 L 24.823596,7.553938 L 24.807477,7.547261 L 24.792001,7.539205 L 24.777285,7.52983 L 24.763443,7.519208 L 24.750579,7.507421 L 24.738792,7.494557 L 24.72817,7.480715 L 24.718795,7.465999 L 24.710739,7.450523 L 24.704062,7.434404 L 24.698815,7.417763 L 24.695039,7.400729 L 24.692762,7.383431 L 24.692,7.366 L 24.692762,7.348569 L 24.695039,7.331271 L 24.698815,7.314237 L 24.704062,7.297596 L 24.710739,7.281477 L 24.718795,7.266 L 24.72817,7.251285 L 24.738792,7.237443 L 24.750579,7.224579 L 24.763443,7.212792 L 24.777285,7.20217 L 24.792,7.192795 L 24.807477,7.184739 L 24.823596,7.178062 L 24.840237,7.172815 L 24.857271,7.169039 L 24.874569,7.166762 L 24.892,7.166 L 24.909431,7.166762 L 24.926729,7.169039 L 24.943763,7.172815 L 24.960404,7.178062 z M 32.038729,10.979039 L 32.055763,10.982815 L 32.072404,10.988062 L 32.088523,10.994739 L 32.104,11.002795 L 32.118715,11.01217 L 32.132557,11.022792 L 32.145421,11.034579 L 32.157208,11.047443 L 32.16783,11.061285 L 32.177205,11.076 L 32.185261,11.091477 L 32.191938,11.107596 L 32.197185,11.124237 L 32.200961,11.141271 L 32.203238,11.158569 L 32.204,11.176 L 32.203238,11.193431 L 32.200961,11.210729 L 32.197185,11.227763 L 32.191938,11.244404 L 32.185261,11.260523 L 32.177205,11.275999 L 32.16783,11.290715 L 32.157208,11.304557 L 32.145421,11.317421 L 32.132557,11.329208 L 32.118715,11.33983 L 32.104,11.349205 L 32.088523,11.357261 L 32.072404,11.363938 L 32.055763,11.369185 L 32.038729,11.372961 L 32.021431,11.375238 L 32.004,11.376 L 31.986569,11.375238 L 31.969271,11.372961 L 31.952237,11.369185 L 31.935596,11.363938 L 31.919477,11.357261 L 31.904001,11.349205 L 31.889285,11.33983 L 31.875443,11.329208 L 31.862579,11.317421 L 31.850792,11.304557 L 31.84017,11.290715 L 31.830795,11.275999 L 31.822739,11.260523 L 31.816062,11.244404 L 31.810815,11.227763 L 31.807039,11.210729 L 31.804762,11.193431 L 31.804,11.176 L 31.804762,11.158569 L 31.807039,11.141271 L 31.810815,11.124237 L 31.816062,11.107596 L 31.822739,11.091477 L 31.830795,11.076 L 31.84017,11.061285 L 31.850792,11.047443 L 31.862579,11.034579 L 31.875443,11.022792 L 31.889285,11.01217 L 31.904,11.002795 L 31.919477,10.994739 L 31.935596,10.988062 L 31.952237,10.982815 L 31.969271,10.979039 L 31.986569,10.976762 L 32.004,10.976 L 32.021431,10.976762 L 32.038729,10.979039 z M 35.306,16.31 L 35.323431,16.310762 L 35.340729,16.313039 L 35.357763,16.316815 L 35.374404,16.322062 L 35.390523,16.328739 L 35.406,16.336795 L 35.420715,16.34617 L 35.434557,16.356792 L 35.447421,16.368579 L 35.459208,16.381443 L 35.46983,16.395285 L 35.479205,16.41 L 35.487261,16.425477 L 35.493938,16.441596 L 35.499185,16.458237 L 35.502961,16.475271 L 35.505238,16.492569 L 35.506,16.51 L 35.505238,16.527431 L 35.502961,16.544729 L 35.499185,16.561763 L 35.493938,16.578404 L 35.487261,16.594523 L 35.479205,16.609999 L 35.46983,16.624715 L 35.459208,16.638557 L 35.447421,16.651421 L 35.434557,16.663208 L 35.420715,16.67383 L 35.406,16.683205 L 35.390523,16.691261 L 35.374404,16.697938 L 35.357763,16.703185 L 35.340729,16.706961 L 35.323431,16.709238 L 35.306,16.71 L 35.288569,16.709238 L 35.271271,16.706961 L 35.254237,16.703185 L 35.237596,16.697938 L 35.221477,16.691261 L 35.206001,16.683205 L 35.191285,16.67383 L 35.177443,16.663208 L 35.164579,16.651421 L 35.152792,16.638557 L 35.14217,16.624715 L 35.132795,16.609999 L 35.124739,16.594523 L 35.118062,16.578404 L 35.112815,16.561763 L 35.109039,16.544729 L 35.106762,16.527431 L 35.106,16.51 L 35.106762,16.492569 L 35.109039,16.475271 L 35.112815,16.458237 L 35.118062,16.441596 L 35.124739,16.425477 L 35.132795,16.41 L 35.14217,16.395285 L 35.152792,16.381443 L 35.164579,16.368579 L 35.177443,16.356792 L 35.191285,16.34617 L 35.206,16.336795 L 35.221477,16.328739 L 35.237596,16.322062 L 35.254237,16.316815 L 35.271271,16.313039 L 35.288569,16.310762 L 35.306,16.31 z M 28.370169,15.294762 L 28.3876,15.294 L 28.405031,15.294762 L 28.422329,15.297039 L 28.439363,15.300815 L 28.456004,15.306062 L 28.472123,15.312739 L 28.4876,15.320795 L 28.502315,15.33017 L 28.516157,15.340792 L 28.529021,15.352579 L 28.540808,15.365443 L 28.55143,15.379285 L 28.560805,15.394 L 28.568861,15.409477 L 28.575538,15.425596 L 28.580785,15.442237 L 28.584561,15.459271 L 28.586838,15.476569 L 28.5876,15.494 L 28.586838,15.511431 L 28.584561,15.528729 L 28.580785,15.545763 L 28.575538,15.562404 L 28.568861,15.578523 L 28.560805,15.593999 L 28.55143,15.608715 L 28.540808,15.622557 L 28.529021,15.635421 L 28.516157,15.647208 L 28.502315,15.65783 L 28.4876,15.667205 L 28.472123,15.675261 L 28.456004,15.681938 L 28.439363,15.687185 L 28.422329,15.690961 L 28.405031,15.693238 L 28.3876,15.694 L 28.370169,15.693238 L 28.352871,15.690961 L 28.335837,15.687185 L 28.319196,15.681938 L 28.303077,15.675261 L 28.287601,15.667205 L 28.272885,15.65783 L 28.259043,15.647208 L 28.246179,15.635421 L 28.234392,15.622557 L 28.22377,15.608715 L 28.214395,15.593999 L 28.206339,15.578523 L 28.199662,15.562404 L 28.194415,15.545763 L 28.190639,15.528729 L 28.188362,15.511431 L 28.1876,15.494 L 28.188362,15.476569 L 28.190639,15.459271 L 28.194415,15.442237 L 28.199662,15.425596 L 28.206339,15.409477 L 28.214395,15.394 L 28.22377,15.379285 L 28.234392,15.365443 L 28.246179,15.352579 L 28.259043,15.340792 L 28.272885,15.33017 L 28.2876,15.320795 L 28.303077,15.312739 L 28.319196,15.306062 L 28.335837,15.300815 L 28.352871,15.297039 L 28.370169,15.294762 z M 34.255271,15.297039 L 34.272569,15.294762 L 34.29,15.294 L 34.307431,15.294762 L 34.324729,15.297039 L 34.341763,15.300815 L 34.358404,15.306062 L 34.374523,15.312739 L 34.39,15.320795 L 34.404715,15.33017 L 34.418557,15.340792 L 34.431421,15.352579 L 34.443208,15.365443 L 34.45383,15.379285 L 34.463205,15.394 L 34.471261,15.409477 L 34.477938,15.425596 L 34.483185,15.442237 L 34.486961,15.459271 L 34.489238,15.476569 L 34.49,15.494 L 34.489238,15.511431 L 34.486961,15.528729 L 34.483185,15.545763 L 34.477938,15.562404 L 34.471261,15.578523 L 34.463205,15.593999 L 34.45383,15.608715 L 34.443208,15.622557 L 34.431421,15.635421 L 34.418557,15.647208 L 34.404715,15.65783 L 34.39,15.667205 L 34.374523,15.675261 L 34.358404,15.681938 L 34.341763,15.687185 L 34.324729,15.690961 L 34.307431,15.693238 L 34.29,15.694 L 34.272569,15.693238 L 34.255271,15.690961 L 34.238237,15.687185 L 34.221596,15.681938 L 34.205477,15.675261 L 34.190001,15.667205 L 34.175285,15.65783 L 34.161443,15.647208 L 34.148579,15.635421 L 34.136792,15.622557 L 34.12617,15.608715 L 34.116795,15.593999 L 34.108739,15.578523 L 34.102062,15.562404 L 34.096815,15.545763 L 34.093039,15.528729 L 34.090762,15.511431 L 34.09,15.494 L 34.090762,15.476569 L 34.093039,15.459271 L 34.096815,15.442237 L 34.102062,15.425596 L 34.108739,15.409477 L 34.116795,15.394 L 34.12617,15.379285 L 34.136792,15.365443 L 34.148579,15.352579 L 34.161443,15.340792 L 34.175285,15.33017 L 34.19,15.320795 L 34.205477,15.312739 L 34.221596,15.306062 L 34.238237,15.300815 L 34.255271,15.297039 z M 20.392739,7.281477 L 20.400795,7.266 L 20.41017,7.251285 L 20.420792,7.237443 L 20.432579,7.224579 L 20.445443,7.212792 L 20.459285,7.20217 L 20.474,7.192795 L 20.489477,7.184739 L 20.505596,7.178062 L 20.522237,7.172815 L 20.539271,7.169039 L 20.556569,7.166762 L 20.574,7.166 L 20.591431,7.166762 L 20.608729,7.169039 L 20.625763,7.172815 L 20.642404,7.178062 L 20.658523,7.184739 L 20.674,7.192795 L 20.688715,7.20217 L 20.702557,7.212792 L 20.715421,7.224579 L 20.727208,7.237443 L 20.73783,7.251285 L 20.747205,7.266 L 20.755261,7.281477 L 20.761938,7.297596 L 20.767185,7.314237 L 20.770961,7.331271 L 20.773238,7.348569 L 20.774,7.366 L 20.773238,7.383431 L 20.770961,7.400729 L 20.767185,7.417763 L 20.761938,7.434404 L 20.755261,7.450523 L 20.747205,7.465999 L 20.73783,7.480715 L 20.727208,7.494557 L 20.715421,7.507421 L 20.702557,7.519208 L 20.688715,7.52983 L 20.674,7.539205 L 20.658523,7.547261 L 20.642404,7.553938 L 20.625763,7.559185 L 20.608729,7.562961 L 20.591431,7.565238 L 20.574,7.566 L 20.556569,7.565238 L 20.539271,7.562961 L 20.522237,7.559185 L 20.505596,7.553938 L 20.489477,7.547261 L 20.474001,7.539205 L 20.459285,7.52983 L 20.445443,7.519208 L 20.432579,7.507421 L 20.420792,7.494557 L 20.41017,7.480715 L 20.400795,7.465999 L 20.392739,7.450523 L 20.386062,7.434404 L 20.380815,7.417763 L 20.377039,7.400729 L 20.374762,7.383431 L 20.374,7.366 L 20.374762,7.348569 L 20.377039,7.331271 L 20.380815,7.314237 L 20.386062,7.297596 L 20.392739,7.281477 z" /><path fill-rule="evenodd" fill="#66cc99" stroke="#555555" stroke-width="0.0" opacity="0.6" d="M 23.88907176757556,36.49641178476843 L 23.85030075853902,36.57838619599913 L 23.81975133987704,36.6637661014677 L 23.79771771919176,36.75172924601011 L 23.784412092294872,36.84142849645972 L 23.779962599647046,36.932 L 23.784412092294872,37.02257150354028 L 23.79771771919176,37.11227075398989 L 23.806917916374953,37.149 L 25.1234,37.149 L 25.128286693768175,37.149240067870615 L 25.176468042928636,37.14073720215377 L 25.620786666537523,37.041455937547816 L 25.62358790770513,37.02257150354028 L 25.628037400352955,36.932 L 25.62358790770513,36.84142849645972 L 25.61028228080824,36.75172924601011 L 25.58824866012296,36.6637661014677 L 25.55769924146098,36.57838619599913 L 25.51892823242444,36.49641178476843 L 25.47230901902452,36.41863232616709 L 25.418290569770964,36.34579687890005 L 25.3573931118595,36.27860688814037 L 25.29020312110001,36.21770943022907 L 25.217367673832864,36.16369098097543 L 25.139588215231626,36.117071767575595 L 25.057613804000855,36.078300758538994 L 24.97223389853239,36.04775133987708 L 24.884270753989817,36.02571771919176 L 24.794571503540187,36.01241209229486 L 24.704,36.007962599647044 L 24.61342849645981,36.01241209229486 L 24.523729246010184,36.02571771919176 L 24.43576610146761,36.04775133987708 L 24.350386195999146,36.078300758538994 L 24.26841178476837,36.117071767575595 L 24.190632326167137,36.16369098097543 L 24.11779687889999,36.21770943022907 L 24.0506068881405,36.27860688814037 L 23.989709430229038,36.34579687890005 L 23.93569098097548,36.41863232616709 L 23.88907176757556,36.49641178476843 z" /><path fill-rule="evenodd" fill="#66cc99" stroke="#555555" stroke-width="0.0" opacity="0.6" d="M 25.58564866012296,15.997633898532301 L 25.60768228080824,15.90967075398989 L 25.62098790770513,15.819971503540277 L 25.625437400352954,15.7294 L 25.62098790770513,15.638828496459723 L 25.60768228080824,15.549129246010109 L 25.58564866012296,15.461166101467699 L 25.55509924146098,15.375786195999131 L 25.51632823242444,15.293811784768433 L 25.46970901902452,15.216032326167092 L 25.415690569770963,15.143196878900051 L 25.3547931118595,15.076006888140366 L 25.28760312110001,15.015109430229067 L 25.214767673832863,14.961090980975435 L 25.13698821523163,14.914471767575591 L 25.055013804000854,14.875700758538992 L 24.96963389853239,14.845151339877084 L 24.881670753989816,14.82311771919176 L 24.79197150354019,14.809812092294857 L 24.7014,14.805362599647045 L 24.610828496459813,14.809812092294857 L 24.521129246010183,14.82311771919176 L 24.43316610146761,14.845151339877084 L 24.347786195999145,14.875700758538992 L 24.265811784768374,14.914471767575591 L 24.188032326167136,14.961090980975435 L 24.11519687889999,15.015109430229067 L 24.0480068881405,15.076006888140366 L 23.987109430229037,15.143196878900051 L 23.93309098097548,15.216032326167092 L 23.88647176757556,15.293811784768433 L 23.84770075853902,15.375786195999131 L 23.81715133987704,15.461166101467699 L 23.79511771919176,15.549129246010109 L 23.78181209229487,15.638828496459723 L 23.777362599647045,15.7294 L 23.78181209229487,15.819971503540277 L 23.79511771919176,15.90967075398989 L 23.81715133987704,15.997633898532301 L 23.84770075853902,16.08301380400087 L 23.88647176757556,16.164988215231567 L 23.93309098097548,16.24276767383291 L 23.987109430229037,16.315603121099947 L 24.0480068881405,16.382793111859634 L 24.11519687889999,16.443690569770933 L 24.188032326167136,16.497709019024565 L 24.265811784768374,16.54432823242441 L 24.347786195999145,16.58309924146101 L 24.43316610146761,16.613648660122916 L 24.521129246010183,16.63568228080824 L 24.610828496459813,16.648987907705145 L 24.7014,16.653437400352956 L 24.791971503540157,16.648987907705145 L 24.881670753989816,16.63568228080824 L 24.96963389853239,16.613648660122916 L 25.055013804000854,16.58309924146101 L 25.13698821523163,16.54432823242441 L 25.214767673832863,16.497709019024565 L 25.28760312110001,16.443690569770933 L 25.3547931118595,16.382793111859634 L 25.415690569770963,16.315603121099947 L 25.46970901902452,16.24276767383291 L 25.51632823242444,16.164988215231567 L 25.55509924146098,16.08301380400087 L 25.58564866012296,15.997633898532301 z" /></g>
                    </g>
                    </svg>