%TF.GenerationSoftware,KiCad,Pcbnew,7.0.10*%
%TF.CreationDate,2024-11-26T12:30:43-05:00*%
%TF.ProjectId,comparison,636f6d70-6172-4697-936f-6e2e6b696361,rev?*%
%TF.SameCoordinates,Original*%
%TF.FileFunction,Profile,NP*%
%FSLAX46Y46*%
G04 Gerber Fmt 4.6, Leading zero omitted, Abs format (unit mm)*
G04 Created by KiCad (PCBNEW 7.0.10) date 2024-11-26 12:30:43*
%MOMM*%
%LPD*%
G01*
G04 APERTURE LIST*
%TA.AperFunction,Profile*%
%ADD10C,0.100000*%
%TD*%
G04 APERTURE END LIST*
D10*
X140445431Y-84283762D02*
X140462729Y-84286039D01*
X140479763Y-84289815D01*
X140496404Y-84295062D01*
X140512523Y-84301739D01*
X140528000Y-84309795D01*
X140542715Y-84319170D01*
X140556557Y-84329792D01*
X140569421Y-84341579D01*
X140581208Y-84354443D01*
X140591830Y-84368285D01*
X140601205Y-84383000D01*
X140609261Y-84398477D01*
X140615938Y-84414596D01*
X140621185Y-84431237D01*
X140624961Y-84448271D01*
X140627238Y-84465569D01*
X140628000Y-84483000D01*
X140627238Y-84500431D01*
X140624961Y-84517729D01*
X140621185Y-84534763D01*
X140615938Y-84551404D01*
X140609261Y-84567523D01*
X140601205Y-84582999D01*
X140591830Y-84597715D01*
X140581208Y-84611557D01*
X140569421Y-84624421D01*
X140556557Y-84636208D01*
X140542715Y-84646830D01*
X140528000Y-84656205D01*
X140512523Y-84664261D01*
X140496404Y-84670938D01*
X140479763Y-84676185D01*
X140462729Y-84679961D01*
X140445431Y-84682238D01*
X140428000Y-84683000D01*
X140410569Y-84682238D01*
X140393271Y-84679961D01*
X140376237Y-84676185D01*
X140359596Y-84670938D01*
X140343477Y-84664261D01*
X140328001Y-84656205D01*
X140313285Y-84646830D01*
X140299443Y-84636208D01*
X140286579Y-84624421D01*
X140274792Y-84611557D01*
X140264170Y-84597715D01*
X140254795Y-84582999D01*
X140246739Y-84567523D01*
X140240062Y-84551404D01*
X140234815Y-84534763D01*
X140231039Y-84517729D01*
X140228762Y-84500431D01*
X140228000Y-84483000D01*
X140228762Y-84465569D01*
X140231039Y-84448271D01*
X140234815Y-84431237D01*
X140240062Y-84414596D01*
X140246739Y-84398477D01*
X140254795Y-84383000D01*
X140264170Y-84368285D01*
X140274792Y-84354443D01*
X140286579Y-84341579D01*
X140299443Y-84329792D01*
X140313285Y-84319170D01*
X140328000Y-84309795D01*
X140343477Y-84301739D01*
X140359596Y-84295062D01*
X140376237Y-84289815D01*
X140393271Y-84286039D01*
X140410569Y-84283762D01*
X140428000Y-84283000D01*
X140445431Y-84283762D01*
X139645431Y-86358762D02*
X139662729Y-86361039D01*
X139679763Y-86364815D01*
X139696404Y-86370062D01*
X139712523Y-86376739D01*
X139728000Y-86384795D01*
X139742715Y-86394170D01*
X139756557Y-86404792D01*
X139769421Y-86416579D01*
X139781208Y-86429443D01*
X139791830Y-86443285D01*
X139801205Y-86458000D01*
X139809261Y-86473477D01*
X139815938Y-86489596D01*
X139821185Y-86506237D01*
X139824961Y-86523271D01*
X139827238Y-86540569D01*
X139828000Y-86558000D01*
X139827238Y-86575431D01*
X139824961Y-86592729D01*
X139821185Y-86609763D01*
X139815938Y-86626404D01*
X139809261Y-86642523D01*
X139801205Y-86657999D01*
X139791830Y-86672715D01*
X139781208Y-86686557D01*
X139769421Y-86699421D01*
X139756557Y-86711208D01*
X139742715Y-86721830D01*
X139728000Y-86731205D01*
X139712523Y-86739261D01*
X139696404Y-86745938D01*
X139679763Y-86751185D01*
X139662729Y-86754961D01*
X139645431Y-86757238D01*
X139628000Y-86758000D01*
X139610569Y-86757238D01*
X139593271Y-86754961D01*
X139576237Y-86751185D01*
X139559596Y-86745938D01*
X139543477Y-86739261D01*
X139528001Y-86731205D01*
X139513285Y-86721830D01*
X139499443Y-86711208D01*
X139486579Y-86699421D01*
X139474792Y-86686557D01*
X139464170Y-86672715D01*
X139454795Y-86657999D01*
X139446739Y-86642523D01*
X139440062Y-86626404D01*
X139434815Y-86609763D01*
X139431039Y-86592729D01*
X139428762Y-86575431D01*
X139428000Y-86558000D01*
X139428762Y-86540569D01*
X139431039Y-86523271D01*
X139434815Y-86506237D01*
X139440062Y-86489596D01*
X139446739Y-86473477D01*
X139454795Y-86458000D01*
X139464170Y-86443285D01*
X139474792Y-86429443D01*
X139486579Y-86416579D01*
X139499443Y-86404792D01*
X139513285Y-86394170D01*
X139528000Y-86384795D01*
X139543477Y-86376739D01*
X139559596Y-86370062D01*
X139576237Y-86364815D01*
X139593271Y-86361039D01*
X139610569Y-86358762D01*
X139628000Y-86358000D01*
X139645431Y-86358762D01*
X125870431Y-90283762D02*
X125887729Y-90286039D01*
X125904763Y-90289815D01*
X125921404Y-90295062D01*
X125937523Y-90301739D01*
X125953000Y-90309795D01*
X125967715Y-90319170D01*
X125981557Y-90329792D01*
X125994421Y-90341579D01*
X126006208Y-90354443D01*
X126016830Y-90368285D01*
X126026205Y-90383000D01*
X126034261Y-90398477D01*
X126040938Y-90414596D01*
X126046185Y-90431237D01*
X126049961Y-90448271D01*
X126052238Y-90465569D01*
X126053000Y-90483000D01*
X126052238Y-90500431D01*
X126049961Y-90517729D01*
X126046185Y-90534763D01*
X126040938Y-90551404D01*
X126034261Y-90567523D01*
X126026205Y-90582999D01*
X126016830Y-90597715D01*
X126006208Y-90611557D01*
X125994421Y-90624421D01*
X125981557Y-90636208D01*
X125967715Y-90646830D01*
X125953000Y-90656205D01*
X125937523Y-90664261D01*
X125921404Y-90670938D01*
X125904763Y-90676185D01*
X125887729Y-90679961D01*
X125870431Y-90682238D01*
X125853000Y-90683000D01*
X125835569Y-90682238D01*
X125818271Y-90679961D01*
X125801237Y-90676185D01*
X125784596Y-90670938D01*
X125768477Y-90664261D01*
X125753001Y-90656205D01*
X125738285Y-90646830D01*
X125724443Y-90636208D01*
X125711579Y-90624421D01*
X125699792Y-90611557D01*
X125689170Y-90597715D01*
X125679795Y-90582999D01*
X125671739Y-90567523D01*
X125665062Y-90551404D01*
X125659815Y-90534763D01*
X125656039Y-90517729D01*
X125653762Y-90500431D01*
X125653000Y-90483000D01*
X125653762Y-90465569D01*
X125656039Y-90448271D01*
X125659815Y-90431237D01*
X125665062Y-90414596D01*
X125671739Y-90398477D01*
X125679795Y-90383000D01*
X125689170Y-90368285D01*
X125699792Y-90354443D01*
X125711579Y-90341579D01*
X125724443Y-90329792D01*
X125738285Y-90319170D01*
X125753000Y-90309795D01*
X125768477Y-90301739D01*
X125784596Y-90295062D01*
X125801237Y-90289815D01*
X125818271Y-90286039D01*
X125835569Y-90283762D01*
X125853000Y-90283000D01*
X125870431Y-90283762D01*
X120695431Y-79008762D02*
X120712729Y-79011039D01*
X120729763Y-79014815D01*
X120746404Y-79020062D01*
X120762523Y-79026739D01*
X120778000Y-79034795D01*
X120792715Y-79044170D01*
X120806557Y-79054792D01*
X120819421Y-79066579D01*
X120831208Y-79079443D01*
X120841830Y-79093285D01*
X120851205Y-79108000D01*
X120859261Y-79123477D01*
X120865938Y-79139596D01*
X120871185Y-79156237D01*
X120874961Y-79173271D01*
X120877238Y-79190569D01*
X120878000Y-79208000D01*
X120877238Y-79225431D01*
X120874961Y-79242729D01*
X120871185Y-79259763D01*
X120865938Y-79276404D01*
X120859261Y-79292523D01*
X120851205Y-79307999D01*
X120841830Y-79322715D01*
X120831208Y-79336557D01*
X120819421Y-79349421D01*
X120806557Y-79361208D01*
X120792715Y-79371830D01*
X120778000Y-79381205D01*
X120762523Y-79389261D01*
X120746404Y-79395938D01*
X120729763Y-79401185D01*
X120712729Y-79404961D01*
X120695431Y-79407238D01*
X120678000Y-79408000D01*
X120660569Y-79407238D01*
X120643271Y-79404961D01*
X120626237Y-79401185D01*
X120609596Y-79395938D01*
X120593477Y-79389261D01*
X120578001Y-79381205D01*
X120563285Y-79371830D01*
X120549443Y-79361208D01*
X120536579Y-79349421D01*
X120524792Y-79336557D01*
X120514170Y-79322715D01*
X120504795Y-79307999D01*
X120496739Y-79292523D01*
X120490062Y-79276404D01*
X120484815Y-79259763D01*
X120481039Y-79242729D01*
X120478762Y-79225431D01*
X120478000Y-79208000D01*
X120478762Y-79190569D01*
X120481039Y-79173271D01*
X120484815Y-79156237D01*
X120490062Y-79139596D01*
X120496739Y-79123477D01*
X120504795Y-79108000D01*
X120514170Y-79093285D01*
X120524792Y-79079443D01*
X120536579Y-79066579D01*
X120549443Y-79054792D01*
X120563285Y-79044170D01*
X120578000Y-79034795D01*
X120593477Y-79026739D01*
X120609596Y-79020062D01*
X120626237Y-79014815D01*
X120643271Y-79011039D01*
X120660569Y-79008762D01*
X120678000Y-79008000D01*
X120695431Y-79008762D01*
X122720431Y-89058762D02*
X122737729Y-89061039D01*
X122754763Y-89064815D01*
X122771404Y-89070062D01*
X122787523Y-89076739D01*
X122803000Y-89084795D01*
X122817715Y-89094170D01*
X122831557Y-89104792D01*
X122844421Y-89116579D01*
X122856208Y-89129443D01*
X122866830Y-89143285D01*
X122876205Y-89158000D01*
X122884261Y-89173477D01*
X122890938Y-89189596D01*
X122896185Y-89206237D01*
X122899961Y-89223271D01*
X122902238Y-89240569D01*
X122903000Y-89258000D01*
X122902238Y-89275431D01*
X122899961Y-89292729D01*
X122896185Y-89309763D01*
X122890938Y-89326404D01*
X122884261Y-89342523D01*
X122876205Y-89357999D01*
X122866830Y-89372715D01*
X122856208Y-89386557D01*
X122844421Y-89399421D01*
X122831557Y-89411208D01*
X122817715Y-89421830D01*
X122803000Y-89431205D01*
X122787523Y-89439261D01*
X122771404Y-89445938D01*
X122754763Y-89451185D01*
X122737729Y-89454961D01*
X122720431Y-89457238D01*
X122703000Y-89458000D01*
X122685569Y-89457238D01*
X122668271Y-89454961D01*
X122651237Y-89451185D01*
X122634596Y-89445938D01*
X122618477Y-89439261D01*
X122603001Y-89431205D01*
X122588285Y-89421830D01*
X122574443Y-89411208D01*
X122561579Y-89399421D01*
X122549792Y-89386557D01*
X122539170Y-89372715D01*
X122529795Y-89357999D01*
X122521739Y-89342523D01*
X122515062Y-89326404D01*
X122509815Y-89309763D01*
X122506039Y-89292729D01*
X122503762Y-89275431D01*
X122503000Y-89258000D01*
X122503762Y-89240569D01*
X122506039Y-89223271D01*
X122509815Y-89206237D01*
X122515062Y-89189596D01*
X122521739Y-89173477D01*
X122529795Y-89158000D01*
X122539170Y-89143285D01*
X122549792Y-89129443D01*
X122561579Y-89116579D01*
X122574443Y-89104792D01*
X122588285Y-89094170D01*
X122603000Y-89084795D01*
X122618477Y-89076739D01*
X122634596Y-89070062D01*
X122651237Y-89064815D01*
X122668271Y-89061039D01*
X122685569Y-89058762D01*
X122703000Y-89058000D01*
X122720431Y-89058762D01*
X119820431Y-77908762D02*
X119837729Y-77911039D01*
X119854763Y-77914815D01*
X119871404Y-77920062D01*
X119887523Y-77926739D01*
X119903000Y-77934795D01*
X119917715Y-77944170D01*
X119931557Y-77954792D01*
X119944421Y-77966579D01*
X119956208Y-77979443D01*
X119966830Y-77993285D01*
X119976205Y-78008000D01*
X119984261Y-78023477D01*
X119990938Y-78039596D01*
X119996185Y-78056237D01*
X119999961Y-78073271D01*
X120002238Y-78090569D01*
X120003000Y-78108000D01*
X120002238Y-78125431D01*
X119999961Y-78142729D01*
X119996185Y-78159763D01*
X119990938Y-78176404D01*
X119984261Y-78192523D01*
X119976205Y-78207999D01*
X119966830Y-78222715D01*
X119956208Y-78236557D01*
X119944421Y-78249421D01*
X119931557Y-78261208D01*
X119917715Y-78271830D01*
X119903000Y-78281205D01*
X119887523Y-78289261D01*
X119871404Y-78295938D01*
X119854763Y-78301185D01*
X119837729Y-78304961D01*
X119820431Y-78307238D01*
X119803000Y-78308000D01*
X119785569Y-78307238D01*
X119768271Y-78304961D01*
X119751237Y-78301185D01*
X119734596Y-78295938D01*
X119718477Y-78289261D01*
X119703001Y-78281205D01*
X119688285Y-78271830D01*
X119674443Y-78261208D01*
X119661579Y-78249421D01*
X119649792Y-78236557D01*
X119639170Y-78222715D01*
X119629795Y-78207999D01*
X119621739Y-78192523D01*
X119615062Y-78176404D01*
X119609815Y-78159763D01*
X119606039Y-78142729D01*
X119603762Y-78125431D01*
X119603000Y-78108000D01*
X119603762Y-78090569D01*
X119606039Y-78073271D01*
X119609815Y-78056237D01*
X119615062Y-78039596D01*
X119621739Y-78023477D01*
X119629795Y-78008000D01*
X119639170Y-77993285D01*
X119649792Y-77979443D01*
X119661579Y-77966579D01*
X119674443Y-77954792D01*
X119688285Y-77944170D01*
X119703000Y-77934795D01*
X119718477Y-77926739D01*
X119734596Y-77920062D01*
X119751237Y-77914815D01*
X119768271Y-77911039D01*
X119785569Y-77908762D01*
X119803000Y-77908000D01*
X119820431Y-77908762D01*
X120170431Y-84783762D02*
X120187729Y-84786039D01*
X120204763Y-84789815D01*
X120221404Y-84795062D01*
X120237523Y-84801739D01*
X120253000Y-84809795D01*
X120267715Y-84819170D01*
X120281557Y-84829792D01*
X120294421Y-84841579D01*
X120306208Y-84854443D01*
X120316830Y-84868285D01*
X120326205Y-84883000D01*
X120334261Y-84898477D01*
X120340938Y-84914596D01*
X120346185Y-84931237D01*
X120349961Y-84948271D01*
X120352238Y-84965569D01*
X120353000Y-84983000D01*
X120352238Y-85000431D01*
X120349961Y-85017729D01*
X120346185Y-85034763D01*
X120340938Y-85051404D01*
X120334261Y-85067523D01*
X120326205Y-85082999D01*
X120316830Y-85097715D01*
X120306208Y-85111557D01*
X120294421Y-85124421D01*
X120281557Y-85136208D01*
X120267715Y-85146830D01*
X120253000Y-85156205D01*
X120237523Y-85164261D01*
X120221404Y-85170938D01*
X120204763Y-85176185D01*
X120187729Y-85179961D01*
X120170431Y-85182238D01*
X120153000Y-85183000D01*
X120135569Y-85182238D01*
X120118271Y-85179961D01*
X120101237Y-85176185D01*
X120084596Y-85170938D01*
X120068477Y-85164261D01*
X120053001Y-85156205D01*
X120038285Y-85146830D01*
X120024443Y-85136208D01*
X120011579Y-85124421D01*
X119999792Y-85111557D01*
X119989170Y-85097715D01*
X119979795Y-85082999D01*
X119971739Y-85067523D01*
X119965062Y-85051404D01*
X119959815Y-85034763D01*
X119956039Y-85017729D01*
X119953762Y-85000431D01*
X119953000Y-84983000D01*
X119953762Y-84965569D01*
X119956039Y-84948271D01*
X119959815Y-84931237D01*
X119965062Y-84914596D01*
X119971739Y-84898477D01*
X119979795Y-84883000D01*
X119989170Y-84868285D01*
X119999792Y-84854443D01*
X120011579Y-84841579D01*
X120024443Y-84829792D01*
X120038285Y-84819170D01*
X120053000Y-84809795D01*
X120068477Y-84801739D01*
X120084596Y-84795062D01*
X120101237Y-84789815D01*
X120118271Y-84786039D01*
X120135569Y-84783762D01*
X120153000Y-84783000D01*
X120170431Y-84783762D01*
X126500431Y-83103762D02*
X126517729Y-83106039D01*
X126534763Y-83109815D01*
X126551404Y-83115062D01*
X126567523Y-83121739D01*
X126583000Y-83129795D01*
X126597715Y-83139170D01*
X126611557Y-83149792D01*
X126624421Y-83161579D01*
X126636208Y-83174443D01*
X126646830Y-83188285D01*
X126656205Y-83203000D01*
X126664261Y-83218477D01*
X126670938Y-83234596D01*
X126676185Y-83251237D01*
X126679961Y-83268271D01*
X126682238Y-83285569D01*
X126683000Y-83303000D01*
X126682238Y-83320431D01*
X126679961Y-83337729D01*
X126676185Y-83354763D01*
X126670938Y-83371404D01*
X126664261Y-83387523D01*
X126656205Y-83402999D01*
X126646830Y-83417715D01*
X126636208Y-83431557D01*
X126624421Y-83444421D01*
X126611557Y-83456208D01*
X126597715Y-83466830D01*
X126583000Y-83476205D01*
X126567523Y-83484261D01*
X126551404Y-83490938D01*
X126534763Y-83496185D01*
X126517729Y-83499961D01*
X126500431Y-83502238D01*
X126483000Y-83503000D01*
X126465569Y-83502238D01*
X126448271Y-83499961D01*
X126431237Y-83496185D01*
X126414596Y-83490938D01*
X126398477Y-83484261D01*
X126383001Y-83476205D01*
X126368285Y-83466830D01*
X126354443Y-83456208D01*
X126341579Y-83444421D01*
X126329792Y-83431557D01*
X126319170Y-83417715D01*
X126309795Y-83402999D01*
X126301739Y-83387523D01*
X126295062Y-83371404D01*
X126289815Y-83354763D01*
X126286039Y-83337729D01*
X126283762Y-83320431D01*
X126283000Y-83303000D01*
X126283762Y-83285569D01*
X126286039Y-83268271D01*
X126289815Y-83251237D01*
X126295062Y-83234596D01*
X126301739Y-83218477D01*
X126309795Y-83203000D01*
X126319170Y-83188285D01*
X126329792Y-83174443D01*
X126341579Y-83161579D01*
X126354443Y-83149792D01*
X126368285Y-83139170D01*
X126383000Y-83129795D01*
X126398477Y-83121739D01*
X126414596Y-83115062D01*
X126431237Y-83109815D01*
X126448271Y-83106039D01*
X126465569Y-83103762D01*
X126483000Y-83103000D01*
X126500431Y-83103762D01*
X123291558Y-92602600D02*
G75*
G03*
X121243242Y-92602600I-1024158J0D01*
G01*
X121243242Y-92602600D02*
G75*
G03*
X123291558Y-92602600I1024158J0D01*
G01*
X123288958Y-71400000D02*
G75*
G03*
X121240642Y-71400000I-1024158J0D01*
G01*
X121240642Y-71400000D02*
G75*
G03*
X123288958Y-71400000I1024158J0D01*
G01*
X144494158Y-92600000D02*
G75*
G03*
X142445842Y-92600000I-1024158J0D01*
G01*
X142445842Y-92600000D02*
G75*
G03*
X144494158Y-92600000I1024158J0D01*
G01*
X129867400Y-99225000D02*
X135867846Y-99227569D01*
X144491558Y-71397400D02*
G75*
G03*
X142443242Y-71397400I-1024158J0D01*
G01*
X142443242Y-71397400D02*
G75*
G03*
X144491558Y-71397400I1024158J0D01*
G01*
X135867846Y-99227569D02*
G75*
G03*
X129867400Y-99225000I-2992846J17227569D01*
G01*
M02*
