M48
; DRILL file {KiCad 7.0.10} date Tue Nov 26 12:30:43 2024
; FORMAT={-:-/ absolute / metric / decimal}
; #@! TF.CreationDate,2024-11-26T12:30:43-05:00
; #@! TF.GenerationSoftware,Kicad,Pcbnew,7.0.10
; #@! TF.FileFunction,Plated,1,2,PTH
FMAT,2
METRIC
; #@! TA.AperFunction,Plated,PTH,ViaDrill
T1C40.000
%
G90
G05
T1
X12547.6Y-7188.2
X12573.0Y-7599.36
X12801.6Y-8051.8
X12877.8Y-7010.4
X12903.2Y-8178.8
X13004.8Y-8178.8
X13036.24Y-7489.801
X13055.6Y-7289.8
X13055.6Y-7389.8
X13106.4Y-8178.8
X13131.8Y-6934.2
X13208.0Y-8178.8
X13233.4Y-7645.4
X13306.76Y-7467.6
X13411.2Y-7340.6
X13487.4Y-7416.8
X13487.4Y-8153.4
X13563.6Y-6934.2
X13591.024Y-8148.997
X13716.0Y-8153.4
X13843.0Y-7645.4
X13913.16Y-7747.0
X13913.16Y-7849.2
X13919.2Y-8001.0
X13944.6Y-9169.4
X14046.2Y-8813.8
X14173.2Y-8737.6
X14274.8Y-7315.2
X14427.2Y-7620.0
X14503.4Y-7747.0
X14605.0Y-7848.6
X14884.4Y-8458.2
M30
