M48
; DRILL file {KiCad 7.0.10} date Thu Nov 21 20:04:52 2024
; FORMAT={-:-/ absolute / metric / decimal}
; #@! TF.CreationDate,2024-11-21T20:04:52-05:00
; #@! TF.GenerationSoftware,Kicad,Pcbnew,7.0.10
; #@! TF.FileFunction,Plated,1,2,PTH
FMAT,2
METRIC
; #@! TA.AperFunction,Plated,PTH,ViaDrill
T1C0.400
%
G90
G05
T1
X125.476Y-71.882
X125.73Y-75.994
X128.016Y-80.518
X128.778Y-70.104
X129.032Y-81.788
X130.048Y-81.788
X130.362Y-74.898
X130.556Y-72.898
X130.556Y-73.898
X131.064Y-81.788
X131.318Y-69.342
X132.08Y-81.788
X132.334Y-76.454
X133.068Y-74.676
X134.112Y-73.406
X134.874Y-74.168
X134.874Y-81.534
X135.636Y-69.342
X135.91Y-81.49
X137.16Y-81.534
X138.43Y-76.454
X139.132Y-77.47
X139.132Y-78.492
X139.192Y-80.01
X139.446Y-91.694
X140.462Y-88.138
X141.732Y-87.376
X142.748Y-73.152
X144.272Y-76.2
X145.034Y-77.47
X146.05Y-78.486
X148.844Y-84.582
M30
