<svg xmlns="http://www.w3.org/2000/svg" viewBox="0 0 58.590274 40.132" width="58.590274mm" height="40.132mm">
                    <g stroke-linecap="round">
                        <g><path fill-rule="evenodd" fill="#66cc99" stroke="#555555" stroke-width="0.0" opacity="0.6" d="M 22.18296428,25.178464657000006 L 22.190475235,25.196597705 L 22.198866888999998,25.214340366 L 22.208119025000006,25.231649895999997 L 22.218209356000006,25.248484594999997 L 22.229113570999996,25.264803908000008 L 22.240805402999996,25.280568518000006 L 22.253256684,25.295740448 L 22.255667161596403,25.2984 L 28.368230838403612,25.2984 L 28.370641316000015,25.295740448 L 28.383092597000005,25.280568518000006 L 28.39478442899999,25.264803908000008 L 28.405688643999994,25.248484594999997 L 28.415778974999995,25.231649895999997 L 28.416236860000016,25.230793253999995 L 28.418104113000005,25.232162365999997 L 28.432393291999997,25.242167747999996 L 28.439647016000002,25.247014577999995 L 28.469078016,25.265764577999995 L 28.476537801999985,25.270291385000004 L 28.478811432999997,25.271604096 L 28.491647729000004,25.279015303 L 28.49929786899999,25.283212415000005 L 28.52847220841038,25.2984 L 29.239527848935307,25.2984 L 29.26869843599999,25.283214858999997 L 29.276351111,25.279016416999994 L 29.289189491,25.271603988000006 L 29.291465981999995,25.270289621999993 L 29.298928178000004,25.265761268000006 L 29.328358178000002,25.247011268000005 L 29.335610566000014,25.242165209999992 L 29.349897148,25.232161482999995 L 29.356931342000006,25.227003813999996 L 29.384616342000008,25.205760813999994 L 29.39142330000001,25.200297706 L 29.404792377999993,25.189079702000008 L 29.41135449700001,25.183324805999995 L 29.43708149700001,25.159749805999994 L 29.443383104999988,25.153717259000004 L 29.455717259000004,25.141383105000003 L 29.461749805999993,25.135081496999994 L 29.485324805999994,25.109354496999995 L 29.491079701999993,25.102792378000007 L 29.502297706,25.089423299999996 L 29.50776081400001,25.082616341999994 L 29.52900381400001,25.054931341999993 L 29.534162365999997,25.047895886999996 L 29.544167747999996,25.033606708000004 L 29.54901457800001,25.026352984 L 29.56776457800001,24.996921983999997 L 29.57229138499999,24.989462198 L 29.581015303000004,24.974352270999997 L 29.58521241499999,24.966702130999998 L 29.60132541499999,24.935750131 L 29.605185136999996,24.927923564999997 L 29.612559493,24.912109511999994 L 29.61607412799999,24.904122025999992 L 29.61844429876223,24.8984 L 29.128104627008767,24.8984 L 29.116890849000008,24.907004452999995 L 29.109750956,24.912003937000005 L 29.08768168200001,24.926064382 L 29.080127842999996,24.930425702999994 L 29.056917610000013,24.942508101999998 L 29.049015520999998,24.946192914000004 L 29.024840604,24.956206620000003 L 29.016645136000008,24.959189488999993 L 28.991688044999986,24.967058084999994 L 28.983267467999994,24.969314354 L 28.957721066000015,24.974978084000007 L 28.94913078,24.976492723000003 L 28.92318632499999,24.979907789000006 L 28.914504529000013,24.980667363000006 L 28.888362409999996,24.981809421000005 L 28.879637590000005,24.981809421000005 L 28.853495470999984,24.980667363000006 L 28.84481367500001,24.979907789000006 L 28.81886922,24.976492723000003 L 28.810278933999985,24.974978084000007 L 28.784732532000007,24.969314354 L 28.776311955000015,24.967058084999994 L 28.751354863999993,24.959189488999993 L 28.743159396,24.956206620000003 L 28.718985090000004,24.946193167999997 L 28.711081828999998,24.942507745000004 L 28.687871860000016,24.930425092999993 L 28.680320488999993,24.926065208000004 L 28.658249729,24.912004294 L 28.651108539999992,24.907003983999996 L 28.639895373094976,24.8984 L 28.067849,24.8984 L 28.067849,25.02964027599999 L 28.067619094999998,25.034320094999998 L 28.062939275999994,25.03455 L 22.560958724000006,25.03455 L 22.556278905000003,25.034320094999998 L 22.556049,25.02964027599999 L 22.556049,24.8984 L 22.156049,24.8984 L 22.156049,25.03455 L 22.156289908999995,25.044363534999995 L 22.157252963,25.063966963 L 22.159176753000008,25.083499523 L 22.162056642000003,25.102914158999994 L 22.165885693000003,25.122164099999996 L 22.170654681999995,25.141202971000002 L 22.176352120000004,25.159984906000002 L 22.178424910999997,25.165777971 L 22.18296428,25.178464657000006 z" /><path fill-rule="evenodd" fill="#66cc99" stroke="#555555" stroke-width="0.0" opacity="0.6" d="M 25.963600476999996,18.891478753000005 L 25.954917320496172,18.89276677750382 L 25.904879379021853,18.942804718978138 L 25.908576699999987,18.939702294 L 25.915383657999993,18.934239186000003 L 25.921326611999987,18.929679092999994 L 25.94306865799999,18.912996186000004 L 25.950102851999997,18.907838517000005 L 25.964389433999987,18.897834790000008 L 25.971641821999995,18.892988731999992 L 25.97591572608584,18.89026580635917 L 25.963600476999996,18.891478753000005 z" /><path fill-rule="evenodd" fill="#66cc99" stroke="#555555" stroke-width="0.0" opacity="0.6" d="M 25.615677752999993,19.239401476999998 L 25.613753963,19.258934037 L 25.612790909000008,19.278537465000003 L 25.61255,19.288351 L 25.61255,20.1776797254207 L 25.617851566000013,20.174137209999994 L 25.632138148000003,20.164133482999997 L 25.63917234200001,20.158975813999994 L 25.666857342000007,20.137732813999996 L 25.673664300000013,20.132269706 L 25.68703337799999,20.121051702000006 L 25.693595497000008,20.115296805999993 L 25.719322497000007,20.091721805999995 L 25.72562410499999,20.085689259000002 L 25.737958259000003,20.073355105000005 L 25.743990805999996,20.067053496999993 L 25.767565805999993,20.041326496999993 L 25.773320701999992,20.034764378000006 L 25.773642786895962,20.03438053212401 L 25.77099618599999,20.03093134199999 L 25.765837634000004,20.023895886999995 L 25.755832252000005,20.009606708000003 L 25.750985421999992,20.002352983999998 L 25.73223542199999,19.972921983999996 L 25.727708615000008,19.965462197999997 L 25.718984696999996,19.950352270999996 L 25.714787585000007,19.942702130999997 L 25.69867458500001,19.911750130999998 L 25.694814863000005,19.903923564999996 L 25.687440506999998,19.888109511999996 L 25.68392587200001,19.88012202599999 L 25.670571872000007,19.847883025999995 L 25.667408636000008,19.839748783000008 L 25.661440055000007,19.823350037 L 25.658634710999994,19.815085533999994 L 25.648141710999994,19.781804533999995 L 25.64570058700001,19.773429192000002 L 25.641185900999993,19.756580020999998 L 25.639112338999986,19.748106190999998 L 25.63155933899999,19.714038191 L 25.629856382,19.705476887999996 L 25.626825661000012,19.688288128999993 L 25.625497896,19.679660672000004 L 25.620943895999996,19.645063672000006 L 25.619994537999986,19.636394317 L 25.61847466800001,19.619022463 L 25.617904157000005,19.610319963 L 25.616381157000006,19.575457962999998 L 25.616190578999998,19.566728981000008 L 25.616190578999998,19.549271018999995 L 25.616381157000006,19.540542037 L 25.617904157000005,19.505680037 L 25.61847466800001,19.496977537 L 25.619994537999986,19.479605683 L 25.620943895999996,19.470936327999993 L 25.625497896,19.436339327999995 L 25.626825661000012,19.427711871000007 L 25.629856382,19.410523112000003 L 25.63155933899999,19.401961809 L 25.639112338999986,19.367893809 L 25.641185900999993,19.359419979000002 L 25.64570058700001,19.342570807999998 L 25.648141710999994,19.334195466000004 L 25.658634710999994,19.300914466000005 L 25.661440055000007,19.292649963 L 25.667408636000008,19.27625121699999 L 25.670571872000007,19.26811697400001 L 25.68392587200001,19.235877974000008 L 25.687439946999998,19.227891687000007 L 25.69481308199999,19.21207998199999 L 25.698672141000003,19.204254563999996 L 25.714785141000004,19.173301563999996 L 25.718983583000004,19.165648889 L 25.72771037799999,19.150534018000005 L 25.732238731999992,19.143071821999996 L 25.750988731999993,19.113641821999998 L 25.75583478999999,19.106389434 L 25.765838516999988,19.092102851999996 L 25.77099618599999,19.085068658000008 L 25.79223918599999,19.057383658000006 L 25.797702294,19.050576700000004 L 25.800804718978195,19.04687937902181 L 25.616965777503818,19.230718320496187 L 25.615677752999993,19.239401476999998 z" /><path fill-rule="evenodd" fill="#66cc99" stroke="#555555" stroke-width="0.0" opacity="0.6" d="M 26.125018523,19.288351 L 26.171354520999998,19.242015002000006 L 26.183109150999993,19.232995547000005 L 26.164827953999996,19.247022907000005 L 26.162348097000002,19.248925728 L 26.155666742000015,19.254532059 L 26.136374601999997,19.272210459000007 L 26.13021045899999,19.278374602 L 26.121068562123686,19.288351 L 26.125018523,19.288351 z" /><path fill-rule="evenodd" fill="#66cc99" stroke="#555555" stroke-width="0.0" opacity="0.6" d="M 29.51135,26.504172758718312 L 29.492249729,26.492004294 L 29.48510853999999,26.487003983999998 L 29.464348097000002,26.471074272 L 29.457666742000015,26.465467941 L 29.438374602,26.447789540999995 L 29.432210458999993,26.441625398000003 L 29.414532058999985,26.422333258000002 L 29.408925727999986,26.415651902999997 L 29.392996016,26.394891459999993 L 29.387995706,26.387750270999998 L 29.373934789000003,26.365679505999996 L 29.369574907000004,26.35812814 L 29.357492254999997,26.334918171000005 L 29.353806831999986,26.327014909999995 L 29.343793379999994,26.302840604000004 L 29.340810511000008,26.294645136000007 L 29.332941914999992,26.269688045000002 L 29.330685646,26.261267467999996 L 29.325021916000008,26.235721066 L 29.32350727700001,26.22713078 L 29.320092210999995,26.201186325000002 L 29.319332636999995,26.192504529 L 29.318190578999996,26.166362409999998 L 29.318190578999996,26.157637590000004 L 29.319332636999995,26.131495471 L 29.320092210999995,26.122813674999996 L 29.32350727700001,26.09686922 L 29.325021916000008,26.088278934 L 29.330685646,26.062732532000005 L 29.332941914999992,26.054311955 L 29.340810511000008,26.02935486399999 L 29.343793379999994,26.021159395999998 L 29.353807085999996,25.996984479 L 29.357491898000003,25.98908239 L 29.369574296999993,25.965872157000007 L 29.37393561500001,25.958318321999997 L 29.387996062999992,25.936249044 L 29.39299554699999,25.92910915099999 L 29.408925727999986,25.908348097000005 L 29.414532058999985,25.901666742 L 29.414593217999993,25.9016 L 29.464813712876527,25.9016 L 29.459279974999994,25.891247104 L 29.449189643999993,25.874412405 L 29.43828542899999,25.858093091999994 L 29.426593597000004,25.842328481999992 L 29.414142316000014,25.827156552 L 29.400961581,25.812613853 L 29.387083147000016,25.798735419 L 29.372540448000013,25.785554684 L 29.35736851800001,25.773103402999997 L 29.341603907999993,25.761411570999996 L 29.325284595,25.750507356000007 L 29.308449896,25.740417025000006 L 29.291140365999997,25.731164889 L 29.27339770500001,25.722773235 L 29.255264657000005,25.71526228 L 29.23678490599999,25.708650120000005 L 29.218002970999986,25.702952681999996 L 29.198964099999994,25.698183693000004 L 29.17971415900001,25.694354642000004 L 29.160299523000003,25.691474753000005 L 29.140766963,25.689550963 L 29.121163534999997,25.688587908999995 L 29.11135,25.688347 L 26.01255,25.688347 L 26.002736465000005,25.688587908999995 L 25.983133037,25.689550963 L 25.963600476999996,25.691474753000005 L 25.944185840999992,25.694354642000004 L 25.924935900000005,25.698183693000004 L 25.905897029000013,25.702952681999996 L 25.887115094000013,25.708650120000005 L 25.868635342999994,25.71526228 L 25.850502294999988,25.722773235 L 25.832759634000002,25.731164889 L 25.815450104000004,25.740417025000006 L 25.798615405,25.750507356000007 L 25.782296092000006,25.761411570999996 L 25.766531481999994,25.773103402999997 L 25.751359551999986,25.785554684 L 25.736816852999986,25.798735419 L 25.722938419,25.812613853 L 25.709757683999985,25.827156552 L 25.697306403,25.842328481999992 L 25.68561457100001,25.858093091999994 L 25.674710356000006,25.874412405 L 25.664620025000005,25.891247104 L 25.659086287123472,25.9016 L 28.96175978999999,25.9016 L 28.960634710999994,25.904914466000005 L 28.950141710999997,25.938195466000007 L 28.947700587000014,25.946570807999997 L 28.943185900999993,25.963419979 L 28.941112338999986,25.971893809 L 28.933559338999988,26.005961809 L 28.931856382,26.014523112000003 L 28.928825661000012,26.031711871000006 L 28.927497896,26.040339327999995 L 28.922943896,26.074936327999993 L 28.92199453799999,26.083605683 L 28.92157971840337,26.088347 L 29.106440275999994,26.088347 L 29.111120095,26.088576905 L 29.11135,26.093256724000007 L 29.11135,26.68328235308531 L 29.116675194000006,26.689354496999993 L 29.140250194000007,26.715081496999993 L 29.146282740999997,26.721383105000005 L 29.158616895000012,26.733717259000002 L 29.164918502999992,26.739749805999995 L 29.190645502999992,26.763324805999993 L 29.197207622000008,26.769079702000006 L 29.210576699999987,26.780297706 L 29.217383657999992,26.785760813999996 L 29.245068657999994,26.807003813999994 L 29.252104113000005,26.812162365999995 L 29.266393291999997,26.822167747999995 L 29.273647016,26.827014577999993 L 29.303078016000004,26.845764577999994 L 29.310537801999985,26.850291385000006 L 29.325647729000003,26.859015303000003 L 29.33329786899999,26.863212415000007 L 29.364249868999988,26.879325415000007 L 29.372076435000004,26.883185136999995 L 29.387890488000007,26.890559493 L 29.39587797400001,26.894074128000007 L 29.428116974000005,26.907428128000006 L 29.436251217000006,26.91059136399999 L 29.452649963,26.916559944999992 L 29.46091446599999,26.919365289000005 L 29.49419546599999,26.929858289000006 L 29.502570807999998,26.932299413000003 L 29.51135,26.934651771772653 L 29.51135,26.504172758718312 z" /><path fill-rule="evenodd" fill="#66cc99" stroke="#555555" stroke-width="0.0" opacity="0.6" d="M 16.515887660999997,21.517106191 L 16.523440661,21.483038191 L 16.525143618,21.474476887999998 L 16.528174339000003,21.457288128999995 L 16.529502104000002,21.448660672000006 L 16.534056104,21.414063672000005 L 16.535005461999997,21.405394317000003 L 16.536525332000004,21.388022463 L 16.537095842999996,21.379319963 L 16.538618842999995,21.344457963 L 16.538663774066716,21.3424 L 16.463769523000003,21.3424 L 16.460299282000005,21.338929759000003 L 16.473480016000003,21.353472458000006 L 16.485171848000004,21.369237068000004 L 16.495262178000004,21.386071768000008 L 16.503653832,21.403814428000004 L 16.510265991999997,21.422294179000005 L 16.515034981000007,21.441333050999997 L 16.517914871000006,21.460747687000005 L 16.518877924999998,21.480351114999994 L 16.517914871000006,21.499954542999998 L 16.515034981000007,21.519369179000005 L 16.511061577811883,21.535231893451556 L 16.512063194000007,21.532114540000006 L 16.513814099000008,21.525580020999996 L 16.515887660999997,21.517106191 z" /><path fill-rule="evenodd" fill="#66cc99" stroke="#555555" stroke-width="0.0" opacity="0.6" d="M 15.651936327999994,20.531943895999998 L 15.617339327999995,20.536497895999997 L 15.608711871000008,20.537825661 L 15.591523112000003,20.540856381999998 L 15.582961809,20.542559339 L 15.548893809,20.550112339000002 L 15.540419979000003,20.552185900999994 L 15.533885459999993,20.553936805999996 L 15.530768106548443,20.55493842218812 L 15.546630820999995,20.550965018999992 L 15.566045457000003,20.548085128999993 L 15.585648885000005,20.547122075000004 L 15.605252312999994,20.548085128999993 L 15.624666949000002,20.550965018999992 L 15.643705820999996,20.555734008 L 15.662185571999997,20.562346167999998 L 15.679928231999993,20.570737821999998 L 15.696762931999997,20.580828151999995 L 15.712527541999997,20.592519984 L 15.727070240999996,20.605700717999994 L 15.65317750140296,20.531807978402956 L 15.651936327999994,20.531943895999998 z" /><path fill-rule="evenodd" fill="#66cc99" stroke="#555555" stroke-width="0.0" opacity="0.6" d="M 15.515199247999997,20.559940749 L 15.512195091668978,20.56124309147099 L 15.521430038486198,20.557938774981707 L 15.515199247999997,20.559940749 z" /><path fill-rule="evenodd" fill="#66cc99" stroke="#555555" stroke-width="0.0" opacity="0.6" d="M 15.497191503999993,20.567747349999994 L 15.49432946128863,20.56933788249235 L 15.503196055941224,20.56514429538144 L 15.497191503999993,20.567747349999994 z" /><path fill-rule="evenodd" fill="#66cc99" stroke="#555555" stroke-width="0.0" opacity="0.6" d="M 15.480035652999996,20.577281428000003 L 15.477343301427528,20.57914482394682 L 15.485756144891933,20.57410236006008 L 15.480035652999996,20.577281428000003 z" /><path fill-rule="evenodd" fill="#66cc99" stroke="#555555" stroke-width="0.0" opacity="0.6" d="M 15.463896915000007,20.588451165000006 L 15.461400176323862,20.590569481325254 L 15.469278235169233,20.58472671448825 L 15.463896915000007,20.588451165000006 z" /><path fill-rule="evenodd" fill="#66cc99" stroke="#555555" stroke-width="0.0" opacity="0.6" d="M 15.448930715000003,20.601148988000006 L 15.446653625305892,20.603501832492814 L 15.453921072508619,20.59691500232889 L 15.448930715000003,20.601148988000006 z" /><path fill-rule="evenodd" fill="#66cc99" stroke="#555555" stroke-width="0.0" opacity="0.6" d="M 15.435281186000005,20.615252613000006 L 15.433245683861957,20.617817316906585 L 15.439832507159426,20.610549877331465 L 15.435281186000005,20.615252613000006 z" /><path fill-rule="evenodd" fill="#66cc99" stroke="#555555" stroke-width="0.0" opacity="0.6" d="M 15.423079780000002,20.630626212 L 15.421305458873972,20.633378088620976 L 15.427148238828957,20.625500011414246 L 15.423079780000002,20.630626212 z" /><path fill-rule="evenodd" fill="#66cc99" stroke="#555555" stroke-width="0.0" opacity="0.6" d="M 15.412444003000006,20.647121730000006 L 15.410947957184986,20.650034268802912 L 15.415990423880324,20.64162142198612 L 15.412444003000006,20.647121730000006 z" /><path fill-rule="evenodd" fill="#66cc99" stroke="#555555" stroke-width="0.0" opacity="0.6" d="M 15.403476283999995,20.664580305999994 L 15.402272918227256,20.667625464951485 L 15.406466503653736,20.658758872803716 L 15.403476283999995,20.664580305999994 z" /><path fill-rule="evenodd" fill="#66cc99" stroke="#555555" stroke-width="0.0" opacity="0.6" d="M 15.396262987000004,20.68283380500001 L 15.395363895914615,20.685982242924794 L 15.398668208860293,20.6767473074079 L 15.396262987000004,20.68283380500001 z" /><path fill-rule="evenodd" fill="#66cc99" stroke="#555555" stroke-width="0.0" opacity="0.6" d="M 15.390873579999997,20.701706435000002 L 15.390287420432523,20.704927831012697 L 15.392670632984668,20.695413513335346 L 15.390873579999997,20.701706435000002 z" /><path fill-rule="evenodd" fill="#66cc99" stroke="#555555" stroke-width="0.0" opacity="0.6" d="M 15.387359965000003,20.721016442000003 L 15.387092379453064,20.724279786897494 L 15.388531551089406,20.71457767862168 L 15.387359965000003,20.721016442000003 z" /><path fill-rule="evenodd" fill="#66cc99" stroke="#555555" stroke-width="0.0" opacity="0.6" d="M 15.385755981000006,20.740577861000002 L 15.385809547467233,20.74385171649638 L 15.38629081647168,20.73405526429233 L 15.385755981000006,20.740577861000002 z" /><path fill-rule="evenodd" fill="#66cc99" stroke="#555555" stroke-width="0.0" opacity="0.6" d="M 15.386077074000001,20.760202304000003 L 15.38645127814512,20.76345515696117 L 15.385970007942483,20.75365868036729 L 15.386077074000001,20.760202304000003 z" /><path fill-rule="evenodd" fill="#66cc99" stroke="#555555" stroke-width="0.0" opacity="0.6" d="M 15.388320153999999,20.779700776999995 L 15.389011389616742,20.782901279534922 L 15.387572215604186,20.77319915573974 L 15.388320153999999,20.779700776999995 z" /><path fill-rule="evenodd" fill="#66cc99" stroke="#555555" stroke-width="0.0" opacity="0.6" d="M 15.392463616999999,20.7988855 L 15.393465228650973,20.80200283933045 L 15.391082011367024,20.79248850276266 L 15.392463616999999,20.7988855 z" /><path fill-rule="evenodd" fill="#66cc99" stroke="#555555" stroke-width="0.0" opacity="0.6" d="M 15.398467560000002,20.817571711999996 L 15.399769901515693,20.820575866127403 L 15.396465591849,20.811340939774677 L 15.398467560000002,20.817571711999996 z" /><path fill-rule="evenodd" fill="#66cc99" stroke="#555555" stroke-width="0.0" opacity="0.6" d="M 15.406274160999999,20.835579456 L 15.407864687898114,20.83844148864497 L 15.403671110045583,20.82957491251096 L 15.406274160999999,20.835579456 z" /><path fill-rule="evenodd" fill="#66cc99" stroke="#555555" stroke-width="0.0" opacity="0.6" d="M 15.415808238999993,20.852735306999996 L 15.417671638507292,20.855427663957908 L 15.412629177002772,20.847014825801505 L 15.415808238999993,20.852735306999996 z" /><path fill-rule="evenodd" fill="#66cc99" stroke="#555555" stroke-width="0.0" opacity="0.6" d="M 15.426977974999994,20.868874045000002 L 15.429096292475327,20.871370784835054 L 15.423253513261944,20.863492708128526 L 15.426977974999994,20.868874045000002 z" /><path fill-rule="evenodd" fill="#66cc99" stroke="#555555" stroke-width="0.0" opacity="0.6" d="M 15.439675798999994,20.883840245000005 L 15.442028643326209,20.88611733469434 L 15.435441817875146,20.878849893242823 L 15.439675798999994,20.883840245000005 z" /><path fill-rule="evenodd" fill="#66cc99" stroke="#555555" stroke-width="0.0" opacity="0.6" d="M 16.182159754999994,21.626324201000006 L 16.18715010675718,21.630558182124854 L 16.17988266530566,21.623971356673792 L 16.182159754999994,21.626324201000006 z" /><path fill-rule="evenodd" fill="#66cc99" stroke="#555555" stroke-width="0.0" opacity="0.6" d="M 16.197125954999997,21.639022025000006 L 16.202507291871473,21.642746486738055 L 16.194629215164944,21.636903707524674 L 16.197125954999997,21.639022025000006 z" /><path fill-rule="evenodd" fill="#66cc99" stroke="#555555" stroke-width="0.0" opacity="0.6" d="M 16.213264693000003,21.650191761000006 L 16.218985174198494,21.65337082299723 L 16.21057233604209,21.64832836149271 L 16.213264693000003,21.650191761000006 z" /><path fill-rule="evenodd" fill="#66cc99" stroke="#555555" stroke-width="0.0" opacity="0.6" d="M 16.230420544,21.659725839 L 16.23642508748904,21.662328889954416 L 16.227558511355028,21.658135312101887 L 16.230420544,21.659725839 z" /><path fill-rule="evenodd" fill="#66cc99" stroke="#555555" stroke-width="0.0" opacity="0.6" d="M 16.248428288000003,21.66753244 L 16.254659060225322,21.669534408151 L 16.2454241338726,21.66623009848431 L 16.248428288000003,21.66753244 z" /><path fill-rule="evenodd" fill="#66cc99" stroke="#555555" stroke-width="0.0" opacity="0.6" d="M 16.2671145,21.673536383000002 L 16.27351149723734,21.674917988632977 L 16.26399716066955,21.672534771349028 L 16.2671145,21.673536383000002 z" /><path fill-rule="evenodd" fill="#66cc99" stroke="#555555" stroke-width="0.0" opacity="0.6" d="M 16.286299223000004,21.677679846 L 16.29280084426026,21.678427784395815 L 16.28309872046508,21.67698861038326 L 16.286299223000004,21.677679846 z" /><path fill-rule="evenodd" fill="#66cc99" stroke="#555555" stroke-width="0.0" opacity="0.6" d="M 16.305797695999996,21.679922926 L 16.312341319632708,21.680029992057516 L 16.302544843038827,21.679548721854882 L 16.305797695999996,21.679922926 z" /><path fill-rule="evenodd" fill="#66cc99" stroke="#555555" stroke-width="0.0" opacity="0.6" d="M 16.325422138999997,21.680244018999993 L 16.33194473570767,21.67970918352832 L 16.322148283503623,21.68019045253277 L 16.325422138999997,21.680244018999993 z" /><path fill-rule="evenodd" fill="#66cc99" stroke="#555555" stroke-width="0.0" opacity="0.6" d="M 16.344983558,21.678640034999997 L 16.35142232137832,21.677468448910595 L 16.341720213102505,21.678907620546937 L 16.344983558,21.678640034999997 z" /><path fill-rule="evenodd" fill="#66cc99" stroke="#555555" stroke-width="0.0" opacity="0.6" d="M 16.364293564999997,21.67512642 L 16.370586486664653,21.67332936701533 L 16.361072168987302,21.675712579567477 L 16.364293564999997,21.67512642 z" /><path fill-rule="evenodd" fill="#66cc99" stroke="#555555" stroke-width="0.0" opacity="0.6" d="M 16.383166194999994,21.669737012999995 L 16.3892526925921,21.667331791139706 L 16.380017757075205,21.670636104085386 L 16.383166194999994,21.669737012999995 z" /><path fill-rule="evenodd" fill="#66cc99" stroke="#555555" stroke-width="0.0" opacity="0.6" d="M 16.401419694000005,21.662523716000006 L 16.407241127196283,21.659533496346263 L 16.398374535048514,21.663727081772745 L 16.401419694000005,21.662523716000006 z" /><path fill-rule="evenodd" fill="#66cc99" stroke="#555555" stroke-width="0.0" opacity="0.6" d="M 16.418878269999997,21.653555996999994 L 16.424378578013883,21.650009576119675 L 16.41596573119709,21.655052042815015 L 16.418878269999997,21.653555996999994 z" /><path fill-rule="evenodd" fill="#66cc99" stroke="#555555" stroke-width="0.0" opacity="0.6" d="M 16.435373788000003,21.642920219999997 L 16.440499988585756,21.638851761171043 L 16.432621911379023,21.64469454112603 L 16.435373788000003,21.642920219999997 z" /><path fill-rule="evenodd" fill="#66cc99" stroke="#555555" stroke-width="0.0" opacity="0.6" d="M 16.450747386999996,21.630718813999994 L 16.455450122668534,21.626167492840572 L 16.448182683093414,21.632754316138044 L 16.450747386999996,21.630718813999994 z" /><path fill-rule="evenodd" fill="#66cc99" stroke="#555555" stroke-width="0.0" opacity="0.6" d="M 16.464851011999993,21.617069284999996 L 16.46908499767111,21.612078927491382 L 16.462498167507185,21.61934637469411 L 16.464851011999993,21.617069284999996 z" /><path fill-rule="evenodd" fill="#66cc99" stroke="#555555" stroke-width="0.0" opacity="0.6" d="M 16.477548834999993,21.602103084999992 L 16.481273285511747,21.596721764830768 L 16.475430518674745,21.60459982367614 L 16.477548834999993,21.602103084999992 z" /><path fill-rule="evenodd" fill="#66cc99" stroke="#555555" stroke-width="0.0" opacity="0.6" d="M 16.488718571999996,21.585964347000004 L 16.491897639939918,21.58024385510807 L 16.486855176053183,21.58865669857247 L 16.488718571999996,21.585964347000004 z" /><path fill-rule="evenodd" fill="#66cc99" stroke="#555555" stroke-width="0.0" opacity="0.6" d="M 16.498252650000005,21.568808496000006 L 16.50085570461856,21.562803944058775 L 16.49666211750765,21.57167053871137 L 16.498252650000005,21.568808496000006 z" /><path fill-rule="evenodd" fill="#66cc99" stroke="#555555" stroke-width="0.0" opacity="0.6" d="M 16.506059251000003,21.550800752000004 L 16.50806122501829,21.5445699615138 L 16.504756908529014,21.55380490833102 L 16.506059251000003,21.550800752000004 z" /><path fill-rule="evenodd" fill="#66cc99" stroke="#555555" stroke-width="0.0" opacity="0.6" d="M 14.962112339,21.136893809 L 14.954559339000001,21.170961809 L 14.952856381999998,21.179523112000002 L 14.949825660999998,21.196711871000005 L 14.948497895999997,21.205339327999994 L 14.943943895999999,21.239936327999995 L 14.943807978402956,21.24117750140296 L 15.017700717999995,21.315070240999997 L 15.004519983999998,21.300527541999994 L 14.992828151999996,21.284762931999996 L 14.982737821999997,21.267928231999992 L 14.974346167999999,21.250185571999996 L 14.967734008,21.231705820999995 L 14.962965018999993,21.212666949000003 L 14.960085128999992,21.193252312999995 L 14.959122075000003,21.173648885000006 L 14.960085128999992,21.154045457000002 L 14.962965018999993,21.134630820999995 L 14.966938422188118,21.118768106548444 L 14.965936805999995,21.121885459999994 L 14.964185900999993,21.128419979000004 L 14.962112339,21.136893809 z" /><path fill-rule="evenodd" fill="#66cc99" stroke="#555555" stroke-width="0.0" opacity="0.6" d="M 15.756457962999999,22.126618842999996 L 15.791319963,22.125095842999993 L 15.800022463,22.124525332 L 15.817394317000002,22.123005462 L 15.826063672000005,22.122056104000002 L 15.860660672000005,22.117502104000003 L 15.869288128999994,22.116174339 L 15.886476887999997,22.113143618000002 L 15.895038191,22.111440661 L 15.929106190999999,22.103887660999998 L 15.937580020999999,22.101814099000006 L 15.944114540000006,22.100063194000004 L 15.947231893451557,22.09906157781188 L 15.931369179000004,22.103034981000008 L 15.911954542999998,22.105914871000007 L 15.892351114999995,22.106877924999996 L 15.872747687000006,22.105914871000007 L 15.853333051,22.103034981000008 L 15.834294179000006,22.098265991999998 L 15.815814428000003,22.091653832000002 L 15.798071768000007,22.083262178000002 L 15.781237068000003,22.073171848000005 L 15.765472458000005,22.061480016 L 15.750929759000003,22.048299282000006 L 15.7544,22.051769523 L 15.7544,22.126663774066717 L 15.756457962999999,22.126618842999996 z" /><path fill-rule="evenodd" fill="#66cc99" stroke="#555555" stroke-width="0.0" opacity="0.6" d="M 15.962800752000003,22.094059251 L 15.965804908331021,22.09275690852901 L 15.956569961513802,22.096061225018293 L 15.962800752000003,22.094059251 z" /><path fill-rule="evenodd" fill="#66cc99" stroke="#555555" stroke-width="0.0" opacity="0.6" d="M 15.980808496000007,22.086252650000006 L 15.983670538711369,22.08466211750765 L 15.974803944058776,22.08885570461856 L 15.980808496000007,22.086252650000006 z" /><path fill-rule="evenodd" fill="#66cc99" stroke="#555555" stroke-width="0.0" opacity="0.6" d="M 15.997964347000003,22.076718571999997 L 16.00065669857247,22.07485517605318 L 15.992243855108068,22.07989763993992 L 15.997964347000003,22.076718571999997 z" /><path fill-rule="evenodd" fill="#66cc99" stroke="#555555" stroke-width="0.0" opacity="0.6" d="M 16.014103084999995,22.065548834999994 L 16.016599823676138,22.063430518674746 L 16.008721764830767,22.06927328551175 L 16.014103084999995,22.065548834999994 z" /><path fill-rule="evenodd" fill="#66cc99" stroke="#555555" stroke-width="0.0" opacity="0.6" d="M 16.029069284999995,22.052851011999994 L 16.03134637469411,22.050498167507186 L 16.02407892749138,22.05708499767111 L 16.029069284999995,22.052851011999994 z" /><path fill-rule="evenodd" fill="#66cc99" stroke="#555555" stroke-width="0.0" opacity="0.6" d="M 16.042718813999997,22.038747386999994 L 16.044754316138043,22.036182683093415 L 16.03816749284057,22.043450122668535 L 16.042718813999997,22.038747386999994 z" /><path fill-rule="evenodd" fill="#66cc99" stroke="#555555" stroke-width="0.0" opacity="0.6" d="M 16.05492022,22.023373788000004 L 16.056694541126028,22.020621911379024 L 16.050851761171042,22.028499988585754 L 16.05492022,22.023373788000004 z" /><path fill-rule="evenodd" fill="#66cc99" stroke="#555555" stroke-width="0.0" opacity="0.6" d="M 16.065555996999993,22.006878269999994 L 16.067052042815014,22.003965731197088 L 16.062009576119678,22.01237857801388 L 16.065555996999993,22.006878269999994 z" /><path fill-rule="evenodd" fill="#66cc99" stroke="#555555" stroke-width="0.0" opacity="0.6" d="M 16.074523716000005,21.989419694000006 L 16.075727081772744,21.986374535048515 L 16.071533496346266,21.995241127196284 L 16.074523716000005,21.989419694000006 z" /><path fill-rule="evenodd" fill="#66cc99" stroke="#555555" stroke-width="0.0" opacity="0.6" d="M 16.081737012999998,21.97116619499999 L 16.082636104085385,21.968017757075206 L 16.07933179113971,21.9772526925921 L 16.081737012999998,21.97116619499999 z" /><path fill-rule="evenodd" fill="#66cc99" stroke="#555555" stroke-width="0.0" opacity="0.6" d="M 16.08712642,21.952293564999998 L 16.087712579567476,21.949072168987303 L 16.085329367015333,21.958586486664654 L 16.08712642,21.952293564999998 z" /><path fill-rule="evenodd" fill="#66cc99" stroke="#555555" stroke-width="0.0" opacity="0.6" d="M 16.090640034999996,21.932983558 L 16.090907620546936,21.929720213102506 L 16.089468448910594,21.93942232137832 L 16.090640034999996,21.932983558 z" /><path fill-rule="evenodd" fill="#66cc99" stroke="#555555" stroke-width="0.0" opacity="0.6" d="M 16.092244018999995,21.913422138999998 L 16.09219045253277,21.91014828350362 L 16.09170918352832,21.91994473570767 L 16.092244018999995,21.913422138999998 z" /><path fill-rule="evenodd" fill="#66cc99" stroke="#555555" stroke-width="0.0" opacity="0.6" d="M 16.091922926,21.893797695999996 L 16.09154872185488,21.89054484303883 L 16.09202999205752,21.90034131963271 L 16.091922926,21.893797695999996 z" /><path fill-rule="evenodd" fill="#66cc99" stroke="#555555" stroke-width="0.0" opacity="0.6" d="M 16.089679846,21.874299223000005 L 16.088988610383257,21.871098720465078 L 16.090427784395814,21.88080084426026 L 16.089679846,21.874299223000005 z" /><path fill-rule="evenodd" fill="#66cc99" stroke="#555555" stroke-width="0.0" opacity="0.6" d="M 16.085536383,21.8551145 L 16.084534771349027,21.85199716066955 L 16.086917988632976,21.86151149723734 L 16.085536383,21.8551145 z" /><path fill-rule="evenodd" fill="#66cc99" stroke="#555555" stroke-width="0.0" opacity="0.6" d="M 16.079532439999998,21.836428288000004 L 16.07823009848431,21.833424133872597 L 16.081534408151,21.842659060225323 L 16.079532439999998,21.836428288000004 z" /><path fill-rule="evenodd" fill="#66cc99" stroke="#555555" stroke-width="0.0" opacity="0.6" d="M 16.071725839000003,21.818420544 L 16.070135312101886,21.81555851135503 L 16.07432888995442,21.82442508748904 L 16.071725839000003,21.818420544 z" /><path fill-rule="evenodd" fill="#66cc99" stroke="#555555" stroke-width="0.0" opacity="0.6" d="M 16.06219176100001,21.801264693000004 L 16.060328361492708,21.798572336042092 L 16.065370822997227,21.806985174198495 L 16.06219176100001,21.801264693000004 z" /><path fill-rule="evenodd" fill="#66cc99" stroke="#555555" stroke-width="0.0" opacity="0.6" d="M 16.051022025000005,21.785125954999998 L 16.048903707524673,21.782629215164945 L 16.054746486738058,21.790507291871474 L 16.051022025000005,21.785125954999998 z" /><path fill-rule="evenodd" fill="#66cc99" stroke="#555555" stroke-width="0.0" opacity="0.6" d="M 16.038324201000005,21.770159754999995 L 16.03597135667379,21.76788266530566 L 16.042558182124854,21.775150106757177 L 16.038324201000005,21.770159754999995 z" /><path fill-rule="evenodd" fill="#66cc99" stroke="#555555" stroke-width="0.0" opacity="0.6" d="M 15.295840245000004,21.027675798999994 L 15.290849893242822,21.023441817875145 L 15.298117334694341,21.030028643326208 L 15.295840245000004,21.027675798999994 z" /><path fill-rule="evenodd" fill="#66cc99" stroke="#555555" stroke-width="0.0" opacity="0.6" d="M 15.280874045000001,21.014977974999994 L 15.275492708128526,21.011253513261945 L 15.283370784835055,21.017096292475326 L 15.280874045000001,21.014977974999994 z" /><path fill-rule="evenodd" fill="#66cc99" stroke="#555555" stroke-width="0.0" opacity="0.6" d="M 15.264735306999997,21.003808238999994 L 15.259014825801506,21.00062917700277 L 15.267427663957909,21.00567163850729 L 15.264735306999997,21.003808238999994 z" /><path fill-rule="evenodd" fill="#66cc99" stroke="#555555" stroke-width="0.0" opacity="0.6" d="M 15.247579456,20.994274161 L 15.241574912510961,20.991671110045584 L 15.250441488644972,20.995864687898113 L 15.247579456,20.994274161 z" /><path fill-rule="evenodd" fill="#66cc99" stroke="#555555" stroke-width="0.0" opacity="0.6" d="M 15.229571711999997,20.98646756 L 15.223340939774678,20.984465591849 L 15.232575866127402,20.987769901515694 L 15.229571711999997,20.98646756 z" /><path fill-rule="evenodd" fill="#66cc99" stroke="#555555" stroke-width="0.0" opacity="0.6" d="M 15.2108855,20.980463616999998 L 15.20448850276266,20.979082011367023 L 15.21400283933045,20.981465228650972 L 15.2108855,20.980463616999998 z" /><path fill-rule="evenodd" fill="#66cc99" stroke="#555555" stroke-width="0.0" opacity="0.6" d="M 15.191700776999996,20.976320154 L 15.18519915573974,20.975572215604185 L 15.194901279534921,20.97701138961674 L 15.191700776999996,20.976320154 z" /><path fill-rule="evenodd" fill="#66cc99" stroke="#555555" stroke-width="0.0" opacity="0.6" d="M 15.172202304000004,20.974077074 L 15.16565868036729,20.973970007942484 L 15.175455156961172,20.974451278145118 L 15.172202304000004,20.974077074 z" /><path fill-rule="evenodd" fill="#66cc99" stroke="#555555" stroke-width="0.0" opacity="0.6" d="M 15.152577861000001,20.973755981000007 L 15.146055264292329,20.97429081647168 L 15.155851716496379,20.973809547467233 L 15.152577861000001,20.973755981000007 z" /><path fill-rule="evenodd" fill="#66cc99" stroke="#555555" stroke-width="0.0" opacity="0.6" d="M 15.133016442000002,20.975359965000003 L 15.126577678621679,20.976531551089405 L 15.136279786897495,20.975092379453063 L 15.133016442000002,20.975359965000003 z" /><path fill-rule="evenodd" fill="#66cc99" stroke="#555555" stroke-width="0.0" opacity="0.6" d="M 15.113706435000003,20.97887358 L 15.107413513335347,20.98067063298467 L 15.116927831012696,20.978287420432522 L 15.113706435000003,20.97887358 z" /><path fill-rule="evenodd" fill="#66cc99" stroke="#555555" stroke-width="0.0" opacity="0.6" d="M 15.094833805000007,20.984262987000005 L 15.088747307407901,20.986668208860294 L 15.097982242924795,20.983363895914614 L 15.094833805000007,20.984262987000005 z" /><path fill-rule="evenodd" fill="#66cc99" stroke="#555555" stroke-width="0.0" opacity="0.6" d="M 15.076580305999995,20.991476283999994 L 15.070758872803719,20.994466503653737 L 15.079625464951485,20.990272918227255 L 15.076580305999995,20.991476283999994 z" /><path fill-rule="evenodd" fill="#66cc99" stroke="#555555" stroke-width="0.0" opacity="0.6" d="M 15.059121730000005,21.000444003000005 L 15.053621421986119,21.003990423880325 L 15.062034268802911,20.998947957184985 L 15.059121730000005,21.000444003000005 z" /><path fill-rule="evenodd" fill="#66cc99" stroke="#555555" stroke-width="0.0" opacity="0.6" d="M 15.042626211999998,21.011079780000003 L 15.037500011414245,21.015148238828957 L 15.045378088620975,21.00930545887397 L 15.042626211999998,21.011079780000003 z" /><path fill-rule="evenodd" fill="#66cc99" stroke="#555555" stroke-width="0.0" opacity="0.6" d="M 15.027252613000005,21.023281186000006 L 15.022549877331466,21.027832507159427 L 15.029817316906586,21.021245683861956 L 15.027252613000005,21.023281186000006 z" /><path fill-rule="evenodd" fill="#66cc99" stroke="#555555" stroke-width="0.0" opacity="0.6" d="M 15.013148988000005,21.036930715000004 L 15.008915002328887,21.041921072508618 L 15.015501832492813,21.03465362530589 L 15.013148988000005,21.036930715000004 z" /><path fill-rule="evenodd" fill="#66cc99" stroke="#555555" stroke-width="0.0" opacity="0.6" d="M 15.000451165000007,21.051896915000007 L 14.996726714488252,21.057278235169232 L 15.002569481325255,21.04940017632386 L 15.000451165000007,21.051896915000007 z" /><path fill-rule="evenodd" fill="#66cc99" stroke="#555555" stroke-width="0.0" opacity="0.6" d="M 14.989281428000004,21.068035652999995 L 14.98610236006008,21.07375614489193 L 14.991144823946819,21.06534330142753 L 14.989281428000004,21.068035652999995 z" /><path fill-rule="evenodd" fill="#66cc99" stroke="#555555" stroke-width="0.0" opacity="0.6" d="M 14.979747349999995,21.085191503999994 L 14.977144295381441,21.091196055941225 L 14.98133788249235,21.08232946128863 L 14.979747349999995,21.085191503999994 z" /><path fill-rule="evenodd" fill="#66cc99" stroke="#555555" stroke-width="0.0" opacity="0.6" d="M 14.971940748999998,21.103199247999996 L 14.969938774981708,21.1094300384862 L 14.973243091470987,21.10019509166898 L 14.971940748999998,21.103199247999996 z" /><path fill-rule="evenodd" fill="#66cc99" stroke="#555555" stroke-width="0.0" opacity="0.6" d="M 15.759162365999996,28.972895886999993 L 15.769167747999996,28.958606708000005 L 15.774014577999994,28.951352983999996 L 15.792764577999995,28.921921983999997 L 15.797291385000005,28.914462198 L 15.806015303000002,28.899352270999998 L 15.810212415000006,28.891702131 L 15.826325415000007,28.860750130999996 L 15.830185136999994,28.852923564999998 L 15.837559493,28.837109511999994 L 15.841074128000006,28.829122025999993 L 15.854428128000006,28.796883025999993 L 15.857591363999992,28.788748783000006 L 15.863559944999993,28.772350037 L 15.866365289000004,28.764085533999996 L 15.876858289000005,28.730804533999994 L 15.879299413000002,28.722429192000003 L 15.883814099000007,28.705580021 L 15.885887660999998,28.697106191 L 15.893440660999998,28.663038191 L 15.895143618,28.654476887999998 L 15.898174339000002,28.637288128999995 L 15.899502104000002,28.628660672000006 L 15.904056104000002,28.594063672000004 L 15.905005461999998,28.585394317000002 L 15.906525332000003,28.568022463 L 15.907095842999995,28.559319963 L 15.908618842999994,28.524457963 L 15.908809421000004,28.515728981000006 L 15.908809421000004,28.498271018999993 L 15.908618842999994,28.489542037 L 15.907095842999995,28.454680037 L 15.906525332000003,28.445977537 L 15.905005461999998,28.428605682999997 L 15.904056104000002,28.419936327999995 L 15.899502104000002,28.385339327999993 L 15.898174339000002,28.37671187100001 L 15.895143618,28.359523112000005 L 15.893440660999998,28.350961809 L 15.885887660999998,28.316893809 L 15.883814099000007,28.308419979000004 L 15.879299413000002,28.291570808 L 15.876858289000005,28.283195466000006 L 15.866365289000004,28.249914466000007 L 15.863559944999993,28.241649963 L 15.857591363999992,28.225251216999993 L 15.854428128000006,28.217116974000007 L 15.841074128000006,28.184877974000006 L 15.837560053000002,28.176891687000005 L 15.830186917999997,28.161079981999993 L 15.826327858999997,28.153254563999994 L 15.810214858999997,28.122301563999997 L 15.806016416999995,28.114648888999998 L 15.797289621999994,28.099534018000007 L 15.792761268000007,28.092071821999998 L 15.774011268000006,28.062641821999996 L 15.769165209999993,28.055389434000002 L 15.759161482999996,28.041102851999998 L 15.7544,28.03460898914264 L 15.7544,28.979391006499903 L 15.759162365999996,28.972895886999993 z" /><path fill-rule="evenodd" fill="#66cc99" stroke="#555555" stroke-width="0.0" opacity="0.6" d="M 14.4136,18.107902 L 14.423413534999996,18.107661091000004 L 14.443016963,18.106698037 L 14.462549523000002,18.104774246999995 L 14.481964158999995,18.101894357999996 L 14.501214099999993,18.098065306999995 L 14.520252971000001,18.093296318000004 L 14.539034906000003,18.087598879999994 L 14.557514657000006,18.08098672 L 14.575647704999998,18.073475765 L 14.593390365999996,18.065084111 L 14.610699895999998,18.055831974999993 L 14.627534594999998,18.045741643999992 L 14.643853908000008,18.034837429000007 L 14.659618518000007,18.023145597000003 L 14.674790448,18.010694316 L 14.689333147,17.997513581 L 14.703211581,17.983635147 L 14.716392316,17.969092447999998 L 14.728843597000003,17.953920518000007 L 14.740535429000005,17.938155908000006 L 14.751439643999994,17.921836595 L 14.761529974999995,17.905001895999998 L 14.770782111,17.887692365999996 L 14.779173765000001,17.869949705 L 14.786684719999998,17.851816657000004 L 14.793296879999994,17.833336906000003 L 14.798994318000004,17.814554971 L 14.803763306999997,17.795516099999993 L 14.807592357999996,17.776266158999995 L 14.810472246999995,17.756851523 L 14.812396037000001,17.737318963 L 14.813359091000006,17.717715534999996 L 14.8136,17.707902 L 14.8136,17.497030477 L 14.202728476999997,18.107902 L 14.4136,18.107902 z" /><path fill-rule="evenodd" fill="#66cc99" stroke="#555555" stroke-width="0.0" opacity="0.6" d="M 13.697034429000006,19.982552908000006 L 13.707938643999993,19.966233595 L 13.718028974999994,19.949398895999998 L 13.727281111000002,19.932089365999996 L 13.735672765,19.914346705 L 13.74318372,19.896213657000004 L 13.749795879999995,19.877733906000003 L 13.755493318000005,19.858951971 L 13.760262306999996,19.839913099999993 L 13.764091357999995,19.820663158999995 L 13.766971246999994,19.801248523 L 13.768895037,19.781715963 L 13.769858091000005,19.762112534999996 L 13.770099,19.752299 L 13.770099,19.6056 L 13.769135944999993,19.625203428000003 L 13.766256055999994,19.644618063999996 L 13.761487067000001,19.663656935000002 L 13.754874907000005,19.682136686000003 L 13.746483253000006,19.699879347000003 L 13.736392922000006,19.716714047000007 L 13.724701091000005,19.732478657000005 L 13.711520356000007,19.747021356000005 L 13.696977657000005,19.760202091000007 L 13.681213047000005,19.771893922000007 L 13.664378347000003,19.781984253000005 L 13.646635686000005,19.790375907000005 L 13.628155935000002,19.796988067 L 13.609117063999996,19.801757055999996 L 13.589702428000002,19.80463694499999 L 13.570099,19.8056 L 13.508230476999998,19.8056 L 13.691987875062958,19.98935739806296 L 13.697034429000006,19.982552908000006 z" /><path fill-rule="evenodd" fill="#66cc99" stroke="#555555" stroke-width="0.0" opacity="0.6" d="M 13.770099,18.761699 L 13.769858091000005,18.751885465000004 L 13.768895037,18.732282037 L 13.766971246999994,18.712749477 L 13.764091357999995,18.693334841000006 L 13.760262306999996,18.674084900000008 L 13.755493318000005,18.655046028999998 L 13.749795879999995,18.636264093999998 L 13.74318372,18.617784342999993 L 13.735672765,18.599651295 L 13.727743725935609,18.58288675106439 L 13.508230476999998,18.8024 L 13.570099,18.8024 L 13.589702428000002,18.803363055000005 L 13.609117063999996,18.806242944000005 L 13.628155935000002,18.811011933 L 13.646635686000005,18.817624092999996 L 13.664378347000003,18.826015746999992 L 13.681213047000005,18.836106077999993 L 13.696977657000005,18.847797908999993 L 13.711520356000007,18.860978643999992 L 13.724701091000005,18.875521342999996 L 13.736392922000006,18.891285952999993 L 13.746483253000006,18.908120652999997 L 13.754874907000005,18.925863313999997 L 13.761487067000001,18.944343064999998 L 13.766256055999994,18.963381936000005 L 13.769135944999993,18.982796571999998 L 13.770099,19.0024 L 13.770099,18.761699 z" /><polyline fill="none" stroke="#66cc99" stroke-width="0.0" points="13.770099,19.6056 13.769135944999993,19.585996571999996" opacity="0.8" /><polyline fill="none" stroke="#66cc99" stroke-width="0.0" points="13.769135944999993,19.585996571999996 13.766256055999994,19.566581936000006" opacity="0.8" /><polyline fill="none" stroke="#66cc99" stroke-width="0.0" points="13.766256055999994,19.566581936000006 13.761487067000001,19.547543065" opacity="0.8" /><polyline fill="none" stroke="#66cc99" stroke-width="0.0" points="13.761487067000001,19.547543065 13.754874907000005,19.529063313999995" opacity="0.8" /><polyline fill="none" stroke="#66cc99" stroke-width="0.0" points="13.754874907000005,19.529063313999995 13.746483253000006,19.511320653" opacity="0.8" /><polyline fill="none" stroke="#66cc99" stroke-width="0.0" points="13.746483253000006,19.511320653 13.736392922000006,19.494485952999995" opacity="0.8" /><polyline fill="none" stroke="#66cc99" stroke-width="0.0" points="13.736392922000006,19.494485952999995 13.724701091000005,19.478721342999993" opacity="0.8" /><polyline fill="none" stroke="#66cc99" stroke-width="0.0" points="13.724701091000005,19.478721342999993 13.711520356000007,19.464178643999993" opacity="0.8" /><polyline fill="none" stroke="#66cc99" stroke-width="0.0" points="13.711520356000007,19.464178643999993 13.696977657000005,19.450997908999994" opacity="0.8" /><polyline fill="none" stroke="#66cc99" stroke-width="0.0" points="13.696977657000005,19.450997908999994 13.681213047000005,19.439306077999994" opacity="0.8" /><polyline fill="none" stroke="#66cc99" stroke-width="0.0" points="13.681213047000005,19.439306077999994 13.664378347000003,19.429215746999994" opacity="0.8" /><polyline fill="none" stroke="#66cc99" stroke-width="0.0" points="13.664378347000003,19.429215746999994 13.646635686000005,19.420824092999993" opacity="0.8" /><polyline fill="none" stroke="#66cc99" stroke-width="0.0" points="13.646635686000005,19.420824092999993 13.628155935000002,19.414211932999997" opacity="0.8" /><polyline fill="none" stroke="#66cc99" stroke-width="0.0" points="13.628155935000002,19.414211932999997 13.609117063999996,19.409442944000006" opacity="0.8" /><polyline fill="none" stroke="#66cc99" stroke-width="0.0" points="13.609117063999996,19.409442944000006 13.589702428000002,19.406563055000007" opacity="0.8" /><polyline fill="none" stroke="#66cc99" stroke-width="0.0" points="13.589702428000002,19.406563055000007 13.570099,19.4056" opacity="0.8" /><polyline fill="none" stroke="#66cc99" stroke-width="0.0" points="13.570099,19.2024 13.589702428000002,19.201436944999994" opacity="0.8" /><polyline fill="none" stroke="#66cc99" stroke-width="0.0" points="13.589702428000002,19.201436944999994 13.609117063999996,19.198557055999995" opacity="0.8" /><polyline fill="none" stroke="#66cc99" stroke-width="0.0" points="13.609117063999996,19.198557055999995 13.628155935000002,19.193788067000003" opacity="0.8" /><polyline fill="none" stroke="#66cc99" stroke-width="0.0" points="13.628155935000002,19.193788067000003 13.646635686000005,19.187175907000004" opacity="0.8" /><polyline fill="none" stroke="#66cc99" stroke-width="0.0" points="13.646635686000005,19.187175907000004 13.664378347000003,19.178784253000007" opacity="0.8" /><polyline fill="none" stroke="#66cc99" stroke-width="0.0" points="13.664378347000003,19.178784253000007 13.681213047000005,19.168693922000006" opacity="0.8" /><polyline fill="none" stroke="#66cc99" stroke-width="0.0" points="13.681213047000005,19.168693922000006 13.696977657000005,19.157002091000006" opacity="0.8" /><polyline fill="none" stroke="#66cc99" stroke-width="0.0" points="13.696977657000005,19.157002091000006 13.711520356000007,19.143821356000007" opacity="0.8" /><polyline fill="none" stroke="#66cc99" stroke-width="0.0" points="13.711520356000007,19.143821356000007 13.724701091000005,19.129278657000004" opacity="0.8" /><polyline fill="none" stroke="#66cc99" stroke-width="0.0" points="13.724701091000005,19.129278657000004 13.736392922000006,19.113514047000006" opacity="0.8" /><polyline fill="none" stroke="#66cc99" stroke-width="0.0" points="13.736392922000006,19.113514047000006 13.746483253000006,19.096679347000002" opacity="0.8" /><polyline fill="none" stroke="#66cc99" stroke-width="0.0" points="13.746483253000006,19.096679347000002 13.754874907000005,19.078936686000006" opacity="0.8" /><polyline fill="none" stroke="#66cc99" stroke-width="0.0" points="13.754874907000005,19.078936686000006 13.761487067000001,19.060456935" opacity="0.8" /><polyline fill="none" stroke="#66cc99" stroke-width="0.0" points="13.761487067000001,19.060456935 13.766256055999994,19.041418063999995" opacity="0.8" /><polyline fill="none" stroke="#66cc99" stroke-width="0.0" points="13.766256055999994,19.041418063999995 13.769135944999993,19.022003428" opacity="0.8" /><polyline fill="none" stroke="#66cc99" stroke-width="0.0" points="13.769135944999993,19.022003428 13.770099,19.0024" opacity="0.8" /></g> 
                    </g>
                    </svg>