<svg xmlns="http://www.w3.org/2000/svg" viewBox="0 0 58.590274 40.132" width="58.590274mm" height="40.132mm">
                    <g stroke-linecap="round">
                        <g><path fill-rule="evenodd" fill="#66cc99" stroke="#555555" stroke-width="0.0" opacity="0.6" d="M 15.938238,21.309569 L 15.935961,21.292271 L 15.932185,21.275237 L 15.926938,21.258596 L 15.920261,21.242477 L 15.912205,21.227 L 15.90283,21.212285 L 15.892208,21.198443 L 15.880421,21.185579 L 15.867557,21.173792 L 15.853715,21.16317 L 15.839,21.153795 L 15.823523,21.145739 L 15.807404,21.139062 L 15.790763,21.133815 L 15.773729,21.130039 L 15.756431,21.127762 L 15.739,21.127 L 15.721569,21.127762 L 15.704271,21.130039 L 15.687237,21.133815 L 15.670596,21.139062 L 15.654477,21.145739 L 15.639,21.153795 L 15.624285,21.16317 L 15.610443,21.173792 L 15.597579,21.185579 L 15.585792,21.198443 L 15.57517,21.212285 L 15.565795,21.227 L 15.557739,21.242477 L 15.551062,21.258596 L 15.545815,21.275237 L 15.542039,21.292271 L 15.539762,21.309569 L 15.539,21.327 L 15.539762,21.344431 L 15.542039,21.361729 L 15.545815,21.378763 L 15.551062,21.395404 L 15.557739,21.411523 L 15.565795,21.426999 L 15.57517,21.441715 L 15.585792,21.455557 L 15.597579,21.468421 L 15.610443,21.480208 L 15.624285,21.49083 L 15.639001,21.500205 L 15.654477,21.508261 L 15.670596,21.514938 L 15.687237,21.520185 L 15.704271,21.523961 L 15.721569,21.526238 L 15.739,21.527 L 15.756431,21.526238 L 15.773729,21.523961 L 15.790763,21.520185 L 15.807404,21.514938 L 15.823523,21.508261 L 15.839,21.500205 L 15.853715,21.49083 L 15.867557,21.480208 L 15.880421,21.468421 L 15.892208,21.455557 L 15.90283,21.441715 L 15.912205,21.426999 L 15.920261,21.411523 L 15.926938,21.395404 L 15.932185,21.378763 L 15.935961,21.361729 L 15.938238,21.344431 L 15.939,21.327 L 15.938238,21.309569 z" /><path fill-rule="evenodd" fill="#66cc99" stroke="#555555" stroke-width="0.0" opacity="0.6" d="M 9.608238,22.989569 L 9.605961,22.972271 L 9.602185,22.955237 L 9.596938,22.938596 L 9.590261,22.922477 L 9.582205,22.907 L 9.57283,22.892285 L 9.562208,22.878443 L 9.550421,22.865579 L 9.537557,22.853792 L 9.523715,22.84317 L 9.509,22.833795 L 9.493523,22.825739 L 9.477404,22.819062 L 9.460763,22.813815 L 9.443729,22.810039 L 9.426431,22.807762 L 9.409,22.807 L 9.391569,22.807762 L 9.374271,22.810039 L 9.357237,22.813815 L 9.340596,22.819062 L 9.324477,22.825739 L 9.309,22.833795 L 9.294285,22.84317 L 9.280443,22.853792 L 9.267579,22.865579 L 9.255792,22.878443 L 9.24517,22.892285 L 9.235795,22.907 L 9.227739,22.922477 L 9.221062,22.938596 L 9.215815,22.955237 L 9.212039,22.972271 L 9.209762,22.989569 L 9.209,23.007 L 9.209762,23.024431 L 9.212039,23.041729 L 9.215815,23.058763 L 9.221062,23.075404 L 9.227739,23.091523 L 9.235795,23.106999 L 9.24517,23.121715 L 9.255792,23.135557 L 9.267579,23.148421 L 9.280443,23.160208 L 9.294285,23.17083 L 9.309001,23.180205 L 9.324477,23.188261 L 9.340596,23.194938 L 9.357237,23.200185 L 9.374271,23.203961 L 9.391569,23.206238 L 9.409,23.207 L 9.426431,23.206238 L 9.443729,23.203961 L 9.460763,23.200185 L 9.477404,23.194938 L 9.493523,23.188261 L 9.509,23.180205 L 9.523715,23.17083 L 9.537557,23.160208 L 9.550421,23.148421 L 9.562208,23.135557 L 9.57283,23.121715 L 9.582205,23.106999 L 9.590261,23.091523 L 9.596938,23.075404 L 9.602185,23.058763 L 9.605961,23.041729 L 9.608238,23.024431 L 9.609,23.007 L 9.608238,22.989569 z" /><path fill-rule="evenodd" fill="#66cc99" stroke="#555555" stroke-width="0.0" opacity="0.6" d="M 9.258238,16.114569 L 9.255961,16.097271 L 9.252185,16.080237 L 9.246938,16.063596 L 9.240261,16.047477 L 9.232205,16.032 L 9.22283,16.017285 L 9.212208,16.003443 L 9.200421,15.990579 L 9.187557,15.978792 L 9.173715,15.96817 L 9.159,15.958795 L 9.143523,15.950739 L 9.127404,15.944062 L 9.110763,15.938815 L 9.093729,15.935039 L 9.076431,15.932762 L 9.059,15.932 L 9.041569,15.932762 L 9.024271,15.935039 L 9.007237,15.938815 L 8.990596,15.944062 L 8.974477,15.950739 L 8.959,15.958795 L 8.944285,15.96817 L 8.930443,15.978792 L 8.917579,15.990579 L 8.905792,16.003443 L 8.89517,16.017285 L 8.885795,16.032 L 8.877739,16.047477 L 8.871062,16.063596 L 8.865815,16.080237 L 8.862039,16.097271 L 8.859762,16.114569 L 8.859,16.132 L 8.859762,16.149431 L 8.862039,16.166729 L 8.865815,16.183763 L 8.871062,16.200404 L 8.877739,16.216523 L 8.885795,16.231999 L 8.89517,16.246715 L 8.905792,16.260557 L 8.917579,16.273421 L 8.930443,16.285208 L 8.944285,16.29583 L 8.959001,16.305205 L 8.974477,16.313261 L 8.990596,16.319938 L 9.007237,16.325185 L 9.024271,16.328961 L 9.041569,16.331238 L 9.059,16.332 L 9.076431,16.331238 L 9.093729,16.328961 L 9.110763,16.325185 L 9.127404,16.319938 L 9.143523,16.313261 L 9.159,16.305205 L 9.173715,16.29583 L 9.187557,16.285208 L 9.200421,16.273421 L 9.212208,16.260557 L 9.22283,16.246715 L 9.232205,16.231999 L 9.240261,16.216523 L 9.246938,16.200404 L 9.252185,16.183763 L 9.255961,16.166729 L 9.258238,16.149431 L 9.259,16.132 L 9.258238,16.114569 z" /><path fill-rule="evenodd" fill="#66cc99" stroke="#555555" stroke-width="0.0" opacity="0.6" d="M 12.158238,27.264569 L 12.155961,27.247271 L 12.152185,27.230237 L 12.146938,27.213596 L 12.140261,27.197477 L 12.132205,27.182 L 12.12283,27.167285 L 12.112208,27.153443 L 12.100421,27.140579 L 12.087557,27.128792 L 12.073715,27.11817 L 12.059,27.108795 L 12.043523,27.100739 L 12.027404,27.094062 L 12.010763,27.088815 L 11.993729,27.085039 L 11.976431,27.082762 L 11.959,27.082 L 11.941569,27.082762 L 11.924271,27.085039 L 11.907237,27.088815 L 11.890596,27.094062 L 11.874477,27.100739 L 11.859,27.108795 L 11.844285,27.11817 L 11.830443,27.128792 L 11.817579,27.140579 L 11.805792,27.153443 L 11.79517,27.167285 L 11.785795,27.182 L 11.777739,27.197477 L 11.771062,27.213596 L 11.765815,27.230237 L 11.762039,27.247271 L 11.759762,27.264569 L 11.759,27.282 L 11.759762,27.299431 L 11.762039,27.316729 L 11.765815,27.333763 L 11.771062,27.350404 L 11.777739,27.366523 L 11.785795,27.381999 L 11.79517,27.396715 L 11.805792,27.410557 L 11.817579,27.423421 L 11.830443,27.435208 L 11.844285,27.44583 L 11.859001,27.455205 L 11.874477,27.463261 L 11.890596,27.469938 L 11.907237,27.475185 L 11.924271,27.478961 L 11.941569,27.481238 L 11.959,27.482 L 11.976431,27.481238 L 11.993729,27.478961 L 12.010763,27.475185 L 12.027404,27.469938 L 12.043523,27.463261 L 12.059,27.455205 L 12.073715,27.44583 L 12.087557,27.435208 L 12.100421,27.423421 L 12.112208,27.410557 L 12.12283,27.396715 L 12.132205,27.381999 L 12.140261,27.366523 L 12.146938,27.350404 L 12.152185,27.333763 L 12.155961,27.316729 L 12.158238,27.299431 L 12.159,27.282 L 12.158238,27.264569 z" /><path fill-rule="evenodd" fill="#66cc99" stroke="#555555" stroke-width="0.0" opacity="0.6" d="M 10.133238,17.214569 L 10.130961,17.197271 L 10.127185,17.180237 L 10.121938,17.163596 L 10.115261,17.147477 L 10.107205,17.132 L 10.09783,17.117285 L 10.087208,17.103443 L 10.075421,17.090579 L 10.062557,17.078792 L 10.048715,17.06817 L 10.034,17.058795 L 10.018523,17.050739 L 10.002404,17.044062 L 9.985763,17.038815 L 9.968729,17.035039 L 9.951431,17.032762 L 9.934,17.032 L 9.916569,17.032762 L 9.899271,17.035039 L 9.882237,17.038815 L 9.865596,17.044062 L 9.849477,17.050739 L 9.834,17.058795 L 9.819285,17.06817 L 9.805443,17.078792 L 9.792579,17.090579 L 9.780792,17.103443 L 9.77017,17.117285 L 9.760795,17.132 L 9.752739,17.147477 L 9.746062,17.163596 L 9.740815,17.180237 L 9.737039,17.197271 L 9.734762,17.214569 L 9.734,17.232 L 9.734762,17.249431 L 9.737039,17.266729 L 9.740815,17.283763 L 9.746062,17.300404 L 9.752739,17.316523 L 9.760795,17.331999 L 9.77017,17.346715 L 9.780792,17.360557 L 9.792579,17.373421 L 9.805443,17.385208 L 9.819285,17.39583 L 9.834001,17.405205 L 9.849477,17.413261 L 9.865596,17.419938 L 9.882237,17.425185 L 9.899271,17.428961 L 9.916569,17.431238 L 9.934,17.432 L 9.951431,17.431238 L 9.968729,17.428961 L 9.985763,17.425185 L 10.002404,17.419938 L 10.018523,17.413261 L 10.034,17.405205 L 10.048715,17.39583 L 10.062557,17.385208 L 10.075421,17.373421 L 10.087208,17.360557 L 10.09783,17.346715 L 10.107205,17.331999 L 10.115261,17.316523 L 10.121938,17.300404 L 10.127185,17.283763 L 10.130961,17.266729 L 10.133238,17.249431 L 10.134,17.232 L 10.133238,17.214569 z" /><path fill-rule="evenodd" fill="#66cc99" stroke="#555555" stroke-width="0.0" opacity="0.6" d="M 15.309,28.507 L 15.308238,28.524431 L 15.305961,28.541729 L 15.302185,28.558763 L 15.296938,28.575404 L 15.290261,28.591523 L 15.282205,28.606999 L 15.27283,28.621715 L 15.262208,28.635557 L 15.250421,28.648421 L 15.237557,28.660208 L 15.223715,28.67083 L 15.209,28.680205 L 15.193523,28.688261 L 15.177404,28.694938 L 15.160763,28.700185 L 15.143729,28.703961 L 15.126431,28.706238 L 15.109,28.707 L 15.091569,28.706238 L 15.074271,28.703961 L 15.057237,28.700185 L 15.040596,28.694938 L 15.024477,28.688261 L 15.009001,28.680205 L 14.994285,28.67083 L 14.980443,28.660208 L 14.967579,28.648421 L 14.955792,28.635557 L 14.94517,28.621715 L 14.935795,28.606999 L 14.927739,28.591523 L 14.921062,28.575404 L 14.915815,28.558763 L 14.912039,28.541729 L 14.909762,28.524431 L 14.909,28.507 L 14.909762,28.489569 L 14.912039,28.472271 L 14.915815,28.455237 L 14.921062,28.438596 L 14.927739,28.422477 L 14.935795,28.407 L 14.94517,28.392285 L 14.955792,28.378443 L 14.967579,28.365579 L 14.980443,28.353792 L 14.994285,28.34317 L 15.009,28.333795 L 15.024477,28.325739 L 15.040596,28.319062 L 15.057237,28.313815 L 15.074271,28.310039 L 15.091569,28.307762 L 15.109,28.307 L 15.126431,28.307762 L 15.143729,28.310039 L 15.160763,28.313815 L 15.177404,28.319062 L 15.193523,28.325739 L 15.209,28.333795 L 15.223715,28.34317 L 15.237557,28.353792 L 15.250421,28.365579 L 15.262208,28.378443 L 15.27283,28.392285 L 15.282205,28.407 L 15.290261,28.422477 L 15.296938,28.438596 L 15.302185,28.455237 L 15.305961,28.472271 L 15.308238,28.489569 L 15.309,28.507 z" /><path fill-rule="evenodd" fill="#66cc99" stroke="#555555" stroke-width="0.0" opacity="0.6" d="M 29.084,24.582 L 29.083238,24.599431 L 29.080961,24.616729 L 29.077185,24.633763 L 29.071938,24.650404 L 29.065261,24.666523 L 29.057205,24.681999 L 29.04783,24.696715 L 29.037208,24.710557 L 29.025421,24.723421 L 29.012557,24.735208 L 28.998715,24.74583 L 28.984,24.755205 L 28.968523,24.763261 L 28.952404,24.769938 L 28.935763,24.775185 L 28.918729,24.778961 L 28.901431,24.781238 L 28.884,24.782 L 28.866569,24.781238 L 28.849271,24.778961 L 28.832237,24.775185 L 28.815596,24.769938 L 28.799477,24.763261 L 28.784001,24.755205 L 28.769285,24.74583 L 28.755443,24.735208 L 28.742579,24.723421 L 28.730792,24.710557 L 28.72017,24.696715 L 28.710795,24.681999 L 28.702739,24.666523 L 28.696062,24.650404 L 28.690815,24.633763 L 28.687039,24.616729 L 28.684762,24.599431 L 28.684,24.582 L 28.684762,24.564569 L 28.687039,24.547271 L 28.690815,24.530237 L 28.696062,24.513596 L 28.702739,24.497477 L 28.710795,24.482 L 28.72017,24.467285 L 28.730792,24.453443 L 28.742579,24.440579 L 28.755443,24.428792 L 28.769285,24.41817 L 28.784,24.408795 L 28.799477,24.400739 L 28.815596,24.394062 L 28.832237,24.388815 L 28.849271,24.385039 L 28.866569,24.382762 L 28.884,24.382 L 28.901431,24.382762 L 28.918729,24.385039 L 28.935763,24.388815 L 28.952404,24.394062 L 28.968523,24.400739 L 28.984,24.408795 L 28.998715,24.41817 L 29.012557,24.428792 L 29.025421,24.440579 L 29.037208,24.453443 L 29.04783,24.467285 L 29.057205,24.482 L 29.065261,24.497477 L 29.071938,24.513596 L 29.077185,24.530237 L 29.080961,24.547271 L 29.083238,24.564569 L 29.084,24.582 z" /><path fill-rule="evenodd" fill="#66cc99" stroke="#555555" stroke-width="0.0" opacity="0.6" d="M 29.884,22.507 L 29.883238,22.524431 L 29.880961,22.541729 L 29.877185,22.558763 L 29.871938,22.575404 L 29.865261,22.591523 L 29.857205,22.606999 L 29.84783,22.621715 L 29.837208,22.635557 L 29.825421,22.648421 L 29.812557,22.660208 L 29.798715,22.67083 L 29.784,22.680205 L 29.768523,22.688261 L 29.752404,22.694938 L 29.735763,22.700185 L 29.718729,22.703961 L 29.701431,22.706238 L 29.684,22.707 L 29.666569,22.706238 L 29.649271,22.703961 L 29.632237,22.700185 L 29.615596,22.694938 L 29.599477,22.688261 L 29.584001,22.680205 L 29.569285,22.67083 L 29.555443,22.660208 L 29.542579,22.648421 L 29.530792,22.635557 L 29.52017,22.621715 L 29.510795,22.606999 L 29.502739,22.591523 L 29.496062,22.575404 L 29.490815,22.558763 L 29.487039,22.541729 L 29.484762,22.524431 L 29.484,22.507 L 29.484762,22.489569 L 29.487039,22.472271 L 29.490815,22.455237 L 29.496062,22.438596 L 29.502739,22.422477 L 29.510795,22.407 L 29.52017,22.392285 L 29.530792,22.378443 L 29.542579,22.365579 L 29.555443,22.353792 L 29.569285,22.34317 L 29.584,22.333795 L 29.599477,22.325739 L 29.615596,22.319062 L 29.632237,22.313815 L 29.649271,22.310039 L 29.666569,22.307762 L 29.684,22.307 L 29.701431,22.307762 L 29.718729,22.310039 L 29.735763,22.313815 L 29.752404,22.319062 L 29.768523,22.325739 L 29.784,22.333795 L 29.798715,22.34317 L 29.812557,22.353792 L 29.825421,22.365579 L 29.837208,22.378443 L 29.84783,22.392285 L 29.857205,22.407 L 29.865261,22.422477 L 29.871938,22.438596 L 29.877185,22.455237 L 29.880961,22.472271 L 29.883238,22.489569 L 29.884,22.507 z" /></g>
                    </g>
                    </svg>