<svg xmlns="http://www.w3.org/2000/svg" viewBox="0 0 106.934 101.56625" width="106.934mm" height="101.56625mm">
                    <g stroke-linecap="round">
                        <g><path fill-rule="evenodd" fill="#66cc99" stroke="#555555" stroke-width="0.0" opacity="0.6" d="M 83.438,49.67425 L 83.438,45.67425 L 26.638,45.67425 L 26.638,49.67425 L 83.438,49.67425 z M 30.23361618323859,47.34512744814117 L 30.17431082623967,47.41056082623967 L 30.108877448141172,47.46986618323859 L 30.037946208143598,47.52247237613055 L 29.96220021286338,47.5678727785203 L 29.882368937641665,47.60563015971465 L 29.7992212012994,47.63538089549226 L 29.71355776199052,47.656838470004274 L 29.626203605464095,47.6697962350782 L 29.538,47.67412940035296 L 29.449796394535923,47.6697962350782 L 29.362442238009454,47.65683847000427 L 29.276778798700615,47.63538089549226 L 29.193631062358335,47.60563015971465 L 29.11379978713662,47.5678727785203 L 29.038053791856402,47.52247237613055 L 28.96712255185883,47.46986618323859 L 28.90168917376037,47.410560826239696 L 28.842383816761345,47.3451274481411 L 28.78977762386948,47.274196208143636 L 28.744377221479706,47.19845021286338 L 28.706619840285352,47.11861893764166 L 28.676869104507738,47.0354712012994 L 28.655411529995725,46.94980776199052 L 28.6424537649218,46.86245360546409 L 28.63812059964704,46.77425 L 28.6424537649218,46.68604639453591 L 28.655411529995725,46.598692238009484 L 28.676869104507738,46.5130287987006 L 28.706619840285352,46.429881062358334 L 28.744377221479706,46.35004978713662 L 28.78977762386948,46.27430379185636 L 28.842383816761345,46.203372551858905 L 28.90168917376033,46.13793917376033 L 28.967122551858903,46.07863381676135 L 29.038053791856363,46.02602762386948 L 29.11379978713662,45.98062722147971 L 29.193631062358335,45.942869840285354 L 29.2767787987006,45.913119104507736 L 29.362442238009482,45.89166152999572 L 29.449796394535905,45.8787037649218 L 29.538,45.87437059964704 L 29.626203605464095,45.8787037649218 L 29.71355776199052,45.89166152999572 L 29.7992212012994,45.913119104507736 L 29.882368937641665,45.942869840285354 L 29.96220021286338,45.98062722147971 L 30.037946208143598,46.026027623869446 L 30.108877448141172,46.07863381676141 L 30.17431082623963,46.1379391737603 L 30.233616183238656,46.203372551858905 L 30.28622237613052,46.27430379185636 L 30.331622778520295,46.35004978713662 L 30.369380159714648,46.429881062358334 L 30.399130895492263,46.5130287987006 L 30.420588470004276,46.598692238009484 L 30.4335462350782,46.68604639453591 L 30.437879400352962,46.77425 L 30.4335462350782,46.862453605464076 L 30.42058847000427,46.94980776199055 L 30.399130895492263,47.03547120129939 L 30.369380159714648,47.11861893764166 L 30.331622778520295,47.19845021286338 L 30.28622237613055,47.2741962081436 L 30.23361618323859,47.34512744814117 z M 81.3316227785203,47.19845021286334 L 81.28622237613051,47.27419620814365 L 81.23361618323862,47.34512744814113 L 81.17431082623963,47.410560826239696 L 81.10887744814116,47.469866183238594 L 81.0379462081436,47.52247237613055 L 80.96220021286338,47.5678727785203 L 80.8823689376417,47.60563015971463 L 80.79922120129939,47.63538089549226 L 80.71355776199053,47.656838470004274 L 80.62620360546408,47.6697962350782 L 80.538,47.67412940035296 L 80.44979639453592,47.6697962350782 L 80.36244223800942,47.65683847000426 L 80.27677879870066,47.635380895492275 L 80.1936310623583,47.60563015971463 L 80.11379978713661,47.5678727785203 L 80.03805379185641,47.52247237613055 L 79.96712255185884,47.469866183238594 L 79.90168917376037,47.410560826239696 L 79.84238381676137,47.34512744814113 L 79.7897776238695,47.27419620814365 L 79.7443772214797,47.19845021286334 L 79.70661984028536,47.11861893764168 L 79.67686910450773,47.03547120129934 L 79.65541152999575,46.949807761990556 L 79.64245376492178,46.86245360546406 L 79.63812059964702,46.77425 L 79.64245376492178,46.686046394535936 L 79.65541152999575,46.59869223800945 L 79.67686910450773,46.51302879870066 L 79.70661984028536,46.42988106235832 L 79.7443772214797,46.35004978713666 L 79.7897776238695,46.27430379185635 L 79.84238381676137,46.20337255185887 L 79.90168917376035,46.13793917376033 L 79.96712255185888,46.078633816761375 L 80.03805379185641,46.026027623869446 L 80.11379978713661,45.98062722147971 L 80.1936310623583,45.94286984028537 L 80.27677879870062,45.913119104507736 L 80.36244223800946,45.89166152999572 L 80.44979639453591,45.8787037649218 L 80.538,45.87437059964704 L 80.62620360546408,45.8787037649218 L 80.71355776199053,45.89166152999572 L 80.79922120129939,45.913119104507736 L 80.8823689376417,45.94286984028537 L 80.96220021286338,45.98062722147971 L 81.0379462081436,46.026027623869446 L 81.10887744814116,46.0786338167614 L 81.17431082623963,46.1379391737603 L 81.23361618323862,46.20337255185887 L 81.28622237613051,46.27430379185635 L 81.3316227785203,46.35004978713666 L 81.36938015971464,46.42988106235832 L 81.39913089549228,46.51302879870066 L 81.42058847000426,46.59869223800945 L 81.43354623507821,46.686046394535936 L 81.43787940035297,46.77425 L 81.43354623507821,46.86245360546406 L 81.42058847000426,46.949807761990556 L 81.39913089549228,47.03547120129934 L 81.36938015971464,47.11861893764168 L 81.3316227785203,47.19845021286334 z" /><path fill-rule="evenodd" fill="#66cc99" stroke="#555555" stroke-width="0.0" opacity="0.6" d="M 30.331622778520295,43.19845021286338 L 30.369380159714648,43.11861893764166 L 30.399130895492263,43.03547120129939 L 30.42058847000427,42.94980776199055 L 30.4335462350782,42.862453605464076 L 30.437879400352962,42.77425 L 30.4335462350782,42.68604639453591 L 30.420588470004276,42.598692238009484 L 30.399130895492263,42.5130287987006 L 30.369380159714648,42.429881062358334 L 30.331622778520295,42.35004978713662 L 30.28622237613052,42.27430379185636 L 30.233616183238656,42.203372551858905 L 30.17431082623963,42.1379391737603 L 30.108877448141172,42.07863381676141 L 30.037946208143598,42.026027623869446 L 29.96220021286338,41.98062722147971 L 29.882368937641665,41.942869840285354 L 29.7992212012994,41.913119104507736 L 29.71355776199052,41.89166152999572 L 29.626203605464095,41.8787037649218 L 29.538,41.87437059964704 L 29.449796394535905,41.8787037649218 L 29.362442238009482,41.89166152999572 L 29.2767787987006,41.913119104507736 L 29.193631062358335,41.942869840285354 L 29.11379978713662,41.98062722147971 L 29.038053791856363,42.02602762386948 L 28.967122551858903,42.07863381676135 L 28.90168917376033,42.13793917376033 L 28.842383816761345,42.203372551858905 L 28.78977762386948,42.27430379185636 L 28.744377221479706,42.35004978713662 L 28.706619840285352,42.429881062358334 L 28.676869104507738,42.5130287987006 L 28.655411529995725,42.598692238009484 L 28.6424537649218,42.68604639453591 L 28.63812059964704,42.77425 L 28.6424537649218,42.86245360546409 L 28.655411529995725,42.94980776199052 L 28.676869104507738,43.0354712012994 L 28.706619840285352,43.11861893764166 L 28.744377221479706,43.19845021286338 L 28.78977762386948,43.274196208143636 L 28.842383816761345,43.3451274481411 L 28.90168917376037,43.410560826239696 L 28.96712255185883,43.46986618323859 L 29.038053791856402,43.52247237613055 L 29.11379978713662,43.5678727785203 L 29.193631062358335,43.60563015971465 L 29.276778798700615,43.63538089549226 L 29.362442238009454,43.65683847000427 L 29.449796394535923,43.6697962350782 L 29.538,43.67412940035296 L 29.626203605464095,43.6697962350782 L 29.71355776199052,43.656838470004274 L 29.7992212012994,43.63538089549226 L 29.882368937641665,43.60563015971465 L 29.96220021286338,43.5678727785203 L 30.037946208143598,43.52247237613055 L 30.108877448141172,43.46986618323859 L 30.17431082623967,43.41056082623967 L 30.23361618323859,43.34512744814117 L 30.28622237613055,43.2741962081436 L 30.331622778520295,43.19845021286338 z" /><path fill-rule="evenodd" fill="#66cc99" stroke="#555555" stroke-width="0.0" opacity="0.6" d="M 81.39913089549228,43.03547120129934 L 81.42058847000426,42.949807761990556 L 81.43354623507821,42.86245360546406 L 81.43787940035297,42.77425 L 81.43354623507821,42.686046394535936 L 81.42058847000426,42.59869223800945 L 81.39913089549228,42.51302879870066 L 81.36938015971464,42.42988106235832 L 81.3316227785203,42.35004978713666 L 81.28622237613051,42.27430379185635 L 81.23361618323862,42.20337255185887 L 81.17431082623963,42.1379391737603 L 81.10887744814116,42.0786338167614 L 81.0379462081436,42.026027623869446 L 80.96220021286338,41.98062722147971 L 80.8823689376417,41.94286984028537 L 80.79922120129939,41.913119104507736 L 80.71355776199053,41.89166152999572 L 80.62620360546408,41.8787037649218 L 80.538,41.87437059964704 L 80.44979639453591,41.8787037649218 L 80.36244223800946,41.89166152999572 L 80.27677879870062,41.913119104507736 L 80.1936310623583,41.94286984028537 L 80.11379978713661,41.98062722147971 L 80.03805379185641,42.026027623869446 L 79.96712255185888,42.078633816761375 L 79.90168917376035,42.13793917376033 L 79.84238381676137,42.20337255185887 L 79.7897776238695,42.27430379185635 L 79.7443772214797,42.35004978713666 L 79.70661984028536,42.42988106235832 L 79.67686910450773,42.51302879870066 L 79.65541152999575,42.59869223800945 L 79.64245376492178,42.686046394535936 L 79.63812059964702,42.77425 L 79.64245376492178,42.86245360546406 L 79.65541152999575,42.949807761990556 L 79.67686910450773,43.03547120129934 L 79.70661984028536,43.11861893764168 L 79.7443772214797,43.19845021286334 L 79.7897776238695,43.27419620814365 L 79.84238381676137,43.34512744814113 L 79.90168917376037,43.410560826239696 L 79.96712255185884,43.469866183238594 L 80.03805379185641,43.52247237613055 L 80.11379978713661,43.5678727785203 L 80.1936310623583,43.60563015971463 L 80.27677879870066,43.635380895492275 L 80.36244223800942,43.65683847000426 L 80.44979639453592,43.6697962350782 L 80.538,43.67412940035296 L 80.62620360546408,43.6697962350782 L 80.71355776199053,43.656838470004274 L 80.79922120129939,43.63538089549226 L 80.8823689376417,43.60563015971463 L 80.96220021286338,43.5678727785203 L 81.0379462081436,43.52247237613055 L 81.10887744814116,43.469866183238594 L 81.17431082623963,43.410560826239696 L 81.23361618323862,43.34512744814113 L 81.28622237613051,43.27419620814365 L 81.3316227785203,43.19845021286334 L 81.36938015971464,43.11861893764168 L 81.39913089549228,43.03547120129934 z" /></g>
                    </g>
                    </svg>