<?xml version="1.0" standalone="no"?>
 <!DOCTYPE svg PUBLIC "-//W3C//DTD SVG 1.1//EN" 
 "http://www.w3.org/Graphics/SVG/1.1/DTD/svg11.dtd"> 
<svg
  xmlns:svg="http://www.w3.org/2000/svg"
  xmlns="http://www.w3.org/2000/svg"
  xmlns:xlink="http://www.w3.org/1999/xlink"
  version="1.1"
  width="297.0022mm" height="210.0072mm" viewBox="0.0000 0.0000 297.0022 210.0072">
<title>SVG Image created as 1stTrial-brd.svg date 2024/01/03 14:18:07 </title>
  <desc>Image generated by PCBNEW </desc>
<g style="fill:#000000; fill-opacity:1.0000;stroke:#000000; stroke-opacity:1.0000;
stroke-linecap:round; stroke-linejoin:round;"
 transform="translate(0 0) scale(1 1)">
</g>
<g style="fill:#000000; fill-opacity:0.0; 
stroke:#000000; stroke-width:0.0000; stroke-opacity:1; 
stroke-linecap:round; stroke-linejoin:round;">
<g >
</g>
<g style="fill:#000000; fill-opacity:0.0; 
stroke:#000000; stroke-width:0.0000; stroke-opacity:1; 
stroke-linecap:round; stroke-linejoin:round;">
</g>
<g style="fill:#000000; fill-opacity:1.0000; 
stroke:#000000; stroke-width:0.0000; stroke-opacity:1; 
stroke-linecap:round; stroke-linejoin:round;">
<path style="fill:#000000; fill-opacity:1.0000; 
stroke:#000000; stroke-width:0.0000; stroke-opacity:1; 
stroke-linecap:round; stroke-linejoin:round;fill-rule:evenodd;"
d="M 79.2025,67.4650
79.1068,67.4460
79.0257,67.3918
78.9715,67.3107
78.9525,67.2150
78.9525,66.6900
78.9715,66.5943
79.0257,66.5132
79.1068,66.4590
79.2025,66.4400
80.1025,66.4400
80.1982,66.4590
80.2793,66.5132
80.3335,66.5943
80.3525,66.6900
80.3525,67.2150
80.3335,67.3107
80.2793,67.3918
80.1982,67.4460
80.1025,67.4650
Z" /> 
<path style="fill:#000000; fill-opacity:1.0000; 
stroke:#000000; stroke-width:0.0000; stroke-opacity:1; 
stroke-linecap:round; stroke-linejoin:round;fill-rule:evenodd;"
d="M 79.2025,65.6400
79.1068,65.6210
79.0257,65.5668
78.9715,65.4857
78.9525,65.3900
78.9525,64.8650
78.9715,64.7693
79.0257,64.6882
79.1068,64.6340
79.2025,64.6150
80.1025,64.6150
80.1982,64.6340
80.2793,64.6882
80.3335,64.7693
80.3525,64.8650
80.3525,65.3900
80.3335,65.4857
80.2793,65.5668
80.1982,65.6210
80.1025,65.6400
Z" /> 
</g>
<g >
</g>
<g style="fill:#000000; fill-opacity:1.0000; 
stroke:#000000; stroke-width:0.0000; stroke-opacity:1; 
stroke-linecap:round; stroke-linejoin:round;">
<path style="fill:#000000; fill-opacity:1.0000; 
stroke:#000000; stroke-width:0.0000; stroke-opacity:1; 
stroke-linecap:round; stroke-linejoin:round;fill-rule:evenodd;"
d="M 83.6050,68.7950
83.6050,67.0950
85.3050,67.0950
85.3050,68.7950
Z" /> 
</g>
<g >
</g>
<g style="fill:#000000; fill-opacity:1.0000; 
stroke:#000000; stroke-width:0.0000; stroke-opacity:1; 
stroke-linecap:round; stroke-linejoin:round;">
<path style="fill:#000000; fill-opacity:1.0000; 
stroke:#000000; stroke-width:0.0000; stroke-opacity:1; 
stroke-linecap:round; stroke-linejoin:round;fill-rule:evenodd;"
d="M 78.5950,61.8100
78.5950,60.1100
80.2950,60.1100
80.2950,61.8100
Z" /> 
</g>
<g >
</g>
<g >
</g>
<g style="fill:#000000; fill-opacity:1.0000; 
stroke:#000000; stroke-width:0.0000; stroke-opacity:1; 
stroke-linecap:round; stroke-linejoin:round;">
</g>
<g style="fill:#000000; fill-opacity:1.0000; 
stroke:#000000; stroke-width:0.5080; stroke-opacity:1; 
stroke-linecap:round; stroke-linejoin:round;">
</g>
<g style="fill:#000000; fill-opacity:0.0; 
stroke:#000000; stroke-width:0.5080; stroke-opacity:1; 
stroke-linecap:round; stroke-linejoin:round;">
<path d="M81.9150 67.9450
L84.4550 67.9450
" />
<path d="M81.2800 67.3100
L81.9150 67.9450
" />
<path d="M81.2800 66.0400
L81.2800 67.3100
" />
<path d="M80.3675 65.1275
L81.2800 66.0400
" />
<path d="M79.6525 65.1275
L80.3675 65.1275
" />
<path d="M77.4700 60.9600
L76.8350 61.5950
" />
<path d="M76.8350 61.5950
L76.8350 66.0400
" />
<path d="M76.8350 66.0400
L77.7475 66.9525
" />
<path d="M77.7475 66.9525
L79.6525 66.9525
" />
<path d="M79.4450 60.9600
L77.4700 60.9600
" />
</g>
<g >
</g>
<g style="fill:#000000; fill-opacity:0.0; 
stroke:#000000; stroke-width:0.5080; stroke-opacity:1; 
stroke-linecap:round; stroke-linejoin:round;">
<g >
</g>
<g style="fill:#000000; fill-opacity:1.0000; 
stroke:#000000; stroke-width:0.0000; stroke-opacity:1; 
stroke-linecap:round; stroke-linejoin:round;">
<path style="fill:#000000; fill-opacity:1.0000; 
stroke:#000000; stroke-width:0.0000; stroke-opacity:1; 
stroke-linecap:round; stroke-linejoin:round;fill-rule:evenodd;"
d="M 86.3025,55.9002
86.3483,55.9530
86.3595,56.0045
86.3595,76.0755
86.3398,76.1425
86.2870,76.1883
86.2355,76.1995
73.7845,76.1995
73.7175,76.1798
73.6717,76.1270
73.6605,76.0755
73.6605,66.0572
76.3757,66.0572
76.3864,66.1139
76.3872,66.1184
76.3958,66.1755
76.3983,66.1837
76.4012,66.1918
76.4281,66.2428
76.4302,66.2469
76.4552,66.2989
76.4601,66.3060
76.4652,66.3129
76.4652,66.3129
76.4652,66.3129
76.5060,66.3537
76.5092,66.3570
76.5192,66.3678
76.5484,66.3994
76.5557,66.4051
76.5552,66.4058
76.5675,66.4152
77.4031,67.2509
77.4124,67.2613
77.4349,67.2894
77.4349,67.2894
77.4825,67.3219
77.4863,67.3246
77.5327,67.3589
77.5403,67.3629
77.5481,67.3666
77.5776,67.3757
77.6032,67.3836
77.6076,67.3851
77.6172,67.3884
77.6620,67.4041
77.6620,67.4041
77.6620,67.4041
77.6620,67.4041
77.6705,67.4057
77.6790,67.4070
77.6790,67.4070
77.7367,67.4070
77.7413,67.4071
77.7590,67.4077
77.7990,67.4092
77.7990,67.4092
77.7990,67.4092
77.7990,67.4092
77.8082,67.4082
77.8083,67.4090
77.8237,67.4070
78.7217,67.4070
78.7887,67.4267
78.8215,67.4574
78.8803,67.5371
78.9896,67.6178
79.0161,67.6271
79.1178,67.6626
79.1482,67.6655
79.1482,67.6655
80.1568,67.6655
80.1872,67.6626
80.1872,67.6626
80.2513,67.6402
80.3154,67.6178
80.4246,67.5371
80.5053,67.4279
80.5405,67.3272
80.5501,67.2997
80.5501,67.2997
80.5530,67.2693
80.5530,66.6357
80.5501,66.6053
80.5501,66.6053
80.5053,66.4771
80.5053,66.4771
80.4939,66.4617
80.4246,66.3678
80.3154,66.2872
80.3154,66.2872
80.1872,66.2424
80.1568,66.2395
80.1568,66.2395
79.1482,66.2395
79.1482,66.2395
79.1178,66.2424
79.1178,66.2424
78.9896,66.2872
78.9896,66.2872
78.8803,66.3678
78.8215,66.4476
78.7658,66.4899
78.7217,66.4980
77.9871,66.4980
77.9201,66.4783
77.8994,66.4617
77.3258,65.8881
77.2923,65.8267
77.2895,65.8004
77.2895,65.4443
78.7520,65.4443
78.7549,65.4747
78.7549,65.4747
78.7997,65.6029
78.7997,65.6029
78.8803,65.7121
78.9896,65.7928
79.0079,65.7992
79.1178,65.8376
79.1482,65.8405
79.1482,65.8405
80.1568,65.8405
80.1872,65.8376
80.1872,65.8376
80.2971,65.7992
80.3669,65.7956
80.4258,65.8285
80.7892,66.1919
80.8227,66.2533
80.8255,66.2796
80.8255,67.2775
80.8247,67.2914
80.8207,67.3272
80.8314,67.3839
80.8322,67.3884
80.8408,67.4455
80.8433,67.4537
80.8462,67.4618
80.8731,67.5128
80.8752,67.5169
80.9002,67.5689
80.9051,67.5760
80.9102,67.5829
80.9102,67.5829
80.9102,67.5829
80.9510,67.6237
80.9542,67.6270
80.9872,67.6626
80.9934,67.6694
81.0007,67.6751
81.0002,67.6758
81.0125,67.6852
81.5706,68.2434
81.5799,68.2538
81.6024,68.2819
81.6024,68.2819
81.6500,68.3144
81.6538,68.3171
81.7002,68.3514
81.7002,68.3514
81.7002,68.3514
81.7078,68.3554
81.7156,68.3591
81.7156,68.3591
81.7707,68.3761
81.7751,68.3776
81.8295,68.3966
81.8296,68.3966
81.8380,68.3982
81.8465,68.3995
81.8465,68.3995
81.9042,68.3995
81.9088,68.3996
81.9265,68.4002
81.9665,68.4017
81.9665,68.4017
81.9665,68.4017
81.9665,68.4017
81.9757,68.4007
81.9758,68.4015
81.9912,68.3995
83.2805,68.3995
83.3475,68.4192
83.3933,68.4720
83.4045,68.5235
83.4045,68.8148
83.4161,68.8732
83.4161,68.8732
83.4604,68.9396
83.5268,68.9839
83.5268,68.9839
83.5852,68.9955
83.5853,68.9955
83.5853,68.9955
85.3247,68.9955
85.3248,68.9955
85.3396,68.9926
85.3832,68.9839
85.3832,68.9839
85.3832,68.9839
85.4496,68.9396
85.4939,68.8732
85.4939,68.8732
85.4939,68.8732
85.5055,68.8148
85.5055,68.8148
85.5055,67.0752
85.5055,67.0752
85.4939,67.0168
85.4939,67.0168
85.4496,66.9504
85.3832,66.9061
85.3832,66.9061
85.3248,66.8945
85.3247,66.8945
83.5853,66.8945
83.5852,66.8945
83.5268,66.9061
83.5268,66.9061
83.4604,66.9504
83.4161,67.0168
83.4161,67.0168
83.4045,67.0752
83.4045,67.3665
83.3848,67.4335
83.3320,67.4793
83.2805,67.4905
82.1546,67.4905
82.0876,67.4708
82.0669,67.4542
81.7708,67.1581
81.7373,67.0967
81.7345,67.0704
81.7345,66.0725
81.7353,66.0586
81.7393,66.0228
81.7377,66.0145
81.7286,65.9661
81.7278,65.9616
81.7192,65.9045
81.7167,65.8963
81.7138,65.8882
81.6869,65.8372
81.6848,65.8331
81.6598,65.7811
81.6549,65.7740
81.6498,65.7671
81.6090,65.7263
81.6058,65.7229
81.5666,65.6806
81.5666,65.6806
81.5666,65.6806
81.5666,65.6806
81.5593,65.6749
81.5598,65.6742
81.5475,65.6648
80.7119,64.8291
80.7026,64.8187
80.6962,64.8107
80.6801,64.7906
80.6325,64.7581
80.6287,64.7554
80.5823,64.7211
80.5747,64.7171
80.5644,64.7122
80.5615,64.7095
80.5606,64.7091
80.5592,64.7081
80.5595,64.7077
80.5126,64.6654
80.5086,64.6584
80.5053,64.6521
80.5053,64.6521
80.4246,64.5429
80.3154,64.4622
80.3154,64.4622
80.1872,64.4174
80.1568,64.4145
80.1568,64.4145
79.1482,64.4145
79.1482,64.4145
79.1178,64.4174
79.1178,64.4174
78.9896,64.4622
78.9896,64.4622
78.8803,64.5429
78.7997,64.6521
78.7997,64.6521
78.7549,64.7803
78.7549,64.7803
78.7520,64.8107
78.7520,65.4443
77.2895,65.4443
77.2895,61.8346
77.3092,61.7676
77.3258,61.7469
77.6219,61.4508
77.6833,61.4173
77.7096,61.4145
78.2705,61.4145
78.3375,61.4342
78.3833,61.4870
78.3945,61.5385
78.3945,61.8298
78.4061,61.8882
78.4061,61.8882
78.4504,61.9546
78.5168,61.9989
78.5168,61.9989
78.5752,62.0105
78.5752,62.0105
78.5753,62.0105
80.3147,62.0105
80.3148,62.0105
80.3296,62.0076
80.3732,61.9989
80.3732,61.9989
80.3732,61.9989
80.4396,61.9546
80.4839,61.8882
80.4839,61.8882
80.4839,61.8882
80.4926,61.8446
80.4955,61.8297
80.4955,60.0903
80.4955,60.0902
80.4955,60.0902
80.4839,60.0318
80.4839,60.0318
80.4396,59.9654
80.3732,59.9211
80.3732,59.9211
80.3148,59.9095
80.3147,59.9095
78.5753,59.9095
78.5752,59.9095
78.5168,59.9211
78.5168,59.9211
78.4504,59.9654
78.4061,60.0318
78.4061,60.0318
78.3945,60.0902
78.3945,60.3815
78.3748,60.4485
78.3220,60.4943
78.2705,60.5055
77.5025,60.5055
77.4886,60.5047
77.4863,60.5045
77.4528,60.5007
77.3961,60.5114
77.3916,60.5122
77.3432,60.5195
77.3345,60.5208
77.3345,60.5208
77.3345,60.5208
77.3263,60.5233
77.3182,60.5262
77.2672,60.5531
77.2630,60.5552
77.2111,60.5802
77.2040,60.5851
77.1971,60.5902
77.1563,60.6310
77.1529,60.6342
77.1106,60.6734
77.1048,60.6807
77.1042,60.6802
77.0948,60.6925
76.5366,61.2506
76.5262,61.2599
76.4981,61.2824
76.4656,61.3300
76.4629,61.3338
76.4286,61.3802
76.4246,61.3879
76.4209,61.3956
76.4039,61.4507
76.4024,61.4551
76.3834,61.5095
76.3818,61.5180
76.3805,61.5265
76.3805,61.5842
76.3804,61.5888
76.3783,61.6465
76.3793,61.6557
76.3785,61.6558
76.3805,61.6712
76.3805,66.0075
76.3797,66.0214
76.3757,66.0572
73.6605,66.0572
73.6605,56.0045
73.6802,55.9375
73.7330,55.8917
73.7845,55.8805
86.2355,55.8805
Z" /> 
</g>
</g>
</g>
<g style="fill:#000000; fill-opacity:1.0000; 
stroke:#000000; stroke-width:0.0000; stroke-opacity:1; 
stroke-linecap:round; stroke-linejoin:round;">
<g >
<path style="fill:#000000; fill-opacity:1.0000; 
stroke:#000000; stroke-width:0.0000; stroke-opacity:1; 
stroke-linecap:round; stroke-linejoin:round;fill-rule:evenodd;"
d="M 79.2025,67.4650
79.1068,67.4460
79.0257,67.3918
78.9715,67.3107
78.9525,67.2150
78.9525,66.6900
78.9715,66.5943
79.0257,66.5132
79.1068,66.4590
79.2025,66.4400
80.1025,66.4400
80.1982,66.4590
80.2793,66.5132
80.3335,66.5943
80.3525,66.6900
80.3525,67.2150
80.3335,67.3107
80.2793,67.3918
80.1982,67.4460
80.1025,67.4650
Z" /> 
<path style="fill:#000000; fill-opacity:1.0000; 
stroke:#000000; stroke-width:0.0000; stroke-opacity:1; 
stroke-linecap:round; stroke-linejoin:round;fill-rule:evenodd;"
d="M 79.2025,65.6400
79.1068,65.6210
79.0257,65.5668
78.9715,65.4857
78.9525,65.3900
78.9525,64.8650
78.9715,64.7693
79.0257,64.6882
79.1068,64.6340
79.2025,64.6150
80.1025,64.6150
80.1982,64.6340
80.2793,64.6882
80.3335,64.7693
80.3525,64.8650
80.3525,65.3900
80.3335,65.4857
80.2793,65.5668
80.1982,65.6210
80.1025,65.6400
Z" /> 
</g>
<g >
</g>
<g style="fill:#000000; fill-opacity:1.0000; 
stroke:#000000; stroke-width:0.0000; stroke-opacity:1; 
stroke-linecap:round; stroke-linejoin:round;">
<path style="fill:#000000; fill-opacity:1.0000; 
stroke:#000000; stroke-width:0.0000; stroke-opacity:1; 
stroke-linecap:round; stroke-linejoin:round;fill-rule:evenodd;"
d="M 83.6050,68.7950
83.6050,67.0950
85.3050,67.0950
85.3050,68.7950
Z" /> 
</g>
<g >
</g>
<g style="fill:#000000; fill-opacity:1.0000; 
stroke:#000000; stroke-width:0.0000; stroke-opacity:1; 
stroke-linecap:round; stroke-linejoin:round;">
<path style="fill:#000000; fill-opacity:1.0000; 
stroke:#000000; stroke-width:0.0000; stroke-opacity:1; 
stroke-linecap:round; stroke-linejoin:round;fill-rule:evenodd;"
d="M 78.5950,61.8100
78.5950,60.1100
80.2950,60.1100
80.2950,61.8100
Z" /> 
</g>
<g >
</g>
<g >
</g>
<g >
</g>
</g>
<g style="fill:#000000; fill-opacity:1.0000; 
stroke:#000000; stroke-width:0.0000; stroke-opacity:1; 
stroke-linecap:round; stroke-linejoin:round;">
</g>
<g style="fill:#000000; fill-opacity:1.0000; 
stroke:#000000; stroke-width:0.0500; stroke-opacity:1; 
stroke-linecap:round; stroke-linejoin:round;">
</g>
<g style="fill:#000000; fill-opacity:0.0; 
stroke:#000000; stroke-width:0.0500; stroke-opacity:1; 
stroke-linecap:round; stroke-linejoin:round;">
<path d="M78.7025 67.7200
L78.7025 64.3600
" />
<path d="M78.7025 64.3600
L80.6025 64.3600
" />
<path d="M80.6025 67.7200
L78.7025 67.7200
" />
<path d="M80.6025 64.3600
L80.6025 67.7200
" />
<path d="M82.6550 69.7450
L95.0050 69.7450
" />
<path d="M95.0050 69.7450
L95.0050 66.1450
" />
<path d="M82.6550 66.1450
L82.6550 69.7450
" />
<path d="M95.0050 66.1450
L82.6550 66.1450
" />
<path d="M77.6450 62.7600
L89.9950 62.7600
" />
<path d="M89.9950 62.7600
L89.9950 59.1600
" />
<path d="M77.6450 59.1600
L77.6450 62.7600
" />
<path d="M89.9950 59.1600
L77.6450 59.1600
" />
<g >
</g>
<g >
</g>
<g >
</g>
<g >
</g>
<g >
</g>
<g >
</g>
</g>
<g style="fill:#000000; fill-opacity:0.0; 
stroke:#000000; stroke-width:0.0500; stroke-opacity:1; 
stroke-linecap:round; stroke-linejoin:round;">
</g>
<g style="fill:#000000; fill-opacity:0.0; 
stroke:#000000; stroke-width:0.1000; stroke-opacity:1; 
stroke-linecap:round; stroke-linejoin:round;">
<path style="fill:#000000; fill-opacity:0.0; 
stroke:#000000; stroke-width:0.1000; stroke-opacity:1; 
stroke-linecap:round; stroke-linejoin:round;fill:none"
d="M 73.6600,55.8800
86.3600,55.8800
86.3600,76.2000
73.6600,76.2000
Z" /> 
<g >
</g>
<g >
</g>
<g >
</g>
<g >
</g>
<g >
</g>
<g >
</g>
</g> 
</svg>
